<?xml version="1.0" encoding="UTF-8" standalone="no"?>
<!DOCTYPE svg PUBLIC "-//W3C//DTD SVG 1.1//EN"
 "http://www.w3.org/Graphics/SVG/1.1/DTD/svg11.dtd">
<!-- Generated by graphviz version 2.43.0 (0)
 -->
<!-- Title: replaceString Pages: 1 -->
<svg width="405pt" height="277pt"
 viewBox="0.00 0.00 405.00 277.49" xmlns="http://www.w3.org/2000/svg" xmlns:xlink="http://www.w3.org/1999/xlink">
<g id="graph0" class="graph" transform="scale(1 1) rotate(0) translate(4 273.49)">
<title>replaceString</title>
<!-- Node1 -->
<g id="Node000001" class="node">
<title>Node1</title>
<g id="a_Node000001"><a xlink:href="acsConfig_8cpp.html#a611c3086ccdeb877c19a6b1d603227a4" target="_top" xlink:title="search for and replace section of string">
<path fill="#fff0f0" stroke="red" stroke-width="2" d="M390.67,-137.49C390.67,-137.49 322.33,-137.49 322.33,-137.49 319.17,-137.49 316,-134.32 316,-131.15 316,-131.15 316,-124.82 316,-124.82 316,-121.65 319.17,-118.49 322.33,-118.49 322.33,-118.49 390.67,-118.49 390.67,-118.49 393.83,-118.49 397,-121.65 397,-124.82 397,-124.82 397,-131.15 397,-131.15 397,-134.32 393.83,-137.49 390.67,-137.49"/>
<text text-anchor="middle" x="356.5" y="-125.49" font-family="Helvetica,sans-Serif" font-size="10.00">replaceString</text>
</a>
</g>
</g>
<!-- Node2 -->
<g id="Node000002" class="node">
<title>Node2</title>
<g id="a_Node000002"><a xlink:href="mongo_8cpp.html#a6ae1d4d5325500d82e381190dcafe405" target="_top" xlink:title=" ">
<path fill="#fff0f0" stroke="red" d="M273.17,-269.49C273.17,-269.49 175.83,-269.49 175.83,-269.49 172.67,-269.49 169.5,-266.32 169.5,-263.15 169.5,-263.15 169.5,-256.82 169.5,-256.82 169.5,-253.65 172.67,-250.49 175.83,-250.49 175.83,-250.49 273.17,-250.49 273.17,-250.49 276.33,-250.49 279.5,-253.65 279.5,-256.82 279.5,-256.82 279.5,-263.15 279.5,-263.15 279.5,-266.32 276.33,-269.49 273.17,-269.49"/>
<text text-anchor="middle" x="224.5" y="-257.49" font-family="Helvetica,sans-Serif" font-size="10.00">checkValidDbname</text>
</a>
</g>
</g>
<!-- Node1&#45;&gt;Node2 -->
<g id="edge1_Node000001_Node000002" class="edge">
<title>Node1&#45;&gt;Node2</title>
<g id="a_edge1_Node000001_Node000002"><a xlink:title=" ">
<path fill="none" stroke="#63b8ff" d="M347.84,-146.71C336.61,-171.92 313.32,-216.53 280,-241.99 275.57,-245.37 270.46,-248.14 265.2,-250.4"/>
<polygon fill="#63b8ff" stroke="#63b8ff" points="351.07,-148.07 351.79,-137.5 344.63,-145.31 351.07,-148.07"/>
</a>
</g>
</g>
<!-- Node3 -->
<g id="Node000003" class="node">
<title>Node3</title>
<g id="a_Node000003"><a xlink:href="mongo_8cpp.html#a52ea466b77ea949c69649373cb073616" target="_top" xlink:title=" ">
<path fill="#fff0f0" stroke="red" d="M113.67,-44.49C113.67,-44.49 19.33,-44.49 19.33,-44.49 16.17,-44.49 13,-41.32 13,-38.15 13,-38.15 13,-31.82 13,-31.82 13,-28.65 16.17,-25.49 19.33,-25.49 19.33,-25.49 113.67,-25.49 113.67,-25.49 116.83,-25.49 120,-28.65 120,-31.82 120,-31.82 120,-38.15 120,-38.15 120,-41.32 116.83,-44.49 113.67,-44.49"/>
<text text-anchor="middle" x="66.5" y="-32.49" font-family="Helvetica,sans-Serif" font-size="10.00">startNewMongoDb</text>
</a>
</g>
</g>
<!-- Node1&#45;&gt;Node3 -->
<g id="edge12_Node000001_Node000003" class="edge">
<title>Node1&#45;&gt;Node3</title>
<g id="a_edge12_Node000001_Node000003"><a xlink:title=" ">
<path fill="none" stroke="#63b8ff" d="M349.08,-108.78C339.06,-82.3 316.94,-35.63 280,-15.99 217.7,17.15 130.45,-9.55 89.88,-25.38"/>
<polygon fill="#63b8ff" stroke="#63b8ff" points="345.87,-110.21 352.54,-118.45 352.47,-107.85 345.87,-110.21"/>
</a>
</g>
</g>
<!-- Node7 -->
<g id="Node000007" class="node">
<title>Node7</title>
<g id="a_Node000007"><a xlink:href="acsConfig_8cpp.html#aa3c0ea195ecdd16cb7f57431995a4faa" target="_top" xlink:title=" ">
<path fill="#fff0f0" stroke="red" d="M267.17,-232.49C267.17,-232.49 181.83,-232.49 181.83,-232.49 178.67,-232.49 175.5,-229.32 175.5,-226.15 175.5,-226.15 175.5,-219.82 175.5,-219.82 175.5,-216.65 178.67,-213.49 181.83,-213.49 181.83,-213.49 267.17,-213.49 267.17,-213.49 270.33,-213.49 273.5,-216.65 273.5,-219.82 273.5,-219.82 273.5,-226.15 273.5,-226.15 273.5,-229.32 270.33,-232.49 267.17,-232.49"/>
<text text-anchor="middle" x="224.5" y="-220.49" font-family="Helvetica,sans-Serif" font-size="10.00">conditionalPrefix</text>
</a>
</g>
</g>
<!-- Node1&#45;&gt;Node7 -->
<g id="edge3_Node000001_Node000007" class="edge">
<title>Node1&#45;&gt;Node7</title>
<g id="a_edge3_Node000001_Node000007"><a xlink:title=" ">
<path fill="none" stroke="#63b8ff" d="M339.98,-145.67C325.61,-161.23 303.04,-183.74 280,-198.99 271.38,-204.69 261.18,-209.6 251.95,-213.47"/>
<polygon fill="#63b8ff" stroke="#63b8ff" points="342.96,-147.59 347.07,-137.82 337.76,-142.89 342.96,-147.59"/>
</a>
</g>
</g>
<!-- Node13 -->
<g id="Node000013" class="node">
<title>Node13</title>
<g id="a_Node000013"><a xlink:href="trace_8cpp.html#a4d8fcbcf5c1eb96baff3deeeaf1cc8ab" target="_top" xlink:title=" ">
<path fill="#fff0f0" stroke="red" d="M116.17,-174.49C116.17,-174.49 16.83,-174.49 16.83,-174.49 13.67,-174.49 10.5,-171.32 10.5,-168.15 10.5,-168.15 10.5,-161.82 10.5,-161.82 10.5,-158.65 13.67,-155.49 16.83,-155.49 16.83,-155.49 116.17,-155.49 116.17,-155.49 119.33,-155.49 122.5,-158.65 122.5,-161.82 122.5,-161.82 122.5,-168.15 122.5,-168.15 122.5,-171.32 119.33,-174.49 116.17,-174.49"/>
<text text-anchor="middle" x="66.5" y="-162.49" font-family="Helvetica,sans-Serif" font-size="10.00">createNewTraceFile</text>
</a>
</g>
</g>
<!-- Node1&#45;&gt;Node13 -->
<g id="edge4_Node000001_Node000013" class="edge">
<title>Node1&#45;&gt;Node13</title>
<g id="a_edge4_Node000001_Node000013"><a xlink:title=" ">
<path fill="none" stroke="#63b8ff" d="M305.76,-138.55C297.2,-140.17 288.36,-141.73 280,-142.99 226.82,-151 165.71,-157 122.71,-160.69"/>
<polygon fill="#63b8ff" stroke="#63b8ff" points="306.51,-141.97 315.65,-136.62 305.17,-135.1 306.51,-141.97"/>
</a>
</g>
</g>
<!-- Node15 -->
<g id="Node000015" class="node">
<title>Node15</title>
<g id="a_Node000015"><a xlink:href="rinexClkWrite_8cpp.html#a87a652e05ec91c35c1e56c0650176dfa" target="_top" xlink:title=" ">
<path fill="#fff0f0" stroke="red" d="M126.67,-118.49C126.67,-118.49 6.33,-118.49 6.33,-118.49 3.17,-118.49 0,-115.32 0,-112.15 0,-112.15 0,-105.82 0,-105.82 0,-102.65 3.17,-99.49 6.33,-99.49 6.33,-99.49 126.67,-99.49 126.67,-99.49 129.83,-99.49 133,-102.65 133,-105.82 133,-105.82 133,-112.15 133,-112.15 133,-115.32 129.83,-118.49 126.67,-118.49"/>
<text text-anchor="middle" x="66.5" y="-106.49" font-family="Helvetica,sans-Serif" font-size="10.00">getSysOutputFilenames</text>
</a>
</g>
</g>
<!-- Node1&#45;&gt;Node15 -->
<g id="edge5_Node000001_Node000015" class="edge">
<title>Node1&#45;&gt;Node15</title>
<g id="a_edge5_Node000001_Node000015"><a xlink:title=" ">
<path fill="none" stroke="#63b8ff" d="M305.56,-130.02C267.94,-130.99 215.13,-131.17 169,-126.99 150.11,-125.27 129.46,-121.89 111.75,-118.52"/>
<polygon fill="#63b8ff" stroke="#63b8ff" points="305.85,-133.51 315.75,-129.73 305.65,-126.51 305.85,-133.51"/>
</a>
</g>
</g>
<!-- Node24 -->
<g id="Node000024" class="node">
<title>Node24</title>
<g id="a_Node000024"><a xlink:href="slrObs_8cpp.html#a8f4c7f3ebd17e93d03acee01f5e9862e" target="_top" xlink:title="Outputs a tabular file with SLR observations in time&#45;order.">
<path fill="#fff0f0" stroke="red" d="M273.67,-118.49C273.67,-118.49 175.33,-118.49 175.33,-118.49 172.17,-118.49 169,-115.32 169,-112.15 169,-112.15 169,-105.82 169,-105.82 169,-102.65 172.17,-99.49 175.33,-99.49 175.33,-99.49 273.67,-99.49 273.67,-99.49 276.83,-99.49 280,-102.65 280,-105.82 280,-105.82 280,-112.15 280,-112.15 280,-115.32 276.83,-118.49 273.67,-118.49"/>
<text text-anchor="middle" x="224.5" y="-106.49" font-family="Helvetica,sans-Serif" font-size="10.00">outputSortedSlrObs</text>
</a>
</g>
</g>
<!-- Node1&#45;&gt;Node24 -->
<g id="edge6_Node000001_Node000024" class="edge">
<title>Node1&#45;&gt;Node24</title>
<g id="a_edge6_Node000001_Node000024"><a xlink:title=" ">
<path fill="none" stroke="#63b8ff" d="M305.82,-120.73C297.47,-119.51 288.76,-118.23 280.28,-116.99"/>
<polygon fill="#63b8ff" stroke="#63b8ff" points="305.39,-124.2 315.79,-122.18 306.4,-117.27 305.39,-124.2"/>
</a>
</g>
</g>
<!-- Node26 -->
<g id="Node000026" class="node">
<title>Node26</title>
<g id="a_Node000026"><a xlink:href="acsConfig_8cpp.html#a2fb6a351dc0cac89305989af6ca205d5" target="_top" xlink:title="Replace macros for times with configured values.">
<path fill="#fff0f0" stroke="red" d="M255.17,-81.49C255.17,-81.49 193.83,-81.49 193.83,-81.49 190.67,-81.49 187.5,-78.32 187.5,-75.15 187.5,-75.15 187.5,-68.82 187.5,-68.82 187.5,-65.65 190.67,-62.49 193.83,-62.49 193.83,-62.49 255.17,-62.49 255.17,-62.49 258.33,-62.49 261.5,-65.65 261.5,-68.82 261.5,-68.82 261.5,-75.15 261.5,-75.15 261.5,-78.32 258.33,-81.49 255.17,-81.49"/>
<text text-anchor="middle" x="224.5" y="-69.49" font-family="Helvetica,sans-Serif" font-size="10.00">replaceTags</text>
</a>
</g>
</g>
<!-- Node1&#45;&gt;Node26 -->
<g id="edge7_Node000001_Node000026" class="edge">
<title>Node1&#45;&gt;Node26</title>
<g id="a_edge7_Node000001_Node000026"><a xlink:title=" ">
<path fill="none" stroke="#63b8ff" d="M328.93,-113.41C314.66,-105.89 296.63,-96.88 280,-89.99 272.64,-86.94 264.55,-84.04 256.92,-81.49"/>
<polygon fill="#63b8ff" stroke="#63b8ff" points="327.68,-116.71 338.15,-118.33 330.98,-110.53 327.68,-116.71"/>
</a>
</g>
</g>
<!-- Node29 -->
<g id="Node000029" class="node">
<title>Node29</title>
<g id="a_Node000029"><a xlink:href="outputs_8cpp.html#a1cf8846f3d7514f4c5d086213aad7949" target="_top" xlink:title="Replace macros for times with numeric values.">
<path fill="#fff0f0" stroke="red" d="M259.67,-44.49C259.67,-44.49 189.33,-44.49 189.33,-44.49 186.17,-44.49 183,-41.32 183,-38.15 183,-38.15 183,-31.82 183,-31.82 183,-28.65 186.17,-25.49 189.33,-25.49 189.33,-25.49 259.67,-25.49 259.67,-25.49 262.83,-25.49 266,-28.65 266,-31.82 266,-31.82 266,-38.15 266,-38.15 266,-41.32 262.83,-44.49 259.67,-44.49"/>
<text text-anchor="middle" x="224.5" y="-32.49" font-family="Helvetica,sans-Serif" font-size="10.00">replaceTimes</text>
</a>
</g>
</g>
<!-- Node1&#45;&gt;Node29 -->
<g id="edge8_Node000001_Node000029" class="edge">
<title>Node1&#45;&gt;Node29</title>
<g id="a_edge8_Node000001_Node000029"><a xlink:title=" ">
<path fill="none" stroke="#63b8ff" d="M341.82,-110.27C327.92,-93.37 304.94,-68.3 280,-52.99 274.56,-49.65 268.44,-46.86 262.31,-44.54"/>
<polygon fill="#63b8ff" stroke="#63b8ff" points="339.24,-112.65 348.22,-118.26 344.7,-108.27 339.24,-112.65"/>
</a>
</g>
</g>
<!-- Node2&#45;&gt;Node3 -->
<g id="edge2_Node000002_Node000003" class="edge">
<title>Node2&#45;&gt;Node3</title>
<g id="a_edge2_Node000002_Node000003"><a xlink:title=" ">
<path fill="none" stroke="#63b8ff" d="M171.82,-244.75C170.83,-243.88 169.89,-242.96 169,-241.99 122.08,-190.82 169.43,-149.08 133,-89.99 120.84,-70.27 99.18,-54.16 84.11,-44.58"/>
<polygon fill="#63b8ff" stroke="#63b8ff" points="169.94,-247.7 180.17,-250.49 173.91,-241.93 169.94,-247.7"/>
</a>
</g>
</g>
<!-- Node29&#45;&gt;Node3 -->
<g id="edge11_Node000029_Node000003" class="edge">
<title>Node29&#45;&gt;Node3</title>
<g id="a_edge11_Node000029_Node000003"><a xlink:title=" ">
<path fill="none" stroke="#63b8ff" d="M172.74,-34.99C155.93,-34.99 137.18,-34.99 120.23,-34.99"/>
<polygon fill="#63b8ff" stroke="#63b8ff" points="172.92,-38.49 182.92,-34.99 172.92,-31.49 172.92,-38.49"/>
</a>
</g>
</g>
<!-- Node29&#45;&gt;Node13 -->
<g id="edge9_Node000029_Node000013" class="edge">
<title>Node29&#45;&gt;Node13</title>
<g id="a_edge9_Node000029_Node000013"><a xlink:title=" ">
<path fill="none" stroke="#63b8ff" d="M173.83,-49.29C172.14,-50.43 170.52,-51.66 169,-52.99 141.47,-77.06 157.9,-100.2 133,-126.99 121.45,-139.41 104.91,-148.96 91.34,-155.38"/>
<polygon fill="#63b8ff" stroke="#63b8ff" points="175.77,-52.22 182.82,-44.31 172.38,-46.09 175.77,-52.22"/>
</a>
</g>
</g>
<!-- Node29&#45;&gt;Node15 -->
<g id="edge10_Node000029_Node000015" class="edge">
<title>Node29&#45;&gt;Node15</title>
<g id="a_edge10_Node000029_Node000015"><a xlink:title=" ">
<path fill="none" stroke="#63b8ff" d="M181.69,-47.91C177.36,-49.51 173.07,-51.21 169,-52.99 137.27,-66.84 102.36,-87.35 82.87,-99.33"/>
<polygon fill="#63b8ff" stroke="#63b8ff" points="182.87,-51.21 191.14,-44.58 180.54,-44.6 182.87,-51.21"/>
</a>
</g>
</g>
</g>
</svg>
