<?xml version="1.0" encoding="UTF-8" standalone="no"?>
<!DOCTYPE svg PUBLIC "-//W3C//DTD SVG 1.1//EN"
 "http://www.w3.org/Graphics/SVG/1.1/DTD/svg11.dtd">
<!-- Generated by graphviz version 2.43.0 (0)
 -->
<!-- Title: Aliases_And_Inheritance__ Pages: 1 -->
<svg width="970pt" height="1950pt"
 viewBox="0.00 0.00 970.00 1949.82" xmlns="http://www.w3.org/2000/svg" xmlns:xlink="http://www.w3.org/1999/xlink">
<g id="graph0" class="graph" transform="scale(1 1) rotate(0) translate(4 1945.82)">
<title>Aliases_And_Inheritance__</title>
<!-- Node1 -->
<g id="Node000001" class="node">
<title>Node1</title>
<g id="a_Node000001"><a xlink:href="acsConfig_8cpp.html#a57142261136f5897c47c628a876837a7" target="_top" xlink:title="Some configuration structures are possible to be configured specific for eg a receiver or signal or c...">
<polygon fill="#88ff88" stroke="#00aa00" stroke-width="2" points="962,-993.18 816,-993.18 816,-974.18 962,-974.18 962,-993.18"/>
<text text-anchor="middle" x="889" y="-981.18" font-family="Helvetica,sans-Serif" font-size="10.00">Aliases_And_Inheritance__</text>
</a>
</g>
</g>
<!-- Node2 -->
<g id="Node000002" class="node">
<title>Node2</title>
<g id="a_Node000002"><a xlink:href="acsConfig_8cpp.html#ae92af27db5dcd388f3d7ef53d96f1f51" target="_top" xlink:title="YAML based configuration.">
<polygon fill="#88ff88" stroke="#00aa00" points="744.5,-1915.18 686.5,-1915.18 686.5,-1896.18 744.5,-1896.18 744.5,-1915.18"/>
<text text-anchor="middle" x="715.5" y="-1903.18" font-family="Helvetica,sans-Serif" font-size="10.00">Config__</text>
</a>
</g>
</g>
<!-- Node1&#45;&gt;Node2 -->
<g id="edge1_Node000001_Node000002" class="edge">
<title>Node1&#45;&gt;Node2</title>
<g id="a_edge1_Node000001_Node000002"><a xlink:title=" ">
<path fill="none" stroke="#63b8ff" d="M884.32,-1003.47C861.06,-1128.5 734.94,-1806.54 718.31,-1895.94"/>
<polygon fill="#63b8ff" stroke="#63b8ff" points="887.8,-1003.88 886.19,-993.41 880.92,-1002.6 887.8,-1003.88"/>
</a>
</g>
</g>
<!-- Node8 -->
<g id="Node000008" class="node">
<title>Node8</title>
<g id="a_Node000008"><a xlink:href="structACSConfig.html#acbb130e061ba4b7bf620e4fb68e1b794" target="_top" xlink:title="Set receiver options for a specific receiver using a hierarchy of sources.">
<path fill="#fff0f0" stroke="red" d="M773.67,-993.18C773.67,-993.18 657.33,-993.18 657.33,-993.18 654.17,-993.18 651,-990.01 651,-986.84 651,-986.84 651,-980.51 651,-980.51 651,-977.34 654.17,-974.18 657.33,-974.18 657.33,-974.18 773.67,-974.18 773.67,-974.18 776.83,-974.18 780,-977.34 780,-980.51 780,-980.51 780,-986.84 780,-986.84 780,-990.01 776.83,-993.18 773.67,-993.18"/>
<text text-anchor="middle" x="715.5" y="-981.18" font-family="Helvetica,sans-Serif" font-size="10.00">ACSConfig::getRecOpts</text>
</a>
</g>
</g>
<!-- Node1&#45;&gt;Node8 -->
<g id="edge5_Node000001_Node000008" class="edge">
<title>Node1&#45;&gt;Node8</title>
<g id="a_edge5_Node000001_Node000008"><a xlink:title=" ">
<path fill="none" stroke="#63b8ff" d="M805.74,-983.68C797.16,-983.68 788.54,-983.68 780.21,-983.68"/>
<polygon fill="#63b8ff" stroke="#63b8ff" points="805.77,-987.18 815.77,-983.68 805.77,-980.18 805.77,-987.18"/>
</a>
</g>
</g>
<!-- Node113 -->
<g id="Node000113" class="node">
<title>Node113</title>
<g id="a_Node000113"><a xlink:href="structACSConfig.html#a20ca3689eafecfa2b7e656c28e340256" target="_top" xlink:title="Set satellite options for a specific satellite using a hierarchy of sources.">
<path fill="#fff0f0" stroke="red" d="M772.67,-956.18C772.67,-956.18 658.33,-956.18 658.33,-956.18 655.17,-956.18 652,-953.01 652,-949.84 652,-949.84 652,-943.51 652,-943.51 652,-940.34 655.17,-937.18 658.33,-937.18 658.33,-937.18 772.67,-937.18 772.67,-937.18 775.83,-937.18 779,-940.34 779,-943.51 779,-943.51 779,-949.84 779,-949.84 779,-953.01 775.83,-956.18 772.67,-956.18"/>
<text text-anchor="middle" x="715.5" y="-944.18" font-family="Helvetica,sans-Serif" font-size="10.00">ACSConfig::getSatOpts</text>
</a>
</g>
</g>
<!-- Node1&#45;&gt;Node113 -->
<g id="edge64_Node000001_Node000113" class="edge">
<title>Node1&#45;&gt;Node113</title>
<g id="a_edge64_Node000001_Node000113"><a xlink:title=" ">
<path fill="none" stroke="#63b8ff" d="M833.99,-972.02C810.43,-966.94 783.15,-961.06 760.81,-956.24"/>
<polygon fill="#63b8ff" stroke="#63b8ff" points="833.32,-975.46 843.83,-974.15 834.8,-968.62 833.32,-975.46"/>
</a>
</g>
</g>
<!-- Node3 -->
<g id="Node000003" class="node">
<title>Node3</title>
<g id="a_Node000003"><a xlink:href="structACSConfig.html#acbe400e2cc2760cbebd28dda6413c4ad" target="_top" xlink:title="Parse options to set acsConfig values.">
<path fill="#fff0f0" stroke="red" d="M201.17,-1022.18C201.17,-1022.18 113.83,-1022.18 113.83,-1022.18 110.67,-1022.18 107.5,-1019.01 107.5,-1015.84 107.5,-1015.84 107.5,-1009.51 107.5,-1009.51 107.5,-1006.34 110.67,-1003.18 113.83,-1003.18 113.83,-1003.18 201.17,-1003.18 201.17,-1003.18 204.33,-1003.18 207.5,-1006.34 207.5,-1009.51 207.5,-1009.51 207.5,-1015.84 207.5,-1015.84 207.5,-1019.01 204.33,-1022.18 201.17,-1022.18"/>
<text text-anchor="middle" x="157.5" y="-1010.18" font-family="Helvetica,sans-Serif" font-size="10.00">ACSConfig::parse</text>
</a>
</g>
</g>
<!-- Node2&#45;&gt;Node3 -->
<g id="edge2_Node000002_Node000003" class="edge">
<title>Node2&#45;&gt;Node3</title>
<g id="a_edge2_Node000002_Node000003"><a xlink:title=" ">
<path fill="none" stroke="#63b8ff" d="M678.95,-1918.31C626.12,-1934.92 524.86,-1958.27 448,-1924.68 343.68,-1879.08 318.22,-1841.59 274,-1736.68 243.58,-1664.5 287.72,-1093.2 238,-1032.68 230.41,-1023.44 219.24,-1018.11 207.66,-1015.12"/>
<polygon fill="#63b8ff" stroke="#63b8ff" points="680.11,-1921.62 688.55,-1915.2 677.95,-1914.96 680.11,-1921.62"/>
</a>
</g>
</g>
<!-- Node6 -->
<g id="Node000006" class="node">
<title>Node6</title>
<g id="a_Node000006"><a xlink:href="Ginan_8cpp.html#a59a8bad8519426f9742fa63079e4a5e9" target="_top" xlink:title="Ginan&#39;s main processing executable.">
<polygon fill="#88ff88" stroke="#00aa00" points="554,-1915.18 509,-1915.18 509,-1896.18 554,-1896.18 554,-1915.18"/>
<text text-anchor="middle" x="531.5" y="-1903.18" font-family="Helvetica,sans-Serif" font-size="10.00">Pea__</text>
</a>
</g>
</g>
<!-- Node2&#45;&gt;Node6 -->
<g id="edge4_Node000002_Node000006" class="edge">
<title>Node2&#45;&gt;Node6</title>
<g id="a_edge4_Node000002_Node000006"><a xlink:title=" ">
<path fill="none" stroke="#63b8ff" d="M676.02,-1905.68C638.89,-1905.68 584.01,-1905.68 554.02,-1905.68"/>
<polygon fill="#63b8ff" stroke="#63b8ff" points="676.46,-1909.18 686.46,-1905.68 676.46,-1902.18 676.46,-1909.18"/>
</a>
</g>
</g>
<!-- Node5 -->
<g id="Node000005" class="node">
<title>Node5</title>
<g id="a_Node000005"><a xlink:href="main_8cpp.html#a3c04138a5bfe5d72780bb7e82a18e627" target="_top" xlink:title=" ">
<path fill="#fff0f0" stroke="red" d="M34.67,-1163.18C34.67,-1163.18 6.33,-1163.18 6.33,-1163.18 3.17,-1163.18 0,-1160.01 0,-1156.84 0,-1156.84 0,-1150.51 0,-1150.51 0,-1147.34 3.17,-1144.18 6.33,-1144.18 6.33,-1144.18 34.67,-1144.18 34.67,-1144.18 37.83,-1144.18 41,-1147.34 41,-1150.51 41,-1150.51 41,-1156.84 41,-1156.84 41,-1160.01 37.83,-1163.18 34.67,-1163.18"/>
<text text-anchor="middle" x="20.5" y="-1151.18" font-family="Helvetica,sans-Serif" font-size="10.00">main</text>
</a>
</g>
</g>
<!-- Node3&#45;&gt;Node5 -->
<g id="edge3_Node000003_Node000005" class="edge">
<title>Node3&#45;&gt;Node5</title>
<g id="a_edge3_Node000003_Node000005"><a xlink:title=" ">
<path fill="none" stroke="#63b8ff" d="M97.79,-1020.96C90.26,-1023.82 83.08,-1027.62 77,-1032.68 40.92,-1062.67 27.16,-1121.18 23.01,-1144.12"/>
<polygon fill="#63b8ff" stroke="#63b8ff" points="99.01,-1024.25 107.44,-1017.83 96.85,-1017.59 99.01,-1024.25"/>
</a>
</g>
</g>
<!-- Node8&#45;&gt;Node3 -->
<g id="edge39_Node000008_Node000003" class="edge">
<title>Node8&#45;&gt;Node3</title>
<g id="a_edge39_Node000008_Node000003"><a xlink:title=" ">
<path fill="none" stroke="#63b8ff" d="M640.71,-981.88C553.02,-980.59 402.42,-981.01 274,-994.68 252.1,-997.01 228.02,-1000.59 207.54,-1003.96"/>
<polygon fill="#63b8ff" stroke="#63b8ff" points="640.77,-985.38 650.82,-982.04 640.88,-978.38 640.77,-985.38"/>
</a>
</g>
</g>
<!-- Node8&#45;&gt;Node5 -->
<g id="edge31_Node000008_Node000005" class="edge">
<title>Node8&#45;&gt;Node5</title>
<g id="a_edge31_Node000008_Node000005"><a xlink:title=" ">
<path fill="none" stroke="#63b8ff" d="M711.43,-1003.14C700.99,-1066.75 664.66,-1266.55 615,-1304.68 494.76,-1397 419.65,-1354.72 274,-1312.68 168.48,-1282.22 64.57,-1193.17 31.96,-1163.45"/>
<polygon fill="#63b8ff" stroke="#63b8ff" points="714.9,-1003.65 713.03,-993.22 707.99,-1002.54 714.9,-1003.65"/>
</a>
</g>
</g>
<!-- Node9 -->
<g id="Node000009" class="node">
<title>Node9</title>
<g id="a_Node000009"><a xlink:href="inputs_8cpp.html#ab3449f085d46135293be1aa43f96915f" target="_top" xlink:title="Create a receiver object from an input.">
<path fill="#fff0f0" stroke="red" d="M575.67,-1878.18C575.67,-1878.18 487.33,-1878.18 487.33,-1878.18 484.17,-1878.18 481,-1875.01 481,-1871.84 481,-1871.84 481,-1865.51 481,-1865.51 481,-1862.34 484.17,-1859.18 487.33,-1859.18 487.33,-1859.18 575.67,-1859.18 575.67,-1859.18 578.83,-1859.18 582,-1862.34 582,-1865.51 582,-1865.51 582,-1871.84 582,-1871.84 582,-1875.01 578.83,-1878.18 575.67,-1878.18"/>
<text text-anchor="middle" x="531.5" y="-1866.18" font-family="Helvetica,sans-Serif" font-size="10.00">addReceiverData</text>
</a>
</g>
</g>
<!-- Node8&#45;&gt;Node9 -->
<g id="edge6_Node000008_Node000009" class="edge">
<title>Node8&#45;&gt;Node9</title>
<g id="a_edge6_Node000008_Node000009"><a xlink:title=" ">
<path fill="none" stroke="#63b8ff" d="M713.6,-1003.36C707.77,-1126.31 673.94,-1785.49 615,-1850.68 606.54,-1860.03 594.46,-1865.13 582.14,-1867.78"/>
<polygon fill="#63b8ff" stroke="#63b8ff" points="717.1,-1003.33 714.07,-993.18 710.11,-1003 717.1,-1003.33"/>
</a>
</g>
</g>
<!-- Node12 -->
<g id="Node000012" class="node">
<title>Node12</title>
<g id="a_Node000012"><a xlink:href="main_8cpp.html#a85051f6840a4b64c19e25a4b461723e4" target="_top" xlink:title=" ">
<path fill="#fff0f0" stroke="red" d="M570.67,-1841.18C570.67,-1841.18 492.33,-1841.18 492.33,-1841.18 489.17,-1841.18 486,-1838.01 486,-1834.84 486,-1834.84 486,-1828.51 486,-1828.51 486,-1825.34 489.17,-1822.18 492.33,-1822.18 492.33,-1822.18 570.67,-1822.18 570.67,-1822.18 573.83,-1822.18 577,-1825.34 577,-1828.51 577,-1828.51 577,-1834.84 577,-1834.84 577,-1838.01 573.83,-1841.18 570.67,-1841.18"/>
<text text-anchor="middle" x="531.5" y="-1829.18" font-family="Helvetica,sans-Serif" font-size="10.00">avoidCollisions</text>
</a>
</g>
</g>
<!-- Node8&#45;&gt;Node12 -->
<g id="edge7_Node000008_Node000012" class="edge">
<title>Node8&#45;&gt;Node12</title>
<g id="a_edge7_Node000008_Node000012"><a xlink:title=" ">
<path fill="none" stroke="#63b8ff" d="M713.41,-1003.44C706.63,-1122.77 668.93,-1744.16 615,-1807.68 605.54,-1818.82 591.23,-1824.95 577.17,-1828.27"/>
<polygon fill="#63b8ff" stroke="#63b8ff" points="716.91,-1003.41 713.98,-993.23 709.92,-1003.01 716.91,-1003.41"/>
</a>
</g>
</g>
<!-- Node13 -->
<g id="Node000013" class="node">
<title>Node13</title>
<g id="a_Node000013"><a xlink:href="localAtmosRegion_8cpp.html#a4f2c14c2994a3bb5761636e9196b34e8" target="_top" xlink:title=" ">
<path fill="#fff0f0" stroke="red" d="M209.17,-1634.18C209.17,-1634.18 105.83,-1634.18 105.83,-1634.18 102.67,-1634.18 99.5,-1631.01 99.5,-1627.84 99.5,-1627.84 99.5,-1621.51 99.5,-1621.51 99.5,-1618.34 102.67,-1615.18 105.83,-1615.18 105.83,-1615.18 209.17,-1615.18 209.17,-1615.18 212.33,-1615.18 215.5,-1618.34 215.5,-1621.51 215.5,-1621.51 215.5,-1627.84 215.5,-1627.84 215.5,-1631.01 212.33,-1634.18 209.17,-1634.18"/>
<text text-anchor="middle" x="157.5" y="-1622.18" font-family="Helvetica,sans-Serif" font-size="10.00">configAtmosRegions</text>
</a>
</g>
</g>
<!-- Node8&#45;&gt;Node13 -->
<g id="edge8_Node000008_Node000013" class="edge">
<title>Node8&#45;&gt;Node13</title>
<g id="a_edge8_Node000008_Node000013"><a xlink:title=" ">
<path fill="none" stroke="#63b8ff" d="M713.56,-1003.24C707.74,-1120.01 674.96,-1721.79 615,-1774.68 557.82,-1825.11 341.18,-1772.73 274,-1736.68 224.53,-1710.13 181.54,-1656.23 165.35,-1634.29"/>
<polygon fill="#63b8ff" stroke="#63b8ff" points="717.05,-1003.38 714.05,-993.22 710.06,-1003.04 717.05,-1003.38"/>
</a>
</g>
</g>
<!-- Node14 -->
<g id="Node000014" class="node">
<title>Node14</title>
<g id="a_Node000014"><a xlink:href="acsQC_8cpp.html#a9a7675a515de2802ed917e9d32dd897d" target="_top" xlink:title="Cycle slip detection for dual&#45;frequency.">
<path fill="#fff0f0" stroke="red" d="M557.67,-1765.18C557.67,-1765.18 505.33,-1765.18 505.33,-1765.18 502.17,-1765.18 499,-1762.01 499,-1758.84 499,-1758.84 499,-1752.51 499,-1752.51 499,-1749.34 502.17,-1746.18 505.33,-1746.18 505.33,-1746.18 557.67,-1746.18 557.67,-1746.18 560.83,-1746.18 564,-1749.34 564,-1752.51 564,-1752.51 564,-1758.84 564,-1758.84 564,-1762.01 560.83,-1765.18 557.67,-1765.18"/>
<text text-anchor="middle" x="531.5" y="-1753.18" font-family="Helvetica,sans-Serif" font-size="10.00">cycleslip2</text>
</a>
</g>
</g>
<!-- Node8&#45;&gt;Node14 -->
<g id="edge10_Node000008_Node000014" class="edge">
<title>Node8&#45;&gt;Node14</title>
<g id="a_edge10_Node000008_Node000014"><a xlink:title=" ">
<path fill="none" stroke="#63b8ff" d="M714.83,-1003.48C716.21,-1111.27 717.3,-1626.44 615,-1737.68 602.3,-1751.49 581.67,-1755.99 564.22,-1757.04"/>
<polygon fill="#63b8ff" stroke="#63b8ff" points="718.33,-1003.31 714.68,-993.36 711.33,-1003.41 718.33,-1003.31"/>
</a>
</g>
</g>
<!-- Node15 -->
<g id="Node000015" class="node">
<title>Node15</title>
<g id="a_Node000015"><a xlink:href="acsQC_8cpp.html#a7b37fc255c80330a5497de5bee8f2dbb" target="_top" xlink:title="Cycle slip detection and repair.">
<path fill="#fff0f0" stroke="red" d="M369.17,-1727.18C369.17,-1727.18 316.83,-1727.18 316.83,-1727.18 313.67,-1727.18 310.5,-1724.01 310.5,-1720.84 310.5,-1720.84 310.5,-1714.51 310.5,-1714.51 310.5,-1711.34 313.67,-1708.18 316.83,-1708.18 316.83,-1708.18 369.17,-1708.18 369.17,-1708.18 372.33,-1708.18 375.5,-1711.34 375.5,-1714.51 375.5,-1714.51 375.5,-1720.84 375.5,-1720.84 375.5,-1724.01 372.33,-1727.18 369.17,-1727.18"/>
<text text-anchor="middle" x="343" y="-1715.18" font-family="Helvetica,sans-Serif" font-size="10.00">detectslip</text>
</a>
</g>
</g>
<!-- Node8&#45;&gt;Node15 -->
<g id="edge17_Node000008_Node000015" class="edge">
<title>Node8&#45;&gt;Node15</title>
<g id="a_edge17_Node000008_Node000015"><a xlink:title=" ">
<path fill="none" stroke="#63b8ff" d="M713.58,-1003.44C709.14,-1090.22 687.09,-1436.41 615,-1511.68 562.28,-1566.72 509.96,-1506.29 448,-1550.68 389.41,-1592.65 356.75,-1678.88 347.08,-1707.9"/>
<polygon fill="#63b8ff" stroke="#63b8ff" points="717.08,-1003.53 714.07,-993.37 710.09,-1003.19 717.08,-1003.53"/>
</a>
</g>
</g>
<!-- Node19 -->
<g id="Node000019" class="node">
<title>Node19</title>
<g id="a_Node000019"><a xlink:href="acsQC_8cpp.html#a5278f59e23c92b2a1912d5dde5e2f809" target="_top" xlink:title="Cycle slip detection and repair for triple&#45;frequency.">
<path fill="#fff0f0" stroke="red" d="M557.67,-1728.18C557.67,-1728.18 505.33,-1728.18 505.33,-1728.18 502.17,-1728.18 499,-1725.01 499,-1721.84 499,-1721.84 499,-1715.51 499,-1715.51 499,-1712.34 502.17,-1709.18 505.33,-1709.18 505.33,-1709.18 557.67,-1709.18 557.67,-1709.18 560.83,-1709.18 564,-1712.34 564,-1715.51 564,-1715.51 564,-1721.84 564,-1721.84 564,-1725.01 560.83,-1728.18 557.67,-1728.18"/>
<text text-anchor="middle" x="531.5" y="-1716.18" font-family="Helvetica,sans-Serif" font-size="10.00">cycleslip3</text>
</a>
</g>
</g>
<!-- Node8&#45;&gt;Node19 -->
<g id="edge12_Node000008_Node000019" class="edge">
<title>Node8&#45;&gt;Node19</title>
<g id="a_edge12_Node000008_Node000019"><a xlink:title=" ">
<path fill="none" stroke="#63b8ff" d="M714.68,-1003.82C715.22,-1109.14 712.31,-1595.57 615,-1700.68 602.25,-1714.45 581.63,-1718.95 564.19,-1720"/>
<polygon fill="#63b8ff" stroke="#63b8ff" points="718.18,-1003.6 714.61,-993.63 711.18,-1003.65 718.18,-1003.6"/>
</a>
</g>
</g>
<!-- Node20 -->
<g id="Node000020" class="node">
<title>Node20</title>
<g id="a_Node000020"><a xlink:href="debug_8cpp.html#a9779f5f24c300e72581f3858ed638c9e" target="_top" xlink:title=" ">
<path fill="#fff0f0" stroke="red" d="M568.17,-1615.18C568.17,-1615.18 494.83,-1615.18 494.83,-1615.18 491.67,-1615.18 488.5,-1612.01 488.5,-1608.84 488.5,-1608.84 488.5,-1602.51 488.5,-1602.51 488.5,-1599.34 491.67,-1596.18 494.83,-1596.18 494.83,-1596.18 568.17,-1596.18 568.17,-1596.18 571.33,-1596.18 574.5,-1599.34 574.5,-1602.51 574.5,-1602.51 574.5,-1608.84 574.5,-1608.84 574.5,-1612.01 571.33,-1615.18 568.17,-1615.18"/>
<text text-anchor="middle" x="531.5" y="-1603.18" font-family="Helvetica,sans-Serif" font-size="10.00">debugAttitude</text>
</a>
</g>
</g>
<!-- Node8&#45;&gt;Node20 -->
<g id="edge14_Node000008_Node000020" class="edge">
<title>Node8&#45;&gt;Node20</title>
<g id="a_edge14_Node000008_Node000020"><a xlink:title=" ">
<path fill="none" stroke="#63b8ff" d="M714.12,-1003.54C711.88,-1098 697.55,-1500.76 615,-1587.68 604.6,-1598.63 589.22,-1603.68 574.54,-1605.81"/>
<polygon fill="#63b8ff" stroke="#63b8ff" points="717.62,-1003.45 714.34,-993.38 710.62,-1003.3 717.62,-1003.45"/>
</a>
</g>
</g>
<!-- Node21 -->
<g id="Node000021" class="node">
<title>Node21</title>
<g id="a_Node000021"><a xlink:href="rinex_8cpp.html#a774458b36a7a13e1263568e05106dc83" target="_top" xlink:title="Decode obs header.">
<path fill="#fff0f0" stroke="red" d="M564.17,-1578.18C564.17,-1578.18 498.83,-1578.18 498.83,-1578.18 495.67,-1578.18 492.5,-1575.01 492.5,-1571.84 492.5,-1571.84 492.5,-1565.51 492.5,-1565.51 492.5,-1562.34 495.67,-1559.18 498.83,-1559.18 498.83,-1559.18 564.17,-1559.18 564.17,-1559.18 567.33,-1559.18 570.5,-1562.34 570.5,-1565.51 570.5,-1565.51 570.5,-1571.84 570.5,-1571.84 570.5,-1575.01 567.33,-1578.18 564.17,-1578.18"/>
<text text-anchor="middle" x="531.5" y="-1566.18" font-family="Helvetica,sans-Serif" font-size="10.00">decodeObsH</text>
</a>
</g>
</g>
<!-- Node8&#45;&gt;Node21 -->
<g id="edge15_Node000008_Node000021" class="edge">
<title>Node8&#45;&gt;Node21</title>
<g id="a_edge15_Node000008_Node000021"><a xlink:title=" ">
<path fill="none" stroke="#63b8ff" d="M713.7,-1003.71C709.72,-1093.98 689.07,-1462.18 615,-1544.68 603.84,-1557.11 586.65,-1563.26 570.85,-1566.24"/>
<polygon fill="#63b8ff" stroke="#63b8ff" points="717.21,-1003.62 714.13,-993.49 710.22,-1003.33 717.21,-1003.62"/>
</a>
</g>
</g>
<!-- Node22 -->
<g id="Node000022" class="node">
<title>Node22</title>
<g id="a_Node000022"><a xlink:href="rinex_8cpp.html#a8751d1a1d98fb7862f17d0a3ebc22310" target="_top" xlink:title="Read rinex header.">
<path fill="#fff0f0" stroke="red" d="M369.17,-794.18C369.17,-794.18 316.83,-794.18 316.83,-794.18 313.67,-794.18 310.5,-791.01 310.5,-787.84 310.5,-787.84 310.5,-781.51 310.5,-781.51 310.5,-778.34 313.67,-775.18 316.83,-775.18 316.83,-775.18 369.17,-775.18 369.17,-775.18 372.33,-775.18 375.5,-778.34 375.5,-781.51 375.5,-781.51 375.5,-787.84 375.5,-787.84 375.5,-791.01 372.33,-794.18 369.17,-794.18"/>
<text text-anchor="middle" x="343" y="-782.18" font-family="Helvetica,sans-Serif" font-size="10.00">readRnxH</text>
</a>
</g>
</g>
<!-- Node8&#45;&gt;Node22 -->
<g id="edge48_Node000008_Node000022" class="edge">
<title>Node8&#45;&gt;Node22</title>
<g id="a_edge48_Node000008_Node000022"><a xlink:title=" ">
<path fill="none" stroke="#63b8ff" d="M652.91,-967.78C652.25,-967.11 651.61,-966.41 651,-965.68 599.25,-903.86 674.77,-658.78 615,-604.68 559.97,-554.87 508.53,-561.72 448,-604.68 408.46,-632.75 436.51,-665.83 412,-707.68 396.14,-734.76 369.94,-761 355.12,-774.75"/>
<polygon fill="#63b8ff" stroke="#63b8ff" points="650.83,-970.6 660.86,-974.01 655.15,-965.09 650.83,-970.6"/>
</a>
</g>
</g>
<!-- Node25 -->
<g id="Node000025" class="node">
<title>Node25</title>
<g id="a_Node000025"><a xlink:href="spp_8cpp.html#ad923112e4e6dfdfc8b050b68851fe1d0" target="_top" xlink:title="Estimate receiver position and biases using code measurements.">
<path fill="#fff0f0" stroke="red" d="M549.67,-1502.18C549.67,-1502.18 513.33,-1502.18 513.33,-1502.18 510.17,-1502.18 507,-1499.01 507,-1495.84 507,-1495.84 507,-1489.51 507,-1489.51 507,-1486.34 510.17,-1483.18 513.33,-1483.18 513.33,-1483.18 549.67,-1483.18 549.67,-1483.18 552.83,-1483.18 556,-1486.34 556,-1489.51 556,-1489.51 556,-1495.84 556,-1495.84 556,-1499.01 552.83,-1502.18 549.67,-1502.18"/>
<text text-anchor="middle" x="531.5" y="-1490.18" font-family="Helvetica,sans-Serif" font-size="10.00">estpos</text>
</a>
</g>
</g>
<!-- Node8&#45;&gt;Node25 -->
<g id="edge18_Node000008_Node000025" class="edge">
<title>Node8&#45;&gt;Node25</title>
<g id="a_edge18_Node000008_Node000025"><a xlink:title=" ">
<path fill="none" stroke="#63b8ff" d="M713.29,-1003.66C707.84,-1087.01 682.77,-1405.89 615,-1474.68 599.77,-1490.13 574.58,-1493.73 556.03,-1494.02"/>
<polygon fill="#63b8ff" stroke="#63b8ff" points="716.79,-1003.71 713.93,-993.51 709.81,-1003.27 716.79,-1003.71"/>
</a>
</g>
</g>
<!-- Node28 -->
<g id="Node000028" class="node">
<title>Node28</title>
<g id="a_Node000028"><a xlink:href="ionoModel_8cpp.html#ae7821a74f98f349d4508712aeced88e1" target="_top" xlink:title="Updating the ionosphere model parameters The ionosphere model should be initialized by calling &#39;confi...">
<path fill="#fff0f0" stroke="red" d="M571.67,-1465.18C571.67,-1465.18 491.33,-1465.18 491.33,-1465.18 488.17,-1465.18 485,-1462.01 485,-1458.84 485,-1458.84 485,-1452.51 485,-1452.51 485,-1449.34 488.17,-1446.18 491.33,-1446.18 491.33,-1446.18 571.67,-1446.18 571.67,-1446.18 574.83,-1446.18 578,-1449.34 578,-1452.51 578,-1452.51 578,-1458.84 578,-1458.84 578,-1462.01 574.83,-1465.18 571.67,-1465.18"/>
<text text-anchor="middle" x="531.5" y="-1453.18" font-family="Helvetica,sans-Serif" font-size="10.00">filterIonosphere</text>
</a>
</g>
</g>
<!-- Node8&#45;&gt;Node28 -->
<g id="edge19_Node000008_Node000028" class="edge">
<title>Node8&#45;&gt;Node28</title>
<g id="a_edge19_Node000008_Node000028"><a xlink:title=" ">
<path fill="none" stroke="#63b8ff" d="M712.93,-1003.66C706.31,-1083.03 677.98,-1374.76 615,-1437.68 605.25,-1447.42 591.54,-1452.43 578.09,-1454.88"/>
<polygon fill="#63b8ff" stroke="#63b8ff" points="716.44,-1003.79 713.76,-993.54 709.46,-1003.23 716.44,-1003.79"/>
</a>
</g>
</g>
<!-- Node31 -->
<g id="Node000031" class="node">
<title>Node31</title>
<g id="a_Node000031"><a xlink:href="erp_8cpp.html#afe3874cc58d609f4ccc2b03a5ef632b8" target="_top" xlink:title="Get earth rotation parameter values.">
<path fill="#fff0f0" stroke="red" d="M549.17,-1428.18C549.17,-1428.18 513.83,-1428.18 513.83,-1428.18 510.67,-1428.18 507.5,-1425.01 507.5,-1421.84 507.5,-1421.84 507.5,-1415.51 507.5,-1415.51 507.5,-1412.34 510.67,-1409.18 513.83,-1409.18 513.83,-1409.18 549.17,-1409.18 549.17,-1409.18 552.33,-1409.18 555.5,-1412.34 555.5,-1415.51 555.5,-1415.51 555.5,-1421.84 555.5,-1421.84 555.5,-1425.01 552.33,-1428.18 549.17,-1428.18"/>
<text text-anchor="middle" x="531.5" y="-1416.18" font-family="Helvetica,sans-Serif" font-size="10.00">getErp</text>
</a>
</g>
</g>
<!-- Node8&#45;&gt;Node31 -->
<g id="edge20_Node000008_Node000031" class="edge">
<title>Node8&#45;&gt;Node31</title>
<g id="a_edge20_Node000008_Node000031"><a xlink:title=" ">
<path fill="none" stroke="#63b8ff" d="M712.54,-1003.46C704.71,-1078.42 673.25,-1343.55 615,-1400.68 599.41,-1415.97 574.02,-1419.56 555.52,-1419.89"/>
<polygon fill="#63b8ff" stroke="#63b8ff" points="716.02,-1003.78 713.56,-993.48 709.06,-1003.07 716.02,-1003.78"/>
</a>
</g>
</g>
<!-- Node59 -->
<g id="Node000059" class="node">
<title>Node59</title>
<g id="a_Node000059"><a xlink:href="minimumConstraints_8cpp.html#aa40934b017f373d875c3470591eff52e" target="_top" xlink:title=" ">
<path fill="#fff0f0" stroke="red" d="M363.17,-1277.18C363.17,-1277.18 322.83,-1277.18 322.83,-1277.18 319.67,-1277.18 316.5,-1274.01 316.5,-1270.84 316.5,-1270.84 316.5,-1264.51 316.5,-1264.51 316.5,-1261.34 319.67,-1258.18 322.83,-1258.18 322.83,-1258.18 363.17,-1258.18 363.17,-1258.18 366.33,-1258.18 369.5,-1261.34 369.5,-1264.51 369.5,-1264.51 369.5,-1270.84 369.5,-1270.84 369.5,-1274.01 366.33,-1277.18 363.17,-1277.18"/>
<text text-anchor="middle" x="343" y="-1265.18" font-family="Helvetica,sans-Serif" font-size="10.00">mincon</text>
</a>
</g>
</g>
<!-- Node8&#45;&gt;Node59 -->
<g id="edge33_Node000008_Node000059" class="edge">
<title>Node8&#45;&gt;Node59</title>
<g id="a_edge33_Node000008_Node000059"><a xlink:title=" ">
<path fill="none" stroke="#63b8ff" d="M713.31,-1003.4C709.23,-1052.03 691.41,-1177.99 615,-1236.68 541.39,-1293.22 421.64,-1281.35 369.55,-1272.68"/>
<polygon fill="#63b8ff" stroke="#63b8ff" points="716.81,-1003.49 714.05,-993.27 709.83,-1002.98 716.81,-1003.49"/>
</a>
</g>
</g>
<!-- Node61 -->
<g id="Node000061" class="node">
<title>Node61</title>
<g id="a_Node000061"><a xlink:href="ppp__pseudoobs_8cpp.html#ab04e5f1ff741cf022a574560b93daddd" target="_top" xlink:title=" ">
<path fill="#fff0f0" stroke="red" d="M206.17,-757.18C206.17,-757.18 108.83,-757.18 108.83,-757.18 105.67,-757.18 102.5,-754.01 102.5,-750.84 102.5,-750.84 102.5,-744.51 102.5,-744.51 102.5,-741.34 105.67,-738.18 108.83,-738.18 108.83,-738.18 206.17,-738.18 206.17,-738.18 209.33,-738.18 212.5,-741.34 212.5,-744.51 212.5,-744.51 212.5,-750.84 212.5,-750.84 212.5,-754.01 209.33,-757.18 206.17,-757.18"/>
<text text-anchor="middle" x="157.5" y="-745.18" font-family="Helvetica,sans-Serif" font-size="10.00">receiverPseudoObs</text>
</a>
</g>
</g>
<!-- Node8&#45;&gt;Node61 -->
<g id="edge49_Node000008_Node000061" class="edge">
<title>Node8&#45;&gt;Node61</title>
<g id="a_edge49_Node000008_Node000061"><a xlink:title=" ">
<path fill="none" stroke="#63b8ff" d="M652.9,-967.79C652.24,-967.11 651.61,-966.41 651,-965.68 594.17,-897.14 680.72,-626.73 615,-566.68 503.08,-464.4 405.9,-500.93 274,-575.68 207.34,-613.45 171.65,-707.44 161.54,-737.95"/>
<polygon fill="#63b8ff" stroke="#63b8ff" points="650.81,-970.6 660.83,-974.04 655.14,-965.1 650.81,-970.6"/>
</a>
</g>
</g>
<!-- Node45 -->
<g id="Node000045" class="node">
<title>Node45</title>
<g id="a_Node000045"><a xlink:href="ppp__slr_8cpp.html#aa76f9747fdfc064d7ec64ae8d163fb86" target="_top" xlink:title=" ">
<path fill="#fff0f0" stroke="red" d="M371.17,-698.18C371.17,-698.18 314.83,-698.18 314.83,-698.18 311.67,-698.18 308.5,-695.01 308.5,-691.84 308.5,-691.84 308.5,-685.51 308.5,-685.51 308.5,-682.34 311.67,-679.18 314.83,-679.18 314.83,-679.18 371.17,-679.18 371.17,-679.18 374.33,-679.18 377.5,-682.34 377.5,-685.51 377.5,-685.51 377.5,-691.84 377.5,-691.84 377.5,-695.01 374.33,-698.18 371.17,-698.18"/>
<text text-anchor="middle" x="343" y="-686.18" font-family="Helvetica,sans-Serif" font-size="10.00">receiverSlr</text>
</a>
</g>
</g>
<!-- Node8&#45;&gt;Node45 -->
<g id="edge50_Node000008_Node000045" class="edge">
<title>Node8&#45;&gt;Node45</title>
<g id="a_edge50_Node000008_Node000045"><a xlink:title=" ">
<path fill="none" stroke="#63b8ff" d="M652.9,-967.79C652.24,-967.11 651.61,-966.41 651,-965.68 594.17,-897.14 680.72,-626.73 615,-566.68 560.21,-516.61 508.46,-523.63 448,-566.68 408.16,-595.05 447.85,-637.4 412,-670.68 402.69,-679.32 389.72,-683.91 377.61,-686.31"/>
<polygon fill="#63b8ff" stroke="#63b8ff" points="650.81,-970.6 660.83,-974.04 655.14,-965.1 650.81,-970.6"/>
</a>
</g>
</g>
<!-- Node41 -->
<g id="Node000041" class="node">
<title>Node41</title>
<g id="a_Node000041"><a xlink:href="ppp__obs_8cpp.html#a2a01ea8204bc0ae172ffc50a28623f9e" target="_top" xlink:title=" ">
<path fill="#fff0f0" stroke="red" d="M389.17,-661.18C389.17,-661.18 296.83,-661.18 296.83,-661.18 293.67,-661.18 290.5,-658.01 290.5,-654.84 290.5,-654.84 290.5,-648.51 290.5,-648.51 290.5,-645.34 293.67,-642.18 296.83,-642.18 296.83,-642.18 389.17,-642.18 389.17,-642.18 392.33,-642.18 395.5,-645.34 395.5,-648.51 395.5,-648.51 395.5,-654.84 395.5,-654.84 395.5,-658.01 392.33,-661.18 389.17,-661.18"/>
<text text-anchor="middle" x="343" y="-649.18" font-family="Helvetica,sans-Serif" font-size="10.00">receiverUducGnss</text>
</a>
</g>
</g>
<!-- Node8&#45;&gt;Node41 -->
<g id="edge51_Node000008_Node000041" class="edge">
<title>Node8&#45;&gt;Node41</title>
<g id="a_edge51_Node000008_Node000041"><a xlink:title=" ">
<path fill="none" stroke="#63b8ff" d="M652.9,-967.8C652.24,-967.12 651.61,-966.41 651,-965.68 589.1,-890.43 686.67,-594.69 615,-528.68 560.4,-478.39 509.88,-487.69 448,-528.68 413.8,-551.33 439.39,-583.13 412,-613.68 400.62,-626.36 383.97,-635.77 370,-642.05"/>
<polygon fill="#63b8ff" stroke="#63b8ff" points="650.79,-970.59 660.8,-974.06 655.14,-965.11 650.79,-970.59"/>
</a>
</g>
</g>
<!-- Node83 -->
<g id="Node000083" class="node">
<title>Node83</title>
<g id="a_Node000083"><a xlink:href="tides_8cpp.html#a8c1ecf974982e1054a68a0eb279a45d5" target="_top" xlink:title=" ">
<path fill="#fff0f0" stroke="red" d="M365.17,-604.18C365.17,-604.18 320.83,-604.18 320.83,-604.18 317.67,-604.18 314.5,-601.01 314.5,-597.84 314.5,-597.84 314.5,-591.51 314.5,-591.51 314.5,-588.34 317.67,-585.18 320.83,-585.18 320.83,-585.18 365.17,-585.18 365.17,-585.18 368.33,-585.18 371.5,-588.34 371.5,-591.51 371.5,-591.51 371.5,-597.84 371.5,-597.84 371.5,-601.01 368.33,-604.18 365.17,-604.18"/>
<text text-anchor="middle" x="343" y="-592.18" font-family="Helvetica,sans-Serif" font-size="10.00">tideDisp</text>
</a>
</g>
</g>
<!-- Node8&#45;&gt;Node83 -->
<g id="edge59_Node000008_Node000083" class="edge">
<title>Node8&#45;&gt;Node83</title>
<g id="a_edge59_Node000008_Node000083"><a xlink:title=" ">
<path fill="none" stroke="#63b8ff" d="M652.53,-967.49C652,-966.9 651.49,-966.3 651,-965.68 589.94,-888.21 686.15,-146.99 615,-78.68 561.46,-27.27 503.36,-29.24 448,-78.68 395.12,-125.9 427.55,-326.51 412,-395.68 395.18,-470.48 360.2,-556.47 348.17,-584.96"/>
<polygon fill="#63b8ff" stroke="#63b8ff" points="650.44,-970.29 660.36,-974.01 654.92,-964.92 650.44,-970.29"/>
</a>
</g>
</g>
<!-- Node89 -->
<g id="Node000089" class="node">
<title>Node89</title>
<g id="a_Node000089"><a xlink:href="ppp__pseudoobs_8cpp.html#ae73c509527efa6401eb80a02825fb7fd" target="_top" xlink:title=" ">
<path fill="#fff0f0" stroke="red" d="M571.17,-1391.18C571.17,-1391.18 491.83,-1391.18 491.83,-1391.18 488.67,-1391.18 485.5,-1388.01 485.5,-1384.84 485.5,-1384.84 485.5,-1378.51 485.5,-1378.51 485.5,-1375.34 488.67,-1372.18 491.83,-1372.18 491.83,-1372.18 571.17,-1372.18 571.17,-1372.18 574.33,-1372.18 577.5,-1375.34 577.5,-1378.51 577.5,-1378.51 577.5,-1384.84 577.5,-1384.84 577.5,-1388.01 574.33,-1391.18 571.17,-1391.18"/>
<text text-anchor="middle" x="531.5" y="-1379.18" font-family="Helvetica,sans-Serif" font-size="10.00">ionoPseudoObs</text>
</a>
</g>
</g>
<!-- Node8&#45;&gt;Node89 -->
<g id="edge30_Node000008_Node000089" class="edge">
<title>Node8&#45;&gt;Node89</title>
<g id="a_edge30_Node000008_Node000089"><a xlink:title=" ">
<path fill="none" stroke="#63b8ff" d="M711.81,-1003.52C701.99,-1073.23 665.93,-1305.56 615,-1357.68 605.1,-1367.81 591.18,-1373.73 577.6,-1377.17"/>
<polygon fill="#63b8ff" stroke="#63b8ff" points="715.3,-1003.83 713.21,-993.44 708.37,-1002.87 715.3,-1003.83"/>
</a>
</g>
</g>
<!-- Node18 -->
<g id="Node000018" class="node">
<title>Node18</title>
<g id="a_Node000018"><a xlink:href="main_8cpp.html#ae9a767ba206649ca2e395dd210c2218b" target="_top" xlink:title="Perform operations for each station This function occurs in parallel with other stations &#45; ensure tha...">
<path fill="#fff0f0" stroke="red" d="M231.67,-1060.18C231.67,-1060.18 83.33,-1060.18 83.33,-1060.18 80.17,-1060.18 77,-1057.01 77,-1053.84 77,-1053.84 77,-1047.51 77,-1047.51 77,-1044.34 80.17,-1041.18 83.33,-1041.18 83.33,-1041.18 231.67,-1041.18 231.67,-1041.18 234.83,-1041.18 238,-1044.34 238,-1047.51 238,-1047.51 238,-1053.84 238,-1053.84 238,-1057.01 234.83,-1060.18 231.67,-1060.18"/>
<text text-anchor="middle" x="157.5" y="-1048.18" font-family="Helvetica,sans-Serif" font-size="10.00">mainOncePerEpochPerStation</text>
</a>
</g>
</g>
<!-- Node8&#45;&gt;Node18 -->
<g id="edge32_Node000008_Node000018" class="edge">
<title>Node8&#45;&gt;Node18</title>
<g id="a_edge32_Node000008_Node000018"><a xlink:title=" ">
<path fill="none" stroke="#63b8ff" d="M714.51,-1003.36C713.36,-1056.73 702.09,-1204.65 615,-1271.68 554.89,-1317.94 338.35,-1326.83 274,-1286.68 188.86,-1233.55 164.75,-1097.44 159.66,-1060.21"/>
<polygon fill="#63b8ff" stroke="#63b8ff" points="718.01,-1003.25 714.63,-993.21 711.01,-1003.17 718.01,-1003.25"/>
</a>
</g>
</g>
<!-- Node91 -->
<g id="Node000091" class="node">
<title>Node91</title>
<g id="a_Node000091"><a xlink:href="ionoMeas_8cpp.html#ab3f111d5e6d66de4751fbce467a29372" target="_top" xlink:title=" ">
<path fill="#fff0f0" stroke="red" d="M375.67,-1125.18C375.67,-1125.18 310.33,-1125.18 310.33,-1125.18 307.17,-1125.18 304,-1122.01 304,-1118.84 304,-1118.84 304,-1112.51 304,-1112.51 304,-1109.34 307.17,-1106.18 310.33,-1106.18 310.33,-1106.18 375.67,-1106.18 375.67,-1106.18 378.83,-1106.18 382,-1109.34 382,-1112.51 382,-1112.51 382,-1118.84 382,-1118.84 382,-1122.01 378.83,-1125.18 375.67,-1125.18"/>
<text text-anchor="middle" x="343" y="-1113.18" font-family="Helvetica,sans-Serif" font-size="10.00">obsIonoData</text>
</a>
</g>
</g>
<!-- Node8&#45;&gt;Node91 -->
<g id="edge34_Node000008_Node000091" class="edge">
<title>Node8&#45;&gt;Node91</title>
<g id="a_edge34_Node000008_Node000091"><a xlink:title=" ">
<path fill="none" stroke="#63b8ff" d="M712.79,-1003.44C707.62,-1049.41 687.72,-1163.15 615,-1210.68 552.87,-1251.28 517.2,-1237.52 448,-1210.68 402.86,-1193.16 365.33,-1145.91 350.64,-1125.4"/>
<polygon fill="#63b8ff" stroke="#63b8ff" points="716.29,-1003.6 713.81,-993.3 709.33,-1002.9 716.29,-1003.6"/>
</a>
</g>
</g>
<!-- Node92 -->
<g id="Node000092" class="node">
<title>Node92</title>
<g id="a_Node000092"><a xlink:href="preprocessor_8cpp.html#a5bf581abef6389557c3fdd95086a5c42" target="_top" xlink:title=" ">
<path fill="#fff0f0" stroke="red" d="M565.67,-1049.18C565.67,-1049.18 497.33,-1049.18 497.33,-1049.18 494.17,-1049.18 491,-1046.01 491,-1042.84 491,-1042.84 491,-1036.51 491,-1036.51 491,-1033.34 494.17,-1030.18 497.33,-1030.18 497.33,-1030.18 565.67,-1030.18 565.67,-1030.18 568.83,-1030.18 572,-1033.34 572,-1036.51 572,-1036.51 572,-1042.84 572,-1042.84 572,-1046.01 568.83,-1049.18 565.67,-1049.18"/>
<text text-anchor="middle" x="531.5" y="-1037.18" font-family="Helvetica,sans-Serif" font-size="10.00">obsVariances</text>
</a>
</g>
</g>
<!-- Node8&#45;&gt;Node92 -->
<g id="edge36_Node000008_Node000092" class="edge">
<title>Node8&#45;&gt;Node92</title>
<g id="a_edge36_Node000008_Node000092"><a xlink:title=" ">
<path fill="none" stroke="#63b8ff" d="M683.05,-997.08C663.68,-1004.98 638.19,-1014.76 615,-1021.68 601.23,-1025.78 585.92,-1029.38 572.25,-1032.26"/>
<polygon fill="#63b8ff" stroke="#63b8ff" points="684.4,-1000.31 692.31,-993.25 681.73,-993.84 684.4,-1000.31"/>
</a>
</g>
</g>
<!-- Node93 -->
<g id="Node000093" class="node">
<title>Node93</title>
<g id="a_Node000093"><a xlink:href="cost_8cpp.html#abc021ac32635abe4cf6daef44cabb888" target="_top" xlink:title="Outputs troposphere COST file.">
<path fill="#fff0f0" stroke="red" d="M560.17,-1012.18C560.17,-1012.18 502.83,-1012.18 502.83,-1012.18 499.67,-1012.18 496.5,-1009.01 496.5,-1005.84 496.5,-1005.84 496.5,-999.51 496.5,-999.51 496.5,-996.34 499.67,-993.18 502.83,-993.18 502.83,-993.18 560.17,-993.18 560.17,-993.18 563.33,-993.18 566.5,-996.34 566.5,-999.51 566.5,-999.51 566.5,-1005.84 566.5,-1005.84 566.5,-1009.01 563.33,-1012.18 560.17,-1012.18"/>
<text text-anchor="middle" x="531.5" y="-1000.18" font-family="Helvetica,sans-Serif" font-size="10.00">outputCost</text>
</a>
</g>
</g>
<!-- Node8&#45;&gt;Node93 -->
<g id="edge38_Node000008_Node000093" class="edge">
<title>Node8&#45;&gt;Node93</title>
<g id="a_edge38_Node000008_Node000093"><a xlink:title=" ">
<path fill="none" stroke="#63b8ff" d="M640.76,-991.38C615.13,-994.05 587.6,-996.92 566.72,-999.1"/>
<polygon fill="#63b8ff" stroke="#63b8ff" points="641.26,-994.84 650.85,-990.32 640.54,-987.88 641.26,-994.84"/>
</a>
</g>
</g>
<!-- Node94 -->
<g id="Node000094" class="node">
<title>Node94</title>
<g id="a_Node000094"><a xlink:href="ppp__obs_8cpp.html#a9b2ff8aad927c7fc5fd2303a9d473f3e" target="_top" xlink:title=" ">
<path fill="#fff0f0" stroke="red" d="M574.17,-936.18C574.17,-936.18 488.83,-936.18 488.83,-936.18 485.67,-936.18 482.5,-933.01 482.5,-929.84 482.5,-929.84 482.5,-923.51 482.5,-923.51 482.5,-920.34 485.67,-917.18 488.83,-917.18 488.83,-917.18 574.17,-917.18 574.17,-917.18 577.33,-917.18 580.5,-920.34 580.5,-923.51 580.5,-923.51 580.5,-929.84 580.5,-929.84 580.5,-933.01 577.33,-936.18 574.17,-936.18"/>
<text text-anchor="middle" x="531.5" y="-924.18" font-family="Helvetica,sans-Serif" font-size="10.00">pppRecCodeBias</text>
</a>
</g>
</g>
<!-- Node8&#45;&gt;Node94 -->
<g id="edge40_Node000008_Node000094" class="edge">
<title>Node8&#45;&gt;Node94</title>
<g id="a_edge40_Node000008_Node000094"><a xlink:title=" ">
<path fill="none" stroke="#63b8ff" d="M668.26,-971.26C662.42,-969.49 656.55,-967.61 651,-965.68 634.63,-959.97 631.35,-956.44 615,-950.68 599.95,-945.37 583.07,-940.31 568.51,-936.21"/>
<polygon fill="#63b8ff" stroke="#63b8ff" points="667.42,-974.66 678,-974.13 669.4,-967.95 667.42,-974.66"/>
</a>
</g>
</g>
<!-- Node17 -->
<g id="Node000017" class="node">
<title>Node17</title>
<g id="a_Node000017"><a xlink:href="preprocessor_8cpp.html#a4fe89d45413a11705ec5dc9999e6daac" target="_top" xlink:title=" ">
<path fill="#fff0f0" stroke="red" d="M376.67,-1022.18C376.67,-1022.18 309.33,-1022.18 309.33,-1022.18 306.17,-1022.18 303,-1019.01 303,-1015.84 303,-1015.84 303,-1009.51 303,-1009.51 303,-1006.34 306.17,-1003.18 309.33,-1003.18 309.33,-1003.18 376.67,-1003.18 376.67,-1003.18 379.83,-1003.18 383,-1006.34 383,-1009.51 383,-1009.51 383,-1015.84 383,-1015.84 383,-1019.01 379.83,-1022.18 376.67,-1022.18"/>
<text text-anchor="middle" x="343" y="-1010.18" font-family="Helvetica,sans-Serif" font-size="10.00">preprocessor</text>
</a>
</g>
</g>
<!-- Node8&#45;&gt;Node17 -->
<g id="edge42_Node000008_Node000017" class="edge">
<title>Node8&#45;&gt;Node17</title>
<g id="a_edge42_Node000008_Node000017"><a xlink:title=" ">
<path fill="none" stroke="#63b8ff" d="M656.88,-969.54C654.83,-968.36 652.86,-967.07 651,-965.68 627,-947.74 641.24,-923.14 615,-908.68 550,-872.85 516.57,-880.27 448,-908.68 423.82,-918.69 371.68,-979.36 351.86,-1003.13"/>
<polygon fill="#63b8ff" stroke="#63b8ff" points="655.72,-972.87 666.24,-974.13 658.8,-966.59 655.72,-972.87"/>
</a>
</g>
</g>
<!-- Node95 -->
<g id="Node000095" class="node">
<title>Node95</title>
<g id="a_Node000095"><a xlink:href="ppp__pseudoobs_8cpp.html#accfefc993178e71db6783bbe525342a7" target="_top" xlink:title=" ">
<path fill="#fff0f0" stroke="red" d="M569.67,-860.18C569.67,-860.18 493.33,-860.18 493.33,-860.18 490.17,-860.18 487,-857.01 487,-853.84 487,-853.84 487,-847.51 487,-847.51 487,-844.34 490.17,-841.18 493.33,-841.18 493.33,-841.18 569.67,-841.18 569.67,-841.18 572.83,-841.18 576,-844.34 576,-847.51 576,-847.51 576,-853.84 576,-853.84 576,-857.01 572.83,-860.18 569.67,-860.18"/>
<text text-anchor="middle" x="531.5" y="-848.18" font-family="Helvetica,sans-Serif" font-size="10.00">pseudoRecDcb</text>
</a>
</g>
</g>
<!-- Node8&#45;&gt;Node95 -->
<g id="edge46_Node000008_Node000095" class="edge">
<title>Node8&#45;&gt;Node95</title>
<g id="a_edge46_Node000008_Node000095"><a xlink:title=" ">
<path fill="none" stroke="#63b8ff" d="M655.05,-968.95C653.64,-967.93 652.29,-966.84 651,-965.68 618.74,-936.51 647.16,-903.96 615,-874.68 604.3,-864.94 589.87,-859.13 576.06,-855.68"/>
<polygon fill="#63b8ff" stroke="#63b8ff" points="653.29,-971.97 663.68,-974.05 656.85,-965.94 653.29,-971.97"/>
</a>
</g>
</g>
<!-- Node96 -->
<g id="Node000096" class="node">
<title>Node96</title>
<g id="a_Node000096"><a xlink:href="ppp__ambres_8cpp.html#a020b06329797411a2dc7746aadd19361" target="_top" xlink:title=" ">
<path fill="#fff0f0" stroke="red" d="M565.17,-632.18C565.17,-632.18 497.83,-632.18 497.83,-632.18 494.67,-632.18 491.5,-629.01 491.5,-625.84 491.5,-625.84 491.5,-619.51 491.5,-619.51 491.5,-616.34 494.67,-613.18 497.83,-613.18 497.83,-613.18 565.17,-613.18 565.17,-613.18 568.33,-613.18 571.5,-616.34 571.5,-619.51 571.5,-619.51 571.5,-625.84 571.5,-625.84 571.5,-629.01 568.33,-632.18 565.17,-632.18"/>
<text text-anchor="middle" x="531.5" y="-620.18" font-family="Helvetica,sans-Serif" font-size="10.00">queryBiasUC</text>
</a>
</g>
</g>
<!-- Node8&#45;&gt;Node96 -->
<g id="edge47_Node000008_Node000096" class="edge">
<title>Node8&#45;&gt;Node96</title>
<g id="a_edge47_Node000008_Node000096"><a xlink:title=" ">
<path fill="none" stroke="#63b8ff" d="M652.99,-967.81C652.3,-967.13 651.64,-966.42 651,-965.68 567.77,-868.86 680.84,-790.06 615,-680.68 601.28,-657.88 574.76,-641.7 555.49,-632.33"/>
<polygon fill="#63b8ff" stroke="#63b8ff" points="651.18,-970.83 661.25,-974.11 655.42,-965.26 651.18,-970.83"/>
</a>
</g>
</g>
<!-- Node100 -->
<g id="Node000100" class="node">
<title>Node100</title>
<g id="a_Node000100"><a xlink:href="ppp_8cpp.html#a075655f5235940732703f2e6ca41421a" target="_top" xlink:title="Remove ambiguity states from filter when they deemed old or bad This effectively reinitialises them o...">
<path fill="#fff0f0" stroke="red" d="M590.67,-442.18C590.67,-442.18 472.33,-442.18 472.33,-442.18 469.17,-442.18 466,-439.01 466,-435.84 466,-435.84 466,-429.51 466,-429.51 466,-426.34 469.17,-423.18 472.33,-423.18 472.33,-423.18 590.67,-423.18 590.67,-423.18 593.83,-423.18 597,-426.34 597,-429.51 597,-429.51 597,-435.84 597,-435.84 597,-439.01 593.83,-442.18 590.67,-442.18"/>
<text text-anchor="middle" x="531.5" y="-430.18" font-family="Helvetica,sans-Serif" font-size="10.00">removeBadAmbiguities</text>
</a>
</g>
</g>
<!-- Node8&#45;&gt;Node100 -->
<g id="edge52_Node000008_Node000100" class="edge">
<title>Node8&#45;&gt;Node100</title>
<g id="a_edge52_Node000008_Node000100"><a xlink:title=" ">
<path fill="none" stroke="#63b8ff" d="M652.88,-967.81C652.23,-967.13 651.6,-966.42 651,-965.68 579.47,-877.69 686.23,-544.91 615,-456.68 609.94,-450.41 603.34,-445.72 596.09,-442.22"/>
<polygon fill="#63b8ff" stroke="#63b8ff" points="650.76,-970.59 660.76,-974.1 655.13,-965.12 650.76,-970.59"/>
</a>
</g>
</g>
<!-- Node101 -->
<g id="Node000101" class="node">
<title>Node101</title>
<g id="a_Node000101"><a xlink:href="ppp_8cpp.html#a3d11452be1ce2ea58117c7fd3ac9f981" target="_top" xlink:title="Remove ambiguity states from filter when they deemed old or bad This effectively reinitialises them o...">
<path fill="#fff0f0" stroke="red" d="M591.17,-405.18C591.17,-405.18 471.83,-405.18 471.83,-405.18 468.67,-405.18 465.5,-402.01 465.5,-398.84 465.5,-398.84 465.5,-392.51 465.5,-392.51 465.5,-389.34 468.67,-386.18 471.83,-386.18 471.83,-386.18 591.17,-386.18 591.17,-386.18 594.33,-386.18 597.5,-389.34 597.5,-392.51 597.5,-392.51 597.5,-398.84 597.5,-398.84 597.5,-402.01 594.33,-405.18 591.17,-405.18"/>
<text text-anchor="middle" x="531.5" y="-393.18" font-family="Helvetica,sans-Serif" font-size="10.00">removeBadIonospheres</text>
</a>
</g>
</g>
<!-- Node8&#45;&gt;Node101 -->
<g id="edge53_Node000008_Node000101" class="edge">
<title>Node8&#45;&gt;Node101</title>
<g id="a_edge53_Node000008_Node000101"><a xlink:title=" ">
<path fill="none" stroke="#63b8ff" d="M652.88,-967.81C652.23,-967.13 651.6,-966.42 651,-965.68 573.72,-870.08 695.18,-506.86 615,-413.68 610.22,-408.12 604.16,-404.05 597.5,-401.09"/>
<polygon fill="#63b8ff" stroke="#63b8ff" points="650.75,-970.59 660.74,-974.12 655.13,-965.13 650.75,-970.59"/>
</a>
</g>
</g>
<!-- Node102 -->
<g id="Node000102" class="node">
<title>Node102</title>
<g id="a_Node000102"><a xlink:href="ppp_8cpp.html#a147ea2bf0bd356bafdb785a868364b5f" target="_top" xlink:title=" ">
<path fill="#fff0f0" stroke="red" d="M580.67,-368.18C580.67,-368.18 482.33,-368.18 482.33,-368.18 479.17,-368.18 476,-365.01 476,-361.84 476,-361.84 476,-355.51 476,-355.51 476,-352.34 479.17,-349.18 482.33,-349.18 482.33,-349.18 580.67,-349.18 580.67,-349.18 583.83,-349.18 587,-352.34 587,-355.51 587,-355.51 587,-361.84 587,-361.84 587,-365.01 583.83,-368.18 580.67,-368.18"/>
<text text-anchor="middle" x="531.5" y="-356.18" font-family="Helvetica,sans-Serif" font-size="10.00">selectAprioriSource</text>
</a>
</g>
</g>
<!-- Node8&#45;&gt;Node102 -->
<g id="edge54_Node000008_Node000102" class="edge">
<title>Node8&#45;&gt;Node102</title>
<g id="a_edge54_Node000008_Node000102"><a xlink:title=" ">
<path fill="none" stroke="#63b8ff" d="M652.87,-967.82C652.22,-967.13 651.6,-966.42 651,-965.68 568.77,-863.53 700.33,-476.25 615,-376.68 607.85,-368.33 597.8,-363.33 587.18,-360.43"/>
<polygon fill="#63b8ff" stroke="#63b8ff" points="650.74,-970.59 660.72,-974.13 655.12,-965.13 650.74,-970.59"/>
</a>
</g>
</g>
<!-- Node103 -->
<g id="Node000103" class="node">
<title>Node103</title>
<g id="a_Node000103"><a xlink:href="tropSinex_8cpp.html#a97e226ce7219f7e1f35c2fde83f435af" target="_top" xlink:title="Set data for trop description block.">
<path fill="#fff0f0" stroke="red" d="M568.67,-331.18C568.67,-331.18 494.33,-331.18 494.33,-331.18 491.17,-331.18 488,-328.01 488,-324.84 488,-324.84 488,-318.51 488,-318.51 488,-315.34 491.17,-312.18 494.33,-312.18 494.33,-312.18 568.67,-312.18 568.67,-312.18 571.83,-312.18 575,-315.34 575,-318.51 575,-318.51 575,-324.84 575,-324.84 575,-328.01 571.83,-331.18 568.67,-331.18"/>
<text text-anchor="middle" x="531.5" y="-319.18" font-family="Helvetica,sans-Serif" font-size="10.00">setDescription</text>
</a>
</g>
</g>
<!-- Node8&#45;&gt;Node103 -->
<g id="edge55_Node000008_Node000103" class="edge">
<title>Node8&#45;&gt;Node103</title>
<g id="a_edge55_Node000008_Node000103"><a xlink:title=" ">
<path fill="none" stroke="#63b8ff" d="M652.87,-967.82C652.22,-967.13 651.6,-966.42 651,-965.68 563.82,-856.98 705.48,-445.65 615,-339.68 605.2,-328.19 589.93,-323.04 575.17,-320.97"/>
<polygon fill="#63b8ff" stroke="#63b8ff" points="650.73,-970.59 660.71,-974.14 655.12,-965.14 650.73,-970.59"/>
</a>
</g>
</g>
<!-- Node105 -->
<g id="Node000105" class="node">
<title>Node105</title>
<g id="a_Node000105"><a xlink:href="tropSinex_8cpp.html#ad57f3048f1df0be47d338e2a87bea7ae" target="_top" xlink:title="Set troposphere solution data from filter.">
<path fill="#fff0f0" stroke="red" d="M583.17,-294.18C583.17,-294.18 479.83,-294.18 479.83,-294.18 476.67,-294.18 473.5,-291.01 473.5,-287.84 473.5,-287.84 473.5,-281.51 473.5,-281.51 473.5,-278.34 476.67,-275.18 479.83,-275.18 479.83,-275.18 583.17,-275.18 583.17,-275.18 586.33,-275.18 589.5,-278.34 589.5,-281.51 589.5,-281.51 589.5,-287.84 589.5,-287.84 589.5,-291.01 586.33,-294.18 583.17,-294.18"/>
<text text-anchor="middle" x="531.5" y="-282.18" font-family="Helvetica,sans-Serif" font-size="10.00">setTropSolFromFilter</text>
</a>
</g>
</g>
<!-- Node8&#45;&gt;Node105 -->
<g id="edge56_Node000008_Node000105" class="edge">
<title>Node8&#45;&gt;Node105</title>
<g id="a_edge56_Node000008_Node000105"><a xlink:title=" ">
<path fill="none" stroke="#63b8ff" d="M652.87,-967.82C652.22,-967.14 651.59,-966.42 651,-965.68 558.86,-850.43 710.63,-415.04 615,-302.68 608.44,-294.97 599.43,-290.12 589.76,-287.13"/>
<polygon fill="#63b8ff" stroke="#63b8ff" points="650.72,-970.59 660.7,-974.15 655.12,-965.14 650.72,-970.59"/>
</a>
</g>
</g>
<!-- Node107 -->
<g id="Node000107" class="node">
<title>Node107</title>
<g id="a_Node000107"><a xlink:href="pea__snx_8cpp.html#a92a02d9dc16f06646c5c668b81caaa1f" target="_top" xlink:title=" ">
<path fill="#fff0f0" stroke="red" d="M405.67,-387.18C405.67,-387.18 280.33,-387.18 280.33,-387.18 277.17,-387.18 274,-384.01 274,-380.84 274,-380.84 274,-374.51 274,-374.51 274,-371.34 277.17,-368.18 280.33,-368.18 280.33,-368.18 405.67,-368.18 405.67,-368.18 408.83,-368.18 412,-371.34 412,-374.51 412,-374.51 412,-380.84 412,-380.84 412,-384.01 408.83,-387.18 405.67,-387.18"/>
<text text-anchor="middle" x="343" y="-375.18" font-family="Helvetica,sans-Serif" font-size="10.00">sinexPerEpochPerStation</text>
</a>
</g>
</g>
<!-- Node8&#45;&gt;Node107 -->
<g id="edge57_Node000008_Node000107" class="edge">
<title>Node8&#45;&gt;Node107</title>
<g id="a_edge57_Node000008_Node000107"><a xlink:title=" ">
<path fill="none" stroke="#63b8ff" d="M652.86,-967.82C652.22,-967.14 651.59,-966.42 651,-965.68 602.46,-904.78 671.47,-319.31 615,-265.68 561.19,-214.56 516.03,-236.01 448,-265.68 398.62,-287.21 362.16,-345.02 349.18,-368.03"/>
<polygon fill="#63b8ff" stroke="#63b8ff" points="650.71,-970.59 660.69,-974.16 655.12,-965.14 650.71,-970.59"/>
</a>
</g>
</g>
<!-- Node108 -->
<g id="Node000108" class="node">
<title>Node108</title>
<g id="a_Node000108"><a xlink:href="ppp__pseudoobs_8cpp.html#a0df461e27bceaa75ec50285c2abf8f27" target="_top" xlink:title=" ">
<path fill="#fff0f0" stroke="red" d="M570.17,-218.18C570.17,-218.18 492.83,-218.18 492.83,-218.18 489.67,-218.18 486.5,-215.01 486.5,-211.84 486.5,-211.84 486.5,-205.51 486.5,-205.51 486.5,-202.34 489.67,-199.18 492.83,-199.18 492.83,-199.18 570.17,-199.18 570.17,-199.18 573.33,-199.18 576.5,-202.34 576.5,-205.51 576.5,-205.51 576.5,-211.84 576.5,-211.84 576.5,-215.01 573.33,-218.18 570.17,-218.18"/>
<text text-anchor="middle" x="531.5" y="-206.18" font-family="Helvetica,sans-Serif" font-size="10.00">tropPseudoObs</text>
</a>
</g>
</g>
<!-- Node8&#45;&gt;Node108 -->
<g id="edge60_Node000008_Node000108" class="edge">
<title>Node8&#45;&gt;Node108</title>
<g id="a_edge60_Node000008_Node000108"><a xlink:title=" ">
<path fill="none" stroke="#63b8ff" d="M652.86,-967.83C652.21,-967.14 651.59,-966.42 651,-965.68 549.49,-838.03 716.07,-360.67 615,-232.68 605.76,-220.97 591.15,-214.75 576.77,-211.51"/>
<polygon fill="#63b8ff" stroke="#63b8ff" points="650.71,-970.58 660.68,-974.16 655.11,-965.15 650.71,-970.58"/>
</a>
</g>
</g>
<!-- Node109 -->
<g id="Node000109" class="node">
<title>Node109</title>
<g id="a_Node000109"><a xlink:href="ppppp_8cpp.html#a1a8f284c03d52ec377672f704c6f3504" target="_top" xlink:title="Prepare receiver clocks using spp values to minimise pre&#45;fit residuals.">
<path fill="#fff0f0" stroke="red" d="M575.67,-181.18C575.67,-181.18 487.33,-181.18 487.33,-181.18 484.17,-181.18 481,-178.01 481,-174.84 481,-174.84 481,-168.51 481,-168.51 481,-165.34 484.17,-162.18 487.33,-162.18 487.33,-162.18 575.67,-162.18 575.67,-162.18 578.83,-162.18 582,-165.34 582,-168.51 582,-168.51 582,-174.84 582,-174.84 582,-178.01 578.83,-181.18 575.67,-181.18"/>
<text text-anchor="middle" x="531.5" y="-169.18" font-family="Helvetica,sans-Serif" font-size="10.00">updateRecClocks</text>
</a>
</g>
</g>
<!-- Node8&#45;&gt;Node109 -->
<g id="edge61_Node000008_Node000109" class="edge">
<title>Node8&#45;&gt;Node109</title>
<g id="a_edge61_Node000008_Node000109"><a xlink:title=" ">
<path fill="none" stroke="#63b8ff" d="M652.86,-967.83C652.21,-967.14 651.59,-966.42 651,-965.68 597.37,-898.05 670.68,-255.63 615,-189.68 606.77,-179.93 594.61,-174.73 582.13,-172.11"/>
<polygon fill="#63b8ff" stroke="#63b8ff" points="650.7,-970.58 660.67,-974.17 655.11,-965.15 650.7,-970.58"/>
</a>
</g>
</g>
<!-- Node110 -->
<g id="Node000110" class="node">
<title>Node110</title>
<g id="a_Node000110"><a xlink:href="biasSINEXwrite_8cpp.html#ab94f8678684d9733ffbe150e860a564a" target="_top" xlink:title="Write bias SINEX head for the first time.">
<path fill="#fff0f0" stroke="red" d="M581.67,-144.18C581.67,-144.18 481.33,-144.18 481.33,-144.18 478.17,-144.18 475,-141.01 475,-137.84 475,-137.84 475,-131.51 475,-131.51 475,-128.34 478.17,-125.18 481.33,-125.18 481.33,-125.18 581.67,-125.18 581.67,-125.18 584.83,-125.18 588,-128.34 588,-131.51 588,-131.51 588,-137.84 588,-137.84 588,-141.01 584.83,-144.18 581.67,-144.18"/>
<text text-anchor="middle" x="531.5" y="-132.18" font-family="Helvetica,sans-Serif" font-size="10.00">writeBSINEXHeader</text>
</a>
</g>
</g>
<!-- Node8&#45;&gt;Node110 -->
<g id="edge62_Node000008_Node000110" class="edge">
<title>Node8&#45;&gt;Node110</title>
<g id="a_edge62_Node000008_Node000110"><a xlink:title=" ">
<path fill="none" stroke="#63b8ff" d="M652.54,-967.49C652.01,-966.9 651.49,-966.3 651,-965.68 594.89,-894.77 673.26,-221.83 615,-152.68 608.1,-144.49 598.43,-139.51 588.13,-136.57"/>
<polygon fill="#63b8ff" stroke="#63b8ff" points="650.44,-970.3 660.37,-974 654.92,-964.91 650.44,-970.3"/>
</a>
</g>
</g>
<!-- Node111 -->
<g id="Node000111" class="node">
<title>Node111</title>
<g id="a_Node000111"><a xlink:href="ionexWrite_8cpp.html#a210edc109068291059974a8a9622aa1a" target="_top" xlink:title=" ">
<path fill="#fff0f0" stroke="red" d="M572.17,-107.18C572.17,-107.18 490.83,-107.18 490.83,-107.18 487.67,-107.18 484.5,-104.01 484.5,-100.84 484.5,-100.84 484.5,-94.51 484.5,-94.51 484.5,-91.34 487.67,-88.18 490.83,-88.18 490.83,-88.18 572.17,-88.18 572.17,-88.18 575.33,-88.18 578.5,-91.34 578.5,-94.51 578.5,-94.51 578.5,-100.84 578.5,-100.84 578.5,-104.01 575.33,-107.18 572.17,-107.18"/>
<text text-anchor="middle" x="531.5" y="-95.18" font-family="Helvetica,sans-Serif" font-size="10.00">writeIonexHead</text>
</a>
</g>
</g>
<!-- Node8&#45;&gt;Node111 -->
<g id="edge63_Node000008_Node000111" class="edge">
<title>Node8&#45;&gt;Node111</title>
<g id="a_edge63_Node000008_Node000111"><a xlink:title=" ">
<path fill="none" stroke="#63b8ff" d="M652.54,-967.49C652.01,-966.9 651.49,-966.3 651,-965.68 592.41,-891.49 675.84,-188.03 615,-115.68 606.04,-105.02 592.37,-99.79 578.71,-97.43"/>
<polygon fill="#63b8ff" stroke="#63b8ff" points="650.44,-970.3 660.36,-974 654.92,-964.91 650.44,-970.3"/>
</a>
</g>
</g>
<!-- Node13&#45;&gt;Node5 -->
<g id="edge9_Node000013_Node000005" class="edge">
<title>Node13&#45;&gt;Node5</title>
<g id="a_edge9_Node000013_Node000005"><a xlink:title=" ">
<path fill="none" stroke="#63b8ff" d="M146.9,-1605.79C130.38,-1572.59 96.49,-1501.25 77,-1437.68 44.82,-1332.73 27.14,-1200.04 22.65,-1163.42"/>
<polygon fill="#63b8ff" stroke="#63b8ff" points="143.82,-1607.45 151.43,-1614.82 150.07,-1604.31 143.82,-1607.45"/>
</a>
</g>
</g>
<!-- Node14&#45;&gt;Node15 -->
<g id="edge11_Node000014_Node000015" class="edge">
<title>Node14&#45;&gt;Node15</title>
<g id="a_edge11_Node000014_Node000015"><a xlink:title=" ">
<path fill="none" stroke="#63b8ff" d="M488.72,-1747.16C454.54,-1740.2 406.93,-1730.5 375.79,-1724.15"/>
<polygon fill="#63b8ff" stroke="#63b8ff" points="488.37,-1750.66 498.86,-1749.23 489.76,-1743.8 488.37,-1750.66"/>
</a>
</g>
</g>
<!-- Node19&#45;&gt;Node15 -->
<g id="edge13_Node000019_Node000015" class="edge">
<title>Node19&#45;&gt;Node15</title>
<g id="a_edge13_Node000019_Node000015"><a xlink:title=" ">
<path fill="none" stroke="#63b8ff" d="M488.72,-1718.45C454.54,-1718.27 406.93,-1718.01 375.79,-1717.85"/>
<polygon fill="#63b8ff" stroke="#63b8ff" points="488.84,-1721.95 498.86,-1718.51 488.88,-1714.95 488.84,-1721.95"/>
</a>
</g>
</g>
<!-- Node21&#45;&gt;Node22 -->
<g id="edge16_Node000021_Node000022" class="edge">
<title>Node21&#45;&gt;Node22</title>
<g id="a_edge16_Node000021_Node000022"><a xlink:title=" ">
<path fill="none" stroke="#63b8ff" d="M497.3,-1554.7C479.42,-1545.32 458.86,-1531.08 448,-1511.68 375.32,-1381.74 477.99,-976.14 412,-842.68 401.2,-820.84 378.07,-803.97 361.8,-794.19"/>
<polygon fill="#63b8ff" stroke="#63b8ff" points="495.82,-1557.88 506.34,-1559.17 498.92,-1551.6 495.82,-1557.88"/>
</a>
</g>
</g>
<!-- Node32 -->
<g id="Node000032" class="node">
<title>Node32</title>
<g id="a_Node000032"><a xlink:href="compare_8cpp.html#aa8c289d9d4e60f862fb0a60566b76bd0" target="_top" xlink:title=" ">
<path fill="#fff0f0" stroke="red" d="M195.67,-1428.18C195.67,-1428.18 119.33,-1428.18 119.33,-1428.18 116.17,-1428.18 113,-1425.01 113,-1421.84 113,-1421.84 113,-1415.51 113,-1415.51 113,-1412.34 116.17,-1409.18 119.33,-1409.18 119.33,-1409.18 195.67,-1409.18 195.67,-1409.18 198.83,-1409.18 202,-1412.34 202,-1415.51 202,-1415.51 202,-1421.84 202,-1421.84 202,-1425.01 198.83,-1428.18 195.67,-1428.18"/>
<text text-anchor="middle" x="157.5" y="-1416.18" font-family="Helvetica,sans-Serif" font-size="10.00">compareOrbits</text>
</a>
</g>
</g>
<!-- Node31&#45;&gt;Node32 -->
<g id="edge21_Node000031_Node000032" class="edge">
<title>Node31&#45;&gt;Node32</title>
<g id="a_edge21_Node000031_Node000032"><a xlink:title=" ">
<path fill="none" stroke="#63b8ff" d="M497.17,-1418.68C429.78,-1418.68 277.37,-1418.68 202.16,-1418.68"/>
<polygon fill="#63b8ff" stroke="#63b8ff" points="497.23,-1422.18 507.23,-1418.68 497.23,-1415.18 497.23,-1422.18"/>
</a>
</g>
</g>
<!-- Node31&#45;&gt;Node59 -->
<g id="edge22_Node000031_Node000059" class="edge">
<title>Node31&#45;&gt;Node59</title>
<g id="a_edge22_Node000031_Node000059"><a xlink:title=" ">
<path fill="none" stroke="#63b8ff" d="M497.25,-1416.65C481.36,-1414.43 462.66,-1409.89 448,-1400.68 396.87,-1368.55 360.69,-1302.01 348.5,-1277.24"/>
<polygon fill="#63b8ff" stroke="#63b8ff" points="496.87,-1420.13 507.21,-1417.8 497.68,-1413.18 496.87,-1420.13"/>
</a>
</g>
</g>
<!-- Node62 -->
<g id="Node000062" class="node">
<title>Node62</title>
<g id="a_Node000062"><a xlink:href="ppp__pseudoobs_8cpp.html#aa5459ae2332731b13b89654f112950d1" target="_top" xlink:title=" ">
<path fill="#fff0f0" stroke="red" d="M383.17,-926.18C383.17,-926.18 302.83,-926.18 302.83,-926.18 299.67,-926.18 296.5,-923.01 296.5,-919.84 296.5,-919.84 296.5,-913.51 296.5,-913.51 296.5,-910.34 299.67,-907.18 302.83,-907.18 302.83,-907.18 383.17,-907.18 383.17,-907.18 386.33,-907.18 389.5,-910.34 389.5,-913.51 389.5,-913.51 389.5,-919.84 389.5,-919.84 389.5,-923.01 386.33,-926.18 383.17,-926.18"/>
<text text-anchor="middle" x="343" y="-914.18" font-family="Helvetica,sans-Serif" font-size="10.00">orbitPseudoObs</text>
</a>
</g>
</g>
<!-- Node31&#45;&gt;Node62 -->
<g id="edge25_Node000031_Node000062" class="edge">
<title>Node31&#45;&gt;Node62</title>
<g id="a_edge25_Node000031_Node000062"><a xlink:title=" ">
<path fill="none" stroke="#63b8ff" d="M496.99,-1420.14C479.82,-1418.98 460.04,-1414.34 448,-1400.68 388.13,-1332.71 447.5,-1078.01 412,-994.68 399.61,-965.59 372.11,-939.63 356.14,-926.25"/>
<polygon fill="#63b8ff" stroke="#63b8ff" points="497.15,-1423.65 507.26,-1420.46 497.37,-1416.65 497.15,-1423.65"/>
</a>
</g>
</g>
<!-- Node63 -->
<g id="Node000063" class="node">
<title>Node63</title>
<g id="a_Node000063"><a xlink:href="ppp_8cpp.html#a1a529bfb379c76f71546a80022b8f123" target="_top" xlink:title=" ">
<path fill="#fff0f0" stroke="red" d="M376.67,-870.18C376.67,-870.18 309.33,-870.18 309.33,-870.18 306.17,-870.18 303,-867.01 303,-863.84 303,-863.84 303,-857.51 303,-857.51 303,-854.34 306.17,-851.18 309.33,-851.18 309.33,-851.18 376.67,-851.18 376.67,-851.18 379.83,-851.18 383,-854.34 383,-857.51 383,-857.51 383,-863.84 383,-863.84 383,-867.01 379.83,-870.18 376.67,-870.18"/>
<text text-anchor="middle" x="343" y="-858.18" font-family="Helvetica,sans-Serif" font-size="10.00">outputApriori</text>
</a>
</g>
</g>
<!-- Node31&#45;&gt;Node63 -->
<g id="edge26_Node000031_Node000063" class="edge">
<title>Node31&#45;&gt;Node63</title>
<g id="a_edge26_Node000031_Node000063"><a xlink:title=" ">
<path fill="none" stroke="#63b8ff" d="M496.9,-1420.22C479.7,-1419.09 459.92,-1414.44 448,-1400.68 374.78,-1316.14 472.01,-993.05 412,-898.68 403.51,-885.32 388.58,-876.24 374.86,-870.31"/>
<polygon fill="#63b8ff" stroke="#63b8ff" points="497.09,-1423.73 507.18,-1420.52 497.29,-1416.73 497.09,-1423.73"/>
</a>
</g>
</g>
<!-- Node31&#45;&gt;Node45 -->
<g id="edge27_Node000031_Node000045" class="edge">
<title>Node31&#45;&gt;Node45</title>
<g id="a_edge27_Node000031_Node000045"><a xlink:title=" ">
<path fill="none" stroke="#63b8ff" d="M497.16,-1420.31C479.86,-1419.24 459.9,-1414.62 448,-1400.68 402.2,-1347 438.62,-832.02 412,-766.68 400.07,-737.39 372.4,-711.51 356.28,-698.19"/>
<polygon fill="#63b8ff" stroke="#63b8ff" points="497.41,-1423.82 507.5,-1420.58 497.59,-1416.82 497.41,-1423.82"/>
</a>
</g>
</g>
<!-- Node31&#45;&gt;Node41 -->
<g id="edge28_Node000031_Node000041" class="edge">
<title>Node31&#45;&gt;Node41</title>
<g id="a_edge28_Node000031_Node000041"><a xlink:title=" ">
<path fill="none" stroke="#63b8ff" d="M497.12,-1420.35C479.8,-1419.28 459.85,-1414.67 448,-1400.68 343.04,-1276.73 513.34,-797.6 412,-670.68 407.72,-665.31 402.05,-661.39 395.82,-658.52"/>
<polygon fill="#63b8ff" stroke="#63b8ff" points="497.38,-1423.85 507.47,-1420.6 497.56,-1416.86 497.38,-1423.85"/>
</a>
</g>
</g>
<!-- Node31&#45;&gt;Node83 -->
<g id="edge29_Node000031_Node000083" class="edge">
<title>Node31&#45;&gt;Node83</title>
<g id="a_edge29_Node000031_Node000083"><a xlink:title=" ">
<path fill="none" stroke="#63b8ff" d="M497.11,-1420.36C479.79,-1419.3 459.83,-1414.68 448,-1400.68 392.94,-1335.5 456.48,-706.48 412,-633.68 402.99,-618.93 386.18,-609.21 371.53,-603.17"/>
<polygon fill="#63b8ff" stroke="#63b8ff" points="497.38,-1423.87 507.46,-1420.61 497.55,-1416.87 497.38,-1423.87"/>
</a>
</g>
</g>
<!-- Node59&#45;&gt;Node32 -->
<g id="edge23_Node000059_Node000032" class="edge">
<title>Node59&#45;&gt;Node32</title>
<g id="a_edge23_Node000059_Node000032"><a xlink:title=" ">
<path fill="none" stroke="#63b8ff" d="M322.41,-1283.8C284.32,-1315.14 201.29,-1383.46 170.4,-1408.89"/>
<polygon fill="#63b8ff" stroke="#63b8ff" points="324.74,-1286.41 330.24,-1277.35 320.3,-1281 324.74,-1286.41"/>
</a>
</g>
</g>
<!-- Node59&#45;&gt;Node61 -->
<g id="edge24_Node000059_Node000061" class="edge">
<title>Node59&#45;&gt;Node61</title>
<g id="a_edge24_Node000059_Node000061"><a xlink:title=" ">
<path fill="none" stroke="#63b8ff" d="M330.89,-1249.2C316.15,-1224.05 290.14,-1177.28 274,-1134.68 251.24,-1074.6 255.85,-1056.39 238,-994.68 211.09,-901.64 173.31,-790.66 161.89,-757.49"/>
<polygon fill="#63b8ff" stroke="#63b8ff" points="328,-1251.19 336.11,-1258.01 334.02,-1247.62 328,-1251.19"/>
</a>
</g>
</g>
<!-- Node91&#45;&gt;Node18 -->
<g id="edge35_Node000091_Node000018" class="edge">
<title>Node91&#45;&gt;Node18</title>
<g id="a_edge35_Node000091_Node000018"><a xlink:title=" ">
<path fill="none" stroke="#63b8ff" d="M305.43,-1102.72C270,-1090.17 217.11,-1071.44 185.39,-1060.2"/>
<polygon fill="#63b8ff" stroke="#63b8ff" points="304.33,-1106.05 314.92,-1106.09 306.67,-1099.45 304.33,-1106.05"/>
</a>
</g>
</g>
<!-- Node92&#45;&gt;Node18 -->
<g id="edge37_Node000092_Node000018" class="edge">
<title>Node92&#45;&gt;Node18</title>
<g id="a_edge37_Node000092_Node000018"><a xlink:title=" ">
<path fill="none" stroke="#63b8ff" d="M480.37,-1041.16C418.27,-1043 311.7,-1046.15 238.3,-1048.32"/>
<polygon fill="#63b8ff" stroke="#63b8ff" points="480.8,-1044.65 490.69,-1040.85 480.59,-1037.65 480.8,-1044.65"/>
</a>
</g>
</g>
<!-- Node94&#45;&gt;Node41 -->
<g id="edge41_Node000094_Node000041" class="edge">
<title>Node94&#45;&gt;Node41</title>
<g id="a_edge41_Node000094_Node000041"><a xlink:title=" ">
<path fill="none" stroke="#63b8ff" d="M498.9,-912.54C481.16,-902.98 460.21,-888.62 448,-869.68 399.3,-794.13 472.52,-737.13 412,-670.68 407.46,-665.69 401.73,-661.97 395.54,-659.2"/>
<polygon fill="#63b8ff" stroke="#63b8ff" points="497.32,-915.67 507.81,-917.11 500.51,-909.44 497.32,-915.67"/>
</a>
</g>
</g>
<!-- Node17&#45;&gt;Node3 -->
<g id="edge45_Node000017_Node000003" class="edge">
<title>Node17&#45;&gt;Node3</title>
<g id="a_edge45_Node000017_Node000003"><a xlink:title=" ">
<path fill="none" stroke="#63b8ff" d="M292.49,-1012.68C266.16,-1012.68 233.89,-1012.68 207.62,-1012.68"/>
<polygon fill="#63b8ff" stroke="#63b8ff" points="292.63,-1016.18 302.63,-1012.68 292.63,-1009.18 292.63,-1016.18"/>
</a>
</g>
</g>
<!-- Node17&#45;&gt;Node5 -->
<g id="edge43_Node000017_Node000005" class="edge">
<title>Node17&#45;&gt;Node5</title>
<g id="a_edge43_Node000017_Node000005"><a xlink:title=" ">
<path fill="none" stroke="#63b8ff" d="M317.32,-1027.4C296.54,-1039.51 265.84,-1056.71 238,-1069.68 167.28,-1102.6 79.78,-1133.75 41.27,-1146.99"/>
<polygon fill="#63b8ff" stroke="#63b8ff" points="319.28,-1030.31 326.13,-1022.23 315.73,-1024.28 319.28,-1030.31"/>
</a>
</g>
</g>
<!-- Node17&#45;&gt;Node18 -->
<g id="edge44_Node000017_Node000018" class="edge">
<title>Node17&#45;&gt;Node18</title>
<g id="a_edge44_Node000017_Node000018"><a xlink:title=" ">
<path fill="none" stroke="#63b8ff" d="M292.49,-1022.93C265.15,-1028.59 231.39,-1035.58 204.61,-1041.13"/>
<polygon fill="#63b8ff" stroke="#63b8ff" points="293.55,-1026.28 302.63,-1020.83 292.13,-1019.43 293.55,-1026.28"/>
</a>
</g>
</g>
<!-- Node107&#45;&gt;Node18 -->
<g id="edge58_Node000107_Node000018" class="edge">
<title>Node107&#45;&gt;Node18</title>
<g id="a_edge58_Node000107_Node000018"><a xlink:title=" ">
<path fill="none" stroke="#63b8ff" d="M333.64,-396.72C318.8,-431.5 288.07,-507.95 274,-575.68 253.33,-675.2 304.06,-954.42 238,-1031.68 234.77,-1035.45 230.94,-1038.55 226.73,-1041.08"/>
<polygon fill="#63b8ff" stroke="#63b8ff" points="336.95,-397.89 337.71,-387.32 330.53,-395.11 336.95,-397.89"/>
</a>
</g>
</g>
<!-- Node113&#45;&gt;Node3 -->
<g id="edge77_Node000113_Node000003" class="edge">
<title>Node113&#45;&gt;Node3</title>
<g id="a_edge77_Node000113_Node000003"><a xlink:title=" ">
<path fill="none" stroke="#63b8ff" d="M709.34,-926.99C698.65,-890.61 670.32,-813.5 615,-779.68 550.3,-740.12 338.01,-726.02 274,-766.68 186.18,-822.46 163.96,-964.65 159.48,-1003.02"/>
<polygon fill="#63b8ff" stroke="#63b8ff" points="706.04,-928.19 712.1,-936.88 712.78,-926.31 706.04,-928.19"/>
</a>
</g>
</g>
<!-- Node113&#45;&gt;Node5 -->
<g id="edge71_Node000113_Node000005" class="edge">
<title>Node113&#45;&gt;Node5</title>
<g id="a_edge71_Node000113_Node000005"><a xlink:title=" ">
<path fill="none" stroke="#63b8ff" d="M654.95,-961.94C653.56,-963.09 652.23,-964.34 651,-965.68 598.94,-1022.13 673.91,-1085.41 615,-1134.68 570.17,-1172.17 139.13,-1158.15 41.22,-1154.46"/>
<polygon fill="#63b8ff" stroke="#63b8ff" points="657.23,-964.63 663.66,-956.2 653.38,-958.78 657.23,-964.63"/>
</a>
</g>
</g>
<!-- Node113&#45;&gt;Node20 -->
<g id="edge68_Node000113_Node000020" class="edge">
<title>Node113&#45;&gt;Node20</title>
<g id="a_edge68_Node000113_Node000020"><a xlink:title=" ">
<path fill="none" stroke="#63b8ff" d="M654.09,-962.26C652.99,-963.33 651.96,-964.46 651,-965.68 565.14,-1074.29 704.92,-1482.4 615,-1587.68 605.1,-1599.27 589.63,-1604.41 574.74,-1606.44"/>
<polygon fill="#63b8ff" stroke="#63b8ff" points="656.27,-965 662.15,-956.19 652.05,-959.41 656.27,-965"/>
</a>
</g>
</g>
<!-- Node113&#45;&gt;Node28 -->
<g id="edge69_Node000113_Node000028" class="edge">
<title>Node113&#45;&gt;Node28</title>
<g id="a_edge69_Node000113_Node000028"><a xlink:title=" ">
<path fill="none" stroke="#63b8ff" d="M654.12,-962.28C653.01,-963.34 651.97,-964.47 651,-965.68 585.01,-1047.6 684.05,-1358.32 615,-1437.68 605.76,-1448.29 591.85,-1453.48 578.07,-1455.81"/>
<polygon fill="#63b8ff" stroke="#63b8ff" points="656.29,-965.03 662.22,-956.25 652.11,-959.41 656.29,-965.03"/>
</a>
</g>
</g>
<!-- Node113&#45;&gt;Node32 -->
<g id="edge67_Node000113_Node000032" class="edge">
<title>Node113&#45;&gt;Node32</title>
<g id="a_edge67_Node000113_Node000032"><a xlink:title=" ">
<path fill="none" stroke="#63b8ff" d="M653.69,-962.64C652.74,-963.6 651.84,-964.61 651,-965.68 605.62,-1023.28 668.25,-1574.26 615,-1624.68 469.47,-1762.47 215.92,-1485.12 166.85,-1428.5"/>
<polygon fill="#63b8ff" stroke="#63b8ff" points="656.06,-965.23 661.84,-956.35 651.78,-959.69 656.06,-965.23"/>
</a>
</g>
</g>
<!-- Node113&#45;&gt;Node59 -->
<g id="edge73_Node000113_Node000059" class="edge">
<title>Node113&#45;&gt;Node59</title>
<g id="a_edge73_Node000113_Node000059"><a xlink:title=" ">
<path fill="none" stroke="#63b8ff" d="M656.5,-961.3C654.56,-962.64 652.72,-964.09 651,-965.68 618.45,-995.76 648.45,-1029.6 615,-1058.68 557.47,-1108.67 509.78,-1053.04 448,-1097.68 417.71,-1119.56 364.5,-1225.54 348.61,-1258.13"/>
<polygon fill="#63b8ff" stroke="#63b8ff" points="658.55,-964.17 665.53,-956.2 655.1,-958.07 658.55,-964.17"/>
</a>
</g>
</g>
<!-- Node113&#45;&gt;Node62 -->
<g id="edge75_Node000113_Node000062" class="edge">
<title>Node113&#45;&gt;Node62</title>
<g id="a_edge75_Node000113_Node000062"><a xlink:title=" ">
<path fill="none" stroke="#63b8ff" d="M704.98,-928.03C690.03,-901.08 658.24,-852.33 615,-832.68 547.43,-801.96 514.55,-799.82 448,-832.68 424.41,-844.32 431.99,-862.57 412,-879.68 398.52,-891.21 380.86,-900.69 366.92,-907.16"/>
<polygon fill="#63b8ff" stroke="#63b8ff" points="701.91,-929.71 709.71,-936.88 708.08,-926.41 701.91,-929.71"/>
</a>
</g>
</g>
<!-- Node113&#45;&gt;Node63 -->
<g id="edge76_Node000113_Node000063" class="edge">
<title>Node113&#45;&gt;Node63</title>
<g id="a_edge76_Node000113_Node000063"><a xlink:title=" ">
<path fill="none" stroke="#63b8ff" d="M707.75,-927.35C695.26,-894.98 665.14,-830.77 615,-804.68 549.16,-770.42 519.97,-786.53 448,-804.68 412.41,-813.65 375.74,-837.45 356.91,-850.96"/>
<polygon fill="#63b8ff" stroke="#63b8ff" points="704.57,-928.84 711.31,-937.01 711.13,-926.42 704.57,-928.84"/>
</a>
</g>
</g>
<!-- Node113&#45;&gt;Node45 -->
<g id="edge82_Node000113_Node000045" class="edge">
<title>Node113&#45;&gt;Node45</title>
<g id="a_edge82_Node000113_Node000045"><a xlink:title=" ">
<path fill="none" stroke="#63b8ff" d="M713.77,-926.79C709.03,-802.63 680.66,-137.24 615,-78.68 559.61,-29.27 502.05,-27.81 448,-78.68 352.02,-169 495.53,-568.72 412,-670.68 403.64,-680.88 390.23,-685.68 377.52,-687.81"/>
<polygon fill="#63b8ff" stroke="#63b8ff" points="710.29,-927.22 714.16,-937.08 717.28,-926.95 710.29,-927.22"/>
</a>
</g>
</g>
<!-- Node113&#45;&gt;Node41 -->
<g id="edge83_Node000113_Node000041" class="edge">
<title>Node113&#45;&gt;Node41</title>
<g id="a_edge83_Node000113_Node000041"><a xlink:title=" ">
<path fill="none" stroke="#63b8ff" d="M713.88,-926.65C709.68,-798.71 683.71,-99.27 615,-37.68 559.74,11.87 502.1,13.14 448,-37.68 401.26,-81.58 446.16,-559.41 412,-613.68 403.57,-627.07 388.64,-636.16 374.92,-642.08"/>
<polygon fill="#63b8ff" stroke="#63b8ff" points="710.39,-927.04 714.2,-936.92 717.38,-926.81 710.39,-927.04"/>
</a>
</g>
</g>
<!-- Node113&#45;&gt;Node92 -->
<g id="edge74_Node000113_Node000092" class="edge">
<title>Node113&#45;&gt;Node92</title>
<g id="a_edge74_Node000113_Node000092"><a xlink:title=" ">
<path fill="none" stroke="#63b8ff" d="M658.97,-960.58C656.17,-962.11 653.49,-963.8 651,-965.68 627.36,-983.47 639.3,-1004.8 615,-1021.68 602.6,-1030.29 586.82,-1034.89 572.39,-1037.3"/>
<polygon fill="#63b8ff" stroke="#63b8ff" points="660.64,-963.66 668.21,-956.25 657.67,-957.32 660.64,-963.66"/>
</a>
</g>
</g>
<!-- Node113&#45;&gt;Node17 -->
<g id="edge80_Node000113_Node000017" class="edge">
<title>Node113&#45;&gt;Node17</title>
<g id="a_edge80_Node000113_Node000017"><a xlink:title=" ">
<path fill="none" stroke="#63b8ff" d="M714.16,-927.11C712.08,-876.05 698.62,-738.67 615,-680.68 554.01,-638.38 504.03,-632 448,-680.68 404.8,-718.21 435.95,-883.7 412,-935.68 398.86,-964.18 371.65,-989.89 355.92,-1003.17"/>
<polygon fill="#63b8ff" stroke="#63b8ff" points="710.66,-927.26 714.46,-937.15 717.66,-927.05 710.66,-927.26"/>
</a>
</g>
</g>
<!-- Node113&#45;&gt;Node96 -->
<g id="edge81_Node000113_Node000096" class="edge">
<title>Node113&#45;&gt;Node96</title>
<g id="a_edge81_Node000113_Node000096"><a xlink:title=" ">
<path fill="none" stroke="#63b8ff" d="M713.96,-926.8C711.41,-873.41 696.91,-725.6 615,-646.68 603.4,-635.5 586.9,-629.48 571.71,-626.26"/>
<polygon fill="#63b8ff" stroke="#63b8ff" points="710.47,-927.1 714.35,-936.96 717.46,-926.83 710.47,-927.1"/>
</a>
</g>
</g>
<!-- Node114 -->
<g id="Node000114" class="node">
<title>Node114</title>
<g id="a_Node000114"><a xlink:href="acsQC_8cpp.html#a87aa50724c534eed1c0d4b99329a6d97" target="_top" xlink:title=" ">
<path fill="#fff0f0" stroke="red" d="M557.17,-1691.18C557.17,-1691.18 505.83,-1691.18 505.83,-1691.18 502.67,-1691.18 499.5,-1688.01 499.5,-1684.84 499.5,-1684.84 499.5,-1678.51 499.5,-1678.51 499.5,-1675.34 502.67,-1672.18 505.83,-1672.18 505.83,-1672.18 557.17,-1672.18 557.17,-1672.18 560.33,-1672.18 563.5,-1675.34 563.5,-1678.51 563.5,-1678.51 563.5,-1684.84 563.5,-1684.84 563.5,-1688.01 560.33,-1691.18 557.17,-1691.18"/>
<text text-anchor="middle" x="531.5" y="-1679.18" font-family="Helvetica,sans-Serif" font-size="10.00">clearSlips</text>
</a>
</g>
</g>
<!-- Node113&#45;&gt;Node114 -->
<g id="edge65_Node000113_Node000114" class="edge">
<title>Node113&#45;&gt;Node114</title>
<g id="a_edge65_Node000113_Node000114"><a xlink:title=" ">
<path fill="none" stroke="#63b8ff" d="M653.69,-962.64C652.74,-963.6 651.84,-964.61 651,-965.68 555.86,-1086.75 710.6,-1536.96 615,-1657.68 602.87,-1673 581.55,-1678.92 563.62,-1681.06"/>
<polygon fill="#63b8ff" stroke="#63b8ff" points="656.06,-965.23 661.83,-956.34 651.78,-959.69 656.06,-965.23"/>
</a>
</g>
</g>
<!-- Node115 -->
<g id="Node000115" class="node">
<title>Node115</title>
<g id="a_Node000115"><a xlink:href="ppp__pseudoobs_8cpp.html#a7d44bfc5636f42952bed064438699ba7" target="_top" xlink:title=" ">
<path fill="#fff0f0" stroke="red" d="M568.17,-1201.18C568.17,-1201.18 494.83,-1201.18 494.83,-1201.18 491.67,-1201.18 488.5,-1198.01 488.5,-1194.84 488.5,-1194.84 488.5,-1188.51 488.5,-1188.51 488.5,-1185.34 491.67,-1182.18 494.83,-1182.18 494.83,-1182.18 568.17,-1182.18 568.17,-1182.18 571.33,-1182.18 574.5,-1185.34 574.5,-1188.51 574.5,-1188.51 574.5,-1194.84 574.5,-1194.84 574.5,-1198.01 571.33,-1201.18 568.17,-1201.18"/>
<text text-anchor="middle" x="531.5" y="-1189.18" font-family="Helvetica,sans-Serif" font-size="10.00">initPseudoObs</text>
</a>
</g>
</g>
<!-- Node113&#45;&gt;Node115 -->
<g id="edge70_Node000113_Node000115" class="edge">
<title>Node113&#45;&gt;Node115</title>
<g id="a_edge70_Node000113_Node000115"><a xlink:title=" ">
<path fill="none" stroke="#63b8ff" d="M654.81,-961.96C653.46,-963.11 652.18,-964.35 651,-965.68 590.31,-1033.74 675.95,-1099.85 615,-1167.68 604.73,-1179.1 589.37,-1185.22 574.68,-1188.45"/>
<polygon fill="#63b8ff" stroke="#63b8ff" points="656.91,-964.76 663.22,-956.25 652.98,-958.97 656.91,-964.76"/>
</a>
</g>
</g>
<!-- Node52 -->
<g id="Node000052" class="node">
<title>Node52</title>
<g id="a_Node000052"><a xlink:href="main_8cpp.html#a79eb17a8eaafbf1dde7569cb7eae3b7e" target="_top" xlink:title=" ">
<path fill="#fff0f0" stroke="red" d="M608.67,-1125.18C608.67,-1125.18 454.33,-1125.18 454.33,-1125.18 451.17,-1125.18 448,-1122.01 448,-1118.84 448,-1118.84 448,-1112.51 448,-1112.51 448,-1109.34 451.17,-1106.18 454.33,-1106.18 454.33,-1106.18 608.67,-1106.18 608.67,-1106.18 611.83,-1106.18 615,-1109.34 615,-1112.51 615,-1112.51 615,-1118.84 615,-1118.84 615,-1122.01 611.83,-1125.18 608.67,-1125.18"/>
<text text-anchor="middle" x="531.5" y="-1113.18" font-family="Helvetica,sans-Serif" font-size="10.00">mainOncePerEpochPerSatellite</text>
</a>
</g>
</g>
<!-- Node113&#45;&gt;Node52 -->
<g id="edge72_Node000113_Node000052" class="edge">
<title>Node113&#45;&gt;Node52</title>
<g id="a_edge72_Node000113_Node000052"><a xlink:title=" ">
<path fill="none" stroke="#63b8ff" d="M655.57,-961.67C653.96,-962.9 652.43,-964.23 651,-965.68 610.07,-1007.11 656.08,-1050.4 615,-1091.68 608.69,-1098.02 600.8,-1102.71 592.43,-1106.17"/>
<polygon fill="#63b8ff" stroke="#63b8ff" points="657.58,-964.54 664.23,-956.3 653.89,-958.59 657.58,-964.54"/>
</a>
</g>
</g>
<!-- Node116 -->
<g id="Node000116" class="node">
<title>Node116</title>
<g id="a_Node000116"><a xlink:href="ppp__obs_8cpp.html#a91bd33e0d6bda8bb828c87ac17f2f507" target="_top" xlink:title=" ">
<path fill="#fff0f0" stroke="red" d="M573.17,-708.18C573.17,-708.18 489.83,-708.18 489.83,-708.18 486.67,-708.18 483.5,-705.01 483.5,-701.84 483.5,-701.84 483.5,-695.51 483.5,-695.51 483.5,-692.34 486.67,-689.18 489.83,-689.18 489.83,-689.18 573.17,-689.18 573.17,-689.18 576.33,-689.18 579.5,-692.34 579.5,-695.51 579.5,-695.51 579.5,-701.84 579.5,-701.84 579.5,-705.01 576.33,-708.18 573.17,-708.18"/>
<text text-anchor="middle" x="531.5" y="-696.18" font-family="Helvetica,sans-Serif" font-size="10.00">pppSatCodeBias</text>
</a>
</g>
</g>
<!-- Node113&#45;&gt;Node116 -->
<g id="edge78_Node000113_Node000116" class="edge">
<title>Node113&#45;&gt;Node116</title>
<g id="a_edge78_Node000113_Node000116"><a xlink:title=" ">
<path fill="none" stroke="#63b8ff" d="M711.46,-927C703.68,-883.49 678.98,-778.56 615,-722.68 605.11,-714.04 592.28,-708.51 579.68,-704.96"/>
<polygon fill="#63b8ff" stroke="#63b8ff" points="708.01,-927.61 713.12,-936.89 714.91,-926.45 708.01,-927.61"/>
</a>
</g>
</g>
<!-- Node114&#45;&gt;Node17 -->
<g id="edge66_Node000114_Node000017" class="edge">
<title>Node114&#45;&gt;Node17</title>
<g id="a_edge66_Node000114_Node000017"><a xlink:title=" ">
<path fill="none" stroke="#63b8ff" d="M497.4,-1667.64C479.56,-1658.24 459,-1644.01 448,-1624.68 389.96,-1522.65 454.61,-1207.05 412,-1097.68 399.65,-1065.98 371.05,-1036.83 355.16,-1022.32"/>
<polygon fill="#63b8ff" stroke="#63b8ff" points="495.91,-1670.81 506.42,-1672.13 499.02,-1664.54 495.91,-1670.81"/>
</a>
</g>
</g>
<!-- Node116&#45;&gt;Node41 -->
<g id="edge79_Node000116_Node000041" class="edge">
<title>Node116&#45;&gt;Node41</title>
<g id="a_edge79_Node000116_Node000041"><a xlink:title=" ">
<path fill="none" stroke="#63b8ff" d="M482.94,-686.69C451.62,-678.8 411.17,-668.61 382,-661.25"/>
<polygon fill="#63b8ff" stroke="#63b8ff" points="482.21,-690.12 492.76,-689.17 483.92,-683.33 482.21,-690.12"/>
</a>
</g>
</g>
</g>
</svg>
