<?xml version="1.0" encoding="UTF-8" standalone="no"?>
<!DOCTYPE svg PUBLIC "-//W3C//DTD SVG 1.1//EN"
 "http://www.w3.org/Graphics/SVG/1.1/DTD/svg11.dtd">
<!-- Generated by graphviz version 2.43.0 (0)
 -->
<!-- Title: getFilterObjectFromFile Pages: 1 -->
<svg width="250pt" height="64pt"
 viewBox="0.00 0.00 250.00 64.00" xmlns="http://www.w3.org/2000/svg" xmlns:xlink="http://www.w3.org/1999/xlink">
<g id="graph0" class="graph" transform="scale(1 1) rotate(0) translate(4 60)">
<title>getFilterObjectFromFile</title>
<!-- Node1 -->
<g id="Node000001" class="node">
<title>Node1</title>
<g id="a_Node000001"><a xlink:href="algebraTrace_8hpp.html#a11e5c6e06d30600e55dc2c71f015d0f3" target="_top" xlink:title=" ">
<path fill="#fff0f0" stroke="red" stroke-width="2" d="M235.67,-37C235.67,-37 117.33,-37 117.33,-37 114.17,-37 111,-33.83 111,-30.67 111,-30.67 111,-24.33 111,-24.33 111,-21.17 114.17,-18 117.33,-18 117.33,-18 235.67,-18 235.67,-18 238.83,-18 242,-21.17 242,-24.33 242,-24.33 242,-30.67 242,-30.67 242,-33.83 238.83,-37 235.67,-37"/>
<text text-anchor="middle" x="176.5" y="-25" font-family="Helvetica,sans-Serif" font-size="10.00">getFilterObjectFromFile</text>
</a>
</g>
</g>
<!-- Node2 -->
<g id="Node000002" class="node">
<title>Node2</title>
<g id="a_Node000002"><a xlink:href="minimumConstraints_8cpp.html#aeb8c374e79e38289a66b8b65d6574141" target="_top" xlink:title=" ">
<path fill="#fff0f0" stroke="red" d="M68.67,-56C68.67,-56 6.33,-56 6.33,-56 3.17,-56 0,-52.83 0,-49.67 0,-49.67 0,-43.33 0,-43.33 0,-40.17 3.17,-37 6.33,-37 6.33,-37 68.67,-37 68.67,-37 71.83,-37 75,-40.17 75,-43.33 75,-43.33 75,-49.67 75,-49.67 75,-52.83 71.83,-56 68.67,-56"/>
<text text-anchor="middle" x="37.5" y="-44" font-family="Helvetica,sans-Serif" font-size="10.00">minconOnly</text>
</a>
</g>
</g>
<!-- Node1&#45;&gt;Node2 -->
<g id="edge1_Node000001_Node000002" class="edge">
<title>Node1&#45;&gt;Node2</title>
<g id="a_edge1_Node000001_Node000002"><a xlink:title=" ">
<path fill="none" stroke="#63b8ff" d="M100.62,-37.88C91.8,-39.11 83.12,-40.31 75.18,-41.41"/>
<polygon fill="#63b8ff" stroke="#63b8ff" points="101.19,-41.34 110.61,-36.5 100.22,-34.41 101.19,-41.34"/>
</a>
</g>
</g>
<!-- Node4 -->
<g id="Node000004" class="node">
<title>Node4</title>
<g id="a_Node000004"><a xlink:href="rtsSmoothing_8cpp.html#af82d06646904f0d6b4ede3c573dead48" target="_top" xlink:title="Output filter states in chronological order from a reversed binary trace file.">
<path fill="#fff0f0" stroke="red" d="M62.17,-19C62.17,-19 12.83,-19 12.83,-19 9.67,-19 6.5,-15.83 6.5,-12.67 6.5,-12.67 6.5,-6.33 6.5,-6.33 6.5,-3.17 9.67,0 12.83,0 12.83,0 62.17,0 62.17,0 65.33,0 68.5,-3.17 68.5,-6.33 68.5,-6.33 68.5,-12.67 68.5,-12.67 68.5,-15.83 65.33,-19 62.17,-19"/>
<text text-anchor="middle" x="37.5" y="-7" font-family="Helvetica,sans-Serif" font-size="10.00">rtsOutput</text>
</a>
</g>
</g>
<!-- Node1&#45;&gt;Node4 -->
<g id="edge2_Node000001_Node000004" class="edge">
<title>Node1&#45;&gt;Node4</title>
<g id="a_edge2_Node000001_Node000004"><a xlink:title=" ">
<path fill="none" stroke="#63b8ff" d="M100.64,-17.66C89.33,-16.18 78.25,-14.72 68.66,-13.46"/>
<polygon fill="#63b8ff" stroke="#63b8ff" points="100.24,-21.14 110.61,-18.97 101.15,-14.2 100.24,-21.14"/>
</a>
</g>
</g>
</g>
</svg>
