<?xml version="1.0" encoding="UTF-8" standalone="no"?>
<!DOCTYPE svg PUBLIC "-//W3C//DTD SVG 1.1//EN"
 "http://www.w3.org/Graphics/SVG/1.1/DTD/svg11.dtd">
<!-- Generated by graphviz version 2.43.0 (0)
 -->
<!-- Title: getFilterTypeFromFile Pages: 1 -->
<svg width="339pt" height="103pt"
 viewBox="0.00 0.00 339.00 103.00" xmlns="http://www.w3.org/2000/svg" xmlns:xlink="http://www.w3.org/1999/xlink">
<g id="graph0" class="graph" transform="scale(1 1) rotate(0) translate(4 99)">
<title>getFilterTypeFromFile</title>
<!-- Node1 -->
<g id="Node000001" class="node">
<title>Node1</title>
<g id="a_Node000001"><a xlink:href="algebraTrace_8cpp.html#aa526df463f08398d3cb422d191c56cfb" target="_top" xlink:title="Returns the type of object that is located at the specified position in a file.">
<path fill="#fff0f0" stroke="red" stroke-width="2" d="M324.67,-57C324.67,-57 215.33,-57 215.33,-57 212.17,-57 209,-53.83 209,-50.67 209,-50.67 209,-44.33 209,-44.33 209,-41.17 212.17,-38 215.33,-38 215.33,-38 324.67,-38 324.67,-38 327.83,-38 331,-41.17 331,-44.33 331,-44.33 331,-50.67 331,-50.67 331,-53.83 327.83,-57 324.67,-57"/>
<text text-anchor="middle" x="270" y="-45" font-family="Helvetica,sans-Serif" font-size="10.00">getFilterTypeFromFile</text>
</a>
</g>
</g>
<!-- Node2 -->
<g id="Node000002" class="node">
<title>Node2</title>
<g id="a_Node000002"><a xlink:href="minimumConstraints_8cpp.html#aa40934b017f373d875c3470591eff52e" target="_top" xlink:title=" ">
<path fill="#fff0f0" stroke="red" d="M162.17,-95C162.17,-95 121.83,-95 121.83,-95 118.67,-95 115.5,-91.83 115.5,-88.67 115.5,-88.67 115.5,-82.33 115.5,-82.33 115.5,-79.17 118.67,-76 121.83,-76 121.83,-76 162.17,-76 162.17,-76 165.33,-76 168.5,-79.17 168.5,-82.33 168.5,-82.33 168.5,-88.67 168.5,-88.67 168.5,-91.83 165.33,-95 162.17,-95"/>
<text text-anchor="middle" x="142" y="-83" font-family="Helvetica,sans-Serif" font-size="10.00">mincon</text>
</a>
</g>
</g>
<!-- Node1&#45;&gt;Node2 -->
<g id="edge1_Node000001_Node000002" class="edge">
<title>Node1&#45;&gt;Node2</title>
<g id="a_edge1_Node000001_Node000002"><a xlink:title=" ">
<path fill="none" stroke="#63b8ff" d="M227.42,-60.04C208.09,-65.87 185.71,-72.62 168.85,-77.7"/>
<polygon fill="#63b8ff" stroke="#63b8ff" points="228.64,-63.33 237.2,-57.09 226.62,-56.63 228.64,-63.33"/>
</a>
</g>
</g>
<!-- Node7 -->
<g id="Node000007" class="node">
<title>Node7</title>
<g id="a_Node000007"><a xlink:href="minimumConstraints_8cpp.html#aeb8c374e79e38289a66b8b65d6574141" target="_top" xlink:title=" ">
<path fill="#fff0f0" stroke="red" d="M68.67,-76C68.67,-76 6.33,-76 6.33,-76 3.17,-76 0,-72.83 0,-69.67 0,-69.67 0,-63.33 0,-63.33 0,-60.17 3.17,-57 6.33,-57 6.33,-57 68.67,-57 68.67,-57 71.83,-57 75,-60.17 75,-63.33 75,-63.33 75,-69.67 75,-69.67 75,-72.83 71.83,-76 68.67,-76"/>
<text text-anchor="middle" x="37.5" y="-64" font-family="Helvetica,sans-Serif" font-size="10.00">minconOnly</text>
</a>
</g>
</g>
<!-- Node1&#45;&gt;Node7 -->
<g id="edge3_Node000001_Node000007" class="edge">
<title>Node1&#45;&gt;Node7</title>
<g id="a_edge3_Node000001_Node000007"><a xlink:title=" ">
<path fill="none" stroke="#63b8ff" d="M198.58,-53.31C157.79,-56.67 108.12,-60.76 75.03,-63.49"/>
<polygon fill="#63b8ff" stroke="#63b8ff" points="199.06,-56.78 208.74,-52.47 198.49,-49.8 199.06,-56.78"/>
</a>
</g>
</g>
<!-- Node11 -->
<g id="Node000011" class="node">
<title>Node11</title>
<g id="a_Node000011"><a xlink:href="rtsSmoothing_8cpp.html#af82d06646904f0d6b4ede3c573dead48" target="_top" xlink:title="Output filter states in chronological order from a reversed binary trace file.">
<path fill="#fff0f0" stroke="red" d="M166.67,-19C166.67,-19 117.33,-19 117.33,-19 114.17,-19 111,-15.83 111,-12.67 111,-12.67 111,-6.33 111,-6.33 111,-3.17 114.17,0 117.33,0 117.33,0 166.67,0 166.67,0 169.83,0 173,-3.17 173,-6.33 173,-6.33 173,-12.67 173,-12.67 173,-15.83 169.83,-19 166.67,-19"/>
<text text-anchor="middle" x="142" y="-7" font-family="Helvetica,sans-Serif" font-size="10.00">rtsOutput</text>
</a>
</g>
</g>
<!-- Node1&#45;&gt;Node11 -->
<g id="edge4_Node000001_Node000011" class="edge">
<title>Node1&#45;&gt;Node11</title>
<g id="a_edge4_Node000001_Node000011"><a xlink:title=" ">
<path fill="none" stroke="#63b8ff" d="M227.62,-35.02C209.81,-29.65 189.38,-23.49 173.05,-18.56"/>
<polygon fill="#63b8ff" stroke="#63b8ff" points="226.62,-38.37 237.2,-37.91 228.64,-31.67 226.62,-38.37"/>
</a>
</g>
</g>
<!-- Node2&#45;&gt;Node7 -->
<g id="edge2_Node000002_Node000007" class="edge">
<title>Node2&#45;&gt;Node7</title>
<g id="a_edge2_Node000002_Node000007"><a xlink:title=" ">
<path fill="none" stroke="#63b8ff" d="M105.29,-78.88C95.61,-77.09 85.11,-75.14 75.37,-73.33"/>
<polygon fill="#63b8ff" stroke="#63b8ff" points="104.93,-82.37 115.4,-80.75 106.2,-75.49 104.93,-82.37"/>
</a>
</g>
</g>
</g>
</svg>
