<?xml version="1.0" encoding="UTF-8" standalone="no"?>
<!DOCTYPE svg PUBLIC "-//W3C//DTD SVG 1.1//EN"
 "http://www.w3.org/Graphics/SVG/1.1/DTD/svg11.dtd">
<!-- Generated by graphviz version 2.43.0 (0)
 -->
<!-- Title: tryPrepareFilterPointers Pages: 1 -->
<svg width="330pt" height="76pt"
 viewBox="0.00 0.00 330.00 75.50" xmlns="http://www.w3.org/2000/svg" xmlns:xlink="http://www.w3.org/1999/xlink">
<g id="graph0" class="graph" transform="scale(1 1) rotate(0) translate(4 71.5)">
<title>tryPrepareFilterPointers</title>
<!-- Node1 -->
<g id="Node000001" class="node">
<title>Node1</title>
<g id="a_Node000001"><a xlink:href="algebraTrace_8cpp.html#abda0fa310f025963b9aa17a48ee8a643" target="_top" xlink:title=" ">
<path fill="#fff0f0" stroke="red" stroke-width="2" d="M315.67,-45.5C315.67,-45.5 196.33,-45.5 196.33,-45.5 193.17,-45.5 190,-42.33 190,-39.17 190,-39.17 190,-32.83 190,-32.83 190,-29.67 193.17,-26.5 196.33,-26.5 196.33,-26.5 315.67,-26.5 315.67,-26.5 318.83,-26.5 322,-29.67 322,-32.83 322,-32.83 322,-39.17 322,-39.17 322,-42.33 318.83,-45.5 315.67,-45.5"/>
<text text-anchor="middle" x="256" y="-33.5" font-family="Helvetica,sans-Serif" font-size="10.00">tryPrepareFilterPointers</text>
</a>
</g>
</g>
<!-- Node2 -->
<g id="Node000002" class="node">
<title>Node2</title>
<g id="a_Node000002"><a xlink:href="minimumConstraints_8cpp.html#aeb8c374e79e38289a66b8b65d6574141" target="_top" xlink:title=" ">
<path fill="#fff0f0" stroke="red" d="M108.17,-67.5C108.17,-67.5 45.83,-67.5 45.83,-67.5 42.67,-67.5 39.5,-64.33 39.5,-61.17 39.5,-61.17 39.5,-54.83 39.5,-54.83 39.5,-51.67 42.67,-48.5 45.83,-48.5 45.83,-48.5 108.17,-48.5 108.17,-48.5 111.33,-48.5 114.5,-51.67 114.5,-54.83 114.5,-54.83 114.5,-61.17 114.5,-61.17 114.5,-64.33 111.33,-67.5 108.17,-67.5"/>
<text text-anchor="middle" x="77" y="-55.5" font-family="Helvetica,sans-Serif" font-size="10.00">minconOnly</text>
</a>
</g>
</g>
<!-- Node1&#45;&gt;Node2 -->
<g id="edge1_Node000001_Node000002" class="edge">
<title>Node1&#45;&gt;Node2</title>
<g id="a_edge1_Node000001_Node000002"><a xlink:title=" ">
<path fill="none" stroke="#63b8ff" d="M179.63,-45.37C157.17,-48.16 133.55,-51.1 114.74,-53.43"/>
<polygon fill="#63b8ff" stroke="#63b8ff" points="180.35,-48.81 189.85,-44.1 179.49,-41.86 180.35,-48.81"/>
</a>
</g>
</g>
<!-- Node4 -->
<g id="Node000004" class="node">
<title>Node4</title>
<g id="a_Node000004"><a xlink:href="outputs_8cpp.html#abf277b1afcff7cb07fa2857b4a373100" target="_top" xlink:title=" ">
<path fill="#fff0f0" stroke="red" d="M144,-30C144,-30 10,-30 10,-30 5,-30 0,-25 0,-20 0,-20 0,-10 0,-10 0,-5 5,0 10,0 10,0 144,0 144,0 149,0 154,-5 154,-10 154,-10 154,-20 154,-20 154,-25 149,-30 144,-30"/>
<text text-anchor="start" x="8" y="-18" font-family="Helvetica,sans-Serif" font-size="10.00">perEpochPostProcessingAnd</text>
<text text-anchor="middle" x="77" y="-7" font-family="Helvetica,sans-Serif" font-size="10.00">Outputs</text>
</a>
</g>
</g>
<!-- Node1&#45;&gt;Node4 -->
<g id="edge2_Node000001_Node000004" class="edge">
<title>Node1&#45;&gt;Node4</title>
<g id="a_edge2_Node000001_Node000004"><a xlink:title=" ">
<path fill="none" stroke="#63b8ff" d="M179.91,-27.09C171.37,-26.08 162.66,-25.04 154.1,-24.03"/>
<polygon fill="#63b8ff" stroke="#63b8ff" points="179.5,-30.57 189.85,-28.27 180.33,-23.62 179.5,-30.57"/>
</a>
</g>
</g>
</g>
</svg>
