<?xml version="1.0" encoding="UTF-8" standalone="no"?>
<!DOCTYPE svg PUBLIC "-//W3C//DTD SVG 1.1//EN"
 "http://www.w3.org/Graphics/SVG/1.1/DTD/svg11.dtd">
<!-- Generated by graphviz version 2.43.0 (0)
 -->
<!-- Title: antPcv Pages: 1 -->
<svg width="186pt" height="138pt"
 viewBox="0.00 0.00 186.00 138.00" xmlns="http://www.w3.org/2000/svg" xmlns:xlink="http://www.w3.org/1999/xlink">
<g id="graph0" class="graph" transform="scale(1 1) rotate(0) translate(4 134)">
<title>antPcv</title>
<!-- Node1 -->
<g id="Node000001" class="node">
<title>Node1</title>
<g id="a_Node000001"><a xlink:href="antenna_8cpp.html#a803e19596e682a54b66749c4ef3f8b16" target="_top" xlink:title="find and interpolate antenna pcv">
<path fill="#fff0f0" stroke="red" stroke-width="2" d="M43.67,-56C43.67,-56 6.33,-56 6.33,-56 3.17,-56 0,-52.83 0,-49.67 0,-49.67 0,-43.33 0,-43.33 0,-40.17 3.17,-37 6.33,-37 6.33,-37 43.67,-37 43.67,-37 46.83,-37 50,-40.17 50,-43.33 50,-43.33 50,-49.67 50,-49.67 50,-52.83 46.83,-56 43.67,-56"/>
<text text-anchor="middle" x="25" y="-44" font-family="Helvetica,sans-Serif" font-size="10.00">antPcv</text>
</a>
</g>
</g>
<!-- Node2 -->
<g id="Node000002" class="node">
<title>Node2</title>
<g id="a_Node000002"><a xlink:href="attitude_8cpp.html#a1a74c02f9b5272b79ed718d28dcc3429" target="_top" xlink:title="Converts coords of frame A (expressed in frame G) into transformation matrix from A to G E....">
<path fill="#fff0f0" stroke="red" d="M163.17,-130C163.17,-130 100.83,-130 100.83,-130 97.67,-130 94.5,-126.83 94.5,-123.67 94.5,-123.67 94.5,-117.33 94.5,-117.33 94.5,-114.17 97.67,-111 100.83,-111 100.83,-111 163.17,-111 163.17,-111 166.33,-111 169.5,-114.17 169.5,-117.33 169.5,-117.33 169.5,-123.67 169.5,-123.67 169.5,-126.83 166.33,-130 163.17,-130"/>
<text text-anchor="middle" x="132" y="-118" font-family="Helvetica,sans-Serif" font-size="10.00">rotBasisMat</text>
</a>
</g>
</g>
<!-- Node1&#45;&gt;Node2 -->
<g id="edge1_Node000001_Node000002" class="edge">
<title>Node1&#45;&gt;Node2</title>
<g id="a_edge1_Node000001_Node000002"><a xlink:title=" ">
<path fill="none" stroke="#63b8ff" d="M34.46,-56.39C45.34,-68.6 65.31,-89.36 86,-102.5 88.18,-103.88 90.47,-105.19 92.84,-106.42"/>
<polygon fill="#63b8ff" stroke="#63b8ff" points="91.59,-109.7 102.13,-110.8 94.57,-103.37 91.59,-109.7"/>
</a>
</g>
</g>
<!-- Node3 -->
<g id="Node000003" class="node">
<title>Node3</title>
<g id="a_Node000003"><a xlink:href="common_8cpp.html#ab91cc987d7ae8b6c023a1c1004d54b75" target="_top" xlink:title="Wrap angle between [0, 2pi)">
<path fill="#fff0f0" stroke="red" d="M153.67,-93C153.67,-93 110.33,-93 110.33,-93 107.17,-93 104,-89.83 104,-86.67 104,-86.67 104,-80.33 104,-80.33 104,-77.17 107.17,-74 110.33,-74 110.33,-74 153.67,-74 153.67,-74 156.83,-74 160,-77.17 160,-80.33 160,-80.33 160,-86.67 160,-86.67 160,-89.83 156.83,-93 153.67,-93"/>
<text text-anchor="middle" x="132" y="-81" font-family="Helvetica,sans-Serif" font-size="10.00">wrap2Pi</text>
</a>
</g>
</g>
<!-- Node1&#45;&gt;Node3 -->
<g id="edge2_Node000001_Node000003" class="edge">
<title>Node1&#45;&gt;Node3</title>
<g id="a_edge2_Node000001_Node000003"><a xlink:title=" ">
<path fill="none" stroke="#63b8ff" d="M50.09,-54.99C63.08,-59.56 79.38,-65.31 93.95,-70.44"/>
<polygon fill="#63b8ff" stroke="#63b8ff" points="93.1,-73.85 103.69,-73.88 95.42,-67.25 93.1,-73.85"/>
</a>
</g>
</g>
<!-- Node4 -->
<g id="Node000004" class="node">
<title>Node4</title>
<g id="a_Node000004"><a xlink:href="structGTime.html#aaa8a379d11cd6c040a6bbe680c0e913e" target="_top" xlink:title="Uninitialised time for comparisons.">
<path fill="#fff0f0" stroke="red" d="M171.67,-56C171.67,-56 92.33,-56 92.33,-56 89.17,-56 86,-52.83 86,-49.67 86,-49.67 86,-43.33 86,-43.33 86,-40.17 89.17,-37 92.33,-37 92.33,-37 171.67,-37 171.67,-37 174.83,-37 178,-40.17 178,-43.33 178,-43.33 178,-49.67 178,-49.67 178,-52.83 174.83,-56 171.67,-56"/>
<text text-anchor="middle" x="132" y="-44" font-family="Helvetica,sans-Serif" font-size="10.00">GTime::noTime</text>
</a>
</g>
</g>
<!-- Node1&#45;&gt;Node4 -->
<g id="edge3_Node000001_Node000004" class="edge">
<title>Node1&#45;&gt;Node4</title>
<g id="a_edge3_Node000001_Node000004"><a xlink:title=" ">
<path fill="none" stroke="#63b8ff" d="M50.09,-46.5C57.83,-46.5 66.75,-46.5 75.78,-46.5"/>
<polygon fill="#63b8ff" stroke="#63b8ff" points="75.97,-50 85.97,-46.5 75.97,-43 75.97,-50"/>
</a>
</g>
</g>
<!-- Node5 -->
<g id="Node000005" class="node">
<title>Node5</title>
<g id="a_Node000005"><a xlink:href="antenna_8cpp.html#aab187c8cc9326a1fc5bf589023c923c9" target="_top" xlink:title="linearly interpolate">
<path fill="#fff0f0" stroke="red" d="M148.17,-19C148.17,-19 115.83,-19 115.83,-19 112.67,-19 109.5,-15.83 109.5,-12.67 109.5,-12.67 109.5,-6.33 109.5,-6.33 109.5,-3.17 112.67,0 115.83,0 115.83,0 148.17,0 148.17,0 151.33,0 154.5,-3.17 154.5,-6.33 154.5,-6.33 154.5,-12.67 154.5,-12.67 154.5,-15.83 151.33,-19 148.17,-19"/>
<text text-anchor="middle" x="132" y="-7" font-family="Helvetica,sans-Serif" font-size="10.00">interp</text>
</a>
</g>
</g>
<!-- Node1&#45;&gt;Node5 -->
<g id="edge4_Node000001_Node000005" class="edge">
<title>Node1&#45;&gt;Node5</title>
<g id="a_edge4_Node000001_Node000005"><a xlink:title=" ">
<path fill="none" stroke="#63b8ff" d="M39.73,-36.93C54.85,-29.58 79.67,-20.33 99.61,-14.32"/>
<polygon fill="#63b8ff" stroke="#63b8ff" points="100.58,-17.69 109.23,-11.58 98.66,-10.95 100.58,-17.69"/>
</a>
</g>
</g>
<!-- Node1&#45;&gt;Node5 -->
<g id="edge5_Node000001_Node000005" class="edge">
<title>Node1&#45;&gt;Node5</title>
<g id="a_edge5_Node000001_Node000005"><a xlink:title=" ">
<path fill="none" stroke="#63b8ff" d="M50.09,-43.79C67.5,-38.98 90.88,-30.71 108.03,-23.29"/>
<polygon fill="#63b8ff" stroke="#63b8ff" points="109.67,-26.39 117.31,-19.05 106.76,-20.02 109.67,-26.39"/>
</a>
</g>
</g>
</g>
</svg>
