<?xml version="1.0" encoding="UTF-8" standalone="no"?>
<!DOCTYPE svg PUBLIC "-//W3C//DTD SVG 1.1//EN"
 "http://www.w3.org/Graphics/SVG/1.1/DTD/svg11.dtd">
<!-- Generated by graphviz version 2.43.0 (0)
 -->
<!-- Title: antPco Pages: 1 -->
<svg width="186pt" height="101pt"
 viewBox="0.00 0.00 186.00 101.00" xmlns="http://www.w3.org/2000/svg" xmlns:xlink="http://www.w3.org/1999/xlink">
<g id="graph0" class="graph" transform="scale(1 1) rotate(0) translate(4 97)">
<title>antPco</title>
<!-- Node1 -->
<g id="Node000001" class="node">
<title>Node1</title>
<g id="a_Node000001"><a xlink:href="antenna_8cpp.html#aa781255f62e500233148b6f4a9240740" target="_top" xlink:title="fetch pco">
<path fill="#fff0f0" stroke="red" stroke-width="2" d="M43.67,-56C43.67,-56 6.33,-56 6.33,-56 3.17,-56 0,-52.83 0,-49.67 0,-49.67 0,-43.33 0,-43.33 0,-40.17 3.17,-37 6.33,-37 6.33,-37 43.67,-37 43.67,-37 46.83,-37 50,-40.17 50,-43.33 50,-43.33 50,-49.67 50,-49.67 50,-52.83 46.83,-56 43.67,-56"/>
<text text-anchor="middle" x="25" y="-44" font-family="Helvetica,sans-Serif" font-size="10.00">antPco</text>
</a>
</g>
</g>
<!-- Node2 -->
<g id="Node000002" class="node">
<title>Node2</title>
<g id="a_Node000002"><a xlink:href="antenna_8cpp.html#aab187c8cc9326a1fc5bf589023c923c9" target="_top" xlink:title="linearly interpolate">
<path fill="#fff0f0" stroke="red" d="M148.17,-93C148.17,-93 115.83,-93 115.83,-93 112.67,-93 109.5,-89.83 109.5,-86.67 109.5,-86.67 109.5,-80.33 109.5,-80.33 109.5,-77.17 112.67,-74 115.83,-74 115.83,-74 148.17,-74 148.17,-74 151.33,-74 154.5,-77.17 154.5,-80.33 154.5,-80.33 154.5,-86.67 154.5,-86.67 154.5,-89.83 151.33,-93 148.17,-93"/>
<text text-anchor="middle" x="132" y="-81" font-family="Helvetica,sans-Serif" font-size="10.00">interp</text>
</a>
</g>
</g>
<!-- Node1&#45;&gt;Node2 -->
<g id="edge1_Node000001_Node000002" class="edge">
<title>Node1&#45;&gt;Node2</title>
<g id="a_edge1_Node000001_Node000002"><a xlink:title=" ">
<path fill="none" stroke="#63b8ff" d="M50.09,-54.99C64.69,-60.13 83.49,-66.76 99.29,-72.33"/>
<polygon fill="#63b8ff" stroke="#63b8ff" points="98.57,-75.78 109.17,-75.81 100.9,-69.18 98.57,-75.78"/>
</a>
</g>
</g>
<!-- Node3 -->
<g id="Node000003" class="node">
<title>Node3</title>
<g id="a_Node000003"><a xlink:href="antenna_8cpp.html#a2dbd25a4ebcbcf2e7f5e2ac7db9fdfa9" target="_top" xlink:title=" ">
<path fill="#fff0f0" stroke="red" d="M164.17,-56C164.17,-56 99.83,-56 99.83,-56 96.67,-56 93.5,-52.83 93.5,-49.67 93.5,-49.67 93.5,-43.33 93.5,-43.33 93.5,-40.17 96.67,-37 99.83,-37 99.83,-37 164.17,-37 164.17,-37 167.33,-37 170.5,-40.17 170.5,-43.33 170.5,-43.33 170.5,-49.67 170.5,-49.67 170.5,-52.83 167.33,-56 164.17,-56"/>
<text text-anchor="middle" x="132" y="-44" font-family="Helvetica,sans-Serif" font-size="10.00">makeAntPco</text>
</a>
</g>
</g>
<!-- Node1&#45;&gt;Node3 -->
<g id="edge2_Node000001_Node000003" class="edge">
<title>Node1&#45;&gt;Node3</title>
<g id="a_edge2_Node000001_Node000003"><a xlink:title=" ">
<path fill="none" stroke="#63b8ff" d="M50.09,-40.72C60.02,-39.97 71.88,-39.65 83.43,-39.78"/>
<polygon fill="#63b8ff" stroke="#63b8ff" points="83.36,-43.28 93.44,-40 83.52,-36.28 83.36,-43.28"/>
</a>
</g>
</g>
<!-- Node4 -->
<g id="Node000004" class="node">
<title>Node4</title>
<g id="a_Node000004"><a xlink:href="structGTime.html#aaa8a379d11cd6c040a6bbe680c0e913e" target="_top" xlink:title="Uninitialised time for comparisons.">
<path fill="#fff0f0" stroke="red" d="M171.67,-19C171.67,-19 92.33,-19 92.33,-19 89.17,-19 86,-15.83 86,-12.67 86,-12.67 86,-6.33 86,-6.33 86,-3.17 89.17,0 92.33,0 92.33,0 171.67,0 171.67,0 174.83,0 178,-3.17 178,-6.33 178,-6.33 178,-12.67 178,-12.67 178,-15.83 174.83,-19 171.67,-19"/>
<text text-anchor="middle" x="132" y="-7" font-family="Helvetica,sans-Serif" font-size="10.00">GTime::noTime</text>
</a>
</g>
</g>
<!-- Node1&#45;&gt;Node4 -->
<g id="edge4_Node000001_Node000004" class="edge">
<title>Node1&#45;&gt;Node4</title>
<g id="a_edge4_Node000001_Node000004"><a xlink:title=" ">
<path fill="none" stroke="#63b8ff" d="M50.09,-38.01C63.08,-33.44 79.38,-27.69 93.95,-22.56"/>
<polygon fill="#63b8ff" stroke="#63b8ff" points="95.42,-25.75 103.69,-19.12 93.1,-19.15 95.42,-25.75"/>
</a>
</g>
</g>
<!-- Node3&#45;&gt;Node1 -->
<g id="edge3_Node000003_Node000001" class="edge">
<title>Node3&#45;&gt;Node1</title>
<g id="a_edge3_Node000003_Node000001"><a xlink:title=" ">
<path fill="none" stroke="#63b8ff" d="M93.44,-53C82.61,-53.37 70.86,-53.33 60.25,-52.87"/>
<polygon fill="#63b8ff" stroke="#63b8ff" points="60.28,-49.37 50.09,-52.28 59.87,-56.36 60.28,-49.37"/>
</a>
</g>
</g>
</g>
</svg>
