<?xml version="1.0" encoding="UTF-8" standalone="no"?>
<!DOCTYPE svg PUBLIC "-//W3C//DTD SVG 1.1//EN"
 "http://www.w3.org/Graphics/SVG/1.1/DTD/svg11.dtd">
<!-- Generated by graphviz version 2.43.0 (0)
 -->
<!-- Title: minimumTest Pages: 1 -->
<svg width="447pt" height="388pt"
 viewBox="0.00 0.00 447.00 388.33" xmlns="http://www.w3.org/2000/svg" xmlns:xlink="http://www.w3.org/1999/xlink">
<g id="graph0" class="graph" transform="scale(1 1) rotate(0) translate(4 384.33)">
<title>minimumTest</title>
<!-- Node1 -->
<g id="Node000001" class="node">
<title>Node1</title>
<g id="a_Node000001"><a xlink:href="debug_8cpp.html#a80d24c0bf09dad23394c5fcac25aa80b" target="_top" xlink:title=" ">
<path fill="#fff0f0" stroke="red" stroke-width="2" d="M76.67,-209C76.67,-209 6.33,-209 6.33,-209 3.17,-209 0,-205.83 0,-202.67 0,-202.67 0,-196.33 0,-196.33 0,-193.17 3.17,-190 6.33,-190 6.33,-190 76.67,-190 76.67,-190 79.83,-190 83,-193.17 83,-196.33 83,-196.33 83,-202.67 83,-202.67 83,-205.83 79.83,-209 76.67,-209"/>
<text text-anchor="middle" x="41.5" y="-197" font-family="Helvetica,sans-Serif" font-size="10.00">minimumTest</text>
</a>
</g>
</g>
<!-- Node2 -->
<g id="Node000002" class="node">
<title>Node2</title>
<g id="a_Node000002"><a xlink:href="erp_8cpp.html#afe3874cc58d609f4ccc2b03a5ef632b8" target="_top" xlink:title="Get earth rotation parameter values.">
<path fill="#fff0f0" stroke="red" d="M379.17,-377C379.17,-377 343.83,-377 343.83,-377 340.67,-377 337.5,-373.83 337.5,-370.67 337.5,-370.67 337.5,-364.33 337.5,-364.33 337.5,-361.17 340.67,-358 343.83,-358 343.83,-358 379.17,-358 379.17,-358 382.33,-358 385.5,-361.17 385.5,-364.33 385.5,-364.33 385.5,-370.67 385.5,-370.67 385.5,-373.83 382.33,-377 379.17,-377"/>
<text text-anchor="middle" x="361.5" y="-365" font-family="Helvetica,sans-Serif" font-size="10.00">getErp</text>
</a>
</g>
</g>
<!-- Node1&#45;&gt;Node2 -->
<g id="edge1_Node000001_Node000002" class="edge">
<title>Node1&#45;&gt;Node2</title>
<g id="a_edge1_Node000001_Node000002"><a xlink:title=" ">
<path fill="none" stroke="#63b8ff" d="M44.23,-209.17C49.65,-236.26 69,-313.1 119,-346.5 182.55,-388.94 277.45,-381.74 327.25,-373.97"/>
<polygon fill="#63b8ff" stroke="#63b8ff" points="327.88,-377.41 337.17,-372.32 326.73,-370.51 327.88,-377.41"/>
</a>
</g>
</g>
<!-- Node23 -->
<g id="Node000023" class="node">
<title>Node23</title>
<g id="a_Node000023"><a xlink:href="structKFMeasEntry.html#a358f854f4544c59fd129e46a1baf0e34" target="_top" xlink:title="Adds a design matrix entry for this measurement.">
<path fill="#fff0f0" stroke="red" d="M432.67,-321C432.67,-321 290.33,-321 290.33,-321 287.17,-321 284,-317.83 284,-314.67 284,-314.67 284,-308.33 284,-308.33 284,-305.17 287.17,-302 290.33,-302 290.33,-302 432.67,-302 432.67,-302 435.83,-302 439,-305.17 439,-308.33 439,-308.33 439,-314.67 439,-314.67 439,-317.83 435.83,-321 432.67,-321"/>
<text text-anchor="middle" x="361.5" y="-309" font-family="Helvetica,sans-Serif" font-size="10.00">KFMeasEntry::addDsgnEntry</text>
</a>
</g>
</g>
<!-- Node1&#45;&gt;Node23 -->
<g id="edge2_Node000001_Node000023" class="edge">
<title>Node1&#45;&gt;Node23</title>
<g id="a_edge2_Node000001_Node000023"><a xlink:title=" ">
<path fill="none" stroke="#63b8ff" d="M47.5,-209.33C56.84,-231.47 79.66,-282.62 119,-303.5 168.29,-329.65 231.6,-328.34 281.03,-322.32"/>
<polygon fill="#63b8ff" stroke="#63b8ff" points="281.57,-325.78 291.04,-321.02 280.67,-318.84 281.57,-325.78"/>
</a>
</g>
</g>
<!-- Node1&#45;&gt;Node23 -->
<g id="edge3_Node000001_Node000023" class="edge">
<title>Node1&#45;&gt;Node23</title>
<g id="a_edge3_Node000001_Node000023"><a xlink:title=" ">
<path fill="none" stroke="#63b8ff" d="M44.3,-209.1C50.63,-234.15 74.01,-297.63 119,-321.5 189.24,-358.77 287.95,-340.27 334.4,-324.52"/>
<polygon fill="#63b8ff" stroke="#63b8ff" points="335.81,-327.73 344.01,-321.02 333.41,-321.15 335.81,-327.73"/>
</a>
</g>
</g>
<!-- Node24 -->
<g id="Node000024" class="node">
<title>Node24</title>
<g id="a_Node000024"><a xlink:href="structKFState.html#a8f43fca242e78201e48996ebbb4fd69f" target="_top" xlink:title="Tries to add a state to the filter object.">
<path fill="#fff0f0" stroke="red" d="M235.17,-303C235.17,-303 131.83,-303 131.83,-303 128.67,-303 125.5,-299.83 125.5,-296.67 125.5,-296.67 125.5,-290.33 125.5,-290.33 125.5,-287.17 128.67,-284 131.83,-284 131.83,-284 235.17,-284 235.17,-284 238.33,-284 241.5,-287.17 241.5,-290.33 241.5,-290.33 241.5,-296.67 241.5,-296.67 241.5,-299.83 238.33,-303 235.17,-303"/>
<text text-anchor="middle" x="183.5" y="-291" font-family="Helvetica,sans-Serif" font-size="10.00">KFState::addKFState</text>
</a>
</g>
</g>
<!-- Node1&#45;&gt;Node24 -->
<g id="edge4_Node000001_Node000024" class="edge">
<title>Node1&#45;&gt;Node24</title>
<g id="a_edge4_Node000001_Node000024"><a xlink:title=" ">
<path fill="none" stroke="#63b8ff" d="M50.98,-209.36C64.2,-224.2 91.09,-252.34 119,-269.5 125.71,-273.62 133.24,-277.23 140.7,-280.31"/>
<polygon fill="#63b8ff" stroke="#63b8ff" points="139.47,-283.58 150.06,-283.92 141.99,-277.05 139.47,-283.58"/>
</a>
</g>
</g>
<!-- Node25 -->
<g id="Node000025" class="node">
<title>Node25</title>
<g id="a_Node000025"><a xlink:href="structKFMeasEntry.html#a7d612c21a6d8f4367e273baf672e6cbd" target="_top" xlink:title="Adds the actual measurement value for this measurement.">
<path fill="#fff0f0" stroke="red" d="M419.17,-256C419.17,-256 303.83,-256 303.83,-256 300.67,-256 297.5,-252.83 297.5,-249.67 297.5,-249.67 297.5,-243.33 297.5,-243.33 297.5,-240.17 300.67,-237 303.83,-237 303.83,-237 419.17,-237 419.17,-237 422.33,-237 425.5,-240.17 425.5,-243.33 425.5,-243.33 425.5,-249.67 425.5,-249.67 425.5,-252.83 422.33,-256 419.17,-256"/>
<text text-anchor="middle" x="361.5" y="-244" font-family="Helvetica,sans-Serif" font-size="10.00">KFMeasEntry::setValue</text>
</a>
</g>
</g>
<!-- Node1&#45;&gt;Node25 -->
<g id="edge5_Node000001_Node000025" class="edge">
<title>Node1&#45;&gt;Node25</title>
<g id="a_edge5_Node000001_Node000025"><a xlink:title=" ">
<path fill="none" stroke="#63b8ff" d="M83.18,-201.98C94.7,-204.5 107.29,-207.38 119,-209.5 184.53,-221.39 261.02,-229.26 310.06,-235.65"/>
<polygon fill="#63b8ff" stroke="#63b8ff" points="309.72,-239.14 320.1,-237 310.65,-232.2 309.72,-239.14"/>
</a>
</g>
</g>
<!-- Node1&#45;&gt;Node25 -->
<g id="edge6_Node000001_Node000025" class="edge">
<title>Node1&#45;&gt;Node25</title>
<g id="a_edge6_Node000001_Node000025"><a xlink:title=" ">
<path fill="none" stroke="#63b8ff" d="M54.06,-209.09C68.96,-216.08 95.71,-223.27 119,-227.5 175.12,-237.68 239.29,-244.91 287.37,-248.15"/>
<polygon fill="#63b8ff" stroke="#63b8ff" points="287.17,-251.65 297.38,-248.78 287.61,-244.66 287.17,-251.65"/>
</a>
</g>
</g>
<!-- Node26 -->
<g id="Node000026" class="node">
<title>Node26</title>
<g id="a_Node000026"><a xlink:href="structKFMeasEntry.html#a58172784aeb65ed62d2b21ee570f4980" target="_top" xlink:title="Adds the measurement noise entry for this measurement.">
<path fill="#fff0f0" stroke="red" d="M241.67,-209C241.67,-209 125.33,-209 125.33,-209 122.17,-209 119,-205.83 119,-202.67 119,-202.67 119,-196.33 119,-196.33 119,-193.17 122.17,-190 125.33,-190 125.33,-190 241.67,-190 241.67,-190 244.83,-190 248,-193.17 248,-196.33 248,-196.33 248,-202.67 248,-202.67 248,-205.83 244.83,-209 241.67,-209"/>
<text text-anchor="middle" x="183.5" y="-197" font-family="Helvetica,sans-Serif" font-size="10.00">KFMeasEntry::setNoise</text>
</a>
</g>
</g>
<!-- Node1&#45;&gt;Node26 -->
<g id="edge7_Node000001_Node000026" class="edge">
<title>Node1&#45;&gt;Node26</title>
<g id="a_edge7_Node000001_Node000026"><a xlink:title=" ">
<path fill="none" stroke="#63b8ff" d="M83.37,-193.3C91.38,-192.98 100,-192.8 108.7,-192.76"/>
<polygon fill="#63b8ff" stroke="#63b8ff" points="108.92,-196.26 118.92,-192.78 108.93,-189.26 108.92,-196.26"/>
</a>
</g>
</g>
<!-- Node1&#45;&gt;Node26 -->
<g id="edge8_Node000001_Node000026" class="edge">
<title>Node1&#45;&gt;Node26</title>
<g id="a_edge8_Node000001_Node000026"><a xlink:title=" ">
<path fill="none" stroke="#63b8ff" d="M83.37,-205.7C91.38,-206.02 100,-206.2 108.7,-206.24"/>
<polygon fill="#63b8ff" stroke="#63b8ff" points="108.93,-209.74 118.92,-206.22 108.92,-202.74 108.93,-209.74"/>
</a>
</g>
</g>
<!-- Node27 -->
<g id="Node000027" class="node">
<title>Node27</title>
<g id="a_Node000027"><a xlink:href="structKFState.html#a7f8e4b9291361c063cef8d9178f07707" target="_top" xlink:title="Add process noise and dynamics to filter object according to time gap.">
<path fill="#fff0f0" stroke="red" d="M421.17,-157C421.17,-157 301.83,-157 301.83,-157 298.67,-157 295.5,-153.83 295.5,-150.67 295.5,-150.67 295.5,-144.33 295.5,-144.33 295.5,-141.17 298.67,-138 301.83,-138 301.83,-138 421.17,-138 421.17,-138 424.33,-138 427.5,-141.17 427.5,-144.33 427.5,-144.33 427.5,-150.67 427.5,-150.67 427.5,-153.83 424.33,-157 421.17,-157"/>
<text text-anchor="middle" x="361.5" y="-145" font-family="Helvetica,sans-Serif" font-size="10.00">KFState::stateTransition</text>
</a>
</g>
</g>
<!-- Node1&#45;&gt;Node27 -->
<g id="edge9_Node000001_Node000027" class="edge">
<title>Node1&#45;&gt;Node27</title>
<g id="a_edge9_Node000001_Node000027"><a xlink:title=" ">
<path fill="none" stroke="#63b8ff" d="M80.1,-189.93C92.44,-186.99 106.26,-183.89 119,-181.5 174.46,-171.09 237.63,-162.31 285.44,-156.28"/>
<polygon fill="#63b8ff" stroke="#63b8ff" points="285.92,-159.74 295.41,-155.03 285.05,-152.8 285.92,-159.74"/>
</a>
</g>
</g>
<!-- Node37 -->
<g id="Node000037" class="node">
<title>Node37</title>
<g id="a_Node000037"><a xlink:href="structKFState.html#ae1fc274c403b77dc814ed90763b4dea1" target="_top" xlink:title="Least squares estimator for new kalman filter states.">
<path fill="#fff0f0" stroke="red" d="M418.5,-112.5C418.5,-112.5 304.5,-112.5 304.5,-112.5 299.5,-112.5 294.5,-107.5 294.5,-102.5 294.5,-102.5 294.5,-92.5 294.5,-92.5 294.5,-87.5 299.5,-82.5 304.5,-82.5 304.5,-82.5 418.5,-82.5 418.5,-82.5 423.5,-82.5 428.5,-87.5 428.5,-92.5 428.5,-92.5 428.5,-102.5 428.5,-102.5 428.5,-107.5 423.5,-112.5 418.5,-112.5"/>
<text text-anchor="start" x="302.5" y="-100.5" font-family="Helvetica,sans-Serif" font-size="10.00">KFState::leastSquareInit</text>
<text text-anchor="middle" x="361.5" y="-89.5" font-family="Helvetica,sans-Serif" font-size="10.00">States</text>
</a>
</g>
</g>
<!-- Node1&#45;&gt;Node37 -->
<g id="edge10_Node000001_Node000037" class="edge">
<title>Node1&#45;&gt;Node37</title>
<g id="a_edge10_Node000001_Node000037"><a xlink:title=" ">
<path fill="none" stroke="#63b8ff" d="M57.18,-189.94C72.18,-180.53 96.42,-166.33 119,-157.5 172.62,-136.53 235.86,-121.13 284.18,-111.19"/>
<polygon fill="#63b8ff" stroke="#63b8ff" points="285.14,-114.56 294.25,-109.15 283.75,-107.7 285.14,-114.56"/>
</a>
</g>
</g>
<!-- Node39 -->
<g id="Node000039" class="node">
<title>Node39</title>
<g id="a_Node000039"><a xlink:href="structKFState.html#a0d12c57e70876543084c182a660bbbd3" target="_top" xlink:title="Kalman filter operation.">
<path fill="#fff0f0" stroke="red" d="M415.17,-19C415.17,-19 307.83,-19 307.83,-19 304.67,-19 301.5,-15.83 301.5,-12.67 301.5,-12.67 301.5,-6.33 301.5,-6.33 301.5,-3.17 304.67,0 307.83,0 307.83,0 415.17,0 415.17,0 418.33,0 421.5,-3.17 421.5,-6.33 421.5,-6.33 421.5,-12.67 421.5,-12.67 421.5,-15.83 418.33,-19 415.17,-19"/>
<text text-anchor="middle" x="361.5" y="-7" font-family="Helvetica,sans-Serif" font-size="10.00">KFState::filterKalman</text>
</a>
</g>
</g>
<!-- Node1&#45;&gt;Node39 -->
<g id="edge11_Node000001_Node000039" class="edge">
<title>Node1&#45;&gt;Node39</title>
<g id="a_edge11_Node000001_Node000039"><a xlink:title=" ">
<path fill="none" stroke="#63b8ff" d="M49.42,-189.94C61.87,-173.23 89.52,-138.32 119,-115.5 184.56,-64.76 206.54,-58.04 284,-28.5 290.44,-26.04 297.31,-23.82 304.19,-21.83"/>
<polygon fill="#63b8ff" stroke="#63b8ff" points="305.51,-25.09 314.23,-19.08 303.66,-18.34 305.51,-25.09"/>
</a>
</g>
</g>
<!-- Node65 -->
<g id="Node000065" class="node">
<title>Node65</title>
<g id="a_Node000065"><a xlink:href="structKFState.html#a0c84e911a5ea760fe728baec661e33f0" target="_top" xlink:title="Output keys and states in human readable format.">
<path fill="#fff0f0" stroke="red" d="M416.17,-56C416.17,-56 306.83,-56 306.83,-56 303.67,-56 300.5,-52.83 300.5,-49.67 300.5,-49.67 300.5,-43.33 300.5,-43.33 300.5,-40.17 303.67,-37 306.83,-37 306.83,-37 416.17,-37 416.17,-37 419.33,-37 422.5,-40.17 422.5,-43.33 422.5,-43.33 422.5,-49.67 422.5,-49.67 422.5,-52.83 419.33,-56 416.17,-56"/>
<text text-anchor="middle" x="361.5" y="-44" font-family="Helvetica,sans-Serif" font-size="10.00">KFState::outputStates</text>
</a>
</g>
</g>
<!-- Node1&#45;&gt;Node65 -->
<g id="edge12_Node000001_Node000065" class="edge">
<title>Node1&#45;&gt;Node65</title>
<g id="a_edge12_Node000001_Node000065"><a xlink:title=" ">
<path fill="none" stroke="#63b8ff" d="M48.6,-189.84C60.16,-172.34 86.98,-135.36 119,-115.5 171.54,-82.91 239.97,-65.25 290.57,-55.99"/>
<polygon fill="#63b8ff" stroke="#63b8ff" points="291.2,-59.43 300.44,-54.24 289.98,-52.53 291.2,-59.43"/>
</a>
</g>
</g>
<!-- Node66 -->
<g id="Node000066" class="node">
<title>Node66</title>
<g id="a_Node000066"><a xlink:href="minimumConstraints_8cpp.html#aa40934b017f373d875c3470591eff52e" target="_top" xlink:title=" ">
<path fill="#fff0f0" stroke="red" d="M203.67,-19C203.67,-19 163.33,-19 163.33,-19 160.17,-19 157,-15.83 157,-12.67 157,-12.67 157,-6.33 157,-6.33 157,-3.17 160.17,0 163.33,0 163.33,0 203.67,0 203.67,0 206.83,0 210,-3.17 210,-6.33 210,-6.33 210,-12.67 210,-12.67 210,-15.83 206.83,-19 203.67,-19"/>
<text text-anchor="middle" x="183.5" y="-7" font-family="Helvetica,sans-Serif" font-size="10.00">mincon</text>
</a>
</g>
</g>
<!-- Node1&#45;&gt;Node66 -->
<g id="edge13_Node000001_Node000066" class="edge">
<title>Node1&#45;&gt;Node66</title>
<g id="a_edge13_Node000001_Node000066"><a xlink:title=" ">
<path fill="none" stroke="#63b8ff" d="M44.3,-189.75C50,-161.53 70.25,-78.93 119,-33.5 126.82,-26.21 137.08,-21.07 147.06,-17.48"/>
<polygon fill="#63b8ff" stroke="#63b8ff" points="148.38,-20.73 156.85,-14.37 146.26,-14.06 148.38,-20.73"/>
</a>
</g>
</g>
<!-- Node66&#45;&gt;Node2 -->
<g id="edge14_Node000066_Node000002" class="edge">
<title>Node66&#45;&gt;Node2</title>
<g id="a_edge14_Node000066_Node000002"><a xlink:title=" ">
<path fill="none" stroke="#63b8ff" d="M188.48,-19.06C199.14,-44.91 228.82,-118.46 248,-181.5 267.83,-246.68 241.23,-277.47 284,-330.5 295.02,-344.16 312.31,-353.11 327.67,-358.79"/>
<polygon fill="#63b8ff" stroke="#63b8ff" points="326.81,-362.19 337.4,-362.06 329.04,-355.55 326.81,-362.19"/>
</a>
</g>
</g>
<!-- Node66&#45;&gt;Node23 -->
<g id="edge15_Node000066_Node000023" class="edge">
<title>Node66&#45;&gt;Node23</title>
<g id="a_edge15_Node000066_Node000023"><a xlink:title=" ">
<path fill="none" stroke="#63b8ff" d="M189.22,-19.07C207.83,-63.79 275.53,-246.45 284,-256.5 299.27,-274.63 323.61,-287.52 340.72,-296.88"/>
<polygon fill="#63b8ff" stroke="#63b8ff" points="339.41,-300.15 349.84,-301.99 342.83,-294.05 339.41,-300.15"/>
</a>
</g>
</g>
<!-- Node66&#45;&gt;Node23 -->
<g id="edge16_Node000066_Node000023" class="edge">
<title>Node66&#45;&gt;Node23</title>
<g id="a_edge16_Node000066_Node000023"><a xlink:title=" ">
<path fill="none" stroke="#63b8ff" d="M187.1,-19.03C201.89,-65.73 275.17,-264.02 284,-274.5 291.34,-283.21 300.77,-290.71 310.49,-296.77"/>
<polygon fill="#63b8ff" stroke="#63b8ff" points="309.02,-299.96 319.44,-301.91 312.51,-293.9 309.02,-299.96"/>
</a>
</g>
</g>
<!-- Node66&#45;&gt;Node25 -->
<g id="edge17_Node000066_Node000025" class="edge">
<title>Node66&#45;&gt;Node25</title>
<g id="a_edge17_Node000066_Node000025"><a xlink:title=" ">
<path fill="none" stroke="#63b8ff" d="M189.72,-19.14C203.57,-44.39 243.04,-114.15 284,-166.5 302.42,-190.04 326.7,-214.51 342.92,-230.09"/>
<polygon fill="#63b8ff" stroke="#63b8ff" points="340.51,-232.63 350.17,-236.98 345.33,-227.55 340.51,-232.63"/>
</a>
</g>
</g>
<!-- Node66&#45;&gt;Node27 -->
<g id="edge18_Node000066_Node000027" class="edge">
<title>Node66&#45;&gt;Node27</title>
<g id="a_edge18_Node000066_Node000027"><a xlink:title=" ">
<path fill="none" stroke="#63b8ff" d="M190.48,-19.1C204.31,-40.55 240.66,-92.73 284,-121.5 291.98,-126.8 301.15,-131.12 310.3,-134.61"/>
<polygon fill="#63b8ff" stroke="#63b8ff" points="309.18,-137.93 319.78,-137.95 311.51,-131.32 309.18,-137.93"/>
</a>
</g>
</g>
<!-- Node66&#45;&gt;Node37 -->
<g id="edge19_Node000066_Node000037" class="edge">
<title>Node66&#45;&gt;Node37</title>
<g id="a_edge19_Node000066_Node000037"><a xlink:title=" ">
<path fill="none" stroke="#63b8ff" d="M200.05,-19C219.38,-30.63 253.54,-50.62 284,-65.5 293.12,-69.95 303.02,-74.38 312.57,-78.46"/>
<polygon fill="#63b8ff" stroke="#63b8ff" points="311.4,-81.76 321.98,-82.41 314.11,-75.31 311.4,-81.76"/>
</a>
</g>
</g>
<!-- Node66&#45;&gt;Node39 -->
<g id="edge21_Node000066_Node000039" class="edge">
<title>Node66&#45;&gt;Node39</title>
<g id="a_edge21_Node000066_Node000039"><a xlink:title=" ">
<path fill="none" stroke="#63b8ff" d="M210.09,-9.5C231.32,-9.5 262.53,-9.5 291.02,-9.5"/>
<polygon fill="#63b8ff" stroke="#63b8ff" points="291.38,-13 301.38,-9.5 291.38,-6 291.38,-13"/>
</a>
</g>
</g>
<!-- Node66&#45;&gt;Node65 -->
<g id="edge20_Node000066_Node000065" class="edge">
<title>Node66&#45;&gt;Node65</title>
<g id="a_edge20_Node000066_Node000065"><a xlink:title=" ">
<path fill="none" stroke="#63b8ff" d="M210.09,-9.95C241.2,-14.23 293.73,-25.12 327.76,-34.23"/>
<polygon fill="#63b8ff" stroke="#63b8ff" points="327.1,-37.68 337.68,-36.99 328.98,-30.93 327.1,-37.68"/>
</a>
</g>
</g>
<!-- Node66&#45;&gt;Node65 -->
<g id="edge22_Node000066_Node000065" class="edge">
<title>Node66&#45;&gt;Node65</title>
<g id="a_edge22_Node000066_Node000065"><a xlink:title=" ">
<path fill="none" stroke="#63b8ff" d="M207.51,-19.07C228.6,-25.19 260.96,-32.62 290.49,-38.41"/>
<polygon fill="#63b8ff" stroke="#63b8ff" points="289.9,-41.85 300.38,-40.3 291.21,-34.98 289.9,-41.85"/>
</a>
</g>
</g>
</g>
</svg>
