<?xml version="1.0" encoding="UTF-8" standalone="no"?>
<!DOCTYPE svg PUBLIC "-//W3C//DTD SVG 1.1//EN"
 "http://www.w3.org/Graphics/SVG/1.1/DTD/svg11.dtd">
<!-- Generated by graphviz version 2.43.0 (0)
 -->
<!-- Title: receiverEopPartials Pages: 1 -->
<svg width="247pt" height="82pt"
 viewBox="0.00 0.00 247.00 82.00" xmlns="http://www.w3.org/2000/svg" xmlns:xlink="http://www.w3.org/1999/xlink">
<g id="graph0" class="graph" transform="scale(1 1) rotate(0) translate(4 78)">
<title>receiverEopPartials</title>
<!-- Node1 -->
<g id="Node000001" class="node">
<title>Node1</title>
<g id="a_Node000001"><a xlink:href="erp_8cpp.html#affece470f1b175800f22c6020c5d7494" target="_top" xlink:title=" ">
<path fill="#fff0f0" stroke="red" stroke-width="2" d="M232.67,-37C232.67,-37 135.33,-37 135.33,-37 132.17,-37 129,-33.83 129,-30.67 129,-30.67 129,-24.33 129,-24.33 129,-21.17 132.17,-18 135.33,-18 135.33,-18 232.67,-18 232.67,-18 235.83,-18 239,-21.17 239,-24.33 239,-24.33 239,-30.67 239,-30.67 239,-33.83 235.83,-37 232.67,-37"/>
<text text-anchor="middle" x="184" y="-25" font-family="Helvetica,sans-Serif" font-size="10.00">receiverEopPartials</text>
</a>
</g>
</g>
<!-- Node2 -->
<g id="Node000002" class="node">
<title>Node2</title>
<g id="a_Node000002"><a xlink:href="ppp__obs_8cpp.html#a1a7bb3f4b094800c45a7f1e5ae7d483e" target="_top" xlink:title=" ">
<path fill="#fff0f0" stroke="red" d="M85.67,-56C85.67,-56 7.33,-56 7.33,-56 4.17,-56 1,-52.83 1,-49.67 1,-49.67 1,-43.33 1,-43.33 1,-40.17 4.17,-37 7.33,-37 7.33,-37 85.67,-37 85.67,-37 88.83,-37 92,-40.17 92,-43.33 92,-43.33 92,-49.67 92,-49.67 92,-52.83 88.83,-56 85.67,-56"/>
<text text-anchor="middle" x="46.5" y="-44" font-family="Helvetica,sans-Serif" font-size="10.00">eopAdjustment</text>
</a>
</g>
</g>
<!-- Node1&#45;&gt;Node2 -->
<g id="edge1_Node000001_Node000002" class="edge">
<title>Node1&#45;&gt;Node2</title>
<g id="a_edge1_Node000001_Node000002"><a xlink:title=" ">
<path fill="none" stroke="#63b8ff" d="M118.66,-36.52C109.74,-37.77 100.74,-39.03 92.28,-40.22"/>
<polygon fill="#63b8ff" stroke="#63b8ff" points="119.25,-39.97 128.67,-35.12 118.28,-33.04 119.25,-39.97"/>
</a>
</g>
</g>
<!-- Node11 -->
<g id="Node000011" class="node">
<title>Node11</title>
<g id="a_Node000011"><a xlink:href="ppp__pseudoobs_8cpp.html#aa5459ae2332731b13b89654f112950d1" target="_top" xlink:title=" ">
<path fill="#fff0f0" stroke="red" d="M86.67,-19C86.67,-19 6.33,-19 6.33,-19 3.17,-19 0,-15.83 0,-12.67 0,-12.67 0,-6.33 0,-6.33 0,-3.17 3.17,0 6.33,0 6.33,0 86.67,0 86.67,0 89.83,0 93,-3.17 93,-6.33 93,-6.33 93,-12.67 93,-12.67 93,-15.83 89.83,-19 86.67,-19"/>
<text text-anchor="middle" x="46.5" y="-7" font-family="Helvetica,sans-Serif" font-size="10.00">orbitPseudoObs</text>
</a>
</g>
</g>
<!-- Node1&#45;&gt;Node11 -->
<g id="edge3_Node000001_Node000011" class="edge">
<title>Node1&#45;&gt;Node11</title>
<g id="a_edge3_Node000001_Node000011"><a xlink:title=" ">
<path fill="none" stroke="#63b8ff" d="M118.63,-18.95C110.02,-17.8 101.34,-16.65 93.14,-15.56"/>
<polygon fill="#63b8ff" stroke="#63b8ff" points="118.29,-22.44 128.67,-20.28 119.22,-15.5 118.29,-22.44"/>
</a>
</g>
</g>
<!-- Node2&#45;&gt;Node2 -->
<g id="edge2_Node000002_Node000002" class="edge">
<title>Node2&#45;&gt;Node2</title>
<g id="a_edge2_Node000002_Node000002"><a xlink:title=" ">
<path fill="none" stroke="#63b8ff" d="M71.8,-65.19C70.42,-70.2 61.99,-74 46.5,-74 22.33,-74 15.34,-64.73 25.54,-56.08"/>
<polygon fill="#63b8ff" stroke="#63b8ff" points="74.92,-63.61 67.46,-56.08 68.6,-66.62 74.92,-63.61"/>
</a>
</g>
</g>
</g>
</svg>
