<?xml version="1.0" encoding="UTF-8" standalone="no"?>
<!DOCTYPE svg PUBLIC "-//W3C//DTD SVG 1.1//EN"
 "http://www.w3.org/Graphics/SVG/1.1/DTD/svg11.dtd">
<!-- Generated by graphviz version 2.43.0 (0)
 -->
<!-- Title: epoch2time Pages: 1 -->
<svg width="254pt" height="175pt"
 viewBox="0.00 0.00 254.00 175.00" xmlns="http://www.w3.org/2000/svg" xmlns:xlink="http://www.w3.org/1999/xlink">
<g id="graph0" class="graph" transform="scale(1 1) rotate(0) translate(4 171)">
<title>epoch2time</title>
<!-- Node1 -->
<g id="Node000001" class="node">
<title>Node1</title>
<g id="a_Node000001"><a xlink:href="gTime_8cpp.html#a42f524ddac7eb2f122e34df9a5a1f08f" target="_top" xlink:title=" ">
<path fill="#fff0f0" stroke="red" stroke-width="2" d="M239.67,-93C239.67,-93 178.33,-93 178.33,-93 175.17,-93 172,-89.83 172,-86.67 172,-86.67 172,-80.33 172,-80.33 172,-77.17 175.17,-74 178.33,-74 178.33,-74 239.67,-74 239.67,-74 242.83,-74 246,-77.17 246,-80.33 246,-80.33 246,-86.67 246,-86.67 246,-89.83 242.83,-93 239.67,-93"/>
<text text-anchor="middle" x="209" y="-81" font-family="Helvetica,sans-Serif" font-size="10.00">epoch2time</text>
</a>
</g>
</g>
<!-- Node2 -->
<g id="Node000002" class="node">
<title>Node2</title>
<g id="a_Node000002"><a xlink:href="debug_8cpp.html#ab1c89bb12579ace0fe0ec45523ed9567" target="_top" xlink:title=" ">
<path fill="#fff0f0" stroke="red" d="M107.67,-167C107.67,-167 28.33,-167 28.33,-167 25.17,-167 22,-163.83 22,-160.67 22,-160.67 22,-154.33 22,-154.33 22,-151.17 25.17,-148 28.33,-148 28.33,-148 107.67,-148 107.67,-148 110.83,-148 114,-151.17 114,-154.33 114,-154.33 114,-160.67 114,-160.67 114,-163.83 110.83,-167 107.67,-167"/>
<text text-anchor="middle" x="68" y="-155" font-family="Helvetica,sans-Serif" font-size="10.00">debugTideSolid</text>
</a>
</g>
</g>
<!-- Node1&#45;&gt;Node2 -->
<g id="edge1_Node000001_Node000002" class="edge">
<title>Node1&#45;&gt;Node2</title>
<g id="a_edge1_Node000001_Node000002"><a xlink:title=" ">
<path fill="none" stroke="#63b8ff" d="M190.46,-100.42C176.67,-112.87 156.43,-129.33 136,-139.5 129.21,-142.88 121.7,-145.69 114.24,-148"/>
<polygon fill="#63b8ff" stroke="#63b8ff" points="193.21,-102.64 198.16,-93.28 188.45,-97.51 193.21,-102.64"/>
</a>
</g>
</g>
<!-- Node3 -->
<g id="Node000003" class="node">
<title>Node3</title>
<g id="a_Node000003"><a xlink:href="debug_8cpp.html#af275684b11864c00a1be8ec4f9498ef6" target="_top" xlink:title=" ">
<path fill="#fff0f0" stroke="red" d="M97.17,-130C97.17,-130 38.83,-130 38.83,-130 35.67,-130 32.5,-126.83 32.5,-123.67 32.5,-123.67 32.5,-117.33 32.5,-117.33 32.5,-114.17 35.67,-111 38.83,-111 38.83,-111 97.17,-111 97.17,-111 100.33,-111 103.5,-114.17 103.5,-117.33 103.5,-117.33 103.5,-123.67 103.5,-123.67 103.5,-126.83 100.33,-130 97.17,-130"/>
<text text-anchor="middle" x="68" y="-118" font-family="Helvetica,sans-Serif" font-size="10.00">debugTime</text>
</a>
</g>
</g>
<!-- Node1&#45;&gt;Node3 -->
<g id="edge2_Node000001_Node000003" class="edge">
<title>Node1&#45;&gt;Node3</title>
<g id="a_edge2_Node000001_Node000003"><a xlink:title=" ">
<path fill="none" stroke="#63b8ff" d="M162.49,-95.61C143.38,-100.7 121.5,-106.53 103.71,-111.26"/>
<polygon fill="#63b8ff" stroke="#63b8ff" points="163.44,-98.98 172.2,-93.03 161.64,-92.22 163.44,-98.98"/>
</a>
</g>
</g>
<!-- Node4 -->
<g id="Node000004" class="node">
<title>Node4</title>
<g id="a_Node000004"><a xlink:href="structGEpoch.html#a8a1ff111386a4211400f4d70f4d91a45" target="_top" xlink:title=" ">
<path fill="#fff0f0" stroke="red" d="M129.67,-93C129.67,-93 6.33,-93 6.33,-93 3.17,-93 0,-89.83 0,-86.67 0,-86.67 0,-80.33 0,-80.33 0,-77.17 3.17,-74 6.33,-74 6.33,-74 129.67,-74 129.67,-74 132.83,-74 136,-77.17 136,-80.33 136,-80.33 136,-86.67 136,-86.67 136,-89.83 132.83,-93 129.67,-93"/>
<text text-anchor="middle" x="68" y="-81" font-family="Helvetica,sans-Serif" font-size="10.00">GEpoch::operator GTime</text>
</a>
</g>
</g>
<!-- Node1&#45;&gt;Node4 -->
<g id="edge3_Node000001_Node000004" class="edge">
<title>Node1&#45;&gt;Node4</title>
<g id="a_edge3_Node000001_Node000004"><a xlink:title=" ">
<path fill="none" stroke="#63b8ff" d="M161.76,-83.5C153.56,-83.5 144.87,-83.5 136.23,-83.5"/>
<polygon fill="#63b8ff" stroke="#63b8ff" points="161.84,-87 171.84,-83.5 161.84,-80 161.84,-87"/>
</a>
</g>
</g>
<!-- Node5 -->
<g id="Node000005" class="node">
<title>Node5</title>
<g id="a_Node000005"><a xlink:href="slrObs_8cpp.html#a38ee0a5d01fed7dee3c29841ca02b54a" target="_top" xlink:title="Extracts observations from a given CRD (.npt) file.">
<path fill="#fff0f0" stroke="red" d="M89.17,-56C89.17,-56 46.83,-56 46.83,-56 43.67,-56 40.5,-52.83 40.5,-49.67 40.5,-49.67 40.5,-43.33 40.5,-43.33 40.5,-40.17 43.67,-37 46.83,-37 46.83,-37 89.17,-37 89.17,-37 92.33,-37 95.5,-40.17 95.5,-43.33 95.5,-43.33 95.5,-49.67 95.5,-49.67 95.5,-52.83 92.33,-56 89.17,-56"/>
<text text-anchor="middle" x="68" y="-44" font-family="Helvetica,sans-Serif" font-size="10.00">readCrd</text>
</a>
</g>
</g>
<!-- Node1&#45;&gt;Node5 -->
<g id="edge4_Node000001_Node000005" class="edge">
<title>Node1&#45;&gt;Node5</title>
<g id="a_edge4_Node000001_Node000005"><a xlink:title=" ">
<path fill="none" stroke="#63b8ff" d="M162.39,-71.36C140.38,-65.5 114.74,-58.67 95.89,-53.66"/>
<polygon fill="#63b8ff" stroke="#63b8ff" points="161.64,-74.78 172.2,-73.97 163.44,-68.02 161.64,-74.78"/>
</a>
</g>
</g>
<!-- Node9 -->
<g id="Node000009" class="node">
<title>Node9</title>
<g id="a_Node000009"><a xlink:href="gTime_8cpp.html#a0080e8d8e9f572cc3a823740536abce4" target="_top" xlink:title=" ">
<path fill="#fff0f0" stroke="red" d="M90.67,-19C90.67,-19 45.33,-19 45.33,-19 42.17,-19 39,-15.83 39,-12.67 39,-12.67 39,-6.33 39,-6.33 39,-3.17 42.17,0 45.33,0 45.33,0 90.67,0 90.67,0 93.83,0 97,-3.17 97,-6.33 97,-6.33 97,-12.67 97,-12.67 97,-15.83 93.83,-19 90.67,-19"/>
<text text-anchor="middle" x="68" y="-7" font-family="Helvetica,sans-Serif" font-size="10.00">str2time</text>
</a>
</g>
</g>
<!-- Node1&#45;&gt;Node9 -->
<g id="edge5_Node000001_Node000009" class="edge">
<title>Node1&#45;&gt;Node9</title>
<g id="a_edge5_Node000001_Node000009"><a xlink:title=" ">
<path fill="none" stroke="#63b8ff" d="M190.37,-66.98C176.53,-54.8 156.27,-38.65 136,-28.5 123.89,-22.44 109.55,-18.04 97.26,-15.02"/>
<polygon fill="#63b8ff" stroke="#63b8ff" points="188.34,-69.86 198.1,-73.96 193.03,-64.66 188.34,-69.86"/>
</a>
</g>
</g>
</g>
</svg>
