<?xml version="1.0" encoding="UTF-8" standalone="no"?>
<!DOCTYPE svg PUBLIC "-//W3C//DTD SVG 1.1//EN"
 "http://www.w3.org/Graphics/SVG/1.1/DTD/svg11.dtd">
<!-- Generated by graphviz version 2.43.0 (0)
 -->
<!-- Title: time2yds Pages: 1 -->
<svg width="392pt" height="226pt"
 viewBox="0.00 0.00 392.00 225.50" xmlns="http://www.w3.org/2000/svg" xmlns:xlink="http://www.w3.org/1999/xlink">
<g id="graph0" class="graph" transform="scale(1 1) rotate(0) translate(4 221.5)">
<title>time2yds</title>
<!-- Node1 -->
<g id="Node000001" class="node">
<title>Node1</title>
<g id="a_Node000001"><a xlink:href="gTime_8cpp.html#a37bc65d232e726cdbc51122a8a8ec00e" target="_top" xlink:title=" ">
<path fill="#fff0f0" stroke="red" stroke-width="2" d="M377.67,-113C377.67,-113 328.33,-113 328.33,-113 325.17,-113 322,-109.83 322,-106.67 322,-106.67 322,-100.33 322,-100.33 322,-97.17 325.17,-94 328.33,-94 328.33,-94 377.67,-94 377.67,-94 380.83,-94 384,-97.17 384,-100.33 384,-100.33 384,-106.67 384,-106.67 384,-109.83 380.83,-113 377.67,-113"/>
<text text-anchor="middle" x="353" y="-101" font-family="Helvetica,sans-Serif" font-size="10.00">time2yds</text>
</a>
</g>
</g>
<!-- Node2 -->
<g id="Node000002" class="node">
<title>Node2</title>
<g id="a_Node000002"><a xlink:href="structOrbitIntegrator.html#a3ed19521cfc21cdaa2d7c8fa4f385499" target="_top" xlink:title=" ">
<path fill="#fff0f0" stroke="red" d="M276,-217.5C276,-217.5 159,-217.5 159,-217.5 154,-217.5 149,-212.5 149,-207.5 149,-207.5 149,-197.5 149,-197.5 149,-192.5 154,-187.5 159,-187.5 159,-187.5 276,-187.5 276,-187.5 281,-187.5 286,-192.5 286,-197.5 286,-197.5 286,-207.5 286,-207.5 286,-212.5 281,-217.5 276,-217.5"/>
<text text-anchor="start" x="157" y="-205.5" font-family="Helvetica,sans-Serif" font-size="10.00">OrbitIntegrator::compute</text>
<text text-anchor="middle" x="217.5" y="-194.5" font-family="Helvetica,sans-Serif" font-size="10.00">Acceleration</text>
</a>
</g>
</g>
<!-- Node1&#45;&gt;Node2 -->
<g id="edge1_Node000001_Node000002" class="edge">
<title>Node1&#45;&gt;Node2</title>
<g id="a_edge1_Node000001_Node000002"><a xlink:title=" ">
<path fill="none" stroke="#63b8ff" d="M340.12,-121.64C328.25,-138.5 308.54,-163.23 286,-178.5 281.06,-181.85 275.59,-184.78 269.98,-187.35"/>
<polygon fill="#63b8ff" stroke="#63b8ff" points="343.14,-123.43 345.89,-113.2 337.36,-119.49 343.14,-123.43"/>
</a>
</g>
</g>
<!-- Node4 -->
<g id="Node000004" class="node">
<title>Node4</title>
<g id="a_Node000004"><a xlink:href="debug_8cpp.html#af275684b11864c00a1be8ec4f9498ef6" target="_top" xlink:title=" ">
<path fill="#fff0f0" stroke="red" d="M246.67,-169C246.67,-169 188.33,-169 188.33,-169 185.17,-169 182,-165.83 182,-162.67 182,-162.67 182,-156.33 182,-156.33 182,-153.17 185.17,-150 188.33,-150 188.33,-150 246.67,-150 246.67,-150 249.83,-150 253,-153.17 253,-156.33 253,-156.33 253,-162.67 253,-162.67 253,-165.83 249.83,-169 246.67,-169"/>
<text text-anchor="middle" x="217.5" y="-157" font-family="Helvetica,sans-Serif" font-size="10.00">debugTime</text>
</a>
</g>
</g>
<!-- Node1&#45;&gt;Node4 -->
<g id="edge2_Node000001_Node000004" class="edge">
<title>Node1&#45;&gt;Node4</title>
<g id="a_edge2_Node000001_Node000004"><a xlink:title=" ">
<path fill="none" stroke="#63b8ff" d="M329.15,-118.64C316.78,-126.32 301,-135.31 286,-141.5 275.57,-145.8 263.82,-149.36 253.07,-152.14"/>
<polygon fill="#63b8ff" stroke="#63b8ff" points="331.32,-121.41 337.88,-113.09 327.56,-115.5 331.32,-121.41"/>
</a>
</g>
</g>
<!-- Node5 -->
<g id="Node000005" class="node">
<title>Node5</title>
<g id="a_Node000005"><a xlink:href="biasSINEXwrite_8cpp.html#a986e047c2dd383adf5526d99e5c418c4" target="_top" xlink:title="Update bias SINEX first line.">
<path fill="#fff0f0" stroke="red" d="M257.17,-132C257.17,-132 177.83,-132 177.83,-132 174.67,-132 171.5,-128.83 171.5,-125.67 171.5,-125.67 171.5,-119.33 171.5,-119.33 171.5,-116.17 174.67,-113 177.83,-113 177.83,-113 257.17,-113 257.17,-113 260.33,-113 263.5,-116.17 263.5,-119.33 263.5,-119.33 263.5,-125.67 263.5,-125.67 263.5,-128.83 260.33,-132 257.17,-132"/>
<text text-anchor="middle" x="217.5" y="-120" font-family="Helvetica,sans-Serif" font-size="10.00">updateFirstLine</text>
</a>
</g>
</g>
<!-- Node1&#45;&gt;Node5 -->
<g id="edge3_Node000001_Node000005" class="edge">
<title>Node1&#45;&gt;Node5</title>
<g id="a_edge3_Node000001_Node000005"><a xlink:title=" ">
<path fill="none" stroke="#63b8ff" d="M311.62,-109.25C296.47,-111.4 279.17,-113.86 263.63,-116.08"/>
<polygon fill="#63b8ff" stroke="#63b8ff" points="312.3,-112.69 321.71,-107.81 311.31,-105.76 312.3,-112.69"/>
</a>
</g>
</g>
<!-- Node11 -->
<g id="Node000011" class="node">
<title>Node11</title>
<g id="a_Node000011"><a xlink:href="biasSINEXwrite_8cpp.html#ab94f8678684d9733ffbe150e860a564a" target="_top" xlink:title="Write bias SINEX head for the first time.">
<path fill="#fff0f0" stroke="red" d="M106.67,-94C106.67,-94 6.33,-94 6.33,-94 3.17,-94 0,-90.83 0,-87.67 0,-87.67 0,-81.33 0,-81.33 0,-78.17 3.17,-75 6.33,-75 6.33,-75 106.67,-75 106.67,-75 109.83,-75 113,-78.17 113,-81.33 113,-81.33 113,-87.67 113,-87.67 113,-90.83 109.83,-94 106.67,-94"/>
<text text-anchor="middle" x="56.5" y="-82" font-family="Helvetica,sans-Serif" font-size="10.00">writeBSINEXHeader</text>
</a>
</g>
</g>
<!-- Node1&#45;&gt;Node11 -->
<g id="edge6_Node000001_Node000011" class="edge">
<title>Node1&#45;&gt;Node11</title>
<g id="a_edge6_Node000001_Node000011"><a xlink:title=" ">
<path fill="none" stroke="#63b8ff" d="M330.53,-88.2C318.15,-80.33 301.92,-71.56 286,-67.5 219.31,-50.5 138.41,-64.24 92.95,-74.94"/>
<polygon fill="#63b8ff" stroke="#63b8ff" points="328.91,-91.33 339.17,-93.95 332.78,-85.5 328.91,-91.33"/>
</a>
</g>
</g>
<!-- Node12 -->
<g id="Node000012" class="node">
<title>Node12</title>
<g id="a_Node000012"><a xlink:href="structUYds.html#ad03c536b4f9cf9347f8039bb095c04d4" target="_top" xlink:title=" ">
<path fill="#fff0f0" stroke="red" d="M247.17,-95C247.17,-95 187.83,-95 187.83,-95 184.67,-95 181.5,-91.83 181.5,-88.67 181.5,-88.67 181.5,-82.33 181.5,-82.33 181.5,-79.17 184.67,-76 187.83,-76 187.83,-76 247.17,-76 247.17,-76 250.33,-76 253.5,-79.17 253.5,-82.33 253.5,-82.33 253.5,-88.67 253.5,-88.67 253.5,-91.83 250.33,-95 247.17,-95"/>
<text text-anchor="middle" x="217.5" y="-83" font-family="Helvetica,sans-Serif" font-size="10.00">UYds::UYds</text>
</a>
</g>
</g>
<!-- Node1&#45;&gt;Node12 -->
<g id="edge5_Node000001_Node000012" class="edge">
<title>Node1&#45;&gt;Node12</title>
<g id="a_edge5_Node000001_Node000012"><a xlink:title=" ">
<path fill="none" stroke="#63b8ff" d="M311.58,-98.05C293.19,-95.57 271.61,-92.66 253.87,-90.27"/>
<polygon fill="#63b8ff" stroke="#63b8ff" points="311.33,-101.55 321.71,-99.42 312.26,-94.61 311.33,-101.55"/>
</a>
</g>
</g>
<!-- Node13 -->
<g id="Node000013" class="node">
<title>Node13</title>
<g id="a_Node000013"><a xlink:href="biasSINEXwrite_8cpp.html#adcabd7eefaca5c01cf305a80294e57a7" target="_top" xlink:title="print bias SINEX data line">
<path fill="#fff0f0" stroke="red" d="M260.17,-19C260.17,-19 174.83,-19 174.83,-19 171.67,-19 168.5,-15.83 168.5,-12.67 168.5,-12.67 168.5,-6.33 168.5,-6.33 168.5,-3.17 171.67,0 174.83,0 174.83,0 260.17,0 260.17,0 263.33,0 266.5,-3.17 266.5,-6.33 266.5,-6.33 266.5,-12.67 266.5,-12.67 266.5,-15.83 263.33,-19 260.17,-19"/>
<text text-anchor="middle" x="217.5" y="-7" font-family="Helvetica,sans-Serif" font-size="10.00">writeBSINEXLine</text>
</a>
</g>
</g>
<!-- Node1&#45;&gt;Node13 -->
<g id="edge7_Node000001_Node000013" class="edge">
<title>Node1&#45;&gt;Node13</title>
<g id="a_edge7_Node000001_Node000013"><a xlink:title=" ">
<path fill="none" stroke="#63b8ff" d="M339.13,-85.66C327,-69.98 307.51,-47.54 286,-33.5 276.73,-27.45 265.75,-22.71 255.36,-19.09"/>
<polygon fill="#63b8ff" stroke="#63b8ff" points="336.58,-88.09 345.38,-93.99 342.18,-83.89 336.58,-88.09"/>
</a>
</g>
</g>
<!-- Node5&#45;&gt;Node11 -->
<g id="edge4_Node000005_Node000011" class="edge">
<title>Node5&#45;&gt;Node11</title>
<g id="a_edge4_Node000005_Node000011"><a xlink:title=" ">
<path fill="none" stroke="#63b8ff" d="M166.42,-110.53C144.14,-105.21 118.27,-99.02 97.33,-94.02"/>
<polygon fill="#63b8ff" stroke="#63b8ff" points="165.84,-113.99 176.38,-112.91 167.47,-107.18 165.84,-113.99"/>
</a>
</g>
</g>
</g>
</svg>
