<?xml version="1.0" encoding="UTF-8" standalone="no"?>
<!DOCTYPE svg PUBLIC "-//W3C//DTD SVG 1.1//EN"
 "http://www.w3.org/Graphics/SVG/1.1/DTD/svg11.dtd">
<!-- Generated by graphviz version 2.43.0 (0)
 -->
<!-- Title: ymdhms2jd Pages: 1 -->
<svg width="255pt" height="38pt"
 viewBox="0.00 0.00 255.00 38.00" xmlns="http://www.w3.org/2000/svg" xmlns:xlink="http://www.w3.org/1999/xlink">
<g id="graph0" class="graph" transform="scale(1 1) rotate(0) translate(4 34)">
<title>ymdhms2jd</title>
<!-- Node1 -->
<g id="Node000001" class="node">
<title>Node1</title>
<g id="a_Node000001"><a xlink:href="gTime_8cpp.html#a282534ac1ef65d4844290ce80bf76fed" target="_top" xlink:title=" ">
<path fill="#fff0f0" stroke="red" stroke-width="2" d="M240.67,-24.5C240.67,-24.5 179.33,-24.5 179.33,-24.5 176.17,-24.5 173,-21.33 173,-18.17 173,-18.17 173,-11.83 173,-11.83 173,-8.67 176.17,-5.5 179.33,-5.5 179.33,-5.5 240.67,-5.5 240.67,-5.5 243.83,-5.5 247,-8.67 247,-11.83 247,-11.83 247,-18.17 247,-18.17 247,-21.33 243.83,-24.5 240.67,-24.5"/>
<text text-anchor="middle" x="210" y="-12.5" font-family="Helvetica,sans-Serif" font-size="10.00">ymdhms2jd</text>
</a>
</g>
</g>
<!-- Node2 -->
<g id="Node000002" class="node">
<title>Node2</title>
<g id="a_Node000002"><a xlink:href="structOrbitIntegrator.html#a3ed19521cfc21cdaa2d7c8fa4f385499" target="_top" xlink:title=" ">
<path fill="#fff0f0" stroke="red" d="M127,-30C127,-30 10,-30 10,-30 5,-30 0,-25 0,-20 0,-20 0,-10 0,-10 0,-5 5,0 10,0 10,0 127,0 127,0 132,0 137,-5 137,-10 137,-10 137,-20 137,-20 137,-25 132,-30 127,-30"/>
<text text-anchor="start" x="8" y="-18" font-family="Helvetica,sans-Serif" font-size="10.00">OrbitIntegrator::compute</text>
<text text-anchor="middle" x="68.5" y="-7" font-family="Helvetica,sans-Serif" font-size="10.00">Acceleration</text>
</a>
</g>
</g>
<!-- Node1&#45;&gt;Node2 -->
<g id="edge1_Node000001_Node000002" class="edge">
<title>Node1&#45;&gt;Node2</title>
<g id="a_edge1_Node000001_Node000002"><a xlink:title=" ">
<path fill="none" stroke="#63b8ff" d="M162.67,-15C154.5,-15 145.85,-15 137.24,-15"/>
<polygon fill="#63b8ff" stroke="#63b8ff" points="162.71,-18.5 172.71,-15 162.71,-11.5 162.71,-18.5"/>
</a>
</g>
</g>
</g>
</svg>
