<?xml version="1.0" encoding="UTF-8" standalone="no"?>
<!DOCTYPE svg PUBLIC "-//W3C//DTD SVG 1.1//EN"
 "http://www.w3.org/Graphics/SVG/1.1/DTD/svg11.dtd">
<!-- Generated by graphviz version 2.43.0 (0)
 -->
<!-- Title: Graphical Class Hierarchy Pages: 1 -->
<svg width="580pt" height="594pt"
 viewBox="0.00 0.00 580.00 594.02" xmlns="http://www.w3.org/2000/svg" xmlns:xlink="http://www.w3.org/1999/xlink">
<g id="graph0" class="graph" transform="scale(1 1) rotate(0) translate(4 590.02)">
<title>Graphical Class Hierarchy</title>
<!-- Node0 -->
<g id="Node000000" class="node">
<title>Node0</title>
<g id="a_Node000000"><a xlink:href="structIcdDecoder.html" target="_top" xlink:title=" ">
<path fill="#fff0f0" stroke="red" d="M302.67,-148C302.67,-148 244.33,-148 244.33,-148 241.17,-148 238,-144.83 238,-141.67 238,-141.67 238,-135.33 238,-135.33 238,-132.17 241.17,-129 244.33,-129 244.33,-129 302.67,-129 302.67,-129 305.83,-129 309,-132.17 309,-135.33 309,-135.33 309,-141.67 309,-141.67 309,-144.83 305.83,-148 302.67,-148"/>
<text text-anchor="middle" x="273.5" y="-136" font-family="Helvetica,sans-Serif" font-size="10.00">IcdDecoder</text>
</a>
</g>
</g>
<!-- Node1 -->
<g id="Node000001" class="node">
<title>Node1</title>
<g id="a_Node000001"><a xlink:href="structUbxDecoder.html" target="_top" xlink:title=" ">
<path fill="#fff0f0" stroke="red" d="M435.67,-148C435.67,-148 371.33,-148 371.33,-148 368.17,-148 365,-144.83 365,-141.67 365,-141.67 365,-135.33 365,-135.33 365,-132.17 368.17,-129 371.33,-129 371.33,-129 435.67,-129 435.67,-129 438.83,-129 442,-132.17 442,-135.33 442,-135.33 442,-141.67 442,-141.67 442,-144.83 438.83,-148 435.67,-148"/>
<text text-anchor="middle" x="403.5" y="-136" font-family="Helvetica,sans-Serif" font-size="10.00">UbxDecoder</text>
</a>
</g>
</g>
<!-- Node0&#45;&gt;Node1 -->
<g id="edge39_Node000000_Node000001" class="edge">
<title>Node0&#45;&gt;Node1</title>
<g id="a_edge39_Node000000_Node000001"><a xlink:title=" ">
<path fill="none" stroke="#63b8ff" d="M319.56,-138.5C334.31,-138.5 350.53,-138.5 364.69,-138.5"/>
<polygon fill="#63b8ff" stroke="#63b8ff" points="319.14,-135 309.14,-138.5 319.14,-142 319.14,-135"/>
</a>
</g>
</g>
<!-- Node2 -->
<g id="Node000002" class="node">
<title>Node2</title>
<g id="a_Node000002"><a xlink:href="structUbxParser.html" target="_top" xlink:title=" ">
<path fill="#fff0f0" stroke="red" d="M556.17,-297C556.17,-297 502.83,-297 502.83,-297 499.67,-297 496.5,-293.83 496.5,-290.67 496.5,-290.67 496.5,-284.33 496.5,-284.33 496.5,-281.17 499.67,-278 502.83,-278 502.83,-278 556.17,-278 556.17,-278 559.33,-278 562.5,-281.17 562.5,-284.33 562.5,-284.33 562.5,-290.67 562.5,-290.67 562.5,-293.83 559.33,-297 556.17,-297"/>
<text text-anchor="middle" x="529.5" y="-285" font-family="Helvetica,sans-Serif" font-size="10.00">UbxParser</text>
</a>
</g>
</g>
<!-- Node1&#45;&gt;Node2 -->
<g id="edge40_Node000001_Node000002" class="edge">
<title>Node1&#45;&gt;Node2</title>
<g id="a_edge40_Node000001_Node000002"><a xlink:title=" ">
<path fill="none" stroke="#63b8ff" d="M445.31,-153.25C447.32,-154.56 449.23,-155.97 451,-157.5 491.63,-192.46 516.72,-254.25 525.24,-277.92"/>
<polygon fill="#63b8ff" stroke="#63b8ff" points="446.56,-149.94 436.11,-148.16 443.17,-156.06 446.56,-149.94"/>
</a>
</g>
</g>
<!-- Node19 -->
<g id="Node000019" class="node">
<title>Node19</title>
<g id="a_Node000019"><a xlink:href="structNetworkStatistics.html" target="_top" xlink:title=" ">
<path fill="#fff0f0" stroke="red" d="M184.67,-93C184.67,-93 94.33,-93 94.33,-93 91.17,-93 88,-89.83 88,-86.67 88,-86.67 88,-80.33 88,-80.33 88,-77.17 91.17,-74 94.33,-74 94.33,-74 184.67,-74 184.67,-74 187.83,-74 191,-77.17 191,-80.33 191,-80.33 191,-86.67 191,-86.67 191,-89.83 187.83,-93 184.67,-93"/>
<text text-anchor="middle" x="139.5" y="-81" font-family="Helvetica,sans-Serif" font-size="10.00">NetworkStatistics</text>
</a>
</g>
</g>
<!-- Node17 -->
<g id="Node000017" class="node">
<title>Node17</title>
<g id="a_Node000017"><a xlink:href="structTcpSocket.html" target="_top" xlink:title=" ">
<path fill="#fff0f0" stroke="red" d="M299.67,-56C299.67,-56 247.33,-56 247.33,-56 244.17,-56 241,-52.83 241,-49.67 241,-49.67 241,-43.33 241,-43.33 241,-40.17 244.17,-37 247.33,-37 247.33,-37 299.67,-37 299.67,-37 302.83,-37 306,-40.17 306,-43.33 306,-43.33 306,-49.67 306,-49.67 306,-52.83 302.83,-56 299.67,-56"/>
<text text-anchor="middle" x="273.5" y="-44" font-family="Helvetica,sans-Serif" font-size="10.00">TcpSocket</text>
</a>
</g>
</g>
<!-- Node19&#45;&gt;Node17 -->
<g id="edge41_Node000019_Node000017" class="edge">
<title>Node19&#45;&gt;Node17</title>
<g id="a_edge41_Node000019_Node000017"><a xlink:title=" ">
<path fill="none" stroke="#63b8ff" d="M184.19,-71.25C202.72,-66.06 223.91,-60.12 240.89,-55.36"/>
<polygon fill="#63b8ff" stroke="#63b8ff" points="183.18,-67.9 174.49,-73.97 185.07,-74.64 183.18,-67.9"/>
</a>
</g>
</g>
<!-- Node15 -->
<g id="Node000015" class="node">
<title>Node15</title>
<g id="a_Node000015"><a xlink:href="structNtripResponder.html" target="_top" xlink:title=" ">
<path fill="#fff0f0" stroke="red" d="M443.17,-74C443.17,-74 363.83,-74 363.83,-74 360.67,-74 357.5,-70.83 357.5,-67.67 357.5,-67.67 357.5,-61.33 357.5,-61.33 357.5,-58.17 360.67,-55 363.83,-55 363.83,-55 443.17,-55 443.17,-55 446.33,-55 449.5,-58.17 449.5,-61.33 449.5,-61.33 449.5,-67.67 449.5,-67.67 449.5,-70.83 446.33,-74 443.17,-74"/>
<text text-anchor="middle" x="403.5" y="-62" font-family="Helvetica,sans-Serif" font-size="10.00">NtripResponder</text>
</a>
</g>
</g>
<!-- Node17&#45;&gt;Node15 -->
<g id="edge42_Node000017_Node000015" class="edge">
<title>Node17&#45;&gt;Node15</title>
<g id="a_edge42_Node000017_Node000015"><a xlink:title=" ">
<path fill="none" stroke="#63b8ff" d="M316.29,-52.38C329.38,-54.22 343.89,-56.26 357.21,-58.13"/>
<polygon fill="#63b8ff" stroke="#63b8ff" points="316.53,-48.88 306.14,-50.95 315.56,-55.81 316.53,-48.88"/>
</a>
</g>
</g>
<!-- Node18 -->
<g id="Node000018" class="node">
<title>Node18</title>
<g id="a_Node000018"><a xlink:href="structSisnetStream.html" target="_top" xlink:title=" ">
<path fill="#fff0f0" stroke="red" d="M438.17,-37C438.17,-37 368.83,-37 368.83,-37 365.67,-37 362.5,-33.83 362.5,-30.67 362.5,-30.67 362.5,-24.33 362.5,-24.33 362.5,-21.17 365.67,-18 368.83,-18 368.83,-18 438.17,-18 438.17,-18 441.33,-18 444.5,-21.17 444.5,-24.33 444.5,-24.33 444.5,-30.67 444.5,-30.67 444.5,-33.83 441.33,-37 438.17,-37"/>
<text text-anchor="middle" x="403.5" y="-25" font-family="Helvetica,sans-Serif" font-size="10.00">SisnetStream</text>
</a>
</g>
</g>
<!-- Node17&#45;&gt;Node18 -->
<g id="edge45_Node000017_Node000018" class="edge">
<title>Node17&#45;&gt;Node18</title>
<g id="a_edge45_Node000017_Node000018"><a xlink:title=" ">
<path fill="none" stroke="#63b8ff" d="M316.45,-40.27C331.09,-38.1 347.5,-35.66 362.03,-33.51"/>
<polygon fill="#63b8ff" stroke="#63b8ff" points="315.52,-36.87 306.14,-41.8 316.55,-43.8 315.52,-36.87"/>
</a>
</g>
</g>
<!-- Node16 -->
<g id="Node000016" class="node">
<title>Node16</title>
<g id="a_Node000016"><a xlink:href="structNtripStream.html" target="_top" xlink:title=" ">
<path fill="#fff0f0" stroke="red" d="M561.17,-111C561.17,-111 497.83,-111 497.83,-111 494.67,-111 491.5,-107.83 491.5,-104.67 491.5,-104.67 491.5,-98.33 491.5,-98.33 491.5,-95.17 494.67,-92 497.83,-92 497.83,-92 561.17,-92 561.17,-92 564.33,-92 567.5,-95.17 567.5,-98.33 567.5,-98.33 567.5,-104.67 567.5,-104.67 567.5,-107.83 564.33,-111 561.17,-111"/>
<text text-anchor="middle" x="529.5" y="-99" font-family="Helvetica,sans-Serif" font-size="10.00">NtripStream</text>
</a>
</g>
</g>
<!-- Node15&#45;&gt;Node16 -->
<g id="edge43_Node000015_Node000016" class="edge">
<title>Node15&#45;&gt;Node16</title>
<g id="a_edge43_Node000015_Node000016"><a xlink:title=" ">
<path fill="none" stroke="#63b8ff" d="M446.27,-76.96C462.58,-81.83 480.99,-87.32 496.24,-91.88"/>
<polygon fill="#63b8ff" stroke="#63b8ff" points="447.02,-73.53 436.43,-74.03 445.01,-80.24 447.02,-73.53"/>
</a>
</g>
</g>
<!-- Node14 -->
<g id="Node000014" class="node">
<title>Node14</title>
<g id="a_Node000014"><a xlink:href="structNtripUploader.html" target="_top" xlink:title=" ">
<path fill="#fff0f0" stroke="red" d="M565.67,-74C565.67,-74 493.33,-74 493.33,-74 490.17,-74 487,-70.83 487,-67.67 487,-67.67 487,-61.33 487,-61.33 487,-58.17 490.17,-55 493.33,-55 493.33,-55 565.67,-55 565.67,-55 568.83,-55 572,-58.17 572,-61.33 572,-61.33 572,-67.67 572,-67.67 572,-70.83 568.83,-74 565.67,-74"/>
<text text-anchor="middle" x="529.5" y="-62" font-family="Helvetica,sans-Serif" font-size="10.00">NtripUploader</text>
</a>
</g>
</g>
<!-- Node15&#45;&gt;Node14 -->
<g id="edge44_Node000015_Node000014" class="edge">
<title>Node15&#45;&gt;Node14</title>
<g id="a_edge44_Node000015_Node000014"><a xlink:title=" ">
<path fill="none" stroke="#63b8ff" d="M459.78,-64.5C468.9,-64.5 478.21,-64.5 486.92,-64.5"/>
<polygon fill="#63b8ff" stroke="#63b8ff" points="459.62,-61 449.62,-64.5 459.62,-68 459.62,-61"/>
</a>
</g>
</g>
<!-- Node6 -->
<g id="Node000006" class="node">
<title>Node6</title>
<g id="a_Node000006"><a xlink:href="structObsLister.html" target="_top" xlink:title=" ">
<path fill="#fff0f0" stroke="red" d="M298.17,-259C298.17,-259 248.83,-259 248.83,-259 245.67,-259 242.5,-255.83 242.5,-252.67 242.5,-252.67 242.5,-246.33 242.5,-246.33 242.5,-243.17 245.67,-240 248.83,-240 248.83,-240 298.17,-240 298.17,-240 301.33,-240 304.5,-243.17 304.5,-246.33 304.5,-246.33 304.5,-252.67 304.5,-252.67 304.5,-255.83 301.33,-259 298.17,-259"/>
<text text-anchor="middle" x="273.5" y="-247" font-family="Helvetica,sans-Serif" font-size="10.00">ObsLister</text>
</a>
</g>
</g>
<!-- Node6&#45;&gt;Node1 -->
<g id="edge54_Node000006_Node000001" class="edge">
<title>Node6&#45;&gt;Node1</title>
<g id="a_edge54_Node000006_Node000001"><a xlink:title=" ">
<path fill="none" stroke="#63b8ff" d="M286.57,-231.48C300.99,-211.13 326.87,-178.16 356,-157.5 361.12,-153.87 367.04,-150.78 372.9,-148.21"/>
<polygon fill="#63b8ff" stroke="#63b8ff" points="283.59,-229.64 280.77,-239.86 289.34,-233.62 283.59,-229.64"/>
</a>
</g>
</g>
<!-- Node5 -->
<g id="Node000005" class="node">
<title>Node5</title>
<g id="a_Node000005"><a xlink:href="structCustomDecoder.html" target="_top" xlink:title=" ">
<path fill="#fff0f0" stroke="red" d="M444.67,-486C444.67,-486 362.33,-486 362.33,-486 359.17,-486 356,-482.83 356,-479.67 356,-479.67 356,-473.33 356,-473.33 356,-470.17 359.17,-467 362.33,-467 362.33,-467 444.67,-467 444.67,-467 447.83,-467 451,-470.17 451,-473.33 451,-473.33 451,-479.67 451,-479.67 451,-482.83 447.83,-486 444.67,-486"/>
<text text-anchor="middle" x="403.5" y="-474" font-family="Helvetica,sans-Serif" font-size="10.00">CustomDecoder</text>
</a>
</g>
</g>
<!-- Node6&#45;&gt;Node5 -->
<g id="edge46_Node000006_Node000005" class="edge">
<title>Node6&#45;&gt;Node5</title>
<g id="a_edge46_Node000006_Node000005"><a xlink:title=" ">
<path fill="none" stroke="#63b8ff" d="M298.46,-265.15C306.44,-271.5 314.64,-279.47 320,-288.5 359.4,-354.92 305.95,-399.68 356,-458.5 358.92,-461.93 362.57,-464.71 366.53,-466.96"/>
<polygon fill="#63b8ff" stroke="#63b8ff" points="300.48,-262.29 290.36,-259.15 296.31,-267.92 300.48,-262.29"/>
</a>
</g>
</g>
<!-- Node7 -->
<g id="Node000007" class="node">
<title>Node7</title>
<g id="a_Node000007"><a xlink:href="structRinexParser.html" target="_top" xlink:title=" ">
<path fill="#fff0f0" stroke="red" d="M434.17,-449C434.17,-449 372.83,-449 372.83,-449 369.67,-449 366.5,-445.83 366.5,-442.67 366.5,-442.67 366.5,-436.33 366.5,-436.33 366.5,-433.17 369.67,-430 372.83,-430 372.83,-430 434.17,-430 434.17,-430 437.33,-430 440.5,-433.17 440.5,-436.33 440.5,-436.33 440.5,-442.67 440.5,-442.67 440.5,-445.83 437.33,-449 434.17,-449"/>
<text text-anchor="middle" x="403.5" y="-437" font-family="Helvetica,sans-Serif" font-size="10.00">RinexParser</text>
</a>
</g>
</g>
<!-- Node6&#45;&gt;Node7 -->
<g id="edge48_Node000006_Node000007" class="edge">
<title>Node6&#45;&gt;Node7</title>
<g id="a_edge48_Node000006_Node000007"><a xlink:title=" ">
<path fill="none" stroke="#63b8ff" d="M297.35,-265.36C305.35,-271.81 313.86,-279.79 320,-288.5 345.77,-325.07 333.58,-343.79 356,-382.5 366.5,-400.62 382.63,-418.92 392.87,-429.73"/>
<polygon fill="#63b8ff" stroke="#63b8ff" points="299.39,-262.52 289.32,-259.24 295.15,-268.09 299.39,-262.52"/>
</a>
</g>
</g>
<!-- Node11 -->
<g id="Node000011" class="node">
<title>Node11</title>
<g id="a_Node000011"><a xlink:href="structRtcmDecoder.html" target="_top" xlink:title=" ">
<path fill="#fff0f0" stroke="red" d="M438.67,-373C438.67,-373 368.33,-373 368.33,-373 365.17,-373 362,-369.83 362,-366.67 362,-366.67 362,-360.33 362,-360.33 362,-357.17 365.17,-354 368.33,-354 368.33,-354 438.67,-354 438.67,-354 441.83,-354 445,-357.17 445,-360.33 445,-360.33 445,-366.67 445,-366.67 445,-369.83 441.83,-373 438.67,-373"/>
<text text-anchor="middle" x="403.5" y="-361" font-family="Helvetica,sans-Serif" font-size="10.00">RtcmDecoder</text>
</a>
</g>
</g>
<!-- Node6&#45;&gt;Node11 -->
<g id="edge49_Node000006_Node000011" class="edge">
<title>Node6&#45;&gt;Node11</title>
<g id="a_edge49_Node000006_Node000011"><a xlink:title=" ">
<path fill="none" stroke="#63b8ff" d="M293.42,-265.51C301.64,-272.51 311.34,-280.86 320,-288.5 346.27,-311.69 376.63,-339.58 392.17,-353.93"/>
<polygon fill="#63b8ff" stroke="#63b8ff" points="295.68,-262.83 285.8,-259.03 291.15,-268.17 295.68,-262.83"/>
</a>
</g>
</g>
<!-- Node23 -->
<g id="Node000023" class="node">
<title>Node23</title>
<g id="a_Node000023"><a xlink:href="structSinexParser.html" target="_top" xlink:title=" ">
<path fill="#fff0f0" stroke="red" d="M434.17,-259C434.17,-259 372.83,-259 372.83,-259 369.67,-259 366.5,-255.83 366.5,-252.67 366.5,-252.67 366.5,-246.33 366.5,-246.33 366.5,-243.17 369.67,-240 372.83,-240 372.83,-240 434.17,-240 434.17,-240 437.33,-240 440.5,-243.17 440.5,-246.33 440.5,-246.33 440.5,-252.67 440.5,-252.67 440.5,-255.83 437.33,-259 434.17,-259"/>
<text text-anchor="middle" x="403.5" y="-247" font-family="Helvetica,sans-Serif" font-size="10.00">SinexParser</text>
</a>
</g>
</g>
<!-- Node6&#45;&gt;Node23 -->
<g id="edge51_Node000006_Node000023" class="edge">
<title>Node6&#45;&gt;Node23</title>
<g id="a_edge51_Node000006_Node000023"><a xlink:title=" ">
<path fill="none" stroke="#63b8ff" d="M314.93,-249.5C331.4,-249.5 350.29,-249.5 366.29,-249.5"/>
<polygon fill="#63b8ff" stroke="#63b8ff" points="314.51,-246 304.51,-249.5 314.51,-253 314.51,-246"/>
</a>
</g>
</g>
<!-- Node24 -->
<g id="Node000024" class="node">
<title>Node24</title>
<g id="a_Node000024"><a xlink:href="structSlrParser.html" target="_top" xlink:title="Interface for slr streams.">
<path fill="#fff0f0" stroke="red" d="M426.67,-222C426.67,-222 380.33,-222 380.33,-222 377.17,-222 374,-218.83 374,-215.67 374,-215.67 374,-209.33 374,-209.33 374,-206.17 377.17,-203 380.33,-203 380.33,-203 426.67,-203 426.67,-203 429.83,-203 433,-206.17 433,-209.33 433,-209.33 433,-215.67 433,-215.67 433,-218.83 429.83,-222 426.67,-222"/>
<text text-anchor="middle" x="403.5" y="-210" font-family="Helvetica,sans-Serif" font-size="10.00">SlrParser</text>
</a>
</g>
</g>
<!-- Node6&#45;&gt;Node24 -->
<g id="edge52_Node000006_Node000024" class="edge">
<title>Node6&#45;&gt;Node24</title>
<g id="a_edge52_Node000006_Node000024"><a xlink:title=" ">
<path fill="none" stroke="#63b8ff" d="M314.26,-238.01C333.61,-232.41 356.41,-225.82 374,-220.74"/>
<polygon fill="#63b8ff" stroke="#63b8ff" points="313.15,-234.69 304.51,-240.83 315.09,-241.41 313.15,-234.69"/>
</a>
</g>
</g>
<!-- Node25 -->
<g id="Node000025" class="node">
<title>Node25</title>
<g id="a_Node000025"><a xlink:href="structSp3Parser.html" target="_top" xlink:title=" ">
<path fill="#fff0f0" stroke="red" d="M429.67,-185C429.67,-185 377.33,-185 377.33,-185 374.17,-185 371,-181.83 371,-178.67 371,-178.67 371,-172.33 371,-172.33 371,-169.17 374.17,-166 377.33,-166 377.33,-166 429.67,-166 429.67,-166 432.83,-166 436,-169.17 436,-172.33 436,-172.33 436,-178.67 436,-178.67 436,-181.83 432.83,-185 429.67,-185"/>
<text text-anchor="middle" x="403.5" y="-173" font-family="Helvetica,sans-Serif" font-size="10.00">Sp3Parser</text>
</a>
</g>
</g>
<!-- Node6&#45;&gt;Node25 -->
<g id="edge53_Node000006_Node000025" class="edge">
<title>Node6&#45;&gt;Node25</title>
<g id="a_edge53_Node000006_Node000025"><a xlink:title=" ">
<path fill="none" stroke="#63b8ff" d="M295.11,-233.85C311.15,-222.1 334.28,-206.11 356,-194.5 362.46,-191.05 369.69,-187.81 376.48,-185.03"/>
<polygon fill="#63b8ff" stroke="#63b8ff" points="292.92,-231.12 286.97,-239.89 297.09,-236.74 292.92,-231.12"/>
</a>
</g>
</g>
<!-- Node4 -->
<g id="Node000004" class="node">
<title>Node4</title>
<g id="a_Node000004"><a xlink:href="structCustomParser.html" target="_top" xlink:title=" ">
<path fill="#fff0f0" stroke="red" d="M565.17,-524C565.17,-524 493.83,-524 493.83,-524 490.67,-524 487.5,-520.83 487.5,-517.67 487.5,-517.67 487.5,-511.33 487.5,-511.33 487.5,-508.17 490.67,-505 493.83,-505 493.83,-505 565.17,-505 565.17,-505 568.33,-505 571.5,-508.17 571.5,-511.33 571.5,-511.33 571.5,-517.67 571.5,-517.67 571.5,-520.83 568.33,-524 565.17,-524"/>
<text text-anchor="middle" x="529.5" y="-512" font-family="Helvetica,sans-Serif" font-size="10.00">CustomParser</text>
</a>
</g>
</g>
<!-- Node5&#45;&gt;Node4 -->
<g id="edge47_Node000005_Node000004" class="edge">
<title>Node5&#45;&gt;Node4</title>
<g id="a_edge47_Node000005_Node000004"><a xlink:title=" ">
<path fill="none" stroke="#63b8ff" d="M445.4,-489.04C462.27,-494.2 481.51,-500.1 497.22,-504.91"/>
<polygon fill="#63b8ff" stroke="#63b8ff" points="446.38,-485.67 435.79,-486.09 444.33,-492.37 446.38,-485.67"/>
</a>
</g>
</g>
<!-- Node10 -->
<g id="Node000010" class="node">
<title>Node10</title>
<g id="a_Node000010"><a xlink:href="structRtcmParser.html" target="_top" xlink:title=" ">
<path fill="#fff0f0" stroke="red" d="M559.17,-392C559.17,-392 499.83,-392 499.83,-392 496.67,-392 493.5,-388.83 493.5,-385.67 493.5,-385.67 493.5,-379.33 493.5,-379.33 493.5,-376.17 496.67,-373 499.83,-373 499.83,-373 559.17,-373 559.17,-373 562.33,-373 565.5,-376.17 565.5,-379.33 565.5,-379.33 565.5,-385.67 565.5,-385.67 565.5,-388.83 562.33,-392 559.17,-392"/>
<text text-anchor="middle" x="529.5" y="-380" font-family="Helvetica,sans-Serif" font-size="10.00">RtcmParser</text>
</a>
</g>
</g>
<!-- Node11&#45;&gt;Node10 -->
<g id="edge50_Node000011_Node000010" class="edge">
<title>Node11&#45;&gt;Node10</title>
<g id="a_edge50_Node000011_Node000010"><a xlink:title=" ">
<path fill="none" stroke="#63b8ff" d="M455.16,-371.26C467.94,-373.22 481.39,-375.28 493.23,-377.1"/>
<polygon fill="#63b8ff" stroke="#63b8ff" points="455.52,-367.78 445.1,-369.72 454.46,-374.7 455.52,-367.78"/>
</a>
</g>
</g>
<!-- Node3 -->
<g id="Node000003" class="node">
<title>Node3</title>
<g id="a_Node000003"><a xlink:href="structPacketStatistics.html" target="_top" xlink:title=" ">
<path fill="#fff0f0" stroke="red" d="M313.67,-373C313.67,-373 233.33,-373 233.33,-373 230.17,-373 227,-369.83 227,-366.67 227,-366.67 227,-360.33 227,-360.33 227,-357.17 230.17,-354 233.33,-354 233.33,-354 313.67,-354 313.67,-354 316.83,-354 320,-357.17 320,-360.33 320,-360.33 320,-366.67 320,-366.67 320,-369.83 316.83,-373 313.67,-373"/>
<text text-anchor="middle" x="273.5" y="-361" font-family="Helvetica,sans-Serif" font-size="10.00">PacketStatistics</text>
</a>
</g>
</g>
<!-- Node3&#45;&gt;Node2 -->
<g id="edge57_Node000003_Node000002" class="edge">
<title>Node3&#45;&gt;Node2</title>
<g id="a_edge57_Node000003_Node000002"><a xlink:title=" ">
<path fill="none" stroke="#63b8ff" d="M316.05,-351.07C366.57,-335.95 450.76,-310.76 496.52,-297.07"/>
<polygon fill="#63b8ff" stroke="#63b8ff" points="314.99,-347.73 306.41,-353.95 317,-354.44 314.99,-347.73"/>
</a>
</g>
</g>
<!-- Node3&#45;&gt;Node4 -->
<g id="edge55_Node000003_Node000004" class="edge">
<title>Node3&#45;&gt;Node4</title>
<g id="a_edge55_Node000003_Node000004"><a xlink:title=" ">
<path fill="none" stroke="#63b8ff" d="M275.33,-383.25C278.33,-426.24 292.18,-527.96 356,-571.5 390.88,-595.29 410.88,-584.66 451,-571.5 479.57,-562.13 506.28,-537.75 519.62,-524.11"/>
<polygon fill="#63b8ff" stroke="#63b8ff" points="278.82,-382.99 274.76,-373.21 271.83,-383.39 278.82,-382.99"/>
</a>
</g>
</g>
<!-- Node3&#45;&gt;Node11 -->
<g id="edge56_Node000003_Node000011" class="edge">
<title>Node3&#45;&gt;Node11</title>
<g id="a_edge56_Node000003_Node000011"><a xlink:title=" ">
<path fill="none" stroke="#63b8ff" d="M330.64,-363.5C341.07,-363.5 351.78,-363.5 361.65,-363.5"/>
<polygon fill="#63b8ff" stroke="#63b8ff" points="330.35,-360 320.35,-363.5 330.35,-367 330.35,-360"/>
</a>
</g>
</g>
<!-- Node8 -->
<g id="Node000008" class="node">
<title>Node8</title>
<g id="a_Node000008"><a xlink:href="structParser.html" target="_top" xlink:title=" ">
<path fill="#fff0f0" stroke="red" d="M290.67,-316C290.67,-316 256.33,-316 256.33,-316 253.17,-316 250,-312.83 250,-309.67 250,-309.67 250,-303.33 250,-303.33 250,-300.17 253.17,-297 256.33,-297 256.33,-297 290.67,-297 290.67,-297 293.83,-297 297,-300.17 297,-303.33 297,-303.33 297,-309.67 297,-309.67 297,-312.83 293.83,-316 290.67,-316"/>
<text text-anchor="middle" x="273.5" y="-304" font-family="Helvetica,sans-Serif" font-size="10.00">Parser</text>
</a>
</g>
</g>
<!-- Node8&#45;&gt;Node2 -->
<g id="edge65_Node000008_Node000002" class="edge">
<title>Node8&#45;&gt;Node2</title>
<g id="a_edge65_Node000008_Node000002"><a xlink:title=" ">
<path fill="none" stroke="#63b8ff" d="M307.06,-304.06C355.88,-300.41 447.5,-293.56 496.18,-289.92"/>
<polygon fill="#63b8ff" stroke="#63b8ff" points="306.75,-300.58 297.04,-304.81 307.27,-307.56 306.75,-300.58"/>
</a>
</g>
</g>
<!-- Node8&#45;&gt;Node4 -->
<g id="edge58_Node000008_Node000004" class="edge">
<title>Node8&#45;&gt;Node4</title>
<g id="a_edge58_Node000008_Node000004"><a xlink:title=" ">
<path fill="none" stroke="#63b8ff" d="M298.33,-322.23C306.29,-328.58 314.52,-336.54 320,-345.5 355.77,-403.99 304.57,-450.17 356,-495.5 391.6,-526.88 448.69,-526.84 487.35,-522.16"/>
<polygon fill="#63b8ff" stroke="#63b8ff" points="300.36,-319.38 290.25,-316.22 296.18,-325 300.36,-319.38"/>
</a>
</g>
</g>
<!-- Node8&#45;&gt;Node7 -->
<g id="edge60_Node000008_Node000007" class="edge">
<title>Node8&#45;&gt;Node7</title>
<g id="a_edge60_Node000008_Node000007"><a xlink:title=" ">
<path fill="none" stroke="#63b8ff" d="M296.5,-322.46C304.54,-329 313.3,-337.02 320,-345.5 341.69,-372.95 331.28,-390.74 356,-415.5 361.91,-421.41 369.57,-426.18 376.97,-429.85"/>
<polygon fill="#63b8ff" stroke="#63b8ff" points="298.54,-319.61 288.5,-316.23 294.24,-325.13 298.54,-319.61"/>
</a>
</g>
</g>
<!-- Node8&#45;&gt;Node10 -->
<g id="edge61_Node000008_Node000010" class="edge">
<title>Node8&#45;&gt;Node10</title>
<g id="a_edge61_Node000008_Node000010"><a xlink:title=" ">
<path fill="none" stroke="#63b8ff" d="M294.24,-322.75C302.37,-329.61 311.78,-337.78 320,-345.5 336.73,-361.2 334.86,-373.57 356,-382.5 400.42,-401.26 457.19,-396.42 493.22,-390.25"/>
<polygon fill="#63b8ff" stroke="#63b8ff" points="296.27,-319.88 286.35,-316.16 291.78,-325.25 296.27,-319.88"/>
</a>
</g>
</g>
<!-- Node8&#45;&gt;Node23 -->
<g id="edge62_Node000008_Node000023" class="edge">
<title>Node8&#45;&gt;Node23</title>
<g id="a_edge62_Node000008_Node000023"><a xlink:title=" ">
<path fill="none" stroke="#63b8ff" d="M305.08,-292.88C328.5,-282.45 360.21,-268.33 381.01,-259.07"/>
<polygon fill="#63b8ff" stroke="#63b8ff" points="303.64,-289.69 295.92,-296.96 306.48,-296.09 303.64,-289.69"/>
</a>
</g>
</g>
<!-- Node8&#45;&gt;Node24 -->
<g id="edge63_Node000008_Node000024" class="edge">
<title>Node8&#45;&gt;Node24</title>
<g id="a_edge63_Node000008_Node000024"><a xlink:title=" ">
<path fill="none" stroke="#63b8ff" d="M294.62,-290.45C302.67,-283.83 311.93,-275.98 320,-268.5 336.83,-252.9 336.98,-244.33 356,-231.5 361.35,-227.89 367.49,-224.78 373.52,-222.18"/>
<polygon fill="#63b8ff" stroke="#63b8ff" points="292.32,-287.81 286.77,-296.83 296.73,-293.24 292.32,-287.81"/>
</a>
</g>
</g>
<!-- Node8&#45;&gt;Node25 -->
<g id="edge64_Node000008_Node000025" class="edge">
<title>Node8&#45;&gt;Node25</title>
<g id="a_edge64_Node000008_Node000025"><a xlink:title=" ">
<path fill="none" stroke="#63b8ff" d="M297.22,-290.65C305.1,-284.38 313.57,-276.71 320,-268.5 342.54,-239.69 329.31,-219.51 356,-194.5 360.2,-190.56 365.32,-187.39 370.62,-184.86"/>
<polygon fill="#63b8ff" stroke="#63b8ff" points="294.88,-288.03 289.01,-296.85 299.1,-293.61 294.88,-288.03"/>
</a>
</g>
</g>
<!-- Node9 -->
<g id="Node000009" class="node">
<title>Node9</title>
<g id="a_Node000009"><a xlink:href="structDS2DCParser.html" target="_top" xlink:title=" ">
<path fill="#fff0f0" stroke="red" d="M437.17,-562C437.17,-562 369.83,-562 369.83,-562 366.67,-562 363.5,-558.83 363.5,-555.67 363.5,-555.67 363.5,-549.33 363.5,-549.33 363.5,-546.17 366.67,-543 369.83,-543 369.83,-543 437.17,-543 437.17,-543 440.33,-543 443.5,-546.17 443.5,-549.33 443.5,-549.33 443.5,-555.67 443.5,-555.67 443.5,-558.83 440.33,-562 437.17,-562"/>
<text text-anchor="middle" x="403.5" y="-550" font-family="Helvetica,sans-Serif" font-size="10.00">DS2DCParser</text>
</a>
</g>
</g>
<!-- Node8&#45;&gt;Node9 -->
<g id="edge59_Node000008_Node000009" class="edge">
<title>Node8&#45;&gt;Node9</title>
<g id="a_edge59_Node000008_Node000009"><a xlink:title=" ">
<path fill="none" stroke="#63b8ff" d="M298.53,-322.11C306.51,-328.45 314.71,-336.43 320,-345.5 361.78,-417.1 306.21,-462.23 356,-528.5 360.58,-534.6 367.17,-539.28 373.94,-542.82"/>
<polygon fill="#63b8ff" stroke="#63b8ff" points="300.54,-319.24 290.42,-316.12 296.38,-324.87 300.54,-319.24"/>
</a>
</g>
</g>
<!-- Node12 -->
<g id="Node000012" class="node">
<title>Node12</title>
<g id="a_Node000012"><a xlink:href="structRtcmTrace.html" target="_top" xlink:title=" ">
<path fill="#fff0f0" stroke="red" d="M301.17,-111C301.17,-111 245.83,-111 245.83,-111 242.67,-111 239.5,-107.83 239.5,-104.67 239.5,-104.67 239.5,-98.33 239.5,-98.33 239.5,-95.17 242.67,-92 245.83,-92 245.83,-92 301.17,-92 301.17,-92 304.33,-92 307.5,-95.17 307.5,-98.33 307.5,-98.33 307.5,-104.67 307.5,-104.67 307.5,-107.83 304.33,-111 301.17,-111"/>
<text text-anchor="middle" x="273.5" y="-99" font-family="Helvetica,sans-Serif" font-size="10.00">RtcmTrace</text>
</a>
</g>
</g>
<!-- Node12&#45;&gt;Node11 -->
<g id="edge66_Node000012_Node000011" class="edge">
<title>Node12&#45;&gt;Node11</title>
<g id="a_edge66_Node000012_Node000011"><a xlink:title=" ">
<path fill="none" stroke="#63b8ff" d="M316.25,-116.75C317.6,-117.91 318.85,-119.16 320,-120.5 363.97,-171.97 332.98,-204.84 356,-268.5 367.74,-300.97 387.31,-336.98 396.88,-353.82"/>
<polygon fill="#63b8ff" stroke="#63b8ff" points="318.04,-113.73 307.81,-110.99 314.1,-119.51 318.04,-113.73"/>
</a>
</g>
</g>
<!-- Node13 -->
<g id="Node000013" class="node">
<title>Node13</title>
<g id="a_Node000013"><a xlink:href="structRtcmEncoder.html" target="_top" xlink:title=" ">
<path fill="#fff0f0" stroke="red" d="M437.67,-111C437.67,-111 369.33,-111 369.33,-111 366.17,-111 363,-107.83 363,-104.67 363,-104.67 363,-98.33 363,-98.33 363,-95.17 366.17,-92 369.33,-92 369.33,-92 437.67,-92 437.67,-92 440.83,-92 444,-95.17 444,-98.33 444,-98.33 444,-104.67 444,-104.67 444,-107.83 440.83,-111 437.67,-111"/>
<text text-anchor="middle" x="403.5" y="-99" font-family="Helvetica,sans-Serif" font-size="10.00">RtcmEncoder</text>
</a>
</g>
</g>
<!-- Node12&#45;&gt;Node13 -->
<g id="edge67_Node000012_Node000013" class="edge">
<title>Node12&#45;&gt;Node13</title>
<g id="a_edge67_Node000012_Node000013"><a xlink:title=" ">
<path fill="none" stroke="#63b8ff" d="M318.07,-101.5C332.63,-101.5 348.77,-101.5 363,-101.5"/>
<polygon fill="#63b8ff" stroke="#63b8ff" points="317.8,-98 307.8,-101.5 317.8,-105 317.8,-98"/>
</a>
</g>
</g>
<!-- Node13&#45;&gt;Node14 -->
<g id="edge68_Node000013_Node000014" class="edge">
<title>Node13&#45;&gt;Node14</title>
<g id="a_edge68_Node000013_Node000014"><a xlink:title=" ">
<path fill="none" stroke="#63b8ff" d="M446.27,-89.04C462.58,-84.17 480.99,-78.68 496.24,-74.12"/>
<polygon fill="#63b8ff" stroke="#63b8ff" points="445.01,-85.76 436.43,-91.97 447.02,-92.47 445.01,-85.76"/>
</a>
</g>
</g>
<!-- Node21 -->
<g id="Node000021" class="node">
<title>Node21</title>
<g id="a_Node000021"><a xlink:href="structStream.html" target="_top" xlink:title=" ">
<path fill="#fff0f0" stroke="red" d="M45.67,-37C45.67,-37 6.33,-37 6.33,-37 3.17,-37 0,-33.83 0,-30.67 0,-30.67 0,-24.33 0,-24.33 0,-21.17 3.17,-18 6.33,-18 6.33,-18 45.67,-18 45.67,-18 48.83,-18 52,-21.17 52,-24.33 52,-24.33 52,-30.67 52,-30.67 52,-33.83 48.83,-37 45.67,-37"/>
<text text-anchor="middle" x="26" y="-25" font-family="Helvetica,sans-Serif" font-size="10.00">Stream</text>
</a>
</g>
</g>
<!-- Node22 -->
<g id="Node000022" class="node">
<title>Node22</title>
<g id="a_Node000022"><a xlink:href="structFileStream.html" target="_top" xlink:title=" ">
<path fill="#fff0f0" stroke="red" d="M167.67,-56C167.67,-56 111.33,-56 111.33,-56 108.17,-56 105,-52.83 105,-49.67 105,-49.67 105,-43.33 105,-43.33 105,-40.17 108.17,-37 111.33,-37 111.33,-37 167.67,-37 167.67,-37 170.83,-37 174,-40.17 174,-43.33 174,-43.33 174,-49.67 174,-49.67 174,-52.83 170.83,-56 167.67,-56"/>
<text text-anchor="middle" x="139.5" y="-44" font-family="Helvetica,sans-Serif" font-size="10.00">FileStream</text>
</a>
</g>
</g>
<!-- Node21&#45;&gt;Node22 -->
<g id="edge69_Node000021_Node000022" class="edge">
<title>Node21&#45;&gt;Node22</title>
<g id="a_edge69_Node000021_Node000022"><a xlink:title=" ">
<path fill="none" stroke="#63b8ff" d="M62,-33.46C75.62,-35.79 91.17,-38.44 104.68,-40.74"/>
<polygon fill="#63b8ff" stroke="#63b8ff" points="62.47,-29.99 52.02,-31.76 61.29,-36.89 62.47,-29.99"/>
</a>
</g>
</g>
<!-- Node20 -->
<g id="Node000020" class="node">
<title>Node20</title>
<g id="a_Node000020"><a xlink:href="structSerialStream.html" target="_top" xlink:title=" ">
<path fill="#fff0f0" stroke="red" d="M173.17,-19C173.17,-19 105.83,-19 105.83,-19 102.67,-19 99.5,-15.83 99.5,-12.67 99.5,-12.67 99.5,-6.33 99.5,-6.33 99.5,-3.17 102.67,0 105.83,0 105.83,0 173.17,0 173.17,0 176.33,0 179.5,-3.17 179.5,-6.33 179.5,-6.33 179.5,-12.67 179.5,-12.67 179.5,-15.83 176.33,-19 173.17,-19"/>
<text text-anchor="middle" x="139.5" y="-7" font-family="Helvetica,sans-Serif" font-size="10.00">SerialStream</text>
</a>
</g>
</g>
<!-- Node21&#45;&gt;Node20 -->
<g id="edge70_Node000021_Node000020" class="edge">
<title>Node21&#45;&gt;Node20</title>
<g id="a_edge70_Node000021_Node000020"><a xlink:title=" ">
<path fill="none" stroke="#63b8ff" d="M61.95,-21.86C73.75,-19.95 87,-17.81 99.12,-15.86"/>
<polygon fill="#63b8ff" stroke="#63b8ff" points="61.34,-18.41 52.02,-23.46 62.45,-25.32 61.34,-18.41"/>
</a>
</g>
</g>
<!-- Node20&#45;&gt;Node17 -->
<g id="edge71_Node000020_Node000017" class="edge">
<title>Node20&#45;&gt;Node17</title>
<g id="a_edge71_Node000020_Node000017"><a xlink:title=" ">
<path fill="none" stroke="#63b8ff" d="M184.19,-21.75C202.72,-26.94 223.91,-32.88 240.89,-37.64"/>
<polygon fill="#63b8ff" stroke="#63b8ff" points="185.07,-18.36 174.49,-19.03 183.18,-25.1 185.07,-18.36"/>
</a>
</g>
</g>
</g>
</svg>
