<?xml version="1.0" encoding="UTF-8" standalone="no"?>
<!DOCTYPE svg PUBLIC "-//W3C//DTD SVG 1.1//EN"
 "http://www.w3.org/Graphics/SVG/1.1/DTD/svg11.dtd">
<!-- Generated by graphviz version 2.43.0 (0)
 -->
<!-- Title: perEpochPostProcessingAndOutputs Pages: 1 -->
<svg width="616pt" height="1388pt"
 viewBox="0.00 0.00 616.00 1387.91" xmlns="http://www.w3.org/2000/svg" xmlns:xlink="http://www.w3.org/1999/xlink">
<g id="graph0" class="graph" transform="scale(1 1) rotate(0) translate(4 1383.91)">
<title>perEpochPostProcessingAndOutputs</title>
<!-- Node1 -->
<g id="Node000001" class="node">
<title>Node1</title>
<g id="a_Node000001"><a xlink:href="outputs_8cpp.html#abf277b1afcff7cb07fa2857b4a373100" target="_top" xlink:title=" ">
<path fill="#fff0f0" stroke="red" stroke-width="2" d="M144,-766.5C144,-766.5 10,-766.5 10,-766.5 5,-766.5 0,-761.5 0,-756.5 0,-756.5 0,-746.5 0,-746.5 0,-741.5 5,-736.5 10,-736.5 10,-736.5 144,-736.5 144,-736.5 149,-736.5 154,-741.5 154,-746.5 154,-746.5 154,-756.5 154,-756.5 154,-761.5 149,-766.5 144,-766.5"/>
<text text-anchor="start" x="8" y="-754.5" font-family="Helvetica,sans-Serif" font-size="10.00">perEpochPostProcessingAnd</text>
<text text-anchor="middle" x="77" y="-743.5" font-family="Helvetica,sans-Serif" font-size="10.00">Outputs</text>
</a>
</g>
</g>
<!-- Node2 -->
<g id="Node000002" class="node">
<title>Node2</title>
<g id="a_Node000002"><a xlink:href="structInteractiveTerminal.html#a1673a1bc7c18472e291aa3b1ed1bb1b7" target="_top" xlink:title=" ">
<path fill="#fff0f0" stroke="red" d="M464.5,-981.5C464.5,-981.5 373.5,-981.5 373.5,-981.5 368.5,-981.5 363.5,-976.5 363.5,-971.5 363.5,-971.5 363.5,-961.5 363.5,-961.5 363.5,-956.5 368.5,-951.5 373.5,-951.5 373.5,-951.5 464.5,-951.5 464.5,-951.5 469.5,-951.5 474.5,-956.5 474.5,-961.5 474.5,-961.5 474.5,-971.5 474.5,-971.5 474.5,-976.5 469.5,-981.5 464.5,-981.5"/>
<text text-anchor="start" x="371.5" y="-969.5" font-family="Helvetica,sans-Serif" font-size="10.00">InteractiveTerminal</text>
<text text-anchor="middle" x="419" y="-958.5" font-family="Helvetica,sans-Serif" font-size="10.00">::setMode</text>
</a>
</g>
</g>
<!-- Node1&#45;&gt;Node2 -->
<g id="edge1_Node000001_Node000002" class="edge">
<title>Node1&#45;&gt;Node2</title>
<g id="a_edge1_Node000001_Node000002"><a xlink:title=" ">
<path fill="none" stroke="#63b8ff" d="M78.8,-766.71C83.27,-845.53 108.05,-1206.29 190,-1272.5 235.64,-1309.37 274.71,-1307.22 322,-1272.5 368.55,-1238.32 402.7,-1058.59 413.97,-991.65"/>
<polygon fill="#63b8ff" stroke="#63b8ff" points="417.46,-992 415.64,-981.57 410.56,-990.86 417.46,-992"/>
</a>
</g>
</g>
<!-- Node4 -->
<g id="Node000004" class="node">
<title>Node4</title>
<g id="a_Node000004"><a xlink:href="structGTime.html#aaa8a379d11cd6c040a6bbe680c0e913e" target="_top" xlink:title="Uninitialised time for comparisons.">
<path fill="#fff0f0" stroke="red" d="M601.67,-872C601.67,-872 522.33,-872 522.33,-872 519.17,-872 516,-868.83 516,-865.67 516,-865.67 516,-859.33 516,-859.33 516,-856.17 519.17,-853 522.33,-853 522.33,-853 601.67,-853 601.67,-853 604.83,-853 608,-856.17 608,-859.33 608,-859.33 608,-865.67 608,-865.67 608,-868.83 604.83,-872 601.67,-872"/>
<text text-anchor="middle" x="562" y="-860" font-family="Helvetica,sans-Serif" font-size="10.00">GTime::noTime</text>
</a>
</g>
</g>
<!-- Node1&#45;&gt;Node4 -->
<g id="edge3_Node000001_Node000004" class="edge">
<title>Node1&#45;&gt;Node4</title>
<g id="a_edge3_Node000001_Node000004"><a xlink:title=" ">
<path fill="none" stroke="#63b8ff" d="M78.56,-766.54C81.93,-848.68 102.52,-1241.93 190,-1315.5 288.65,-1398.47 381.22,-1402.31 480,-1319.5 548.27,-1262.27 559.04,-962.94 560.7,-882.45"/>
<polygon fill="#63b8ff" stroke="#63b8ff" points="564.2,-882.28 560.89,-872.21 557.21,-882.15 564.2,-882.28"/>
</a>
</g>
</g>
<!-- Node6 -->
<g id="Node000006" class="node">
<title>Node6</title>
<g id="a_Node000006"><a xlink:href="structGTime.html#a72505f23b2252f690f124c2eaf026f91" target="_top" xlink:title=" ">
<path fill="#fff0f0" stroke="red" d="M463.17,-1310C463.17,-1310 374.83,-1310 374.83,-1310 371.67,-1310 368.5,-1306.83 368.5,-1303.67 368.5,-1303.67 368.5,-1297.33 368.5,-1297.33 368.5,-1294.17 371.67,-1291 374.83,-1291 374.83,-1291 463.17,-1291 463.17,-1291 466.33,-1291 469.5,-1294.17 469.5,-1297.33 469.5,-1297.33 469.5,-1303.67 469.5,-1303.67 469.5,-1306.83 466.33,-1310 463.17,-1310"/>
<text text-anchor="middle" x="419" y="-1298" font-family="Helvetica,sans-Serif" font-size="10.00">GTime::floorTime</text>
</a>
</g>
</g>
<!-- Node1&#45;&gt;Node6 -->
<g id="edge4_Node000001_Node000006" class="edge">
<title>Node1&#45;&gt;Node6</title>
<g id="a_edge4_Node000001_Node000006"><a xlink:title=" ">
<path fill="none" stroke="#63b8ff" d="M79.15,-766.59C84.88,-844.03 113.18,-1193.27 190,-1263.5 234.75,-1304.41 306.75,-1306.6 357.86,-1303.53"/>
<polygon fill="#63b8ff" stroke="#63b8ff" points="358.38,-1307 368.11,-1302.82 357.9,-1300.01 358.38,-1307"/>
</a>
</g>
</g>
<!-- Node1&#45;&gt;Node6 -->
<g id="edge5_Node000001_Node000006" class="edge">
<title>Node1&#45;&gt;Node6</title>
<g id="a_edge5_Node000001_Node000006"><a xlink:title=" ">
<path fill="none" stroke="#63b8ff" d="M78.79,-766.52C83.58,-845.58 111.39,-1209.63 190,-1281.5 244.02,-1330.89 337.77,-1323.85 386.52,-1312.6"/>
<polygon fill="#63b8ff" stroke="#63b8ff" points="387.66,-1315.92 396.49,-1310.07 385.94,-1309.13 387.66,-1315.92"/>
</a>
</g>
</g>
<!-- Node7 -->
<g id="Node000007" class="node">
<title>Node7</title>
<g id="a_Node000007"><a xlink:href="algebraTrace_8cpp.html#abda0fa310f025963b9aa17a48ee8a643" target="_top" xlink:title=" ">
<path fill="#fff0f0" stroke="red" d="M315.67,-1263C315.67,-1263 196.33,-1263 196.33,-1263 193.17,-1263 190,-1259.83 190,-1256.67 190,-1256.67 190,-1250.33 190,-1250.33 190,-1247.17 193.17,-1244 196.33,-1244 196.33,-1244 315.67,-1244 315.67,-1244 318.83,-1244 322,-1247.17 322,-1250.33 322,-1250.33 322,-1256.67 322,-1256.67 322,-1259.83 318.83,-1263 315.67,-1263"/>
<text text-anchor="middle" x="256" y="-1251" font-family="Helvetica,sans-Serif" font-size="10.00">tryPrepareFilterPointers</text>
</a>
</g>
</g>
<!-- Node1&#45;&gt;Node7 -->
<g id="edge6_Node000001_Node000007" class="edge">
<title>Node1&#45;&gt;Node7</title>
<g id="a_edge6_Node000001_Node000007"><a xlink:title=" ">
<path fill="none" stroke="#63b8ff" d="M79.63,-766.68C87.77,-840.05 126.23,-1157.32 190,-1229.5 193.31,-1233.25 197.26,-1236.41 201.55,-1239.08"/>
<polygon fill="#63b8ff" stroke="#63b8ff" points="200.27,-1242.36 210.75,-1243.9 203.52,-1236.16 200.27,-1242.36"/>
</a>
</g>
</g>
<!-- Node8 -->
<g id="Node000008" class="node">
<title>Node8</title>
<g id="a_Node000008"><a xlink:href="mongoWrite_8cpp.html#a7b0669675f4db278af7db5cb0b0dee6a" target="_top" xlink:title=" ">
<path fill="#fff0f0" stroke="red" d="M453.17,-440C453.17,-440 384.83,-440 384.83,-440 381.67,-440 378.5,-436.83 378.5,-433.67 378.5,-433.67 378.5,-427.33 378.5,-427.33 378.5,-424.17 381.67,-421 384.83,-421 384.83,-421 453.17,-421 453.17,-421 456.33,-421 459.5,-424.17 459.5,-427.33 459.5,-427.33 459.5,-433.67 459.5,-433.67 459.5,-436.83 456.33,-440 453.17,-440"/>
<text text-anchor="middle" x="419" y="-428" font-family="Helvetica,sans-Serif" font-size="10.00">mongoStates</text>
</a>
</g>
</g>
<!-- Node1&#45;&gt;Node8 -->
<g id="edge7_Node000001_Node000008" class="edge">
<title>Node1&#45;&gt;Node8</title>
<g id="a_edge7_Node000001_Node000008"><a xlink:title=" ">
<path fill="none" stroke="#63b8ff" d="M77.89,-766.77C78.74,-818.68 89.94,-986.88 190,-1057.5 237.93,-1091.33 278.42,-1096.77 322,-1057.5 379.26,-1005.9 346.2,-788.67 358,-712.5 373.43,-612.9 400.26,-495.82 412.1,-449.96"/>
<polygon fill="#63b8ff" stroke="#63b8ff" points="415.53,-450.69 414.7,-440.12 408.76,-448.89 415.53,-450.69"/>
</a>
</g>
</g>
<!-- Node1&#45;&gt;Node8 -->
<g id="edge20_Node000001_Node000008" class="edge">
<title>Node1&#45;&gt;Node8</title>
<g id="a_edge20_Node000001_Node000008"><a xlink:title=" ">
<path fill="none" stroke="#63b8ff" d="M77.83,-766.62C77.88,-820.52 85.2,-1001.54 190,-1075.5 237.93,-1109.33 278.42,-1114.77 322,-1075.5 379.26,-1023.9 346.2,-806.67 358,-730.5 374.45,-624.32 403.85,-498.27 414.24,-450.14"/>
<polygon fill="#63b8ff" stroke="#63b8ff" points="417.71,-450.62 416.36,-440.11 410.87,-449.17 417.71,-450.62"/>
</a>
</g>
</g>
<!-- Node22 -->
<g id="Node000022" class="node">
<title>Node22</title>
<g id="a_Node000022"><a xlink:href="structKFState.html#a0c84e911a5ea760fe728baec661e33f0" target="_top" xlink:title="Output keys and states in human readable format.">
<path fill="#fff0f0" stroke="red" d="M473.67,-933C473.67,-933 364.33,-933 364.33,-933 361.17,-933 358,-929.83 358,-926.67 358,-926.67 358,-920.33 358,-920.33 358,-917.17 361.17,-914 364.33,-914 364.33,-914 473.67,-914 473.67,-914 476.83,-914 480,-917.17 480,-920.33 480,-920.33 480,-926.67 480,-926.67 480,-929.83 476.83,-933 473.67,-933"/>
<text text-anchor="middle" x="419" y="-921" font-family="Helvetica,sans-Serif" font-size="10.00">KFState::outputStates</text>
</a>
</g>
</g>
<!-- Node1&#45;&gt;Node22 -->
<g id="edge9_Node000001_Node000022" class="edge">
<title>Node1&#45;&gt;Node22</title>
<g id="a_edge9_Node000001_Node000022"><a xlink:title=" ">
<path fill="none" stroke="#63b8ff" d="M81.03,-766.66C92.26,-827.79 133.83,-1052.46 190,-1093.5 237.37,-1128.11 276.19,-1130.15 322,-1093.5 376.14,-1050.19 315.26,-993.09 351.99,-941"/>
<polygon fill="#63b8ff" stroke="#63b8ff" points="354.88,-943 358.45,-933.02 349.44,-938.59 354.88,-943"/>
</a>
</g>
</g>
<!-- Node1&#45;&gt;Node22 -->
<g id="edge19_Node000001_Node000022" class="edge">
<title>Node1&#45;&gt;Node22</title>
<g id="a_edge19_Node000001_Node000022"><a xlink:title=" ">
<path fill="none" stroke="#63b8ff" d="M79.97,-766.72C89.41,-830.08 131.89,-1069.05 190,-1111.5 237.37,-1146.11 276.19,-1148.15 322,-1111.5 378.92,-1065.97 308.71,-1005.19 358,-951.5 365.15,-943.71 375.46,-939.1 385.53,-935.88"/>
<polygon fill="#63b8ff" stroke="#63b8ff" points="386.73,-939.18 395.39,-933.07 384.81,-932.45 386.73,-939.18"/>
</a>
</g>
</g>
<!-- Node24 -->
<g id="Node000024" class="node">
<title>Node24</title>
<g id="a_Node000024"><a xlink:href="erp_8cpp.html#aa281b734dbbef403ca921fc9d09e9961" target="_top" xlink:title="Get earth rotation parameter values.">
<path fill="#fff0f0" stroke="red" d="M461.67,-749C461.67,-749 376.33,-749 376.33,-749 373.17,-749 370,-745.83 370,-742.67 370,-742.67 370,-736.33 370,-736.33 370,-733.17 373.17,-730 376.33,-730 376.33,-730 461.67,-730 461.67,-730 464.83,-730 468,-733.17 468,-736.33 468,-736.33 468,-742.67 468,-742.67 468,-745.83 464.83,-749 461.67,-749"/>
<text text-anchor="middle" x="419" y="-737" font-family="Helvetica,sans-Serif" font-size="10.00">getErpFromFilter</text>
</a>
</g>
</g>
<!-- Node1&#45;&gt;Node24 -->
<g id="edge10_Node000001_Node000024" class="edge">
<title>Node1&#45;&gt;Node24</title>
<g id="a_edge10_Node000001_Node000024"><a xlink:title=" ">
<path fill="none" stroke="#63b8ff" d="M77.89,-766.77C78.74,-818.68 89.94,-986.88 190,-1057.5 237.93,-1091.33 277.85,-1096.13 322,-1057.5 367.39,-1017.78 330.81,-842.33 358,-788.5 364.45,-775.72 374.86,-764.17 385.22,-755.31"/>
<polygon fill="#63b8ff" stroke="#63b8ff" points="387.4,-758.05 393.05,-749.09 383.05,-752.57 387.4,-758.05"/>
</a>
</g>
</g>
<!-- Node1&#45;&gt;Node24 -->
<g id="edge28_Node000001_Node000024" class="edge">
<title>Node1&#45;&gt;Node24</title>
<g id="a_edge28_Node000001_Node000024"><a xlink:title=" ">
<path fill="none" stroke="#63b8ff" d="M77.83,-766.62C77.88,-820.52 85.2,-1001.54 190,-1075.5 237.93,-1109.33 277.85,-1114.13 322,-1075.5 367.39,-1035.78 330.81,-860.33 358,-806.5 368.39,-785.94 389.02,-768.54 403.16,-756.16"/>
<polygon fill="#63b8ff" stroke="#63b8ff" points="405.89,-758.41 410.98,-749.11 401.21,-753.21 405.89,-758.41"/>
</a>
</g>
</g>
<!-- Node27 -->
<g id="Node000027" class="node">
<title>Node27</title>
<g id="a_Node000027"><a xlink:href="trace_8hpp.html#af5320371d0f15d74154b2b32d315684d" target="_top" xlink:title=" ">
<path fill="#fff0f0" stroke="red" d="M287.17,-1057C287.17,-1057 224.83,-1057 224.83,-1057 221.67,-1057 218.5,-1053.83 218.5,-1050.67 218.5,-1050.67 218.5,-1044.33 218.5,-1044.33 218.5,-1041.17 221.67,-1038 224.83,-1038 224.83,-1038 287.17,-1038 287.17,-1038 290.33,-1038 293.5,-1041.17 293.5,-1044.33 293.5,-1044.33 293.5,-1050.67 293.5,-1050.67 293.5,-1053.83 290.33,-1057 287.17,-1057"/>
<text text-anchor="middle" x="256" y="-1045" font-family="Helvetica,sans-Serif" font-size="10.00">getTraceFile</text>
</a>
</g>
</g>
<!-- Node1&#45;&gt;Node27 -->
<g id="edge11_Node000001_Node000027" class="edge">
<title>Node1&#45;&gt;Node27</title>
<g id="a_edge11_Node000001_Node000027"><a xlink:title=" ">
<path fill="none" stroke="#63b8ff" d="M80,-766.69C86.25,-812.6 110.05,-949.1 190,-1020.5 198.43,-1028.02 209.73,-1032.43 220.55,-1035.49"/>
<polygon fill="#63b8ff" stroke="#63b8ff" points="219.7,-1038.88 230.25,-1037.97 221.43,-1032.1 219.7,-1038.88"/>
</a>
</g>
</g>
<!-- Node1&#45;&gt;Node27 -->
<g id="edge13_Node000001_Node000027" class="edge">
<title>Node1&#45;&gt;Node27</title>
<g id="a_edge13_Node000001_Node000027"><a xlink:title=" ">
<path fill="none" stroke="#63b8ff" d="M79.08,-766.51C83.67,-814.47 105.4,-962.94 190,-1038.5 195.28,-1043.22 201.69,-1046.71 208.41,-1049.17"/>
<polygon fill="#63b8ff" stroke="#63b8ff" points="207.79,-1052.64 218.37,-1052.07 209.74,-1045.92 207.79,-1052.64"/>
</a>
</g>
</g>
<!-- Node28 -->
<g id="Node000028" class="node">
<title>Node28</title>
<g id="a_Node000028"><a xlink:href="ionoModel_8cpp.html#a5f0f6db30db859a82f3e12712e1233da" target="_top" xlink:title=" ">
<path fill="#fff0f0" stroke="red" d="M310.17,-1020C310.17,-1020 201.83,-1020 201.83,-1020 198.67,-1020 195.5,-1016.83 195.5,-1013.67 195.5,-1013.67 195.5,-1007.33 195.5,-1007.33 195.5,-1004.17 198.67,-1001 201.83,-1001 201.83,-1001 310.17,-1001 310.17,-1001 313.33,-1001 316.5,-1004.17 316.5,-1007.33 316.5,-1007.33 316.5,-1013.67 316.5,-1013.67 316.5,-1016.83 313.33,-1020 310.17,-1020"/>
<text text-anchor="middle" x="256" y="-1008" font-family="Helvetica,sans-Serif" font-size="10.00">ionosphereSsrUpdate</text>
</a>
</g>
</g>
<!-- Node1&#45;&gt;Node28 -->
<g id="edge12_Node000001_Node000028" class="edge">
<title>Node1&#45;&gt;Node28</title>
<g id="a_edge12_Node000001_Node000028"><a xlink:title=" ">
<path fill="none" stroke="#63b8ff" d="M81.36,-766.52C90.27,-808.03 118.9,-923.25 190,-983.5 198.82,-990.98 210.51,-995.36 221.54,-998.45"/>
<polygon fill="#63b8ff" stroke="#63b8ff" points="220.83,-1001.88 231.39,-1000.97 222.57,-995.1 220.83,-1001.88"/>
</a>
</g>
</g>
<!-- Node1&#45;&gt;Node28 -->
<g id="edge17_Node000001_Node000028" class="edge">
<title>Node1&#45;&gt;Node28</title>
<g id="a_edge17_Node000001_Node000028"><a xlink:title=" ">
<path fill="none" stroke="#63b8ff" d="M79.87,-766.8C86.53,-809.51 112.51,-929.07 187.49,-998.51"/>
<polygon fill="#63b8ff" stroke="#63b8ff" points="185.57,-1001.48 195.39,-1005.48 190.2,-996.24 185.57,-1001.48"/>
</a>
</g>
</g>
<!-- Node31 -->
<g id="Node000031" class="node">
<title>Node31</title>
<g id="a_Node000031"><a xlink:href="ionoMeas_8cpp.html#a63c952812e5a8af831965fca844a038f" target="_top" xlink:title=" ">
<path fill="#fff0f0" stroke="red" d="M313.67,-983C313.67,-983 198.33,-983 198.33,-983 195.17,-983 192,-979.83 192,-976.67 192,-976.67 192,-970.33 192,-970.33 192,-967.17 195.17,-964 198.33,-964 198.33,-964 313.67,-964 313.67,-964 316.83,-964 320,-967.17 320,-970.33 320,-970.33 320,-976.67 320,-976.67 320,-979.83 316.83,-983 313.67,-983"/>
<text text-anchor="middle" x="256" y="-971" font-family="Helvetica,sans-Serif" font-size="10.00">obsIonoDataFromFilter</text>
</a>
</g>
</g>
<!-- Node1&#45;&gt;Node31 -->
<g id="edge14_Node000001_Node000031" class="edge">
<title>Node1&#45;&gt;Node31</title>
<g id="a_edge14_Node000001_Node000031"><a xlink:title=" ">
<path fill="none" stroke="#63b8ff" d="M81.91,-766.72C92.46,-804.69 125.21,-904.23 190,-955.5 191.62,-956.78 193.32,-957.97 195.09,-959.08"/>
<polygon fill="#63b8ff" stroke="#63b8ff" points="193.91,-962.41 204.4,-963.93 197.15,-956.2 193.91,-962.41"/>
</a>
</g>
</g>
<!-- Node32 -->
<g id="Node000032" class="node">
<title>Node32</title>
<g id="a_Node000032"><a xlink:href="ionoModel_8cpp.html#ae7821a74f98f349d4508712aeced88e1" target="_top" xlink:title="Updating the ionosphere model parameters The ionosphere model should be initialized by calling &#39;confi...">
<path fill="#fff0f0" stroke="red" d="M296.17,-946C296.17,-946 215.83,-946 215.83,-946 212.67,-946 209.5,-942.83 209.5,-939.67 209.5,-939.67 209.5,-933.33 209.5,-933.33 209.5,-930.17 212.67,-927 215.83,-927 215.83,-927 296.17,-927 296.17,-927 299.33,-927 302.5,-930.17 302.5,-933.33 302.5,-933.33 302.5,-939.67 302.5,-939.67 302.5,-942.83 299.33,-946 296.17,-946"/>
<text text-anchor="middle" x="256" y="-934" font-family="Helvetica,sans-Serif" font-size="10.00">filterIonosphere</text>
</a>
</g>
</g>
<!-- Node1&#45;&gt;Node32 -->
<g id="edge15_Node000001_Node000032" class="edge">
<title>Node1&#45;&gt;Node32</title>
<g id="a_edge15_Node000001_Node000032"><a xlink:title=" ">
<path fill="none" stroke="#63b8ff" d="M83.81,-766.6C97.24,-799.49 133.67,-877.85 190,-918.5 193.08,-920.72 196.42,-922.67 199.9,-924.37"/>
<polygon fill="#63b8ff" stroke="#63b8ff" points="198.82,-927.71 209.39,-928.35 201.53,-921.26 198.82,-927.71"/>
</a>
</g>
</g>
<!-- Node101 -->
<g id="Node000101" class="node">
<title>Node101</title>
<g id="a_Node000101"><a xlink:href="ppppp_8cpp.html#a091ee5a94bb94929a1d05e861f448a6a" target="_top" xlink:title=" ">
<path fill="#fff0f0" stroke="red" d="M311.17,-909C311.17,-909 200.83,-909 200.83,-909 197.67,-909 194.5,-905.83 194.5,-902.67 194.5,-902.67 194.5,-896.33 194.5,-896.33 194.5,-893.17 197.67,-890 200.83,-890 200.83,-890 311.17,-890 311.17,-890 314.33,-890 317.5,-893.17 317.5,-896.33 317.5,-896.33 317.5,-902.67 317.5,-902.67 317.5,-905.83 314.33,-909 311.17,-909"/>
<text text-anchor="middle" x="256" y="-897" font-family="Helvetica,sans-Serif" font-size="10.00">propagateUncertainty</text>
</a>
</g>
</g>
<!-- Node1&#45;&gt;Node101 -->
<g id="edge18_Node000001_Node000101" class="edge">
<title>Node1&#45;&gt;Node101</title>
<g id="a_edge18_Node000001_Node000101"><a xlink:title=" ">
<path fill="none" stroke="#63b8ff" d="M86.96,-766.92C103.65,-794.27 142.19,-851.2 190,-881.5 192.59,-883.14 195.32,-884.63 198.15,-885.99"/>
<polygon fill="#63b8ff" stroke="#63b8ff" points="196.86,-889.24 207.43,-889.89 199.57,-882.79 196.86,-889.24"/>
</a>
</g>
</g>
<!-- Node102 -->
<g id="Node000102" class="node">
<title>Node102</title>
<g id="a_Node000102"><a xlink:href="minimumConstraints_8cpp.html#aa40934b017f373d875c3470591eff52e" target="_top" xlink:title=" ">
<path fill="#fff0f0" stroke="red" d="M276.17,-872C276.17,-872 235.83,-872 235.83,-872 232.67,-872 229.5,-868.83 229.5,-865.67 229.5,-865.67 229.5,-859.33 229.5,-859.33 229.5,-856.17 232.67,-853 235.83,-853 235.83,-853 276.17,-853 276.17,-853 279.33,-853 282.5,-856.17 282.5,-859.33 282.5,-859.33 282.5,-865.67 282.5,-865.67 282.5,-868.83 279.33,-872 276.17,-872"/>
<text text-anchor="middle" x="256" y="-860" font-family="Helvetica,sans-Serif" font-size="10.00">mincon</text>
</a>
</g>
</g>
<!-- Node1&#45;&gt;Node102 -->
<g id="edge21_Node000001_Node000102" class="edge">
<title>Node1&#45;&gt;Node102</title>
<g id="a_edge21_Node000001_Node000102"><a xlink:title=" ">
<path fill="none" stroke="#63b8ff" d="M92.09,-766.68C111.99,-787.25 150.35,-823.78 190,-844.5 199.09,-849.25 209.57,-852.86 219.42,-855.55"/>
<polygon fill="#63b8ff" stroke="#63b8ff" points="218.82,-859.01 229.37,-858.03 220.52,-852.21 218.82,-859.01"/>
</a>
</g>
</g>
<!-- Node123 -->
<g id="Node000123" class="node">
<title>Node123</title>
<g id="a_Node000123"><a xlink:href="minimumConstraints_8cpp.html#ab6be6b79385844aff6e5935fe285c44a" target="_top" xlink:title=" ">
<path fill="#fff0f0" stroke="red" d="M313.67,-835C313.67,-835 198.33,-835 198.33,-835 195.17,-835 192,-831.83 192,-828.67 192,-828.67 192,-822.33 192,-822.33 192,-819.17 195.17,-816 198.33,-816 198.33,-816 313.67,-816 313.67,-816 316.83,-816 320,-819.17 320,-822.33 320,-822.33 320,-828.67 320,-828.67 320,-831.83 316.83,-835 313.67,-835"/>
<text text-anchor="middle" x="256" y="-823" font-family="Helvetica,sans-Serif" font-size="10.00">outputMinconStatistics</text>
</a>
</g>
</g>
<!-- Node1&#45;&gt;Node123 -->
<g id="edge27_Node000001_Node000123" class="edge">
<title>Node1&#45;&gt;Node123</title>
<g id="a_edge27_Node000001_Node000123"><a xlink:title=" ">
<path fill="none" stroke="#63b8ff" d="M104.5,-766.58C126.78,-778.82 159.76,-795.88 190,-807.5 195.12,-809.47 200.55,-811.32 206,-813.03"/>
<polygon fill="#63b8ff" stroke="#63b8ff" points="205.18,-816.44 215.76,-815.95 207.19,-809.73 205.18,-816.44"/>
</a>
</g>
</g>
<!-- Node124 -->
<g id="Node000124" class="node">
<title>Node124</title>
<g id="a_Node000124"><a xlink:href="ppp__ambres_8cpp.html#ac60a10fa51dfc292692db9b9e6f7af30" target="_top" xlink:title=" ">
<path fill="#fff0f0" stroke="red" d="M313.67,-798C313.67,-798 198.33,-798 198.33,-798 195.17,-798 192,-794.83 192,-791.67 192,-791.67 192,-785.33 192,-785.33 192,-782.17 195.17,-779 198.33,-779 198.33,-779 313.67,-779 313.67,-779 316.83,-779 320,-782.17 320,-785.33 320,-785.33 320,-791.67 320,-791.67 320,-794.83 316.83,-798 313.67,-798"/>
<text text-anchor="middle" x="256" y="-786" font-family="Helvetica,sans-Serif" font-size="10.00">fixAndHoldAmbiguities</text>
</a>
</g>
</g>
<!-- Node1&#45;&gt;Node124 -->
<g id="edge29_Node000001_Node000124" class="edge">
<title>Node1&#45;&gt;Node124</title>
<g id="a_edge29_Node000001_Node000124"><a xlink:title=" ">
<path fill="none" stroke="#63b8ff" d="M149.99,-766.55C166.48,-770 183.76,-773.61 199.43,-776.88"/>
<polygon fill="#63b8ff" stroke="#63b8ff" points="198.97,-780.36 209.48,-778.98 200.4,-773.51 198.97,-780.36"/>
</a>
</g>
</g>
<!-- Node140 -->
<g id="Node000140" class="node">
<title>Node140</title>
<g id="a_Node000140"><a xlink:href="ppp_8cpp.html#a7dfa3201f248f86e7eac9d9db1f3661b" target="_top" xlink:title=" ">
<path fill="#fff0f0" stroke="red" d="M297.17,-761C297.17,-761 214.83,-761 214.83,-761 211.67,-761 208.5,-757.83 208.5,-754.67 208.5,-754.67 208.5,-748.33 208.5,-748.33 208.5,-745.17 211.67,-742 214.83,-742 214.83,-742 297.17,-742 297.17,-742 300.33,-742 303.5,-745.17 303.5,-748.33 303.5,-748.33 303.5,-754.67 303.5,-754.67 303.5,-757.83 300.33,-761 297.17,-761"/>
<text text-anchor="middle" x="256" y="-749" font-family="Helvetica,sans-Serif" font-size="10.00">outputPppNmea</text>
</a>
</g>
</g>
<!-- Node1&#45;&gt;Node140 -->
<g id="edge30_Node000001_Node000140" class="edge">
<title>Node1&#45;&gt;Node140</title>
<g id="a_edge30_Node000001_Node000140"><a xlink:title=" ">
<path fill="none" stroke="#63b8ff" d="M154.09,-751.5C168.94,-751.5 184.27,-751.5 198.36,-751.5"/>
<polygon fill="#63b8ff" stroke="#63b8ff" points="198.37,-755 208.37,-751.5 198.37,-748 198.37,-755"/>
</a>
</g>
</g>
<!-- Node141 -->
<g id="Node000141" class="node">
<title>Node141</title>
<g id="a_Node000141"><a xlink:href="cost_8cpp.html#abc021ac32635abe4cf6daef44cabb888" target="_top" xlink:title="Outputs troposphere COST file.">
<path fill="#fff0f0" stroke="red" d="M284.67,-724C284.67,-724 227.33,-724 227.33,-724 224.17,-724 221,-720.83 221,-717.67 221,-717.67 221,-711.33 221,-711.33 221,-708.17 224.17,-705 227.33,-705 227.33,-705 284.67,-705 284.67,-705 287.83,-705 291,-708.17 291,-711.33 291,-711.33 291,-717.67 291,-717.67 291,-720.83 287.83,-724 284.67,-724"/>
<text text-anchor="middle" x="256" y="-712" font-family="Helvetica,sans-Serif" font-size="10.00">outputCost</text>
</a>
</g>
</g>
<!-- Node1&#45;&gt;Node141 -->
<g id="edge31_Node000001_Node000141" class="edge">
<title>Node1&#45;&gt;Node141</title>
<g id="a_edge31_Node000001_Node000141"><a xlink:title=" ">
<path fill="none" stroke="#63b8ff" d="M149.99,-736.45C170.67,-732.13 192.59,-727.55 211.02,-723.69"/>
<polygon fill="#63b8ff" stroke="#63b8ff" points="211.8,-727.11 220.87,-721.63 210.37,-720.25 211.8,-727.11"/>
</a>
</g>
</g>
<!-- Node161 -->
<g id="Node000161" class="node">
<title>Node161</title>
<g id="a_Node000161"><a xlink:href="gpx_8cpp.html#a6a003c9cf2dd5732000ebbaf4dd8a6b7" target="_top" xlink:title=" ">
<path fill="#fff0f0" stroke="red" d="M280.67,-687C280.67,-687 231.33,-687 231.33,-687 228.17,-687 225,-683.83 225,-680.67 225,-680.67 225,-674.33 225,-674.33 225,-671.17 228.17,-668 231.33,-668 231.33,-668 280.67,-668 280.67,-668 283.83,-668 287,-671.17 287,-674.33 287,-674.33 287,-680.67 287,-680.67 287,-683.83 283.83,-687 280.67,-687"/>
<text text-anchor="middle" x="256" y="-675" font-family="Helvetica,sans-Serif" font-size="10.00">writeGPX</text>
</a>
</g>
</g>
<!-- Node1&#45;&gt;Node161 -->
<g id="edge32_Node000001_Node000161" class="edge">
<title>Node1&#45;&gt;Node161</title>
<g id="a_edge32_Node000001_Node000161"><a xlink:title=" ">
<path fill="none" stroke="#63b8ff" d="M105.48,-736.35C127.79,-724.45 160.32,-708.03 190,-696.5 198.03,-693.38 206.8,-690.49 215.21,-687.95"/>
<polygon fill="#63b8ff" stroke="#63b8ff" points="216.25,-691.3 224.87,-685.14 214.29,-684.57 216.25,-691.3"/>
</a>
</g>
</g>
<!-- Node166 -->
<g id="Node000166" class="node">
<title>Node166</title>
<g id="a_Node000166"><a xlink:href="pos_8cpp.html#a7c2b65a289b358b09d3efa7d44b5be2d" target="_top" xlink:title=" ">
<path fill="#fff0f0" stroke="red" d="M280.17,-650C280.17,-650 231.83,-650 231.83,-650 228.67,-650 225.5,-646.83 225.5,-643.67 225.5,-643.67 225.5,-637.33 225.5,-637.33 225.5,-634.17 228.67,-631 231.83,-631 231.83,-631 280.17,-631 280.17,-631 283.33,-631 286.5,-634.17 286.5,-637.33 286.5,-637.33 286.5,-643.67 286.5,-643.67 286.5,-646.83 283.33,-650 280.17,-650"/>
<text text-anchor="middle" x="256" y="-638" font-family="Helvetica,sans-Serif" font-size="10.00">writePOS</text>
</a>
</g>
</g>
<!-- Node1&#45;&gt;Node166 -->
<g id="edge33_Node000001_Node000166" class="edge">
<title>Node1&#45;&gt;Node166</title>
<g id="a_edge33_Node000001_Node000166"><a xlink:title=" ">
<path fill="none" stroke="#63b8ff" d="M92.5,-736.22C112.59,-715.91 150.84,-680.19 190,-659.5 197.93,-655.31 206.91,-651.93 215.6,-649.25"/>
<polygon fill="#63b8ff" stroke="#63b8ff" points="216.56,-652.61 225.23,-646.51 214.65,-645.88 216.56,-652.61"/>
</a>
</g>
</g>
<!-- Node173 -->
<g id="Node000173" class="node">
<title>Node173</title>
<g id="a_Node000173"><a xlink:href="orbitProp_8cpp.html#a2074537e52ef853217ad980d3d299621" target="_top" xlink:title=" ">
<path fill="#fff0f0" stroke="red" d="M464.17,-825C464.17,-825 373.83,-825 373.83,-825 370.67,-825 367.5,-821.83 367.5,-818.67 367.5,-818.67 367.5,-812.33 367.5,-812.33 367.5,-809.17 370.67,-806 373.83,-806 373.83,-806 464.17,-806 464.17,-806 467.33,-806 470.5,-809.17 470.5,-812.33 470.5,-812.33 470.5,-818.67 470.5,-818.67 470.5,-821.83 467.33,-825 464.17,-825"/>
<text text-anchor="middle" x="419" y="-813" font-family="Helvetica,sans-Serif" font-size="10.00">outputOrbitConfig</text>
</a>
</g>
</g>
<!-- Node1&#45;&gt;Node173 -->
<g id="edge34_Node000001_Node000173" class="edge">
<title>Node1&#45;&gt;Node173</title>
<g id="a_edge34_Node000001_Node000173"><a xlink:title=" ">
<path fill="none" stroke="#63b8ff" d="M85.55,-736.22C100.71,-707.51 137.92,-646.25 190,-622.5 243.38,-598.16 276.4,-585.59 322,-622.5 381.69,-670.82 308.52,-732.77 358,-791.5 361.18,-795.27 365.03,-798.45 369.23,-801.14"/>
<polygon fill="#63b8ff" stroke="#63b8ff" points="367.79,-804.33 378.25,-805.98 371.1,-798.17 367.79,-804.33"/>
</a>
</g>
</g>
<!-- Node176 -->
<g id="Node000176" class="node">
<title>Node176</title>
<g id="a_Node000176"><a xlink:href="tropSinex_8cpp.html#a7d4d797b1dca3898283e8b3d00b0e60f" target="_top" xlink:title="Output troposphere SINEX data.">
<path fill="#fff0f0" stroke="red" d="M297.17,-574C297.17,-574 214.83,-574 214.83,-574 211.67,-574 208.5,-570.83 208.5,-567.67 208.5,-567.67 208.5,-561.33 208.5,-561.33 208.5,-558.17 211.67,-555 214.83,-555 214.83,-555 297.17,-555 297.17,-555 300.33,-555 303.5,-558.17 303.5,-561.33 303.5,-561.33 303.5,-567.67 303.5,-567.67 303.5,-570.83 300.33,-574 297.17,-574"/>
<text text-anchor="middle" x="256" y="-562" font-family="Helvetica,sans-Serif" font-size="10.00">outputTropSinex</text>
</a>
</g>
</g>
<!-- Node1&#45;&gt;Node176 -->
<g id="edge36_Node000001_Node000176" class="edge">
<title>Node1&#45;&gt;Node176</title>
<g id="a_edge36_Node000001_Node000176"><a xlink:title=" ">
<path fill="none" stroke="#63b8ff" d="M84.6,-736.14C99.07,-704.17 136.62,-630.04 190,-588.5 195.36,-584.33 201.51,-580.83 207.85,-577.91"/>
<polygon fill="#63b8ff" stroke="#63b8ff" points="209.3,-581.1 217.2,-574.04 206.62,-574.63 209.3,-581.1"/>
</a>
</g>
</g>
<!-- Node202 -->
<g id="Node000202" class="node">
<title>Node202</title>
<g id="a_Node000202"><a xlink:href="biasSINEXwrite_8cpp.html#a11492c5686f21e9275281d7ca38cd530" target="_top" xlink:title="Write stored bias output to SINEX file Return number of written biases (&#45;1 if file not found)">
<path fill="#fff0f0" stroke="red" d="M294.17,-537C294.17,-537 217.83,-537 217.83,-537 214.67,-537 211.5,-533.83 211.5,-530.67 211.5,-530.67 211.5,-524.33 211.5,-524.33 211.5,-521.17 214.67,-518 217.83,-518 217.83,-518 294.17,-518 294.17,-518 297.33,-518 300.5,-521.17 300.5,-524.33 300.5,-524.33 300.5,-530.67 300.5,-530.67 300.5,-533.83 297.33,-537 294.17,-537"/>
<text text-anchor="middle" x="256" y="-525" font-family="Helvetica,sans-Serif" font-size="10.00">writeBiasSinex</text>
</a>
</g>
</g>
<!-- Node1&#45;&gt;Node202 -->
<g id="edge37_Node000001_Node000202" class="edge">
<title>Node1&#45;&gt;Node202</title>
<g id="a_edge37_Node000001_Node000202"><a xlink:title=" ">
<path fill="none" stroke="#63b8ff" d="M81.93,-736.26C92.53,-698.24 125.38,-598.49 190,-546.5 193.6,-543.6 197.63,-541.15 201.87,-539.07"/>
<polygon fill="#63b8ff" stroke="#63b8ff" points="203.52,-542.17 211.4,-535.08 200.82,-535.71 203.52,-542.17"/>
</a>
</g>
</g>
<!-- Node235 -->
<g id="Node000235" class="node">
<title>Node235</title>
<g id="a_Node000235"><a xlink:href="rinexClkWrite_8cpp.html#a6aa08011df8bb87fbe3541a849eb77ff" target="_top" xlink:title=" ">
<path fill="#fff0f0" stroke="red" d="M289.67,-500C289.67,-500 222.33,-500 222.33,-500 219.17,-500 216,-496.83 216,-493.67 216,-493.67 216,-487.33 216,-487.33 216,-484.17 219.17,-481 222.33,-481 222.33,-481 289.67,-481 289.67,-481 292.83,-481 296,-484.17 296,-487.33 296,-487.33 296,-493.67 296,-493.67 296,-496.83 292.83,-500 289.67,-500"/>
<text text-anchor="middle" x="256" y="-488" font-family="Helvetica,sans-Serif" font-size="10.00">outputClocks</text>
</a>
</g>
</g>
<!-- Node1&#45;&gt;Node235 -->
<g id="edge39_Node000001_Node000235" class="edge">
<title>Node1&#45;&gt;Node235</title>
<g id="a_edge39_Node000001_Node000235"><a xlink:title=" ">
<path fill="none" stroke="#63b8ff" d="M80.46,-736.29C88.19,-693.55 116.03,-571.38 190,-508.5 194.8,-504.42 200.46,-501.26 206.39,-498.81"/>
<polygon fill="#63b8ff" stroke="#63b8ff" points="207.57,-502.11 215.87,-495.52 205.28,-495.49 207.57,-502.11"/>
</a>
</g>
</g>
<!-- Node283 -->
<g id="Node000283" class="node">
<title>Node283</title>
<g id="a_Node000283"><a xlink:href="orbexWrite_8cpp.html#a10b5962602c3027538917da03bdaaea3" target="_top" xlink:title="Output ORBEX files.">
<path fill="#fff0f0" stroke="red" d="M288.17,-463C288.17,-463 223.83,-463 223.83,-463 220.67,-463 217.5,-459.83 217.5,-456.67 217.5,-456.67 217.5,-450.33 217.5,-450.33 217.5,-447.17 220.67,-444 223.83,-444 223.83,-444 288.17,-444 288.17,-444 291.33,-444 294.5,-447.17 294.5,-450.33 294.5,-450.33 294.5,-456.67 294.5,-456.67 294.5,-459.83 291.33,-463 288.17,-463"/>
<text text-anchor="middle" x="256" y="-451" font-family="Helvetica,sans-Serif" font-size="10.00">outputOrbex</text>
</a>
</g>
</g>
<!-- Node1&#45;&gt;Node283 -->
<g id="edge40_Node000001_Node000283" class="edge">
<title>Node1&#45;&gt;Node283</title>
<g id="a_edge40_Node000001_Node000283"><a xlink:title=" ">
<path fill="none" stroke="#63b8ff" d="M79.42,-736.42C84.66,-689.65 107.11,-545.71 190,-471.5 195.1,-466.93 201.26,-463.52 207.73,-460.96"/>
<polygon fill="#63b8ff" stroke="#63b8ff" points="208.94,-464.24 217.34,-457.79 206.75,-457.6 208.94,-464.24"/>
</a>
</g>
</g>
<!-- Node339 -->
<g id="Node000339" class="node">
<title>Node339</title>
<g id="a_Node000339"><a xlink:href="sp3Write_8cpp.html#aa72d59a1f7976cee159aedfc7b54c489" target="_top" xlink:title=" ">
<path fill="#fff0f0" stroke="red" d="M282.67,-426C282.67,-426 229.33,-426 229.33,-426 226.17,-426 223,-422.83 223,-419.67 223,-419.67 223,-413.33 223,-413.33 223,-410.17 226.17,-407 229.33,-407 229.33,-407 282.67,-407 282.67,-407 285.83,-407 289,-410.17 289,-413.33 289,-413.33 289,-419.67 289,-419.67 289,-422.83 285.83,-426 282.67,-426"/>
<text text-anchor="middle" x="256" y="-414" font-family="Helvetica,sans-Serif" font-size="10.00">outputSp3</text>
</a>
</g>
</g>
<!-- Node1&#45;&gt;Node339 -->
<g id="edge41_Node000001_Node000339" class="edge">
<title>Node1&#45;&gt;Node339</title>
<g id="a_edge41_Node000001_Node000339"><a xlink:title=" ">
<path fill="none" stroke="#63b8ff" d="M78.64,-736.3C81.61,-685.51 98.24,-520.1 190,-434.5 196.4,-428.53 204.6,-424.51 213.01,-421.81"/>
<polygon fill="#63b8ff" stroke="#63b8ff" points="214.1,-425.15 222.88,-419.22 212.32,-418.38 214.1,-425.15"/>
</a>
</g>
</g>
<!-- Node343 -->
<g id="Node000343" class="node">
<title>Node343</title>
<g id="a_Node000343"><a xlink:href="erp_8cpp.html#ab3d1603dc3b9792fd8a9116558ba1d49" target="_top" xlink:title=" ">
<path fill="#fff0f0" stroke="red" d="M311.17,-389C311.17,-389 200.83,-389 200.83,-389 197.67,-389 194.5,-385.83 194.5,-382.67 194.5,-382.67 194.5,-376.33 194.5,-376.33 194.5,-373.17 197.67,-370 200.83,-370 200.83,-370 311.17,-370 311.17,-370 314.33,-370 317.5,-373.17 317.5,-376.33 317.5,-376.33 317.5,-382.67 317.5,-382.67 317.5,-385.83 314.33,-389 311.17,-389"/>
<text text-anchor="middle" x="256" y="-377" font-family="Helvetica,sans-Serif" font-size="10.00">writeErpFromNetwork</text>
</a>
</g>
</g>
<!-- Node1&#45;&gt;Node343 -->
<g id="edge42_Node000001_Node000343" class="edge">
<title>Node1&#45;&gt;Node343</title>
<g id="a_edge42_Node000001_Node000343"><a xlink:title=" ">
<path fill="none" stroke="#63b8ff" d="M77.99,-736.49C78.8,-682.3 89.08,-494.82 190,-397.5 191.11,-396.43 192.27,-395.43 193.48,-394.48"/>
<polygon fill="#63b8ff" stroke="#63b8ff" points="195.51,-397.34 202.1,-389.05 191.77,-391.42 195.51,-397.34"/>
</a>
</g>
</g>
<!-- Node348 -->
<g id="Node000348" class="node">
<title>Node348</title>
<g id="a_Node000348"><a xlink:href="ionoMeas_8cpp.html#ae9c0cc10cf38de05ca01a55f8c8efd06" target="_top" xlink:title=" ">
<path fill="#fff0f0" stroke="red" d="M288.17,-352C288.17,-352 223.83,-352 223.83,-352 220.67,-352 217.5,-348.83 217.5,-345.67 217.5,-345.67 217.5,-339.33 217.5,-339.33 217.5,-336.17 220.67,-333 223.83,-333 223.83,-333 288.17,-333 288.17,-333 291.33,-333 294.5,-336.17 294.5,-339.33 294.5,-339.33 294.5,-345.67 294.5,-345.67 294.5,-348.83 291.33,-352 288.17,-352"/>
<text text-anchor="middle" x="256" y="-340" font-family="Helvetica,sans-Serif" font-size="10.00">writeIonStec</text>
</a>
</g>
</g>
<!-- Node1&#45;&gt;Node348 -->
<g id="edge45_Node000001_Node000348" class="edge">
<title>Node1&#45;&gt;Node348</title>
<g id="a_edge45_Node000001_Node000348"><a xlink:title=" ">
<path fill="none" stroke="#63b8ff" d="M77.46,-736.18C76.29,-678.11 80.17,-469.36 190,-360.5 194.92,-355.63 201.03,-352.04 207.52,-349.42"/>
<polygon fill="#63b8ff" stroke="#63b8ff" points="208.82,-352.67 217.22,-346.21 206.62,-346.03 208.82,-352.67"/>
</a>
</g>
</g>
<!-- Node349 -->
<g id="Node000349" class="node">
<title>Node349</title>
<g id="a_Node000349"><a xlink:href="ionexWrite_8cpp.html#a346321c012d870acaf17c9fae401e7b2" target="_top" xlink:title=" ">
<path fill="#fff0f0" stroke="red" d="M293.17,-315C293.17,-315 218.83,-315 218.83,-315 215.67,-315 212.5,-311.83 212.5,-308.67 212.5,-308.67 212.5,-302.33 212.5,-302.33 212.5,-299.17 215.67,-296 218.83,-296 218.83,-296 293.17,-296 293.17,-296 296.33,-296 299.5,-299.17 299.5,-302.33 299.5,-302.33 299.5,-308.67 299.5,-308.67 299.5,-311.83 296.33,-315 293.17,-315"/>
<text text-anchor="middle" x="256" y="-303" font-family="Helvetica,sans-Serif" font-size="10.00">ionexFileWrite</text>
</a>
</g>
</g>
<!-- Node1&#45;&gt;Node349 -->
<g id="edge46_Node000001_Node000349" class="edge">
<title>Node1&#45;&gt;Node349</title>
<g id="a_edge46_Node000001_Node000349"><a xlink:title=" ">
<path fill="none" stroke="#63b8ff" d="M79.57,-736.4C87.89,-666.36 128.66,-376.72 190,-314.5 193.71,-310.74 198.12,-307.75 202.89,-305.41"/>
<polygon fill="#63b8ff" stroke="#63b8ff" points="204.33,-308.61 212.38,-301.72 201.79,-302.09 204.33,-308.61"/>
</a>
</g>
</g>
<!-- Node1&#45;&gt;Node349 -->
<g id="edge47_Node000001_Node000349" class="edge">
<title>Node1&#45;&gt;Node349</title>
<g id="a_edge47_Node000001_Node000349"><a xlink:title=" ">
<path fill="none" stroke="#63b8ff" d="M80.37,-736.29C90.24,-668 130.41,-392.94 190,-332.5 197.34,-325.06 207.46,-320.62 217.53,-317.61"/>
<polygon fill="#63b8ff" stroke="#63b8ff" points="218.69,-320.92 227.48,-315.02 216.92,-314.15 218.69,-320.92"/>
</a>
</g>
</g>
<!-- Node359 -->
<g id="Node000359" class="node">
<title>Node359</title>
<g id="a_Node000359"><a xlink:href="rinexNavWrite_8cpp.html#afee81a93c5a36815f71f855f32c34608" target="_top" xlink:title=" ">
<path fill="#fff0f0" stroke="red" d="M294.17,-278C294.17,-278 217.83,-278 217.83,-278 214.67,-278 211.5,-274.83 211.5,-271.67 211.5,-271.67 211.5,-265.33 211.5,-265.33 211.5,-262.17 214.67,-259 217.83,-259 217.83,-259 294.17,-259 294.17,-259 297.33,-259 300.5,-262.17 300.5,-265.33 300.5,-265.33 300.5,-271.67 300.5,-271.67 300.5,-274.83 297.33,-278 294.17,-278"/>
<text text-anchor="middle" x="256" y="-266" font-family="Helvetica,sans-Serif" font-size="10.00">writeRinexNav</text>
</a>
</g>
</g>
<!-- Node1&#45;&gt;Node359 -->
<g id="edge48_Node000001_Node000359" class="edge">
<title>Node1&#45;&gt;Node359</title>
<g id="a_edge48_Node000001_Node000359"><a xlink:title=" ">
<path fill="none" stroke="#63b8ff" d="M79.62,-736.14C87.59,-663.34 124.93,-353.81 190,-286.5 193.43,-282.95 197.49,-280.08 201.89,-277.77"/>
<polygon fill="#63b8ff" stroke="#63b8ff" points="203.46,-280.9 211.28,-273.75 200.71,-274.47 203.46,-280.9"/>
</a>
</g>
</g>
<!-- Node374 -->
<g id="Node000374" class="node">
<title>Node374</title>
<g id="a_Node000374"><a xlink:href="sbas_8cpp.html#a6f4229224f8d8f8b8cf050533b992fcc" target="_top" xlink:title="Write received SBAS messages into EMS files.">
<path fill="#fff0f0" stroke="red" d="M291.67,-241C291.67,-241 220.33,-241 220.33,-241 217.17,-241 214,-237.83 214,-234.67 214,-234.67 214,-228.33 214,-228.33 214,-225.17 217.17,-222 220.33,-222 220.33,-222 291.67,-222 291.67,-222 294.83,-222 298,-225.17 298,-228.33 298,-228.33 298,-234.67 298,-234.67 298,-237.83 294.83,-241 291.67,-241"/>
<text text-anchor="middle" x="256" y="-229" font-family="Helvetica,sans-Serif" font-size="10.00">writeEMSdata</text>
</a>
</g>
</g>
<!-- Node1&#45;&gt;Node374 -->
<g id="edge49_Node000001_Node000374" class="edge">
<title>Node1&#45;&gt;Node374</title>
<g id="a_edge49_Node000001_Node000374"><a xlink:title=" ">
<path fill="none" stroke="#63b8ff" d="M79.3,-736.46C86.12,-660.85 120.17,-322.96 190,-249.5 194.08,-245.2 199.09,-241.9 204.5,-239.37"/>
<polygon fill="#63b8ff" stroke="#63b8ff" points="205.79,-242.63 213.89,-235.8 203.3,-236.09 205.79,-242.63"/>
</a>
</g>
</g>
<!-- Node376 -->
<g id="Node000376" class="node">
<title>Node376</title>
<g id="a_Node000376"><a xlink:href="mongoWrite_8cpp.html#a5cadd0b1a16ece0f12724f6f750b19ce" target="_top" xlink:title=" ">
<path fill="#fff0f0" stroke="red" d="M305.67,-204C305.67,-204 206.33,-204 206.33,-204 203.17,-204 200,-200.83 200,-197.67 200,-197.67 200,-191.33 200,-191.33 200,-188.17 203.17,-185 206.33,-185 206.33,-185 305.67,-185 305.67,-185 308.83,-185 312,-188.17 312,-191.33 312,-191.33 312,-197.67 312,-197.67 312,-200.83 308.83,-204 305.67,-204"/>
<text text-anchor="middle" x="256" y="-192" font-family="Helvetica,sans-Serif" font-size="10.00">mongoMeasSatStat</text>
</a>
</g>
</g>
<!-- Node1&#45;&gt;Node376 -->
<g id="edge50_Node000001_Node000376" class="edge">
<title>Node1&#45;&gt;Node376</title>
<g id="a_edge50_Node000001_Node000376"><a xlink:title=" ">
<path fill="none" stroke="#63b8ff" d="M79.05,-736.42C84.87,-657.44 115.51,-292.02 190,-212.5 190.9,-211.54 191.85,-210.63 192.84,-209.76"/>
<polygon fill="#63b8ff" stroke="#63b8ff" points="194.89,-212.6 201.1,-204.02 190.89,-206.85 194.89,-212.6"/>
</a>
</g>
</g>
<!-- Node377 -->
<g id="Node000377" class="node">
<title>Node377</title>
<g id="a_Node000377"><a xlink:href="ppp_8cpp.html#a1a529bfb379c76f71546a80022b8f123" target="_top" xlink:title=" ">
<path fill="#fff0f0" stroke="red" d="M289.67,-167C289.67,-167 222.33,-167 222.33,-167 219.17,-167 216,-163.83 216,-160.67 216,-160.67 216,-154.33 216,-154.33 216,-151.17 219.17,-148 222.33,-148 222.33,-148 289.67,-148 289.67,-148 292.83,-148 296,-151.17 296,-154.33 296,-154.33 296,-160.67 296,-160.67 296,-163.83 292.83,-167 289.67,-167"/>
<text text-anchor="middle" x="256" y="-155" font-family="Helvetica,sans-Serif" font-size="10.00">outputApriori</text>
</a>
</g>
</g>
<!-- Node1&#45;&gt;Node377 -->
<g id="edge51_Node000001_Node000377" class="edge">
<title>Node1&#45;&gt;Node377</title>
<g id="a_edge51_Node000001_Node000377"><a xlink:title=" ">
<path fill="none" stroke="#63b8ff" d="M78.83,-736.49C83.67,-654.47 110.8,-261.14 190,-175.5 194.43,-170.7 200.02,-167.14 206.05,-164.51"/>
<polygon fill="#63b8ff" stroke="#63b8ff" points="207.51,-167.7 215.78,-161.08 205.19,-161.1 207.51,-167.7"/>
</a>
</g>
</g>
<!-- Node379 -->
<g id="Node000379" class="node">
<title>Node379</title>
<g id="a_Node000379"><a xlink:href="outputs_8cpp.html#a47923d108129a8e2dc5d741ac5202f3a" target="_top" xlink:title=" ">
<path fill="#fff0f0" stroke="red" d="M312.17,-130C312.17,-130 199.83,-130 199.83,-130 196.67,-130 193.5,-126.83 193.5,-123.67 193.5,-123.67 193.5,-117.33 193.5,-117.33 193.5,-114.17 196.67,-111 199.83,-111 199.83,-111 312.17,-111 312.17,-111 315.33,-111 318.5,-114.17 318.5,-117.33 318.5,-117.33 318.5,-123.67 318.5,-123.67 318.5,-126.83 315.33,-130 312.17,-130"/>
<text text-anchor="middle" x="256" y="-118" font-family="Helvetica,sans-Serif" font-size="10.00">outputPredictedStates</text>
</a>
</g>
</g>
<!-- Node1&#45;&gt;Node379 -->
<g id="edge54_Node000001_Node000379" class="edge">
<title>Node1&#45;&gt;Node379</title>
<g id="a_edge54_Node000001_Node000379"><a xlink:title=" ">
<path fill="none" stroke="#63b8ff" d="M78.65,-736.38C82.59,-651.04 106.14,-230.22 190,-138.5 190.77,-137.66 191.58,-136.85 192.41,-136.08"/>
<polygon fill="#63b8ff" stroke="#63b8ff" points="194.64,-138.79 200.71,-130.11 190.55,-133.11 194.64,-138.79"/>
</a>
</g>
</g>
<!-- Node383 -->
<g id="Node000383" class="node">
<title>Node383</title>
<g id="a_Node000383"><a xlink:href="mongoWrite_8cpp.html#a0936cc081f59031ee1253c909285838c" target="_top" xlink:title="Write states generating SSR corrections to Mongo DB.">
<path fill="#fff0f0" stroke="red" d="M299.67,-93C299.67,-93 212.33,-93 212.33,-93 209.17,-93 206,-89.83 206,-86.67 206,-86.67 206,-80.33 206,-80.33 206,-77.17 209.17,-74 212.33,-74 212.33,-74 299.67,-74 299.67,-74 302.83,-74 306,-77.17 306,-80.33 306,-80.33 306,-86.67 306,-86.67 306,-89.83 302.83,-93 299.67,-93"/>
<text text-anchor="middle" x="256" y="-81" font-family="Helvetica,sans-Serif" font-size="10.00">prepareSsrStates</text>
</a>
</g>
</g>
<!-- Node1&#45;&gt;Node383 -->
<g id="edge58_Node000001_Node000383" class="edge">
<title>Node1&#45;&gt;Node383</title>
<g id="a_edge58_Node000001_Node000383"><a xlink:title=" ">
<path fill="none" stroke="#63b8ff" d="M78.48,-736.35C81.56,-647.95 101.44,-199.35 190,-101.5 192.03,-99.26 194.3,-97.29 196.76,-95.56"/>
<polygon fill="#63b8ff" stroke="#63b8ff" points="198.7,-98.48 205.7,-90.53 195.27,-92.38 198.7,-98.48"/>
</a>
</g>
</g>
<!-- Node384 -->
<g id="Node000384" class="node">
<title>Node384</title>
<g id="a_Node000384"><a xlink:href="rtsSmoothing_8cpp.html#afe61b630478279fa8f090204938fede8" target="_top" xlink:title="Iterate over stored filter states in reverse and perform filtering.">
<path fill="#fff0f0" stroke="red" d="M290.67,-56C290.67,-56 221.33,-56 221.33,-56 218.17,-56 215,-52.83 215,-49.67 215,-49.67 215,-43.33 215,-43.33 215,-40.17 218.17,-37 221.33,-37 221.33,-37 290.67,-37 290.67,-37 293.83,-37 297,-40.17 297,-43.33 297,-43.33 297,-49.67 297,-49.67 297,-52.83 293.83,-56 290.67,-56"/>
<text text-anchor="middle" x="256" y="-44" font-family="Helvetica,sans-Serif" font-size="10.00">rtsSmoothing</text>
</a>
</g>
</g>
<!-- Node1&#45;&gt;Node384 -->
<g id="edge59_Node000001_Node000384" class="edge">
<title>Node1&#45;&gt;Node384</title>
<g id="a_edge59_Node000001_Node000384"><a xlink:title=" ">
<path fill="none" stroke="#63b8ff" d="M78.32,-736.39C80.57,-645.2 96.7,-168.52 190,-64.5 194.26,-59.75 199.65,-56.21 205.49,-53.57"/>
<polygon fill="#63b8ff" stroke="#63b8ff" points="206.75,-56.84 214.96,-50.14 204.36,-50.26 206.75,-56.84"/>
</a>
</g>
</g>
<!-- Node386 -->
<g id="Node000386" class="node">
<title>Node386</title>
<g id="a_Node000386"><a xlink:href="summary_8cpp.html#a12c28641db36becdeac64e075107d855" target="_top" xlink:title=" ">
<path fill="#fff0f0" stroke="red" d="M296.17,-19C296.17,-19 215.83,-19 215.83,-19 212.67,-19 209.5,-15.83 209.5,-12.67 209.5,-12.67 209.5,-6.33 209.5,-6.33 209.5,-3.17 212.67,0 215.83,0 215.83,0 296.17,0 296.17,0 299.33,0 302.5,-3.17 302.5,-6.33 302.5,-6.33 302.5,-12.67 302.5,-12.67 302.5,-15.83 299.33,-19 296.17,-19"/>
<text text-anchor="middle" x="256" y="-7" font-family="Helvetica,sans-Serif" font-size="10.00">outputStatistics</text>
</a>
</g>
</g>
<!-- Node1&#45;&gt;Node386 -->
<g id="edge60_Node000001_Node000386" class="edge">
<title>Node1&#45;&gt;Node386</title>
<g id="a_edge60_Node000001_Node000386"><a xlink:title=" ">
<path fill="none" stroke="#63b8ff" d="M78.19,-736.21C79.65,-641.69 92.04,-137.61 190,-27.5 192.89,-24.25 196.31,-21.57 200.04,-19.35"/>
<polygon fill="#63b8ff" stroke="#63b8ff" points="201.69,-22.44 209.22,-14.99 198.69,-16.12 201.69,-22.44"/>
</a>
</g>
</g>
<!-- Node2&#45;&gt;Node4 -->
<g id="edge2_Node000002_Node000004" class="edge">
<title>Node2&#45;&gt;Node4</title>
<g id="a_edge2_Node000002_Node000004"><a xlink:title=" ">
<path fill="none" stroke="#63b8ff" d="M463.65,-951.45C469.33,-948.81 474.93,-945.82 480,-942.5 506.71,-925 531.97,-897.73 546.97,-879.99"/>
<polygon fill="#63b8ff" stroke="#63b8ff" points="549.79,-882.06 553.47,-872.13 544.4,-877.6 549.79,-882.06"/>
</a>
</g>
</g>
<!-- Node8&#45;&gt;Node4 -->
<g id="edge8_Node000008_Node000004" class="edge">
<title>Node8&#45;&gt;Node4</title>
<g id="a_edge8_Node000008_Node000004"><a xlink:title=" ">
<path fill="none" stroke="#63b8ff" d="M423.21,-440.33C441.26,-495.64 530.18,-768.08 554.72,-843.26"/>
<polygon fill="#63b8ff" stroke="#63b8ff" points="551.43,-844.45 557.86,-852.87 558.08,-842.28 551.43,-844.45"/>
</a>
</g>
</g>
<!-- Node32&#45;&gt;Node22 -->
<g id="edge16_Node000032_Node000022" class="edge">
<title>Node32&#45;&gt;Node22</title>
<g id="a_edge16_Node000032_Node000022"><a xlink:title=" ">
<path fill="none" stroke="#63b8ff" d="M302.71,-932.81C316.6,-931.69 332.22,-930.43 347.36,-929.2"/>
<polygon fill="#63b8ff" stroke="#63b8ff" points="348.05,-932.66 357.73,-928.37 347.49,-925.68 348.05,-932.66"/>
</a>
</g>
</g>
<!-- Node102&#45;&gt;Node4 -->
<g id="edge22_Node000102_Node000004" class="edge">
<title>Node102&#45;&gt;Node4</title>
<g id="a_edge22_Node000102_Node000004"><a xlink:title=" ">
<path fill="none" stroke="#63b8ff" d="M282.66,-858.54C331.64,-855.36 439.48,-854.9 505.62,-857.15"/>
<polygon fill="#63b8ff" stroke="#63b8ff" points="505.74,-860.66 515.87,-857.53 506,-853.66 505.74,-860.66"/>
</a>
</g>
</g>
<!-- Node102&#45;&gt;Node4 -->
<g id="edge23_Node000102_Node000004" class="edge">
<title>Node102&#45;&gt;Node4</title>
<g id="a_edge23_Node000102_Node000004"><a xlink:title=" ">
<path fill="none" stroke="#63b8ff" d="M282.66,-866.46C331.64,-869.64 439.48,-870.1 505.62,-867.85"/>
<polygon fill="#63b8ff" stroke="#63b8ff" points="506,-871.34 515.87,-867.47 505.74,-864.34 506,-871.34"/>
</a>
</g>
</g>
<!-- Node102&#45;&gt;Node8 -->
<g id="edge26_Node000102_Node000008" class="edge">
<title>Node102&#45;&gt;Node8</title>
<g id="a_edge26_Node000102_Node000008"><a xlink:title=" ">
<path fill="none" stroke="#63b8ff" d="M282.69,-861.48C296.14,-859.61 311.87,-855.07 322,-844.5 336.14,-829.75 397.72,-530.38 414.03,-450.14"/>
<polygon fill="#63b8ff" stroke="#63b8ff" points="417.46,-450.82 416.02,-440.33 410.6,-449.43 417.46,-450.82"/>
</a>
</g>
</g>
<!-- Node102&#45;&gt;Node22 -->
<g id="edge24_Node000102_Node000022" class="edge">
<title>Node102&#45;&gt;Node22</title>
<g id="a_edge24_Node000102_Node000022"><a xlink:title=" ">
<path fill="none" stroke="#63b8ff" d="M282.56,-860.99C294.63,-863.51 309.18,-867.84 322,-872.5 350.09,-882.7 381.65,-897.1 400.67,-908.49"/>
<polygon fill="#63b8ff" stroke="#63b8ff" points="398.86,-911.49 409.16,-913.97 402.65,-905.61 398.86,-911.49"/>
</a>
</g>
</g>
<!-- Node102&#45;&gt;Node22 -->
<g id="edge25_Node000102_Node000022" class="edge">
<title>Node102&#45;&gt;Node22</title>
<g id="a_edge25_Node000102_Node000022"><a xlink:title=" ">
<path fill="none" stroke="#63b8ff" d="M269.13,-872.18C282.3,-877.97 303.88,-883.92 322,-890.5 338.28,-896.41 355.74,-903.74 371.24,-910.15"/>
<polygon fill="#63b8ff" stroke="#63b8ff" points="370.03,-913.43 380.61,-914 372.69,-906.96 370.03,-913.43"/>
</a>
</g>
</g>
<!-- Node173&#45;&gt;Node4 -->
<g id="edge35_Node000173_Node000004" class="edge">
<title>Node173&#45;&gt;Node4</title>
<g id="a_edge35_Node000173_Node000004"><a xlink:title=" ">
<path fill="none" stroke="#63b8ff" d="M448.53,-825.01C469.8,-832.1 499.07,-841.86 522.42,-849.64"/>
<polygon fill="#63b8ff" stroke="#63b8ff" points="521.43,-853 532.03,-852.84 523.65,-846.36 521.43,-853"/>
</a>
</g>
</g>
<!-- Node202&#45;&gt;Node6 -->
<g id="edge38_Node000202_Node000006" class="edge">
<title>Node202&#45;&gt;Node6</title>
<g id="a_edge38_Node000202_Node000006"><a xlink:title=" ">
<path fill="none" stroke="#63b8ff" d="M300.51,-532.43C308.76,-535.32 316.5,-539.76 322,-546.5 353.26,-584.87 351.29,-941.46 358,-990.5 373.17,-1101.35 402.29,-1232.49 413.47,-1281.11"/>
<polygon fill="#63b8ff" stroke="#63b8ff" points="410.08,-1281.97 415.74,-1290.92 416.9,-1280.39 410.08,-1281.97"/>
</a>
</g>
</g>
<!-- Node343&#45;&gt;Node4 -->
<g id="edge43_Node000343_Node000004" class="edge">
<title>Node343&#45;&gt;Node4</title>
<g id="a_edge43_Node000343_Node000004"><a xlink:title=" ">
<path fill="none" stroke="#63b8ff" d="M311.89,-389.02C315.69,-391.31 319.13,-394.1 322,-397.5 425.88,-520.82 256.56,-633.16 358,-758.5 393.81,-802.75 429.85,-770.57 480,-797.5 504.35,-810.58 528.58,-831.3 544.1,-845.82"/>
<polygon fill="#63b8ff" stroke="#63b8ff" points="541.73,-848.4 551.38,-852.78 546.57,-843.34 541.73,-848.4"/>
</a>
</g>
</g>
<!-- Node343&#45;&gt;Node24 -->
<g id="edge44_Node000343_Node000024" class="edge">
<title>Node343&#45;&gt;Node24</title>
<g id="a_edge44_Node000343_Node000024"><a xlink:title=" ">
<path fill="none" stroke="#63b8ff" d="M310.34,-389.09C314.62,-391.35 318.6,-394.11 322,-397.5 368.98,-444.31 404.78,-653.88 415.03,-719.67"/>
<polygon fill="#63b8ff" stroke="#63b8ff" points="411.62,-720.55 416.59,-729.9 418.54,-719.49 411.62,-720.55"/>
</a>
</g>
</g>
<!-- Node377&#45;&gt;Node8 -->
<g id="edge52_Node000377_Node000008" class="edge">
<title>Node377&#45;&gt;Node8</title>
<g id="a_edge52_Node000377_Node000008"><a xlink:title=" ">
<path fill="none" stroke="#63b8ff" d="M296.1,-153.37C305.47,-155.75 314.83,-159.94 322,-166.5 395.21,-233.41 412.9,-361.77 416.9,-410.98"/>
<polygon fill="#63b8ff" stroke="#63b8ff" points="413.41,-411.25 417.61,-420.98 420.39,-410.76 413.41,-411.25"/>
</a>
</g>
</g>
<!-- Node377&#45;&gt;Node8 -->
<g id="edge53_Node000377_Node000008" class="edge">
<title>Node377&#45;&gt;Node8</title>
<g id="a_edge53_Node000377_Node000008"><a xlink:title=" ">
<path fill="none" stroke="#63b8ff" d="M282.15,-167.01C295.45,-170.1 311.2,-174.63 322,-184.5 390.71,-247.3 410.51,-364.22 416,-410.87"/>
<polygon fill="#63b8ff" stroke="#63b8ff" points="412.53,-411.34 417.08,-420.9 419.49,-410.58 412.53,-411.34"/>
</a>
</g>
</g>
<!-- Node379&#45;&gt;Node2 -->
<g id="edge55_Node000379_Node000002" class="edge">
<title>Node379&#45;&gt;Node2</title>
<g id="a_edge55_Node000379_Node000002"><a xlink:title=" ">
<path fill="none" stroke="#63b8ff" d="M312.39,-130.04C316.02,-132.33 319.3,-135.11 322,-138.5 377.72,-208.44 306.22,-869.59 358,-942.5 358.46,-943.15 358.95,-943.79 359.45,-944.4"/>
<polygon fill="#63b8ff" stroke="#63b8ff" points="357.27,-947.16 366.94,-951.49 362.08,-942.08 357.27,-947.16"/>
</a>
</g>
</g>
<!-- Node379&#45;&gt;Node8 -->
<g id="edge56_Node000379_Node000008" class="edge">
<title>Node379&#45;&gt;Node8</title>
<g id="a_edge56_Node000379_Node000008"><a xlink:title=" ">
<path fill="none" stroke="#63b8ff" d="M318.54,-126.53C319.74,-127.46 320.9,-128.45 322,-129.5 403.85,-207.56 415.97,-356.52 417.72,-410.58"/>
<polygon fill="#63b8ff" stroke="#63b8ff" points="414.23,-410.96 417.96,-420.88 421.23,-410.8 414.23,-410.96"/>
</a>
</g>
</g>
<!-- Node379&#45;&gt;Node8 -->
<g id="edge57_Node000379_Node000008" class="edge">
<title>Node379&#45;&gt;Node8</title>
<g id="a_edge57_Node000379_Node000008"><a xlink:title=" ">
<path fill="none" stroke="#63b8ff" d="M283.29,-130.05C296.41,-133.09 311.66,-137.64 322,-147.5 399.55,-221.45 414.51,-359.06 417.35,-410.61"/>
<polygon fill="#63b8ff" stroke="#63b8ff" points="413.86,-410.93 417.81,-420.76 420.86,-410.61 413.86,-410.93"/>
</a>
</g>
</g>
</g>
</svg>
