<?xml version="1.0" encoding="UTF-8" standalone="no"?>
<!DOCTYPE svg PUBLIC "-//W3C//DTD SVG 1.1//EN"
 "http://www.w3.org/Graphics/SVG/1.1/DTD/svg11.dtd">
<!-- Generated by graphviz version 2.43.0 (0)
 -->
<!-- Title: reloadInputFiles Pages: 1 -->
<svg width="269pt" height="1112pt"
 viewBox="0.00 0.00 269.00 1112.00" xmlns="http://www.w3.org/2000/svg" xmlns:xlink="http://www.w3.org/1999/xlink">
<g id="graph0" class="graph" transform="scale(1 1) rotate(0) translate(4 1108)">
<title>reloadInputFiles</title>
<!-- Node1 -->
<g id="Node000001" class="node">
<title>Node1</title>
<g id="a_Node000001"><a xlink:href="inputs_8cpp.html#a414f34e8bd65aa4d83398bab54236157" target="_top" xlink:title=" ">
<path fill="#fff0f0" stroke="red" stroke-width="2" d="M88.67,-549C88.67,-549 6.33,-549 6.33,-549 3.17,-549 0,-545.83 0,-542.67 0,-542.67 0,-536.33 0,-536.33 0,-533.17 3.17,-530 6.33,-530 6.33,-530 88.67,-530 88.67,-530 91.83,-530 95,-533.17 95,-536.33 95,-536.33 95,-542.67 95,-542.67 95,-545.83 91.83,-549 88.67,-549"/>
<text text-anchor="middle" x="47.5" y="-537" font-family="Helvetica,sans-Serif" font-size="10.00">reloadInputFiles</text>
</a>
</g>
</g>
<!-- Node2 -->
<g id="Node000002" class="node">
<title>Node2</title>
<g id="a_Node000002"><a xlink:href="inputs_8cpp.html#a3f8b2c6b14e9c0440a9f26006979eb42" target="_top" xlink:title=" ">
<polygon fill="#ffc770" stroke="#ff8f00" points="236,-1104 162.33,-1104 162.33,-1106.11 156,-1106.11 156,-1085 236,-1085 236,-1104"/>
<polyline fill="none" stroke="#ff8f00" points="156,-1104 162.33,-1104 "/>
<text text-anchor="middle" x="196" y="-1092" font-family="Helvetica,sans-Serif" font-size="10.00">Input_Files__</text>
</a>
</g>
</g>
<!-- Node1&#45;&gt;Node2 -->
<g id="edge1_Node000001_Node000002" class="edge">
<title>Node1&#45;&gt;Node2</title>
<g id="a_edge1_Node000001_Node000002"><a xlink:title=" ">
<path fill="none" stroke="#63b8ff" d="M48.61,-549.3C49.53,-615.25 58.01,-994.04 131,-1076.5 135.22,-1081.26 140.59,-1084.81 146.41,-1087.44"/>
<polygon fill="#63b8ff" stroke="#63b8ff" points="145.26,-1090.75 155.85,-1090.87 147.65,-1084.17 145.26,-1090.75"/>
</a>
</g>
</g>
<!-- Node13 -->
<g id="Node000013" class="node">
<title>Node13</title>
<g id="a_Node000013"><a xlink:href="inputs_8cpp.html#a34804c3a0ffc29cad1548a9a3af91d45" target="_top" xlink:title=" ">
<path fill="#fff0f0" stroke="red" d="M244.67,-1067C244.67,-1067 147.33,-1067 147.33,-1067 144.17,-1067 141,-1063.83 141,-1060.67 141,-1060.67 141,-1054.33 141,-1054.33 141,-1051.17 144.17,-1048 147.33,-1048 147.33,-1048 244.67,-1048 244.67,-1048 247.83,-1048 251,-1051.17 251,-1054.33 251,-1054.33 251,-1060.67 251,-1060.67 251,-1063.83 247.83,-1067 244.67,-1067"/>
<text text-anchor="middle" x="196" y="-1055" font-family="Helvetica,sans-Serif" font-size="10.00">removeInvalidFiles</text>
</a>
</g>
</g>
<!-- Node1&#45;&gt;Node13 -->
<g id="edge2_Node000001_Node000013" class="edge">
<title>Node1&#45;&gt;Node13</title>
<g id="a_edge2_Node000001_Node000013"><a xlink:title=" ">
<path fill="none" stroke="#63b8ff" d="M48.79,-549.12C50.7,-611.59 63.52,-955.11 131,-1030.5 137.57,-1037.84 146.87,-1042.29 156.36,-1045.29"/>
<polygon fill="#63b8ff" stroke="#63b8ff" points="155.63,-1048.72 166.2,-1047.95 157.46,-1041.96 155.63,-1048.72"/>
</a>
</g>
</g>
<!-- Node1&#45;&gt;Node13 -->
<g id="edge5_Node000001_Node000013" class="edge">
<title>Node1&#45;&gt;Node13</title>
<g id="a_edge5_Node000001_Node000013"><a xlink:title=" ">
<path fill="none" stroke="#63b8ff" d="M48.67,-549.11C50.12,-613.01 61.91,-971.31 131,-1048.5 131.53,-1049.1 132.09,-1049.67 132.65,-1050.23"/>
<polygon fill="#63b8ff" stroke="#63b8ff" points="130.8,-1053.22 140.88,-1056.48 135.03,-1047.64 130.8,-1053.22"/>
</a>
</g>
</g>
<!-- Node15 -->
<g id="Node000015" class="node">
<title>Node15</title>
<g id="a_Node000015"><a xlink:href="inputs_8cpp.html#a044cd088d8a6d17451b655ea49b820f7" target="_top" xlink:title=" ">
<path fill="#fff0f0" stroke="red" d="M226.67,-1030C226.67,-1030 165.33,-1030 165.33,-1030 162.17,-1030 159,-1026.83 159,-1023.67 159,-1023.67 159,-1017.33 159,-1017.33 159,-1014.17 162.17,-1011 165.33,-1011 165.33,-1011 226.67,-1011 226.67,-1011 229.83,-1011 233,-1014.17 233,-1017.33 233,-1017.33 233,-1023.67 233,-1023.67 233,-1026.83 229.83,-1030 226.67,-1030"/>
<text text-anchor="middle" x="196" y="-1018" font-family="Helvetica,sans-Serif" font-size="10.00">fileChanged</text>
</a>
</g>
</g>
<!-- Node1&#45;&gt;Node15 -->
<g id="edge3_Node000001_Node000015" class="edge">
<title>Node1&#45;&gt;Node15</title>
<g id="a_edge3_Node000001_Node000015"><a xlink:title=" ">
<path fill="none" stroke="#63b8ff" d="M48.98,-549.39C51.81,-609.78 68.34,-924.39 131,-993.5 137.67,-1000.86 147.1,-1005.31 156.67,-1008.31"/>
<polygon fill="#63b8ff" stroke="#63b8ff" points="156.02,-1011.76 166.58,-1010.97 157.83,-1005 156.02,-1011.76"/>
</a>
</g>
</g>
<!-- Node1&#45;&gt;Node15 -->
<g id="edge6_Node000001_Node000015" class="edge">
<title>Node1&#45;&gt;Node15</title>
<g id="a_edge6_Node000001_Node000015"><a xlink:title=" ">
<path fill="none" stroke="#63b8ff" d="M48.79,-549.33C50.97,-611.09 66.7,-940.58 131,-1011.5 135.96,-1016.97 142.43,-1020.83 149.35,-1023.4"/>
<polygon fill="#63b8ff" stroke="#63b8ff" points="148.39,-1026.77 158.97,-1026.14 150.31,-1020.03 148.39,-1026.77"/>
</a>
</g>
</g>
<!-- Node16 -->
<g id="Node000016" class="node">
<title>Node16</title>
<g id="a_Node000016"><a xlink:href="antenna_8cpp.html#a8c56b39d78caff862f84c8364a392bc4" target="_top" xlink:title="Read antex file.">
<path fill="#fff0f0" stroke="red" d="M224.67,-993C224.67,-993 167.33,-993 167.33,-993 164.17,-993 161,-989.83 161,-986.67 161,-986.67 161,-980.33 161,-980.33 161,-977.17 164.17,-974 167.33,-974 167.33,-974 224.67,-974 224.67,-974 227.83,-974 231,-977.17 231,-980.33 231,-980.33 231,-986.67 231,-986.67 231,-989.83 227.83,-993 224.67,-993"/>
<text text-anchor="middle" x="196" y="-981" font-family="Helvetica,sans-Serif" font-size="10.00">readantexf</text>
</a>
</g>
</g>
<!-- Node1&#45;&gt;Node16 -->
<g id="edge4_Node000001_Node000016" class="edge">
<title>Node1&#45;&gt;Node16</title>
<g id="a_edge4_Node000001_Node000016"><a xlink:title=" ">
<path fill="none" stroke="#63b8ff" d="M49.02,-549.06C52.32,-606.14 72.08,-901.48 131,-965.5 136.39,-971.35 143.51,-975.36 151.04,-978.09"/>
<polygon fill="#63b8ff" stroke="#63b8ff" points="150.13,-981.47 160.71,-980.9 152.09,-974.75 150.13,-981.47"/>
</a>
</g>
</g>
<!-- Node24 -->
<g id="Node000024" class="node">
<title>Node24</title>
<g id="a_Node000024"><a xlink:href="sp3_8cpp.html#af6e0e807aea49536081f81fc9c9bb988" target="_top" xlink:title=" ">
<path fill="#fff0f0" stroke="red" d="M232.67,-956C232.67,-956 159.33,-956 159.33,-956 156.17,-956 153,-952.83 153,-949.67 153,-949.67 153,-943.33 153,-943.33 153,-940.17 156.17,-937 159.33,-937 159.33,-937 232.67,-937 232.67,-937 235.83,-937 239,-940.17 239,-943.33 239,-943.33 239,-949.67 239,-949.67 239,-952.83 235.83,-956 232.67,-956"/>
<text text-anchor="middle" x="196" y="-944" font-family="Helvetica,sans-Serif" font-size="10.00">readSp3ToNav</text>
</a>
</g>
</g>
<!-- Node1&#45;&gt;Node24 -->
<g id="edge7_Node000001_Node000024" class="edge">
<title>Node1&#45;&gt;Node24</title>
<g id="a_edge7_Node000001_Node000024"><a xlink:title=" ">
<path fill="none" stroke="#63b8ff" d="M49.23,-549.28C53.48,-603.9 76.84,-870.69 131,-928.5 134.56,-932.3 138.85,-935.32 143.5,-937.71"/>
<polygon fill="#63b8ff" stroke="#63b8ff" points="142.23,-940.97 152.81,-941.59 144.92,-934.51 142.23,-940.97"/>
</a>
</g>
</g>
<!-- Node31 -->
<g id="Node000031" class="node">
<title>Node31</title>
<g id="a_Node000031"><a xlink:href="orbex_8cpp.html#a1dfbfc8e61777c0b2063a98292a9afe1" target="_top" xlink:title="Read an ORBEX file into navigation data struct.">
<path fill="#fff0f0" stroke="red" d="M223.67,-919C223.67,-919 168.33,-919 168.33,-919 165.17,-919 162,-915.83 162,-912.67 162,-912.67 162,-906.33 162,-906.33 162,-903.17 165.17,-900 168.33,-900 168.33,-900 223.67,-900 223.67,-900 226.83,-900 230,-903.17 230,-906.33 230,-906.33 230,-912.67 230,-912.67 230,-915.83 226.83,-919 223.67,-919"/>
<text text-anchor="middle" x="196" y="-907" font-family="Helvetica,sans-Serif" font-size="10.00">readOrbex</text>
</a>
</g>
</g>
<!-- Node1&#45;&gt;Node31 -->
<g id="edge8_Node000001_Node000031" class="edge">
<title>Node1&#45;&gt;Node31</title>
<g id="a_edge8_Node000001_Node000031"><a xlink:title=" ">
<path fill="none" stroke="#63b8ff" d="M49.44,-549.02C54.62,-599.93 81.42,-839.69 131,-891.5 136.73,-897.49 144.28,-901.53 152.18,-904.25"/>
<polygon fill="#63b8ff" stroke="#63b8ff" points="151.32,-907.65 161.89,-906.96 153.19,-900.9 151.32,-907.65"/>
</a>
</g>
</g>
<!-- Node36 -->
<g id="Node000036" class="node">
<title>Node36</title>
<g id="a_Node000036"><a xlink:href="erp_8cpp.html#a76c420194b20727ba241223dad38241c" target="_top" xlink:title="read earth rotation parameters">
<path fill="#fff0f0" stroke="red" d="M216.67,-882C216.67,-882 175.33,-882 175.33,-882 172.17,-882 169,-878.83 169,-875.67 169,-875.67 169,-869.33 169,-869.33 169,-866.17 172.17,-863 175.33,-863 175.33,-863 216.67,-863 216.67,-863 219.83,-863 223,-866.17 223,-869.33 223,-869.33 223,-875.67 223,-875.67 223,-878.83 219.83,-882 216.67,-882"/>
<text text-anchor="middle" x="196" y="-870" font-family="Helvetica,sans-Serif" font-size="10.00">readErp</text>
</a>
</g>
</g>
<!-- Node1&#45;&gt;Node36 -->
<g id="edge9_Node000001_Node000036" class="edge">
<title>Node1&#45;&gt;Node36</title>
<g id="a_edge9_Node000001_Node000036"><a xlink:title=" ">
<path fill="none" stroke="#63b8ff" d="M49.75,-549.26C56.08,-597.39 86.14,-808.82 131,-854.5 138.4,-862.03 148.69,-866.48 158.85,-869.09"/>
<polygon fill="#63b8ff" stroke="#63b8ff" points="158.36,-872.56 168.86,-871.13 159.76,-865.7 158.36,-872.56"/>
</a>
</g>
</g>
<!-- Node42 -->
<g id="Node000042" class="node">
<title>Node42</title>
<g id="a_Node000042"><a xlink:href="ephPrecise_8cpp.html#af673ac04c3dea7304383eb4ef76318ba" target="_top" xlink:title="read dcb parameters file">
<path fill="#fff0f0" stroke="red" d="M217.67,-845C217.67,-845 174.33,-845 174.33,-845 171.17,-845 168,-841.83 168,-838.67 168,-838.67 168,-832.33 168,-832.33 168,-829.17 171.17,-826 174.33,-826 174.33,-826 217.67,-826 217.67,-826 220.83,-826 224,-829.17 224,-832.33 224,-832.33 224,-838.67 224,-838.67 224,-841.83 220.83,-845 217.67,-845"/>
<text text-anchor="middle" x="196" y="-833" font-family="Helvetica,sans-Serif" font-size="10.00">readdcb</text>
</a>
</g>
</g>
<!-- Node1&#45;&gt;Node42 -->
<g id="edge10_Node000001_Node000042" class="edge">
<title>Node1&#45;&gt;Node42</title>
<g id="a_edge10_Node000001_Node000042"><a xlink:title=" ">
<path fill="none" stroke="#63b8ff" d="M48.26,-549.02C47.83,-588.28 51.59,-739.22 131,-817.5 138.2,-824.6 147.96,-828.94 157.69,-831.59"/>
<polygon fill="#63b8ff" stroke="#63b8ff" points="157.2,-835.07 167.71,-833.78 158.69,-828.23 157.2,-835.07"/>
</a>
</g>
</g>
<!-- Node47 -->
<g id="Node000047" class="node">
<title>Node47</title>
<g id="a_Node000047"><a xlink:href="biasSINEXread_8cpp.html#a9de856d6ae992fe8b154b1a7d847f057" target="_top" xlink:title="Read single bias SINEX file.">
<path fill="#fff0f0" stroke="red" d="M232.67,-808C232.67,-808 159.33,-808 159.33,-808 156.17,-808 153,-804.83 153,-801.67 153,-801.67 153,-795.33 153,-795.33 153,-792.17 156.17,-789 159.33,-789 159.33,-789 232.67,-789 232.67,-789 235.83,-789 239,-792.17 239,-795.33 239,-795.33 239,-801.67 239,-801.67 239,-804.83 235.83,-808 232.67,-808"/>
<text text-anchor="middle" x="196" y="-796" font-family="Helvetica,sans-Serif" font-size="10.00">readBiasSinex</text>
</a>
</g>
</g>
<!-- Node1&#45;&gt;Node47 -->
<g id="edge11_Node000001_Node000047" class="edge">
<title>Node1&#45;&gt;Node47</title>
<g id="a_edge11_Node000001_Node000047"><a xlink:title=" ">
<path fill="none" stroke="#63b8ff" d="M48.78,-549.47C50.38,-586.07 60.96,-714.25 131,-780.5 134.58,-783.89 138.76,-786.65 143.22,-788.9"/>
<polygon fill="#63b8ff" stroke="#63b8ff" points="142.12,-792.23 152.7,-792.82 144.8,-785.76 142.12,-792.23"/>
</a>
</g>
</g>
<!-- Node52 -->
<g id="Node000052" class="node">
<title>Node52</title>
<g id="a_Node000052"><a xlink:href="ionex_8cpp.html#a3a4e74c6fefa94fe02fb7f63f8c6bf55" target="_top" xlink:title="read ionex tec grid file">
<path fill="#fff0f0" stroke="red" d="M216.67,-771C216.67,-771 175.33,-771 175.33,-771 172.17,-771 169,-767.83 169,-764.67 169,-764.67 169,-758.33 169,-758.33 169,-755.17 172.17,-752 175.33,-752 175.33,-752 216.67,-752 216.67,-752 219.83,-752 223,-755.17 223,-758.33 223,-758.33 223,-764.67 223,-764.67 223,-767.83 219.83,-771 216.67,-771"/>
<text text-anchor="middle" x="196" y="-759" font-family="Helvetica,sans-Serif" font-size="10.00">readTec</text>
</a>
</g>
</g>
<!-- Node1&#45;&gt;Node52 -->
<g id="edge12_Node000001_Node000052" class="edge">
<title>Node1&#45;&gt;Node52</title>
<g id="a_edge12_Node000001_Node000052"><a xlink:title=" ">
<path fill="none" stroke="#63b8ff" d="M49.46,-549.31C53.21,-582.06 69.81,-688.71 131,-743.5 138.74,-750.43 148.95,-754.71 158.93,-757.35"/>
<polygon fill="#63b8ff" stroke="#63b8ff" points="158.23,-760.78 168.74,-759.48 159.71,-753.94 158.23,-760.78"/>
</a>
</g>
</g>
<!-- Node59 -->
<g id="Node000059" class="node">
<title>Node59</title>
<g id="a_Node000059"><a xlink:href="geomagField_8cpp.html#ad1877a5076ce9da964052260c9330d92" target="_top" xlink:title="Read the IGRF file Only support the latest generations of IGRF file from IGRF&#45;11.">
<path fill="#fff0f0" stroke="red" d="M220.67,-734C220.67,-734 171.33,-734 171.33,-734 168.17,-734 165,-730.83 165,-727.67 165,-727.67 165,-721.33 165,-721.33 165,-718.17 168.17,-715 171.33,-715 171.33,-715 220.67,-715 220.67,-715 223.83,-715 227,-718.17 227,-721.33 227,-721.33 227,-727.67 227,-727.67 227,-730.83 223.83,-734 220.67,-734"/>
<text text-anchor="middle" x="196" y="-722" font-family="Helvetica,sans-Serif" font-size="10.00">readIGRF</text>
</a>
</g>
</g>
<!-- Node1&#45;&gt;Node59 -->
<g id="edge13_Node000001_Node000059" class="edge">
<title>Node1&#45;&gt;Node59</title>
<g id="a_edge13_Node000001_Node000059"><a xlink:title=" ">
<path fill="none" stroke="#63b8ff" d="M50.39,-549.13C56.5,-577.72 78.51,-662.91 131,-706.5 137.9,-712.23 146.52,-716.14 155.16,-718.81"/>
<polygon fill="#63b8ff" stroke="#63b8ff" points="154.29,-722.2 164.85,-721.32 156.05,-715.43 154.29,-722.2"/>
</a>
</g>
</g>
<!-- Node60 -->
<g id="Node000060" class="node">
<title>Node60</title>
<g id="a_Node000060"><a xlink:href="sinex_8cpp.html#a8158a26dff2992abae0d3ede1bc0cefb" target="_top" xlink:title=" ">
<path fill="#fff0f0" stroke="red" d="M222.17,-697C222.17,-697 169.83,-697 169.83,-697 166.67,-697 163.5,-693.83 163.5,-690.67 163.5,-690.67 163.5,-684.33 163.5,-684.33 163.5,-681.17 166.67,-678 169.83,-678 169.83,-678 222.17,-678 222.17,-678 225.33,-678 228.5,-681.17 228.5,-684.33 228.5,-684.33 228.5,-690.67 228.5,-690.67 228.5,-693.83 225.33,-697 222.17,-697"/>
<text text-anchor="middle" x="196" y="-685" font-family="Helvetica,sans-Serif" font-size="10.00">readSinex</text>
</a>
</g>
</g>
<!-- Node1&#45;&gt;Node60 -->
<g id="edge14_Node000001_Node000060" class="edge">
<title>Node1&#45;&gt;Node60</title>
<g id="a_edge14_Node000001_Node000060"><a xlink:title=" ">
<path fill="none" stroke="#63b8ff" d="M51.78,-549.03C60.58,-573.1 87.04,-636.79 131,-669.5 137.65,-674.45 145.6,-678.04 153.61,-680.64"/>
<polygon fill="#63b8ff" stroke="#63b8ff" points="152.74,-684.03 163.31,-683.35 154.62,-677.29 152.74,-684.03"/>
</a>
</g>
</g>
<!-- Node111 -->
<g id="Node000111" class="node">
<title>Node111</title>
<g id="a_Node000111"><a xlink:href="ppp__pseudoobs_8cpp.html#ac019b6a4c6207a0f220870d5bd55332b" target="_top" xlink:title=" ">
<path fill="#fff0f0" stroke="red" d="M250.17,-660C250.17,-660 141.83,-660 141.83,-660 138.67,-660 135.5,-656.83 135.5,-653.67 135.5,-653.67 135.5,-647.33 135.5,-647.33 135.5,-644.17 138.67,-641 141.83,-641 141.83,-641 250.17,-641 250.17,-641 253.33,-641 256.5,-644.17 256.5,-647.33 256.5,-647.33 256.5,-653.67 256.5,-653.67 256.5,-656.83 253.33,-660 250.17,-660"/>
<text text-anchor="middle" x="196" y="-648" font-family="Helvetica,sans-Serif" font-size="10.00">readPseudosFromFile</text>
</a>
</g>
</g>
<!-- Node1&#45;&gt;Node111 -->
<g id="edge15_Node000001_Node000111" class="edge">
<title>Node1&#45;&gt;Node111</title>
<g id="a_edge15_Node000001_Node000111"><a xlink:title=" ">
<path fill="none" stroke="#63b8ff" d="M54.25,-549.02C66.14,-567.89 95.33,-610.16 131,-632.5 133.65,-634.16 136.46,-635.67 139.37,-637.05"/>
<polygon fill="#63b8ff" stroke="#63b8ff" points="138.3,-640.4 148.88,-640.99 140.98,-633.93 138.3,-640.4"/>
</a>
</g>
</g>
<!-- Node112 -->
<g id="Node000112" class="node">
<title>Node112</title>
<g id="a_Node000112"><a xlink:href="tropVMF3_8cpp.html#a5566354545a4f33b56e516653ecbf3a6" target="_top" xlink:title="read orography file">
<path fill="#fff0f0" stroke="red" d="M219.67,-623C219.67,-623 172.33,-623 172.33,-623 169.17,-623 166,-619.83 166,-616.67 166,-616.67 166,-610.33 166,-610.33 166,-607.17 169.17,-604 172.33,-604 172.33,-604 219.67,-604 219.67,-604 222.83,-604 226,-607.17 226,-610.33 226,-610.33 226,-616.67 226,-616.67 226,-619.83 222.83,-623 219.67,-623"/>
<text text-anchor="middle" x="196" y="-611" font-family="Helvetica,sans-Serif" font-size="10.00">readorog</text>
</a>
</g>
</g>
<!-- Node1&#45;&gt;Node112 -->
<g id="edge16_Node000001_Node000112" class="edge">
<title>Node1&#45;&gt;Node112</title>
<g id="a_edge16_Node000001_Node000112"><a xlink:title=" ">
<path fill="none" stroke="#63b8ff" d="M60.06,-549.15C75.39,-561.49 103.69,-582.8 131,-595.5 138.9,-599.17 147.7,-602.24 156.19,-604.75"/>
<polygon fill="#63b8ff" stroke="#63b8ff" points="155.37,-608.15 165.94,-607.43 157.23,-601.4 155.37,-608.15"/>
</a>
</g>
</g>
<!-- Node113 -->
<g id="Node000113" class="node">
<title>Node113</title>
<g id="a_Node000113"><a xlink:href="tropVMF3_8cpp.html#a5d110a6f9820120ea75dce88891a17ef" target="_top" xlink:title="read vmf3 grid">
<path fill="#fff0f0" stroke="red" d="M221.67,-586C221.67,-586 170.33,-586 170.33,-586 167.17,-586 164,-582.83 164,-579.67 164,-579.67 164,-573.33 164,-573.33 164,-570.17 167.17,-567 170.33,-567 170.33,-567 221.67,-567 221.67,-567 224.83,-567 228,-570.17 228,-573.33 228,-573.33 228,-579.67 228,-579.67 228,-582.83 224.83,-586 221.67,-586"/>
<text text-anchor="middle" x="196" y="-574" font-family="Helvetica,sans-Serif" font-size="10.00">readvmf3</text>
</a>
</g>
</g>
<!-- Node1&#45;&gt;Node113 -->
<g id="edge17_Node000001_Node000113" class="edge">
<title>Node1&#45;&gt;Node113</title>
<g id="a_edge17_Node000001_Node000113"><a xlink:title=" ">
<path fill="none" stroke="#63b8ff" d="M86.23,-549.03C107.01,-554.28 132.83,-560.8 154.1,-566.17"/>
<polygon fill="#63b8ff" stroke="#63b8ff" points="153.27,-569.57 163.82,-568.63 154.99,-562.78 153.27,-569.57"/>
</a>
</g>
</g>
<!-- Node114 -->
<g id="Node000114" class="node">
<title>Node114</title>
<g id="a_Node000114"><a xlink:href="tropGPT2_8cpp.html#a9cb1f8e0908853c764fe59d90e855e66" target="_top" xlink:title="read GPT grid file">
<path fill="#fff0f0" stroke="red" d="M218.17,-549C218.17,-549 173.83,-549 173.83,-549 170.67,-549 167.5,-545.83 167.5,-542.67 167.5,-542.67 167.5,-536.33 167.5,-536.33 167.5,-533.17 170.67,-530 173.83,-530 173.83,-530 218.17,-530 218.17,-530 221.33,-530 224.5,-533.17 224.5,-536.33 224.5,-536.33 224.5,-542.67 224.5,-542.67 224.5,-545.83 221.33,-549 218.17,-549"/>
<text text-anchor="middle" x="196" y="-537" font-family="Helvetica,sans-Serif" font-size="10.00">readgrid</text>
</a>
</g>
</g>
<!-- Node1&#45;&gt;Node114 -->
<g id="edge18_Node000001_Node000114" class="edge">
<title>Node1&#45;&gt;Node114</title>
<g id="a_edge18_Node000001_Node000114"><a xlink:title=" ">
<path fill="none" stroke="#63b8ff" d="M95.26,-539.5C115.32,-539.5 138.45,-539.5 157.39,-539.5"/>
<polygon fill="#63b8ff" stroke="#63b8ff" points="157.43,-543 167.43,-539.5 157.43,-536 157.43,-543"/>
</a>
</g>
</g>
<!-- Node115 -->
<g id="Node000115" class="node">
<title>Node115</title>
<g id="a_Node000115"><a xlink:href="tides_8cpp.html#a1425ef4f680e83dce84af83d374efa25" target="_top" xlink:title="Read ocean pole load tide coefficients.">
<path fill="#fff0f0" stroke="red" d="M247.67,-512C247.67,-512 144.33,-512 144.33,-512 141.17,-512 138,-508.83 138,-505.67 138,-505.67 138,-499.33 138,-499.33 138,-496.17 141.17,-493 144.33,-493 144.33,-493 247.67,-493 247.67,-493 250.83,-493 254,-496.17 254,-499.33 254,-499.33 254,-505.67 254,-505.67 254,-508.83 250.83,-512 247.67,-512"/>
<text text-anchor="middle" x="196" y="-500" font-family="Helvetica,sans-Serif" font-size="10.00">readOceanPoleCoeff</text>
</a>
</g>
</g>
<!-- Node1&#45;&gt;Node115 -->
<g id="edge19_Node000001_Node000115" class="edge">
<title>Node1&#45;&gt;Node115</title>
<g id="a_edge19_Node000001_Node000115"><a xlink:title=" ">
<path fill="none" stroke="#63b8ff" d="M86.23,-529.97C104.87,-525.26 127.55,-519.53 147.38,-514.53"/>
<polygon fill="#63b8ff" stroke="#63b8ff" points="148.31,-517.9 157.15,-512.06 146.59,-511.12 148.31,-517.9"/>
</a>
</g>
</g>
<!-- Node116 -->
<g id="Node000116" class="node">
<title>Node116</title>
<g id="a_Node000116"><a xlink:href="tides_8cpp.html#a24750aaade7aafe7ddc03feec0b31826" target="_top" xlink:title="Read BLQ ocean/atmospheric tide loading parameters.">
<path fill="#fff0f0" stroke="red" d="M216.67,-475C216.67,-475 175.33,-475 175.33,-475 172.17,-475 169,-471.83 169,-468.67 169,-468.67 169,-462.33 169,-462.33 169,-459.17 172.17,-456 175.33,-456 175.33,-456 216.67,-456 216.67,-456 219.83,-456 223,-459.17 223,-462.33 223,-462.33 223,-468.67 223,-468.67 223,-471.83 219.83,-475 216.67,-475"/>
<text text-anchor="middle" x="196" y="-463" font-family="Helvetica,sans-Serif" font-size="10.00">readBlq</text>
</a>
</g>
</g>
<!-- Node1&#45;&gt;Node116 -->
<g id="edge20_Node000001_Node000116" class="edge">
<title>Node1&#45;&gt;Node116</title>
<g id="a_edge20_Node000001_Node000116"><a xlink:title=" ">
<path fill="none" stroke="#63b8ff" d="M54.53,-529.7C67.66,-514.96 100.14,-489.97 131,-475.5 139.79,-471.38 149.67,-467.93 158.99,-465.45"/>
<polygon fill="#63b8ff" stroke="#63b8ff" points="159.87,-468.84 168.81,-463.17 158.28,-462.03 159.87,-468.84"/>
</a>
</g>
</g>
<!-- Node1&#45;&gt;Node116 -->
<g id="edge21_Node000001_Node000116" class="edge">
<title>Node1&#45;&gt;Node116</title>
<g id="a_edge21_Node000001_Node000116"><a xlink:title=" ">
<path fill="none" stroke="#63b8ff" d="M70.18,-529.91C86.23,-519.44 109.02,-503.8 131,-493.5 144.04,-487.39 159.49,-482.74 171.95,-478.54"/>
<polygon fill="#63b8ff" stroke="#63b8ff" points="173.35,-481.75 181.58,-475.09 170.99,-475.16 173.35,-481.75"/>
</a>
</g>
</g>
<!-- Node119 -->
<g id="Node000119" class="node">
<title>Node119</title>
<g id="a_Node000119"><a xlink:href="slrObs_8cpp.html#a15786adbb4dc583f63d95e8a0f35d999" target="_top" xlink:title="Read sat ID file.">
<path fill="#fff0f0" stroke="red" d="M221.17,-438C221.17,-438 170.83,-438 170.83,-438 167.67,-438 164.5,-434.83 164.5,-431.67 164.5,-431.67 164.5,-425.33 164.5,-425.33 164.5,-422.17 167.67,-419 170.83,-419 170.83,-419 221.17,-419 221.17,-419 224.33,-419 227.5,-422.17 227.5,-425.33 227.5,-425.33 227.5,-431.67 227.5,-431.67 227.5,-434.83 224.33,-438 221.17,-438"/>
<text text-anchor="middle" x="196" y="-426" font-family="Helvetica,sans-Serif" font-size="10.00">readSatId</text>
</a>
</g>
</g>
<!-- Node1&#45;&gt;Node119 -->
<g id="edge22_Node000001_Node000119" class="edge">
<title>Node1&#45;&gt;Node119</title>
<g id="a_edge22_Node000001_Node000119"><a xlink:title=" ">
<path fill="none" stroke="#63b8ff" d="M54.48,-529.84C66.59,-511.11 95.83,-469.76 131,-447.5 138.1,-443.01 146.32,-439.53 154.44,-436.86"/>
<polygon fill="#63b8ff" stroke="#63b8ff" points="155.62,-440.17 164.23,-433.99 153.65,-433.45 155.62,-440.17"/>
</a>
</g>
</g>
<!-- Node120 -->
<g id="Node000120" class="node">
<title>Node120</title>
<g id="a_Node000120"><a xlink:href="slrObs_8cpp.html#a38ee0a5d01fed7dee3c29841ca02b54a" target="_top" xlink:title="Extracts observations from a given CRD (.npt) file.">
<path fill="#fff0f0" stroke="red" d="M217.17,-401C217.17,-401 174.83,-401 174.83,-401 171.67,-401 168.5,-397.83 168.5,-394.67 168.5,-394.67 168.5,-388.33 168.5,-388.33 168.5,-385.17 171.67,-382 174.83,-382 174.83,-382 217.17,-382 217.17,-382 220.33,-382 223.5,-385.17 223.5,-388.33 223.5,-388.33 223.5,-394.67 223.5,-394.67 223.5,-397.83 220.33,-401 217.17,-401"/>
<text text-anchor="middle" x="196" y="-389" font-family="Helvetica,sans-Serif" font-size="10.00">readCrd</text>
</a>
</g>
</g>
<!-- Node1&#45;&gt;Node120 -->
<g id="edge23_Node000001_Node000120" class="edge">
<title>Node1&#45;&gt;Node120</title>
<g id="a_edge23_Node000001_Node000120"><a xlink:title=" ">
<path fill="none" stroke="#63b8ff" d="M51.97,-529.73C61.01,-505.67 87.67,-443.11 131,-410.5 139.04,-404.45 148.99,-400.31 158.63,-397.5"/>
<polygon fill="#63b8ff" stroke="#63b8ff" points="159.63,-400.85 168.47,-395.01 157.92,-394.07 159.63,-400.85"/>
</a>
</g>
</g>
<!-- Node125 -->
<g id="Node000125" class="node">
<title>Node125</title>
<g id="a_Node000125"><a xlink:href="slrObs_8cpp.html#a8f4c7f3ebd17e93d03acee01f5e9862e" target="_top" xlink:title="Outputs a tabular file with SLR observations in time&#45;order.">
<path fill="#fff0f0" stroke="red" d="M245.17,-364C245.17,-364 146.83,-364 146.83,-364 143.67,-364 140.5,-360.83 140.5,-357.67 140.5,-357.67 140.5,-351.33 140.5,-351.33 140.5,-348.17 143.67,-345 146.83,-345 146.83,-345 245.17,-345 245.17,-345 248.33,-345 251.5,-348.17 251.5,-351.33 251.5,-351.33 251.5,-357.67 251.5,-357.67 251.5,-360.83 248.33,-364 245.17,-364"/>
<text text-anchor="middle" x="196" y="-352" font-family="Helvetica,sans-Serif" font-size="10.00">outputSortedSlrObs</text>
</a>
</g>
</g>
<!-- Node1&#45;&gt;Node125 -->
<g id="edge24_Node000001_Node000125" class="edge">
<title>Node1&#45;&gt;Node125</title>
<g id="a_edge24_Node000001_Node000125"><a xlink:title=" ">
<path fill="none" stroke="#63b8ff" d="M50.43,-529.97C56.68,-501.63 79.02,-417.2 131,-373.5 133.02,-371.8 135.18,-370.26 137.45,-368.85"/>
<polygon fill="#63b8ff" stroke="#63b8ff" points="139.38,-371.79 146.64,-364.08 136.15,-365.58 139.38,-371.79"/>
</a>
</g>
</g>
<!-- Node128 -->
<g id="Node000128" class="node">
<title>Node128</title>
<g id="a_Node000128"><a xlink:href="slrCom_8cpp.html#a0f6749d2eb66a808d36ff88e7408581f" target="_top" xlink:title="Read SLR spherical satellite centre&#45;of&#45;mass (CoM) file.">
<path fill="#fff0f0" stroke="red" d="M220.17,-327C220.17,-327 171.83,-327 171.83,-327 168.67,-327 165.5,-323.83 165.5,-320.67 165.5,-320.67 165.5,-314.33 165.5,-314.33 165.5,-311.17 168.67,-308 171.83,-308 171.83,-308 220.17,-308 220.17,-308 223.33,-308 226.5,-311.17 226.5,-314.33 226.5,-314.33 226.5,-320.67 226.5,-320.67 226.5,-323.83 223.33,-327 220.17,-327"/>
<text text-anchor="middle" x="196" y="-315" font-family="Helvetica,sans-Serif" font-size="10.00">readCom</text>
</a>
</g>
</g>
<!-- Node1&#45;&gt;Node128 -->
<g id="edge25_Node000001_Node000128" class="edge">
<title>Node1&#45;&gt;Node128</title>
<g id="a_edge25_Node000001_Node000128"><a xlink:title=" ">
<path fill="none" stroke="#63b8ff" d="M49.51,-529.78C53.4,-497.28 70.42,-391.45 131,-336.5 137.8,-330.33 146.52,-326.16 155.31,-323.35"/>
<polygon fill="#63b8ff" stroke="#63b8ff" points="156.43,-326.67 165.18,-320.7 154.62,-319.91 156.43,-326.67"/>
</a>
</g>
</g>
<!-- Node129 -->
<g id="Node000129" class="node">
<title>Node129</title>
<g id="a_Node000129"><a xlink:href="structStaticField.html#a66e48a3b4553fa4d86a723fd2e9d9fc2" target="_top" xlink:title="Read the static gravity field.">
<path fill="#fff0f0" stroke="red" d="M237.17,-290C237.17,-290 154.83,-290 154.83,-290 151.67,-290 148.5,-286.83 148.5,-283.67 148.5,-283.67 148.5,-277.33 148.5,-277.33 148.5,-274.17 151.67,-271 154.83,-271 154.83,-271 237.17,-271 237.17,-271 240.33,-271 243.5,-274.17 243.5,-277.33 243.5,-277.33 243.5,-283.67 243.5,-283.67 243.5,-286.83 240.33,-290 237.17,-290"/>
<text text-anchor="middle" x="196" y="-278" font-family="Helvetica,sans-Serif" font-size="10.00">StaticField::read</text>
</a>
</g>
</g>
<!-- Node1&#45;&gt;Node129 -->
<g id="edge26_Node000001_Node000129" class="edge">
<title>Node1&#45;&gt;Node129</title>
<g id="a_edge26_Node000001_Node000129"><a xlink:title=" ">
<path fill="none" stroke="#63b8ff" d="M48.83,-529.6C50.59,-493.27 61.65,-365.96 131,-299.5 133.55,-297.06 136.39,-294.93 139.43,-293.08"/>
<polygon fill="#63b8ff" stroke="#63b8ff" points="141.06,-296.17 148.4,-288.53 137.9,-289.93 141.06,-296.17"/>
</a>
</g>
</g>
<!-- Node131 -->
<g id="Node000131" class="node">
<title>Node131</title>
<g id="a_Node000131"><a xlink:href="structSpaceWeather.html#a068f9af36b8f22118c80ba9c05be4b32" target="_top" xlink:title="Read Space Weather file into the data struct.">
<path fill="#fff0f0" stroke="red" d="M246.67,-253C246.67,-253 145.33,-253 145.33,-253 142.17,-253 139,-249.83 139,-246.67 139,-246.67 139,-240.33 139,-240.33 139,-237.17 142.17,-234 145.33,-234 145.33,-234 246.67,-234 246.67,-234 249.83,-234 253,-237.17 253,-240.33 253,-240.33 253,-246.67 253,-246.67 253,-249.83 249.83,-253 246.67,-253"/>
<text text-anchor="middle" x="196" y="-241" font-family="Helvetica,sans-Serif" font-size="10.00">SpaceWeather::read</text>
</a>
</g>
</g>
<!-- Node1&#45;&gt;Node131 -->
<g id="edge27_Node000001_Node000131" class="edge">
<title>Node1&#45;&gt;Node131</title>
<g id="a_edge27_Node000001_Node000131"><a xlink:title=" ">
<path fill="none" stroke="#63b8ff" d="M48.31,-529.78C48.07,-490.37 52.55,-340.88 131,-262.5 132.45,-261.06 133.99,-259.72 135.63,-258.49"/>
<polygon fill="#63b8ff" stroke="#63b8ff" points="137.69,-261.33 144.39,-253.12 134.03,-255.36 137.69,-261.33"/>
</a>
</g>
</g>
<!-- Node133 -->
<g id="Node000133" class="node">
<title>Node133</title>
<g id="a_Node000133"><a xlink:href="structTide.html#a7e58ee9b70aabbd2a8f2f34dc79dc932" target="_top" xlink:title=" ">
<path fill="#fff0f0" stroke="red" d="M222.17,-216C222.17,-216 169.83,-216 169.83,-216 166.67,-216 163.5,-212.83 163.5,-209.67 163.5,-209.67 163.5,-203.33 163.5,-203.33 163.5,-200.17 166.67,-197 169.83,-197 169.83,-197 222.17,-197 222.17,-197 225.33,-197 228.5,-200.17 228.5,-203.33 228.5,-203.33 228.5,-209.67 228.5,-209.67 228.5,-212.83 225.33,-216 222.17,-216"/>
<text text-anchor="middle" x="196" y="-204" font-family="Helvetica,sans-Serif" font-size="10.00">Tide::read</text>
</a>
</g>
</g>
<!-- Node1&#45;&gt;Node133 -->
<g id="edge28_Node000001_Node000133" class="edge">
<title>Node1&#45;&gt;Node133</title>
<g id="a_edge28_Node000001_Node000133"><a xlink:title=" ">
<path fill="none" stroke="#63b8ff" d="M49.45,-529.73C55.11,-480.36 85.8,-263.15 131,-216.5 137.09,-210.22 145.15,-205.99 153.49,-203.38"/>
<polygon fill="#63b8ff" stroke="#63b8ff" points="154.39,-206.76 163.31,-201.03 152.77,-199.95 154.39,-206.76"/>
</a>
</g>
</g>
<!-- Node1&#45;&gt;Node133 -->
<g id="edge29_Node000001_Node000133" class="edge">
<title>Node1&#45;&gt;Node133</title>
<g id="a_edge29_Node000001_Node000133"><a xlink:title=" ">
<path fill="none" stroke="#63b8ff" d="M50.18,-529.86C57.4,-482.57 87.47,-279.43 131,-234.5 138.7,-226.55 149.56,-221.89 160.15,-218.7"/>
<polygon fill="#63b8ff" stroke="#63b8ff" points="161.36,-222 170.11,-216.04 159.55,-215.24 161.36,-222"/>
</a>
</g>
</g>
<!-- Node134 -->
<g id="Node000134" class="node">
<title>Node134</title>
<g id="a_Node000134"><a xlink:href="structCenterMassCorrections.html#af61d08f2d2225dbdee6a07dc96c7e6a9" target="_top" xlink:title=" ">
<path fill="#fff0f0" stroke="red" d="M251,-178.5C251,-178.5 141,-178.5 141,-178.5 136,-178.5 131,-173.5 131,-168.5 131,-168.5 131,-158.5 131,-158.5 131,-153.5 136,-148.5 141,-148.5 141,-148.5 251,-148.5 251,-148.5 256,-148.5 261,-153.5 261,-158.5 261,-158.5 261,-168.5 261,-168.5 261,-173.5 256,-178.5 251,-178.5"/>
<text text-anchor="start" x="139" y="-166.5" font-family="Helvetica,sans-Serif" font-size="10.00">CenterMassCorrections</text>
<text text-anchor="middle" x="196" y="-155.5" font-family="Helvetica,sans-Serif" font-size="10.00">::read</text>
</a>
</g>
</g>
<!-- Node1&#45;&gt;Node134 -->
<g id="edge30_Node000001_Node000134" class="edge">
<title>Node1&#45;&gt;Node134</title>
<g id="a_edge30_Node000001_Node000134"><a xlink:title=" ">
<path fill="none" stroke="#63b8ff" d="M49.57,-529.76C55.33,-478.71 84.23,-242.4 131,-188.5 132.16,-187.17 133.39,-185.91 134.69,-184.71"/>
<polygon fill="#63b8ff" stroke="#63b8ff" points="136.94,-187.4 142.79,-178.57 132.71,-181.83 136.94,-187.4"/>
</a>
</g>
</g>
<!-- Node135 -->
<g id="Node000135" class="node">
<title>Node135</title>
<g id="a_Node000135"><a xlink:href="structHfOceanEop.html#a283cce3fb034c844186f3ab41eef3407" target="_top" xlink:title=" ">
<path fill="#fff0f0" stroke="red" d="M241.67,-130C241.67,-130 150.33,-130 150.33,-130 147.17,-130 144,-126.83 144,-123.67 144,-123.67 144,-117.33 144,-117.33 144,-114.17 147.17,-111 150.33,-111 150.33,-111 241.67,-111 241.67,-111 244.83,-111 248,-114.17 248,-117.33 248,-117.33 248,-123.67 248,-123.67 248,-126.83 244.83,-130 241.67,-130"/>
<text text-anchor="middle" x="196" y="-118" font-family="Helvetica,sans-Serif" font-size="10.00">HfOceanEop::read</text>
</a>
</g>
</g>
<!-- Node1&#45;&gt;Node135 -->
<g id="edge31_Node000001_Node000135" class="edge">
<title>Node1&#45;&gt;Node135</title>
<g id="a_edge31_Node000001_Node000135"><a xlink:title=" ">
<path fill="none" stroke="#63b8ff" d="M49.17,-529.82C53.2,-474.58 75.85,-199.56 131,-139.5 132.24,-138.15 133.57,-136.89 134.98,-135.73"/>
<polygon fill="#63b8ff" stroke="#63b8ff" points="137.31,-138.38 143.74,-129.95 133.46,-132.53 137.31,-138.38"/>
</a>
</g>
</g>
<!-- Node136 -->
<g id="Node000136" class="node">
<title>Node136</title>
<g id="a_Node000136"><a xlink:href="structAod.html#aa4556d2d792e359bcf9ea6205480254b" target="_top" xlink:title=" ">
<path fill="#fff0f0" stroke="red" d="M221.17,-93C221.17,-93 170.83,-93 170.83,-93 167.67,-93 164.5,-89.83 164.5,-86.67 164.5,-86.67 164.5,-80.33 164.5,-80.33 164.5,-77.17 167.67,-74 170.83,-74 170.83,-74 221.17,-74 221.17,-74 224.33,-74 227.5,-77.17 227.5,-80.33 227.5,-80.33 227.5,-86.67 227.5,-86.67 227.5,-89.83 224.33,-93 221.17,-93"/>
<text text-anchor="middle" x="196" y="-81" font-family="Helvetica,sans-Serif" font-size="10.00">Aod::read</text>
</a>
</g>
</g>
<!-- Node1&#45;&gt;Node136 -->
<g id="edge32_Node000001_Node000136" class="edge">
<title>Node1&#45;&gt;Node136</title>
<g id="a_edge32_Node000001_Node000136"><a xlink:title=" ">
<path fill="none" stroke="#63b8ff" d="M49,-529.7C52.15,-471.24 71.24,-168.69 131,-102.5 137.15,-95.69 145.62,-91.27 154.39,-88.42"/>
<polygon fill="#63b8ff" stroke="#63b8ff" points="155.52,-91.74 164.3,-85.82 153.74,-84.97 155.52,-91.74"/>
</a>
</g>
</g>
<!-- Node137 -->
<g id="Node000137" class="node">
<title>Node137</title>
<g id="a_Node000137"><a xlink:href="structOceanPoleTide.html#a7dd5bea7c6e980d54d130f06d1c16943" target="_top" xlink:title=" ">
<path fill="#fff0f0" stroke="red" d="M248.17,-56C248.17,-56 143.83,-56 143.83,-56 140.67,-56 137.5,-52.83 137.5,-49.67 137.5,-49.67 137.5,-43.33 137.5,-43.33 137.5,-40.17 140.67,-37 143.83,-37 143.83,-37 248.17,-37 248.17,-37 251.33,-37 254.5,-40.17 254.5,-43.33 254.5,-43.33 254.5,-49.67 254.5,-49.67 254.5,-52.83 251.33,-56 248.17,-56"/>
<text text-anchor="middle" x="196" y="-44" font-family="Helvetica,sans-Serif" font-size="10.00">OceanPoleTide::read</text>
</a>
</g>
</g>
<!-- Node1&#45;&gt;Node137 -->
<g id="edge33_Node000001_Node000137" class="edge">
<title>Node1&#45;&gt;Node137</title>
<g id="a_edge33_Node000001_Node000137"><a xlink:title=" ">
<path fill="none" stroke="#63b8ff" d="M48.84,-529.69C51.17,-468.36 66.58,-137.88 131,-65.5 132.19,-64.16 133.47,-62.91 134.83,-61.75"/>
<polygon fill="#63b8ff" stroke="#63b8ff" points="136.99,-64.51 143.3,-56 133.06,-58.72 136.99,-64.51"/>
</a>
</g>
</g>
<!-- Node138 -->
<g id="Node000138" class="node">
<title>Node138</title>
<g id="a_Node000138"><a xlink:href="inputs_8cpp.html#ab3449f085d46135293be1aa43f96915f" target="_top" xlink:title="Create a receiver object from an input.">
<path fill="#fff0f0" stroke="red" d="M240.17,-19C240.17,-19 151.83,-19 151.83,-19 148.67,-19 145.5,-15.83 145.5,-12.67 145.5,-12.67 145.5,-6.33 145.5,-6.33 145.5,-3.17 148.67,0 151.83,0 151.83,0 240.17,0 240.17,0 243.33,0 246.5,-3.17 246.5,-6.33 246.5,-6.33 246.5,-12.67 246.5,-12.67 246.5,-15.83 243.33,-19 240.17,-19"/>
<text text-anchor="middle" x="196" y="-7" font-family="Helvetica,sans-Serif" font-size="10.00">addReceiverData</text>
</a>
</g>
</g>
<!-- Node1&#45;&gt;Node138 -->
<g id="edge34_Node000001_Node000138" class="edge">
<title>Node1&#45;&gt;Node138</title>
<g id="a_edge34_Node000001_Node000138"><a xlink:title=" ">
<path fill="none" stroke="#63b8ff" d="M48.66,-529.73C49.99,-464.67 61.14,-98.97 131,-19.5 132.74,-17.52 134.68,-15.74 136.76,-14.15"/>
<polygon fill="#63b8ff" stroke="#63b8ff" points="138.68,-17.08 145.43,-8.92 135.06,-11.09 138.68,-17.08"/>
</a>
</g>
</g>
<!-- Node1&#45;&gt;Node138 -->
<g id="edge35_Node000001_Node000138" class="edge">
<title>Node1&#45;&gt;Node138</title>
<g id="a_edge35_Node000001_Node000138"><a xlink:title=" ">
<path fill="none" stroke="#63b8ff" d="M48.77,-529.63C50.55,-465.74 62.77,-115.12 131,-37.5 138.02,-29.52 148.22,-24.82 158.42,-21.66"/>
<polygon fill="#63b8ff" stroke="#63b8ff" points="159.36,-25.03 168.1,-19.04 157.54,-18.27 159.36,-25.03"/>
</a>
</g>
</g>
</g>
</svg>
