<?xml version="1.0" encoding="UTF-8" standalone="no"?>
<!DOCTYPE svg PUBLIC "-//W3C//DTD SVG 1.1//EN"
 "http://www.w3.org/Graphics/SVG/1.1/DTD/svg11.dtd">
<!-- Generated by graphviz version 2.43.0 (0)
 -->
<!-- Title: ionexFileWrite Pages: 1 -->
<svg width="285pt" height="38pt"
 viewBox="0.00 0.00 285.00 38.00" xmlns="http://www.w3.org/2000/svg" xmlns:xlink="http://www.w3.org/1999/xlink">
<g id="graph0" class="graph" transform="scale(1 1) rotate(0) translate(4 34)">
<title>ionexFileWrite</title>
<!-- Node1 -->
<g id="Node000001" class="node">
<title>Node1</title>
<g id="a_Node000001"><a xlink:href="ionexWrite_8cpp.html#a346321c012d870acaf17c9fae401e7b2" target="_top" xlink:title=" ">
<path fill="#fff0f0" stroke="red" stroke-width="2" d="M270.67,-24.5C270.67,-24.5 196.33,-24.5 196.33,-24.5 193.17,-24.5 190,-21.33 190,-18.17 190,-18.17 190,-11.83 190,-11.83 190,-8.67 193.17,-5.5 196.33,-5.5 196.33,-5.5 270.67,-5.5 270.67,-5.5 273.83,-5.5 277,-8.67 277,-11.83 277,-11.83 277,-18.17 277,-18.17 277,-21.33 273.83,-24.5 270.67,-24.5"/>
<text text-anchor="middle" x="233.5" y="-12.5" font-family="Helvetica,sans-Serif" font-size="10.00">ionexFileWrite</text>
</a>
</g>
</g>
<!-- Node2 -->
<g id="Node000002" class="node">
<title>Node2</title>
<g id="a_Node000002"><a xlink:href="outputs_8cpp.html#abf277b1afcff7cb07fa2857b4a373100" target="_top" xlink:title=" ">
<path fill="#fff0f0" stroke="red" d="M144,-30C144,-30 10,-30 10,-30 5,-30 0,-25 0,-20 0,-20 0,-10 0,-10 0,-5 5,0 10,0 10,0 144,0 144,0 149,0 154,-5 154,-10 154,-10 154,-20 154,-20 154,-25 149,-30 144,-30"/>
<text text-anchor="start" x="8" y="-18" font-family="Helvetica,sans-Serif" font-size="10.00">perEpochPostProcessingAnd</text>
<text text-anchor="middle" x="77" y="-7" font-family="Helvetica,sans-Serif" font-size="10.00">Outputs</text>
</a>
</g>
</g>
<!-- Node1&#45;&gt;Node2 -->
<g id="edge1_Node000001_Node000002" class="edge">
<title>Node1&#45;&gt;Node2</title>
<g id="a_edge1_Node000001_Node000002"><a xlink:title=" ">
<path fill="none" stroke="#63b8ff" d="M179.72,-15C171.51,-15 162.89,-15 154.28,-15"/>
<polygon fill="#63b8ff" stroke="#63b8ff" points="179.87,-18.5 189.87,-15 179.87,-11.5 179.87,-18.5"/>
</a>
</g>
</g>
</g>
</svg>
