<?xml version="1.0" encoding="UTF-8" standalone="no"?>
<!DOCTYPE svg PUBLIC "-//W3C//DTD SVG 1.1//EN"
 "http://www.w3.org/Graphics/SVG/1.1/DTD/svg11.dtd">
<!-- Generated by graphviz version 2.43.0 (0)
 -->
<!-- Title: obsIonoData Pages: 1 -->
<svg width="283pt" height="27pt"
 viewBox="0.00 0.00 283.00 27.00" xmlns="http://www.w3.org/2000/svg" xmlns:xlink="http://www.w3.org/1999/xlink">
<g id="graph0" class="graph" transform="scale(1 1) rotate(0) translate(4 23)">
<title>obsIonoData</title>
<!-- Node1 -->
<g id="Node000001" class="node">
<title>Node1</title>
<g id="a_Node000001"><a xlink:href="ionoMeas_8cpp.html#ab3f111d5e6d66de4751fbce467a29372" target="_top" xlink:title=" ">
<path fill="#fff0f0" stroke="red" stroke-width="2" d="M268.67,-19C268.67,-19 203.33,-19 203.33,-19 200.17,-19 197,-15.83 197,-12.67 197,-12.67 197,-6.33 197,-6.33 197,-3.17 200.17,0 203.33,0 203.33,0 268.67,0 268.67,0 271.83,0 275,-3.17 275,-6.33 275,-6.33 275,-12.67 275,-12.67 275,-15.83 271.83,-19 268.67,-19"/>
<text text-anchor="middle" x="236" y="-7" font-family="Helvetica,sans-Serif" font-size="10.00">obsIonoData</text>
</a>
</g>
</g>
<!-- Node2 -->
<g id="Node000002" class="node">
<title>Node2</title>
<g id="a_Node000002"><a xlink:href="main_8cpp.html#ae9a767ba206649ca2e395dd210c2218b" target="_top" xlink:title="Perform operations for each station This function occurs in parallel with other stations &#45; ensure tha...">
<path fill="#fff0f0" stroke="red" d="M154.67,-19C154.67,-19 6.33,-19 6.33,-19 3.17,-19 0,-15.83 0,-12.67 0,-12.67 0,-6.33 0,-6.33 0,-3.17 3.17,0 6.33,0 6.33,0 154.67,0 154.67,0 157.83,0 161,-3.17 161,-6.33 161,-6.33 161,-12.67 161,-12.67 161,-15.83 157.83,-19 154.67,-19"/>
<text text-anchor="middle" x="80.5" y="-7" font-family="Helvetica,sans-Serif" font-size="10.00">mainOncePerEpochPerStation</text>
</a>
</g>
</g>
<!-- Node1&#45;&gt;Node2 -->
<g id="edge1_Node000001_Node000002" class="edge">
<title>Node1&#45;&gt;Node2</title>
<g id="a_edge1_Node000001_Node000002"><a xlink:title=" ">
<path fill="none" stroke="#63b8ff" d="M186.6,-9.5C178.42,-9.5 169.73,-9.5 161,-9.5"/>
<polygon fill="#63b8ff" stroke="#63b8ff" points="186.66,-13 196.66,-9.5 186.66,-6 186.66,-13"/>
</a>
</g>
</g>
</g>
</svg>
