<?xml version="1.0" encoding="UTF-8" standalone="no"?>
<!DOCTYPE svg PUBLIC "-//W3C//DTD SVG 1.1//EN"
 "http://www.w3.org/Graphics/SVG/1.1/DTD/svg11.dtd">
<!-- Generated by graphviz version 2.43.0 (0)
 -->
<!-- Title: mainOncePerEpochPerStation Pages: 1 -->
<svg width="508pt" height="429pt"
 viewBox="0.00 0.00 508.00 429.33" xmlns="http://www.w3.org/2000/svg" xmlns:xlink="http://www.w3.org/1999/xlink">
<g id="graph0" class="graph" transform="scale(1 1) rotate(0) translate(4 425.33)">
<title>mainOncePerEpochPerStation</title>
<!-- Node1 -->
<g id="Node000001" class="node">
<title>Node1</title>
<g id="a_Node000001"><a xlink:href="main_8cpp.html#ae9a767ba206649ca2e395dd210c2218b" target="_top" xlink:title="Perform operations for each station This function occurs in parallel with other stations &#45; ensure tha...">
<path fill="#fff0f0" stroke="red" stroke-width="2" d="M154.67,-226C154.67,-226 6.33,-226 6.33,-226 3.17,-226 0,-222.83 0,-219.67 0,-219.67 0,-213.33 0,-213.33 0,-210.17 3.17,-207 6.33,-207 6.33,-207 154.67,-207 154.67,-207 157.83,-207 161,-210.17 161,-213.33 161,-213.33 161,-219.67 161,-219.67 161,-222.83 157.83,-226 154.67,-226"/>
<text text-anchor="middle" x="80.5" y="-214" font-family="Helvetica,sans-Serif" font-size="10.00">mainOncePerEpochPerStation</text>
</a>
</g>
</g>
<!-- Node2 -->
<g id="Node000002" class="node">
<title>Node2</title>
<g id="a_Node000002"><a xlink:href="trace_8hpp.html#af5320371d0f15d74154b2b32d315684d" target="_top" xlink:title=" ">
<path fill="#fff0f0" stroke="red" d="M466.67,-393C466.67,-393 404.33,-393 404.33,-393 401.17,-393 398,-389.83 398,-386.67 398,-386.67 398,-380.33 398,-380.33 398,-377.17 401.17,-374 404.33,-374 404.33,-374 466.67,-374 466.67,-374 469.83,-374 473,-377.17 473,-380.33 473,-380.33 473,-386.67 473,-386.67 473,-389.83 469.83,-393 466.67,-393"/>
<text text-anchor="middle" x="435.5" y="-381" font-family="Helvetica,sans-Serif" font-size="10.00">getTraceFile</text>
</a>
</g>
</g>
<!-- Node1&#45;&gt;Node2 -->
<g id="edge1_Node000001_Node000002" class="edge">
<title>Node1&#45;&gt;Node2</title>
<g id="a_edge1_Node000001_Node000002"><a xlink:title=" ">
<path fill="none" stroke="#63b8ff" d="M83.94,-226.23C92.66,-258.58 125.58,-362.78 197,-402.5 262.64,-439.01 354.65,-414.16 402.6,-396.64"/>
<polygon fill="#63b8ff" stroke="#63b8ff" points="404.02,-399.84 412.14,-393.03 401.55,-393.29 404.02,-399.84"/>
</a>
</g>
</g>
<!-- Node3 -->
<g id="Node000003" class="node">
<title>Node3</title>
<g id="a_Node000003"><a xlink:href="pea__snx_8cpp.html#a92a02d9dc16f06646c5c668b81caaa1f" target="_top" xlink:title=" ">
<path fill="#fff0f0" stroke="red" d="M328.67,-393C328.67,-393 203.33,-393 203.33,-393 200.17,-393 197,-389.83 197,-386.67 197,-386.67 197,-380.33 197,-380.33 197,-377.17 200.17,-374 203.33,-374 203.33,-374 328.67,-374 328.67,-374 331.83,-374 335,-377.17 335,-380.33 335,-380.33 335,-386.67 335,-386.67 335,-389.83 331.83,-393 328.67,-393"/>
<text text-anchor="middle" x="266" y="-381" font-family="Helvetica,sans-Serif" font-size="10.00">sinexPerEpochPerStation</text>
</a>
</g>
</g>
<!-- Node1&#45;&gt;Node3 -->
<g id="edge2_Node000001_Node000003" class="edge">
<title>Node1&#45;&gt;Node3</title>
<g id="a_edge2_Node000001_Node000003"><a xlink:title=" ">
<path fill="none" stroke="#63b8ff" d="M86.17,-226.29C99.47,-253.04 140.25,-327.9 197,-365.5 199.43,-367.11 202.01,-368.58 204.67,-369.92"/>
<polygon fill="#63b8ff" stroke="#63b8ff" points="203.44,-373.2 214.01,-373.98 206.23,-366.78 203.44,-373.2"/>
</a>
</g>
</g>
<!-- Node4 -->
<g id="Node000004" class="node">
<title>Node4</title>
<g id="a_Node000004"><a xlink:href="structGTime.html#aaa8a379d11cd6c040a6bbe680c0e913e" target="_top" xlink:title="Uninitialised time for comparisons.">
<path fill="#fff0f0" stroke="red" d="M475.17,-356C475.17,-356 395.83,-356 395.83,-356 392.67,-356 389.5,-352.83 389.5,-349.67 389.5,-349.67 389.5,-343.33 389.5,-343.33 389.5,-340.17 392.67,-337 395.83,-337 395.83,-337 475.17,-337 475.17,-337 478.33,-337 481.5,-340.17 481.5,-343.33 481.5,-343.33 481.5,-349.67 481.5,-349.67 481.5,-352.83 478.33,-356 475.17,-356"/>
<text text-anchor="middle" x="435.5" y="-344" font-family="Helvetica,sans-Serif" font-size="10.00">GTime::noTime</text>
</a>
</g>
</g>
<!-- Node1&#45;&gt;Node4 -->
<g id="edge15_Node000001_Node000004" class="edge">
<title>Node1&#45;&gt;Node4</title>
<g id="a_edge15_Node000001_Node000004"><a xlink:title=" ">
<path fill="none" stroke="#63b8ff" d="M109.49,-206.95C159.97,-191.65 267.28,-168.07 335,-217.5 376.89,-248.08 333.65,-292.52 371,-328.5 373.72,-331.12 376.79,-333.36 380.07,-335.28"/>
<polygon fill="#63b8ff" stroke="#63b8ff" points="378.65,-338.48 389.18,-339.65 381.68,-332.17 378.65,-338.48"/>
</a>
</g>
</g>
<!-- Node5 -->
<g id="Node000005" class="node">
<title>Node5</title>
<g id="a_Node000005"><a xlink:href="structACSConfig.html#acbb130e061ba4b7bf620e4fb68e1b794" target="_top" xlink:title="Set receiver options for a specific receiver using a hierarchy of sources.">
<path fill="#fff0f0" stroke="red" d="M493.67,-319C493.67,-319 377.33,-319 377.33,-319 374.17,-319 371,-315.83 371,-312.67 371,-312.67 371,-306.33 371,-306.33 371,-303.17 374.17,-300 377.33,-300 377.33,-300 493.67,-300 493.67,-300 496.83,-300 500,-303.17 500,-306.33 500,-306.33 500,-312.67 500,-312.67 500,-315.83 496.83,-319 493.67,-319"/>
<text text-anchor="middle" x="435.5" y="-307" font-family="Helvetica,sans-Serif" font-size="10.00">ACSConfig::getRecOpts</text>
</a>
</g>
</g>
<!-- Node1&#45;&gt;Node5 -->
<g id="edge18_Node000001_Node000005" class="edge">
<title>Node1&#45;&gt;Node5</title>
<g id="a_edge18_Node000001_Node000005"><a xlink:title=" ">
<path fill="none" stroke="#63b8ff" d="M91.56,-206.83C110.4,-189.49 153.08,-153.65 197,-140.5 255.75,-122.9 281.75,-110.06 335,-140.5 392.06,-173.12 419.64,-252.63 429.76,-289.78"/>
<polygon fill="#63b8ff" stroke="#63b8ff" points="426.47,-291.03 432.35,-299.84 433.25,-289.29 426.47,-291.03"/>
</a>
</g>
</g>
<!-- Node27 -->
<g id="Node000027" class="node">
<title>Node27</title>
<g id="a_Node000027"><a xlink:href="preprocessor_8cpp.html#a4fe89d45413a11705ec5dc9999e6daac" target="_top" xlink:title=" ">
<path fill="#fff0f0" stroke="red" d="M299.67,-356C299.67,-356 232.33,-356 232.33,-356 229.17,-356 226,-352.83 226,-349.67 226,-349.67 226,-343.33 226,-343.33 226,-340.17 229.17,-337 232.33,-337 232.33,-337 299.67,-337 299.67,-337 302.83,-337 306,-340.17 306,-343.33 306,-343.33 306,-349.67 306,-349.67 306,-352.83 302.83,-356 299.67,-356"/>
<text text-anchor="middle" x="266" y="-344" font-family="Helvetica,sans-Serif" font-size="10.00">preprocessor</text>
</a>
</g>
</g>
<!-- Node1&#45;&gt;Node27 -->
<g id="edge6_Node000001_Node000027" class="edge">
<title>Node1&#45;&gt;Node27</title>
<g id="a_edge6_Node000001_Node000027"><a xlink:title=" ">
<path fill="none" stroke="#63b8ff" d="M88.68,-226.29C105.23,-248.12 148.37,-301.01 197,-328.5 202.93,-331.85 209.5,-334.6 216.16,-336.84"/>
<polygon fill="#63b8ff" stroke="#63b8ff" points="215.31,-340.24 225.9,-339.78 217.34,-333.54 215.31,-340.24"/>
</a>
</g>
</g>
<!-- Node86 -->
<g id="Node000086" class="node">
<title>Node86</title>
<g id="a_Node000086"><a xlink:href="preprocessor_8cpp.html#a5bf581abef6389557c3fdd95086a5c42" target="_top" xlink:title=" ">
<path fill="#fff0f0" stroke="red" d="M300.17,-319C300.17,-319 231.83,-319 231.83,-319 228.67,-319 225.5,-315.83 225.5,-312.67 225.5,-312.67 225.5,-306.33 225.5,-306.33 225.5,-303.17 228.67,-300 231.83,-300 231.83,-300 300.17,-300 300.17,-300 303.33,-300 306.5,-303.17 306.5,-306.33 306.5,-306.33 306.5,-312.67 306.5,-312.67 306.5,-315.83 303.33,-319 300.17,-319"/>
<text text-anchor="middle" x="266" y="-307" font-family="Helvetica,sans-Serif" font-size="10.00">obsVariances</text>
</a>
</g>
</g>
<!-- Node1&#45;&gt;Node86 -->
<g id="edge9_Node000001_Node000086" class="edge">
<title>Node1&#45;&gt;Node86</title>
<g id="a_edge9_Node000001_Node000086"><a xlink:title=" ">
<path fill="none" stroke="#63b8ff" d="M93.57,-226.21C113.8,-242.05 156.35,-273.47 197,-291.5 202.86,-294.1 209.18,-296.39 215.52,-298.39"/>
<polygon fill="#63b8ff" stroke="#63b8ff" points="214.86,-301.84 225.44,-301.29 216.82,-295.12 214.86,-301.84"/>
</a>
</g>
</g>
<!-- Node87 -->
<g id="Node000087" class="node">
<title>Node87</title>
<g id="a_Node000087"><a xlink:href="spp_8cpp.html#a2ec47af9ec762fa7586a8309d413cf84" target="_top" xlink:title="Compute receiver position, velocity, clock bias by single&#45;point positioning with pseudorange observab...">
<path fill="#fff0f0" stroke="red" d="M276.67,-282C276.67,-282 255.33,-282 255.33,-282 252.17,-282 249,-278.83 249,-275.67 249,-275.67 249,-269.33 249,-269.33 249,-266.17 252.17,-263 255.33,-263 255.33,-263 276.67,-263 276.67,-263 279.83,-263 283,-266.17 283,-269.33 283,-269.33 283,-275.67 283,-275.67 283,-278.83 279.83,-282 276.67,-282"/>
<text text-anchor="middle" x="266" y="-270" font-family="Helvetica,sans-Serif" font-size="10.00">spp</text>
</a>
</g>
</g>
<!-- Node1&#45;&gt;Node87 -->
<g id="edge12_Node000001_Node000087" class="edge">
<title>Node1&#45;&gt;Node87</title>
<g id="a_edge12_Node000001_Node000087"><a xlink:title=" ">
<path fill="none" stroke="#63b8ff" d="M108.89,-226.02C132.21,-234 166.64,-245.5 197,-254.5 210.81,-258.6 226.33,-262.74 239.06,-266.02"/>
<polygon fill="#63b8ff" stroke="#63b8ff" points="238.43,-269.47 248.99,-268.55 240.16,-262.69 238.43,-269.47"/>
</a>
</g>
</g>
<!-- Node172 -->
<g id="Node000172" class="node">
<title>Node172</title>
<g id="a_Node000172"><a xlink:href="ppp_8cpp.html#addf444b8f568363246958de68c55772d" target="_top" xlink:title="Compare estimated station position with benchmark in SINEX file.">
<path fill="#fff0f0" stroke="red" d="M315.17,-245C315.17,-245 216.83,-245 216.83,-245 213.67,-245 210.5,-241.83 210.5,-238.67 210.5,-238.67 210.5,-232.33 210.5,-232.33 210.5,-229.17 213.67,-226 216.83,-226 216.83,-226 315.17,-226 315.17,-226 318.33,-226 321.5,-229.17 321.5,-232.33 321.5,-232.33 321.5,-238.67 321.5,-238.67 321.5,-241.83 318.33,-245 315.17,-245"/>
<text text-anchor="middle" x="266" y="-233" font-family="Helvetica,sans-Serif" font-size="10.00">selectAprioriSource</text>
</a>
</g>
</g>
<!-- Node1&#45;&gt;Node172 -->
<g id="edge13_Node000001_Node000172" class="edge">
<title>Node1&#45;&gt;Node172</title>
<g id="a_edge13_Node000001_Node000172"><a xlink:title=" ">
<path fill="none" stroke="#63b8ff" d="M161.19,-224.75C174.31,-226.11 187.77,-227.5 200.47,-228.82"/>
<polygon fill="#63b8ff" stroke="#63b8ff" points="200.16,-232.31 210.47,-229.85 200.88,-225.34 200.16,-232.31"/>
</a>
</g>
</g>
<!-- Node223 -->
<g id="Node000223" class="node">
<title>Node223</title>
<g id="a_Node000223"><a xlink:href="ionoMeas_8cpp.html#ab3f111d5e6d66de4751fbce467a29372" target="_top" xlink:title=" ">
<path fill="#fff0f0" stroke="red" d="M298.67,-169C298.67,-169 233.33,-169 233.33,-169 230.17,-169 227,-165.83 227,-162.67 227,-162.67 227,-156.33 227,-156.33 227,-153.17 230.17,-150 233.33,-150 233.33,-150 298.67,-150 298.67,-150 301.83,-150 305,-153.17 305,-156.33 305,-156.33 305,-162.67 305,-162.67 305,-165.83 301.83,-169 298.67,-169"/>
<text text-anchor="middle" x="266" y="-157" font-family="Helvetica,sans-Serif" font-size="10.00">obsIonoData</text>
</a>
</g>
</g>
<!-- Node1&#45;&gt;Node223 -->
<g id="edge16_Node000001_Node000223" class="edge">
<title>Node1&#45;&gt;Node223</title>
<g id="a_edge16_Node000001_Node000223"><a xlink:title=" ">
<path fill="none" stroke="#63b8ff" d="M112.21,-206.96C143.04,-197.38 190.7,-182.58 224.58,-172.05"/>
<polygon fill="#63b8ff" stroke="#63b8ff" points="225.67,-175.38 234.19,-169.07 223.6,-168.7 225.67,-175.38"/>
</a>
</g>
</g>
<!-- Node242 -->
<g id="Node000242" class="node">
<title>Node242</title>
<g id="a_Node000242"><a xlink:href="attitude_8cpp.html#aa53a61f369f0b0065ee1a804f3285b41" target="_top" xlink:title="Attitude of receiver.">
<path fill="#fff0f0" stroke="red" d="M282.67,-93C282.67,-93 249.33,-93 249.33,-93 246.17,-93 243,-89.83 243,-86.67 243,-86.67 243,-80.33 243,-80.33 243,-77.17 246.17,-74 249.33,-74 249.33,-74 282.67,-74 282.67,-74 285.83,-74 289,-77.17 289,-80.33 289,-80.33 289,-86.67 289,-86.67 289,-89.83 285.83,-93 282.67,-93"/>
<text text-anchor="middle" x="266" y="-81" font-family="Helvetica,sans-Serif" font-size="10.00">recAtt</text>
</a>
</g>
</g>
<!-- Node1&#45;&gt;Node242 -->
<g id="edge19_Node000001_Node000242" class="edge">
<title>Node1&#45;&gt;Node242</title>
<g id="a_edge19_Node000001_Node000242"><a xlink:title=" ">
<path fill="none" stroke="#63b8ff" d="M89.16,-206.95C106.35,-186.09 150.16,-136.08 197,-107.5 207.99,-100.79 221.13,-95.6 232.92,-91.79"/>
<polygon fill="#63b8ff" stroke="#63b8ff" points="234.27,-95.03 242.83,-88.79 232.25,-88.33 234.27,-95.03"/>
</a>
</g>
</g>
<!-- Node245 -->
<g id="Node000245" class="node">
<title>Node245</title>
<g id="a_Node000245"><a xlink:href="attitude_8cpp.html#a360c3ba909b48b37e45577a4f2cc0970" target="_top" xlink:title="exclude meas of eclipsing satellite (block IIA)">
<path fill="#fff0f0" stroke="red" d="M294.67,-56C294.67,-56 237.33,-56 237.33,-56 234.17,-56 231,-52.83 231,-49.67 231,-49.67 231,-43.33 231,-43.33 231,-40.17 234.17,-37 237.33,-37 237.33,-37 294.67,-37 294.67,-37 297.83,-37 301,-40.17 301,-43.33 301,-43.33 301,-49.67 301,-49.67 301,-52.83 297.83,-56 294.67,-56"/>
<text text-anchor="middle" x="266" y="-44" font-family="Helvetica,sans-Serif" font-size="10.00">testEclipse</text>
</a>
</g>
</g>
<!-- Node1&#45;&gt;Node245 -->
<g id="edge20_Node000001_Node000245" class="edge">
<title>Node1&#45;&gt;Node245</title>
<g id="a_edge20_Node000001_Node000245"><a xlink:title=" ">
<path fill="none" stroke="#63b8ff" d="M85.93,-206.91C98.88,-179.96 139.44,-103.03 197,-64.5 204.22,-59.67 212.68,-56.13 221.13,-53.54"/>
<polygon fill="#63b8ff" stroke="#63b8ff" points="222.22,-56.87 230.98,-50.92 220.42,-50.11 222.22,-56.87"/>
</a>
</g>
</g>
<!-- Node246 -->
<g id="Node000246" class="node">
<title>Node246</title>
<g id="a_Node000246"><a xlink:href="rinexObsWrite_8cpp.html#a19163e27ecb45540bb15a864d9c0baab" target="_top" xlink:title=" ">
<path fill="#fff0f0" stroke="red" d="M303.67,-19C303.67,-19 228.33,-19 228.33,-19 225.17,-19 222,-15.83 222,-12.67 222,-12.67 222,-6.33 222,-6.33 222,-3.17 225.17,0 228.33,0 228.33,0 303.67,0 303.67,0 306.83,0 310,-3.17 310,-6.33 310,-6.33 310,-12.67 310,-12.67 310,-15.83 306.83,-19 303.67,-19"/>
<text text-anchor="middle" x="266" y="-7" font-family="Helvetica,sans-Serif" font-size="10.00">writeRinexObs</text>
</a>
</g>
</g>
<!-- Node1&#45;&gt;Node246 -->
<g id="edge21_Node000001_Node000246" class="edge">
<title>Node1&#45;&gt;Node246</title>
<g id="a_edge21_Node000001_Node000246"><a xlink:title=" ">
<path fill="none" stroke="#63b8ff" d="M84.48,-206.88C94.64,-175.71 131.02,-76.68 197,-27.5 201.53,-24.12 206.64,-21.38 211.98,-19.15"/>
<polygon fill="#63b8ff" stroke="#63b8ff" points="213.5,-22.32 221.75,-15.67 211.15,-15.73 213.5,-22.32"/>
</a>
</g>
</g>
<!-- Node3&#45;&gt;Node4 -->
<g id="edge3_Node000003_Node000004" class="edge">
<title>Node3&#45;&gt;Node4</title>
<g id="a_edge3_Node000003_Node000004"><a xlink:title=" ">
<path fill="none" stroke="#63b8ff" d="M310.14,-373.97C331.84,-369.18 358.34,-363.32 381.29,-358.25"/>
<polygon fill="#63b8ff" stroke="#63b8ff" points="382.21,-361.64 391.22,-356.06 380.7,-354.8 382.21,-361.64"/>
</a>
</g>
</g>
<!-- Node3&#45;&gt;Node5 -->
<g id="edge4_Node000003_Node000005" class="edge">
<title>Node3&#45;&gt;Node5</title>
<g id="a_edge4_Node000003_Node000005"><a xlink:title=" ">
<path fill="none" stroke="#63b8ff" d="M285.64,-373.96C299.93,-370.02 319.71,-365.44 335,-356.5 351.56,-346.82 351.88,-335.78 363.35,-325.26"/>
<polygon fill="#63b8ff" stroke="#63b8ff" points="365.65,-327.91 371.59,-319.14 361.48,-322.29 365.65,-327.91"/>
</a>
</g>
</g>
<!-- Node3&#45;&gt;Node5 -->
<g id="edge5_Node000003_Node000005" class="edge">
<title>Node3&#45;&gt;Node5</title>
<g id="a_edge5_Node000003_Node000005"><a xlink:title=" ">
<path fill="none" stroke="#63b8ff" d="M335.46,-374.23C354.76,-362.71 351.53,-349.3 371,-337.5 382.61,-330.46 397,-325.88 409.15,-322.1"/>
<polygon fill="#63b8ff" stroke="#63b8ff" points="410.23,-325.42 418.71,-319.07 408.12,-318.75 410.23,-325.42"/>
</a>
</g>
</g>
<!-- Node27&#45;&gt;Node2 -->
<g id="edge7_Node000027_Node000002" class="edge">
<title>Node27&#45;&gt;Node2</title>
<g id="a_edge7_Node000027_Node000002"><a xlink:title=" ">
<path fill="none" stroke="#63b8ff" d="M306.27,-355.17C330.69,-360.57 362.2,-367.53 387.88,-373.2"/>
<polygon fill="#63b8ff" stroke="#63b8ff" points="387.25,-376.65 397.77,-375.39 388.76,-369.81 387.25,-376.65"/>
</a>
</g>
</g>
<!-- Node27&#45;&gt;Node5 -->
<g id="edge8_Node000027_Node000005" class="edge">
<title>Node27&#45;&gt;Node5</title>
<g id="a_edge8_Node000027_Node000005"><a xlink:title=" ">
<path fill="none" stroke="#63b8ff" d="M306.27,-337.83C328.71,-332.87 357.14,-326.59 381.53,-321.2"/>
<polygon fill="#63b8ff" stroke="#63b8ff" points="382.35,-324.6 391.36,-319.03 380.84,-317.77 382.35,-324.6"/>
</a>
</g>
</g>
<!-- Node86&#45;&gt;Node5 -->
<g id="edge10_Node000086_Node000005" class="edge">
<title>Node86&#45;&gt;Node5</title>
<g id="a_edge10_Node000086_Node000005"><a xlink:title=" ">
<path fill="none" stroke="#63b8ff" d="M306.7,-303.66C322.86,-302.92 342.08,-302.63 360.64,-302.79"/>
<polygon fill="#63b8ff" stroke="#63b8ff" points="360.82,-306.29 370.87,-302.93 360.91,-299.3 360.82,-306.29"/>
</a>
</g>
</g>
<!-- Node86&#45;&gt;Node5 -->
<g id="edge11_Node000086_Node000005" class="edge">
<title>Node86&#45;&gt;Node5</title>
<g id="a_edge11_Node000086_Node000005"><a xlink:title=" ">
<path fill="none" stroke="#63b8ff" d="M306.7,-315.34C322.86,-316.08 342.08,-316.37 360.64,-316.21"/>
<polygon fill="#63b8ff" stroke="#63b8ff" points="360.91,-319.7 370.87,-316.07 360.82,-312.71 360.91,-319.7"/>
</a>
</g>
</g>
<!-- Node172&#45;&gt;Node2 -->
<g id="edge14_Node000172_Node000002" class="edge">
<title>Node172&#45;&gt;Node2</title>
<g id="a_edge14_Node000172_Node000002"><a xlink:title=" ">
<path fill="none" stroke="#63b8ff" d="M321.32,-245.16C326.34,-247.62 331.02,-250.68 335,-254.5 372.42,-290.41 333.65,-329.52 371,-365.5 375.77,-370.09 381.61,-373.53 387.81,-376.09"/>
<polygon fill="#63b8ff" stroke="#63b8ff" points="387.14,-379.56 397.73,-379.46 389.39,-372.93 387.14,-379.56"/>
</a>
</g>
</g>
<!-- Node223&#45;&gt;Node5 -->
<g id="edge17_Node000223_Node000005" class="edge">
<title>Node223&#45;&gt;Node5</title>
<g id="a_edge17_Node000223_Node000005"><a xlink:title=" ">
<path fill="none" stroke="#63b8ff" d="M305.19,-168.78C315.45,-172.36 326.14,-177.16 335,-183.5 375.99,-212.81 408.71,-263.57 424.4,-290.86"/>
<polygon fill="#63b8ff" stroke="#63b8ff" points="421.45,-292.75 429.39,-299.77 427.55,-289.33 421.45,-292.75"/>
</a>
</g>
</g>
</g>
</svg>
