<?xml version="1.0" encoding="UTF-8" standalone="no"?>
<!DOCTYPE svg PUBLIC "-//W3C//DTD SVG 1.1//EN"
 "http://www.w3.org/Graphics/SVG/1.1/DTD/svg11.dtd">
<!-- Generated by graphviz version 2.43.0 (0)
 -->
<!-- Title: mainOncePerEpoch Pages: 1 -->
<svg width="614pt" height="826pt"
 viewBox="0.00 0.00 614.00 826.00" xmlns="http://www.w3.org/2000/svg" xmlns:xlink="http://www.w3.org/1999/xlink">
<g id="graph0" class="graph" transform="scale(1 1) rotate(0) translate(4 822)">
<title>mainOncePerEpoch</title>
<!-- Node1 -->
<g id="Node000001" class="node">
<title>Node1</title>
<g id="a_Node000001"><a xlink:href="main_8cpp.html#a479f892b35943104163405de9a93be14" target="_top" xlink:title=" ">
<path fill="#fff0f0" stroke="red" stroke-width="2" d="M104.67,-423C104.67,-423 6.33,-423 6.33,-423 3.17,-423 0,-419.83 0,-416.67 0,-416.67 0,-410.33 0,-410.33 0,-407.17 3.17,-404 6.33,-404 6.33,-404 104.67,-404 104.67,-404 107.83,-404 111,-407.17 111,-410.33 111,-410.33 111,-416.67 111,-416.67 111,-419.83 107.83,-423 104.67,-423"/>
<text text-anchor="middle" x="55.5" y="-411" font-family="Helvetica,sans-Serif" font-size="10.00">mainOncePerEpoch</text>
</a>
</g>
</g>
<!-- Node2 -->
<g id="Node000002" class="node">
<title>Node2</title>
<g id="a_Node000002"><a xlink:href="main_8cpp.html#a85051f6840a4b64c19e25a4b461723e4" target="_top" xlink:title=" ">
<path fill="#fff0f0" stroke="red" d="M269.67,-818C269.67,-818 191.33,-818 191.33,-818 188.17,-818 185,-814.83 185,-811.67 185,-811.67 185,-805.33 185,-805.33 185,-802.17 188.17,-799 191.33,-799 191.33,-799 269.67,-799 269.67,-799 272.83,-799 276,-802.17 276,-805.33 276,-805.33 276,-811.67 276,-811.67 276,-814.83 272.83,-818 269.67,-818"/>
<text text-anchor="middle" x="230.5" y="-806" font-family="Helvetica,sans-Serif" font-size="10.00">avoidCollisions</text>
</a>
</g>
</g>
<!-- Node1&#45;&gt;Node2 -->
<g id="edge1_Node000001_Node000002" class="edge">
<title>Node1&#45;&gt;Node2</title>
<g id="a_edge1_Node000001_Node000002"><a xlink:title=" ">
<path fill="none" stroke="#63b8ff" d="M57.43,-423.05C62.84,-476.32 91.82,-736.45 147,-790.5 154.62,-797.96 164.57,-802.64 174.91,-805.51"/>
<polygon fill="#63b8ff" stroke="#63b8ff" points="174.36,-808.97 184.89,-807.74 175.89,-802.14 174.36,-808.97"/>
</a>
</g>
</g>
<!-- Node3 -->
<g id="Node000003" class="node">
<title>Node3</title>
<g id="a_Node000003"><a xlink:href="trace_8hpp.html#af5320371d0f15d74154b2b32d315684d" target="_top" xlink:title=" ">
<path fill="#fff0f0" stroke="red" d="M442.17,-105C442.17,-105 379.83,-105 379.83,-105 376.67,-105 373.5,-101.83 373.5,-98.67 373.5,-98.67 373.5,-92.33 373.5,-92.33 373.5,-89.17 376.67,-86 379.83,-86 379.83,-86 442.17,-86 442.17,-86 445.33,-86 448.5,-89.17 448.5,-92.33 448.5,-92.33 448.5,-98.67 448.5,-98.67 448.5,-101.83 445.33,-105 442.17,-105"/>
<text text-anchor="middle" x="411" y="-93" font-family="Helvetica,sans-Serif" font-size="10.00">getTraceFile</text>
</a>
</g>
</g>
<!-- Node1&#45;&gt;Node3 -->
<g id="edge6_Node000001_Node000003" class="edge">
<title>Node1&#45;&gt;Node3</title>
<g id="a_edge6_Node000001_Node000003"><a xlink:title=" ">
<path fill="none" stroke="#63b8ff" d="M56.81,-423.09C58.54,-459.31 70.09,-588.37 147,-640.5 208.44,-682.15 259.76,-691.16 314,-640.5 399.78,-560.38 276.76,-205.23 350,-113.5 353.74,-108.82 358.65,-105.32 364.05,-102.71"/>
<polygon fill="#63b8ff" stroke="#63b8ff" points="365.39,-105.94 373.48,-99.1 362.89,-99.4 365.39,-105.94"/>
</a>
</g>
</g>
<!-- Node21 -->
<g id="Node000021" class="node">
<title>Node21</title>
<g id="a_Node000021"><a xlink:href="inputs_8cpp.html#a414f34e8bd65aa4d83398bab54236157" target="_top" xlink:title=" ">
<path fill="#fff0f0" stroke="red" d="M271.67,-781C271.67,-781 189.33,-781 189.33,-781 186.17,-781 183,-777.83 183,-774.67 183,-774.67 183,-768.33 183,-768.33 183,-765.17 186.17,-762 189.33,-762 189.33,-762 271.67,-762 271.67,-762 274.83,-762 278,-765.17 278,-768.33 278,-768.33 278,-774.67 278,-774.67 278,-777.83 274.83,-781 271.67,-781"/>
<text text-anchor="middle" x="230.5" y="-769" font-family="Helvetica,sans-Serif" font-size="10.00">reloadInputFiles</text>
</a>
</g>
</g>
<!-- Node1&#45;&gt;Node21 -->
<g id="edge3_Node000001_Node000021" class="edge">
<title>Node1&#45;&gt;Node21</title>
<g id="a_edge3_Node000001_Node000021"><a xlink:title=" ">
<path fill="none" stroke="#63b8ff" d="M57.7,-423.09C64.2,-473.28 96.66,-705.39 147,-753.5 154.23,-760.41 163.47,-764.92 173.14,-767.81"/>
<polygon fill="#63b8ff" stroke="#63b8ff" points="172.34,-771.22 182.88,-770.19 174,-764.42 172.34,-771.22"/>
</a>
</g>
</g>
<!-- Node159 -->
<g id="Node000159" class="node">
<title>Node159</title>
<g id="a_Node000159"><a xlink:href="biases_8cpp.html#ad625cfbdfa54750bc64d8692e398e16b" target="_top" xlink:title="Add default 0 values to DSBs between default signals, e.g.">
<path fill="#fff0f0" stroke="red" d="M270.17,-744C270.17,-744 190.83,-744 190.83,-744 187.67,-744 184.5,-740.83 184.5,-737.67 184.5,-737.67 184.5,-731.33 184.5,-731.33 184.5,-728.17 187.67,-725 190.83,-725 190.83,-725 270.17,-725 270.17,-725 273.33,-725 276.5,-728.17 276.5,-731.33 276.5,-731.33 276.5,-737.67 276.5,-737.67 276.5,-740.83 273.33,-744 270.17,-744"/>
<text text-anchor="middle" x="230.5" y="-732" font-family="Helvetica,sans-Serif" font-size="10.00">addDefaultBias</text>
</a>
</g>
</g>
<!-- Node1&#45;&gt;Node159 -->
<g id="edge4_Node000001_Node000159" class="edge">
<title>Node1&#45;&gt;Node159</title>
<g id="a_edge4_Node000001_Node000159"><a xlink:title=" ">
<path fill="none" stroke="#63b8ff" d="M56.15,-423.16C55.18,-465.12 57.23,-633.26 147,-716.5 154.66,-723.6 164.44,-728.14 174.57,-731"/>
<polygon fill="#63b8ff" stroke="#63b8ff" points="173.81,-734.42 184.34,-733.25 175.38,-727.6 173.81,-734.42"/>
</a>
</g>
</g>
<!-- Node161 -->
<g id="Node000161" class="node">
<title>Node161</title>
<g id="a_Node000161"><a xlink:href="outputs_8cpp.html#a116830f5a44aad1710dc47ecfa670cab" target="_top" xlink:title="Create new empty trace files only when required when the filename is changed.">
<path fill="#fff0f0" stroke="red" d="M270.67,-707C270.67,-707 190.33,-707 190.33,-707 187.17,-707 184,-703.83 184,-700.67 184,-700.67 184,-694.33 184,-694.33 184,-691.17 187.17,-688 190.33,-688 190.33,-688 270.67,-688 270.67,-688 273.83,-688 277,-691.17 277,-694.33 277,-694.33 277,-700.67 277,-700.67 277,-703.83 273.83,-707 270.67,-707"/>
<text text-anchor="middle" x="230.5" y="-695" font-family="Helvetica,sans-Serif" font-size="10.00">createTracefiles</text>
</a>
</g>
</g>
<!-- Node1&#45;&gt;Node161 -->
<g id="edge5_Node000001_Node000161" class="edge">
<title>Node1&#45;&gt;Node161</title>
<g id="a_edge5_Node000001_Node000161"><a xlink:title=" ">
<path fill="none" stroke="#63b8ff" d="M56.84,-423.18C58.72,-461.12 70.75,-601.1 147,-673.5 154.62,-680.74 164.3,-685.81 174.33,-689.36"/>
<polygon fill="#63b8ff" stroke="#63b8ff" points="173.4,-692.74 183.99,-692.32 175.45,-686.04 173.4,-692.74"/>
</a>
</g>
</g>
<!-- Node179 -->
<g id="Node000179" class="node">
<title>Node179</title>
<g id="a_Node000179"><a xlink:href="mongo_8cpp.html#ae5331ad152c6df38001c3b955c533f8d" target="_top" xlink:title=" ">
<path fill="#fff0f0" stroke="red" d="M258.17,-631C258.17,-631 202.83,-631 202.83,-631 199.67,-631 196.5,-627.83 196.5,-624.67 196.5,-624.67 196.5,-618.33 196.5,-618.33 196.5,-615.17 199.67,-612 202.83,-612 202.83,-612 258.17,-612 258.17,-612 261.33,-612 264.5,-615.17 264.5,-618.33 264.5,-618.33 264.5,-624.67 264.5,-624.67 264.5,-627.83 261.33,-631 258.17,-631"/>
<text text-anchor="middle" x="230.5" y="-619" font-family="Helvetica,sans-Serif" font-size="10.00">mongoooo</text>
</a>
</g>
</g>
<!-- Node1&#45;&gt;Node179 -->
<g id="edge7_Node000001_Node000179" class="edge">
<title>Node1&#45;&gt;Node179</title>
<g id="a_edge7_Node000001_Node000179"><a xlink:title=" ">
<path fill="none" stroke="#63b8ff" d="M58.06,-423.24C63.66,-454.79 85.74,-554.91 147,-603.5 158.07,-612.28 172.51,-617 186.2,-619.48"/>
<polygon fill="#63b8ff" stroke="#63b8ff" points="186.07,-622.99 196.46,-620.96 187.07,-616.06 186.07,-622.99"/>
</a>
</g>
</g>
<!-- Node181 -->
<g id="Node000181" class="node">
<title>Node181</title>
<g id="a_Node000181"><a xlink:href="orbitProp_8cpp.html#ac501cabce75c25f72ab22eee5231dac6" target="_top" xlink:title="Use models to predict orbital motion and prepare state transition equations to implement those predic...">
<path fill="#fff0f0" stroke="red" d="M264.17,-594C264.17,-594 196.83,-594 196.83,-594 193.67,-594 190.5,-590.83 190.5,-587.67 190.5,-587.67 190.5,-581.33 190.5,-581.33 190.5,-578.17 193.67,-575 196.83,-575 196.83,-575 264.17,-575 264.17,-575 267.33,-575 270.5,-578.17 270.5,-581.33 270.5,-581.33 270.5,-587.67 270.5,-587.67 270.5,-590.83 267.33,-594 264.17,-594"/>
<text text-anchor="middle" x="230.5" y="-582" font-family="Helvetica,sans-Serif" font-size="10.00">predictOrbits</text>
</a>
</g>
</g>
<!-- Node1&#45;&gt;Node181 -->
<g id="edge8_Node000001_Node000181" class="edge">
<title>Node1&#45;&gt;Node181</title>
<g id="a_edge8_Node000001_Node000181"><a xlink:title=" ">
<path fill="none" stroke="#63b8ff" d="M59.62,-423.08C68.66,-449.29 97.41,-522.72 147,-560.5 156.73,-567.92 168.7,-573.04 180.47,-576.59"/>
<polygon fill="#63b8ff" stroke="#63b8ff" points="179.69,-580 190.26,-579.21 181.5,-573.24 179.69,-580"/>
</a>
</g>
</g>
<!-- Node191 -->
<g id="Node000191" class="node">
<title>Node191</title>
<g id="a_Node000191"><a xlink:href="structInteractiveTerminal.html#a1673a1bc7c18472e291aa3b1ed1bb1b7" target="_top" xlink:title=" ">
<path fill="#fff0f0" stroke="red" d="M456.5,-264.5C456.5,-264.5 365.5,-264.5 365.5,-264.5 360.5,-264.5 355.5,-259.5 355.5,-254.5 355.5,-254.5 355.5,-244.5 355.5,-244.5 355.5,-239.5 360.5,-234.5 365.5,-234.5 365.5,-234.5 456.5,-234.5 456.5,-234.5 461.5,-234.5 466.5,-239.5 466.5,-244.5 466.5,-244.5 466.5,-254.5 466.5,-254.5 466.5,-259.5 461.5,-264.5 456.5,-264.5"/>
<text text-anchor="start" x="363.5" y="-252.5" font-family="Helvetica,sans-Serif" font-size="10.00">InteractiveTerminal</text>
<text text-anchor="middle" x="411" y="-241.5" font-family="Helvetica,sans-Serif" font-size="10.00">::setMode</text>
</a>
</g>
</g>
<!-- Node1&#45;&gt;Node191 -->
<g id="edge10_Node000001_Node000191" class="edge">
<title>Node1&#45;&gt;Node191</title>
<g id="a_edge10_Node000001_Node000191"><a xlink:title=" ">
<path fill="none" stroke="#63b8ff" d="M60.59,-423.27C70.97,-446.58 100.81,-505.19 147,-527.5 213.84,-559.78 257.56,-575.7 314,-527.5 391.68,-461.17 299.97,-389.56 350,-300.5 356.5,-288.93 366.69,-278.8 376.85,-270.69"/>
<polygon fill="#63b8ff" stroke="#63b8ff" points="379.02,-273.43 384.91,-264.62 374.82,-267.84 379.02,-273.43"/>
</a>
</g>
</g>
<!-- Node199 -->
<g id="Node000199" class="node">
<title>Node199</title>
<g id="a_Node000199"><a xlink:href="mongoRead_8cpp.html#afb0cf2e28aad7d5f276d9735f941195d" target="_top" xlink:title=" ">
<path fill="#fff0f0" stroke="red" d="M274.17,-518C274.17,-518 186.83,-518 186.83,-518 183.67,-518 180.5,-514.83 180.5,-511.67 180.5,-511.67 180.5,-505.33 180.5,-505.33 180.5,-502.17 183.67,-499 186.83,-499 186.83,-499 274.17,-499 274.17,-499 277.33,-499 280.5,-502.17 280.5,-505.33 280.5,-505.33 280.5,-511.67 280.5,-511.67 280.5,-514.83 277.33,-518 274.17,-518"/>
<text text-anchor="middle" x="230.5" y="-506" font-family="Helvetica,sans-Serif" font-size="10.00">mongoReadFilter</text>
</a>
</g>
</g>
<!-- Node1&#45;&gt;Node199 -->
<g id="edge11_Node000001_Node000199" class="edge">
<title>Node1&#45;&gt;Node199</title>
<g id="a_edge11_Node000001_Node000199"><a xlink:title=" ">
<path fill="none" stroke="#63b8ff" d="M66.19,-423.21C81.86,-438.38 114.31,-467.72 147,-484.5 155.86,-489.05 165.71,-492.85 175.43,-496"/>
<polygon fill="#63b8ff" stroke="#63b8ff" points="174.47,-499.37 185.06,-498.92 176.51,-492.67 174.47,-499.37"/>
</a>
</g>
</g>
<!-- Node195 -->
<g id="Node000195" class="node">
<title>Node195</title>
<g id="a_Node000195"><a xlink:href="structGTime.html#a98fdbaaec5a132a7e694f28b4f1907cb" target="_top" xlink:title=" ">
<path fill="#fff0f0" stroke="red" d="M599.67,-328C599.67,-328 514.33,-328 514.33,-328 511.17,-328 508,-324.83 508,-321.67 508,-321.67 508,-315.33 508,-315.33 508,-312.17 511.17,-309 514.33,-309 514.33,-309 599.67,-309 599.67,-309 602.83,-309 606,-312.17 606,-315.33 606,-315.33 606,-321.67 606,-321.67 606,-324.83 602.83,-328 599.67,-328"/>
<text text-anchor="middle" x="557" y="-316" font-family="Helvetica,sans-Serif" font-size="10.00">GTime::to_string</text>
</a>
</g>
</g>
<!-- Node1&#45;&gt;Node195 -->
<g id="edge12_Node000001_Node000195" class="edge">
<title>Node1&#45;&gt;Node195</title>
<g id="a_edge12_Node000001_Node000195"><a xlink:title=" ">
<path fill="none" stroke="#63b8ff" d="M111.05,-418.03C163.55,-421.13 244.93,-422.61 314,-409.5 394.77,-394.17 483.83,-354.2 527.98,-332.69"/>
<polygon fill="#63b8ff" stroke="#63b8ff" points="529.78,-335.7 537.21,-328.14 526.69,-329.42 529.78,-335.7"/>
</a>
</g>
</g>
<!-- Node201 -->
<g id="Node000201" class="node">
<title>Node201</title>
<g id="a_Node000201"><a xlink:href="structKFState.html#a0c84e911a5ea760fe728baec661e33f0" target="_top" xlink:title="Output keys and states in human readable format.">
<path fill="#fff0f0" stroke="red" d="M465.67,-179C465.67,-179 356.33,-179 356.33,-179 353.17,-179 350,-175.83 350,-172.67 350,-172.67 350,-166.33 350,-166.33 350,-163.17 353.17,-160 356.33,-160 356.33,-160 465.67,-160 465.67,-160 468.83,-160 472,-163.17 472,-166.33 472,-166.33 472,-172.67 472,-172.67 472,-175.83 468.83,-179 465.67,-179"/>
<text text-anchor="middle" x="411" y="-167" font-family="Helvetica,sans-Serif" font-size="10.00">KFState::outputStates</text>
</a>
</g>
</g>
<!-- Node1&#45;&gt;Node201 -->
<g id="edge13_Node000001_Node000201" class="edge">
<title>Node1&#45;&gt;Node201</title>
<g id="a_edge13_Node000001_Node000201"><a xlink:title=" ">
<path fill="none" stroke="#63b8ff" d="M111.18,-420.86C169.45,-425.4 260.53,-422.46 314,-370.5 373.45,-312.74 294.3,-248.89 350,-187.5 350.77,-186.65 351.57,-185.85 352.41,-185.08"/>
<polygon fill="#63b8ff" stroke="#63b8ff" points="354.65,-187.78 360.75,-179.11 350.58,-182.09 354.65,-187.78"/>
</a>
</g>
</g>
<!-- Node202 -->
<g id="Node000202" class="node">
<title>Node202</title>
<g id="a_Node000202"><a xlink:href="mongoWrite_8cpp.html#a7b0669675f4db278af7db5cb0b0dee6a" target="_top" xlink:title=" ">
<path fill="#fff0f0" stroke="red" d="M445.17,-216C445.17,-216 376.83,-216 376.83,-216 373.67,-216 370.5,-212.83 370.5,-209.67 370.5,-209.67 370.5,-203.33 370.5,-203.33 370.5,-200.17 373.67,-197 376.83,-197 376.83,-197 445.17,-197 445.17,-197 448.33,-197 451.5,-200.17 451.5,-203.33 451.5,-203.33 451.5,-209.67 451.5,-209.67 451.5,-212.83 448.33,-216 445.17,-216"/>
<text text-anchor="middle" x="411" y="-204" font-family="Helvetica,sans-Serif" font-size="10.00">mongoStates</text>
</a>
</g>
</g>
<!-- Node1&#45;&gt;Node202 -->
<g id="edge15_Node000001_Node000202" class="edge">
<title>Node1&#45;&gt;Node202</title>
<g id="a_edge15_Node000001_Node000202"><a xlink:title=" ">
<path fill="none" stroke="#63b8ff" d="M111.22,-420.39C169.1,-424.43 259.43,-420.97 314,-370.5 362.75,-325.41 304.56,-273.92 350,-225.5 353.16,-222.14 356.9,-219.37 360.96,-217.09"/>
<polygon fill="#63b8ff" stroke="#63b8ff" points="362.6,-220.19 370.22,-212.83 359.67,-213.82 362.6,-220.19"/>
</a>
</g>
</g>
<!-- Node211 -->
<g id="Node000211" class="node">
<title>Node211</title>
<g id="a_Node000211"><a xlink:href="erp_8cpp.html#aa281b734dbbef403ca921fc9d09e9961" target="_top" xlink:title="Get earth rotation parameter values.">
<path fill="#fff0f0" stroke="red" d="M453.67,-142C453.67,-142 368.33,-142 368.33,-142 365.17,-142 362,-138.83 362,-135.67 362,-135.67 362,-129.33 362,-129.33 362,-126.17 365.17,-123 368.33,-123 368.33,-123 453.67,-123 453.67,-123 456.83,-123 460,-126.17 460,-129.33 460,-129.33 460,-135.67 460,-135.67 460,-138.83 456.83,-142 453.67,-142"/>
<text text-anchor="middle" x="411" y="-130" font-family="Helvetica,sans-Serif" font-size="10.00">getErpFromFilter</text>
</a>
</g>
</g>
<!-- Node1&#45;&gt;Node211 -->
<g id="edge16_Node000001_Node000211" class="edge">
<title>Node1&#45;&gt;Node211</title>
<g id="a_edge16_Node000001_Node000211"><a xlink:title=" ">
<path fill="none" stroke="#63b8ff" d="M76.16,-403.87C94.42,-394.99 122.41,-381.56 147,-370.5 220.55,-337.41 261.86,-361.03 314,-299.5 358.04,-247.52 303.15,-199.97 350,-150.5 351.05,-149.39 352.17,-148.35 353.34,-147.37"/>
<polygon fill="#63b8ff" stroke="#63b8ff" points="355.36,-150.23 361.77,-141.79 351.5,-144.39 355.36,-150.23"/>
</a>
</g>
</g>
<!-- Node214 -->
<g id="Node000214" class="node">
<title>Node214</title>
<g id="a_Node000214"><a xlink:href="erp_8cpp.html#afe3874cc58d609f4ccc2b03a5ef632b8" target="_top" xlink:title="Get earth rotation parameter values.">
<path fill="#fff0f0" stroke="red" d="M428.67,-328C428.67,-328 393.33,-328 393.33,-328 390.17,-328 387,-324.83 387,-321.67 387,-321.67 387,-315.33 387,-315.33 387,-312.17 390.17,-309 393.33,-309 393.33,-309 428.67,-309 428.67,-309 431.83,-309 435,-312.17 435,-315.33 435,-315.33 435,-321.67 435,-321.67 435,-324.83 431.83,-328 428.67,-328"/>
<text text-anchor="middle" x="411" y="-316" font-family="Helvetica,sans-Serif" font-size="10.00">getErp</text>
</a>
</g>
</g>
<!-- Node1&#45;&gt;Node214 -->
<g id="edge17_Node000001_Node000214" class="edge">
<title>Node1&#45;&gt;Node214</title>
<g id="a_edge17_Node000001_Node000214"><a xlink:title=" ">
<path fill="none" stroke="#63b8ff" d="M92.01,-403.96C160.48,-385.56 309.88,-345.41 376.63,-327.47"/>
<polygon fill="#63b8ff" stroke="#63b8ff" points="377.85,-330.76 386.6,-324.79 376.04,-324 377.85,-330.76"/>
</a>
</g>
</g>
<!-- Node216 -->
<g id="Node000216" class="node">
<title>Node216</title>
<g id="a_Node000216"><a xlink:href="structFrameSwapper.html#a77197ebb2677249057c1de5478721f3d" target="_top" xlink:title=" ">
<path fill="#fff0f0" stroke="red" d="M294.17,-290C294.17,-290 166.83,-290 166.83,-290 163.67,-290 160.5,-286.83 160.5,-283.67 160.5,-283.67 160.5,-277.33 160.5,-277.33 160.5,-274.17 163.67,-271 166.83,-271 166.83,-271 294.17,-271 294.17,-271 297.33,-271 300.5,-274.17 300.5,-277.33 300.5,-277.33 300.5,-283.67 300.5,-283.67 300.5,-286.83 297.33,-290 294.17,-290"/>
<text text-anchor="middle" x="230.5" y="-278" font-family="Helvetica,sans-Serif" font-size="10.00">FrameSwapper::setCache</text>
</a>
</g>
</g>
<!-- Node1&#45;&gt;Node216 -->
<g id="edge19_Node000001_Node000216" class="edge">
<title>Node1&#45;&gt;Node216</title>
<g id="a_edge19_Node000001_Node000216"><a xlink:title=" ">
<path fill="none" stroke="#63b8ff" d="M61.87,-403.69C74.09,-382.32 106.07,-331.34 147,-304.5 153.83,-300.02 161.51,-296.36 169.36,-293.37"/>
<polygon fill="#63b8ff" stroke="#63b8ff" points="170.68,-296.62 178.99,-290.05 168.39,-290.01 170.68,-296.62"/>
</a>
</g>
</g>
<!-- Node217 -->
<g id="Node000217" class="node">
<title>Node217</title>
<g id="a_Node000217"><a xlink:href="main_8cpp.html#a79eb17a8eaafbf1dde7569cb7eae3b7e" target="_top" xlink:title=" ">
<path fill="#fff0f0" stroke="red" d="M307.67,-253C307.67,-253 153.33,-253 153.33,-253 150.17,-253 147,-249.83 147,-246.67 147,-246.67 147,-240.33 147,-240.33 147,-237.17 150.17,-234 153.33,-234 153.33,-234 307.67,-234 307.67,-234 310.83,-234 314,-237.17 314,-240.33 314,-240.33 314,-246.67 314,-246.67 314,-249.83 310.83,-253 307.67,-253"/>
<text text-anchor="middle" x="230.5" y="-241" font-family="Helvetica,sans-Serif" font-size="10.00">mainOncePerEpochPerSatellite</text>
</a>
</g>
</g>
<!-- Node1&#45;&gt;Node217 -->
<g id="edge20_Node000001_Node000217" class="edge">
<title>Node1&#45;&gt;Node217</title>
<g id="a_edge20_Node000001_Node000217"><a xlink:title=" ">
<path fill="none" stroke="#63b8ff" d="M59.31,-403.9C67.71,-376.94 95.33,-300.06 147,-262.5 149.67,-260.56 152.52,-258.81 155.48,-257.23"/>
<polygon fill="#63b8ff" stroke="#63b8ff" points="157.03,-260.37 164.65,-253.02 154.11,-254.01 157.03,-260.37"/>
</a>
</g>
</g>
<!-- Node310 -->
<g id="Node000310" class="node">
<title>Node310</title>
<g id="a_Node000310"><a xlink:href="main_8cpp.html#ae9a767ba206649ca2e395dd210c2218b" target="_top" xlink:title="Perform operations for each station This function occurs in parallel with other stations &#45; ensure tha...">
<path fill="#fff0f0" stroke="red" d="M304.67,-216C304.67,-216 156.33,-216 156.33,-216 153.17,-216 150,-212.83 150,-209.67 150,-209.67 150,-203.33 150,-203.33 150,-200.17 153.17,-197 156.33,-197 156.33,-197 304.67,-197 304.67,-197 307.83,-197 311,-200.17 311,-203.33 311,-203.33 311,-209.67 311,-209.67 311,-212.83 307.83,-216 304.67,-216"/>
<text text-anchor="middle" x="230.5" y="-204" font-family="Helvetica,sans-Serif" font-size="10.00">mainOncePerEpochPerStation</text>
</a>
</g>
</g>
<!-- Node1&#45;&gt;Node310 -->
<g id="edge21_Node000001_Node000310" class="edge">
<title>Node1&#45;&gt;Node310</title>
<g id="a_edge21_Node000001_Node000310"><a xlink:title=" ">
<path fill="none" stroke="#63b8ff" d="M58.12,-403.89C63.89,-372.75 86.44,-273.9 147,-225.5 149.11,-223.81 151.34,-222.27 153.67,-220.86"/>
<polygon fill="#63b8ff" stroke="#63b8ff" points="155.74,-223.73 163.04,-216.05 152.55,-217.5 155.74,-223.73"/>
</a>
</g>
</g>
<!-- Node436 -->
<g id="Node000436" class="node">
<title>Node436</title>
<g id="a_Node000436"><a xlink:href="ppppp_8cpp.html#a9997f03cab80cd8db895650860eb025e" target="_top" xlink:title=" ">
<path fill="#fff0f0" stroke="red" d="M241.67,-179C241.67,-179 219.33,-179 219.33,-179 216.17,-179 213,-175.83 213,-172.67 213,-172.67 213,-166.33 213,-166.33 213,-163.17 216.17,-160 219.33,-160 219.33,-160 241.67,-160 241.67,-160 244.83,-160 248,-163.17 248,-166.33 248,-166.33 248,-172.67 248,-172.67 248,-175.83 244.83,-179 241.67,-179"/>
<text text-anchor="middle" x="230.5" y="-167" font-family="Helvetica,sans-Serif" font-size="10.00">ppp</text>
</a>
</g>
</g>
<!-- Node1&#45;&gt;Node436 -->
<g id="edge23_Node000001_Node000436" class="edge">
<title>Node1&#45;&gt;Node436</title>
<g id="a_edge23_Node000001_Node000436"><a xlink:title=" ">
<path fill="none" stroke="#63b8ff" d="M57.24,-403.97C60.49,-369.06 76.67,-247.02 147,-187.5 162.38,-174.48 185.03,-170.25 202.71,-169.13"/>
<polygon fill="#63b8ff" stroke="#63b8ff" points="203.09,-172.62 212.97,-168.78 202.85,-165.62 203.09,-172.62"/>
</a>
</g>
</g>
<!-- Node619 -->
<g id="Node000619" class="node">
<title>Node619</title>
<g id="a_Node000619"><a xlink:href="outputs_8cpp.html#abf277b1afcff7cb07fa2857b4a373100" target="_top" xlink:title=" ">
<path fill="#fff0f0" stroke="red" d="M297.5,-141.5C297.5,-141.5 163.5,-141.5 163.5,-141.5 158.5,-141.5 153.5,-136.5 153.5,-131.5 153.5,-131.5 153.5,-121.5 153.5,-121.5 153.5,-116.5 158.5,-111.5 163.5,-111.5 163.5,-111.5 297.5,-111.5 297.5,-111.5 302.5,-111.5 307.5,-116.5 307.5,-121.5 307.5,-121.5 307.5,-131.5 307.5,-131.5 307.5,-136.5 302.5,-141.5 297.5,-141.5"/>
<text text-anchor="start" x="161.5" y="-129.5" font-family="Helvetica,sans-Serif" font-size="10.00">perEpochPostProcessingAnd</text>
<text text-anchor="middle" x="230.5" y="-118.5" font-family="Helvetica,sans-Serif" font-size="10.00">Outputs</text>
</a>
</g>
</g>
<!-- Node1&#45;&gt;Node619 -->
<g id="edge30_Node000001_Node000619" class="edge">
<title>Node1&#45;&gt;Node619</title>
<g id="a_edge30_Node000001_Node000619"><a xlink:title=" ">
<path fill="none" stroke="#63b8ff" d="M56.79,-403.97C58.48,-365.99 69.91,-223.95 147,-150.5 148.11,-149.44 149.27,-148.42 150.47,-147.45"/>
<polygon fill="#63b8ff" stroke="#63b8ff" points="152.61,-150.23 158.87,-141.68 148.65,-144.46 152.61,-150.23"/>
</a>
</g>
</g>
<!-- Node748 -->
<g id="Node000748" class="node">
<title>Node748</title>
<g id="a_Node000748"><a xlink:href="main_8cpp.html#aa230ac4b3260c48e1aa026f983f67984" target="_top" xlink:title=" ">
<path fill="#fff0f0" stroke="red" d="M252.67,-93C252.67,-93 208.33,-93 208.33,-93 205.17,-93 202,-89.83 202,-86.67 202,-86.67 202,-80.33 202,-80.33 202,-77.17 205.17,-74 208.33,-74 208.33,-74 252.67,-74 252.67,-74 255.83,-74 259,-77.17 259,-80.33 259,-80.33 259,-86.67 259,-86.67 259,-89.83 255.83,-93 252.67,-93"/>
<text text-anchor="middle" x="230.5" y="-81" font-family="Helvetica,sans-Serif" font-size="10.00">cullData</text>
</a>
</g>
</g>
<!-- Node1&#45;&gt;Node748 -->
<g id="edge40_Node000001_Node000748" class="edge">
<title>Node1&#45;&gt;Node748</title>
<g id="a_edge40_Node000001_Node000748"><a xlink:title=" ">
<path fill="none" stroke="#63b8ff" d="M56.09,-403.91C54.82,-361.46 55.64,-188.81 147,-102.5 158.92,-91.24 176.12,-86.18 191.73,-84.07"/>
<polygon fill="#63b8ff" stroke="#63b8ff" points="192.09,-87.55 201.69,-83.06 191.39,-80.58 192.09,-87.55"/>
</a>
</g>
</g>
<!-- Node756 -->
<g id="Node000756" class="node">
<title>Node756</title>
<g id="a_Node000756"><a xlink:href="testUtils_8cpp.html#a031b2ff187042dae7394437b787b6ada" target="_top" xlink:title=" ">
<path fill="#fff0f0" stroke="red" d="M252.67,-56C252.67,-56 208.33,-56 208.33,-56 205.17,-56 202,-52.83 202,-49.67 202,-49.67 202,-43.33 202,-43.33 202,-40.17 205.17,-37 208.33,-37 208.33,-37 252.67,-37 252.67,-37 255.83,-37 259,-40.17 259,-43.33 259,-43.33 259,-49.67 259,-49.67 259,-52.83 255.83,-56 252.67,-56"/>
<text text-anchor="middle" x="230.5" y="-44" font-family="Helvetica,sans-Serif" font-size="10.00">plumber</text>
</a>
</g>
</g>
<!-- Node1&#45;&gt;Node756 -->
<g id="edge41_Node000001_Node000756" class="edge">
<title>Node1&#45;&gt;Node756</title>
<g id="a_edge41_Node000001_Node000756"><a xlink:title=" ">
<path fill="none" stroke="#63b8ff" d="M57.62,-404C63.83,-353.2 95.46,-114.07 147,-64.5 158.87,-53.08 176.22,-48.22 191.95,-46.36"/>
<polygon fill="#63b8ff" stroke="#63b8ff" points="192.3,-49.84 201.98,-45.53 191.72,-42.86 192.3,-49.84"/>
</a>
</g>
</g>
<!-- Node757 -->
<g id="Node000757" class="node">
<title>Node757</title>
<g id="a_Node000757"><a xlink:href="api_8cpp.html#a94016b69e84cb39ab5d144a54c179ad6" target="_top" xlink:title=" ">
<path fill="#fff0f0" stroke="red" d="M290.17,-19C290.17,-19 170.83,-19 170.83,-19 167.67,-19 164.5,-15.83 164.5,-12.67 164.5,-12.67 164.5,-6.33 164.5,-6.33 164.5,-3.17 167.67,0 170.83,0 170.83,0 290.17,0 290.17,0 293.33,0 296.5,-3.17 296.5,-6.33 296.5,-6.33 296.5,-12.67 296.5,-12.67 296.5,-15.83 293.33,-19 290.17,-19"/>
<text text-anchor="middle" x="230.5" y="-7" font-family="Helvetica,sans-Serif" font-size="10.00">callbacksOncePerEpoch</text>
</a>
</g>
</g>
<!-- Node1&#45;&gt;Node757 -->
<g id="edge42_Node000001_Node000757" class="edge">
<title>Node1&#45;&gt;Node757</title>
<g id="a_edge42_Node000001_Node000757"><a xlink:title=" ">
<path fill="none" stroke="#63b8ff" d="M57.4,-403.73C62.61,-349.19 90.72,-82.92 147,-27.5 149.45,-25.08 152.15,-22.96 155.03,-21.09"/>
<polygon fill="#63b8ff" stroke="#63b8ff" points="156.96,-24.03 164.14,-16.24 153.67,-17.85 156.96,-24.03"/>
</a>
</g>
</g>
<!-- Node2&#45;&gt;Node3 -->
<g id="edge2_Node000002_Node000003" class="edge">
<title>Node2&#45;&gt;Node3</title>
<g id="a_edge2_Node000002_Node000003"><a xlink:title=" ">
<path fill="none" stroke="#63b8ff" d="M276.35,-808.9C290.42,-806.65 304.69,-801.45 314,-790.5 411.58,-675.71 256.89,-231.94 350,-113.5 353.7,-108.79 358.59,-105.27 363.98,-102.65"/>
<polygon fill="#63b8ff" stroke="#63b8ff" points="365.32,-105.89 373.41,-99.04 362.82,-99.35 365.32,-105.89"/>
</a>
</g>
</g>
<!-- Node181&#45;&gt;Node191 -->
<g id="edge9_Node000181_Node000191" class="edge">
<title>Node181&#45;&gt;Node191</title>
<g id="a_edge9_Node000181_Node000191"><a xlink:title=" ">
<path fill="none" stroke="#63b8ff" d="M270.5,-582.18C286.23,-579.2 303.17,-573.03 314,-560.5 390.28,-472.23 293.87,-402.77 350,-300.5 356.38,-288.87 366.55,-278.73 376.72,-270.62"/>
<polygon fill="#63b8ff" stroke="#63b8ff" points="378.89,-273.36 384.79,-264.56 374.69,-267.76 378.89,-273.36"/>
</a>
</g>
</g>
<!-- Node201&#45;&gt;Node195 -->
<g id="edge14_Node000201_Node000195" class="edge">
<title>Node201&#45;&gt;Node195</title>
<g id="a_edge14_Node000201_Node000195"><a xlink:title=" ">
<path fill="none" stroke="#63b8ff" d="M456.98,-179.09C462.33,-181.33 467.48,-184.1 472,-187.5 511.21,-217.07 537.09,-270.69 548.8,-299.31"/>
<polygon fill="#63b8ff" stroke="#63b8ff" points="545.67,-300.92 552.59,-308.94 552.19,-298.36 545.67,-300.92"/>
</a>
</g>
</g>
<!-- Node214&#45;&gt;Node195 -->
<g id="edge18_Node000214_Node000195" class="edge">
<title>Node214&#45;&gt;Node195</title>
<g id="a_edge18_Node000214_Node000195"><a xlink:title=" ">
<path fill="none" stroke="#63b8ff" d="M435.14,-318.5C452.02,-318.5 475.69,-318.5 497.61,-318.5"/>
<polygon fill="#63b8ff" stroke="#63b8ff" points="497.87,-322 507.87,-318.5 497.87,-315 497.87,-322"/>
</a>
</g>
</g>
<!-- Node310&#45;&gt;Node3 -->
<g id="edge22_Node000310_Node000003" class="edge">
<title>Node310&#45;&gt;Node3</title>
<g id="a_edge22_Node000310_Node000003"><a xlink:title=" ">
<path fill="none" stroke="#63b8ff" d="M297.94,-196.92C303.7,-194.44 309.17,-191.34 314,-187.5 342.62,-164.73 322.14,-137.19 350,-113.5 354.04,-110.07 358.72,-107.29 363.64,-105.04"/>
<polygon fill="#63b8ff" stroke="#63b8ff" points="365.23,-108.18 373.31,-101.33 362.72,-101.64 365.23,-108.18"/>
</a>
</g>
</g>
<!-- Node436&#45;&gt;Node191 -->
<g id="edge24_Node000436_Node000191" class="edge">
<title>Node436&#45;&gt;Node191</title>
<g id="a_edge24_Node000436_Node000191"><a xlink:title=" ">
<path fill="none" stroke="#63b8ff" d="M248.01,-163.58C265.43,-162.67 293.19,-166.76 314,-178.5 334.26,-189.93 330.75,-203.43 350,-216.5 358.13,-222.02 367.72,-226.57 376.82,-230.53"/>
<polygon fill="#63b8ff" stroke="#63b8ff" points="375.47,-233.76 386.04,-234.46 378.21,-227.32 375.47,-233.76"/>
</a>
</g>
</g>
<!-- Node436&#45;&gt;Node191 -->
<g id="edge27_Node000436_Node000191" class="edge">
<title>Node436&#45;&gt;Node191</title>
<g id="a_edge27_Node000436_Node000191"><a xlink:title=" ">
<path fill="none" stroke="#63b8ff" d="M248.01,-176.93C265.43,-180.67 293.19,-184.76 314,-196.5 331.73,-206.5 331.26,-218.09 347.43,-231.9"/>
<polygon fill="#63b8ff" stroke="#63b8ff" points="345.38,-234.74 355.48,-237.95 349.59,-229.14 345.38,-234.74"/>
</a>
</g>
</g>
<!-- Node436&#45;&gt;Node201 -->
<g id="edge25_Node000436_Node000201" class="edge">
<title>Node436&#45;&gt;Node201</title>
<g id="a_edge25_Node000436_Node000201"><a xlink:title=" ">
<path fill="none" stroke="#63b8ff" d="M248.29,-165.35C269.21,-163.22 306.28,-162.4 339.65,-162.89"/>
<polygon fill="#63b8ff" stroke="#63b8ff" points="339.8,-166.39 349.87,-163.08 339.94,-159.39 339.8,-166.39"/>
</a>
</g>
</g>
<!-- Node436&#45;&gt;Node201 -->
<g id="edge28_Node000436_Node000201" class="edge">
<title>Node436&#45;&gt;Node201</title>
<g id="a_edge28_Node000436_Node000201"><a xlink:title=" ">
<path fill="none" stroke="#63b8ff" d="M248.29,-173.65C269.21,-175.78 306.28,-176.6 339.65,-176.11"/>
<polygon fill="#63b8ff" stroke="#63b8ff" points="339.94,-179.61 349.87,-175.92 339.8,-172.61 339.94,-179.61"/>
</a>
</g>
</g>
<!-- Node436&#45;&gt;Node202 -->
<g id="edge26_Node000436_Node000202" class="edge">
<title>Node436&#45;&gt;Node202</title>
<g id="a_edge26_Node000436_Node000202"><a xlink:title=" ">
<path fill="none" stroke="#63b8ff" d="M248.29,-168.83C277.57,-171.92 338.45,-184.12 376.59,-194.17"/>
<polygon fill="#63b8ff" stroke="#63b8ff" points="376.13,-197.67 386.7,-196.94 377.98,-190.92 376.13,-197.67"/>
</a>
</g>
</g>
<!-- Node436&#45;&gt;Node202 -->
<g id="edge29_Node000436_Node000202" class="edge">
<title>Node436&#45;&gt;Node202</title>
<g id="a_edge29_Node000436_Node000202"><a xlink:title=" ">
<path fill="none" stroke="#63b8ff" d="M248.29,-177.13C273.6,-184.95 322.53,-195.76 359.97,-202.26"/>
<polygon fill="#63b8ff" stroke="#63b8ff" points="359.75,-205.78 370.19,-203.98 360.91,-198.87 359.75,-205.78"/>
</a>
</g>
</g>
<!-- Node619&#45;&gt;Node3 -->
<g id="edge35_Node000619_Node000003" class="edge">
<title>Node619&#45;&gt;Node3</title>
<g id="a_edge35_Node000619_Node000003"><a xlink:title=" ">
<path fill="none" stroke="#63b8ff" d="M282.65,-111.45C307.98,-106.23 338.35,-101 363.08,-97.62"/>
<polygon fill="#63b8ff" stroke="#63b8ff" points="363.84,-101.06 373.3,-96.3 362.93,-94.11 363.84,-101.06"/>
</a>
</g>
</g>
<!-- Node619&#45;&gt;Node3 -->
<g id="edge36_Node000619_Node000003" class="edge">
<title>Node619&#45;&gt;Node3</title>
<g id="a_edge36_Node000619_Node000003"><a xlink:title=" ">
<path fill="none" stroke="#63b8ff" d="M307.72,-119.95C330.69,-116.19 354.84,-111.61 373.9,-107.32"/>
<polygon fill="#63b8ff" stroke="#63b8ff" points="374.71,-110.72 383.65,-105.03 373.11,-103.91 374.71,-110.72"/>
</a>
</g>
</g>
<!-- Node619&#45;&gt;Node191 -->
<g id="edge31_Node000619_Node000191" class="edge">
<title>Node619&#45;&gt;Node191</title>
<g id="a_edge31_Node000619_Node000191"><a xlink:title=" ">
<path fill="none" stroke="#63b8ff" d="M300.49,-141.52C305.33,-144.06 309.9,-147.03 314,-150.5 342.2,-174.41 322.99,-200.25 350,-225.5 351.27,-226.69 352.6,-227.82 353.99,-228.89"/>
<polygon fill="#63b8ff" stroke="#63b8ff" points="352.16,-231.88 362.43,-234.49 356.03,-226.05 352.16,-231.88"/>
</a>
</g>
</g>
<!-- Node619&#45;&gt;Node201 -->
<g id="edge33_Node000619_Node000201" class="edge">
<title>Node619&#45;&gt;Node201</title>
<g id="a_edge33_Node000619_Node000201"><a xlink:title=" ">
<path fill="none" stroke="#63b8ff" d="M307.72,-138.17C333.06,-144.03 359.82,-150.96 379.62,-156.96"/>
<polygon fill="#63b8ff" stroke="#63b8ff" points="378.7,-160.34 389.29,-160 380.8,-153.66 378.7,-160.34"/>
</a>
</g>
</g>
<!-- Node619&#45;&gt;Node201 -->
<g id="edge37_Node000619_Node000201" class="edge">
<title>Node619&#45;&gt;Node201</title>
<g id="a_edge37_Node000619_Node000201"><a xlink:title=" ">
<path fill="none" stroke="#63b8ff" d="M270.23,-141.51C290.6,-147.39 316.2,-153.86 339.9,-159.22"/>
<polygon fill="#63b8ff" stroke="#63b8ff" points="339.41,-162.7 349.93,-161.45 340.92,-155.86 339.41,-162.7"/>
</a>
</g>
</g>
<!-- Node619&#45;&gt;Node202 -->
<g id="edge32_Node000619_Node000202" class="edge">
<title>Node619&#45;&gt;Node202</title>
<g id="a_edge32_Node000619_Node000202"><a xlink:title=" ">
<path fill="none" stroke="#63b8ff" d="M307.68,-137.99C309.84,-139.1 311.95,-140.27 314,-141.5 333.67,-153.32 330.47,-166.45 350,-178.5 360.82,-185.18 374.2,-189.71 385.58,-193.51"/>
<polygon fill="#63b8ff" stroke="#63b8ff" points="384.74,-196.93 395.34,-196.84 387,-190.3 384.74,-196.93"/>
</a>
</g>
</g>
<!-- Node619&#45;&gt;Node202 -->
<g id="edge38_Node000619_Node000202" class="edge">
<title>Node619&#45;&gt;Node202</title>
<g id="a_edge38_Node000619_Node000202"><a xlink:title=" ">
<path fill="none" stroke="#63b8ff" d="M269.32,-141.54C283.97,-145.84 300.45,-151.36 314,-159.5 333.67,-171.32 330.47,-184.45 350,-196.5 353.41,-198.6 357.07,-200.49 360.84,-202.16"/>
<polygon fill="#63b8ff" stroke="#63b8ff" points="359.78,-205.5 370.37,-205.85 362.3,-198.97 359.78,-205.5"/>
</a>
</g>
</g>
<!-- Node619&#45;&gt;Node211 -->
<g id="edge34_Node000619_Node000211" class="edge">
<title>Node619&#45;&gt;Node211</title>
<g id="a_edge34_Node000619_Node000211"><a xlink:title=" ">
<path fill="none" stroke="#63b8ff" d="M307.72,-122.38C322.51,-122.73 337.79,-123.35 351.89,-124.18"/>
<polygon fill="#63b8ff" stroke="#63b8ff" points="351.71,-127.67 361.92,-124.82 352.16,-120.69 351.71,-127.67"/>
</a>
</g>
</g>
<!-- Node619&#45;&gt;Node211 -->
<g id="edge39_Node000619_Node000211" class="edge">
<title>Node619&#45;&gt;Node211</title>
<g id="a_edge39_Node000619_Node000211"><a xlink:title=" ">
<path fill="none" stroke="#63b8ff" d="M307.72,-135.75C322.51,-136.39 337.79,-136.8 351.89,-136.92"/>
<polygon fill="#63b8ff" stroke="#63b8ff" points="351.91,-140.42 361.92,-136.95 351.93,-133.42 351.91,-140.42"/>
</a>
</g>
</g>
</g>
</svg>
