<?xml version="1.0" encoding="UTF-8" standalone="no"?>
<!DOCTYPE svg PUBLIC "-//W3C//DTD SVG 1.1//EN"
 "http://www.w3.org/Graphics/SVG/1.1/DTD/svg11.dtd">
<!-- Generated by graphviz version 2.43.0 (0)
 -->
<!-- Title: mincon Pages: 1 -->
<svg width="417pt" height="949pt"
 viewBox="0.00 0.00 417.00 949.01" xmlns="http://www.w3.org/2000/svg" xmlns:xlink="http://www.w3.org/1999/xlink">
<g id="graph0" class="graph" transform="scale(1 1) rotate(0) translate(4 945.01)">
<title>mincon</title>
<!-- Node1 -->
<g id="Node000001" class="node">
<title>Node1</title>
<g id="a_Node000001"><a xlink:href="minimumConstraints_8cpp.html#aa40934b017f373d875c3470591eff52e" target="_top" xlink:title=" ">
<path fill="#fff0f0" stroke="red" stroke-width="2" d="M46.67,-474C46.67,-474 6.33,-474 6.33,-474 3.17,-474 0,-470.83 0,-467.67 0,-467.67 0,-461.33 0,-461.33 0,-458.17 3.17,-455 6.33,-455 6.33,-455 46.67,-455 46.67,-455 49.83,-455 53,-458.17 53,-461.33 53,-461.33 53,-467.67 53,-467.67 53,-470.83 49.83,-474 46.67,-474"/>
<text text-anchor="middle" x="26.5" y="-462" font-family="Helvetica,sans-Serif" font-size="10.00">mincon</text>
</a>
</g>
</g>
<!-- Node2 -->
<g id="Node000002" class="node">
<title>Node2</title>
<g id="a_Node000002"><a xlink:href="algebraTrace_8hpp.html#a763d8db4343fa73fa264de91d8cda786" target="_top" xlink:title="Output filter state to a file for later reading.">
<path fill="#fff0f0" stroke="red" d="M381.67,-437C381.67,-437 307.33,-437 307.33,-437 304.17,-437 301,-433.83 301,-430.67 301,-430.67 301,-424.33 301,-424.33 301,-421.17 304.17,-418 307.33,-418 307.33,-418 381.67,-418 381.67,-418 384.83,-418 388,-421.17 388,-424.33 388,-424.33 388,-430.67 388,-430.67 388,-433.83 384.83,-437 381.67,-437"/>
<text text-anchor="middle" x="344.5" y="-425" font-family="Helvetica,sans-Serif" font-size="10.00">spitFilterToFile</text>
</a>
</g>
</g>
<!-- Node1&#45;&gt;Node2 -->
<g id="edge1_Node000001_Node000002" class="edge">
<title>Node1&#45;&gt;Node2</title>
<g id="a_edge1_Node000001_Node000002"><a xlink:title=" ">
<path fill="none" stroke="#63b8ff" d="M27.2,-474.23C25.92,-532.63 23.63,-831.76 89,-888.5 141.02,-933.66 193.39,-935.23 244,-888.5 317.87,-820.29 216.79,-515.69 280,-437.5 283.18,-433.57 287.14,-430.43 291.51,-427.96"/>
<polygon fill="#63b8ff" stroke="#63b8ff" points="293.21,-431.04 300.97,-423.83 290.4,-424.63 293.21,-431.04"/>
</a>
</g>
</g>
<!-- Node1&#45;&gt;Node2 -->
<g id="edge34_Node000001_Node000002" class="edge">
<title>Node1&#45;&gt;Node2</title>
<g id="a_edge34_Node000001_Node000002"><a xlink:title=" ">
<path fill="none" stroke="#63b8ff" d="M27.3,-474.38C26.09,-534.72 21.91,-848.27 89,-906.5 141.02,-951.66 193.39,-953.23 244,-906.5 317.87,-838.29 216.79,-533.69 280,-455.5 286.4,-447.58 295.97,-442.87 305.74,-439.71"/>
<polygon fill="#63b8ff" stroke="#63b8ff" points="306.77,-443.06 315.48,-437.02 304.91,-436.31 306.77,-443.06"/>
</a>
</g>
</g>
<!-- Node7 -->
<g id="Node000007" class="node">
<title>Node7</title>
<g id="a_Node000007"><a xlink:href="algebraTrace_8cpp.html#aa526df463f08398d3cb422d191c56cfb" target="_top" xlink:title="Returns the type of object that is located at the specified position in a file.">
<path fill="#fff0f0" stroke="red" d="M221.17,-888C221.17,-888 111.83,-888 111.83,-888 108.67,-888 105.5,-884.83 105.5,-881.67 105.5,-881.67 105.5,-875.33 105.5,-875.33 105.5,-872.17 108.67,-869 111.83,-869 111.83,-869 221.17,-869 221.17,-869 224.33,-869 227.5,-872.17 227.5,-875.33 227.5,-875.33 227.5,-881.67 227.5,-881.67 227.5,-884.83 224.33,-888 221.17,-888"/>
<text text-anchor="middle" x="166.5" y="-876" font-family="Helvetica,sans-Serif" font-size="10.00">getFilterTypeFromFile</text>
</a>
</g>
</g>
<!-- Node1&#45;&gt;Node7 -->
<g id="edge2_Node000001_Node000007" class="edge">
<title>Node1&#45;&gt;Node7</title>
<g id="a_edge2_Node000001_Node000007"><a xlink:title=" ">
<path fill="none" stroke="#63b8ff" d="M27.59,-474.11C28.32,-528.93 34.64,-801.79 89,-860.5 91.2,-862.88 93.65,-864.97 96.28,-866.8"/>
<polygon fill="#63b8ff" stroke="#63b8ff" points="94.81,-869.99 105.24,-871.85 98.25,-863.89 94.81,-869.99"/>
</a>
</g>
</g>
<!-- Node8 -->
<g id="Node000008" class="node">
<title>Node8</title>
<g id="a_Node000008"><a xlink:href="ppp__callbacks_8cpp.html#a4b6afed78d56e5e568d23c8946500020" target="_top" xlink:title="Deweight measurement and its relatives.">
<path fill="#fff0f0" stroke="red" d="M221.17,-851C221.17,-851 111.83,-851 111.83,-851 108.67,-851 105.5,-847.83 105.5,-844.67 105.5,-844.67 105.5,-838.33 105.5,-838.33 105.5,-835.17 108.67,-832 111.83,-832 111.83,-832 221.17,-832 221.17,-832 224.33,-832 227.5,-835.17 227.5,-838.33 227.5,-838.33 227.5,-844.67 227.5,-844.67 227.5,-847.83 224.33,-851 221.17,-851"/>
<text text-anchor="middle" x="166.5" y="-839" font-family="Helvetica,sans-Serif" font-size="10.00">deweightStationMeas</text>
</a>
</g>
</g>
<!-- Node1&#45;&gt;Node8 -->
<g id="edge3_Node000001_Node000008" class="edge">
<title>Node1&#45;&gt;Node8</title>
<g id="a_edge3_Node000001_Node000008"><a xlink:title=" ">
<path fill="none" stroke="#63b8ff" d="M27.76,-474.22C29.37,-526.18 39.51,-770.87 89,-823.5 91.22,-825.86 93.68,-827.94 96.33,-829.76"/>
<polygon fill="#63b8ff" stroke="#63b8ff" points="94.88,-832.96 105.32,-834.78 98.29,-826.85 94.88,-832.96"/>
</a>
</g>
</g>
<!-- Node14 -->
<g id="Node000014" class="node">
<title>Node14</title>
<g id="a_Node000014"><a xlink:href="algebra_8cpp.html#a4a6a1ebf759ddc5d9d6d1de14269c5af" target="_top" xlink:title=" ">
<path fill="#fff0f0" stroke="red" d="M222.67,-814C222.67,-814 110.33,-814 110.33,-814 107.17,-814 104,-810.83 104,-807.67 104,-807.67 104,-801.33 104,-801.33 104,-798.17 107.17,-795 110.33,-795 110.33,-795 222.67,-795 222.67,-795 225.83,-795 229,-798.17 229,-801.33 229,-801.33 229,-807.67 229,-807.67 229,-810.83 225.83,-814 222.67,-814"/>
<text text-anchor="middle" x="166.5" y="-802" font-family="Helvetica,sans-Serif" font-size="10.00">initialStateFromConfig</text>
</a>
</g>
</g>
<!-- Node1&#45;&gt;Node14 -->
<g id="edge4_Node000001_Node000014" class="edge">
<title>Node1&#45;&gt;Node14</title>
<g id="a_edge4_Node000001_Node000014"><a xlink:title=" ">
<path fill="none" stroke="#63b8ff" d="M28.13,-474.16C31.08,-522.3 45.19,-731.79 89,-777.5 95.94,-784.74 105.2,-789.31 114.88,-792.35"/>
<polygon fill="#63b8ff" stroke="#63b8ff" points="114.06,-795.75 124.62,-794.93 115.85,-788.99 114.06,-795.75"/>
</a>
</g>
</g>
<!-- Node1&#45;&gt;Node14 -->
<g id="edge5_Node000001_Node000014" class="edge">
<title>Node1&#45;&gt;Node14</title>
<g id="a_edge5_Node000001_Node000014"><a xlink:title=" ">
<path fill="none" stroke="#63b8ff" d="M27.84,-474.14C30.04,-524.05 43.51,-748.04 89,-795.5 90.86,-797.44 92.88,-799.19 95.04,-800.76"/>
<polygon fill="#63b8ff" stroke="#63b8ff" points="93.52,-803.92 103.92,-805.96 97.06,-797.88 93.52,-803.92"/>
</a>
</g>
</g>
<!-- Node15 -->
<g id="Node000015" class="node">
<title>Node15</title>
<g id="a_Node000015"><a xlink:href="erp_8cpp.html#afe3874cc58d609f4ccc2b03a5ef632b8" target="_top" xlink:title="Get earth rotation parameter values.">
<path fill="#fff0f0" stroke="red" d="M184.17,-777C184.17,-777 148.83,-777 148.83,-777 145.67,-777 142.5,-773.83 142.5,-770.67 142.5,-770.67 142.5,-764.33 142.5,-764.33 142.5,-761.17 145.67,-758 148.83,-758 148.83,-758 184.17,-758 184.17,-758 187.33,-758 190.5,-761.17 190.5,-764.33 190.5,-764.33 190.5,-770.67 190.5,-770.67 190.5,-773.83 187.33,-777 184.17,-777"/>
<text text-anchor="middle" x="166.5" y="-765" font-family="Helvetica,sans-Serif" font-size="10.00">getErp</text>
</a>
</g>
</g>
<!-- Node1&#45;&gt;Node15 -->
<g id="edge6_Node000001_Node000015" class="edge">
<title>Node1&#45;&gt;Node15</title>
<g id="a_edge6_Node000001_Node000015"><a xlink:title=" ">
<path fill="none" stroke="#63b8ff" d="M28.23,-474.24C31.83,-519.5 49.11,-708.86 89,-749.5 100.18,-760.89 117.12,-765.63 132.22,-767.42"/>
<polygon fill="#63b8ff" stroke="#63b8ff" points="132.04,-770.91 142.29,-768.23 132.6,-763.94 132.04,-770.91"/>
</a>
</g>
</g>
<!-- Node16 -->
<g id="Node000016" class="node">
<title>Node16</title>
<g id="a_Node000016"><a xlink:href="structACSConfig.html#acbb130e061ba4b7bf620e4fb68e1b794" target="_top" xlink:title="Set receiver options for a specific receiver using a hierarchy of sources.">
<path fill="#fff0f0" stroke="red" d="M402.67,-739C402.67,-739 286.33,-739 286.33,-739 283.17,-739 280,-735.83 280,-732.67 280,-732.67 280,-726.33 280,-726.33 280,-723.17 283.17,-720 286.33,-720 286.33,-720 402.67,-720 402.67,-720 405.83,-720 409,-723.17 409,-726.33 409,-726.33 409,-732.67 409,-732.67 409,-735.83 405.83,-739 402.67,-739"/>
<text text-anchor="middle" x="344.5" y="-727" font-family="Helvetica,sans-Serif" font-size="10.00">ACSConfig::getRecOpts</text>
</a>
</g>
</g>
<!-- Node1&#45;&gt;Node16 -->
<g id="edge11_Node000001_Node000016" class="edge">
<title>Node1&#45;&gt;Node16</title>
<g id="a_edge11_Node000001_Node000016"><a xlink:title=" ">
<path fill="none" stroke="#63b8ff" d="M27.16,-474.13C26.55,-507.3 29.26,-617.78 89,-673.5 96.2,-680.21 211.27,-703.69 284.19,-718.03"/>
<polygon fill="#63b8ff" stroke="#63b8ff" points="283.69,-721.5 294.18,-719.99 285.04,-714.63 283.69,-721.5"/>
</a>
</g>
</g>
<!-- Node34 -->
<g id="Node000034" class="node">
<title>Node34</title>
<g id="a_Node000034"><a xlink:href="structGTime.html#aaa8a379d11cd6c040a6bbe680c0e913e" target="_top" xlink:title="Uninitialised time for comparisons.">
<path fill="#fff0f0" stroke="red" d="M384.17,-474C384.17,-474 304.83,-474 304.83,-474 301.67,-474 298.5,-470.83 298.5,-467.67 298.5,-467.67 298.5,-461.33 298.5,-461.33 298.5,-458.17 301.67,-455 304.83,-455 304.83,-455 384.17,-455 384.17,-455 387.33,-455 390.5,-458.17 390.5,-461.33 390.5,-461.33 390.5,-467.67 390.5,-467.67 390.5,-470.83 387.33,-474 384.17,-474"/>
<text text-anchor="middle" x="344.5" y="-462" font-family="Helvetica,sans-Serif" font-size="10.00">GTime::noTime</text>
</a>
</g>
</g>
<!-- Node1&#45;&gt;Node34 -->
<g id="edge23_Node000001_Node000034" class="edge">
<title>Node1&#45;&gt;Node34</title>
<g id="a_edge23_Node000001_Node000034"><a xlink:title=" ">
<path fill="none" stroke="#63b8ff" d="M53.09,-460.61C104.03,-457.33 219.15,-456.87 288.17,-459.22"/>
<polygon fill="#63b8ff" stroke="#63b8ff" points="288.29,-462.73 298.42,-459.61 288.55,-455.74 288.29,-462.73"/>
</a>
</g>
</g>
<!-- Node1&#45;&gt;Node34 -->
<g id="edge24_Node000001_Node000034" class="edge">
<title>Node1&#45;&gt;Node34</title>
<g id="a_edge24_Node000001_Node000034"><a xlink:title=" ">
<path fill="none" stroke="#63b8ff" d="M53.09,-468.39C104.03,-471.67 219.15,-472.13 288.17,-469.78"/>
<polygon fill="#63b8ff" stroke="#63b8ff" points="288.55,-473.26 298.42,-469.39 288.29,-466.27 288.55,-473.26"/>
</a>
</g>
</g>
<!-- Node35 -->
<g id="Node000035" class="node">
<title>Node35</title>
<g id="a_Node000035"><a xlink:href="minimumConstraints_8cpp.html#a4ec6cbd0d284cb3cf36d205a3498138e" target="_top" xlink:title=" ">
<path fill="#fff0f0" stroke="red" d="M200.17,-740C200.17,-740 132.83,-740 132.83,-740 129.67,-740 126.5,-736.83 126.5,-733.67 126.5,-733.67 126.5,-727.33 126.5,-727.33 126.5,-724.17 129.67,-721 132.83,-721 132.83,-721 200.17,-721 200.17,-721 203.33,-721 206.5,-724.17 206.5,-727.33 206.5,-727.33 206.5,-733.67 206.5,-733.67 206.5,-736.83 203.33,-740 200.17,-740"/>
<text text-anchor="middle" x="166.5" y="-728" font-family="Helvetica,sans-Serif" font-size="10.00">zeroAndPush</text>
</a>
</g>
</g>
<!-- Node1&#45;&gt;Node35 -->
<g id="edge9_Node000001_Node000035" class="edge">
<title>Node1&#45;&gt;Node35</title>
<g id="a_edge9_Node000001_Node000035"><a xlink:title=" ">
<path fill="none" stroke="#63b8ff" d="M29.14,-474.02C35.06,-513.9 56.75,-663.42 89,-697.5 99.39,-708.48 114.74,-714.47 128.97,-718.4"/>
<polygon fill="#63b8ff" stroke="#63b8ff" points="128.49,-721.89 139.04,-720.95 130.2,-715.11 128.49,-721.89"/>
</a>
</g>
</g>
<!-- Node1&#45;&gt;Node35 -->
<g id="edge10_Node000001_Node000035" class="edge">
<title>Node1&#45;&gt;Node35</title>
<g id="a_edge10_Node000001_Node000035"><a xlink:title=" ">
<path fill="none" stroke="#63b8ff" d="M28.36,-474.18C32.88,-516.41 55.11,-679.68 89,-715.5 96.4,-723.31 106.3,-728.6 116.52,-731.92"/>
<polygon fill="#63b8ff" stroke="#63b8ff" points="115.79,-735.35 126.35,-734.52 117.58,-728.58 115.79,-735.35"/>
</a>
</g>
</g>
<!-- Node36 -->
<g id="Node000036" class="node">
<title>Node36</title>
<g id="a_Node000036"><a xlink:href="structACSConfig.html#a20ca3689eafecfa2b7e656c28e340256" target="_top" xlink:title="Set satellite options for a specific satellite using a hierarchy of sources.">
<path fill="#fff0f0" stroke="red" d="M223.67,-664C223.67,-664 109.33,-664 109.33,-664 106.17,-664 103,-660.83 103,-657.67 103,-657.67 103,-651.33 103,-651.33 103,-648.17 106.17,-645 109.33,-645 109.33,-645 223.67,-645 223.67,-645 226.83,-645 230,-648.17 230,-651.33 230,-651.33 230,-657.67 230,-657.67 230,-660.83 226.83,-664 223.67,-664"/>
<text text-anchor="middle" x="166.5" y="-652" font-family="Helvetica,sans-Serif" font-size="10.00">ACSConfig::getSatOpts</text>
</a>
</g>
</g>
<!-- Node1&#45;&gt;Node36 -->
<g id="edge12_Node000001_Node000036" class="edge">
<title>Node1&#45;&gt;Node36</title>
<g id="a_edge12_Node000001_Node000036"><a xlink:title=" ">
<path fill="none" stroke="#63b8ff" d="M27.88,-474.03C29.59,-503.15 38.87,-591.7 89,-636.5 90.53,-637.86 92.14,-639.13 93.81,-640.3"/>
<polygon fill="#63b8ff" stroke="#63b8ff" points="92.3,-643.47 102.71,-645.45 95.81,-637.41 92.3,-643.47"/>
</a>
</g>
</g>
<!-- Node40 -->
<g id="Node000040" class="node">
<title>Node40</title>
<g id="a_Node000040"><a xlink:href="structKFState.html#aeca6e3874ad0c94607152d244016582f" target="_top" xlink:title="Returns the value and variance of a state within the kalman filter object.">
<path fill="#fff0f0" stroke="red" d="M218.17,-609C218.17,-609 114.83,-609 114.83,-609 111.67,-609 108.5,-605.83 108.5,-602.67 108.5,-602.67 108.5,-596.33 108.5,-596.33 108.5,-593.17 111.67,-590 114.83,-590 114.83,-590 218.17,-590 218.17,-590 221.33,-590 224.5,-593.17 224.5,-596.33 224.5,-596.33 224.5,-602.67 224.5,-602.67 224.5,-605.83 221.33,-609 218.17,-609"/>
<text text-anchor="middle" x="166.5" y="-597" font-family="Helvetica,sans-Serif" font-size="10.00">KFState::getKFValue</text>
</a>
</g>
</g>
<!-- Node1&#45;&gt;Node40 -->
<g id="edge13_Node000001_Node000040" class="edge">
<title>Node1&#45;&gt;Node40</title>
<g id="a_edge13_Node000001_Node000040"><a xlink:title=" ">
<path fill="none" stroke="#63b8ff" d="M31.1,-474.2C37.9,-495.91 55.07,-546.22 89,-572.5 99.03,-580.27 111.86,-584.77 124.14,-587.78"/>
<polygon fill="#63b8ff" stroke="#63b8ff" points="123.73,-591.27 134.25,-590 125.23,-584.43 123.73,-591.27"/>
</a>
</g>
</g>
<!-- Node1&#45;&gt;Node40 -->
<g id="edge15_Node000001_Node000040" class="edge">
<title>Node1&#45;&gt;Node40</title>
<g id="a_edge15_Node000001_Node000040"><a xlink:title=" ">
<path fill="none" stroke="#63b8ff" d="M28.79,-474.23C33.28,-498.88 50.17,-560.43 89,-590.5 92.04,-592.85 95.33,-594.9 98.79,-596.68"/>
<polygon fill="#63b8ff" stroke="#63b8ff" points="97.7,-600.02 108.26,-600.77 100.47,-593.59 97.7,-600.02"/>
</a>
</g>
</g>
<!-- Node42 -->
<g id="Node000042" class="node">
<title>Node42</title>
<g id="a_Node000042"><a xlink:href="structKFMeasEntry.html#a358f854f4544c59fd129e46a1baf0e34" target="_top" xlink:title="Adds a design matrix entry for this measurement.">
<path fill="#fff0f0" stroke="red" d="M237.67,-572C237.67,-572 95.33,-572 95.33,-572 92.17,-572 89,-568.83 89,-565.67 89,-565.67 89,-559.33 89,-559.33 89,-556.17 92.17,-553 95.33,-553 95.33,-553 237.67,-553 237.67,-553 240.83,-553 244,-556.17 244,-559.33 244,-559.33 244,-565.67 244,-565.67 244,-568.83 240.83,-572 237.67,-572"/>
<text text-anchor="middle" x="166.5" y="-560" font-family="Helvetica,sans-Serif" font-size="10.00">KFMeasEntry::addDsgnEntry</text>
</a>
</g>
</g>
<!-- Node1&#45;&gt;Node42 -->
<g id="edge16_Node000001_Node000042" class="edge">
<title>Node1&#45;&gt;Node42</title>
<g id="a_edge16_Node000001_Node000042"><a xlink:title=" ">
<path fill="none" stroke="#63b8ff" d="M35.54,-474.25C45.51,-490.07 64.27,-519.54 89,-535.5 100.97,-543.22 115.89,-547.64 129.38,-550.78"/>
<polygon fill="#63b8ff" stroke="#63b8ff" points="128.82,-554.24 139.34,-552.96 130.31,-547.4 128.82,-554.24"/>
</a>
</g>
</g>
<!-- Node1&#45;&gt;Node42 -->
<g id="edge17_Node000001_Node000042" class="edge">
<title>Node1&#45;&gt;Node42</title>
<g id="a_edge17_Node000001_Node000042"><a xlink:title=" ">
<path fill="none" stroke="#63b8ff" d="M30.05,-474.25C36.44,-491.78 54.5,-526.21 80.37,-547.22"/>
<polygon fill="#63b8ff" stroke="#63b8ff" points="78.51,-550.19 88.64,-553.27 82.64,-544.54 78.51,-550.19"/>
</a>
</g>
</g>
<!-- Node43 -->
<g id="Node000043" class="node">
<title>Node43</title>
<g id="a_Node000043"><a xlink:href="structKFMeasEntry.html#a7d612c21a6d8f4367e273baf672e6cbd" target="_top" xlink:title="Adds the actual measurement value for this measurement.">
<path fill="#fff0f0" stroke="red" d="M224.17,-535C224.17,-535 108.83,-535 108.83,-535 105.67,-535 102.5,-531.83 102.5,-528.67 102.5,-528.67 102.5,-522.33 102.5,-522.33 102.5,-519.17 105.67,-516 108.83,-516 108.83,-516 224.17,-516 224.17,-516 227.33,-516 230.5,-519.17 230.5,-522.33 230.5,-522.33 230.5,-528.67 230.5,-528.67 230.5,-531.83 227.33,-535 224.17,-535"/>
<text text-anchor="middle" x="166.5" y="-523" font-family="Helvetica,sans-Serif" font-size="10.00">KFMeasEntry::setValue</text>
</a>
</g>
</g>
<!-- Node1&#45;&gt;Node43 -->
<g id="edge18_Node000001_Node000043" class="edge">
<title>Node1&#45;&gt;Node43</title>
<g id="a_edge18_Node000001_Node000043"><a xlink:title=" ">
<path fill="none" stroke="#63b8ff" d="M38.49,-474.15C50.22,-483.95 69.73,-498.88 89,-507.5 93.63,-509.57 98.53,-511.42 103.52,-513.07"/>
<polygon fill="#63b8ff" stroke="#63b8ff" points="102.6,-516.45 113.18,-515.99 104.63,-509.75 102.6,-516.45"/>
</a>
</g>
</g>
<!-- Node44 -->
<g id="Node000044" class="node">
<title>Node44</title>
<g id="a_Node000044"><a xlink:href="structKFState.html#a7f8e4b9291361c063cef8d9178f07707" target="_top" xlink:title="Add process noise and dynamics to filter object according to time gap.">
<path fill="#fff0f0" stroke="red" d="M226.17,-498C226.17,-498 106.83,-498 106.83,-498 103.67,-498 100.5,-494.83 100.5,-491.67 100.5,-491.67 100.5,-485.33 100.5,-485.33 100.5,-482.17 103.67,-479 106.83,-479 106.83,-479 226.17,-479 226.17,-479 229.33,-479 232.5,-482.17 232.5,-485.33 232.5,-485.33 232.5,-491.67 232.5,-491.67 232.5,-494.83 229.33,-498 226.17,-498"/>
<text text-anchor="middle" x="166.5" y="-486" font-family="Helvetica,sans-Serif" font-size="10.00">KFState::stateTransition</text>
</a>
</g>
</g>
<!-- Node1&#45;&gt;Node44 -->
<g id="edge19_Node000001_Node000044" class="edge">
<title>Node1&#45;&gt;Node44</title>
<g id="a_edge19_Node000001_Node000044"><a xlink:title=" ">
<path fill="none" stroke="#63b8ff" d="M53.13,-468.96C66.69,-471.32 83.99,-474.32 100.94,-477.27"/>
<polygon fill="#63b8ff" stroke="#63b8ff" points="100.4,-480.73 110.85,-479 101.59,-473.83 100.4,-480.73"/>
</a>
</g>
</g>
<!-- Node49 -->
<g id="Node000049" class="node">
<title>Node49</title>
<g id="a_Node000049"><a xlink:href="structKFState.html#ae1fc274c403b77dc814ed90763b4dea1" target="_top" xlink:title="Least squares estimator for new kalman filter states.">
<path fill="#fff0f0" stroke="red" d="M223.5,-404.5C223.5,-404.5 109.5,-404.5 109.5,-404.5 104.5,-404.5 99.5,-399.5 99.5,-394.5 99.5,-394.5 99.5,-384.5 99.5,-384.5 99.5,-379.5 104.5,-374.5 109.5,-374.5 109.5,-374.5 223.5,-374.5 223.5,-374.5 228.5,-374.5 233.5,-379.5 233.5,-384.5 233.5,-384.5 233.5,-394.5 233.5,-394.5 233.5,-399.5 228.5,-404.5 223.5,-404.5"/>
<text text-anchor="start" x="107.5" y="-392.5" font-family="Helvetica,sans-Serif" font-size="10.00">KFState::leastSquareInit</text>
<text text-anchor="middle" x="166.5" y="-381.5" font-family="Helvetica,sans-Serif" font-size="10.00">States</text>
</a>
</g>
</g>
<!-- Node1&#45;&gt;Node49 -->
<g id="edge25_Node000001_Node000049" class="edge">
<title>Node1&#45;&gt;Node49</title>
<g id="a_edge25_Node000001_Node000049"><a xlink:title=" ">
<path fill="none" stroke="#63b8ff" d="M38.63,-454.65C50.47,-444.56 70.07,-428.9 89,-418.5 95.5,-414.93 102.54,-411.6 109.62,-408.58"/>
<polygon fill="#63b8ff" stroke="#63b8ff" points="111.32,-411.66 119.26,-404.64 108.68,-405.18 111.32,-411.66"/>
</a>
</g>
</g>
<!-- Node51 -->
<g id="Node000051" class="node">
<title>Node51</title>
<g id="a_Node000051"><a xlink:href="structKFState.html#a0c84e911a5ea760fe728baec661e33f0" target="_top" xlink:title="Output keys and states in human readable format.">
<path fill="#fff0f0" stroke="red" d="M221.17,-356C221.17,-356 111.83,-356 111.83,-356 108.67,-356 105.5,-352.83 105.5,-349.67 105.5,-349.67 105.5,-343.33 105.5,-343.33 105.5,-340.17 108.67,-337 111.83,-337 111.83,-337 221.17,-337 221.17,-337 224.33,-337 227.5,-340.17 227.5,-343.33 227.5,-343.33 227.5,-349.67 227.5,-349.67 227.5,-352.83 224.33,-356 221.17,-356"/>
<text text-anchor="middle" x="166.5" y="-344" font-family="Helvetica,sans-Serif" font-size="10.00">KFState::outputStates</text>
</a>
</g>
</g>
<!-- Node1&#45;&gt;Node51 -->
<g id="edge26_Node000001_Node000051" class="edge">
<title>Node1&#45;&gt;Node51</title>
<g id="a_edge26_Node000001_Node000051"><a xlink:title=" ">
<path fill="none" stroke="#63b8ff" d="M29.33,-454.77C35.09,-432.59 54.48,-381.62 89,-356.5 91.26,-354.86 93.64,-353.36 96.11,-351.99"/>
<polygon fill="#63b8ff" stroke="#63b8ff" points="97.85,-355.04 105.41,-347.61 94.87,-348.71 97.85,-355.04"/>
</a>
</g>
</g>
<!-- Node1&#45;&gt;Node51 -->
<g id="edge31_Node000001_Node000051" class="edge">
<title>Node1&#45;&gt;Node51</title>
<g id="a_edge31_Node000001_Node000051"><a xlink:title=" ">
<path fill="none" stroke="#63b8ff" d="M32.9,-454.73C41.32,-435.72 59.72,-395.81 89,-374.5 100.37,-366.22 114.95,-361.53 128.32,-358.29"/>
<polygon fill="#63b8ff" stroke="#63b8ff" points="129.25,-361.67 138.24,-356.07 127.71,-354.84 129.25,-361.67"/>
</a>
</g>
</g>
<!-- Node52 -->
<g id="Node000052" class="node">
<title>Node52</title>
<g id="a_Node000052"><a xlink:href="structKFState.html#a0d12c57e70876543084c182a660bbbd3" target="_top" xlink:title="Kalman filter operation.">
<path fill="#fff0f0" stroke="red" d="M220.17,-319C220.17,-319 112.83,-319 112.83,-319 109.67,-319 106.5,-315.83 106.5,-312.67 106.5,-312.67 106.5,-306.33 106.5,-306.33 106.5,-303.17 109.67,-300 112.83,-300 112.83,-300 220.17,-300 220.17,-300 223.33,-300 226.5,-303.17 226.5,-306.33 226.5,-306.33 226.5,-312.67 226.5,-312.67 226.5,-315.83 223.33,-319 220.17,-319"/>
<text text-anchor="middle" x="166.5" y="-307" font-family="Helvetica,sans-Serif" font-size="10.00">KFState::filterKalman</text>
</a>
</g>
</g>
<!-- Node1&#45;&gt;Node52 -->
<g id="edge27_Node000001_Node000052" class="edge">
<title>Node1&#45;&gt;Node52</title>
<g id="a_edge27_Node000001_Node000052"><a xlink:title=" ">
<path fill="none" stroke="#63b8ff" d="M28.93,-454.87C33.16,-429.91 47.99,-362.68 89,-328.5 91.58,-326.35 94.36,-324.44 97.29,-322.75"/>
<polygon fill="#63b8ff" stroke="#63b8ff" points="99,-325.8 106.44,-318.26 95.92,-319.52 99,-325.8"/>
</a>
</g>
</g>
<!-- Node66 -->
<g id="Node000066" class="node">
<title>Node66</title>
<g id="a_Node000066"><a xlink:href="mongoWrite_8cpp.html#a7b0669675f4db278af7db5cb0b0dee6a" target="_top" xlink:title=" ">
<path fill="#fff0f0" stroke="red" d="M200.67,-282C200.67,-282 132.33,-282 132.33,-282 129.17,-282 126,-278.83 126,-275.67 126,-275.67 126,-269.33 126,-269.33 126,-266.17 129.17,-263 132.33,-263 132.33,-263 200.67,-263 200.67,-263 203.83,-263 207,-266.17 207,-269.33 207,-269.33 207,-275.67 207,-275.67 207,-278.83 203.83,-282 200.67,-282"/>
<text text-anchor="middle" x="166.5" y="-270" font-family="Helvetica,sans-Serif" font-size="10.00">mongoStates</text>
</a>
</g>
</g>
<!-- Node1&#45;&gt;Node66 -->
<g id="edge32_Node000001_Node000066" class="edge">
<title>Node1&#45;&gt;Node66</title>
<g id="a_edge32_Node000001_Node000066"><a xlink:title=" ">
<path fill="none" stroke="#63b8ff" d="M27.89,-454.95C29.61,-425.74 38.93,-336.88 89,-291.5 96.53,-284.68 106.13,-280.21 115.96,-277.31"/>
<polygon fill="#63b8ff" stroke="#63b8ff" points="116.92,-280.68 125.8,-274.91 115.25,-273.88 116.92,-280.68"/>
</a>
</g>
</g>
<!-- Node75 -->
<g id="Node000075" class="node">
<title>Node75</title>
<g id="a_Node000075"><a xlink:href="algebra_8cpp.html#a409341f11cb16e20ae10acf6c0e03fcc" target="_top" xlink:title=" ">
<path fill="#fff0f0" stroke="red" d="M223.67,-245C223.67,-245 109.33,-245 109.33,-245 106.17,-245 103,-241.83 103,-238.67 103,-238.67 103,-232.33 103,-232.33 103,-229.17 106.17,-226 109.33,-226 109.33,-226 223.67,-226 223.67,-226 226.83,-226 230,-229.17 230,-232.33 230,-232.33 230,-238.67 230,-238.67 230,-241.83 226.83,-245 223.67,-245"/>
<text text-anchor="middle" x="166.5" y="-233" font-family="Helvetica,sans-Serif" font-size="10.00">isPositiveSemiDefinite</text>
</a>
</g>
</g>
<!-- Node1&#45;&gt;Node75 -->
<g id="edge35_Node000001_Node000075" class="edge">
<title>Node1&#45;&gt;Node75</title>
<g id="a_edge35_Node000001_Node000075"><a xlink:title=" ">
<path fill="none" stroke="#63b8ff" d="M27.2,-454.88C26.71,-421.75 29.79,-311.31 89,-254.5 90.64,-252.92 92.4,-251.47 94.24,-250.13"/>
<polygon fill="#63b8ff" stroke="#63b8ff" points="96.06,-253.12 102.83,-244.97 92.45,-247.12 96.06,-253.12"/>
</a>
</g>
</g>
<!-- Node77 -->
<g id="Node000077" class="node">
<title>Node77</title>
<g id="a_Node000077"><a xlink:href="minimumConstraints_8cpp.html#abb849f43f8ddc113a68e426f98df6b22" target="_top" xlink:title=" ">
<path fill="#fff0f0" stroke="red" d="M198.67,-208C198.67,-208 134.33,-208 134.33,-208 131.17,-208 128,-204.83 128,-201.67 128,-201.67 128,-195.33 128,-195.33 128,-192.17 131.17,-189 134.33,-189 134.33,-189 198.67,-189 198.67,-189 201.83,-189 205,-192.17 205,-195.33 205,-195.33 205,-201.67 205,-201.67 205,-204.83 201.83,-208 198.67,-208"/>
<text text-anchor="middle" x="166.5" y="-196" font-family="Helvetica,sans-Serif" font-size="10.00">minSiteData</text>
</a>
</g>
</g>
<!-- Node1&#45;&gt;Node77 -->
<g id="edge36_Node000001_Node000077" class="edge">
<title>Node1&#45;&gt;Node77</title>
<g id="a_edge36_Node000001_Node000077"><a xlink:title=" ">
<path fill="none" stroke="#63b8ff" d="M28.27,-454.92C32.42,-412.21 53.37,-244.11 89,-208.5 96.7,-200.8 107.01,-196.05 117.55,-193.44"/>
<polygon fill="#63b8ff" stroke="#63b8ff" points="118.47,-196.83 127.66,-191.55 117.19,-189.94 118.47,-196.83"/>
</a>
</g>
</g>
<!-- Node1&#45;&gt;Node77 -->
<g id="edge39_Node000001_Node000077" class="edge">
<title>Node1&#45;&gt;Node77</title>
<g id="a_edge39_Node000001_Node000077"><a xlink:title=" ">
<path fill="none" stroke="#63b8ff" d="M28.99,-454.93C34.48,-414.3 55.09,-260.39 89,-226.5 97,-218.5 107.82,-213.69 118.79,-210.53"/>
<polygon fill="#63b8ff" stroke="#63b8ff" points="119.97,-213.85 128.84,-208.06 118.29,-207.05 119.97,-213.85"/>
</a>
</g>
</g>
<!-- Node79 -->
<g id="Node000079" class="node">
<title>Node79</title>
<g id="a_Node000079"><a xlink:href="utils_8cpp.html#ae91d83cf693cdc7e1efacbe4d8d9656e" target="_top" xlink:title=" ">
<path fill="#fff0f0" stroke="red" d="M368.67,-171C368.67,-171 320.33,-171 320.33,-171 317.17,-171 314,-167.83 314,-164.67 314,-164.67 314,-158.33 314,-158.33 314,-155.17 317.17,-152 320.33,-152 320.33,-152 368.67,-152 368.67,-152 371.83,-152 375,-155.17 375,-158.33 375,-158.33 375,-164.67 375,-164.67 375,-167.83 371.83,-171 368.67,-171"/>
<text text-anchor="middle" x="344.5" y="-159" font-family="Helvetica,sans-Serif" font-size="10.00">ecef2pos</text>
</a>
</g>
</g>
<!-- Node1&#45;&gt;Node79 -->
<g id="edge44_Node000001_Node000079" class="edge">
<title>Node1&#45;&gt;Node79</title>
<g id="a_edge44_Node000001_Node000079"><a xlink:title=" ">
<path fill="none" stroke="#63b8ff" d="M27.77,-454.98C29.35,-406.16 39.25,-184.62 89,-143.5 153.95,-89.81 262.91,-125.86 314.6,-147.92"/>
<polygon fill="#63b8ff" stroke="#63b8ff" points="313.3,-151.17 323.86,-151.98 316.11,-144.76 313.3,-151.17"/>
</a>
</g>
</g>
<!-- Node80 -->
<g id="Node000080" class="node">
<title>Node80</title>
<g id="a_Node000080"><a xlink:href="coordinates_8cpp.html#a8473fa1efe21e24084f708ed9e9df38e" target="_top" xlink:title=" ">
<path fill="#fff0f0" stroke="red" d="M367.17,-114C367.17,-114 321.83,-114 321.83,-114 318.67,-114 315.5,-110.83 315.5,-107.67 315.5,-107.67 315.5,-101.33 315.5,-101.33 315.5,-98.17 318.67,-95 321.83,-95 321.83,-95 367.17,-95 367.17,-95 370.33,-95 373.5,-98.17 373.5,-101.33 373.5,-101.33 373.5,-107.67 373.5,-107.67 373.5,-110.83 370.33,-114 367.17,-114"/>
<text text-anchor="middle" x="344.5" y="-102" font-family="Helvetica,sans-Serif" font-size="10.00">pos2enu</text>
</a>
</g>
</g>
<!-- Node1&#45;&gt;Node80 -->
<g id="edge45_Node000001_Node000080" class="edge">
<title>Node1&#45;&gt;Node80</title>
<g id="a_edge45_Node000001_Node000080"><a xlink:title=" ">
<path fill="none" stroke="#63b8ff" d="M27.61,-454.73C28.4,-402.52 35.01,-157.02 89,-110.5 120.4,-83.45 242.4,-92.81 305.39,-99.76"/>
<polygon fill="#63b8ff" stroke="#63b8ff" points="305,-103.23 315.33,-100.89 305.79,-96.28 305,-103.23"/>
</a>
</g>
</g>
<!-- Node86 -->
<g id="Node000086" class="node">
<title>Node86</title>
<g id="a_Node000086"><a xlink:href="minimumConstraints_8cpp.html#ad6ae3cccdb74463ea328f08da634a458" target="_top" xlink:title=" ">
<path fill="#fff0f0" stroke="red" d="M201.67,-171C201.67,-171 131.33,-171 131.33,-171 128.17,-171 125,-167.83 125,-164.67 125,-164.67 125,-158.33 125,-158.33 125,-155.17 128.17,-152 131.33,-152 131.33,-152 201.67,-152 201.67,-152 204.83,-152 208,-155.17 208,-158.33 208,-158.33 208,-164.67 208,-164.67 208,-167.83 204.83,-171 201.67,-171"/>
<text text-anchor="middle" x="166.5" y="-159" font-family="Helvetica,sans-Serif" font-size="10.00">minOrbitData</text>
</a>
</g>
</g>
<!-- Node1&#45;&gt;Node86 -->
<g id="edge40_Node000001_Node000086" class="edge">
<title>Node1&#45;&gt;Node86</title>
<g id="a_edge40_Node000001_Node000086"><a xlink:title=" ">
<path fill="none" stroke="#63b8ff" d="M28.04,-454.82C31.23,-408.35 48.69,-213.05 89,-171.5 95.93,-164.36 105.1,-159.74 114.67,-156.99"/>
<polygon fill="#63b8ff" stroke="#63b8ff" points="115.71,-160.35 124.72,-154.78 114.2,-153.51 115.71,-160.35"/>
</a>
</g>
</g>
<!-- Node1&#45;&gt;Node86 -->
<g id="edge43_Node000001_Node000086" class="edge">
<title>Node1&#45;&gt;Node86</title>
<g id="a_edge43_Node000001_Node000086"><a xlink:title=" ">
<path fill="none" stroke="#63b8ff" d="M28.51,-454.88C32.71,-410.44 50.36,-229.33 89,-189.5 96.73,-181.53 107.25,-176.7 118.01,-173.54"/>
<polygon fill="#63b8ff" stroke="#63b8ff" points="119.04,-176.89 127.89,-171.06 117.34,-170.1 119.04,-176.89"/>
</a>
</g>
</g>
<!-- Node87 -->
<g id="Node000087" class="node">
<title>Node87</title>
<g id="a_Node000087"><a xlink:href="coordinates_8cpp.html#a6d65fc686fade9db8e953ae1ef13d929" target="_top" xlink:title=" ">
<path fill="#fff0f0" stroke="red" d="M367.67,-77C367.67,-77 321.33,-77 321.33,-77 318.17,-77 315,-73.83 315,-70.67 315,-70.67 315,-64.33 315,-64.33 315,-61.17 318.17,-58 321.33,-58 321.33,-58 367.67,-58 367.67,-58 370.83,-58 374,-61.17 374,-64.33 374,-64.33 374,-70.67 374,-70.67 374,-73.83 370.83,-77 367.67,-77"/>
<text text-anchor="middle" x="344.5" y="-65" font-family="Helvetica,sans-Serif" font-size="10.00">ecef2rac</text>
</a>
</g>
</g>
<!-- Node1&#45;&gt;Node87 -->
<g id="edge46_Node000001_Node000087" class="edge">
<title>Node1&#45;&gt;Node87</title>
<g id="a_edge46_Node000001_Node000087"><a xlink:title=" ">
<path fill="none" stroke="#63b8ff" d="M27.54,-454.87C27.98,-401.16 33,-139.02 89,-87.5 147.65,-33.54 249.46,-45.52 304.87,-57.42"/>
<polygon fill="#63b8ff" stroke="#63b8ff" points="304.13,-60.84 314.66,-59.63 305.67,-54.01 304.13,-60.84"/>
</a>
</g>
</g>
<!-- Node88 -->
<g id="Node000088" class="node">
<title>Node88</title>
<g id="a_Node000088"><a xlink:href="sinex_8cpp.html#ad4f9f325f4117afe9ec83d47e7c16cf1" target="_top" xlink:title=" ">
<path fill="#fff0f0" stroke="red" d="M215.17,-19C215.17,-19 117.83,-19 117.83,-19 114.67,-19 111.5,-15.83 111.5,-12.67 111.5,-12.67 111.5,-6.33 111.5,-6.33 111.5,-3.17 114.67,0 117.83,0 117.83,0 215.17,0 215.17,0 218.33,0 221.5,-3.17 221.5,-6.33 221.5,-6.33 221.5,-12.67 221.5,-12.67 221.5,-15.83 218.33,-19 215.17,-19"/>
<text text-anchor="middle" x="166.5" y="-7" font-family="Helvetica,sans-Serif" font-size="10.00">sinexAddComment</text>
</a>
</g>
</g>
<!-- Node1&#45;&gt;Node88 -->
<g id="edge47_Node000001_Node000088" class="edge">
<title>Node1&#45;&gt;Node88</title>
<g id="a_edge47_Node000001_Node000088"><a xlink:title=" ">
<path fill="none" stroke="#63b8ff" d="M27.52,-454.86C27.77,-396.19 31.74,-91.89 89,-24.5 92.72,-20.12 97.22,-16.54 102.17,-13.63"/>
<polygon fill="#63b8ff" stroke="#63b8ff" points="103.99,-16.64 111.46,-9.12 100.94,-10.34 103.99,-16.64"/>
</a>
</g>
</g>
<!-- Node1&#45;&gt;Node88 -->
<g id="edge48_Node000001_Node000088" class="edge">
<title>Node1&#45;&gt;Node88</title>
<g id="a_edge48_Node000001_Node000088"><a xlink:title=" ">
<path fill="none" stroke="#63b8ff" d="M27.55,-454.78C28.04,-397.47 33.33,-108.02 89,-42.5 98.43,-31.4 112.92,-25.37 126.77,-21.5"/>
<polygon fill="#63b8ff" stroke="#63b8ff" points="127.81,-24.84 136.66,-19.02 126.11,-18.05 127.81,-24.84"/>
</a>
</g>
</g>
<!-- Node15&#45;&gt;Node16 -->
<g id="edge7_Node000015_Node000016" class="edge">
<title>Node15&#45;&gt;Node16</title>
<g id="a_edge7_Node000015_Node000016"><a xlink:title=" ">
<path fill="none" stroke="#63b8ff" d="M190.51,-762.53C215.42,-757.15 256.03,-748.39 289.15,-741.23"/>
<polygon fill="#63b8ff" stroke="#63b8ff" points="290.13,-744.6 299.16,-739.07 288.65,-737.76 290.13,-744.6"/>
</a>
</g>
</g>
<!-- Node15&#45;&gt;Node34 -->
<g id="edge8_Node000015_Node000034" class="edge">
<title>Node15&#45;&gt;Node34</title>
<g id="a_edge8_Node000015_Node000034"><a xlink:title=" ">
<path fill="none" stroke="#63b8ff" d="M190.58,-767.71C207.33,-766.64 229.5,-762.55 244,-749.5 324.39,-677.13 339.83,-536.21 342.79,-484.31"/>
<polygon fill="#63b8ff" stroke="#63b8ff" points="346.3,-484.28 343.28,-474.13 339.31,-483.95 346.3,-484.28"/>
</a>
</g>
</g>
<!-- Node40&#45;&gt;Node40 -->
<g id="edge14_Node000040_Node000040" class="edge">
<title>Node40&#45;&gt;Node40</title>
<g id="a_edge14_Node000040_Node000040"><a xlink:title=" ">
<path fill="none" stroke="#63b8ff" d="M144.92,-609.08C134.42,-617.73 141.62,-627 166.5,-627 182.44,-627 191.12,-623.2 192.54,-618.19"/>
<polygon fill="#63b8ff" stroke="#63b8ff" points="195.62,-616.52 188.08,-609.08 189.34,-619.6 195.62,-616.52"/>
</a>
</g>
</g>
<!-- Node44&#45;&gt;Node2 -->
<g id="edge22_Node000044_Node000002" class="edge">
<title>Node44&#45;&gt;Node2</title>
<g id="a_edge22_Node000044_Node000002"><a xlink:title=" ">
<path fill="none" stroke="#63b8ff" d="M191.91,-478.85C214.59,-470.01 249.37,-456.79 280,-446.5 286.52,-444.31 293.46,-442.11 300.27,-440.01"/>
<polygon fill="#63b8ff" stroke="#63b8ff" points="301.52,-443.29 310.08,-437.04 299.5,-436.59 301.52,-443.29"/>
</a>
</g>
</g>
<!-- Node44&#45;&gt;Node34 -->
<g id="edge20_Node000044_Node000034" class="edge">
<title>Node44&#45;&gt;Node34</title>
<g id="a_edge20_Node000044_Node000034"><a xlink:title=" ">
<path fill="none" stroke="#63b8ff" d="M198.56,-478.97C223.28,-474.1 258.5,-468.96 288.03,-465.74"/>
<polygon fill="#63b8ff" stroke="#63b8ff" points="288.62,-469.2 298.21,-464.69 287.9,-462.24 288.62,-469.2"/>
</a>
</g>
</g>
<!-- Node44&#45;&gt;Node34 -->
<g id="edge21_Node000044_Node000034" class="edge">
<title>Node44&#45;&gt;Node34</title>
<g id="a_edge21_Node000044_Node000034"><a xlink:title=" ">
<path fill="none" stroke="#63b8ff" d="M232.54,-486.17C255.82,-483.43 281.42,-479.7 302.15,-475.96"/>
<polygon fill="#63b8ff" stroke="#63b8ff" points="303.03,-479.36 312.21,-474.07 301.74,-472.48 303.03,-479.36"/>
</a>
</g>
</g>
<!-- Node52&#45;&gt;Node2 -->
<g id="edge29_Node000052_Node000002" class="edge">
<title>Node52&#45;&gt;Node2</title>
<g id="a_edge29_Node000052_Node000002"><a xlink:title=" ">
<path fill="none" stroke="#63b8ff" d="M226.81,-311.83C232.79,-313.93 238.64,-316.48 244,-319.5 283.55,-341.78 318.22,-384.05 334.18,-408.89"/>
<polygon fill="#63b8ff" stroke="#63b8ff" points="331.36,-411 339.51,-417.78 337.36,-407.4 331.36,-411"/>
</a>
</g>
</g>
<!-- Node52&#45;&gt;Node2 -->
<g id="edge30_Node000052_Node000002" class="edge">
<title>Node52&#45;&gt;Node2</title>
<g id="a_edge30_Node000052_Node000002"><a xlink:title=" ">
<path fill="none" stroke="#63b8ff" d="M188.76,-319.07C204.77,-323.02 226.83,-327.83 244,-337.5 277.4,-356.32 307.33,-389.4 325.43,-410.01"/>
<polygon fill="#63b8ff" stroke="#63b8ff" points="323,-412.54 332.22,-417.75 328.26,-407.93 323,-412.54"/>
</a>
</g>
</g>
<!-- Node52&#45;&gt;Node34 -->
<g id="edge28_Node000052_Node000034" class="edge">
<title>Node52&#45;&gt;Node34</title>
<g id="a_edge28_Node000052_Node000034"><a xlink:title=" ">
<path fill="none" stroke="#63b8ff" d="M226.74,-317.46C233.09,-320.2 239.04,-323.79 244,-328.5 283.78,-366.24 240.84,-408.12 280,-446.5 282.74,-449.18 285.85,-451.48 289.18,-453.43"/>
<polygon fill="#63b8ff" stroke="#63b8ff" points="287.9,-456.7 298.43,-457.85 290.92,-450.38 287.9,-456.7"/>
</a>
</g>
</g>
<!-- Node66&#45;&gt;Node34 -->
<g id="edge33_Node000066_Node000034" class="edge">
<title>Node66&#45;&gt;Node34</title>
<g id="a_edge33_Node000066_Node000034"><a xlink:title=" ">
<path fill="none" stroke="#63b8ff" d="M207.01,-274.13C220.35,-276.62 234.3,-281.65 244,-291.5 293.63,-341.89 231.21,-395.31 280,-446.5 282.77,-449.4 285.96,-451.85 289.42,-453.91"/>
<polygon fill="#63b8ff" stroke="#63b8ff" points="287.93,-457.08 298.46,-458.27 290.98,-450.77 287.93,-457.08"/>
</a>
</g>
</g>
<!-- Node77&#45;&gt;Node79 -->
<g id="edge37_Node000077_Node000079" class="edge">
<title>Node77&#45;&gt;Node79</title>
<g id="a_edge37_Node000077_Node000079"><a xlink:title=" ">
<path fill="none" stroke="#63b8ff" d="M205.26,-190.56C234.35,-184.45 274.46,-176.01 303.99,-169.81"/>
<polygon fill="#63b8ff" stroke="#63b8ff" points="304.89,-173.19 313.95,-167.71 303.45,-166.34 304.89,-173.19"/>
</a>
</g>
</g>
<!-- Node77&#45;&gt;Node80 -->
<g id="edge38_Node000077_Node000080" class="edge">
<title>Node77&#45;&gt;Node80</title>
<g id="a_edge38_Node000077_Node000080"><a xlink:title=" ">
<path fill="none" stroke="#63b8ff" d="M205.26,-194C218.14,-191.35 232.25,-187.15 244,-180.5 263.97,-169.2 262.09,-157.84 280,-143.5 291.24,-134.51 304.7,-125.96 316.33,-119.18"/>
<polygon fill="#63b8ff" stroke="#63b8ff" points="318.23,-122.13 325.19,-114.14 314.77,-116.04 318.23,-122.13"/>
</a>
</g>
</g>
<!-- Node86&#45;&gt;Node79 -->
<g id="edge41_Node000086_Node000079" class="edge">
<title>Node86&#45;&gt;Node79</title>
<g id="a_edge41_Node000086_Node000079"><a xlink:title=" ">
<path fill="none" stroke="#63b8ff" d="M208.32,-161.5C237.08,-161.5 275.39,-161.5 303.88,-161.5"/>
<polygon fill="#63b8ff" stroke="#63b8ff" points="303.89,-165 313.89,-161.5 303.89,-158 303.89,-165"/>
</a>
</g>
</g>
<!-- Node86&#45;&gt;Node87 -->
<g id="edge42_Node000086_Node000087" class="edge">
<title>Node86&#45;&gt;Node87</title>
<g id="a_edge42_Node000086_Node000087"><a xlink:title=" ">
<path fill="none" stroke="#63b8ff" d="M179.27,-151.91C199,-136.25 240.49,-105.07 280,-86.5 287.86,-82.81 296.6,-79.64 305.03,-77.01"/>
<polygon fill="#63b8ff" stroke="#63b8ff" points="306.09,-80.34 314.7,-74.17 304.12,-73.63 306.09,-80.34"/>
</a>
</g>
</g>
</g>
</svg>
