<?xml version="1.0" encoding="UTF-8" standalone="no"?>
<!DOCTYPE svg PUBLIC "-//W3C//DTD SVG 1.1//EN"
 "http://www.w3.org/Graphics/SVG/1.1/DTD/svg11.dtd">
<!-- Generated by graphviz version 2.43.0 (0)
 -->
<!-- Title: outputMinconStatistics Pages: 1 -->
<svg width="326pt" height="150pt"
 viewBox="0.00 0.00 326.00 149.50" xmlns="http://www.w3.org/2000/svg" xmlns:xlink="http://www.w3.org/1999/xlink">
<g id="graph0" class="graph" transform="scale(1 1) rotate(0) translate(4 145.5)">
<title>outputMinconStatistics</title>
<!-- Node1 -->
<g id="Node000001" class="node">
<title>Node1</title>
<g id="a_Node000001"><a xlink:href="minimumConstraints_8cpp.html#ab6be6b79385844aff6e5935fe285c44a" target="_top" xlink:title=" ">
<path fill="#fff0f0" stroke="red" stroke-width="2" d="M311.67,-85.5C311.67,-85.5 196.33,-85.5 196.33,-85.5 193.17,-85.5 190,-82.33 190,-79.17 190,-79.17 190,-72.83 190,-72.83 190,-69.67 193.17,-66.5 196.33,-66.5 196.33,-66.5 311.67,-66.5 311.67,-66.5 314.83,-66.5 318,-69.67 318,-72.83 318,-72.83 318,-79.17 318,-79.17 318,-82.33 314.83,-85.5 311.67,-85.5"/>
<text text-anchor="middle" x="254" y="-73.5" font-family="Helvetica,sans-Serif" font-size="10.00">outputMinconStatistics</text>
</a>
</g>
</g>
<!-- Node2 -->
<g id="Node000002" class="node">
<title>Node2</title>
<g id="a_Node000002"><a xlink:href="compare_8cpp.html#aa8c289d9d4e60f862fb0a60566b76bd0" target="_top" xlink:title=" ">
<path fill="#fff0f0" stroke="red" d="M115.17,-141.5C115.17,-141.5 38.83,-141.5 38.83,-141.5 35.67,-141.5 32.5,-138.33 32.5,-135.17 32.5,-135.17 32.5,-128.83 32.5,-128.83 32.5,-125.67 35.67,-122.5 38.83,-122.5 38.83,-122.5 115.17,-122.5 115.17,-122.5 118.33,-122.5 121.5,-125.67 121.5,-128.83 121.5,-128.83 121.5,-135.17 121.5,-135.17 121.5,-138.33 118.33,-141.5 115.17,-141.5"/>
<text text-anchor="middle" x="77" y="-129.5" font-family="Helvetica,sans-Serif" font-size="10.00">compareOrbits</text>
</a>
</g>
</g>
<!-- Node1&#45;&gt;Node2 -->
<g id="edge1_Node000001_Node000002" class="edge">
<title>Node1&#45;&gt;Node2</title>
<g id="a_edge1_Node000001_Node000002"><a xlink:title=" ">
<path fill="none" stroke="#63b8ff" d="M221.03,-89.52C201.82,-97.33 176.77,-106.97 154,-114 143.64,-117.2 132.33,-120.16 121.68,-122.71"/>
<polygon fill="#63b8ff" stroke="#63b8ff" points="222.58,-92.67 230.5,-85.63 219.92,-86.2 222.58,-92.67"/>
</a>
</g>
</g>
<!-- Node5 -->
<g id="Node000005" class="node">
<title>Node5</title>
<g id="a_Node000005"><a xlink:href="main_8cpp.html#a2b0d1066eac1a878cf982adcdd550ce1" target="_top" xlink:title="Perform any post&#45;final epoch calculations and outputs, then begin reverse smoothing and tidy up.">
<path fill="#fff0f0" stroke="red" d="M128.17,-104.5C128.17,-104.5 25.83,-104.5 25.83,-104.5 22.67,-104.5 19.5,-101.33 19.5,-98.17 19.5,-98.17 19.5,-91.83 19.5,-91.83 19.5,-88.67 22.67,-85.5 25.83,-85.5 25.83,-85.5 128.17,-85.5 128.17,-85.5 131.33,-85.5 134.5,-88.67 134.5,-91.83 134.5,-91.83 134.5,-98.17 134.5,-98.17 134.5,-101.33 131.33,-104.5 128.17,-104.5"/>
<text text-anchor="middle" x="77" y="-92.5" font-family="Helvetica,sans-Serif" font-size="10.00">mainPostProcessing</text>
</a>
</g>
</g>
<!-- Node1&#45;&gt;Node5 -->
<g id="edge2_Node000001_Node000005" class="edge">
<title>Node1&#45;&gt;Node5</title>
<g id="a_edge2_Node000001_Node000005"><a xlink:title=" ">
<path fill="none" stroke="#63b8ff" d="M179.55,-83.97C164.56,-85.6 149,-87.29 134.7,-88.84"/>
<polygon fill="#63b8ff" stroke="#63b8ff" points="180.26,-87.42 189.82,-82.86 179.5,-80.46 180.26,-87.42"/>
</a>
</g>
</g>
<!-- Node6 -->
<g id="Node000006" class="node">
<title>Node6</title>
<g id="a_Node000006"><a xlink:href="minimumConstraints_8cpp.html#aeb8c374e79e38289a66b8b65d6574141" target="_top" xlink:title=" ">
<path fill="#fff0f0" stroke="red" d="M108.17,-67.5C108.17,-67.5 45.83,-67.5 45.83,-67.5 42.67,-67.5 39.5,-64.33 39.5,-61.17 39.5,-61.17 39.5,-54.83 39.5,-54.83 39.5,-51.67 42.67,-48.5 45.83,-48.5 45.83,-48.5 108.17,-48.5 108.17,-48.5 111.33,-48.5 114.5,-51.67 114.5,-54.83 114.5,-54.83 114.5,-61.17 114.5,-61.17 114.5,-64.33 111.33,-67.5 108.17,-67.5"/>
<text text-anchor="middle" x="77" y="-55.5" font-family="Helvetica,sans-Serif" font-size="10.00">minconOnly</text>
</a>
</g>
</g>
<!-- Node1&#45;&gt;Node6 -->
<g id="edge3_Node000001_Node000006" class="edge">
<title>Node1&#45;&gt;Node6</title>
<g id="a_edge3_Node000001_Node000006"><a xlink:title=" ">
<path fill="none" stroke="#63b8ff" d="M179.62,-68.45C157.19,-66.14 133.48,-63.71 114.61,-61.77"/>
<polygon fill="#63b8ff" stroke="#63b8ff" points="179.52,-71.96 189.82,-69.5 180.23,-65 179.52,-71.96"/>
</a>
</g>
</g>
<!-- Node7 -->
<g id="Node000007" class="node">
<title>Node7</title>
<g id="a_Node000007"><a xlink:href="outputs_8cpp.html#abf277b1afcff7cb07fa2857b4a373100" target="_top" xlink:title=" ">
<path fill="#fff0f0" stroke="red" d="M144,-30C144,-30 10,-30 10,-30 5,-30 0,-25 0,-20 0,-20 0,-10 0,-10 0,-5 5,0 10,0 10,0 144,0 144,0 149,0 154,-5 154,-10 154,-10 154,-20 154,-20 154,-25 149,-30 144,-30"/>
<text text-anchor="start" x="8" y="-18" font-family="Helvetica,sans-Serif" font-size="10.00">perEpochPostProcessingAnd</text>
<text text-anchor="middle" x="77" y="-7" font-family="Helvetica,sans-Serif" font-size="10.00">Outputs</text>
</a>
</g>
</g>
<!-- Node1&#45;&gt;Node7 -->
<g id="edge4_Node000001_Node000007" class="edge">
<title>Node1&#45;&gt;Node7</title>
<g id="a_edge4_Node000001_Node000007"><a xlink:title=" ">
<path fill="none" stroke="#63b8ff" d="M218.03,-62.99C199.13,-56.02 175.34,-47.39 154,-40 144.55,-36.73 134.4,-33.32 124.7,-30.11"/>
<polygon fill="#63b8ff" stroke="#63b8ff" points="216.84,-66.28 227.44,-66.46 219.27,-59.71 216.84,-66.28"/>
</a>
</g>
</g>
</g>
</svg>
