<?xml version="1.0" encoding="UTF-8" standalone="no"?>
<!DOCTYPE svg PUBLIC "-//W3C//DTD SVG 1.1//EN"
 "http://www.w3.org/Graphics/SVG/1.1/DTD/svg11.dtd">
<!-- Generated by graphviz version 2.43.0 (0)
 -->
<!-- Title: mongoStates Pages: 1 -->
<svg width="587pt" height="227pt"
 viewBox="0.00 0.00 587.00 227.45" xmlns="http://www.w3.org/2000/svg" xmlns:xlink="http://www.w3.org/1999/xlink">
<g id="graph0" class="graph" transform="scale(1 1) rotate(0) translate(4 223.45)">
<title>mongoStates</title>
<!-- Node1 -->
<g id="Node000001" class="node">
<title>Node1</title>
<g id="a_Node000001"><a xlink:href="mongoWrite_8cpp.html#a7b0669675f4db278af7db5cb0b0dee6a" target="_top" xlink:title=" ">
<path fill="#fff0f0" stroke="red" stroke-width="2" d="M572.67,-120.91C572.67,-120.91 504.33,-120.91 504.33,-120.91 501.17,-120.91 498,-117.74 498,-114.57 498,-114.57 498,-108.24 498,-108.24 498,-105.07 501.17,-101.91 504.33,-101.91 504.33,-101.91 572.67,-101.91 572.67,-101.91 575.83,-101.91 579,-105.07 579,-108.24 579,-108.24 579,-114.57 579,-114.57 579,-117.74 575.83,-120.91 572.67,-120.91"/>
<text text-anchor="middle" x="538.5" y="-108.91" font-family="Helvetica,sans-Serif" font-size="10.00">mongoStates</text>
</a>
</g>
</g>
<!-- Node2 -->
<g id="Node000002" class="node">
<title>Node2</title>
<g id="a_Node000002"><a xlink:href="main_8cpp.html#a479f892b35943104163405de9a93be14" target="_top" xlink:title=" ">
<path fill="#fff0f0" stroke="red" d="M104.67,-83.91C104.67,-83.91 6.33,-83.91 6.33,-83.91 3.17,-83.91 0,-80.74 0,-77.57 0,-77.57 0,-71.24 0,-71.24 0,-68.07 3.17,-64.91 6.33,-64.91 6.33,-64.91 104.67,-64.91 104.67,-64.91 107.83,-64.91 111,-68.07 111,-71.24 111,-71.24 111,-77.57 111,-77.57 111,-80.74 107.83,-83.91 104.67,-83.91"/>
<text text-anchor="middle" x="55.5" y="-71.91" font-family="Helvetica,sans-Serif" font-size="10.00">mainOncePerEpoch</text>
</a>
</g>
</g>
<!-- Node1&#45;&gt;Node2 -->
<g id="edge1_Node000001_Node000002" class="edge">
<title>Node1&#45;&gt;Node2</title>
<g id="a_edge1_Node000001_Node000002"><a xlink:title=" ">
<path fill="none" stroke="#63b8ff" d="M529.14,-130.29C517.74,-153.4 494.9,-191.43 462,-207.41 412.03,-231.68 392.47,-210.46 337,-207.41 252.17,-202.73 221.53,-227.18 147,-186.41 102.7,-162.17 71.96,-106.45 60.97,-84.02"/>
<polygon fill="#63b8ff" stroke="#63b8ff" points="532.36,-131.67 533.44,-121.13 526.02,-128.69 532.36,-131.67"/>
</a>
</g>
</g>
<!-- Node4 -->
<g id="Node000004" class="node">
<title>Node4</title>
<g id="a_Node000004"><a xlink:href="main_8cpp.html#a2b0d1066eac1a878cf982adcdd550ce1" target="_top" xlink:title="Perform any post&#45;final epoch calculations and outputs, then begin reverse smoothing and tidy up.">
<path fill="#fff0f0" stroke="red" d="M275.17,-176.91C275.17,-176.91 172.83,-176.91 172.83,-176.91 169.67,-176.91 166.5,-173.74 166.5,-170.57 166.5,-170.57 166.5,-164.24 166.5,-164.24 166.5,-161.07 169.67,-157.91 172.83,-157.91 172.83,-157.91 275.17,-157.91 275.17,-157.91 278.33,-157.91 281.5,-161.07 281.5,-164.24 281.5,-164.24 281.5,-170.57 281.5,-170.57 281.5,-173.74 278.33,-176.91 275.17,-176.91"/>
<text text-anchor="middle" x="224" y="-164.91" font-family="Helvetica,sans-Serif" font-size="10.00">mainPostProcessing</text>
</a>
</g>
</g>
<!-- Node1&#45;&gt;Node4 -->
<g id="edge2_Node000001_Node000004" class="edge">
<title>Node1&#45;&gt;Node4</title>
<g id="a_edge2_Node000001_Node000004"><a xlink:title=" ">
<path fill="none" stroke="#63b8ff" d="M525.76,-129.52C512.71,-147.82 489.76,-174.96 462,-186.41 390.26,-215.98 296.07,-191.87 251.1,-176.98"/>
<polygon fill="#63b8ff" stroke="#63b8ff" points="528.75,-131.35 531.5,-121.12 522.97,-127.4 528.75,-131.35"/>
</a>
</g>
</g>
<!-- Node5 -->
<g id="Node000005" class="node">
<title>Node5</title>
<g id="a_Node000005"><a xlink:href="minimumConstraints_8cpp.html#aa40934b017f373d875c3470591eff52e" target="_top" xlink:title=" ">
<path fill="#fff0f0" stroke="red" d="M419.67,-176.91C419.67,-176.91 379.33,-176.91 379.33,-176.91 376.17,-176.91 373,-173.74 373,-170.57 373,-170.57 373,-164.24 373,-164.24 373,-161.07 376.17,-157.91 379.33,-157.91 379.33,-157.91 419.67,-157.91 419.67,-157.91 422.83,-157.91 426,-161.07 426,-164.24 426,-164.24 426,-170.57 426,-170.57 426,-173.74 422.83,-176.91 419.67,-176.91"/>
<text text-anchor="middle" x="399.5" y="-164.91" font-family="Helvetica,sans-Serif" font-size="10.00">mincon</text>
</a>
</g>
</g>
<!-- Node1&#45;&gt;Node5 -->
<g id="edge3_Node000001_Node000005" class="edge">
<title>Node1&#45;&gt;Node5</title>
<g id="a_edge3_Node000001_Node000005"><a xlink:title=" ">
<path fill="none" stroke="#63b8ff" d="M512,-125.7C497.61,-133.39 479.13,-142.65 462,-149.41 450.51,-153.94 437.42,-157.92 426.28,-160.98"/>
<polygon fill="#63b8ff" stroke="#63b8ff" points="513.7,-128.76 520.81,-120.91 510.35,-122.61 513.7,-128.76"/>
</a>
</g>
</g>
<!-- Node10 -->
<g id="Node000010" class="node">
<title>Node10</title>
<g id="a_Node000010"><a xlink:href="outputs_8cpp.html#abf277b1afcff7cb07fa2857b4a373100" target="_top" xlink:title=" ">
<path fill="#fff0f0" stroke="red" d="M291,-89.41C291,-89.41 157,-89.41 157,-89.41 152,-89.41 147,-84.41 147,-79.41 147,-79.41 147,-69.41 147,-69.41 147,-64.41 152,-59.41 157,-59.41 157,-59.41 291,-59.41 291,-59.41 296,-59.41 301,-64.41 301,-69.41 301,-69.41 301,-79.41 301,-79.41 301,-84.41 296,-89.41 291,-89.41"/>
<text text-anchor="start" x="155" y="-77.41" font-family="Helvetica,sans-Serif" font-size="10.00">perEpochPostProcessingAnd</text>
<text text-anchor="middle" x="224" y="-66.41" font-family="Helvetica,sans-Serif" font-size="10.00">Outputs</text>
</a>
</g>
</g>
<!-- Node1&#45;&gt;Node10 -->
<g id="edge13_Node000001_Node000010" class="edge">
<title>Node1&#45;&gt;Node10</title>
<g id="a_edge13_Node000001_Node000010"><a xlink:title=" ">
<path fill="none" stroke="#63b8ff" d="M525.25,-93.24C512.04,-75.43 489.2,-49.41 462,-38.41 392.55,-10.32 303.6,-39.53 256.9,-59.35"/>
<polygon fill="#63b8ff" stroke="#63b8ff" points="522.61,-95.56 531.26,-101.68 528.31,-91.5 522.61,-95.56"/>
</a>
</g>
</g>
<!-- Node15 -->
<g id="Node000015" class="node">
<title>Node15</title>
<g id="a_Node000015"><a xlink:href="mongoWrite_8cpp.html#ad99e3f029b681676da8bbf077cdb62a7" target="_top" xlink:title=" ">
<path fill="#fff0f0" stroke="red" d="M443.67,-139.91C443.67,-139.91 355.33,-139.91 355.33,-139.91 352.17,-139.91 349,-136.74 349,-133.57 349,-133.57 349,-127.24 349,-127.24 349,-124.07 352.17,-120.91 355.33,-120.91 355.33,-120.91 443.67,-120.91 443.67,-120.91 446.83,-120.91 450,-124.07 450,-127.24 450,-127.24 450,-133.57 450,-133.57 450,-136.74 446.83,-139.91 443.67,-139.91"/>
<text text-anchor="middle" x="399.5" y="-127.91" font-family="Helvetica,sans-Serif" font-size="10.00">mongoQueueRun</text>
</a>
</g>
</g>
<!-- Node1&#45;&gt;Node15 -->
<g id="edge7_Node000001_Node000015" class="edge">
<title>Node1&#45;&gt;Node15</title>
<g id="a_edge7_Node000001_Node000015"><a xlink:title=" ">
<path fill="none" stroke="#63b8ff" d="M487.84,-118.29C475.61,-119.99 462.52,-121.81 450.28,-123.5"/>
<polygon fill="#63b8ff" stroke="#63b8ff" points="488.45,-121.74 497.87,-116.9 487.49,-114.81 488.45,-121.74"/>
</a>
</g>
</g>
<!-- Node34 -->
<g id="Node000034" class="node">
<title>Node34</title>
<g id="a_Node000034"><a xlink:href="ppp_8cpp.html#a1a529bfb379c76f71546a80022b8f123" target="_top" xlink:title=" ">
<path fill="#fff0f0" stroke="red" d="M433.17,-102.91C433.17,-102.91 365.83,-102.91 365.83,-102.91 362.67,-102.91 359.5,-99.74 359.5,-96.57 359.5,-96.57 359.5,-90.24 359.5,-90.24 359.5,-87.07 362.67,-83.91 365.83,-83.91 365.83,-83.91 433.17,-83.91 433.17,-83.91 436.33,-83.91 439.5,-87.07 439.5,-90.24 439.5,-90.24 439.5,-96.57 439.5,-96.57 439.5,-99.74 436.33,-102.91 433.17,-102.91"/>
<text text-anchor="middle" x="399.5" y="-90.91" font-family="Helvetica,sans-Serif" font-size="10.00">outputApriori</text>
</a>
</g>
</g>
<!-- Node1&#45;&gt;Node34 -->
<g id="edge8_Node000001_Node000034" class="edge">
<title>Node1&#45;&gt;Node34</title>
<g id="a_edge8_Node000001_Node000034"><a xlink:title=" ">
<path fill="none" stroke="#63b8ff" d="M487.7,-104.86C471.85,-102.78 454.55,-100.51 439.56,-98.54"/>
<polygon fill="#63b8ff" stroke="#63b8ff" points="487.5,-108.37 497.87,-106.2 488.42,-101.43 487.5,-108.37"/>
</a>
</g>
</g>
<!-- Node31 -->
<g id="Node000031" class="node">
<title>Node31</title>
<g id="a_Node000031"><a xlink:href="outputs_8cpp.html#a47923d108129a8e2dc5d741ac5202f3a" target="_top" xlink:title=" ">
<path fill="#fff0f0" stroke="red" d="M455.67,-65.91C455.67,-65.91 343.33,-65.91 343.33,-65.91 340.17,-65.91 337,-62.74 337,-59.57 337,-59.57 337,-53.24 337,-53.24 337,-50.07 340.17,-46.91 343.33,-46.91 343.33,-46.91 455.67,-46.91 455.67,-46.91 458.83,-46.91 462,-50.07 462,-53.24 462,-53.24 462,-59.57 462,-59.57 462,-62.74 458.83,-65.91 455.67,-65.91"/>
<text text-anchor="middle" x="399.5" y="-53.91" font-family="Helvetica,sans-Serif" font-size="10.00">outputPredictedStates</text>
</a>
</g>
</g>
<!-- Node1&#45;&gt;Node31 -->
<g id="edge10_Node000001_Node000031" class="edge">
<title>Node1&#45;&gt;Node31</title>
<g id="a_edge10_Node000001_Node000031"><a xlink:title=" ">
<path fill="none" stroke="#63b8ff" d="M510.05,-97.13C495.91,-90.09 478.27,-81.76 462,-75.41 453.26,-71.99 443.63,-68.77 434.64,-65.99"/>
<polygon fill="#63b8ff" stroke="#63b8ff" points="508.71,-100.38 519.21,-101.77 511.87,-94.13 508.71,-100.38"/>
</a>
</g>
</g>
<!-- Node14 -->
<g id="Node000014" class="node">
<title>Node14</title>
<g id="a_Node000014"><a xlink:href="ppppp_8cpp.html#a9997f03cab80cd8db895650860eb025e" target="_top" xlink:title=" ">
<path fill="#fff0f0" stroke="red" d="M235.17,-24.91C235.17,-24.91 212.83,-24.91 212.83,-24.91 209.67,-24.91 206.5,-21.74 206.5,-18.57 206.5,-18.57 206.5,-12.24 206.5,-12.24 206.5,-9.07 209.67,-5.91 212.83,-5.91 212.83,-5.91 235.17,-5.91 235.17,-5.91 238.33,-5.91 241.5,-9.07 241.5,-12.24 241.5,-12.24 241.5,-18.57 241.5,-18.57 241.5,-21.74 238.33,-24.91 235.17,-24.91"/>
<text text-anchor="middle" x="224" y="-12.91" font-family="Helvetica,sans-Serif" font-size="10.00">ppp</text>
</a>
</g>
</g>
<!-- Node1&#45;&gt;Node14 -->
<g id="edge14_Node000001_Node000014" class="edge">
<title>Node1&#45;&gt;Node14</title>
<g id="a_edge14_Node000001_Node000014"><a xlink:title=" ">
<path fill="none" stroke="#63b8ff" d="M528,-92.78C515.93,-71.37 492.89,-37.27 462,-22.41 386.7,13.82 281.8,-3 241.59,-11.52"/>
<polygon fill="#63b8ff" stroke="#63b8ff" points="525.08,-94.72 532.9,-101.87 531.24,-91.41 525.08,-94.72"/>
</a>
</g>
</g>
<!-- Node5&#45;&gt;Node4 -->
<g id="edge4_Node000005_Node000004" class="edge">
<title>Node5&#45;&gt;Node4</title>
<g id="a_edge4_Node000005_Node000004"><a xlink:title=" ">
<path fill="none" stroke="#63b8ff" d="M362.73,-167.41C339.34,-167.41 308.28,-167.41 281.58,-167.41"/>
<polygon fill="#63b8ff" stroke="#63b8ff" points="362.9,-170.91 372.9,-167.41 362.9,-163.91 362.9,-170.91"/>
</a>
</g>
</g>
<!-- Node5&#45;&gt;Node10 -->
<g id="edge5_Node000005_Node000010" class="edge">
<title>Node5&#45;&gt;Node10</title>
<g id="a_edge5_Node000005_Node000010"><a xlink:title=" ">
<path fill="none" stroke="#63b8ff" d="M362.86,-158.98C354.2,-156.39 345.11,-153.2 337,-149.41 301.81,-132.95 265.16,-106.3 243.75,-89.6"/>
<polygon fill="#63b8ff" stroke="#63b8ff" points="362.15,-162.41 372.73,-161.74 364.04,-155.67 362.15,-162.41"/>
</a>
</g>
</g>
<!-- Node10&#45;&gt;Node2 -->
<g id="edge6_Node000010_Node000002" class="edge">
<title>Node10&#45;&gt;Node2</title>
<g id="a_edge6_Node000010_Node000002"><a xlink:title=" ">
<path fill="none" stroke="#63b8ff" d="M136.45,-74.41C127.83,-74.41 119.25,-74.41 111.1,-74.41"/>
<polygon fill="#63b8ff" stroke="#63b8ff" points="136.57,-77.91 146.57,-74.41 136.57,-70.91 136.57,-77.91"/>
</a>
</g>
</g>
<!-- Node34&#45;&gt;Node10 -->
<g id="edge9_Node000034_Node000010" class="edge">
<title>Node34&#45;&gt;Node10</title>
<g id="a_edge9_Node000034_Node000010"><a xlink:title=" ">
<path fill="none" stroke="#63b8ff" d="M349.11,-88C334.17,-86.36 317.4,-84.53 301.14,-82.74"/>
<polygon fill="#63b8ff" stroke="#63b8ff" points="348.81,-91.49 359.13,-89.1 349.57,-84.53 348.81,-91.49"/>
</a>
</g>
</g>
<!-- Node31&#45;&gt;Node4 -->
<g id="edge11_Node000031_Node000004" class="edge">
<title>Node31&#45;&gt;Node4</title>
<g id="a_edge11_Node000031_Node000004"><a xlink:title=" ">
<path fill="none" stroke="#63b8ff" d="M349.78,-69.5C345.36,-71.27 341.04,-73.23 337,-75.41 294.01,-98.54 251.86,-139.44 233.96,-157.9"/>
<polygon fill="#63b8ff" stroke="#63b8ff" points="351.32,-72.66 359.51,-65.94 348.92,-66.09 351.32,-72.66"/>
</a>
</g>
</g>
<!-- Node31&#45;&gt;Node10 -->
<g id="edge12_Node000031_Node000010" class="edge">
<title>Node31&#45;&gt;Node10</title>
<g id="a_edge12_Node000031_Node000010"><a xlink:title=" ">
<path fill="none" stroke="#63b8ff" d="M326.65,-63.86C318.2,-64.74 309.55,-65.64 301.04,-66.52"/>
<polygon fill="#63b8ff" stroke="#63b8ff" points="327.26,-67.32 336.84,-62.8 326.53,-60.35 327.26,-67.32"/>
</a>
</g>
</g>
<!-- Node14&#45;&gt;Node2 -->
<g id="edge15_Node000014_Node000002" class="edge">
<title>Node14&#45;&gt;Node2</title>
<g id="a_edge15_Node000014_Node000002"><a xlink:title=" ">
<path fill="none" stroke="#63b8ff" d="M196.76,-24.7C165.81,-35.67 114.62,-53.81 83.38,-64.88"/>
<polygon fill="#63b8ff" stroke="#63b8ff" points="198.17,-27.92 206.43,-21.28 195.83,-21.32 198.17,-27.92"/>
</a>
</g>
</g>
</g>
</svg>
