<?xml version="1.0" encoding="UTF-8" standalone="no"?>
<!DOCTYPE svg PUBLIC "-//W3C//DTD SVG 1.1//EN"
 "http://www.w3.org/Graphics/SVG/1.1/DTD/svg11.dtd">
<!-- Generated by graphviz version 2.43.0 (0)
 -->
<!-- Title: createTracefiles Pages: 1 -->
<svg width="270pt" height="212pt"
 viewBox="0.00 0.00 270.00 212.00" xmlns="http://www.w3.org/2000/svg" xmlns:xlink="http://www.w3.org/1999/xlink">
<g id="graph0" class="graph" transform="scale(1 1) rotate(0) translate(4 208)">
<title>createTracefiles</title>
<!-- Node1 -->
<g id="Node000001" class="node">
<title>Node1</title>
<g id="a_Node000001"><a xlink:href="outputs_8cpp.html#a116830f5a44aad1710dc47ecfa670cab" target="_top" xlink:title="Create new empty trace files only when required when the filename is changed.">
<path fill="#fff0f0" stroke="red" stroke-width="2" d="M86.67,-93C86.67,-93 6.33,-93 6.33,-93 3.17,-93 0,-89.83 0,-86.67 0,-86.67 0,-80.33 0,-80.33 0,-77.17 3.17,-74 6.33,-74 6.33,-74 86.67,-74 86.67,-74 89.83,-74 93,-77.17 93,-80.33 93,-80.33 93,-86.67 93,-86.67 93,-89.83 89.83,-93 86.67,-93"/>
<text text-anchor="middle" x="46.5" y="-81" font-family="Helvetica,sans-Serif" font-size="10.00">createTracefiles</text>
</a>
</g>
</g>
<!-- Node2 -->
<g id="Node000002" class="node">
<title>Node2</title>
<g id="a_Node000002"><a xlink:href="gTime_8cpp.html#abd3e80e328e3d4afed1001aa34ca9d16" target="_top" xlink:title="Returns (posix) for current epoch.">
<path fill="#fff0f0" stroke="red" d="M237.67,-204C237.67,-204 153.33,-204 153.33,-204 150.17,-204 147,-200.83 147,-197.67 147,-197.67 147,-191.33 147,-191.33 147,-188.17 150.17,-185 153.33,-185 153.33,-185 237.67,-185 237.67,-185 240.83,-185 244,-188.17 244,-191.33 244,-191.33 244,-197.67 244,-197.67 244,-200.83 240.83,-204 237.67,-204"/>
<text text-anchor="middle" x="195.5" y="-192" font-family="Helvetica,sans-Serif" font-size="10.00">currentLogptime</text>
</a>
</g>
</g>
<!-- Node1&#45;&gt;Node2 -->
<g id="edge1_Node000001_Node000002" class="edge">
<title>Node1&#45;&gt;Node2</title>
<g id="a_edge1_Node000001_Node000002"><a xlink:title=" ">
<path fill="none" stroke="#63b8ff" d="M53.13,-93.04C64.81,-111.95 93.52,-154.27 129,-176.5 131.75,-178.22 134.66,-179.78 137.67,-181.19"/>
<polygon fill="#63b8ff" stroke="#63b8ff" points="136.36,-184.44 146.94,-185 139.02,-177.96 136.36,-184.44"/>
</a>
</g>
</g>
<!-- Node5 -->
<g id="Node000005" class="node">
<title>Node5</title>
<g id="a_Node000005"><a xlink:href="outputs_8cpp.html#a2206cd179576b10f99dbe50e8e7ddc5a" target="_top" xlink:title="Create directories if required.">
<path fill="#fff0f0" stroke="red" d="M239.67,-167C239.67,-167 151.33,-167 151.33,-167 148.17,-167 145,-163.83 145,-160.67 145,-160.67 145,-154.33 145,-154.33 145,-151.17 148.17,-148 151.33,-148 151.33,-148 239.67,-148 239.67,-148 242.83,-148 246,-151.17 246,-154.33 246,-154.33 246,-160.67 246,-160.67 246,-163.83 242.83,-167 239.67,-167"/>
<text text-anchor="middle" x="195.5" y="-155" font-family="Helvetica,sans-Serif" font-size="10.00">createDirectories</text>
</a>
</g>
</g>
<!-- Node1&#45;&gt;Node5 -->
<g id="edge2_Node000001_Node000005" class="edge">
<title>Node1&#45;&gt;Node5</title>
<g id="a_edge2_Node000001_Node000005"><a xlink:title=" ">
<path fill="none" stroke="#63b8ff" d="M58.89,-93.18C74,-105.56 101.91,-126.91 129,-139.5 133.14,-141.43 137.53,-143.18 142,-144.77"/>
<polygon fill="#63b8ff" stroke="#63b8ff" points="141.23,-148.21 151.83,-148 143.42,-141.56 141.23,-148.21"/>
</a>
</g>
</g>
<!-- Node8 -->
<g id="Node000008" class="node">
<title>Node8</title>
<g id="a_Node000008"><a xlink:href="mongo_8cpp.html#a52ea466b77ea949c69649373cb073616" target="_top" xlink:title=" ">
<path fill="#fff0f0" stroke="red" d="M242.67,-130C242.67,-130 148.33,-130 148.33,-130 145.17,-130 142,-126.83 142,-123.67 142,-123.67 142,-117.33 142,-117.33 142,-114.17 145.17,-111 148.33,-111 148.33,-111 242.67,-111 242.67,-111 245.83,-111 249,-114.17 249,-117.33 249,-117.33 249,-123.67 249,-123.67 249,-126.83 245.83,-130 242.67,-130"/>
<text text-anchor="middle" x="195.5" y="-118" font-family="Helvetica,sans-Serif" font-size="10.00">startNewMongoDb</text>
</a>
</g>
</g>
<!-- Node1&#45;&gt;Node8 -->
<g id="edge3_Node000001_Node000008" class="edge">
<title>Node1&#45;&gt;Node8</title>
<g id="a_edge3_Node000001_Node000008"><a xlink:title=" ">
<path fill="none" stroke="#63b8ff" d="M93.21,-88.7C116.85,-93.86 145.01,-101.21 165.62,-107.74"/>
<polygon fill="#63b8ff" stroke="#63b8ff" points="164.77,-111.14 175.37,-110.96 166.97,-104.5 164.77,-111.14"/>
</a>
</g>
</g>
<!-- Node1&#45;&gt;Node8 -->
<g id="edge4_Node000001_Node000008" class="edge">
<title>Node1&#45;&gt;Node8</title>
<g id="a_edge4_Node000001_Node000008"><a xlink:title=" ">
<path fill="none" stroke="#63b8ff" d="M66.72,-93.07C83.33,-98.84 108.31,-105.78 131.79,-111.4"/>
<polygon fill="#63b8ff" stroke="#63b8ff" points="131.19,-114.86 141.73,-113.72 132.79,-108.04 131.19,-114.86"/>
</a>
</g>
</g>
<!-- Node12 -->
<g id="Node000012" class="node">
<title>Node12</title>
<g id="a_Node000012"><a xlink:href="trace_8cpp.html#a4d8fcbcf5c1eb96baff3deeeaf1cc8ab" target="_top" xlink:title=" ">
<path fill="#fff0f0" stroke="red" d="M245.17,-93C245.17,-93 145.83,-93 145.83,-93 142.67,-93 139.5,-89.83 139.5,-86.67 139.5,-86.67 139.5,-80.33 139.5,-80.33 139.5,-77.17 142.67,-74 145.83,-74 145.83,-74 245.17,-74 245.17,-74 248.33,-74 251.5,-77.17 251.5,-80.33 251.5,-80.33 251.5,-86.67 251.5,-86.67 251.5,-89.83 248.33,-93 245.17,-93"/>
<text text-anchor="middle" x="195.5" y="-81" font-family="Helvetica,sans-Serif" font-size="10.00">createNewTraceFile</text>
</a>
</g>
</g>
<!-- Node1&#45;&gt;Node12 -->
<g id="edge5_Node000001_Node000012" class="edge">
<title>Node1&#45;&gt;Node12</title>
<g id="a_edge5_Node000001_Node000012"><a xlink:title=" ">
<path fill="none" stroke="#63b8ff" d="M93.21,-77.2C104.6,-76.81 117.03,-76.68 129.17,-76.79"/>
<polygon fill="#63b8ff" stroke="#63b8ff" points="129.21,-80.29 139.26,-76.94 129.31,-73.29 129.21,-80.29"/>
</a>
</g>
</g>
<!-- Node1&#45;&gt;Node12 -->
<g id="edge6_Node000001_Node000012" class="edge">
<title>Node1&#45;&gt;Node12</title>
<g id="a_edge6_Node000001_Node000012"><a xlink:title=" ">
<path fill="none" stroke="#63b8ff" d="M93.21,-89.8C104.6,-90.19 117.03,-90.32 129.17,-90.21"/>
<polygon fill="#63b8ff" stroke="#63b8ff" points="129.31,-93.71 139.26,-90.06 129.21,-86.71 129.31,-93.71"/>
</a>
</g>
</g>
<!-- Node15 -->
<g id="Node000015" class="node">
<title>Node15</title>
<g id="a_Node000015"><a xlink:href="rinexClkWrite_8cpp.html#a87a652e05ec91c35c1e56c0650176dfa" target="_top" xlink:title=" ">
<path fill="#fff0f0" stroke="red" d="M255.67,-56C255.67,-56 135.33,-56 135.33,-56 132.17,-56 129,-52.83 129,-49.67 129,-49.67 129,-43.33 129,-43.33 129,-40.17 132.17,-37 135.33,-37 135.33,-37 255.67,-37 255.67,-37 258.83,-37 262,-40.17 262,-43.33 262,-43.33 262,-49.67 262,-49.67 262,-52.83 258.83,-56 255.67,-56"/>
<text text-anchor="middle" x="195.5" y="-44" font-family="Helvetica,sans-Serif" font-size="10.00">getSysOutputFilenames</text>
</a>
</g>
</g>
<!-- Node1&#45;&gt;Node15 -->
<g id="edge7_Node000001_Node000015" class="edge">
<title>Node1&#45;&gt;Node15</title>
<g id="a_edge7_Node000001_Node000015"><a xlink:title=" ">
<path fill="none" stroke="#63b8ff" d="M66.72,-73.93C80.63,-69.1 100.4,-63.45 120.25,-58.44"/>
<polygon fill="#63b8ff" stroke="#63b8ff" points="121.1,-61.83 129.97,-56.04 119.42,-55.04 121.1,-61.83"/>
</a>
</g>
</g>
<!-- Node1&#45;&gt;Node15 -->
<g id="edge8_Node000001_Node000015" class="edge">
<title>Node1&#45;&gt;Node15</title>
<g id="a_edge8_Node000001_Node000015"><a xlink:title=" ">
<path fill="none" stroke="#63b8ff" d="M93.21,-78.3C116.85,-73.14 145.01,-65.79 165.62,-59.26"/>
<polygon fill="#63b8ff" stroke="#63b8ff" points="166.97,-62.5 175.37,-56.04 164.77,-55.86 166.97,-62.5"/>
</a>
</g>
</g>
<!-- Node17 -->
<g id="Node000017" class="node">
<title>Node17</title>
<g id="a_Node000017"><a xlink:href="algebraTrace_8hpp.html#a763d8db4343fa73fa264de91d8cda786" target="_top" xlink:title="Output filter state to a file for later reading.">
<path fill="#fff0f0" stroke="red" d="M232.67,-19C232.67,-19 158.33,-19 158.33,-19 155.17,-19 152,-15.83 152,-12.67 152,-12.67 152,-6.33 152,-6.33 152,-3.17 155.17,0 158.33,0 158.33,0 232.67,0 232.67,0 235.83,0 239,-3.17 239,-6.33 239,-6.33 239,-12.67 239,-12.67 239,-15.83 235.83,-19 232.67,-19"/>
<text text-anchor="middle" x="195.5" y="-7" font-family="Helvetica,sans-Serif" font-size="10.00">spitFilterToFile</text>
</a>
</g>
</g>
<!-- Node1&#45;&gt;Node17 -->
<g id="edge9_Node000001_Node000017" class="edge">
<title>Node1&#45;&gt;Node17</title>
<g id="a_edge9_Node000001_Node000017"><a xlink:title=" ">
<path fill="none" stroke="#63b8ff" d="M59.21,-73.85C74.44,-61.74 102.26,-41.02 129,-28.5 133.96,-26.18 139.26,-24.07 144.63,-22.19"/>
<polygon fill="#63b8ff" stroke="#63b8ff" points="145.87,-25.46 154.29,-19.02 143.69,-18.81 145.87,-25.46"/>
</a>
</g>
</g>
</g>
</svg>
