<?xml version="1.0" encoding="UTF-8" standalone="no"?>
<!DOCTYPE svg PUBLIC "-//W3C//DTD SVG 1.1//EN"
 "http://www.w3.org/Graphics/SVG/1.1/DTD/svg11.dtd">
<!-- Generated by graphviz version 2.43.0 (0)
 -->
<!-- Title: perEpochPostProcessingAndOutputs Pages: 1 -->
<svg width="309pt" height="64pt"
 viewBox="0.00 0.00 309.00 64.00" xmlns="http://www.w3.org/2000/svg" xmlns:xlink="http://www.w3.org/1999/xlink">
<g id="graph0" class="graph" transform="scale(1 1) rotate(0) translate(4 60)">
<title>perEpochPostProcessingAndOutputs</title>
<!-- Node1 -->
<g id="Node000001" class="node">
<title>Node1</title>
<g id="a_Node000001"><a xlink:href="outputs_8cpp.html#abf277b1afcff7cb07fa2857b4a373100" target="_top" xlink:title=" ">
<path fill="#fff0f0" stroke="red" stroke-width="2" d="M291,-42.5C291,-42.5 157,-42.5 157,-42.5 152,-42.5 147,-37.5 147,-32.5 147,-32.5 147,-22.5 147,-22.5 147,-17.5 152,-12.5 157,-12.5 157,-12.5 291,-12.5 291,-12.5 296,-12.5 301,-17.5 301,-22.5 301,-22.5 301,-32.5 301,-32.5 301,-37.5 296,-42.5 291,-42.5"/>
<text text-anchor="start" x="155" y="-30.5" font-family="Helvetica,sans-Serif" font-size="10.00">perEpochPostProcessingAnd</text>
<text text-anchor="middle" x="224" y="-19.5" font-family="Helvetica,sans-Serif" font-size="10.00">Outputs</text>
</a>
</g>
</g>
<!-- Node2 -->
<g id="Node000002" class="node">
<title>Node2</title>
<g id="a_Node000002"><a xlink:href="main_8cpp.html#a479f892b35943104163405de9a93be14" target="_top" xlink:title=" ">
<path fill="#fff0f0" stroke="red" d="M104.67,-56C104.67,-56 6.33,-56 6.33,-56 3.17,-56 0,-52.83 0,-49.67 0,-49.67 0,-43.33 0,-43.33 0,-40.17 3.17,-37 6.33,-37 6.33,-37 104.67,-37 104.67,-37 107.83,-37 111,-40.17 111,-43.33 111,-43.33 111,-49.67 111,-49.67 111,-52.83 107.83,-56 104.67,-56"/>
<text text-anchor="middle" x="55.5" y="-44" font-family="Helvetica,sans-Serif" font-size="10.00">mainOncePerEpoch</text>
</a>
</g>
</g>
<!-- Node1&#45;&gt;Node2 -->
<g id="edge1_Node000001_Node000002" class="edge">
<title>Node1&#45;&gt;Node2</title>
<g id="a_edge1_Node000001_Node000002"><a xlink:title=" ">
<path fill="none" stroke="#63b8ff" d="M136.45,-37.38C127.83,-38.36 119.25,-39.34 111.1,-40.27"/>
<polygon fill="#63b8ff" stroke="#63b8ff" points="137.03,-40.83 146.57,-36.22 136.24,-33.88 137.03,-40.83"/>
</a>
</g>
</g>
<!-- Node4 -->
<g id="Node000004" class="node">
<title>Node4</title>
<g id="a_Node000004"><a xlink:href="rtsSmoothing_8cpp.html#af82d06646904f0d6b4ede3c573dead48" target="_top" xlink:title="Output filter states in chronological order from a reversed binary trace file.">
<path fill="#fff0f0" stroke="red" d="M80.17,-19C80.17,-19 30.83,-19 30.83,-19 27.67,-19 24.5,-15.83 24.5,-12.67 24.5,-12.67 24.5,-6.33 24.5,-6.33 24.5,-3.17 27.67,0 30.83,0 30.83,0 80.17,0 80.17,0 83.33,0 86.5,-3.17 86.5,-6.33 86.5,-6.33 86.5,-12.67 86.5,-12.67 86.5,-15.83 83.33,-19 80.17,-19"/>
<text text-anchor="middle" x="55.5" y="-7" font-family="Helvetica,sans-Serif" font-size="10.00">rtsOutput</text>
</a>
</g>
</g>
<!-- Node1&#45;&gt;Node4 -->
<g id="edge2_Node000001_Node000004" class="edge">
<title>Node1&#45;&gt;Node4</title>
<g id="a_edge2_Node000001_Node000004"><a xlink:title=" ">
<path fill="none" stroke="#63b8ff" d="M136.61,-18.16C118.68,-16.22 100.94,-14.3 86.74,-12.77"/>
<polygon fill="#63b8ff" stroke="#63b8ff" points="136.25,-21.64 146.57,-19.24 137.01,-14.68 136.25,-21.64"/>
</a>
</g>
</g>
</g>
</svg>
