<?xml version="1.0" encoding="UTF-8" standalone="no"?>
<!DOCTYPE svg PUBLIC "-//W3C//DTD SVG 1.1//EN"
 "http://www.w3.org/Graphics/SVG/1.1/DTD/svg11.dtd">
<!-- Generated by graphviz version 2.43.0 (0)
 -->
<!-- Title: phasePseudoObs Pages: 1 -->
<svg width="302pt" height="119pt"
 viewBox="0.00 0.00 302.00 119.00" xmlns="http://www.w3.org/2000/svg" xmlns:xlink="http://www.w3.org/1999/xlink">
<g id="graph0" class="graph" transform="scale(1 1) rotate(0) translate(4 115)">
<title>phasePseudoObs</title>
<!-- Node1 -->
<g id="Node000001" class="node">
<title>Node1</title>
<g id="a_Node000001"><a xlink:href="ppp__pseudoobs_8cpp.html#aebf2bf386a3911becb26a3bbeb0520ff" target="_top" xlink:title="Add pseudo&#45;observations to set one satellite&#39;s phase biases variances to zero.">
<path fill="#fff0f0" stroke="red" stroke-width="2" d="M93.67,-56C93.67,-56 6.33,-56 6.33,-56 3.17,-56 0,-52.83 0,-49.67 0,-49.67 0,-43.33 0,-43.33 0,-40.17 3.17,-37 6.33,-37 6.33,-37 93.67,-37 93.67,-37 96.83,-37 100,-40.17 100,-43.33 100,-43.33 100,-49.67 100,-49.67 100,-52.83 96.83,-56 93.67,-56"/>
<text text-anchor="middle" x="50" y="-44" font-family="Helvetica,sans-Serif" font-size="10.00">phasePseudoObs</text>
</a>
</g>
</g>
<!-- Node2 -->
<g id="Node000002" class="node">
<title>Node2</title>
<g id="a_Node000002"><a xlink:href="structKFState.html#aeca6e3874ad0c94607152d244016582f" target="_top" xlink:title="Returns the value and variance of a state within the kalman filter object.">
<path fill="#fff0f0" stroke="red" d="M266.67,-93C266.67,-93 163.33,-93 163.33,-93 160.17,-93 157,-89.83 157,-86.67 157,-86.67 157,-80.33 157,-80.33 157,-77.17 160.17,-74 163.33,-74 163.33,-74 266.67,-74 266.67,-74 269.83,-74 273,-77.17 273,-80.33 273,-80.33 273,-86.67 273,-86.67 273,-89.83 269.83,-93 266.67,-93"/>
<text text-anchor="middle" x="215" y="-81" font-family="Helvetica,sans-Serif" font-size="10.00">KFState::getKFValue</text>
</a>
</g>
</g>
<!-- Node1&#45;&gt;Node2 -->
<g id="edge1_Node000001_Node000002" class="edge">
<title>Node1&#45;&gt;Node2</title>
<g id="a_edge1_Node000001_Node000002"><a xlink:title=" ">
<path fill="none" stroke="#63b8ff" d="M92.98,-56.03C114,-60.8 139.65,-66.62 161.92,-71.68"/>
<polygon fill="#63b8ff" stroke="#63b8ff" points="161.36,-75.14 171.88,-73.94 162.91,-68.31 161.36,-75.14"/>
</a>
</g>
</g>
<!-- Node4 -->
<g id="Node000004" class="node">
<title>Node4</title>
<g id="a_Node000004"><a xlink:href="structKFMeasEntry.html#a358f854f4544c59fd129e46a1baf0e34" target="_top" xlink:title="Adds a design matrix entry for this measurement.">
<path fill="#fff0f0" stroke="red" d="M286.17,-56C286.17,-56 143.83,-56 143.83,-56 140.67,-56 137.5,-52.83 137.5,-49.67 137.5,-49.67 137.5,-43.33 137.5,-43.33 137.5,-40.17 140.67,-37 143.83,-37 143.83,-37 286.17,-37 286.17,-37 289.33,-37 292.5,-40.17 292.5,-43.33 292.5,-43.33 292.5,-49.67 292.5,-49.67 292.5,-52.83 289.33,-56 286.17,-56"/>
<text text-anchor="middle" x="215" y="-44" font-family="Helvetica,sans-Serif" font-size="10.00">KFMeasEntry::addDsgnEntry</text>
</a>
</g>
</g>
<!-- Node1&#45;&gt;Node4 -->
<g id="edge3_Node000001_Node000004" class="edge">
<title>Node1&#45;&gt;Node4</title>
<g id="a_edge3_Node000001_Node000004"><a xlink:title=" ">
<path fill="none" stroke="#63b8ff" d="M100.35,-46.5C108.95,-46.5 118.12,-46.5 127.38,-46.5"/>
<polygon fill="#63b8ff" stroke="#63b8ff" points="127.44,-50 137.44,-46.5 127.44,-43 127.44,-50"/>
</a>
</g>
</g>
<!-- Node5 -->
<g id="Node000005" class="node">
<title>Node5</title>
<g id="a_Node000005"><a xlink:href="structKFMeasEntry.html#a7b34625115c46a7943e1ac8ffb7478e9" target="_top" xlink:title="Adds a noise element for this measurement.">
<path fill="#fff0f0" stroke="red" d="M287.67,-19C287.67,-19 142.33,-19 142.33,-19 139.17,-19 136,-15.83 136,-12.67 136,-12.67 136,-6.33 136,-6.33 136,-3.17 139.17,0 142.33,0 142.33,0 287.67,0 287.67,0 290.83,0 294,-3.17 294,-6.33 294,-6.33 294,-12.67 294,-12.67 294,-15.83 290.83,-19 287.67,-19"/>
<text text-anchor="middle" x="215" y="-7" font-family="Helvetica,sans-Serif" font-size="10.00">KFMeasEntry::addNoiseEntry</text>
</a>
</g>
</g>
<!-- Node1&#45;&gt;Node5 -->
<g id="edge4_Node000001_Node000005" class="edge">
<title>Node1&#45;&gt;Node5</title>
<g id="a_edge4_Node000001_Node000005"><a xlink:title=" ">
<path fill="none" stroke="#63b8ff" d="M92.98,-36.97C114,-32.2 139.65,-26.38 161.92,-21.32"/>
<polygon fill="#63b8ff" stroke="#63b8ff" points="162.91,-24.69 171.88,-19.06 161.36,-17.86 162.91,-24.69"/>
</a>
</g>
</g>
<!-- Node2&#45;&gt;Node2 -->
<g id="edge2_Node000002_Node000002" class="edge">
<title>Node2&#45;&gt;Node2</title>
<g id="a_edge2_Node000002_Node000002"><a xlink:title=" ">
<path fill="none" stroke="#63b8ff" d="M189.72,-93.08C177.43,-101.73 185.85,-111 215,-111 234.13,-111 244.33,-107.01 245.61,-101.82"/>
<polygon fill="#63b8ff" stroke="#63b8ff" points="248.48,-99.79 240.28,-93.08 242.5,-103.44 248.48,-99.79"/>
</a>
</g>
</g>
</g>
</svg>
