<?xml version="1.0" encoding="UTF-8" standalone="no"?>
<!DOCTYPE svg PUBLIC "-//W3C//DTD SVG 1.1//EN"
 "http://www.w3.org/Graphics/SVG/1.1/DTD/svg11.dtd">
<!-- Generated by graphviz version 2.43.0 (0)
 -->
<!-- Title: incrementSatelliteErrors Pages: 1 -->
<svg width="307pt" height="27pt"
 viewBox="0.00 0.00 307.00 27.00" xmlns="http://www.w3.org/2000/svg" xmlns:xlink="http://www.w3.org/1999/xlink">
<g id="graph0" class="graph" transform="scale(1 1) rotate(0) translate(4 23)">
<title>incrementSatelliteErrors</title>
<!-- Node1 -->
<g id="Node000001" class="node">
<title>Node1</title>
<g id="a_Node000001"><a xlink:href="ppp__callbacks_8cpp.html#afe7a5d51db4ed572a47f6754a4deb74c" target="_top" xlink:title="Count all errors on satellite.">
<path fill="#fff0f0" stroke="red" stroke-width="2" d="M128.67,-19C128.67,-19 6.33,-19 6.33,-19 3.17,-19 0,-15.83 0,-12.67 0,-12.67 0,-6.33 0,-6.33 0,-3.17 3.17,0 6.33,0 6.33,0 128.67,0 128.67,0 131.83,0 135,-3.17 135,-6.33 135,-6.33 135,-12.67 135,-12.67 135,-15.83 131.83,-19 128.67,-19"/>
<text text-anchor="middle" x="67.5" y="-7" font-family="Helvetica,sans-Serif" font-size="10.00">incrementSatelliteErrors</text>
</a>
</g>
</g>
<!-- Node2 -->
<g id="Node000002" class="node">
<title>Node2</title>
<g id="a_Node000002"><a xlink:href="ppp__callbacks_8cpp.html#ab625ed0e2e30e2ebd04a3d5947093776" target="_top" xlink:title="Immediately executed reaction to orbital state errors.">
<path fill="#fff0f0" stroke="red" d="M292.67,-19C292.67,-19 177.33,-19 177.33,-19 174.17,-19 171,-15.83 171,-12.67 171,-12.67 171,-6.33 171,-6.33 171,-3.17 174.17,0 177.33,0 177.33,0 292.67,0 292.67,0 295.83,0 299,-3.17 299,-6.33 299,-6.33 299,-12.67 299,-12.67 299,-15.83 295.83,-19 292.67,-19"/>
<text text-anchor="middle" x="235" y="-7" font-family="Helvetica,sans-Serif" font-size="10.00">satelliteGlitchReaction</text>
</a>
</g>
</g>
<!-- Node1&#45;&gt;Node2 -->
<g id="edge1_Node000001_Node000002" class="edge">
<title>Node1&#45;&gt;Node2</title>
<g id="a_edge1_Node000001_Node000002"><a xlink:title=" ">
<path fill="none" stroke="#63b8ff" d="M135.34,-9.5C143.69,-9.5 152.27,-9.5 160.72,-9.5"/>
<polygon fill="#63b8ff" stroke="#63b8ff" points="160.93,-13 170.93,-9.5 160.93,-6 160.93,-13"/>
</a>
</g>
</g>
</g>
</svg>
