<?xml version="1.0" encoding="UTF-8" standalone="no"?>
<!DOCTYPE svg PUBLIC "-//W3C//DTD SVG 1.1//EN"
 "http://www.w3.org/Graphics/SVG/1.1/DTD/svg11.dtd">
<!-- Generated by graphviz version 2.43.0 (0)
 -->
<!-- Title: deweightMeas Pages: 1 -->
<svg width="232pt" height="27pt"
 viewBox="0.00 0.00 232.00 27.00" xmlns="http://www.w3.org/2000/svg" xmlns:xlink="http://www.w3.org/1999/xlink">
<g id="graph0" class="graph" transform="scale(1 1) rotate(0) translate(4 23)">
<title>deweightMeas</title>
<!-- Node1 -->
<g id="Node000001" class="node">
<title>Node1</title>
<g id="a_Node000001"><a xlink:href="ppp__callbacks_8cpp.html#ace5050e41423910c1fae826aa052887d" target="_top" xlink:title="Deweight worst measurement.">
<path fill="#fff0f0" stroke="red" stroke-width="2" d="M81.67,-19C81.67,-19 6.33,-19 6.33,-19 3.17,-19 0,-15.83 0,-12.67 0,-12.67 0,-6.33 0,-6.33 0,-3.17 3.17,0 6.33,0 6.33,0 81.67,0 81.67,0 84.83,0 88,-3.17 88,-6.33 88,-6.33 88,-12.67 88,-12.67 88,-15.83 84.83,-19 81.67,-19"/>
<text text-anchor="middle" x="44" y="-7" font-family="Helvetica,sans-Serif" font-size="10.00">deweightMeas</text>
</a>
</g>
</g>
<!-- Node2 -->
<g id="Node000002" class="node">
<title>Node2</title>
<g id="a_Node000002"><a xlink:href="ppp_8cpp.html#a96cf81dda8cab8a4eff5984e5092ffd3" target="_top" xlink:title=" ">
<path fill="#fff0f0" stroke="red" d="M217.67,-19C217.67,-19 130.33,-19 130.33,-19 127.17,-19 124,-15.83 124,-12.67 124,-12.67 124,-6.33 124,-6.33 124,-3.17 127.17,0 130.33,0 130.33,0 217.67,0 217.67,0 220.83,0 224,-3.17 224,-6.33 224,-6.33 224,-12.67 224,-12.67 224,-15.83 220.83,-19 217.67,-19"/>
<text text-anchor="middle" x="174" y="-7" font-family="Helvetica,sans-Serif" font-size="10.00">addRejectDetails</text>
</a>
</g>
</g>
<!-- Node1&#45;&gt;Node2 -->
<g id="edge1_Node000001_Node000002" class="edge">
<title>Node1&#45;&gt;Node2</title>
<g id="a_edge1_Node000001_Node000002"><a xlink:title=" ">
<path fill="none" stroke="#63b8ff" d="M88.33,-9.5C96.57,-9.5 105.32,-9.5 113.95,-9.5"/>
<polygon fill="#63b8ff" stroke="#63b8ff" points="113.98,-13 123.98,-9.5 113.98,-6 113.98,-13"/>
</a>
</g>
</g>
</g>
</svg>
