<?xml version="1.0" encoding="UTF-8" standalone="no"?>
<!DOCTYPE svg PUBLIC "-//W3C//DTD SVG 1.1//EN"
 "http://www.w3.org/Graphics/SVG/1.1/DTD/svg11.dtd">
<!-- Generated by graphviz version 2.43.0 (0)
 -->
<!-- Title: ambgPseudoObs Pages: 1 -->
<svg width="300pt" height="156pt"
 viewBox="0.00 0.00 300.00 156.00" xmlns="http://www.w3.org/2000/svg" xmlns:xlink="http://www.w3.org/1999/xlink">
<g id="graph0" class="graph" transform="scale(1 1) rotate(0) translate(4 152)">
<title>ambgPseudoObs</title>
<!-- Node1 -->
<g id="Node000001" class="node">
<title>Node1</title>
<g id="a_Node000001"><a xlink:href="ppp__pseudoobs_8cpp.html#a02995a7f24f39419730eea3b664553cf" target="_top" xlink:title=" ">
<path fill="#fff0f0" stroke="red" stroke-width="2" d="M91.67,-93C91.67,-93 6.33,-93 6.33,-93 3.17,-93 0,-89.83 0,-86.67 0,-86.67 0,-80.33 0,-80.33 0,-77.17 3.17,-74 6.33,-74 6.33,-74 91.67,-74 91.67,-74 94.83,-74 98,-77.17 98,-80.33 98,-80.33 98,-86.67 98,-86.67 98,-89.83 94.83,-93 91.67,-93"/>
<text text-anchor="middle" x="49" y="-81" font-family="Helvetica,sans-Serif" font-size="10.00">ambgPseudoObs</text>
</a>
</g>
</g>
<!-- Node2 -->
<g id="Node000002" class="node">
<title>Node2</title>
<g id="a_Node000002"><a xlink:href="structKFState.html#aeca6e3874ad0c94607152d244016582f" target="_top" xlink:title="Returns the value and variance of a state within the kalman filter object.">
<path fill="#fff0f0" stroke="red" d="M264.67,-130C264.67,-130 161.33,-130 161.33,-130 158.17,-130 155,-126.83 155,-123.67 155,-123.67 155,-117.33 155,-117.33 155,-114.17 158.17,-111 161.33,-111 161.33,-111 264.67,-111 264.67,-111 267.83,-111 271,-114.17 271,-117.33 271,-117.33 271,-123.67 271,-123.67 271,-126.83 267.83,-130 264.67,-130"/>
<text text-anchor="middle" x="213" y="-118" font-family="Helvetica,sans-Serif" font-size="10.00">KFState::getKFValue</text>
</a>
</g>
</g>
<!-- Node1&#45;&gt;Node2 -->
<g id="edge1_Node000001_Node000002" class="edge">
<title>Node1&#45;&gt;Node2</title>
<g id="a_edge1_Node000001_Node000002"><a xlink:title=" ">
<path fill="none" stroke="#63b8ff" d="M98.17,-88.27C124.98,-93.5 157.57,-101.2 180.99,-107.97"/>
<polygon fill="#63b8ff" stroke="#63b8ff" points="180.16,-111.38 190.74,-110.91 182.17,-104.67 180.16,-111.38"/>
</a>
</g>
</g>
<!-- Node1&#45;&gt;Node2 -->
<g id="edge4_Node000001_Node000002" class="edge">
<title>Node1&#45;&gt;Node2</title>
<g id="a_edge4_Node000001_Node000002"><a xlink:title=" ">
<path fill="none" stroke="#63b8ff" d="M71.18,-93.07C89.96,-98.99 118.45,-106.14 144.89,-111.83"/>
<polygon fill="#63b8ff" stroke="#63b8ff" points="144.4,-115.31 154.9,-113.94 145.84,-108.46 144.4,-115.31"/>
</a>
</g>
</g>
<!-- Node4 -->
<g id="Node000004" class="node">
<title>Node4</title>
<g id="a_Node000004"><a xlink:href="structKFMeasEntry.html#a358f854f4544c59fd129e46a1baf0e34" target="_top" xlink:title="Adds a design matrix entry for this measurement.">
<path fill="#fff0f0" stroke="red" d="M284.17,-93C284.17,-93 141.83,-93 141.83,-93 138.67,-93 135.5,-89.83 135.5,-86.67 135.5,-86.67 135.5,-80.33 135.5,-80.33 135.5,-77.17 138.67,-74 141.83,-74 141.83,-74 284.17,-74 284.17,-74 287.33,-74 290.5,-77.17 290.5,-80.33 290.5,-80.33 290.5,-86.67 290.5,-86.67 290.5,-89.83 287.33,-93 284.17,-93"/>
<text text-anchor="middle" x="213" y="-81" font-family="Helvetica,sans-Serif" font-size="10.00">KFMeasEntry::addDsgnEntry</text>
</a>
</g>
</g>
<!-- Node1&#45;&gt;Node4 -->
<g id="edge3_Node000001_Node000004" class="edge">
<title>Node1&#45;&gt;Node4</title>
<g id="a_edge3_Node000001_Node000004"><a xlink:title=" ">
<path fill="none" stroke="#63b8ff" d="M98.17,-83.5C106.8,-83.5 116.03,-83.5 125.35,-83.5"/>
<polygon fill="#63b8ff" stroke="#63b8ff" points="125.49,-87 135.49,-83.5 125.49,-80 125.49,-87"/>
</a>
</g>
</g>
<!-- Node5 -->
<g id="Node000005" class="node">
<title>Node5</title>
<g id="a_Node000005"><a xlink:href="structKFMeasEntry.html#ac15ff59e0acb09be8ed75ccee2411dd2" target="_top" xlink:title="Adds the innovation value for this measurement.">
<path fill="#fff0f0" stroke="red" d="M270.67,-56C270.67,-56 155.33,-56 155.33,-56 152.17,-56 149,-52.83 149,-49.67 149,-49.67 149,-43.33 149,-43.33 149,-40.17 152.17,-37 155.33,-37 155.33,-37 270.67,-37 270.67,-37 273.83,-37 277,-40.17 277,-43.33 277,-43.33 277,-49.67 277,-49.67 277,-52.83 273.83,-56 270.67,-56"/>
<text text-anchor="middle" x="213" y="-44" font-family="Helvetica,sans-Serif" font-size="10.00">KFMeasEntry::setInnov</text>
</a>
</g>
</g>
<!-- Node1&#45;&gt;Node5 -->
<g id="edge5_Node000001_Node000005" class="edge">
<title>Node1&#45;&gt;Node5</title>
<g id="a_edge5_Node000001_Node000005"><a xlink:title=" ">
<path fill="none" stroke="#63b8ff" d="M91.72,-73.97C112.61,-69.2 138.11,-63.38 160.24,-58.32"/>
<polygon fill="#63b8ff" stroke="#63b8ff" points="161.17,-61.7 170.14,-56.06 159.61,-54.87 161.17,-61.7"/>
</a>
</g>
</g>
<!-- Node6 -->
<g id="Node000006" class="node">
<title>Node6</title>
<g id="a_Node000006"><a xlink:href="structKFMeasEntry.html#a7b34625115c46a7943e1ac8ffb7478e9" target="_top" xlink:title="Adds a noise element for this measurement.">
<path fill="#fff0f0" stroke="red" d="M285.67,-19C285.67,-19 140.33,-19 140.33,-19 137.17,-19 134,-15.83 134,-12.67 134,-12.67 134,-6.33 134,-6.33 134,-3.17 137.17,0 140.33,0 140.33,0 285.67,0 285.67,0 288.83,0 292,-3.17 292,-6.33 292,-6.33 292,-12.67 292,-12.67 292,-15.83 288.83,-19 285.67,-19"/>
<text text-anchor="middle" x="213" y="-7" font-family="Helvetica,sans-Serif" font-size="10.00">KFMeasEntry::addNoiseEntry</text>
</a>
</g>
</g>
<!-- Node1&#45;&gt;Node6 -->
<g id="edge6_Node000001_Node000006" class="edge">
<title>Node1&#45;&gt;Node6</title>
<g id="a_edge6_Node000001_Node000006"><a xlink:title=" ">
<path fill="none" stroke="#63b8ff" d="M61.77,-73.9C77.37,-61.64 106.18,-40.57 134,-28.5 139.71,-26.02 145.79,-23.83 151.95,-21.91"/>
<polygon fill="#63b8ff" stroke="#63b8ff" points="153.03,-25.24 161.65,-19.09 151.07,-18.52 153.03,-25.24"/>
</a>
</g>
</g>
<!-- Node2&#45;&gt;Node2 -->
<g id="edge2_Node000002_Node000002" class="edge">
<title>Node2&#45;&gt;Node2</title>
<g id="a_edge2_Node000002_Node000002"><a xlink:title=" ">
<path fill="none" stroke="#63b8ff" d="M188.03,-130.08C175.88,-138.73 184.21,-148 213,-148 231.9,-148 241.98,-144.01 243.24,-138.82"/>
<polygon fill="#63b8ff" stroke="#63b8ff" points="246.13,-136.84 237.97,-130.08 240.14,-140.45 246.13,-136.84"/>
</a>
</g>
</g>
</g>
</svg>
