<?xml version="1.0" encoding="UTF-8" standalone="no"?>
<!DOCTYPE svg PUBLIC "-//W3C//DTD SVG 1.1//EN"
 "http://www.w3.org/Graphics/SVG/1.1/DTD/svg11.dtd">
<!-- Generated by graphviz version 2.43.0 (0)
 -->
<!-- Title: satelliteGlitchReaction Pages: 1 -->
<svg width="384pt" height="103pt"
 viewBox="0.00 0.00 384.00 103.00" xmlns="http://www.w3.org/2000/svg" xmlns:xlink="http://www.w3.org/1999/xlink">
<g id="graph0" class="graph" transform="scale(1 1) rotate(0) translate(4 99)">
<title>satelliteGlitchReaction</title>
<!-- Node1 -->
<g id="Node000001" class="node">
<title>Node1</title>
<g id="a_Node000001"><a xlink:href="ppp__callbacks_8cpp.html#ab625ed0e2e30e2ebd04a3d5947093776" target="_top" xlink:title="Immediately executed reaction to orbital state errors.">
<path fill="#fff0f0" stroke="red" stroke-width="2" d="M369.67,-57C369.67,-57 254.33,-57 254.33,-57 251.17,-57 248,-53.83 248,-50.67 248,-50.67 248,-44.33 248,-44.33 248,-41.17 251.17,-38 254.33,-38 254.33,-38 369.67,-38 369.67,-38 372.83,-38 376,-41.17 376,-44.33 376,-44.33 376,-50.67 376,-50.67 376,-53.83 372.83,-57 369.67,-57"/>
<text text-anchor="middle" x="312" y="-45" font-family="Helvetica,sans-Serif" font-size="10.00">satelliteGlitchReaction</text>
</a>
</g>
</g>
<!-- Node2 -->
<g id="Node000002" class="node">
<title>Node2</title>
<g id="a_Node000002"><a xlink:href="ppp__callbacks_8cpp.html#afe7a5d51db4ed572a47f6754a4deb74c" target="_top" xlink:title="Count all errors on satellite.">
<path fill="#fff0f0" stroke="red" d="M205.67,-95C205.67,-95 83.33,-95 83.33,-95 80.17,-95 77,-91.83 77,-88.67 77,-88.67 77,-82.33 77,-82.33 77,-79.17 80.17,-76 83.33,-76 83.33,-76 205.67,-76 205.67,-76 208.83,-76 212,-79.17 212,-82.33 212,-82.33 212,-88.67 212,-88.67 212,-91.83 208.83,-95 205.67,-95"/>
<text text-anchor="middle" x="144.5" y="-83" font-family="Helvetica,sans-Serif" font-size="10.00">incrementSatelliteErrors</text>
</a>
</g>
</g>
<!-- Node1&#45;&gt;Node2 -->
<g id="edge1_Node000001_Node000002" class="edge">
<title>Node1&#45;&gt;Node2</title>
<g id="a_edge1_Node000001_Node000002"><a xlink:title=" ">
<path fill="none" stroke="#63b8ff" d="M259.19,-59.4C235.93,-64.74 208.85,-70.95 186.96,-75.98"/>
<polygon fill="#63b8ff" stroke="#63b8ff" points="260.27,-62.74 269.24,-57.09 258.71,-55.92 260.27,-62.74"/>
</a>
</g>
</g>
<!-- Node3 -->
<g id="Node000003" class="node">
<title>Node3</title>
<g id="a_Node000003"><a xlink:href="main_8cpp.html#a3c04138a5bfe5d72780bb7e82a18e627" target="_top" xlink:title=" ">
<path fill="#fff0f0" stroke="red" d="M34.67,-57C34.67,-57 6.33,-57 6.33,-57 3.17,-57 0,-53.83 0,-50.67 0,-50.67 0,-44.33 0,-44.33 0,-41.17 3.17,-38 6.33,-38 6.33,-38 34.67,-38 34.67,-38 37.83,-38 41,-41.17 41,-44.33 41,-44.33 41,-50.67 41,-50.67 41,-53.83 37.83,-57 34.67,-57"/>
<text text-anchor="middle" x="20.5" y="-45" font-family="Helvetica,sans-Serif" font-size="10.00">main</text>
</a>
</g>
</g>
<!-- Node1&#45;&gt;Node3 -->
<g id="edge3_Node000001_Node000003" class="edge">
<title>Node1&#45;&gt;Node3</title>
<g id="a_edge3_Node000001_Node000003"><a xlink:title=" ">
<path fill="none" stroke="#63b8ff" d="M237.57,-47.5C172.2,-47.5 80.96,-47.5 41.26,-47.5"/>
<polygon fill="#63b8ff" stroke="#63b8ff" points="237.83,-51 247.83,-47.5 237.83,-44 237.83,-51"/>
</a>
</g>
</g>
<!-- Node4 -->
<g id="Node000004" class="node">
<title>Node4</title>
<g id="a_Node000004"><a xlink:href="ppp__callbacks_8cpp.html#a5b0948b00cfd86b5b8ea0adaa6d40daf" target="_top" xlink:title="Call state rejection functions when a measurement is a pseudo observation.">
<path fill="#fff0f0" stroke="red" d="M187.17,-19C187.17,-19 101.83,-19 101.83,-19 98.67,-19 95.5,-15.83 95.5,-12.67 95.5,-12.67 95.5,-6.33 95.5,-6.33 95.5,-3.17 98.67,0 101.83,0 101.83,0 187.17,0 187.17,0 190.33,0 193.5,-3.17 193.5,-6.33 193.5,-6.33 193.5,-12.67 193.5,-12.67 193.5,-15.83 190.33,-19 187.17,-19"/>
<text text-anchor="middle" x="144.5" y="-7" font-family="Helvetica,sans-Serif" font-size="10.00">pseudoMeasTest</text>
</a>
</g>
</g>
<!-- Node1&#45;&gt;Node4 -->
<g id="edge4_Node000001_Node000004" class="edge">
<title>Node1&#45;&gt;Node4</title>
<g id="a_edge4_Node000001_Node000004"><a xlink:title=" ">
<path fill="none" stroke="#63b8ff" d="M259.19,-35.6C235.93,-30.26 208.85,-24.05 186.96,-19.02"/>
<polygon fill="#63b8ff" stroke="#63b8ff" points="258.71,-39.08 269.24,-37.91 260.27,-32.26 258.71,-39.08"/>
</a>
</g>
</g>
<!-- Node2&#45;&gt;Node3 -->
<g id="edge2_Node000002_Node000003" class="edge">
<title>Node2&#45;&gt;Node3</title>
<g id="a_edge2_Node000002_Node000003"><a xlink:title=" ">
<path fill="none" stroke="#63b8ff" d="M103.14,-72.93C82.33,-66.45 57.88,-58.83 41.19,-53.63"/>
<polygon fill="#63b8ff" stroke="#63b8ff" points="102.13,-76.28 112.71,-75.91 104.21,-69.6 102.13,-76.28"/>
</a>
</g>
</g>
<!-- Node4&#45;&gt;Node3 -->
<g id="edge5_Node000004_Node000003" class="edge">
<title>Node4&#45;&gt;Node3</title>
<g id="a_edge5_Node000004_Node000003"><a xlink:title=" ">
<path fill="none" stroke="#63b8ff" d="M103.14,-22.07C82.33,-28.55 57.88,-36.17 41.19,-41.37"/>
<polygon fill="#63b8ff" stroke="#63b8ff" points="104.21,-25.4 112.71,-19.09 102.13,-18.72 104.21,-25.4"/>
</a>
</g>
</g>
</g>
</svg>
