<?xml version="1.0" encoding="UTF-8" standalone="no"?>
<!DOCTYPE svg PUBLIC "-//W3C//DTD SVG 1.1//EN"
 "http://www.w3.org/Graphics/SVG/1.1/DTD/svg11.dtd">
<!-- Generated by graphviz version 2.43.0 (0)
 -->
<!-- Title: postFilterChecks Pages: 1 -->
<svg width="270pt" height="64pt"
 viewBox="0.00 0.00 270.00 64.00" xmlns="http://www.w3.org/2000/svg" xmlns:xlink="http://www.w3.org/1999/xlink">
<g id="graph0" class="graph" transform="scale(1 1) rotate(0) translate(4 60)">
<title>postFilterChecks</title>
<!-- Node1 -->
<g id="Node000001" class="node">
<title>Node1</title>
<g id="a_Node000001"><a xlink:href="ppp_8cpp.html#a014adee2aadcb5dab410a23c4a9d5aa4" target="_top" xlink:title=" ">
<path fill="#fff0f0" stroke="red" stroke-width="2" d="M91.67,-37C91.67,-37 6.33,-37 6.33,-37 3.17,-37 0,-33.83 0,-30.67 0,-30.67 0,-24.33 0,-24.33 0,-21.17 3.17,-18 6.33,-18 6.33,-18 91.67,-18 91.67,-18 94.83,-18 98,-21.17 98,-24.33 98,-24.33 98,-30.67 98,-30.67 98,-33.83 94.83,-37 91.67,-37"/>
<text text-anchor="middle" x="49" y="-25" font-family="Helvetica,sans-Serif" font-size="10.00">postFilterChecks</text>
</a>
</g>
</g>
<!-- Node2 -->
<g id="Node000002" class="node">
<title>Node2</title>
<g id="a_Node000002"><a xlink:href="ppp__callbacks_8cpp.html#a5d5d32dcf70420760fe15d9ef290636f" target="_top" xlink:title=" ">
<path fill="#fff0f0" stroke="red" d="M253.67,-56C253.67,-56 142.33,-56 142.33,-56 139.17,-56 136,-52.83 136,-49.67 136,-49.67 136,-43.33 136,-43.33 136,-40.17 139.17,-37 142.33,-37 142.33,-37 253.67,-37 253.67,-37 256.83,-37 260,-40.17 260,-43.33 260,-43.33 260,-49.67 260,-49.67 260,-52.83 256.83,-56 253.67,-56"/>
<text text-anchor="middle" x="198" y="-44" font-family="Helvetica,sans-Serif" font-size="10.00">resetPhaseSignalError</text>
</a>
</g>
</g>
<!-- Node1&#45;&gt;Node2 -->
<g id="edge1_Node000001_Node000002" class="edge">
<title>Node1&#45;&gt;Node2</title>
<g id="a_edge1_Node000001_Node000002"><a xlink:title=" ">
<path fill="none" stroke="#63b8ff" d="M98.13,-33.72C106.99,-34.87 116.4,-36.08 125.77,-37.29"/>
<polygon fill="#63b8ff" stroke="#63b8ff" points="125.52,-40.79 135.88,-38.6 126.41,-33.85 125.52,-40.79"/>
</a>
</g>
</g>
<!-- Node3 -->
<g id="Node000003" class="node">
<title>Node3</title>
<g id="a_Node000003"><a xlink:href="ppp__callbacks_8cpp.html#aead76144e3da6ea3bb0d77d1b1bf0d69" target="_top" xlink:title=" ">
<path fill="#fff0f0" stroke="red" d="M255.67,-19C255.67,-19 140.33,-19 140.33,-19 137.17,-19 134,-15.83 134,-12.67 134,-12.67 134,-6.33 134,-6.33 134,-3.17 137.17,0 140.33,0 140.33,0 255.67,0 255.67,0 258.83,0 262,-3.17 262,-6.33 262,-6.33 262,-12.67 262,-12.67 262,-15.83 258.83,-19 255.67,-19"/>
<text text-anchor="middle" x="198" y="-7" font-family="Helvetica,sans-Serif" font-size="10.00">resetIonoSignalOutage</text>
</a>
</g>
</g>
<!-- Node1&#45;&gt;Node3 -->
<g id="edge2_Node000001_Node000003" class="edge">
<title>Node1&#45;&gt;Node3</title>
<g id="a_edge2_Node000001_Node000003"><a xlink:title=" ">
<path fill="none" stroke="#63b8ff" d="M98.13,-21.61C106.32,-20.6 114.98,-19.54 123.64,-18.48"/>
<polygon fill="#63b8ff" stroke="#63b8ff" points="124.28,-21.93 133.78,-17.24 123.43,-14.98 124.28,-21.93"/>
</a>
</g>
</g>
</g>
</svg>
