<?xml version="1.0" encoding="UTF-8" standalone="no"?>
<!DOCTYPE svg PUBLIC "-//W3C//DTD SVG 1.1//EN"
 "http://www.w3.org/Graphics/SVG/1.1/DTD/svg11.dtd">
<!-- Generated by graphviz version 2.43.0 (0)
 -->
<!-- Title: addRejectDetails Pages: 1 -->
<svg width="275pt" height="101pt"
 viewBox="0.00 0.00 275.00 101.00" xmlns="http://www.w3.org/2000/svg" xmlns:xlink="http://www.w3.org/1999/xlink">
<g id="graph0" class="graph" transform="scale(1 1) rotate(0) translate(4 97)">
<title>addRejectDetails</title>
<!-- Node1 -->
<g id="Node000001" class="node">
<title>Node1</title>
<g id="a_Node000001"><a xlink:href="ppp_8cpp.html#a96cf81dda8cab8a4eff5984e5092ffd3" target="_top" xlink:title=" ">
<path fill="#fff0f0" stroke="red" stroke-width="2" d="M260.67,-56C260.67,-56 173.33,-56 173.33,-56 170.17,-56 167,-52.83 167,-49.67 167,-49.67 167,-43.33 167,-43.33 167,-40.17 170.17,-37 173.33,-37 173.33,-37 260.67,-37 260.67,-37 263.83,-37 267,-40.17 267,-43.33 267,-43.33 267,-49.67 267,-49.67 267,-52.83 263.83,-56 260.67,-56"/>
<text text-anchor="middle" x="217" y="-44" font-family="Helvetica,sans-Serif" font-size="10.00">addRejectDetails</text>
</a>
</g>
</g>
<!-- Node2 -->
<g id="Node000002" class="node">
<title>Node2</title>
<g id="a_Node000002"><a xlink:href="ppp__callbacks_8cpp.html#ace5050e41423910c1fae826aa052887d" target="_top" xlink:title="Deweight worst measurement.">
<path fill="#fff0f0" stroke="red" d="M103.17,-93C103.17,-93 27.83,-93 27.83,-93 24.67,-93 21.5,-89.83 21.5,-86.67 21.5,-86.67 21.5,-80.33 21.5,-80.33 21.5,-77.17 24.67,-74 27.83,-74 27.83,-74 103.17,-74 103.17,-74 106.33,-74 109.5,-77.17 109.5,-80.33 109.5,-80.33 109.5,-86.67 109.5,-86.67 109.5,-89.83 106.33,-93 103.17,-93"/>
<text text-anchor="middle" x="65.5" y="-81" font-family="Helvetica,sans-Serif" font-size="10.00">deweightMeas</text>
</a>
</g>
</g>
<!-- Node1&#45;&gt;Node2 -->
<g id="edge1_Node000001_Node000002" class="edge">
<title>Node1&#45;&gt;Node2</title>
<g id="a_edge1_Node000001_Node000002"><a xlink:title=" ">
<path fill="none" stroke="#63b8ff" d="M167.54,-58.49C147.32,-63.5 124.17,-69.23 105.13,-73.94"/>
<polygon fill="#63b8ff" stroke="#63b8ff" points="168.63,-61.83 177.5,-56.03 166.95,-55.03 168.63,-61.83"/>
</a>
</g>
</g>
<!-- Node7 -->
<g id="Node000007" class="node">
<title>Node7</title>
<g id="a_Node000007"><a xlink:href="ppp__callbacks_8cpp.html#a4b6afed78d56e5e568d23c8946500020" target="_top" xlink:title="Deweight measurement and its relatives.">
<path fill="#fff0f0" stroke="red" d="M120.17,-56C120.17,-56 10.83,-56 10.83,-56 7.67,-56 4.5,-52.83 4.5,-49.67 4.5,-49.67 4.5,-43.33 4.5,-43.33 4.5,-40.17 7.67,-37 10.83,-37 10.83,-37 120.17,-37 120.17,-37 123.33,-37 126.5,-40.17 126.5,-43.33 126.5,-43.33 126.5,-49.67 126.5,-49.67 126.5,-52.83 123.33,-56 120.17,-56"/>
<text text-anchor="middle" x="65.5" y="-44" font-family="Helvetica,sans-Serif" font-size="10.00">deweightStationMeas</text>
</a>
</g>
</g>
<!-- Node1&#45;&gt;Node7 -->
<g id="edge2_Node000001_Node000007" class="edge">
<title>Node1&#45;&gt;Node7</title>
<g id="a_edge2_Node000001_Node000007"><a xlink:title=" ">
<path fill="none" stroke="#63b8ff" d="M156.57,-46.5C146.76,-46.5 136.58,-46.5 126.75,-46.5"/>
<polygon fill="#63b8ff" stroke="#63b8ff" points="156.63,-50 166.63,-46.5 156.63,-43 156.63,-50"/>
</a>
</g>
</g>
<!-- Node19 -->
<g id="Node000019" class="node">
<title>Node19</title>
<g id="a_Node000019"><a xlink:href="ppp_8cpp.html#a075655f5235940732703f2e6ca41421a" target="_top" xlink:title="Remove ambiguity states from filter when they deemed old or bad This effectively reinitialises them o...">
<path fill="#fff0f0" stroke="red" d="M124.67,-19C124.67,-19 6.33,-19 6.33,-19 3.17,-19 0,-15.83 0,-12.67 0,-12.67 0,-6.33 0,-6.33 0,-3.17 3.17,0 6.33,0 6.33,0 124.67,0 124.67,0 127.83,0 131,-3.17 131,-6.33 131,-6.33 131,-12.67 131,-12.67 131,-15.83 127.83,-19 124.67,-19"/>
<text text-anchor="middle" x="65.5" y="-7" font-family="Helvetica,sans-Serif" font-size="10.00">removeBadAmbiguities</text>
</a>
</g>
</g>
<!-- Node1&#45;&gt;Node19 -->
<g id="edge3_Node000001_Node000019" class="edge">
<title>Node1&#45;&gt;Node19</title>
<g id="a_edge3_Node000001_Node000019"><a xlink:title=" ">
<path fill="none" stroke="#63b8ff" d="M167.54,-34.51C147.32,-29.5 124.17,-23.77 105.13,-19.06"/>
<polygon fill="#63b8ff" stroke="#63b8ff" points="166.95,-37.97 177.5,-36.97 168.63,-31.17 166.95,-37.97"/>
</a>
</g>
</g>
</g>
</svg>
