<?xml version="1.0" encoding="UTF-8" standalone="no"?>
<!DOCTYPE svg PUBLIC "-//W3C//DTD SVG 1.1//EN"
 "http://www.w3.org/Graphics/SVG/1.1/DTD/svg11.dtd">
<!-- Generated by graphviz version 2.43.0 (0)
 -->
<!-- Title: addRejectDetails Pages: 1 -->
<svg width="242pt" height="64pt"
 viewBox="0.00 0.00 242.00 64.00" xmlns="http://www.w3.org/2000/svg" xmlns:xlink="http://www.w3.org/1999/xlink">
<g id="graph0" class="graph" transform="scale(1 1) rotate(0) translate(4 60)">
<title>addRejectDetails</title>
<!-- Node1 -->
<g id="Node000001" class="node">
<title>Node1</title>
<g id="a_Node000001"><a xlink:href="ppp_8cpp.html#a96cf81dda8cab8a4eff5984e5092ffd3" target="_top" xlink:title=" ">
<path fill="#fff0f0" stroke="red" stroke-width="2" d="M93.67,-37C93.67,-37 6.33,-37 6.33,-37 3.17,-37 0,-33.83 0,-30.67 0,-30.67 0,-24.33 0,-24.33 0,-21.17 3.17,-18 6.33,-18 6.33,-18 93.67,-18 93.67,-18 96.83,-18 100,-21.17 100,-24.33 100,-24.33 100,-30.67 100,-30.67 100,-33.83 96.83,-37 93.67,-37"/>
<text text-anchor="middle" x="50" y="-25" font-family="Helvetica,sans-Serif" font-size="10.00">addRejectDetails</text>
</a>
</g>
</g>
<!-- Node2 -->
<g id="Node000002" class="node">
<title>Node2</title>
<g id="a_Node000002"><a xlink:href="structGTime.html#a98fdbaaec5a132a7e694f28b4f1907cb" target="_top" xlink:title=" ">
<path fill="#fff0f0" stroke="red" d="M227.67,-56C227.67,-56 142.33,-56 142.33,-56 139.17,-56 136,-52.83 136,-49.67 136,-49.67 136,-43.33 136,-43.33 136,-40.17 139.17,-37 142.33,-37 142.33,-37 227.67,-37 227.67,-37 230.83,-37 234,-40.17 234,-43.33 234,-43.33 234,-49.67 234,-49.67 234,-52.83 230.83,-56 227.67,-56"/>
<text text-anchor="middle" x="185" y="-44" font-family="Helvetica,sans-Serif" font-size="10.00">GTime::to_string</text>
</a>
</g>
</g>
<!-- Node1&#45;&gt;Node2 -->
<g id="edge1_Node000001_Node000002" class="edge">
<title>Node1&#45;&gt;Node2</title>
<g id="a_edge1_Node000001_Node000002"><a xlink:title=" ">
<path fill="none" stroke="#63b8ff" d="M100.15,-34.52C108.55,-35.72 117.35,-36.98 125.96,-38.21"/>
<polygon fill="#63b8ff" stroke="#63b8ff" points="125.55,-41.69 135.94,-39.63 126.54,-34.76 125.55,-41.69"/>
</a>
</g>
</g>
<!-- Node3 -->
<g id="Node000003" class="node">
<title>Node3</title>
<g id="a_Node000003"><a xlink:href="structSatSys.html#aec6d07b90d1e8172b8b6a6966abef4fd" target="_top" xlink:title="Returns a std::string of this satellite&#39;s id.">
<path fill="#fff0f0" stroke="red" d="M211.17,-19C211.17,-19 158.83,-19 158.83,-19 155.67,-19 152.5,-15.83 152.5,-12.67 152.5,-12.67 152.5,-6.33 152.5,-6.33 152.5,-3.17 155.67,0 158.83,0 158.83,0 211.17,0 211.17,0 214.33,0 217.5,-3.17 217.5,-6.33 217.5,-6.33 217.5,-12.67 217.5,-12.67 217.5,-15.83 214.33,-19 211.17,-19"/>
<text text-anchor="middle" x="185" y="-7" font-family="Helvetica,sans-Serif" font-size="10.00">SatSys::id</text>
</a>
</g>
</g>
<!-- Node1&#45;&gt;Node3 -->
<g id="edge2_Node000001_Node000003" class="edge">
<title>Node1&#45;&gt;Node3</title>
<g id="a_edge2_Node000001_Node000003"><a xlink:title=" ">
<path fill="none" stroke="#63b8ff" d="M100.15,-20.85C113.93,-18.98 128.77,-16.97 142.09,-15.17"/>
<polygon fill="#63b8ff" stroke="#63b8ff" points="142.95,-18.59 152.39,-13.78 142.01,-11.65 142.95,-18.59"/>
</a>
</g>
</g>
</g>
</svg>
