<?xml version="1.0" encoding="UTF-8" standalone="no"?>
<!DOCTYPE svg PUBLIC "-//W3C//DTD SVG 1.1//EN"
 "http://www.w3.org/Graphics/SVG/1.1/DTD/svg11.dtd">
<!-- Generated by graphviz version 2.43.0 (0)
 -->
<!-- Title: deweightStationMeas Pages: 1 -->
<svg width="266pt" height="27pt"
 viewBox="0.00 0.00 266.00 27.00" xmlns="http://www.w3.org/2000/svg" xmlns:xlink="http://www.w3.org/1999/xlink">
<g id="graph0" class="graph" transform="scale(1 1) rotate(0) translate(4 23)">
<title>deweightStationMeas</title>
<!-- Node1 -->
<g id="Node000001" class="node">
<title>Node1</title>
<g id="a_Node000001"><a xlink:href="ppp__callbacks_8cpp.html#a4b6afed78d56e5e568d23c8946500020" target="_top" xlink:title="Deweight measurement and its relatives.">
<path fill="#fff0f0" stroke="red" stroke-width="2" d="M115.67,-19C115.67,-19 6.33,-19 6.33,-19 3.17,-19 0,-15.83 0,-12.67 0,-12.67 0,-6.33 0,-6.33 0,-3.17 3.17,0 6.33,0 6.33,0 115.67,0 115.67,0 118.83,0 122,-3.17 122,-6.33 122,-6.33 122,-12.67 122,-12.67 122,-15.83 118.83,-19 115.67,-19"/>
<text text-anchor="middle" x="61" y="-7" font-family="Helvetica,sans-Serif" font-size="10.00">deweightStationMeas</text>
</a>
</g>
</g>
<!-- Node2 -->
<g id="Node000002" class="node">
<title>Node2</title>
<g id="a_Node000002"><a xlink:href="ppp_8cpp.html#a96cf81dda8cab8a4eff5984e5092ffd3" target="_top" xlink:title=" ">
<path fill="#fff0f0" stroke="red" d="M251.67,-19C251.67,-19 164.33,-19 164.33,-19 161.17,-19 158,-15.83 158,-12.67 158,-12.67 158,-6.33 158,-6.33 158,-3.17 161.17,0 164.33,0 164.33,0 251.67,0 251.67,0 254.83,0 258,-3.17 258,-6.33 258,-6.33 258,-12.67 258,-12.67 258,-15.83 254.83,-19 251.67,-19"/>
<text text-anchor="middle" x="208" y="-7" font-family="Helvetica,sans-Serif" font-size="10.00">addRejectDetails</text>
</a>
</g>
</g>
<!-- Node1&#45;&gt;Node2 -->
<g id="edge1_Node000001_Node000002" class="edge">
<title>Node1&#45;&gt;Node2</title>
<g id="a_edge1_Node000001_Node000002"><a xlink:title=" ">
<path fill="none" stroke="#63b8ff" d="M122.23,-9.5C130.64,-9.5 139.28,-9.5 147.67,-9.5"/>
<polygon fill="#63b8ff" stroke="#63b8ff" points="147.75,-13 157.75,-9.5 147.75,-6 147.75,-13"/>
</a>
</g>
</g>
</g>
</svg>
