<?xml version="1.0" encoding="UTF-8" standalone="no"?>
<!DOCTYPE svg PUBLIC "-//W3C//DTD SVG 1.1//EN"
 "http://www.w3.org/Graphics/SVG/1.1/DTD/svg11.dtd">
<!-- Generated by graphviz version 2.43.0 (0)
 -->
<!-- Title: fixAndHoldAmbiguities Pages: 1 -->
<svg width="326pt" height="76pt"
 viewBox="0.00 0.00 326.00 75.50" xmlns="http://www.w3.org/2000/svg" xmlns:xlink="http://www.w3.org/1999/xlink">
<g id="graph0" class="graph" transform="scale(1 1) rotate(0) translate(4 71.5)">
<title>fixAndHoldAmbiguities</title>
<!-- Node1 -->
<g id="Node000001" class="node">
<title>Node1</title>
<g id="a_Node000001"><a xlink:href="ppp__ambres_8cpp.html#ac60a10fa51dfc292692db9b9e6f7af30" target="_top" xlink:title=" ">
<path fill="#fff0f0" stroke="red" stroke-width="2" d="M311.67,-45.5C311.67,-45.5 196.33,-45.5 196.33,-45.5 193.17,-45.5 190,-42.33 190,-39.17 190,-39.17 190,-32.83 190,-32.83 190,-29.67 193.17,-26.5 196.33,-26.5 196.33,-26.5 311.67,-26.5 311.67,-26.5 314.83,-26.5 318,-29.67 318,-32.83 318,-32.83 318,-39.17 318,-39.17 318,-42.33 314.83,-45.5 311.67,-45.5"/>
<text text-anchor="middle" x="254" y="-33.5" font-family="Helvetica,sans-Serif" font-size="10.00">fixAndHoldAmbiguities</text>
</a>
</g>
</g>
<!-- Node2 -->
<g id="Node000002" class="node">
<title>Node2</title>
<g id="a_Node000002"><a xlink:href="main_8cpp.html#a2b0d1066eac1a878cf982adcdd550ce1" target="_top" xlink:title="Perform any post&#45;final epoch calculations and outputs, then begin reverse smoothing and tidy up.">
<path fill="#fff0f0" stroke="red" d="M128.17,-67.5C128.17,-67.5 25.83,-67.5 25.83,-67.5 22.67,-67.5 19.5,-64.33 19.5,-61.17 19.5,-61.17 19.5,-54.83 19.5,-54.83 19.5,-51.67 22.67,-48.5 25.83,-48.5 25.83,-48.5 128.17,-48.5 128.17,-48.5 131.33,-48.5 134.5,-51.67 134.5,-54.83 134.5,-54.83 134.5,-61.17 134.5,-61.17 134.5,-64.33 131.33,-67.5 128.17,-67.5"/>
<text text-anchor="middle" x="77" y="-55.5" font-family="Helvetica,sans-Serif" font-size="10.00">mainPostProcessing</text>
</a>
</g>
</g>
<!-- Node1&#45;&gt;Node2 -->
<g id="edge1_Node000001_Node000002" class="edge">
<title>Node1&#45;&gt;Node2</title>
<g id="a_edge1_Node000001_Node000002"><a xlink:title=" ">
<path fill="none" stroke="#63b8ff" d="M179.55,-45.23C164.56,-47.12 149,-49.07 134.7,-50.87"/>
<polygon fill="#63b8ff" stroke="#63b8ff" points="180.34,-48.66 189.82,-43.94 179.46,-41.72 180.34,-48.66"/>
</a>
</g>
</g>
<!-- Node4 -->
<g id="Node000004" class="node">
<title>Node4</title>
<g id="a_Node000004"><a xlink:href="outputs_8cpp.html#abf277b1afcff7cb07fa2857b4a373100" target="_top" xlink:title=" ">
<path fill="#fff0f0" stroke="red" d="M144,-30C144,-30 10,-30 10,-30 5,-30 0,-25 0,-20 0,-20 0,-10 0,-10 0,-5 5,0 10,0 10,0 144,0 144,0 149,0 154,-5 154,-10 154,-10 154,-20 154,-20 154,-25 149,-30 144,-30"/>
<text text-anchor="start" x="8" y="-18" font-family="Helvetica,sans-Serif" font-size="10.00">perEpochPostProcessingAnd</text>
<text text-anchor="middle" x="77" y="-7" font-family="Helvetica,sans-Serif" font-size="10.00">Outputs</text>
</a>
</g>
</g>
<!-- Node1&#45;&gt;Node4 -->
<g id="edge2_Node000001_Node000004" class="edge">
<title>Node1&#45;&gt;Node4</title>
<g id="a_edge2_Node000001_Node000004"><a xlink:title=" ">
<path fill="none" stroke="#63b8ff" d="M179.67,-27.2C171.26,-26.19 162.67,-25.16 154.22,-24.15"/>
<polygon fill="#63b8ff" stroke="#63b8ff" points="179.48,-30.7 189.82,-28.42 180.31,-23.75 179.48,-30.7"/>
</a>
</g>
</g>
</g>
</svg>
