<?xml version="1.0" encoding="UTF-8" standalone="no"?>
<!DOCTYPE svg PUBLIC "-//W3C//DTD SVG 1.1//EN"
 "http://www.w3.org/Graphics/SVG/1.1/DTD/svg11.dtd">
<!-- Generated by graphviz version 2.43.0 (0)
 -->
<!-- Title: applyUCAmbiguities Pages: 1 -->
<svg width="318pt" height="230pt"
 viewBox="0.00 0.00 318.00 230.00" xmlns="http://www.w3.org/2000/svg" xmlns:xlink="http://www.w3.org/1999/xlink">
<g id="graph0" class="graph" transform="scale(1 1) rotate(0) translate(4 226)">
<title>applyUCAmbiguities</title>
<!-- Node1 -->
<g id="Node000001" class="node">
<title>Node1</title>
<g id="a_Node000001"><a xlink:href="ppp__ambres_8cpp.html#a604fb46557eb8261b38abf76fb147433" target="_top" xlink:title=" ">
<path fill="#fff0f0" stroke="red" stroke-width="2" d="M109.67,-111C109.67,-111 6.33,-111 6.33,-111 3.17,-111 0,-107.83 0,-104.67 0,-104.67 0,-98.33 0,-98.33 0,-95.17 3.17,-92 6.33,-92 6.33,-92 109.67,-92 109.67,-92 112.83,-92 116,-95.17 116,-98.33 116,-98.33 116,-104.67 116,-104.67 116,-107.83 112.83,-111 109.67,-111"/>
<text text-anchor="middle" x="58" y="-99" font-family="Helvetica,sans-Serif" font-size="10.00">applyUCAmbiguities</text>
</a>
</g>
</g>
<!-- Node2 -->
<g id="Node000002" class="node">
<title>Node2</title>
<g id="a_Node000002"><a xlink:href="structKFMeasEntry.html#a7b34625115c46a7943e1ac8ffb7478e9" target="_top" xlink:title="Adds a noise element for this measurement.">
<path fill="#fff0f0" stroke="red" d="M303.67,-222C303.67,-222 158.33,-222 158.33,-222 155.17,-222 152,-218.83 152,-215.67 152,-215.67 152,-209.33 152,-209.33 152,-206.17 155.17,-203 158.33,-203 158.33,-203 303.67,-203 303.67,-203 306.83,-203 310,-206.17 310,-209.33 310,-209.33 310,-215.67 310,-215.67 310,-218.83 306.83,-222 303.67,-222"/>
<text text-anchor="middle" x="231" y="-210" font-family="Helvetica,sans-Serif" font-size="10.00">KFMeasEntry::addNoiseEntry</text>
</a>
</g>
</g>
<!-- Node1&#45;&gt;Node2 -->
<g id="edge1_Node000001_Node000002" class="edge">
<title>Node1&#45;&gt;Node2</title>
<g id="a_edge1_Node000001_Node000002"><a xlink:title=" ">
<path fill="none" stroke="#63b8ff" d="M65.69,-111.15C79.48,-130.25 113.06,-172.92 152,-194.5 155.29,-196.33 158.76,-197.97 162.34,-199.44"/>
<polygon fill="#63b8ff" stroke="#63b8ff" points="161.39,-202.82 171.98,-202.97 163.79,-196.25 161.39,-202.82"/>
</a>
</g>
</g>
<!-- Node3 -->
<g id="Node000003" class="node">
<title>Node3</title>
<g id="a_Node000003"><a xlink:href="structKFState.html#aeca6e3874ad0c94607152d244016582f" target="_top" xlink:title="Returns the value and variance of a state within the kalman filter object.">
<path fill="#fff0f0" stroke="red" d="M282.67,-167C282.67,-167 179.33,-167 179.33,-167 176.17,-167 173,-163.83 173,-160.67 173,-160.67 173,-154.33 173,-154.33 173,-151.17 176.17,-148 179.33,-148 179.33,-148 282.67,-148 282.67,-148 285.83,-148 289,-151.17 289,-154.33 289,-154.33 289,-160.67 289,-160.67 289,-163.83 285.83,-167 282.67,-167"/>
<text text-anchor="middle" x="231" y="-155" font-family="Helvetica,sans-Serif" font-size="10.00">KFState::getKFValue</text>
</a>
</g>
</g>
<!-- Node1&#45;&gt;Node3 -->
<g id="edge2_Node000001_Node000003" class="edge">
<title>Node1&#45;&gt;Node3</title>
<g id="a_edge2_Node000001_Node000003"><a xlink:title=" ">
<path fill="none" stroke="#63b8ff" d="M79.7,-111.08C98.31,-119.43 126.56,-131.43 152,-139.5 158.83,-141.67 166.07,-143.69 173.29,-145.54"/>
<polygon fill="#63b8ff" stroke="#63b8ff" points="172.51,-148.96 183.06,-147.96 174.19,-142.16 172.51,-148.96"/>
</a>
</g>
</g>
<!-- Node5 -->
<g id="Node000005" class="node">
<title>Node5</title>
<g id="a_Node000005"><a xlink:href="structSatSys.html#aec6d07b90d1e8172b8b6a6966abef4fd" target="_top" xlink:title="Returns a std::string of this satellite&#39;s id.">
<path fill="#fff0f0" stroke="red" d="M257.17,-130C257.17,-130 204.83,-130 204.83,-130 201.67,-130 198.5,-126.83 198.5,-123.67 198.5,-123.67 198.5,-117.33 198.5,-117.33 198.5,-114.17 201.67,-111 204.83,-111 204.83,-111 257.17,-111 257.17,-111 260.33,-111 263.5,-114.17 263.5,-117.33 263.5,-117.33 263.5,-123.67 263.5,-123.67 263.5,-126.83 260.33,-130 257.17,-130"/>
<text text-anchor="middle" x="231" y="-118" font-family="Helvetica,sans-Serif" font-size="10.00">SatSys::id</text>
</a>
</g>
</g>
<!-- Node1&#45;&gt;Node5 -->
<g id="edge4_Node000001_Node000005" class="edge">
<title>Node1&#45;&gt;Node5</title>
<g id="a_edge4_Node000001_Node000005"><a xlink:title=" ">
<path fill="none" stroke="#63b8ff" d="M116.42,-107.88C139.93,-110.49 166.63,-113.46 188.24,-115.86"/>
<polygon fill="#63b8ff" stroke="#63b8ff" points="188.07,-119.36 198.39,-116.99 188.84,-112.41 188.07,-119.36"/>
</a>
</g>
</g>
<!-- Node8 -->
<g id="Node000008" class="node">
<title>Node8</title>
<g id="a_Node000008"><a xlink:href="structKFMeasEntry.html#a358f854f4544c59fd129e46a1baf0e34" target="_top" xlink:title="Adds a design matrix entry for this measurement.">
<path fill="#fff0f0" stroke="red" d="M302.17,-93C302.17,-93 159.83,-93 159.83,-93 156.67,-93 153.5,-89.83 153.5,-86.67 153.5,-86.67 153.5,-80.33 153.5,-80.33 153.5,-77.17 156.67,-74 159.83,-74 159.83,-74 302.17,-74 302.17,-74 305.33,-74 308.5,-77.17 308.5,-80.33 308.5,-80.33 308.5,-86.67 308.5,-86.67 308.5,-89.83 305.33,-93 302.17,-93"/>
<text text-anchor="middle" x="231" y="-81" font-family="Helvetica,sans-Serif" font-size="10.00">KFMeasEntry::addDsgnEntry</text>
</a>
</g>
</g>
<!-- Node1&#45;&gt;Node8 -->
<g id="edge5_Node000001_Node000008" class="edge">
<title>Node1&#45;&gt;Node8</title>
<g id="a_edge5_Node000001_Node000008"><a xlink:title=" ">
<path fill="none" stroke="#63b8ff" d="M116.42,-95.46C125.02,-94.55 134.04,-93.6 143.09,-92.65"/>
<polygon fill="#63b8ff" stroke="#63b8ff" points="143.72,-96.1 153.29,-91.57 142.98,-89.14 143.72,-96.1"/>
</a>
</g>
</g>
<!-- Node9 -->
<g id="Node000009" class="node">
<title>Node9</title>
<g id="a_Node000009"><a xlink:href="structKFMeasEntry.html#ac15ff59e0acb09be8ed75ccee2411dd2" target="_top" xlink:title="Adds the innovation value for this measurement.">
<path fill="#fff0f0" stroke="red" d="M288.67,-56C288.67,-56 173.33,-56 173.33,-56 170.17,-56 167,-52.83 167,-49.67 167,-49.67 167,-43.33 167,-43.33 167,-40.17 170.17,-37 173.33,-37 173.33,-37 288.67,-37 288.67,-37 291.83,-37 295,-40.17 295,-43.33 295,-43.33 295,-49.67 295,-49.67 295,-52.83 291.83,-56 288.67,-56"/>
<text text-anchor="middle" x="231" y="-44" font-family="Helvetica,sans-Serif" font-size="10.00">KFMeasEntry::setInnov</text>
</a>
</g>
</g>
<!-- Node1&#45;&gt;Node9 -->
<g id="edge6_Node000001_Node000009" class="edge">
<title>Node1&#45;&gt;Node9</title>
<g id="a_edge6_Node000001_Node000009"><a xlink:title=" ">
<path fill="none" stroke="#63b8ff" d="M81.26,-91.94C99.92,-84.15 127.39,-73.23 152,-65.5 159.85,-63.04 168.22,-60.7 176.46,-58.56"/>
<polygon fill="#63b8ff" stroke="#63b8ff" points="177.56,-61.89 186.4,-56.06 175.85,-55.11 177.56,-61.89"/>
</a>
</g>
</g>
<!-- Node10 -->
<g id="Node000010" class="node">
<title>Node10</title>
<g id="a_Node000010"><a xlink:href="structKFState.html#a0d12c57e70876543084c182a660bbbd3" target="_top" xlink:title="Kalman filter operation.">
<path fill="#fff0f0" stroke="red" d="M284.67,-19C284.67,-19 177.33,-19 177.33,-19 174.17,-19 171,-15.83 171,-12.67 171,-12.67 171,-6.33 171,-6.33 171,-3.17 174.17,0 177.33,0 177.33,0 284.67,0 284.67,0 287.83,0 291,-3.17 291,-6.33 291,-6.33 291,-12.67 291,-12.67 291,-15.83 287.83,-19 284.67,-19"/>
<text text-anchor="middle" x="231" y="-7" font-family="Helvetica,sans-Serif" font-size="10.00">KFState::filterKalman</text>
</a>
</g>
</g>
<!-- Node1&#45;&gt;Node10 -->
<g id="edge7_Node000001_Node000010" class="edge">
<title>Node1&#45;&gt;Node10</title>
<g id="a_edge7_Node000001_Node000010"><a xlink:title=" ">
<path fill="none" stroke="#63b8ff" d="M68.35,-91.85C84.13,-76.16 117.66,-45.18 152,-28.5 156.94,-26.1 162.2,-23.99 167.57,-22.14"/>
<polygon fill="#63b8ff" stroke="#63b8ff" points="168.83,-25.41 177.31,-19.07 166.72,-18.74 168.83,-25.41"/>
</a>
</g>
</g>
<!-- Node3&#45;&gt;Node3 -->
<g id="edge3_Node000003_Node000003" class="edge">
<title>Node3&#45;&gt;Node3</title>
<g id="a_edge3_Node000003_Node000003"><a xlink:title=" ">
<path fill="none" stroke="#63b8ff" d="M204.49,-167.08C191.59,-175.73 200.43,-185 231,-185 251.54,-185 262.27,-180.82 263.19,-175.45"/>
<polygon fill="#63b8ff" stroke="#63b8ff" points="266.02,-173.39 257.51,-167.08 260.23,-177.32 266.02,-173.39"/>
</a>
</g>
</g>
</g>
</svg>
