<?xml version="1.0" encoding="UTF-8" standalone="no"?>
<!DOCTYPE svg PUBLIC "-//W3C//DTD SVG 1.1//EN"
 "http://www.w3.org/Graphics/SVG/1.1/DTD/svg11.dtd">
<!-- Generated by graphviz version 2.43.0 (0)
 -->
<!-- Title: mergeCorrelated Pages: 1 -->
<svg width="282pt" height="27pt"
 viewBox="0.00 0.00 282.00 27.00" xmlns="http://www.w3.org/2000/svg" xmlns:xlink="http://www.w3.org/1999/xlink">
<g id="graph0" class="graph" transform="scale(1 1) rotate(0) translate(4 23)">
<title>mergeCorrelated</title>
<!-- Node1 -->
<g id="Node000001" class="node">
<title>Node1</title>
<g id="a_Node000001"><a xlink:href="ppppp_8cpp.html#ac4ee2f4831d6f1b5d780bb526ce53b73" target="_top" xlink:title=" ">
<path fill="#fff0f0" stroke="red" stroke-width="2" d="M92.67,-19C92.67,-19 6.33,-19 6.33,-19 3.17,-19 0,-15.83 0,-12.67 0,-12.67 0,-6.33 0,-6.33 0,-3.17 3.17,0 6.33,0 6.33,0 92.67,0 92.67,0 95.83,0 99,-3.17 99,-6.33 99,-6.33 99,-12.67 99,-12.67 99,-15.83 95.83,-19 92.67,-19"/>
<text text-anchor="middle" x="49.5" y="-7" font-family="Helvetica,sans-Serif" font-size="10.00">mergeCorrelated</text>
</a>
</g>
</g>
<!-- Node2 -->
<g id="Node000002" class="node">
<title>Node2</title>
<g id="a_Node000002"><a xlink:href="structKFState.html#a8b46cc073d1447f0cfe189070b0f4846" target="_top" xlink:title="Create a pseudo state that represents the linear combination of two or more perfectly correlated stat...">
<path fill="#fff0f0" stroke="red" d="M267.67,-19C267.67,-19 141.33,-19 141.33,-19 138.17,-19 135,-15.83 135,-12.67 135,-12.67 135,-6.33 135,-6.33 135,-3.17 138.17,0 141.33,0 141.33,0 267.67,0 267.67,0 270.83,0 274,-3.17 274,-6.33 274,-6.33 274,-12.67 274,-12.67 274,-15.83 270.83,-19 267.67,-19"/>
<text text-anchor="middle" x="204.5" y="-7" font-family="Helvetica,sans-Serif" font-size="10.00">KFState::addPseudoState</text>
</a>
</g>
</g>
<!-- Node1&#45;&gt;Node2 -->
<g id="edge1_Node000001_Node000002" class="edge">
<title>Node1&#45;&gt;Node2</title>
<g id="a_edge1_Node000001_Node000002"><a xlink:title=" ">
<path fill="none" stroke="#63b8ff" d="M99.33,-9.5C107.44,-9.5 116.03,-9.5 124.66,-9.5"/>
<polygon fill="#63b8ff" stroke="#63b8ff" points="124.78,-13 134.78,-9.5 124.78,-6 124.78,-13"/>
</a>
</g>
</g>
</g>
</svg>
