<?xml version="1.0" encoding="UTF-8" standalone="no"?>
<!DOCTYPE svg PUBLIC "-//W3C//DTD SVG 1.1//EN"
 "http://www.w3.org/Graphics/SVG/1.1/DTD/svg11.dtd">
<!-- Generated by graphviz version 2.43.0 (0)
 -->
<!-- Title: removeBadAmbiguities Pages: 1 -->
<svg width="346pt" height="212pt"
 viewBox="0.00 0.00 346.00 212.00" xmlns="http://www.w3.org/2000/svg" xmlns:xlink="http://www.w3.org/1999/xlink">
<g id="graph0" class="graph" transform="scale(1 1) rotate(0) translate(4 208)">
<title>removeBadAmbiguities</title>
<!-- Node1 -->
<g id="Node000001" class="node">
<title>Node1</title>
<g id="a_Node000001"><a xlink:href="ppp_8cpp.html#a075655f5235940732703f2e6ca41421a" target="_top" xlink:title="Remove ambiguity states from filter when they deemed old or bad This effectively reinitialises them o...">
<path fill="#fff0f0" stroke="red" stroke-width="2" d="M124.67,-130C124.67,-130 6.33,-130 6.33,-130 3.17,-130 0,-126.83 0,-123.67 0,-123.67 0,-117.33 0,-117.33 0,-114.17 3.17,-111 6.33,-111 6.33,-111 124.67,-111 124.67,-111 127.83,-111 131,-114.17 131,-117.33 131,-117.33 131,-123.67 131,-123.67 131,-126.83 127.83,-130 124.67,-130"/>
<text text-anchor="middle" x="65.5" y="-118" font-family="Helvetica,sans-Serif" font-size="10.00">removeBadAmbiguities</text>
</a>
</g>
</g>
<!-- Node2 -->
<g id="Node000002" class="node">
<title>Node2</title>
<g id="a_Node000002"><a xlink:href="structKFState.html#ac161d9283e7fedbdf6236a2c8c0be180" target="_top" xlink:title=" ">
<path fill="#fff0f0" stroke="red" d="M331.67,-204C331.67,-204 173.33,-204 173.33,-204 170.17,-204 167,-200.83 167,-197.67 167,-197.67 167,-191.33 167,-191.33 167,-188.17 170.17,-185 173.33,-185 173.33,-185 331.67,-185 331.67,-185 334.83,-185 338,-188.17 338,-191.33 338,-191.33 338,-197.67 338,-197.67 338,-200.83 334.83,-204 331.67,-204"/>
<text text-anchor="middle" x="252.5" y="-192" font-family="Helvetica,sans-Serif" font-size="10.00">KFState::decomposedStateKeys</text>
</a>
</g>
</g>
<!-- Node1&#45;&gt;Node2 -->
<g id="edge1_Node000001_Node000002" class="edge">
<title>Node1&#45;&gt;Node2</title>
<g id="a_edge1_Node000001_Node000002"><a xlink:title=" ">
<path fill="none" stroke="#63b8ff" d="M80.49,-130.08C99.33,-142.56 134.28,-164.22 167,-176.5 172.81,-178.68 178.94,-180.62 185.15,-182.35"/>
<polygon fill="#63b8ff" stroke="#63b8ff" points="184.36,-185.77 194.92,-184.9 186.12,-178.99 184.36,-185.77"/>
</a>
</g>
</g>
<!-- Node3 -->
<g id="Node000003" class="node">
<title>Node3</title>
<g id="a_Node000003"><a xlink:href="ppp_8cpp.html#add1aa65516313588ef8e125a7d748f51" target="_top" xlink:title=" ">
<path fill="#fff0f0" stroke="red" d="M274.67,-167C274.67,-167 230.33,-167 230.33,-167 227.17,-167 224,-163.83 224,-160.67 224,-160.67 224,-154.33 224,-154.33 224,-151.17 227.17,-148 230.33,-148 230.33,-148 274.67,-148 274.67,-148 277.83,-148 281,-151.17 281,-154.33 281,-154.33 281,-160.67 281,-160.67 281,-163.83 277.83,-167 274.67,-167"/>
<text text-anchor="middle" x="252.5" y="-155" font-family="Helvetica,sans-Serif" font-size="10.00">ft2string</text>
</a>
</g>
</g>
<!-- Node1&#45;&gt;Node3 -->
<g id="edge2_Node000001_Node000003" class="edge">
<title>Node1&#45;&gt;Node3</title>
<g id="a_edge2_Node000001_Node000003"><a xlink:title=" ">
<path fill="none" stroke="#63b8ff" d="M131.2,-126.97C160.38,-132.2 193.62,-139.22 217.76,-145.4"/>
<polygon fill="#63b8ff" stroke="#63b8ff" points="216.94,-148.8 227.5,-147.98 218.74,-142.04 216.94,-148.8"/>
</a>
</g>
</g>
<!-- Node1&#45;&gt;Node3 -->
<g id="edge3_Node000001_Node000003" class="edge">
<title>Node1&#45;&gt;Node3</title>
<g id="a_edge3_Node000001_Node000003"><a xlink:title=" ">
<path fill="none" stroke="#63b8ff" d="M90.69,-130.07C121.97,-138.7 176.83,-149.95 213.65,-155.5"/>
<polygon fill="#63b8ff" stroke="#63b8ff" points="213.6,-159.03 223.99,-156.97 214.59,-152.1 213.6,-159.03"/>
</a>
</g>
</g>
<!-- Node4 -->
<g id="Node000004" class="node">
<title>Node4</title>
<g id="a_Node000004"><a xlink:href="ppp_8cpp.html#a96cf81dda8cab8a4eff5984e5092ffd3" target="_top" xlink:title=" ">
<path fill="#fff0f0" stroke="red" d="M296.17,-130C296.17,-130 208.83,-130 208.83,-130 205.67,-130 202.5,-126.83 202.5,-123.67 202.5,-123.67 202.5,-117.33 202.5,-117.33 202.5,-114.17 205.67,-111 208.83,-111 208.83,-111 296.17,-111 296.17,-111 299.33,-111 302.5,-114.17 302.5,-117.33 302.5,-117.33 302.5,-123.67 302.5,-123.67 302.5,-126.83 299.33,-130 296.17,-130"/>
<text text-anchor="middle" x="252.5" y="-118" font-family="Helvetica,sans-Serif" font-size="10.00">addRejectDetails</text>
</a>
</g>
</g>
<!-- Node1&#45;&gt;Node4 -->
<g id="edge4_Node000001_Node000004" class="edge">
<title>Node1&#45;&gt;Node4</title>
<g id="a_edge4_Node000001_Node000004"><a xlink:title=" ">
<path fill="none" stroke="#63b8ff" d="M131.2,-114.03C150.99,-113.62 172.64,-113.66 192.06,-114.15"/>
<polygon fill="#63b8ff" stroke="#63b8ff" points="192.19,-117.65 202.29,-114.46 192.4,-110.66 192.19,-117.65"/>
</a>
</g>
</g>
<!-- Node1&#45;&gt;Node4 -->
<g id="edge9_Node000001_Node000004" class="edge">
<title>Node1&#45;&gt;Node4</title>
<g id="a_edge9_Node000001_Node000004"><a xlink:title=" ">
<path fill="none" stroke="#63b8ff" d="M131.2,-126.97C150.99,-127.38 172.64,-127.34 192.06,-126.85"/>
<polygon fill="#63b8ff" stroke="#63b8ff" points="192.4,-130.34 202.29,-126.54 192.19,-123.35 192.4,-130.34"/>
</a>
</g>
</g>
<!-- Node9 -->
<g id="Node000009" class="node">
<title>Node9</title>
<g id="a_Node000009"><a xlink:href="structKFState.html#a043f0e3fd99610dfad8e650a1514c395" target="_top" xlink:title="Remove a state from a kalman filter object.">
<path fill="#fff0f0" stroke="red" d="M307.67,-93C307.67,-93 197.33,-93 197.33,-93 194.17,-93 191,-89.83 191,-86.67 191,-86.67 191,-80.33 191,-80.33 191,-77.17 194.17,-74 197.33,-74 197.33,-74 307.67,-74 307.67,-74 310.83,-74 314,-77.17 314,-80.33 314,-80.33 314,-86.67 314,-86.67 314,-89.83 310.83,-93 307.67,-93"/>
<text text-anchor="middle" x="252.5" y="-81" font-family="Helvetica,sans-Serif" font-size="10.00">KFState::removeState</text>
</a>
</g>
</g>
<!-- Node1&#45;&gt;Node9 -->
<g id="edge5_Node000001_Node000009" class="edge">
<title>Node1&#45;&gt;Node9</title>
<g id="a_edge5_Node000001_Node000009"><a xlink:title=" ">
<path fill="none" stroke="#63b8ff" d="M90.69,-110.93C113.49,-104.64 148.8,-96.96 180.53,-91.11"/>
<polygon fill="#63b8ff" stroke="#63b8ff" points="181.47,-94.5 190.69,-89.28 180.23,-87.61 181.47,-94.5"/>
</a>
</g>
</g>
<!-- Node1&#45;&gt;Node9 -->
<g id="edge8_Node000001_Node000009" class="edge">
<title>Node1&#45;&gt;Node9</title>
<g id="a_edge8_Node000001_Node000009"><a xlink:title=" ">
<path fill="none" stroke="#63b8ff" d="M131.2,-114.03C160.38,-108.8 193.62,-101.78 217.76,-95.6"/>
<polygon fill="#63b8ff" stroke="#63b8ff" points="218.74,-98.96 227.5,-93.02 216.94,-92.2 218.74,-98.96"/>
</a>
</g>
</g>
<!-- Node10 -->
<g id="Node000010" class="node">
<title>Node10</title>
<g id="a_Node000010"><a xlink:href="algebra_8cpp.html#a4a6a1ebf759ddc5d9d6d1de14269c5af" target="_top" xlink:title=" ">
<path fill="#fff0f0" stroke="red" d="M308.67,-56C308.67,-56 196.33,-56 196.33,-56 193.17,-56 190,-52.83 190,-49.67 190,-49.67 190,-43.33 190,-43.33 190,-40.17 193.17,-37 196.33,-37 196.33,-37 308.67,-37 308.67,-37 311.83,-37 315,-40.17 315,-43.33 315,-43.33 315,-49.67 315,-49.67 315,-52.83 311.83,-56 308.67,-56"/>
<text text-anchor="middle" x="252.5" y="-44" font-family="Helvetica,sans-Serif" font-size="10.00">initialStateFromConfig</text>
</a>
</g>
</g>
<!-- Node1&#45;&gt;Node10 -->
<g id="edge6_Node000001_Node000010" class="edge">
<title>Node1&#45;&gt;Node10</title>
<g id="a_edge6_Node000001_Node000010"><a xlink:title=" ">
<path fill="none" stroke="#63b8ff" d="M80.86,-110.95C99.83,-98.74 134.62,-77.72 167,-65.5 173.94,-62.88 181.35,-60.56 188.79,-58.53"/>
<polygon fill="#63b8ff" stroke="#63b8ff" points="189.73,-61.9 198.54,-56.02 187.99,-55.12 189.73,-61.9"/>
</a>
</g>
</g>
<!-- Node11 -->
<g id="Node000011" class="node">
<title>Node11</title>
<g id="a_Node000011"><a xlink:href="structACSConfig.html#acbb130e061ba4b7bf620e4fb68e1b794" target="_top" xlink:title="Set receiver options for a specific receiver using a hierarchy of sources.">
<path fill="#fff0f0" stroke="red" d="M310.67,-19C310.67,-19 194.33,-19 194.33,-19 191.17,-19 188,-15.83 188,-12.67 188,-12.67 188,-6.33 188,-6.33 188,-3.17 191.17,0 194.33,0 194.33,0 310.67,0 310.67,0 313.83,0 317,-3.17 317,-6.33 317,-6.33 317,-12.67 317,-12.67 317,-15.83 313.83,-19 310.67,-19"/>
<text text-anchor="middle" x="252.5" y="-7" font-family="Helvetica,sans-Serif" font-size="10.00">ACSConfig::getRecOpts</text>
</a>
</g>
</g>
<!-- Node1&#45;&gt;Node11 -->
<g id="edge7_Node000001_Node000011" class="edge">
<title>Node1&#45;&gt;Node11</title>
<g id="a_edge7_Node000001_Node000011"><a xlink:title=" ">
<path fill="none" stroke="#63b8ff" d="M73.93,-110.96C89.2,-92.05 126.11,-49.85 167,-28.5 171.55,-26.12 176.39,-24.05 181.35,-22.23"/>
<polygon fill="#63b8ff" stroke="#63b8ff" points="182.63,-25.49 191.03,-19.03 180.44,-18.84 182.63,-25.49"/>
</a>
</g>
</g>
</g>
</svg>
