<?xml version="1.0" encoding="UTF-8" standalone="no"?>
<!DOCTYPE svg PUBLIC "-//W3C//DTD SVG 1.1//EN"
 "http://www.w3.org/Graphics/SVG/1.1/DTD/svg11.dtd">
<!-- Generated by graphviz version 2.43.0 (0)
 -->
<!-- Title: updateFilter Pages: 1 -->
<svg width="251pt" height="360pt"
 viewBox="0.00 0.00 251.00 360.00" xmlns="http://www.w3.org/2000/svg" xmlns:xlink="http://www.w3.org/1999/xlink">
<g id="graph0" class="graph" transform="scale(1 1) rotate(0) translate(4 356)">
<title>updateFilter</title>
<!-- Node1 -->
<g id="Node000001" class="node">
<title>Node1</title>
<g id="a_Node000001"><a xlink:href="ppppp_8cpp.html#a84e7c899beed740758bb8da190184e65" target="_top" xlink:title=" ">
<path fill="#fff0f0" stroke="red" stroke-width="2" d="M68.67,-185C68.67,-185 6.33,-185 6.33,-185 3.17,-185 0,-181.83 0,-178.67 0,-178.67 0,-172.33 0,-172.33 0,-169.17 3.17,-166 6.33,-166 6.33,-166 68.67,-166 68.67,-166 71.83,-166 75,-169.17 75,-172.33 75,-172.33 75,-178.67 75,-178.67 75,-181.83 71.83,-185 68.67,-185"/>
<text text-anchor="middle" x="37.5" y="-173" font-family="Helvetica,sans-Serif" font-size="10.00">updateFilter</text>
</a>
</g>
</g>
<!-- Node2 -->
<g id="Node000002" class="node">
<title>Node2</title>
<g id="a_Node000002"><a xlink:href="ppp_8cpp.html#af95304cdb8d8be30c4c5004efd3016ca" target="_top" xlink:title=" ">
<path fill="#fff0f0" stroke="red" d="M231.17,-352C231.17,-352 122.83,-352 122.83,-352 119.67,-352 116.5,-348.83 116.5,-345.67 116.5,-345.67 116.5,-339.33 116.5,-339.33 116.5,-336.17 119.67,-333 122.83,-333 122.83,-333 231.17,-333 231.17,-333 234.33,-333 237.5,-336.17 237.5,-339.33 237.5,-339.33 237.5,-345.67 237.5,-345.67 237.5,-348.83 234.33,-352 231.17,-352"/>
<text text-anchor="middle" x="177" y="-340" font-family="Helvetica,sans-Serif" font-size="10.00">removeBadReceivers</text>
</a>
</g>
</g>
<!-- Node1&#45;&gt;Node2 -->
<g id="edge1_Node000001_Node000002" class="edge">
<title>Node1&#45;&gt;Node2</title>
<g id="a_edge1_Node000001_Node000002"><a xlink:title=" ">
<path fill="none" stroke="#63b8ff" d="M40.34,-185.21C45.89,-211.78 65.01,-286.23 111,-324.5 112.55,-325.79 114.19,-326.99 115.9,-328.11"/>
<polygon fill="#63b8ff" stroke="#63b8ff" points="114.44,-331.3 124.9,-332.99 117.78,-325.14 114.44,-331.3"/>
</a>
</g>
</g>
<!-- Node4 -->
<g id="Node000004" class="node">
<title>Node4</title>
<g id="a_Node000004"><a xlink:href="ppp_8cpp.html#a075655f5235940732703f2e6ca41421a" target="_top" xlink:title="Remove ambiguity states from filter when they deemed old or bad This effectively reinitialises them o...">
<path fill="#fff0f0" stroke="red" d="M236.17,-315C236.17,-315 117.83,-315 117.83,-315 114.67,-315 111.5,-311.83 111.5,-308.67 111.5,-308.67 111.5,-302.33 111.5,-302.33 111.5,-299.17 114.67,-296 117.83,-296 117.83,-296 236.17,-296 236.17,-296 239.33,-296 242.5,-299.17 242.5,-302.33 242.5,-302.33 242.5,-308.67 242.5,-308.67 242.5,-311.83 239.33,-315 236.17,-315"/>
<text text-anchor="middle" x="177" y="-303" font-family="Helvetica,sans-Serif" font-size="10.00">removeBadAmbiguities</text>
</a>
</g>
</g>
<!-- Node1&#45;&gt;Node4 -->
<g id="edge2_Node000001_Node000004" class="edge">
<title>Node1&#45;&gt;Node4</title>
<g id="a_edge2_Node000001_Node000004"><a xlink:title=" ">
<path fill="none" stroke="#63b8ff" d="M42.03,-185.3C50.41,-207.15 73.66,-260.09 111,-287.5 112.88,-288.88 114.86,-290.15 116.91,-291.33"/>
<polygon fill="#63b8ff" stroke="#63b8ff" points="115.78,-294.67 126.3,-295.89 118.84,-288.37 115.78,-294.67"/>
</a>
</g>
</g>
<!-- Node30 -->
<g id="Node000030" class="node">
<title>Node30</title>
<g id="a_Node000030"><a xlink:href="ppp_8cpp.html#a35284eb4f9ee6e39f0e71f25f110793c" target="_top" xlink:title=" ">
<path fill="#fff0f0" stroke="red" d="M230.17,-278C230.17,-278 123.83,-278 123.83,-278 120.67,-278 117.5,-274.83 117.5,-271.67 117.5,-271.67 117.5,-265.33 117.5,-265.33 117.5,-262.17 120.67,-259 123.83,-259 123.83,-259 230.17,-259 230.17,-259 233.33,-259 236.5,-262.17 236.5,-265.33 236.5,-265.33 236.5,-271.67 236.5,-271.67 236.5,-274.83 233.33,-278 230.17,-278"/>
<text text-anchor="middle" x="177" y="-266" font-family="Helvetica,sans-Serif" font-size="10.00">removeBadSatellites</text>
</a>
</g>
</g>
<!-- Node1&#45;&gt;Node30 -->
<g id="edge3_Node000001_Node000030" class="edge">
<title>Node1&#45;&gt;Node30</title>
<g id="a_edge3_Node000001_Node000030"><a xlink:title=" ">
<path fill="none" stroke="#63b8ff" d="M45.12,-185.14C56.62,-201.15 81.89,-233.2 111,-250.5 113.96,-252.26 117.09,-253.85 120.33,-255.29"/>
<polygon fill="#63b8ff" stroke="#63b8ff" points="119.05,-258.55 129.63,-258.96 121.62,-252.04 119.05,-258.55"/>
</a>
</g>
</g>
<!-- Node31 -->
<g id="Node000031" class="node">
<title>Node31</title>
<g id="a_Node000031"><a xlink:href="ppp_8cpp.html#a3d11452be1ce2ea58117c7fd3ac9f981" target="_top" xlink:title="Remove ambiguity states from filter when they deemed old or bad This effectively reinitialises them o...">
<path fill="#fff0f0" stroke="red" d="M236.67,-241C236.67,-241 117.33,-241 117.33,-241 114.17,-241 111,-237.83 111,-234.67 111,-234.67 111,-228.33 111,-228.33 111,-225.17 114.17,-222 117.33,-222 117.33,-222 236.67,-222 236.67,-222 239.83,-222 243,-225.17 243,-228.33 243,-228.33 243,-234.67 243,-234.67 243,-237.83 239.83,-241 236.67,-241"/>
<text text-anchor="middle" x="177" y="-229" font-family="Helvetica,sans-Serif" font-size="10.00">removeBadIonospheres</text>
</a>
</g>
</g>
<!-- Node1&#45;&gt;Node31 -->
<g id="edge4_Node000001_Node000031" class="edge">
<title>Node1&#45;&gt;Node31</title>
<g id="a_edge4_Node000001_Node000031"><a xlink:title=" ">
<path fill="none" stroke="#63b8ff" d="M54.45,-185.12C68.83,-193.49 90.78,-205.51 111,-213.5 116.04,-215.49 121.37,-217.35 126.74,-219.06"/>
<polygon fill="#63b8ff" stroke="#63b8ff" points="125.79,-222.43 136.37,-221.97 127.81,-215.73 125.79,-222.43"/>
</a>
</g>
</g>
<!-- Node33 -->
<g id="Node000033" class="node">
<title>Node33</title>
<g id="a_Node000033"><a xlink:href="ppppp_8cpp.html#af26bfb58095a385cfef6b9777566213d" target="_top" xlink:title=" ">
<path fill="#fff0f0" stroke="red" d="M220.67,-204C220.67,-204 133.33,-204 133.33,-204 130.17,-204 127,-200.83 127,-197.67 127,-197.67 127,-191.33 127,-191.33 127,-188.17 130.17,-185 133.33,-185 133.33,-185 220.67,-185 220.67,-185 223.83,-185 227,-188.17 227,-191.33 227,-191.33 227,-197.67 227,-197.67 227,-200.83 223.83,-204 220.67,-204"/>
<text text-anchor="middle" x="177" y="-192" font-family="Helvetica,sans-Serif" font-size="10.00">updateNukeFilter</text>
</a>
</g>
</g>
<!-- Node1&#45;&gt;Node33 -->
<g id="edge5_Node000001_Node000033" class="edge">
<title>Node1&#45;&gt;Node33</title>
<g id="a_edge5_Node000001_Node000033"><a xlink:title=" ">
<path fill="none" stroke="#63b8ff" d="M75.35,-180.59C88.09,-182.35 102.7,-184.37 116.77,-186.32"/>
<polygon fill="#63b8ff" stroke="#63b8ff" points="116.51,-189.81 126.89,-187.71 117.46,-182.88 116.51,-189.81"/>
</a>
</g>
</g>
<!-- Node34 -->
<g id="Node000034" class="node">
<title>Node34</title>
<g id="a_Node000034"><a xlink:href="ppppp_8cpp.html#a1a8f284c03d52ec377672f704c6f3504" target="_top" xlink:title="Prepare receiver clocks using spp values to minimise pre&#45;fit residuals.">
<path fill="#fff0f0" stroke="red" d="M221.17,-167C221.17,-167 132.83,-167 132.83,-167 129.67,-167 126.5,-163.83 126.5,-160.67 126.5,-160.67 126.5,-154.33 126.5,-154.33 126.5,-151.17 129.67,-148 132.83,-148 132.83,-148 221.17,-148 221.17,-148 224.33,-148 227.5,-151.17 227.5,-154.33 227.5,-154.33 227.5,-160.67 227.5,-160.67 227.5,-163.83 224.33,-167 221.17,-167"/>
<text text-anchor="middle" x="177" y="-155" font-family="Helvetica,sans-Serif" font-size="10.00">updateRecClocks</text>
</a>
</g>
</g>
<!-- Node1&#45;&gt;Node34 -->
<g id="edge6_Node000001_Node000034" class="edge">
<title>Node1&#45;&gt;Node34</title>
<g id="a_edge6_Node000001_Node000034"><a xlink:title=" ">
<path fill="none" stroke="#63b8ff" d="M75.35,-170.68C87.96,-169.03 102.41,-167.13 116.35,-165.31"/>
<polygon fill="#63b8ff" stroke="#63b8ff" points="116.92,-168.76 126.38,-164 116.01,-161.82 116.92,-168.76"/>
</a>
</g>
</g>
<!-- Node38 -->
<g id="Node000038" class="node">
<title>Node38</title>
<g id="a_Node000038"><a xlink:href="ppppp_8cpp.html#a19dff1e0de1c08404f53580a96be1fb1" target="_top" xlink:title="Prepare Satellite clocks to minimise residuals to broadcast clocks.">
<path fill="#fff0f0" stroke="red" d="M221.17,-130C221.17,-130 132.83,-130 132.83,-130 129.67,-130 126.5,-126.83 126.5,-123.67 126.5,-123.67 126.5,-117.33 126.5,-117.33 126.5,-114.17 129.67,-111 132.83,-111 132.83,-111 221.17,-111 221.17,-111 224.33,-111 227.5,-114.17 227.5,-117.33 227.5,-117.33 227.5,-123.67 227.5,-123.67 227.5,-126.83 224.33,-130 221.17,-130"/>
<text text-anchor="middle" x="177" y="-118" font-family="Helvetica,sans-Serif" font-size="10.00">updateAvgClocks</text>
</a>
</g>
</g>
<!-- Node1&#45;&gt;Node38 -->
<g id="edge7_Node000001_Node000038" class="edge">
<title>Node1&#45;&gt;Node38</title>
<g id="a_edge7_Node000001_Node000038"><a xlink:title=" ">
<path fill="none" stroke="#63b8ff" d="M55.69,-165.89C70.14,-158.07 91.5,-147.12 111,-139.5 116.89,-137.2 123.18,-135.02 129.44,-133.02"/>
<polygon fill="#63b8ff" stroke="#63b8ff" points="130.64,-136.31 139.18,-130.04 128.59,-129.62 130.64,-136.31"/>
</a>
</g>
</g>
<!-- Node46 -->
<g id="Node000046" class="node">
<title>Node46</title>
<g id="a_Node000046"><a xlink:href="ppppp_8cpp.html#a6dcbf3bfe96a469cacb8a075506998ea" target="_top" xlink:title="Prepare Satellite clocks to minimise residuals to broadcast orbits Provide a weak tiedown using mu va...">
<path fill="#fff0f0" stroke="red" d="M219.67,-93C219.67,-93 134.33,-93 134.33,-93 131.17,-93 128,-89.83 128,-86.67 128,-86.67 128,-80.33 128,-80.33 128,-77.17 131.17,-74 134.33,-74 134.33,-74 219.67,-74 219.67,-74 222.83,-74 226,-77.17 226,-80.33 226,-80.33 226,-86.67 226,-86.67 226,-89.83 222.83,-93 219.67,-93"/>
<text text-anchor="middle" x="177" y="-81" font-family="Helvetica,sans-Serif" font-size="10.00">updateAvgOrbits</text>
</a>
</g>
</g>
<!-- Node1&#45;&gt;Node46 -->
<g id="edge8_Node000001_Node000046" class="edge">
<title>Node1&#45;&gt;Node46</title>
<g id="a_edge8_Node000001_Node000046"><a xlink:title=" ">
<path fill="none" stroke="#63b8ff" d="M45.39,-165.92C57.11,-150.32 82.45,-119.48 111,-102.5 114.64,-100.34 118.54,-98.41 122.55,-96.68"/>
<polygon fill="#63b8ff" stroke="#63b8ff" points="123.98,-99.89 132.07,-93.04 121.48,-93.35 123.98,-99.89"/>
</a>
</g>
</g>
<!-- Node52 -->
<g id="Node000052" class="node">
<title>Node52</title>
<g id="a_Node000052"><a xlink:href="ppppp_8cpp.html#a45f0cda97e5e3cff2eeb13b2cea9562f" target="_top" xlink:title="Prepare stec values clocks to minimise residuals to klobuchar model.">
<path fill="#fff0f0" stroke="red" d="M231.67,-56C231.67,-56 122.33,-56 122.33,-56 119.17,-56 116,-52.83 116,-49.67 116,-49.67 116,-43.33 116,-43.33 116,-40.17 119.17,-37 122.33,-37 122.33,-37 231.67,-37 231.67,-37 234.83,-37 238,-40.17 238,-43.33 238,-43.33 238,-49.67 238,-49.67 238,-52.83 234.83,-56 231.67,-56"/>
<text text-anchor="middle" x="177" y="-44" font-family="Helvetica,sans-Serif" font-size="10.00">updateAvgIonosphere</text>
</a>
</g>
</g>
<!-- Node1&#45;&gt;Node52 -->
<g id="edge9_Node000001_Node000052" class="edge">
<title>Node1&#45;&gt;Node52</title>
<g id="a_edge9_Node000001_Node000052"><a xlink:title=" ">
<path fill="none" stroke="#63b8ff" d="M42.11,-165.91C50.65,-144.53 74.21,-92.68 111,-65.5 113.65,-63.54 116.49,-61.79 119.46,-60.21"/>
<polygon fill="#63b8ff" stroke="#63b8ff" points="121.03,-63.35 128.67,-56.01 118.12,-56.98 121.03,-63.35"/>
</a>
</g>
</g>
<!-- Node70 -->
<g id="Node000070" class="node">
<title>Node70</title>
<g id="a_Node000070"><a xlink:href="ppppp_8cpp.html#a0c7e9127b8ac6b4b5f865d1220efe547" target="_top" xlink:title=" ">
<path fill="#fff0f0" stroke="red" d="M229.17,-19C229.17,-19 124.83,-19 124.83,-19 121.67,-19 118.5,-15.83 118.5,-12.67 118.5,-12.67 118.5,-6.33 118.5,-6.33 118.5,-3.17 121.67,0 124.83,0 124.83,0 229.17,0 229.17,0 232.33,0 235.5,-3.17 235.5,-6.33 235.5,-6.33 235.5,-12.67 235.5,-12.67 235.5,-15.83 232.33,-19 229.17,-19"/>
<text text-anchor="middle" x="177" y="-7" font-family="Helvetica,sans-Serif" font-size="10.00">updatePseudoPulses</text>
</a>
</g>
</g>
<!-- Node1&#45;&gt;Node70 -->
<g id="edge10_Node000001_Node000070" class="edge">
<title>Node1&#45;&gt;Node70</title>
<g id="a_edge10_Node000001_Node000070"><a xlink:title=" ">
<path fill="none" stroke="#63b8ff" d="M40.41,-165.95C46.14,-139.82 65.67,-66.56 111,-28.5 113.01,-26.81 115.16,-25.28 117.42,-23.88"/>
<polygon fill="#63b8ff" stroke="#63b8ff" points="119.29,-26.84 126.54,-19.12 116.06,-20.64 119.29,-26.84"/>
</a>
</g>
</g>
</g>
</svg>
