<?xml version="1.0" encoding="UTF-8" standalone="no"?>
<!DOCTYPE svg PUBLIC "-//W3C//DTD SVG 1.1//EN"
 "http://www.w3.org/Graphics/SVG/1.1/DTD/svg11.dtd">
<!-- Generated by graphviz version 2.43.0 (0)
 -->
<!-- Title: propagateUncertainty Pages: 1 -->
<svg width="321pt" height="38pt"
 viewBox="0.00 0.00 321.00 38.00" xmlns="http://www.w3.org/2000/svg" xmlns:xlink="http://www.w3.org/1999/xlink">
<g id="graph0" class="graph" transform="scale(1 1) rotate(0) translate(4 34)">
<title>propagateUncertainty</title>
<!-- Node1 -->
<g id="Node000001" class="node">
<title>Node1</title>
<g id="a_Node000001"><a xlink:href="ppppp_8cpp.html#a091ee5a94bb94929a1d05e861f448a6a" target="_top" xlink:title=" ">
<path fill="#fff0f0" stroke="red" stroke-width="2" d="M306.67,-24.5C306.67,-24.5 196.33,-24.5 196.33,-24.5 193.17,-24.5 190,-21.33 190,-18.17 190,-18.17 190,-11.83 190,-11.83 190,-8.67 193.17,-5.5 196.33,-5.5 196.33,-5.5 306.67,-5.5 306.67,-5.5 309.83,-5.5 313,-8.67 313,-11.83 313,-11.83 313,-18.17 313,-18.17 313,-21.33 309.83,-24.5 306.67,-24.5"/>
<text text-anchor="middle" x="251.5" y="-12.5" font-family="Helvetica,sans-Serif" font-size="10.00">propagateUncertainty</text>
</a>
</g>
</g>
<!-- Node2 -->
<g id="Node000002" class="node">
<title>Node2</title>
<g id="a_Node000002"><a xlink:href="outputs_8cpp.html#abf277b1afcff7cb07fa2857b4a373100" target="_top" xlink:title=" ">
<path fill="#fff0f0" stroke="red" d="M144,-30C144,-30 10,-30 10,-30 5,-30 0,-25 0,-20 0,-20 0,-10 0,-10 0,-5 5,0 10,0 10,0 144,0 144,0 149,0 154,-5 154,-10 154,-10 154,-20 154,-20 154,-25 149,-30 144,-30"/>
<text text-anchor="start" x="8" y="-18" font-family="Helvetica,sans-Serif" font-size="10.00">perEpochPostProcessingAnd</text>
<text text-anchor="middle" x="77" y="-7" font-family="Helvetica,sans-Serif" font-size="10.00">Outputs</text>
</a>
</g>
</g>
<!-- Node1&#45;&gt;Node2 -->
<g id="edge1_Node000001_Node000002" class="edge">
<title>Node1&#45;&gt;Node2</title>
<g id="a_edge1_Node000001_Node000002"><a xlink:title=" ">
<path fill="none" stroke="#63b8ff" d="M179.61,-15C171.26,-15 162.71,-15 154.29,-15"/>
<polygon fill="#63b8ff" stroke="#63b8ff" points="179.68,-18.5 189.68,-15 179.68,-11.5 179.68,-18.5"/>
</a>
</g>
</g>
</g>
</svg>
