<?xml version="1.0" encoding="UTF-8" standalone="no"?>
<!DOCTYPE svg PUBLIC "-//W3C//DTD SVG 1.1//EN"
 "http://www.w3.org/Graphics/SVG/1.1/DTD/svg11.dtd">
<!-- Generated by graphviz version 2.43.0 (0)
 -->
<!-- Title: makeIFLCs Pages: 1 -->
<svg width="237pt" height="27pt"
 viewBox="0.00 0.00 237.00 27.00" xmlns="http://www.w3.org/2000/svg" xmlns:xlink="http://www.w3.org/1999/xlink">
<g id="graph0" class="graph" transform="scale(1 1) rotate(0) translate(4 23)">
<title>makeIFLCs</title>
<!-- Node1 -->
<g id="Node000001" class="node">
<title>Node1</title>
<g id="a_Node000001"><a xlink:href="ppppp_8cpp.html#ab356026e58d33b55b94febc58011ea6f" target="_top" xlink:title=" ">
<path fill="#fff0f0" stroke="red" stroke-width="2" d="M63.67,-19C63.67,-19 6.33,-19 6.33,-19 3.17,-19 0,-15.83 0,-12.67 0,-12.67 0,-6.33 0,-6.33 0,-3.17 3.17,0 6.33,0 6.33,0 63.67,0 63.67,0 66.83,0 70,-3.17 70,-6.33 70,-6.33 70,-12.67 70,-12.67 70,-15.83 66.83,-19 63.67,-19"/>
<text text-anchor="middle" x="35" y="-7" font-family="Helvetica,sans-Serif" font-size="10.00">makeIFLCs</text>
</a>
</g>
</g>
<!-- Node2 -->
<g id="Node000002" class="node">
<title>Node2</title>
<g id="a_Node000002"><a xlink:href="structKFState.html#a043f0e3fd99610dfad8e650a1514c395" target="_top" xlink:title="Remove a state from a kalman filter object.">
<path fill="#fff0f0" stroke="red" d="M222.67,-19C222.67,-19 112.33,-19 112.33,-19 109.17,-19 106,-15.83 106,-12.67 106,-12.67 106,-6.33 106,-6.33 106,-3.17 109.17,0 112.33,0 112.33,0 222.67,0 222.67,0 225.83,0 229,-3.17 229,-6.33 229,-6.33 229,-12.67 229,-12.67 229,-15.83 225.83,-19 222.67,-19"/>
<text text-anchor="middle" x="167.5" y="-7" font-family="Helvetica,sans-Serif" font-size="10.00">KFState::removeState</text>
</a>
</g>
</g>
<!-- Node1&#45;&gt;Node2 -->
<g id="edge1_Node000001_Node000002" class="edge">
<title>Node1&#45;&gt;Node2</title>
<g id="a_edge1_Node000001_Node000002"><a xlink:title=" ">
<path fill="none" stroke="#63b8ff" d="M70.29,-9.5C78.24,-9.5 87,-9.5 95.89,-9.5"/>
<polygon fill="#63b8ff" stroke="#63b8ff" points="95.94,-13 105.94,-9.5 95.94,-6 95.94,-13"/>
</a>
</g>
</g>
</g>
</svg>
