<?xml version="1.0" encoding="UTF-8" standalone="no"?>
<!DOCTYPE svg PUBLIC "-//W3C//DTD SVG 1.1//EN"
 "http://www.w3.org/Graphics/SVG/1.1/DTD/svg11.dtd">
<!-- Generated by graphviz version 2.43.0 (0)
 -->
<!-- Title: ppp Pages: 1 -->
<svg width="213pt" height="606pt"
 viewBox="0.00 0.00 213.00 606.00" xmlns="http://www.w3.org/2000/svg" xmlns:xlink="http://www.w3.org/1999/xlink">
<g id="graph0" class="graph" transform="scale(1 1) rotate(0) translate(4 602)">
<title>ppp</title>
<!-- Node1 -->
<g id="Node000001" class="node">
<title>Node1</title>
<g id="a_Node000001"><a xlink:href="ppppp_8cpp.html#a9997f03cab80cd8db895650860eb025e" target="_top" xlink:title=" ">
<path fill="#fff0f0" stroke="red" stroke-width="2" d="M28.67,-382C28.67,-382 6.33,-382 6.33,-382 3.17,-382 0,-378.83 0,-375.67 0,-375.67 0,-369.33 0,-369.33 0,-366.17 3.17,-363 6.33,-363 6.33,-363 28.67,-363 28.67,-363 31.83,-363 35,-366.17 35,-369.33 35,-369.33 35,-375.67 35,-375.67 35,-378.83 31.83,-382 28.67,-382"/>
<text text-anchor="middle" x="17.5" y="-370" font-family="Helvetica,sans-Serif" font-size="10.00">ppp</text>
</a>
</g>
</g>
<!-- Node2 -->
<g id="Node000002" class="node">
<title>Node2</title>
<g id="a_Node000002"><a xlink:href="ppppp_8cpp.html#a806c4571abfde8d490598ec186768d7f" target="_top" xlink:title="Primary estimation and filtering.">
<polygon fill="#88ff88" stroke="#00aa00" points="178.5,-598 97.5,-598 97.5,-579 178.5,-579 178.5,-598"/>
<text text-anchor="middle" x="138" y="-586" font-family="Helvetica,sans-Serif" font-size="10.00">Main_Filter__</text>
</a>
</g>
</g>
<!-- Node1&#45;&gt;Node2 -->
<g id="edge1_Node000001_Node000002" class="edge">
<title>Node1&#45;&gt;Node2</title>
<g id="a_edge1_Node000001_Node000002"><a xlink:title=" ">
<path fill="none" stroke="#63b8ff" d="M17.95,-382.38C16.72,-414.42 17.38,-516.5 71,-570.5 75.61,-575.15 81.3,-578.63 87.38,-581.23"/>
<polygon fill="#63b8ff" stroke="#63b8ff" points="86.58,-584.65 97.17,-584.63 88.88,-578.04 86.58,-584.65"/>
</a>
</g>
</g>
<!-- Node10 -->
<g id="Node000010" class="node">
<title>Node10</title>
<g id="a_Node000010"><a xlink:href="ppppp_8cpp.html#a84e7c899beed740758bb8da190184e65" target="_top" xlink:title=" ">
<path fill="#fff0f0" stroke="red" d="M169.17,-561C169.17,-561 106.83,-561 106.83,-561 103.67,-561 100.5,-557.83 100.5,-554.67 100.5,-554.67 100.5,-548.33 100.5,-548.33 100.5,-545.17 103.67,-542 106.83,-542 106.83,-542 169.17,-542 169.17,-542 172.33,-542 175.5,-545.17 175.5,-548.33 175.5,-548.33 175.5,-554.67 175.5,-554.67 175.5,-557.83 172.33,-561 169.17,-561"/>
<text text-anchor="middle" x="138" y="-549" font-family="Helvetica,sans-Serif" font-size="10.00">updateFilter</text>
</a>
</g>
</g>
<!-- Node1&#45;&gt;Node10 -->
<g id="edge2_Node000001_Node000010" class="edge">
<title>Node1&#45;&gt;Node10</title>
<g id="a_edge2_Node000001_Node000010"><a xlink:title=" ">
<path fill="none" stroke="#63b8ff" d="M18.69,-382.01C19.79,-409.52 26.8,-489.89 71,-532.5 76.43,-537.73 83.21,-541.54 90.33,-544.31"/>
<polygon fill="#63b8ff" stroke="#63b8ff" points="89.58,-547.74 100.17,-547.47 91.72,-541.08 89.58,-547.74"/>
</a>
</g>
</g>
<!-- Node81 -->
<g id="Node000081" class="node">
<title>Node81</title>
<g id="a_Node000081"><a xlink:href="structInteractiveTerminal.html#a1673a1bc7c18472e291aa3b1ed1bb1b7" target="_top" xlink:title=" ">
<path fill="#fff0f0" stroke="red" d="M183.5,-523.5C183.5,-523.5 92.5,-523.5 92.5,-523.5 87.5,-523.5 82.5,-518.5 82.5,-513.5 82.5,-513.5 82.5,-503.5 82.5,-503.5 82.5,-498.5 87.5,-493.5 92.5,-493.5 92.5,-493.5 183.5,-493.5 183.5,-493.5 188.5,-493.5 193.5,-498.5 193.5,-503.5 193.5,-503.5 193.5,-513.5 193.5,-513.5 193.5,-518.5 188.5,-523.5 183.5,-523.5"/>
<text text-anchor="start" x="90.5" y="-511.5" font-family="Helvetica,sans-Serif" font-size="10.00">InteractiveTerminal</text>
<text text-anchor="middle" x="138" y="-500.5" font-family="Helvetica,sans-Serif" font-size="10.00">::setMode</text>
</a>
</g>
</g>
<!-- Node1&#45;&gt;Node81 -->
<g id="edge3_Node000001_Node000081" class="edge">
<title>Node1&#45;&gt;Node81</title>
<g id="a_edge3_Node000001_Node000081"><a xlink:title=" ">
<path fill="none" stroke="#63b8ff" d="M21.7,-382.11C27.47,-402.64 41.84,-448.84 71,-475.5 77.6,-481.54 85.84,-486.09 94.24,-489.71"/>
<polygon fill="#63b8ff" stroke="#63b8ff" points="93.12,-493.03 103.71,-493.45 95.69,-486.52 93.12,-493.03"/>
</a>
</g>
</g>
<!-- Node1&#45;&gt;Node81 -->
<g id="edge7_Node000001_Node000081" class="edge">
<title>Node1&#45;&gt;Node81</title>
<g id="a_edge7_Node000001_Node000081"><a xlink:title=" ">
<path fill="none" stroke="#63b8ff" d="M19.59,-382.12C23.31,-405.6 37.24,-462.64 71,-493.5 71.96,-494.38 72.96,-495.23 73.98,-496.04"/>
<polygon fill="#63b8ff" stroke="#63b8ff" points="72.12,-499.01 82.37,-501.7 76.04,-493.21 72.12,-499.01"/>
</a>
</g>
</g>
<!-- Node84 -->
<g id="Node000084" class="node">
<title>Node84</title>
<g id="a_Node000084"><a xlink:href="structKFState.html#a7f8e4b9291361c063cef8d9178f07707" target="_top" xlink:title="Add process noise and dynamics to filter object according to time gap.">
<path fill="#fff0f0" stroke="red" d="M197.67,-475C197.67,-475 78.33,-475 78.33,-475 75.17,-475 72,-471.83 72,-468.67 72,-468.67 72,-462.33 72,-462.33 72,-459.17 75.17,-456 78.33,-456 78.33,-456 197.67,-456 197.67,-456 200.83,-456 204,-459.17 204,-462.33 204,-462.33 204,-468.67 204,-468.67 204,-471.83 200.83,-475 197.67,-475"/>
<text text-anchor="middle" x="138" y="-463" font-family="Helvetica,sans-Serif" font-size="10.00">KFState::stateTransition</text>
</a>
</g>
</g>
<!-- Node1&#45;&gt;Node84 -->
<g id="edge4_Node000001_Node000084" class="edge">
<title>Node1&#45;&gt;Node84</title>
<g id="a_edge4_Node000001_Node000084"><a xlink:title=" ">
<path fill="none" stroke="#63b8ff" d="M25.71,-382.15C34.13,-396.94 49.68,-423.5 71,-438.5 81.37,-445.79 94.56,-450.14 106.43,-453.37"/>
<polygon fill="#63b8ff" stroke="#63b8ff" points="105.84,-456.84 116.4,-455.97 107.61,-450.06 105.84,-456.84"/>
</a>
</g>
</g>
<!-- Node1&#45;&gt;Node84 -->
<g id="edge11_Node000001_Node000084" class="edge">
<title>Node1&#45;&gt;Node84</title>
<g id="a_edge11_Node000001_Node000084"><a xlink:title=" ">
<path fill="none" stroke="#63b8ff" d="M20.66,-382.12C25.95,-398.7 40.75,-430.32 63.76,-450.67"/>
<polygon fill="#63b8ff" stroke="#63b8ff" points="61.87,-453.64 71.88,-457.11 66.22,-448.15 61.87,-453.64"/>
</a>
</g>
</g>
<!-- Node92 -->
<g id="Node000092" class="node">
<title>Node92</title>
<g id="a_Node000092"><a xlink:href="structKFState.html#a0c84e911a5ea760fe728baec661e33f0" target="_top" xlink:title="Output keys and states in human readable format.">
<path fill="#fff0f0" stroke="red" d="M192.67,-438C192.67,-438 83.33,-438 83.33,-438 80.17,-438 77,-434.83 77,-431.67 77,-431.67 77,-425.33 77,-425.33 77,-422.17 80.17,-419 83.33,-419 83.33,-419 192.67,-419 192.67,-419 195.83,-419 199,-422.17 199,-425.33 199,-425.33 199,-431.67 199,-431.67 199,-434.83 195.83,-438 192.67,-438"/>
<text text-anchor="middle" x="138" y="-426" font-family="Helvetica,sans-Serif" font-size="10.00">KFState::outputStates</text>
</a>
</g>
</g>
<!-- Node1&#45;&gt;Node92 -->
<g id="edge5_Node000001_Node000092" class="edge">
<title>Node1&#45;&gt;Node92</title>
<g id="a_edge5_Node000001_Node000092"><a xlink:title=" ">
<path fill="none" stroke="#63b8ff" d="M35.01,-378.96C44.88,-385.78 58.01,-395.28 71,-401.5 83.89,-407.67 99.24,-412.02 111.89,-415.82"/>
<polygon fill="#63b8ff" stroke="#63b8ff" points="111.18,-419.27 121.77,-418.92 113.28,-412.59 111.18,-419.27"/>
</a>
</g>
</g>
<!-- Node1&#45;&gt;Node92 -->
<g id="edge12_Node000001_Node000092" class="edge">
<title>Node1&#45;&gt;Node92</title>
<g id="a_edge12_Node000001_Node000092"><a xlink:title=" ">
<path fill="none" stroke="#63b8ff" d="M23.32,-382.26C31.04,-392.36 46.99,-406.23 67.75,-417.5"/>
<polygon fill="#63b8ff" stroke="#63b8ff" points="66.43,-420.75 76.93,-422.14 69.59,-414.5 66.43,-420.75"/>
</a>
</g>
</g>
<!-- Node93 -->
<g id="Node000093" class="node">
<title>Node93</title>
<g id="a_Node000093"><a xlink:href="mongoWrite_8cpp.html#a7b0669675f4db278af7db5cb0b0dee6a" target="_top" xlink:title=" ">
<path fill="#fff0f0" stroke="red" d="M172.17,-401C172.17,-401 103.83,-401 103.83,-401 100.67,-401 97.5,-397.83 97.5,-394.67 97.5,-394.67 97.5,-388.33 97.5,-388.33 97.5,-385.17 100.67,-382 103.83,-382 103.83,-382 172.17,-382 172.17,-382 175.33,-382 178.5,-385.17 178.5,-388.33 178.5,-388.33 178.5,-394.67 178.5,-394.67 178.5,-397.83 175.33,-401 172.17,-401"/>
<text text-anchor="middle" x="138" y="-389" font-family="Helvetica,sans-Serif" font-size="10.00">mongoStates</text>
</a>
</g>
</g>
<!-- Node1&#45;&gt;Node93 -->
<g id="edge6_Node000001_Node000093" class="edge">
<title>Node1&#45;&gt;Node93</title>
<g id="a_edge6_Node000001_Node000093"><a xlink:title=" ">
<path fill="none" stroke="#63b8ff" d="M35.23,-370.31C52.63,-371.17 80.38,-375.18 102.51,-379.77"/>
<polygon fill="#63b8ff" stroke="#63b8ff" points="102.02,-383.25 112.54,-381.99 103.53,-376.41 102.02,-383.25"/>
</a>
</g>
</g>
<!-- Node1&#45;&gt;Node93 -->
<g id="edge13_Node000001_Node000093" class="edge">
<title>Node1&#45;&gt;Node93</title>
<g id="a_edge13_Node000001_Node000093"><a xlink:title=" ">
<path fill="none" stroke="#63b8ff" d="M35.23,-380.05C48.79,-383.73 68.64,-387.52 87.22,-390.19"/>
<polygon fill="#63b8ff" stroke="#63b8ff" points="86.98,-393.69 97.36,-391.55 87.91,-386.75 86.98,-393.69"/>
</a>
</g>
</g>
<!-- Node104 -->
<g id="Node000104" class="node">
<title>Node104</title>
<g id="a_Node000104"><a xlink:href="ppppp_8cpp.html#a9f0055b196fa9b0f49c0a42622282e46" target="_top" xlink:title=" ">
<path fill="#fff0f0" stroke="red" d="M193.17,-364C193.17,-364 82.83,-364 82.83,-364 79.67,-364 76.5,-360.83 76.5,-357.67 76.5,-357.67 76.5,-351.33 76.5,-351.33 76.5,-348.17 79.67,-345 82.83,-345 82.83,-345 193.17,-345 193.17,-345 196.33,-345 199.5,-348.17 199.5,-351.33 199.5,-351.33 199.5,-357.67 199.5,-357.67 199.5,-360.83 196.33,-364 193.17,-364"/>
<text text-anchor="middle" x="138" y="-352" font-family="Helvetica,sans-Serif" font-size="10.00">perRecMeasurements</text>
</a>
</g>
</g>
<!-- Node1&#45;&gt;Node104 -->
<g id="edge8_Node000001_Node000104" class="edge">
<title>Node1&#45;&gt;Node104</title>
<g id="a_edge8_Node000001_Node000104"><a xlink:title=" ">
<path fill="none" stroke="#63b8ff" d="M35.23,-369.96C43.8,-368.66 54.88,-366.97 66.57,-365.2"/>
<polygon fill="#63b8ff" stroke="#63b8ff" points="67.12,-368.65 76.48,-363.69 66.07,-361.73 67.12,-368.65"/>
</a>
</g>
</g>
<!-- Node323 -->
<g id="Node000323" class="node">
<title>Node323</title>
<g id="a_Node000323"><a xlink:href="ppppp_8cpp.html#adee5cf8c5398c5f37f21bc6856e32f6e" target="_top" xlink:title=" ">
<path fill="#fff0f0" stroke="red" d="M176.17,-327C176.17,-327 99.83,-327 99.83,-327 96.67,-327 93.5,-323.83 93.5,-320.67 93.5,-320.67 93.5,-314.33 93.5,-314.33 93.5,-311.17 96.67,-308 99.83,-308 99.83,-308 176.17,-308 176.17,-308 179.33,-308 182.5,-311.17 182.5,-314.33 182.5,-314.33 182.5,-320.67 182.5,-320.67 182.5,-323.83 179.33,-327 176.17,-327"/>
<text text-anchor="middle" x="138" y="-315" font-family="Helvetica,sans-Serif" font-size="10.00">pppPseudoObs</text>
</a>
</g>
</g>
<!-- Node1&#45;&gt;Node323 -->
<g id="edge9_Node000001_Node000323" class="edge">
<title>Node1&#45;&gt;Node323</title>
<g id="a_edge9_Node000001_Node000323"><a xlink:title=" ">
<path fill="none" stroke="#63b8ff" d="M30.34,-362.73C40.56,-354.72 56.01,-343.57 71,-336.5 75.92,-334.18 81.18,-332.08 86.51,-330.2"/>
<polygon fill="#63b8ff" stroke="#63b8ff" points="87.7,-333.5 96.11,-327.05 85.52,-326.85 87.7,-333.5"/>
</a>
</g>
</g>
<!-- Node341 -->
<g id="Node000341" class="node">
<title>Node341</title>
<g id="a_Node000341"><a xlink:href="ppppp_8cpp.html#ac4ee2f4831d6f1b5d780bb526ce53b73" target="_top" xlink:title=" ">
<path fill="#fff0f0" stroke="red" d="M181.17,-290C181.17,-290 94.83,-290 94.83,-290 91.67,-290 88.5,-286.83 88.5,-283.67 88.5,-283.67 88.5,-277.33 88.5,-277.33 88.5,-274.17 91.67,-271 94.83,-271 94.83,-271 181.17,-271 181.17,-271 184.33,-271 187.5,-274.17 187.5,-277.33 187.5,-277.33 187.5,-283.67 187.5,-283.67 187.5,-286.83 184.33,-290 181.17,-290"/>
<text text-anchor="middle" x="138" y="-278" font-family="Helvetica,sans-Serif" font-size="10.00">mergeCorrelated</text>
</a>
</g>
</g>
<!-- Node1&#45;&gt;Node341 -->
<g id="edge10_Node000001_Node000341" class="edge">
<title>Node1&#45;&gt;Node341</title>
<g id="a_edge10_Node000001_Node000341"><a xlink:title=" ">
<path fill="none" stroke="#63b8ff" d="M22.81,-362.86C30.31,-347.18 47.26,-316.22 71,-299.5 73.73,-297.58 76.65,-295.85 79.69,-294.29"/>
<polygon fill="#63b8ff" stroke="#63b8ff" points="81.36,-297.38 89.09,-290.13 78.53,-290.98 81.36,-297.38"/>
</a>
</g>
</g>
<!-- Node343 -->
<g id="Node000343" class="node">
<title>Node343</title>
<g id="a_Node000343"><a xlink:href="ppppp_8cpp.html#a472ab40be352ddb8dc211e3eda9795e5" target="_top" xlink:title=" ">
<path fill="#fff0f0" stroke="red" d="M197.67,-253C197.67,-253 78.33,-253 78.33,-253 75.17,-253 72,-249.83 72,-246.67 72,-246.67 72,-240.33 72,-240.33 72,-237.17 75.17,-234 78.33,-234 78.33,-234 197.67,-234 197.67,-234 200.83,-234 204,-237.17 204,-240.33 204,-240.33 204,-246.67 204,-246.67 204,-249.83 200.83,-253 197.67,-253"/>
<text text-anchor="middle" x="138" y="-241" font-family="Helvetica,sans-Serif" font-size="10.00">pppLinearCombinations</text>
</a>
</g>
</g>
<!-- Node1&#45;&gt;Node343 -->
<g id="edge14_Node000001_Node000343" class="edge">
<title>Node1&#45;&gt;Node343</title>
<g id="a_edge14_Node000001_Node000343"><a xlink:title=" ">
<path fill="none" stroke="#63b8ff" d="M20.3,-362.94C24.83,-341.61 38.71,-289.86 71,-262.5 72.99,-260.81 75.12,-259.28 77.36,-257.88"/>
<polygon fill="#63b8ff" stroke="#63b8ff" points="79.18,-260.87 86.41,-253.12 75.93,-254.68 79.18,-260.87"/>
</a>
</g>
</g>
<!-- Node347 -->
<g id="Node000347" class="node">
<title>Node347</title>
<g id="a_Node000347"><a xlink:href="ppppp_8cpp.html#a4b5d474b51c1ecdced800480c9eff4c8" target="_top" xlink:title=" ">
<path fill="#fff0f0" stroke="red" d="M194.17,-216C194.17,-216 81.83,-216 81.83,-216 78.67,-216 75.5,-212.83 75.5,-209.67 75.5,-209.67 75.5,-203.33 75.5,-203.33 75.5,-200.17 78.67,-197 81.83,-197 81.83,-197 194.17,-197 194.17,-197 197.33,-197 200.5,-200.17 200.5,-203.33 200.5,-203.33 200.5,-209.67 200.5,-209.67 200.5,-212.83 197.33,-216 194.17,-216"/>
<text text-anchor="middle" x="138" y="-204" font-family="Helvetica,sans-Serif" font-size="10.00">explainMeasurements</text>
</a>
</g>
</g>
<!-- Node1&#45;&gt;Node347 -->
<g id="edge15_Node000001_Node000347" class="edge">
<title>Node1&#45;&gt;Node347</title>
<g id="a_edge15_Node000001_Node000347"><a xlink:title=" ">
<path fill="none" stroke="#63b8ff" d="M19.04,-362.63C21.02,-336.31 30.11,-263.9 71,-225.5 72.66,-223.94 74.44,-222.51 76.31,-221.19"/>
<polygon fill="#63b8ff" stroke="#63b8ff" points="78.13,-224.19 85.03,-216.14 74.62,-218.13 78.13,-224.19"/>
</a>
</g>
</g>
<!-- Node348 -->
<g id="Node000348" class="node">
<title>Node348</title>
<g id="a_Node000348"><a xlink:href="ppppp_8cpp.html#ae4469a04171cca583bbf37c4443b3dd3" target="_top" xlink:title=" ">
<path fill="#fff0f0" stroke="red" d="M180.17,-179C180.17,-179 95.83,-179 95.83,-179 92.67,-179 89.5,-175.83 89.5,-172.67 89.5,-172.67 89.5,-166.33 89.5,-166.33 89.5,-163.17 92.67,-160 95.83,-160 95.83,-160 180.17,-160 180.17,-160 183.33,-160 186.5,-163.17 186.5,-166.33 186.5,-166.33 186.5,-172.67 186.5,-172.67 186.5,-175.83 183.33,-179 180.17,-179"/>
<text text-anchor="middle" x="138" y="-167" font-family="Helvetica,sans-Serif" font-size="10.00">alternatePostfits</text>
</a>
</g>
</g>
<!-- Node1&#45;&gt;Node348 -->
<g id="edge16_Node000001_Node000348" class="edge">
<title>Node1&#45;&gt;Node348</title>
<g id="a_edge16_Node000001_Node000348"><a xlink:title=" ">
<path fill="none" stroke="#63b8ff" d="M18.22,-362.91C17.87,-332.71 21.03,-238.59 71,-188.5 73.73,-185.76 76.82,-183.42 80.15,-181.4"/>
<polygon fill="#63b8ff" stroke="#63b8ff" points="82,-184.4 89.4,-176.81 78.88,-178.12 82,-184.4"/>
</a>
</g>
</g>
<!-- Node303 -->
<g id="Node000303" class="node">
<title>Node303</title>
<g id="a_Node000303"><a xlink:href="structKFState.html#ae1fc274c403b77dc814ed90763b4dea1" target="_top" xlink:title="Least squares estimator for new kalman filter states.">
<path fill="#fff0f0" stroke="red" d="M195,-141.5C195,-141.5 81,-141.5 81,-141.5 76,-141.5 71,-136.5 71,-131.5 71,-131.5 71,-121.5 71,-121.5 71,-116.5 76,-111.5 81,-111.5 81,-111.5 195,-111.5 195,-111.5 200,-111.5 205,-116.5 205,-121.5 205,-121.5 205,-131.5 205,-131.5 205,-136.5 200,-141.5 195,-141.5"/>
<text text-anchor="start" x="79" y="-129.5" font-family="Helvetica,sans-Serif" font-size="10.00">KFState::leastSquareInit</text>
<text text-anchor="middle" x="138" y="-118.5" font-family="Helvetica,sans-Serif" font-size="10.00">States</text>
</a>
</g>
</g>
<!-- Node1&#45;&gt;Node303 -->
<g id="edge17_Node000001_Node000303" class="edge">
<title>Node1&#45;&gt;Node303</title>
<g id="a_edge17_Node000001_Node000303"><a xlink:title=" ">
<path fill="none" stroke="#63b8ff" d="M19.59,-362.81C24.09,-324.51 42.3,-184.16 71,-151.5 72.17,-150.17 73.41,-148.91 74.73,-147.72"/>
<polygon fill="#63b8ff" stroke="#63b8ff" points="76.98,-150.41 82.87,-141.6 72.77,-144.81 76.98,-150.41"/>
</a>
</g>
</g>
<!-- Node349 -->
<g id="Node000349" class="node">
<title>Node349</title>
<g id="a_Node000349"><a xlink:href="ppppp_8cpp.html#a4bd02d0de545b2ca7460a6644b6d5ba8" target="_top" xlink:title=" ">
<path fill="#fff0f0" stroke="red" d="M167.17,-93C167.17,-93 108.83,-93 108.83,-93 105.67,-93 102.5,-89.83 102.5,-86.67 102.5,-86.67 102.5,-80.33 102.5,-80.33 102.5,-77.17 105.67,-74 108.83,-74 108.83,-74 167.17,-74 167.17,-74 170.33,-74 173.5,-77.17 173.5,-80.33 173.5,-80.33 173.5,-86.67 173.5,-86.67 173.5,-89.83 170.33,-93 167.17,-93"/>
<text text-anchor="middle" x="138" y="-81" font-family="Helvetica,sans-Serif" font-size="10.00">chunkFilter</text>
</a>
</g>
</g>
<!-- Node1&#45;&gt;Node349 -->
<g id="edge18_Node000001_Node000349" class="edge">
<title>Node1&#45;&gt;Node349</title>
<g id="a_edge18_Node000001_Node000349"><a xlink:title=" ">
<path fill="none" stroke="#63b8ff" d="M19.06,-362.75C21.78,-319.08 34.89,-141.95 71,-102.5 76.79,-96.18 84.53,-91.91 92.67,-89.04"/>
<polygon fill="#63b8ff" stroke="#63b8ff" points="93.67,-92.39 102.31,-86.27 91.74,-85.66 93.67,-92.39"/>
</a>
</g>
</g>
<!-- Node305 -->
<g id="Node000305" class="node">
<title>Node305</title>
<g id="a_Node000305"><a xlink:href="structKFState.html#a0d12c57e70876543084c182a660bbbd3" target="_top" xlink:title="Kalman filter operation.">
<path fill="#fff0f0" stroke="red" d="M191.67,-56C191.67,-56 84.33,-56 84.33,-56 81.17,-56 78,-52.83 78,-49.67 78,-49.67 78,-43.33 78,-43.33 78,-40.17 81.17,-37 84.33,-37 84.33,-37 191.67,-37 191.67,-37 194.83,-37 198,-40.17 198,-43.33 198,-43.33 198,-49.67 198,-49.67 198,-52.83 194.83,-56 191.67,-56"/>
<text text-anchor="middle" x="138" y="-44" font-family="Helvetica,sans-Serif" font-size="10.00">KFState::filterKalman</text>
</a>
</g>
</g>
<!-- Node1&#45;&gt;Node305 -->
<g id="edge19_Node000001_Node000305" class="edge">
<title>Node1&#45;&gt;Node305</title>
<g id="a_edge19_Node000001_Node000305"><a xlink:title=" ">
<path fill="none" stroke="#63b8ff" d="M18.82,-362.72C20.53,-315.43 30.26,-111.03 71,-65.5 72.18,-64.19 73.43,-62.96 74.77,-61.82"/>
<polygon fill="#63b8ff" stroke="#63b8ff" points="76.79,-64.68 83.06,-56.14 72.83,-58.9 76.79,-64.68"/>
</a>
</g>
</g>
<!-- Node350 -->
<g id="Node000350" class="node">
<title>Node350</title>
<g id="a_Node000350"><a xlink:href="ppp_8cpp.html#a014adee2aadcb5dab410a23c4a9d5aa4" target="_top" xlink:title=" ">
<path fill="#fff0f0" stroke="red" d="M180.67,-19C180.67,-19 95.33,-19 95.33,-19 92.17,-19 89,-15.83 89,-12.67 89,-12.67 89,-6.33 89,-6.33 89,-3.17 92.17,0 95.33,0 95.33,0 180.67,0 180.67,0 183.83,0 187,-3.17 187,-6.33 187,-6.33 187,-12.67 187,-12.67 187,-15.83 183.83,-19 180.67,-19"/>
<text text-anchor="middle" x="138" y="-7" font-family="Helvetica,sans-Serif" font-size="10.00">postFilterChecks</text>
</a>
</g>
</g>
<!-- Node1&#45;&gt;Node350 -->
<g id="edge20_Node000001_Node000350" class="edge">
<title>Node1&#45;&gt;Node350</title>
<g id="a_edge20_Node000001_Node000350"><a xlink:title=" ">
<path fill="none" stroke="#63b8ff" d="M18.62,-362.91C19.41,-312.68 25.54,-80.23 71,-28.5 73.55,-25.6 76.51,-23.13 79.74,-21.02"/>
<polygon fill="#63b8ff" stroke="#63b8ff" points="81.58,-24.01 88.81,-16.27 78.33,-17.81 81.58,-24.01"/>
</a>
</g>
</g>
</g>
</svg>
