<?xml version="1.0" encoding="UTF-8" standalone="no"?>
<!DOCTYPE svg PUBLIC "-//W3C//DTD SVG 1.1//EN"
 "http://www.w3.org/Graphics/SVG/1.1/DTD/svg11.dtd">
<!-- Generated by graphviz version 2.43.0 (0)
 -->
<!-- Title: rtsOutput Pages: 1 -->
<svg width="407pt" height="214pt"
 viewBox="0.00 0.00 407.00 213.71" xmlns="http://www.w3.org/2000/svg" xmlns:xlink="http://www.w3.org/1999/xlink">
<g id="graph0" class="graph" transform="scale(1 1) rotate(0) translate(4 209.71)">
<title>rtsOutput</title>
<!-- Node1 -->
<g id="Node000001" class="node">
<title>Node1</title>
<g id="a_Node000001"><a xlink:href="rtsSmoothing_8cpp.html#af82d06646904f0d6b4ede3c573dead48" target="_top" xlink:title="Output filter states in chronological order from a reversed binary trace file.">
<path fill="#fff0f0" stroke="red" stroke-width="2" d="M55.67,-141.5C55.67,-141.5 6.33,-141.5 6.33,-141.5 3.17,-141.5 0,-138.33 0,-135.17 0,-135.17 0,-128.83 0,-128.83 0,-125.67 3.17,-122.5 6.33,-122.5 6.33,-122.5 55.67,-122.5 55.67,-122.5 58.83,-122.5 62,-125.67 62,-128.83 62,-128.83 62,-135.17 62,-135.17 62,-138.33 58.83,-141.5 55.67,-141.5"/>
<text text-anchor="middle" x="31" y="-129.5" font-family="Helvetica,sans-Serif" font-size="10.00">rtsOutput</text>
</a>
</g>
</g>
<!-- Node2 -->
<g id="Node000002" class="node">
<title>Node2</title>
<g id="a_Node000002"><a xlink:href="structInteractiveTerminal.html#a1673a1bc7c18472e291aa3b1ed1bb1b7" target="_top" xlink:title=" ">
<path fill="#fff0f0" stroke="red" d="M389,-126C389,-126 298,-126 298,-126 293,-126 288,-121 288,-116 288,-116 288,-106 288,-106 288,-101 293,-96 298,-96 298,-96 389,-96 389,-96 394,-96 399,-101 399,-106 399,-106 399,-116 399,-116 399,-121 394,-126 389,-126"/>
<text text-anchor="start" x="296" y="-114" font-family="Helvetica,sans-Serif" font-size="10.00">InteractiveTerminal</text>
<text text-anchor="middle" x="343.5" y="-103" font-family="Helvetica,sans-Serif" font-size="10.00">::setMode</text>
</a>
</g>
</g>
<!-- Node1&#45;&gt;Node2 -->
<g id="edge1_Node000001_Node000002" class="edge">
<title>Node1&#45;&gt;Node2</title>
<g id="a_edge1_Node000001_Node000002"><a xlink:title=" ">
<path fill="none" stroke="#63b8ff" d="M39.65,-141.86C50.79,-155.31 72.89,-178.78 98,-188 162.25,-211.59 187.76,-211.63 252,-188 281.18,-177.27 307.36,-152.49 323.97,-133.92"/>
<polygon fill="#63b8ff" stroke="#63b8ff" points="326.8,-136 330.69,-126.15 321.5,-131.42 326.8,-136"/>
</a>
</g>
</g>
<!-- Node6 -->
<g id="Node000006" class="node">
<title>Node6</title>
<g id="a_Node000006"><a xlink:href="algebraTrace_8cpp.html#aa526df463f08398d3cb422d191c56cfb" target="_top" xlink:title="Returns the type of object that is located at the specified position in a file.">
<path fill="#fff0f0" stroke="red" d="M229.67,-178.5C229.67,-178.5 120.33,-178.5 120.33,-178.5 117.17,-178.5 114,-175.33 114,-172.17 114,-172.17 114,-165.83 114,-165.83 114,-162.67 117.17,-159.5 120.33,-159.5 120.33,-159.5 229.67,-159.5 229.67,-159.5 232.83,-159.5 236,-162.67 236,-165.83 236,-165.83 236,-172.17 236,-172.17 236,-175.33 232.83,-178.5 229.67,-178.5"/>
<text text-anchor="middle" x="175" y="-166.5" font-family="Helvetica,sans-Serif" font-size="10.00">getFilterTypeFromFile</text>
</a>
</g>
</g>
<!-- Node1&#45;&gt;Node6 -->
<g id="edge2_Node000001_Node000006" class="edge">
<title>Node1&#45;&gt;Node6</title>
<g id="a_edge2_Node000001_Node000006"><a xlink:title=" ">
<path fill="none" stroke="#63b8ff" d="M62.14,-141.01C73.37,-144.27 86.24,-147.92 98,-151 105.83,-153.05 114.15,-155.13 122.29,-157.1"/>
<polygon fill="#63b8ff" stroke="#63b8ff" points="121.56,-160.53 132.1,-159.45 123.19,-153.72 121.56,-160.53"/>
</a>
</g>
</g>
<!-- Node7 -->
<g id="Node000007" class="node">
<title>Node7</title>
<g id="a_Node000007"><a xlink:href="algebraTrace_8hpp.html#a11e5c6e06d30600e55dc2c71f015d0f3" target="_top" xlink:title=" ">
<path fill="#fff0f0" stroke="red" d="M234.17,-141.5C234.17,-141.5 115.83,-141.5 115.83,-141.5 112.67,-141.5 109.5,-138.33 109.5,-135.17 109.5,-135.17 109.5,-128.83 109.5,-128.83 109.5,-125.67 112.67,-122.5 115.83,-122.5 115.83,-122.5 234.17,-122.5 234.17,-122.5 237.33,-122.5 240.5,-125.67 240.5,-128.83 240.5,-128.83 240.5,-135.17 240.5,-135.17 240.5,-138.33 237.33,-141.5 234.17,-141.5"/>
<text text-anchor="middle" x="175" y="-129.5" font-family="Helvetica,sans-Serif" font-size="10.00">getFilterObjectFromFile</text>
</a>
</g>
</g>
<!-- Node1&#45;&gt;Node7 -->
<g id="edge3_Node000001_Node000007" class="edge">
<title>Node1&#45;&gt;Node7</title>
<g id="a_edge3_Node000001_Node000007"><a xlink:title=" ">
<path fill="none" stroke="#63b8ff" d="M62.11,-126.36C73.14,-125.68 86.17,-125.32 99.36,-125.26"/>
<polygon fill="#63b8ff" stroke="#63b8ff" points="99.45,-128.76 109.45,-125.27 99.46,-121.76 99.45,-128.76"/>
</a>
</g>
</g>
<!-- Node1&#45;&gt;Node7 -->
<g id="edge4_Node000001_Node000007" class="edge">
<title>Node1&#45;&gt;Node7</title>
<g id="a_edge4_Node000001_Node000007"><a xlink:title=" ">
<path fill="none" stroke="#63b8ff" d="M62.11,-137.64C73.14,-138.32 86.17,-138.68 99.36,-138.74"/>
<polygon fill="#63b8ff" stroke="#63b8ff" points="99.46,-142.24 109.45,-138.73 99.45,-135.24 99.46,-142.24"/>
</a>
</g>
</g>
<!-- Node8 -->
<g id="Node000008" class="node">
<title>Node8</title>
<g id="a_Node000008"><a xlink:href="algebra_8cpp.html#aeb9b81b7f95c771aa529d3fddde7d466" target="_top" xlink:title=" ">
<path fill="#fff0f0" stroke="red" d="M216.17,-104.5C216.17,-104.5 133.83,-104.5 133.83,-104.5 130.67,-104.5 127.5,-101.33 127.5,-98.17 127.5,-98.17 127.5,-91.83 127.5,-91.83 127.5,-88.67 130.67,-85.5 133.83,-85.5 133.83,-85.5 216.17,-85.5 216.17,-85.5 219.33,-85.5 222.5,-88.67 222.5,-91.83 222.5,-91.83 222.5,-98.17 222.5,-98.17 222.5,-101.33 219.33,-104.5 216.17,-104.5"/>
<text text-anchor="middle" x="175" y="-92.5" font-family="Helvetica,sans-Serif" font-size="10.00">outputResiduals</text>
</a>
</g>
</g>
<!-- Node1&#45;&gt;Node8 -->
<g id="edge5_Node000001_Node000008" class="edge">
<title>Node1&#45;&gt;Node8</title>
<g id="a_edge5_Node000001_Node000008"><a xlink:title=" ">
<path fill="none" stroke="#63b8ff" d="M62.19,-123.62C73.42,-120.54 86.28,-117.06 98,-114 106.89,-111.68 116.38,-109.26 125.54,-106.95"/>
<polygon fill="#63b8ff" stroke="#63b8ff" points="126.45,-110.33 135.3,-104.51 124.75,-103.54 126.45,-110.33"/>
</a>
</g>
</g>
<!-- Node10 -->
<g id="Node000010" class="node">
<title>Node10</title>
<g id="a_Node000010"><a xlink:href="mongoWrite_8cpp.html#a80b870679e2666999af874ba9580269a" target="_top" xlink:title=" ">
<path fill="#fff0f0" stroke="red" d="M230.67,-67.5C230.67,-67.5 119.33,-67.5 119.33,-67.5 116.17,-67.5 113,-64.33 113,-61.17 113,-61.17 113,-54.83 113,-54.83 113,-51.67 116.17,-48.5 119.33,-48.5 119.33,-48.5 230.67,-48.5 230.67,-48.5 233.83,-48.5 237,-51.67 237,-54.83 237,-54.83 237,-61.17 237,-61.17 237,-64.33 233.83,-67.5 230.67,-67.5"/>
<text text-anchor="middle" x="175" y="-55.5" font-family="Helvetica,sans-Serif" font-size="10.00">mongoMeasResiduals</text>
</a>
</g>
</g>
<!-- Node1&#45;&gt;Node10 -->
<g id="edge6_Node000001_Node000010" class="edge">
<title>Node1&#45;&gt;Node10</title>
<g id="a_edge6_Node000001_Node000010"><a xlink:title=" ">
<path fill="none" stroke="#63b8ff" d="M40.85,-122.3C52.69,-109.94 74.86,-88.75 98,-77 102.58,-74.67 107.47,-72.62 112.46,-70.81"/>
<polygon fill="#63b8ff" stroke="#63b8ff" points="113.76,-74.07 122.17,-67.62 111.57,-67.42 113.76,-74.07"/>
</a>
</g>
</g>
<!-- Node24 -->
<g id="Node000024" class="node">
<title>Node24</title>
<g id="a_Node000024"><a xlink:href="outputs_8cpp.html#abf277b1afcff7cb07fa2857b4a373100" target="_top" xlink:title=" ">
<path fill="#fff0f0" stroke="red" d="M242,-30C242,-30 108,-30 108,-30 103,-30 98,-25 98,-20 98,-20 98,-10 98,-10 98,-5 103,0 108,0 108,0 242,0 242,0 247,0 252,-5 252,-10 252,-10 252,-20 252,-20 252,-25 247,-30 242,-30"/>
<text text-anchor="start" x="106" y="-18" font-family="Helvetica,sans-Serif" font-size="10.00">perEpochPostProcessingAnd</text>
<text text-anchor="middle" x="175" y="-7" font-family="Helvetica,sans-Serif" font-size="10.00">Outputs</text>
</a>
</g>
</g>
<!-- Node1&#45;&gt;Node24 -->
<g id="edge7_Node000001_Node000024" class="edge">
<title>Node1&#45;&gt;Node24</title>
<g id="a_edge7_Node000001_Node000024"><a xlink:title=" ">
<path fill="none" stroke="#63b8ff" d="M36.33,-122.4C45.21,-103.76 67.26,-62.56 98,-40 100.63,-38.07 103.42,-36.28 106.32,-34.63"/>
<polygon fill="#63b8ff" stroke="#63b8ff" points="107.95,-37.72 115.27,-30.06 104.77,-31.49 107.95,-37.72"/>
</a>
</g>
</g>
<!-- Node24&#45;&gt;Node2 -->
<g id="edge8_Node000024_Node000002" class="edge">
<title>Node24&#45;&gt;Node2</title>
<g id="a_edge8_Node000024_Node000002"><a xlink:title=" ">
<path fill="none" stroke="#63b8ff" d="M229.72,-30.06C237.38,-32.95 245.02,-36.26 252,-40 276.89,-53.32 301.88,-73.58 319.28,-89.05"/>
<polygon fill="#63b8ff" stroke="#63b8ff" points="316.95,-91.66 326.71,-95.78 321.65,-86.47 316.95,-91.66"/>
</a>
</g>
</g>
</g>
</svg>
