<?xml version="1.0" encoding="UTF-8" standalone="no"?>
<!DOCTYPE svg PUBLIC "-//W3C//DTD SVG 1.1//EN"
 "http://www.w3.org/Graphics/SVG/1.1/DTD/svg11.dtd">
<!-- Generated by graphviz version 2.43.0 (0)
 -->
<!-- Title: ReceiverKalmans Pages: 1 -->
<svg width="401pt" height="1608pt"
 viewBox="0.00 0.00 400.50 1608.00" xmlns="http://www.w3.org/2000/svg" xmlns:xlink="http://www.w3.org/1999/xlink">
<g id="graph0" class="graph" transform="scale(1 1) rotate(0) translate(4 1604)">
<title>ReceiverKalmans</title>
<!-- Node1 -->
<g id="Node000001" class="node">
<title>Node1</title>
<g id="a_Node000001"><a xlink:href="structReceiverKalmans.html" target="_top" xlink:title=" ">
<path fill="white" stroke="#666666" stroke-width="2" d="M246,-922C246,-922 158,-922 158,-922 152,-922 146,-916 146,-910 146,-910 146,-742 146,-742 146,-736 152,-730 158,-730 158,-730 246,-730 246,-730 252,-730 258,-736 258,-742 258,-742 258,-910 258,-910 258,-916 252,-922 246,-922"/>
<text text-anchor="start" x="159" y="-906" font-family="Helvetica,sans-Serif" font-size="10.00">ReceiverKalmans</text>
<text text-anchor="start" x="159" y="-891" font-family="Helvetica,sans-Serif" font-size="10.00">+</text>
<text text-anchor="start" x="173" y="-891" font-family="Helvetica,sans-Serif" font-size="10.00">ambiguity</text>
<text text-anchor="start" x="159" y="-876" font-family="Helvetica,sans-Serif" font-size="10.00">+</text>
<text text-anchor="start" x="173" y="-876" font-family="Helvetica,sans-Serif" font-size="10.00">strain_rate</text>
<text text-anchor="start" x="159" y="-861" font-family="Helvetica,sans-Serif" font-size="10.00">+</text>
<text text-anchor="start" x="173" y="-861" font-family="Helvetica,sans-Serif" font-size="10.00">slr_range_bias</text>
<text text-anchor="start" x="159" y="-846" font-family="Helvetica,sans-Serif" font-size="10.00">+</text>
<text text-anchor="start" x="173" y="-846" font-family="Helvetica,sans-Serif" font-size="10.00">slr_time_bias</text>
<text text-anchor="start" x="159" y="-831" font-family="Helvetica,sans-Serif" font-size="10.00">+</text>
<text text-anchor="start" x="173" y="-831" font-family="Helvetica,sans-Serif" font-size="10.00">pcv</text>
<text text-anchor="start" x="159" y="-816" font-family="Helvetica,sans-Serif" font-size="10.00">+</text>
<text text-anchor="start" x="173" y="-816" font-family="Helvetica,sans-Serif" font-size="10.00">ion_stec</text>
<text text-anchor="start" x="159" y="-801" font-family="Helvetica,sans-Serif" font-size="10.00">+</text>
<text text-anchor="start" x="173" y="-801" font-family="Helvetica,sans-Serif" font-size="10.00">ion_model</text>
<text text-anchor="start" x="159" y="-786" font-family="Helvetica,sans-Serif" font-size="10.00">+</text>
<text text-anchor="start" x="173" y="-786" font-family="Helvetica,sans-Serif" font-size="10.00">trop</text>
<text text-anchor="start" x="159" y="-771" font-family="Helvetica,sans-Serif" font-size="10.00">+</text>
<text text-anchor="start" x="173" y="-771" font-family="Helvetica,sans-Serif" font-size="10.00">trop_grads</text>
<text text-anchor="start" x="159" y="-756" font-family="Helvetica,sans-Serif" font-size="10.00">+</text>
<text text-anchor="start" x="173" y="-756" font-family="Helvetica,sans-Serif" font-size="10.00">trop_maps</text>
<text text-anchor="start" x="159" y="-741" font-family="Helvetica,sans-Serif" font-size="10.00">+</text>
<text text-anchor="start" x="173" y="-741" font-family="Helvetica,sans-Serif" font-size="10.00">operator+=()</text>
<polygon fill="#666666" stroke="#666666" points="154,-901 154,-901 250,-901 250,-901 154,-901"/>
<polygon fill="#666666" stroke="#666666" points="154,-751 154,-751 171,-751 171,-751 154,-751"/>
<polygon fill="#666666" stroke="#666666" points="171,-751 171,-751 250,-751 250,-751 171,-751"/>
<polygon fill="none" stroke="#666666" points="154,-734 154,-918 250,-918 250,-734 154,-734"/>
</a>
</g>
</g>
<!-- Node5 -->
<g id="Node000005" class="node">
<title>Node5</title>
<g id="a_Node000005"><a xlink:href="structReceiverOptions.html" target="_top" xlink:title="Options to be applied to kalman filter states for individual receivers.">
<path fill="white" stroke="#666666" d="M272,-694C272,-694 132,-694 132,-694 126,-694 120,-688 120,-682 120,-682 120,-12 120,-12 120,-6 126,0 132,0 132,0 272,0 272,0 278,0 284,-6 284,-12 284,-12 284,-682 284,-682 284,-688 278,-694 272,-694"/>
<text text-anchor="start" x="161.5" y="-678" font-family="Helvetica,sans-Serif" font-size="10.00">ReceiverOptions</text>
<text text-anchor="start" x="132" y="-663" font-family="Helvetica,sans-Serif" font-size="10.00">+</text>
<text text-anchor="start" x="145" y="-663" font-family="Helvetica,sans-Serif" font-size="10.00">_initialised</text>
<text text-anchor="start" x="132" y="-648" font-family="Helvetica,sans-Serif" font-size="10.00">+</text>
<text text-anchor="start" x="145" y="-648" font-family="Helvetica,sans-Serif" font-size="10.00">id</text>
<text text-anchor="start" x="132" y="-633" font-family="Helvetica,sans-Serif" font-size="10.00">+</text>
<text text-anchor="start" x="145" y="-633" font-family="Helvetica,sans-Serif" font-size="10.00">rinex23Conv</text>
<text text-anchor="start" x="132" y="-618" font-family="Helvetica,sans-Serif" font-size="10.00">+</text>
<text text-anchor="start" x="145" y="-618" font-family="Helvetica,sans-Serif" font-size="10.00">kill</text>
<text text-anchor="start" x="132" y="-603" font-family="Helvetica,sans-Serif" font-size="10.00">+</text>
<text text-anchor="start" x="145" y="-603" font-family="Helvetica,sans-Serif" font-size="10.00">zero_dcb_codes</text>
<text text-anchor="start" x="132" y="-588" font-family="Helvetica,sans-Serif" font-size="10.00">+</text>
<text text-anchor="start" x="145" y="-588" font-family="Helvetica,sans-Serif" font-size="10.00">apriori_pos</text>
<text text-anchor="start" x="132" y="-573" font-family="Helvetica,sans-Serif" font-size="10.00">+</text>
<text text-anchor="start" x="145" y="-573" font-family="Helvetica,sans-Serif" font-size="10.00">antenna_type</text>
<text text-anchor="start" x="132" y="-558" font-family="Helvetica,sans-Serif" font-size="10.00">+</text>
<text text-anchor="start" x="145" y="-558" font-family="Helvetica,sans-Serif" font-size="10.00">receiver_type</text>
<text text-anchor="start" x="132" y="-543" font-family="Helvetica,sans-Serif" font-size="10.00">+</text>
<text text-anchor="start" x="145" y="-543" font-family="Helvetica,sans-Serif" font-size="10.00">sat_id</text>
<text text-anchor="start" x="132" y="-528" font-family="Helvetica,sans-Serif" font-size="10.00">+</text>
<text text-anchor="start" x="145" y="-528" font-family="Helvetica,sans-Serif" font-size="10.00">elevation_mask_deg</text>
<text text-anchor="start" x="132" y="-513" font-family="Helvetica,sans-Serif" font-size="10.00">+</text>
<text text-anchor="start" x="145" y="-513" font-family="Helvetica,sans-Serif" font-size="10.00">receiver_reference</text>
<text text-anchor="start" x="145" y="-502" font-family="Helvetica,sans-Serif" font-size="10.00">_system</text>
<text text-anchor="start" x="132" y="-487" font-family="Helvetica,sans-Serif" font-size="10.00">+</text>
<text text-anchor="start" x="145" y="-487" font-family="Helvetica,sans-Serif" font-size="10.00">enable</text>
<text text-anchor="start" x="132" y="-472" font-family="Helvetica,sans-Serif" font-size="10.00">+</text>
<text text-anchor="start" x="145" y="-472" font-family="Helvetica,sans-Serif" font-size="10.00">eccentricity</text>
<text text-anchor="start" x="132" y="-457" font-family="Helvetica,sans-Serif" font-size="10.00">+</text>
<text text-anchor="start" x="145" y="-457" font-family="Helvetica,sans-Serif" font-size="10.00">eccentricityModel</text>
<text text-anchor="start" x="132" y="-442" font-family="Helvetica,sans-Serif" font-size="10.00">+</text>
<text text-anchor="start" x="145" y="-442" font-family="Helvetica,sans-Serif" font-size="10.00">models</text>
<text text-anchor="start" x="132" y="-427" font-family="Helvetica,sans-Serif" font-size="10.00">+</text>
<text text-anchor="start" x="145" y="-427" font-family="Helvetica,sans-Serif" font-size="10.00">tropModel</text>
<text text-anchor="start" x="132" y="-412" font-family="Helvetica,sans-Serif" font-size="10.00">+</text>
<text text-anchor="start" x="145" y="-412" font-family="Helvetica,sans-Serif" font-size="10.00">solid</text>
<text text-anchor="start" x="132" y="-397" font-family="Helvetica,sans-Serif" font-size="10.00">+</text>
<text text-anchor="start" x="145" y="-397" font-family="Helvetica,sans-Serif" font-size="10.00">otl</text>
<text text-anchor="start" x="132" y="-382" font-family="Helvetica,sans-Serif" font-size="10.00">+</text>
<text text-anchor="start" x="145" y="-382" font-family="Helvetica,sans-Serif" font-size="10.00">atl</text>
<text text-anchor="start" x="132" y="-367" font-family="Helvetica,sans-Serif" font-size="10.00">+</text>
<text text-anchor="start" x="145" y="-367" font-family="Helvetica,sans-Serif" font-size="10.00">spole</text>
<text text-anchor="start" x="132" y="-352" font-family="Helvetica,sans-Serif" font-size="10.00">+</text>
<text text-anchor="start" x="145" y="-352" font-family="Helvetica,sans-Serif" font-size="10.00">opole</text>
<text text-anchor="start" x="132" y="-337" font-family="Helvetica,sans-Serif" font-size="10.00">+</text>
<text text-anchor="start" x="145" y="-337" font-family="Helvetica,sans-Serif" font-size="10.00">tideModels</text>
<text text-anchor="start" x="132" y="-322" font-family="Helvetica,sans-Serif" font-size="10.00">+</text>
<text text-anchor="start" x="145" y="-322" font-family="Helvetica,sans-Serif" font-size="10.00">range</text>
<text text-anchor="start" x="132" y="-307" font-family="Helvetica,sans-Serif" font-size="10.00">+</text>
<text text-anchor="start" x="145" y="-307" font-family="Helvetica,sans-Serif" font-size="10.00">relativity</text>
<text text-anchor="start" x="132" y="-292" font-family="Helvetica,sans-Serif" font-size="10.00">+</text>
<text text-anchor="start" x="145" y="-292" font-family="Helvetica,sans-Serif" font-size="10.00">relativity2</text>
<text text-anchor="start" x="132" y="-277" font-family="Helvetica,sans-Serif" font-size="10.00">+</text>
<text text-anchor="start" x="145" y="-277" font-family="Helvetica,sans-Serif" font-size="10.00">sagnac</text>
<text text-anchor="start" x="132" y="-262" font-family="Helvetica,sans-Serif" font-size="10.00">+</text>
<text text-anchor="start" x="145" y="-262" font-family="Helvetica,sans-Serif" font-size="10.00">integer_ambiguity</text>
<text text-anchor="start" x="132" y="-247" font-family="Helvetica,sans-Serif" font-size="10.00">+</text>
<text text-anchor="start" x="145" y="-247" font-family="Helvetica,sans-Serif" font-size="10.00">ionospheric_component</text>
<text text-anchor="start" x="132" y="-232" font-family="Helvetica,sans-Serif" font-size="10.00">+</text>
<text text-anchor="start" x="145" y="-232" font-family="Helvetica,sans-Serif" font-size="10.00">ionospheric_component2</text>
<text text-anchor="start" x="132" y="-217" font-family="Helvetica,sans-Serif" font-size="10.00">+</text>
<text text-anchor="start" x="145" y="-217" font-family="Helvetica,sans-Serif" font-size="10.00">ionospheric_component3</text>
<text text-anchor="start" x="132" y="-202" font-family="Helvetica,sans-Serif" font-size="10.00">+</text>
<text text-anchor="start" x="145" y="-202" font-family="Helvetica,sans-Serif" font-size="10.00">ionospheric_model</text>
<text text-anchor="start" x="132" y="-187" font-family="Helvetica,sans-Serif" font-size="10.00">+</text>
<text text-anchor="start" x="145" y="-187" font-family="Helvetica,sans-Serif" font-size="10.00">tropospheric_map</text>
<text text-anchor="start" x="132" y="-172" font-family="Helvetica,sans-Serif" font-size="10.00">+</text>
<text text-anchor="start" x="145" y="-172" font-family="Helvetica,sans-Serif" font-size="10.00">eop</text>
<text text-anchor="start" x="132" y="-157" font-family="Helvetica,sans-Serif" font-size="10.00">+</text>
<text text-anchor="start" x="145" y="-157" font-family="Helvetica,sans-Serif" font-size="10.00">mapping_function</text>
<text text-anchor="start" x="132" y="-142" font-family="Helvetica,sans-Serif" font-size="10.00">+</text>
<text text-anchor="start" x="145" y="-142" font-family="Helvetica,sans-Serif" font-size="10.00">geomagnetic_field_height</text>
<text text-anchor="start" x="132" y="-127" font-family="Helvetica,sans-Serif" font-size="10.00">+</text>
<text text-anchor="start" x="145" y="-127" font-family="Helvetica,sans-Serif" font-size="10.00">mapping_function_layer</text>
<text text-anchor="start" x="145" y="-116" font-family="Helvetica,sans-Serif" font-size="10.00">_height</text>
<text text-anchor="start" x="132" y="-101" font-family="Helvetica,sans-Serif" font-size="10.00">+</text>
<text text-anchor="start" x="145" y="-101" font-family="Helvetica,sans-Serif" font-size="10.00">error_model</text>
<text text-anchor="start" x="132" y="-86" font-family="Helvetica,sans-Serif" font-size="10.00">+</text>
<text text-anchor="start" x="145" y="-86" font-family="Helvetica,sans-Serif" font-size="10.00">code_sigma</text>
<text text-anchor="start" x="132" y="-71" font-family="Helvetica,sans-Serif" font-size="10.00">+</text>
<text text-anchor="start" x="145" y="-71" font-family="Helvetica,sans-Serif" font-size="10.00">phase_sigma</text>
<text text-anchor="start" x="132" y="-56" font-family="Helvetica,sans-Serif" font-size="10.00">+</text>
<text text-anchor="start" x="145" y="-56" font-family="Helvetica,sans-Serif" font-size="10.00">inheritors</text>
<text text-anchor="start" x="132" y="-41" font-family="Helvetica,sans-Serif" font-size="10.00">+</text>
<text text-anchor="start" x="145" y="-41" font-family="Helvetica,sans-Serif" font-size="10.00">inheritedFrom</text>
<text text-anchor="start" x="132" y="-26" font-family="Helvetica,sans-Serif" font-size="10.00">+</text>
<text text-anchor="start" x="145" y="-26" font-family="Helvetica,sans-Serif" font-size="10.00">initialisedMap</text>
<text text-anchor="start" x="132" y="-11" font-family="Helvetica,sans-Serif" font-size="10.00">+</text>
<text text-anchor="start" x="145" y="-11" font-family="Helvetica,sans-Serif" font-size="10.00">operator+=()</text>
<polygon fill="#666666" stroke="#666666" points="128,-673 128,-673 276,-673 276,-673 128,-673"/>
<polygon fill="#666666" stroke="#666666" points="128,-21 128,-21 143,-21 143,-21 128,-21"/>
<polygon fill="#666666" stroke="#666666" points="143,-21 143,-21 276,-21 276,-21 143,-21"/>
<polygon fill="none" stroke="#666666" points="128,-4 128,-690 276,-690 276,-4 128,-4"/>
</a>
</g>
</g>
<!-- Node1&#45;&gt;Node5 -->
<g id="edge4_Node000001_Node000005" class="edge">
<title>Node1&#45;&gt;Node5</title>
<g id="a_edge4_Node000001_Node000005"><a xlink:title=" ">
<path fill="none" stroke="#63b8ff" d="M202,-719.68C202,-711.48 202,-702.97 202,-694.21"/>
<polygon fill="none" stroke="#63b8ff" points="198.5,-719.9 202,-729.9 205.5,-719.9 198.5,-719.9"/>
</a>
</g>
</g>
<!-- Node2 -->
<g id="Node000002" class="node">
<title>Node2</title>
<g id="a_Node000002"><a xlink:href="structCommonKalmans.html" target="_top" xlink:title=" ">
<path fill="white" stroke="#666666" d="M102,-1382.5C102,-1382.5 12,-1382.5 12,-1382.5 6,-1382.5 0,-1376.5 0,-1370.5 0,-1370.5 0,-1187.5 0,-1187.5 0,-1181.5 6,-1175.5 12,-1175.5 12,-1175.5 102,-1175.5 102,-1175.5 108,-1175.5 114,-1181.5 114,-1187.5 114,-1187.5 114,-1370.5 114,-1370.5 114,-1376.5 108,-1382.5 102,-1382.5"/>
<text text-anchor="start" x="13" y="-1366" font-family="Helvetica,sans-Serif" font-size="10.00">CommonKalmans</text>
<text text-anchor="start" x="14.5" y="-1351" font-family="Helvetica,sans-Serif" font-size="10.00">+</text>
<text text-anchor="start" x="30" y="-1351" font-family="Helvetica,sans-Serif" font-size="10.00">pos</text>
<text text-anchor="start" x="14.5" y="-1336" font-family="Helvetica,sans-Serif" font-size="10.00">+</text>
<text text-anchor="start" x="30" y="-1336" font-family="Helvetica,sans-Serif" font-size="10.00">pos_rate</text>
<text text-anchor="start" x="14.5" y="-1321" font-family="Helvetica,sans-Serif" font-size="10.00">+</text>
<text text-anchor="start" x="30" y="-1321" font-family="Helvetica,sans-Serif" font-size="10.00">orbit</text>
<text text-anchor="start" x="14.5" y="-1306" font-family="Helvetica,sans-Serif" font-size="10.00">+</text>
<text text-anchor="start" x="30" y="-1306" font-family="Helvetica,sans-Serif" font-size="10.00">clk</text>
<text text-anchor="start" x="14.5" y="-1291" font-family="Helvetica,sans-Serif" font-size="10.00">+</text>
<text text-anchor="start" x="30" y="-1291" font-family="Helvetica,sans-Serif" font-size="10.00">clk_rate</text>
<text text-anchor="start" x="14.5" y="-1276" font-family="Helvetica,sans-Serif" font-size="10.00">+</text>
<text text-anchor="start" x="30" y="-1276" font-family="Helvetica,sans-Serif" font-size="10.00">code_bias</text>
<text text-anchor="start" x="14.5" y="-1261" font-family="Helvetica,sans-Serif" font-size="10.00">+</text>
<text text-anchor="start" x="30" y="-1261" font-family="Helvetica,sans-Serif" font-size="10.00">phase_bias</text>
<text text-anchor="start" x="14.5" y="-1246" font-family="Helvetica,sans-Serif" font-size="10.00">+</text>
<text text-anchor="start" x="30" y="-1246" font-family="Helvetica,sans-Serif" font-size="10.00">pco</text>
<text text-anchor="start" x="14.5" y="-1231" font-family="Helvetica,sans-Serif" font-size="10.00">+</text>
<text text-anchor="start" x="30" y="-1231" font-family="Helvetica,sans-Serif" font-size="10.00">ant_delta</text>
<text text-anchor="start" x="14.5" y="-1216" font-family="Helvetica,sans-Serif" font-size="10.00">+</text>
<text text-anchor="start" x="30" y="-1216" font-family="Helvetica,sans-Serif" font-size="10.00">cr</text>
<text text-anchor="start" x="14.5" y="-1201" font-family="Helvetica,sans-Serif" font-size="10.00">+</text>
<text text-anchor="start" x="30" y="-1201" font-family="Helvetica,sans-Serif" font-size="10.00">cd</text>
<text text-anchor="start" x="14.5" y="-1186" font-family="Helvetica,sans-Serif" font-size="10.00">+</text>
<text text-anchor="start" x="30" y="-1186" font-family="Helvetica,sans-Serif" font-size="10.00">operator+=()</text>
<polygon fill="#666666" stroke="#666666" points="8,-1361 8,-1361 106,-1361 106,-1361 8,-1361"/>
<polygon fill="#666666" stroke="#666666" points="8,-1196 8,-1196 28,-1196 28,-1196 8,-1196"/>
<polygon fill="#666666" stroke="#666666" points="28,-1196 28,-1196 106,-1196 106,-1196 28,-1196"/>
<polygon fill="none" stroke="#666666" points="8,-1179.5 8,-1378.5 106,-1378.5 106,-1179.5 8,-1179.5"/>
</a>
</g>
</g>
<!-- Node2&#45;&gt;Node1 -->
<g id="edge1_Node000001_Node000002" class="edge">
<title>Node2&#45;&gt;Node1</title>
<g id="a_edge1_Node000001_Node000002"><a xlink:title=" ">
<path fill="none" stroke="#63b8ff" d="M70.68,-1165.4C80.62,-1102.83 97,-1024.44 123,-958 129.24,-942.05 137.35,-925.82 146,-910.46"/>
<polygon fill="none" stroke="#63b8ff" points="67.22,-1164.88 69.14,-1175.3 74.13,-1165.96 67.22,-1164.88"/>
</a>
</g>
</g>
<!-- Node3 -->
<g id="Node000003" class="node">
<title>Node3</title>
<g id="a_Node000003"><a xlink:href="structInertialKalmans.html" target="_top" xlink:title=" ">
<path fill="white" stroke="#666666" d="M259.5,-1345C259.5,-1345 144.5,-1345 144.5,-1345 138.5,-1345 132.5,-1339 132.5,-1333 132.5,-1333 132.5,-1225 132.5,-1225 132.5,-1219 138.5,-1213 144.5,-1213 144.5,-1213 259.5,-1213 259.5,-1213 265.5,-1213 271.5,-1219 271.5,-1225 271.5,-1225 271.5,-1333 271.5,-1333 271.5,-1339 265.5,-1345 259.5,-1345"/>
<text text-anchor="start" x="163.5" y="-1329" font-family="Helvetica,sans-Serif" font-size="10.00">InertialKalmans</text>
<text text-anchor="start" x="145" y="-1314" font-family="Helvetica,sans-Serif" font-size="10.00">+</text>
<text text-anchor="start" x="158" y="-1314" font-family="Helvetica,sans-Serif" font-size="10.00">accelerometer_scale</text>
<text text-anchor="start" x="145" y="-1299" font-family="Helvetica,sans-Serif" font-size="10.00">+</text>
<text text-anchor="start" x="158" y="-1299" font-family="Helvetica,sans-Serif" font-size="10.00">accelerometer_bias</text>
<text text-anchor="start" x="145" y="-1284" font-family="Helvetica,sans-Serif" font-size="10.00">+</text>
<text text-anchor="start" x="158" y="-1284" font-family="Helvetica,sans-Serif" font-size="10.00">orientation</text>
<text text-anchor="start" x="145" y="-1269" font-family="Helvetica,sans-Serif" font-size="10.00">+</text>
<text text-anchor="start" x="158" y="-1269" font-family="Helvetica,sans-Serif" font-size="10.00">imu_offset</text>
<text text-anchor="start" x="145" y="-1254" font-family="Helvetica,sans-Serif" font-size="10.00">+</text>
<text text-anchor="start" x="158" y="-1254" font-family="Helvetica,sans-Serif" font-size="10.00">gyro_scale</text>
<text text-anchor="start" x="145" y="-1239" font-family="Helvetica,sans-Serif" font-size="10.00">+</text>
<text text-anchor="start" x="158" y="-1239" font-family="Helvetica,sans-Serif" font-size="10.00">gyro_bias</text>
<text text-anchor="start" x="145" y="-1224" font-family="Helvetica,sans-Serif" font-size="10.00">+</text>
<text text-anchor="start" x="158" y="-1224" font-family="Helvetica,sans-Serif" font-size="10.00">operator+=()</text>
<polygon fill="#666666" stroke="#666666" points="141,-1324 141,-1324 264,-1324 264,-1324 141,-1324"/>
<polygon fill="#666666" stroke="#666666" points="141,-1234 141,-1234 156,-1234 156,-1234 141,-1234"/>
<polygon fill="#666666" stroke="#666666" points="156,-1234 156,-1234 264,-1234 264,-1234 156,-1234"/>
<polygon fill="none" stroke="#666666" points="140.5,-1217 140.5,-1341 263.5,-1341 263.5,-1217 140.5,-1217"/>
</a>
</g>
</g>
<!-- Node3&#45;&gt;Node1 -->
<g id="edge2_Node000001_Node000003" class="edge">
<title>Node3&#45;&gt;Node1</title>
<g id="a_edge2_Node000001_Node000003"><a xlink:title=" ">
<path fill="none" stroke="#63b8ff" d="M202,-1202.8C202,-1125.84 202,-1005.98 202,-922.39"/>
<polygon fill="none" stroke="#63b8ff" points="198.5,-1202.9 202,-1212.9 205.5,-1202.9 198.5,-1202.9"/>
</a>
</g>
</g>
<!-- Node4 -->
<g id="Node000004" class="node">
<title>Node4</title>
<g id="a_Node000004"><a xlink:href="structEmpKalmans.html" target="_top" xlink:title=" ">
<path fill="white" stroke="#666666" d="M380.5,-1600C380.5,-1600 301.5,-1600 301.5,-1600 295.5,-1600 289.5,-1594 289.5,-1588 289.5,-1588 289.5,-970 289.5,-970 289.5,-964 295.5,-958 301.5,-958 301.5,-958 380.5,-958 380.5,-958 386.5,-958 392.5,-964 392.5,-970 392.5,-970 392.5,-1588 392.5,-1588 392.5,-1594 386.5,-1600 380.5,-1600"/>
<text text-anchor="start" x="309" y="-1584" font-family="Helvetica,sans-Serif" font-size="10.00">EmpKalmans</text>
<text text-anchor="start" x="302" y="-1569" font-family="Helvetica,sans-Serif" font-size="10.00">+</text>
<text text-anchor="start" x="315" y="-1569" font-family="Helvetica,sans-Serif" font-size="10.00">emp_d_0</text>
<text text-anchor="start" x="302" y="-1554" font-family="Helvetica,sans-Serif" font-size="10.00">+</text>
<text text-anchor="start" x="315" y="-1554" font-family="Helvetica,sans-Serif" font-size="10.00">emp_d_1</text>
<text text-anchor="start" x="302" y="-1539" font-family="Helvetica,sans-Serif" font-size="10.00">+</text>
<text text-anchor="start" x="315" y="-1539" font-family="Helvetica,sans-Serif" font-size="10.00">emp_d_2</text>
<text text-anchor="start" x="302" y="-1524" font-family="Helvetica,sans-Serif" font-size="10.00">+</text>
<text text-anchor="start" x="315" y="-1524" font-family="Helvetica,sans-Serif" font-size="10.00">emp_d_3</text>
<text text-anchor="start" x="302" y="-1509" font-family="Helvetica,sans-Serif" font-size="10.00">+</text>
<text text-anchor="start" x="315" y="-1509" font-family="Helvetica,sans-Serif" font-size="10.00">emp_d_4</text>
<text text-anchor="start" x="302" y="-1494" font-family="Helvetica,sans-Serif" font-size="10.00">+</text>
<text text-anchor="start" x="315" y="-1494" font-family="Helvetica,sans-Serif" font-size="10.00">emp_y_0</text>
<text text-anchor="start" x="302" y="-1479" font-family="Helvetica,sans-Serif" font-size="10.00">+</text>
<text text-anchor="start" x="315" y="-1479" font-family="Helvetica,sans-Serif" font-size="10.00">emp_y_1</text>
<text text-anchor="start" x="302" y="-1464" font-family="Helvetica,sans-Serif" font-size="10.00">+</text>
<text text-anchor="start" x="315" y="-1464" font-family="Helvetica,sans-Serif" font-size="10.00">emp_y_2</text>
<text text-anchor="start" x="302" y="-1449" font-family="Helvetica,sans-Serif" font-size="10.00">+</text>
<text text-anchor="start" x="315" y="-1449" font-family="Helvetica,sans-Serif" font-size="10.00">emp_y_3</text>
<text text-anchor="start" x="302" y="-1434" font-family="Helvetica,sans-Serif" font-size="10.00">+</text>
<text text-anchor="start" x="315" y="-1434" font-family="Helvetica,sans-Serif" font-size="10.00">emp_y_4</text>
<text text-anchor="start" x="302" y="-1419" font-family="Helvetica,sans-Serif" font-size="10.00">+</text>
<text text-anchor="start" x="315" y="-1419" font-family="Helvetica,sans-Serif" font-size="10.00">emp_b_0</text>
<text text-anchor="start" x="302" y="-1404" font-family="Helvetica,sans-Serif" font-size="10.00">+</text>
<text text-anchor="start" x="315" y="-1404" font-family="Helvetica,sans-Serif" font-size="10.00">emp_b_1</text>
<text text-anchor="start" x="302" y="-1389" font-family="Helvetica,sans-Serif" font-size="10.00">+</text>
<text text-anchor="start" x="315" y="-1389" font-family="Helvetica,sans-Serif" font-size="10.00">emp_b_2</text>
<text text-anchor="start" x="302" y="-1374" font-family="Helvetica,sans-Serif" font-size="10.00">+</text>
<text text-anchor="start" x="315" y="-1374" font-family="Helvetica,sans-Serif" font-size="10.00">emp_b_3</text>
<text text-anchor="start" x="302" y="-1359" font-family="Helvetica,sans-Serif" font-size="10.00">+</text>
<text text-anchor="start" x="315" y="-1359" font-family="Helvetica,sans-Serif" font-size="10.00">emp_b_4</text>
<text text-anchor="start" x="302" y="-1344" font-family="Helvetica,sans-Serif" font-size="10.00">+</text>
<text text-anchor="start" x="315" y="-1344" font-family="Helvetica,sans-Serif" font-size="10.00">emp_r_0</text>
<text text-anchor="start" x="302" y="-1329" font-family="Helvetica,sans-Serif" font-size="10.00">+</text>
<text text-anchor="start" x="315" y="-1329" font-family="Helvetica,sans-Serif" font-size="10.00">emp_r_1</text>
<text text-anchor="start" x="302" y="-1314" font-family="Helvetica,sans-Serif" font-size="10.00">+</text>
<text text-anchor="start" x="315" y="-1314" font-family="Helvetica,sans-Serif" font-size="10.00">emp_r_2</text>
<text text-anchor="start" x="302" y="-1299" font-family="Helvetica,sans-Serif" font-size="10.00">+</text>
<text text-anchor="start" x="315" y="-1299" font-family="Helvetica,sans-Serif" font-size="10.00">emp_r_3</text>
<text text-anchor="start" x="302" y="-1284" font-family="Helvetica,sans-Serif" font-size="10.00">+</text>
<text text-anchor="start" x="315" y="-1284" font-family="Helvetica,sans-Serif" font-size="10.00">emp_r_4</text>
<text text-anchor="start" x="302" y="-1269" font-family="Helvetica,sans-Serif" font-size="10.00">+</text>
<text text-anchor="start" x="315" y="-1269" font-family="Helvetica,sans-Serif" font-size="10.00">emp_t_0</text>
<text text-anchor="start" x="302" y="-1254" font-family="Helvetica,sans-Serif" font-size="10.00">+</text>
<text text-anchor="start" x="315" y="-1254" font-family="Helvetica,sans-Serif" font-size="10.00">emp_t_1</text>
<text text-anchor="start" x="302" y="-1239" font-family="Helvetica,sans-Serif" font-size="10.00">+</text>
<text text-anchor="start" x="315" y="-1239" font-family="Helvetica,sans-Serif" font-size="10.00">emp_t_2</text>
<text text-anchor="start" x="302" y="-1224" font-family="Helvetica,sans-Serif" font-size="10.00">+</text>
<text text-anchor="start" x="315" y="-1224" font-family="Helvetica,sans-Serif" font-size="10.00">emp_t_3</text>
<text text-anchor="start" x="302" y="-1209" font-family="Helvetica,sans-Serif" font-size="10.00">+</text>
<text text-anchor="start" x="315" y="-1209" font-family="Helvetica,sans-Serif" font-size="10.00">emp_t_4</text>
<text text-anchor="start" x="302" y="-1194" font-family="Helvetica,sans-Serif" font-size="10.00">+</text>
<text text-anchor="start" x="315" y="-1194" font-family="Helvetica,sans-Serif" font-size="10.00">emp_n_0</text>
<text text-anchor="start" x="302" y="-1179" font-family="Helvetica,sans-Serif" font-size="10.00">+</text>
<text text-anchor="start" x="315" y="-1179" font-family="Helvetica,sans-Serif" font-size="10.00">emp_n_1</text>
<text text-anchor="start" x="302" y="-1164" font-family="Helvetica,sans-Serif" font-size="10.00">+</text>
<text text-anchor="start" x="315" y="-1164" font-family="Helvetica,sans-Serif" font-size="10.00">emp_n_2</text>
<text text-anchor="start" x="302" y="-1149" font-family="Helvetica,sans-Serif" font-size="10.00">+</text>
<text text-anchor="start" x="315" y="-1149" font-family="Helvetica,sans-Serif" font-size="10.00">emp_n_3</text>
<text text-anchor="start" x="302" y="-1134" font-family="Helvetica,sans-Serif" font-size="10.00">+</text>
<text text-anchor="start" x="315" y="-1134" font-family="Helvetica,sans-Serif" font-size="10.00">emp_n_4</text>
<text text-anchor="start" x="302" y="-1119" font-family="Helvetica,sans-Serif" font-size="10.00">+</text>
<text text-anchor="start" x="315" y="-1119" font-family="Helvetica,sans-Serif" font-size="10.00">emp_p_0</text>
<text text-anchor="start" x="302" y="-1104" font-family="Helvetica,sans-Serif" font-size="10.00">+</text>
<text text-anchor="start" x="315" y="-1104" font-family="Helvetica,sans-Serif" font-size="10.00">emp_p_1</text>
<text text-anchor="start" x="302" y="-1089" font-family="Helvetica,sans-Serif" font-size="10.00">+</text>
<text text-anchor="start" x="315" y="-1089" font-family="Helvetica,sans-Serif" font-size="10.00">emp_p_2</text>
<text text-anchor="start" x="302" y="-1074" font-family="Helvetica,sans-Serif" font-size="10.00">+</text>
<text text-anchor="start" x="315" y="-1074" font-family="Helvetica,sans-Serif" font-size="10.00">emp_p_3</text>
<text text-anchor="start" x="302" y="-1059" font-family="Helvetica,sans-Serif" font-size="10.00">+</text>
<text text-anchor="start" x="315" y="-1059" font-family="Helvetica,sans-Serif" font-size="10.00">emp_p_4</text>
<text text-anchor="start" x="302" y="-1044" font-family="Helvetica,sans-Serif" font-size="10.00">+</text>
<text text-anchor="start" x="315" y="-1044" font-family="Helvetica,sans-Serif" font-size="10.00">emp_q_0</text>
<text text-anchor="start" x="302" y="-1029" font-family="Helvetica,sans-Serif" font-size="10.00">+</text>
<text text-anchor="start" x="315" y="-1029" font-family="Helvetica,sans-Serif" font-size="10.00">emp_q_1</text>
<text text-anchor="start" x="302" y="-1014" font-family="Helvetica,sans-Serif" font-size="10.00">+</text>
<text text-anchor="start" x="315" y="-1014" font-family="Helvetica,sans-Serif" font-size="10.00">emp_q_2</text>
<text text-anchor="start" x="302" y="-999" font-family="Helvetica,sans-Serif" font-size="10.00">+</text>
<text text-anchor="start" x="315" y="-999" font-family="Helvetica,sans-Serif" font-size="10.00">emp_q_3</text>
<text text-anchor="start" x="302" y="-984" font-family="Helvetica,sans-Serif" font-size="10.00">+</text>
<text text-anchor="start" x="315" y="-984" font-family="Helvetica,sans-Serif" font-size="10.00">emp_q_4</text>
<text text-anchor="start" x="302" y="-969" font-family="Helvetica,sans-Serif" font-size="10.00">+</text>
<text text-anchor="start" x="315" y="-969" font-family="Helvetica,sans-Serif" font-size="10.00">operator+=()</text>
<polygon fill="#666666" stroke="#666666" points="298,-1579 298,-1579 385,-1579 385,-1579 298,-1579"/>
<polygon fill="#666666" stroke="#666666" points="298,-979 298,-979 313,-979 313,-979 298,-979"/>
<polygon fill="#666666" stroke="#666666" points="313,-979 313,-979 385,-979 385,-979 313,-979"/>
<polygon fill="none" stroke="#666666" points="297.5,-962 297.5,-1596 384.5,-1596 384.5,-962 297.5,-962"/>
</a>
</g>
</g>
<!-- Node4&#45;&gt;Node1 -->
<g id="edge3_Node000001_Node000004" class="edge">
<title>Node4&#45;&gt;Node1</title>
<g id="a_edge3_Node000001_Node000004"><a xlink:title=" ">
<path fill="none" stroke="#63b8ff" d="M286.14,-972.04C284.47,-967.31 282.76,-962.63 281,-958 274.85,-941.87 266.74,-925.48 258.04,-910.01"/>
<polygon fill="none" stroke="#63b8ff" points="282.93,-973.49 289.48,-981.82 289.56,-971.23 282.93,-973.49"/>
</a>
</g>
</g>
</g>
</svg>
