<?xml version="1.0" encoding="UTF-8" standalone="no"?>
<!DOCTYPE svg PUBLIC "-//W3C//DTD SVG 1.1//EN"
 "http://www.w3.org/Graphics/SVG/1.1/DTD/svg11.dtd">
<!-- Generated by graphviz version 2.43.0 (0)
 -->
<!-- Title: InitialState Pages: 1 -->
<svg width="139pt" height="289pt"
 viewBox="0.00 0.00 139.00 289.00" xmlns="http://www.w3.org/2000/svg" xmlns:xlink="http://www.w3.org/1999/xlink">
<g id="graph0" class="graph" transform="scale(1 1) rotate(0) translate(4 285)">
<title>InitialState</title>
<!-- Node1 -->
<g id="Node000001" class="node">
<title>Node1</title>
<g id="a_Node000001"><a xlink:href="structInitialState.html" target="_top" xlink:title="Object to hold the values used to initialise new states when adding to the kalman filter object.">
<path fill="white" stroke="#666666" stroke-width="2" d="M119,-177C119,-177 12,-177 12,-177 6,-177 0,-171 0,-165 0,-165 0,-12 0,-12 0,-6 6,0 12,0 12,0 119,0 119,0 125,0 131,-6 131,-12 131,-12 131,-165 131,-165 131,-171 125,-177 119,-177"/>
<text text-anchor="start" x="39" y="-160.5" font-family="Helvetica,sans-Serif" font-size="10.00">InitialState</text>
<text text-anchor="start" x="12.5" y="-145.5" font-family="Helvetica,sans-Serif" font-size="10.00">+</text>
<text text-anchor="start" x="25.5" y="-145.5" font-family="Helvetica,sans-Serif" font-size="10.00">estimate</text>
<text text-anchor="start" x="12.5" y="-130.5" font-family="Helvetica,sans-Serif" font-size="10.00">+</text>
<text text-anchor="start" x="25.5" y="-130.5" font-family="Helvetica,sans-Serif" font-size="10.00">use_remote_sigma</text>
<text text-anchor="start" x="12.5" y="-115.5" font-family="Helvetica,sans-Serif" font-size="10.00">+</text>
<text text-anchor="start" x="25.5" y="-115.5" font-family="Helvetica,sans-Serif" font-size="10.00">x</text>
<text text-anchor="start" x="12.5" y="-100.5" font-family="Helvetica,sans-Serif" font-size="10.00">+</text>
<text text-anchor="start" x="25.5" y="-100.5" font-family="Helvetica,sans-Serif" font-size="10.00">P</text>
<text text-anchor="start" x="12.5" y="-85.5" font-family="Helvetica,sans-Serif" font-size="10.00">+</text>
<text text-anchor="start" x="25.5" y="-85.5" font-family="Helvetica,sans-Serif" font-size="10.00">sigmaMax</text>
<text text-anchor="start" x="12.5" y="-70.5" font-family="Helvetica,sans-Serif" font-size="10.00">+</text>
<text text-anchor="start" x="25.5" y="-70.5" font-family="Helvetica,sans-Serif" font-size="10.00">outageLimit</text>
<text text-anchor="start" x="12.5" y="-55.5" font-family="Helvetica,sans-Serif" font-size="10.00">+</text>
<text text-anchor="start" x="25.5" y="-55.5" font-family="Helvetica,sans-Serif" font-size="10.00">Q</text>
<text text-anchor="start" x="12.5" y="-40.5" font-family="Helvetica,sans-Serif" font-size="10.00">+</text>
<text text-anchor="start" x="25.5" y="-40.5" font-family="Helvetica,sans-Serif" font-size="10.00">tau</text>
<text text-anchor="start" x="12.5" y="-25.5" font-family="Helvetica,sans-Serif" font-size="10.00">+</text>
<text text-anchor="start" x="25.5" y="-25.5" font-family="Helvetica,sans-Serif" font-size="10.00">mu</text>
<text text-anchor="start" x="64" y="-10.5" font-family="Helvetica,sans-Serif" font-size="10.00"> </text>
<polygon fill="#666666" stroke="#666666" points="8.5,-155.5 8.5,-155.5 123.5,-155.5 123.5,-155.5 8.5,-155.5"/>
<polygon fill="#666666" stroke="#666666" points="8.5,-20.5 8.5,-20.5 23.5,-20.5 23.5,-20.5 8.5,-20.5"/>
<polygon fill="#666666" stroke="#666666" points="23.5,-20.5 23.5,-20.5 123.5,-20.5 123.5,-20.5 23.5,-20.5"/>
<polygon fill="none" stroke="#666666" points="8,-4 8,-173 123,-173 123,-4 8,-4"/>
</a>
</g>
</g>
<!-- Node2 -->
<g id="Node000002" class="node">
<title>Node2</title>
<g id="a_Node000002"><a xlink:title=" ">
<path fill="white" stroke="#666666" d="M80.5,-281C80.5,-281 50.5,-281 50.5,-281 44.5,-281 38.5,-275 38.5,-269 38.5,-269 38.5,-236 38.5,-236 38.5,-230 44.5,-224 50.5,-224 50.5,-224 80.5,-224 80.5,-224 86.5,-224 92.5,-230 92.5,-236 92.5,-236 92.5,-269 92.5,-269 92.5,-275 86.5,-281 80.5,-281"/>
<text text-anchor="start" x="51.5" y="-264.5" font-family="Helvetica,sans-Serif" font-size="10.00">string</text>
<text text-anchor="start" x="63.5" y="-249.5" font-family="Helvetica,sans-Serif" font-size="10.00"> </text>
<text text-anchor="start" x="63.5" y="-234.5" font-family="Helvetica,sans-Serif" font-size="10.00"> </text>
<polygon fill="#666666" stroke="#666666" points="46.5,-259.5 46.5,-259.5 84.5,-259.5 84.5,-259.5 46.5,-259.5"/>
<polygon fill="#666666" stroke="#666666" points="46.5,-244.5 46.5,-244.5 84.5,-244.5 84.5,-244.5 46.5,-244.5"/>
<polygon fill="none" stroke="#666666" points="46.5,-228 46.5,-277 84.5,-277 84.5,-228 46.5,-228"/>
</a>
</g>
</g>
<!-- Node2&#45;&gt;Node1 -->
<g id="edge1_Node000001_Node000002" class="edge">
<title>Node2&#45;&gt;Node1</title>
<g id="a_edge1_Node000001_Node000002"><a xlink:title=" ">
<path fill="none" stroke="#63b8ff" d="M65.5,-223.65C65.5,-213.71 65.5,-201.86 65.5,-189.37"/>
<polygon fill="none" stroke="#63b8ff" points="65.5,-189.25 61.5,-183.25 65.5,-177.25 69.5,-183.25 65.5,-189.25"/>
</a>
</g>
<text text-anchor="middle" x="94.5" y="-198" font-family="Helvetica,sans-Serif" font-size="10.00" fill="grey"> +comment</text>
</g>
</g>
</svg>
