<?xml version="1.0" encoding="UTF-8" standalone="no"?>
<!DOCTYPE svg PUBLIC "-//W3C//DTD SVG 1.1//EN"
 "http://www.w3.org/Graphics/SVG/1.1/DTD/svg11.dtd">
<!-- Generated by graphviz version 2.43.0 (0)
 -->
<!-- Title: KalmanModel Pages: 1 -->
<svg width="507pt" height="339pt"
 viewBox="0.00 0.00 506.50 339.00" xmlns="http://www.w3.org/2000/svg" xmlns:xlink="http://www.w3.org/1999/xlink">
<g id="graph0" class="graph" transform="scale(1 1) rotate(0) translate(4 335)">
<title>KalmanModel</title>
<!-- Node1 -->
<g id="Node000001" class="node">
<title>Node1</title>
<g id="a_Node000001"><a xlink:href="structKalmanModel.html" target="_top" xlink:title="Options associated with kalman filter states.">
<path fill="white" stroke="#666666" stroke-width="2" d="M282,-57C282,-57 203,-57 203,-57 197,-57 191,-51 191,-45 191,-45 191,-12 191,-12 191,-6 197,0 203,0 203,0 282,0 282,0 288,0 294,-6 294,-12 294,-12 294,-45 294,-45 294,-51 288,-57 282,-57"/>
<text text-anchor="start" x="209" y="-40.5" font-family="Helvetica,sans-Serif" font-size="10.00">KalmanModel</text>
<text text-anchor="start" x="241" y="-25.5" font-family="Helvetica,sans-Serif" font-size="10.00"> </text>
<text text-anchor="start" x="203.5" y="-10.5" font-family="Helvetica,sans-Serif" font-size="10.00">+</text>
<text text-anchor="start" x="216.5" y="-10.5" font-family="Helvetica,sans-Serif" font-size="10.00">operator+=()</text>
<polygon fill="#666666" stroke="#666666" points="199.5,-35.5 199.5,-35.5 286.5,-35.5 286.5,-35.5 199.5,-35.5"/>
<polygon fill="#666666" stroke="#666666" points="199.5,-20.5 199.5,-20.5 286.5,-20.5 286.5,-20.5 199.5,-20.5"/>
<polygon fill="none" stroke="#666666" points="199,-4 199,-53 286,-53 286,-4 199,-4"/>
</a>
</g>
</g>
<!-- Node2 -->
<g id="Node000002" class="node">
<title>Node2</title>
<g id="a_Node000002"><a xlink:title=" ">
<path fill="white" stroke="#666666" d="M101,-227C101,-227 12,-227 12,-227 6,-227 0,-221 0,-215 0,-215 0,-182 0,-182 0,-176 6,-170 12,-170 12,-170 101,-170 101,-170 107,-170 113,-176 113,-182 113,-182 113,-215 113,-215 113,-221 107,-227 101,-227"/>
<text text-anchor="start" x="13.5" y="-210.5" font-family="Helvetica,sans-Serif" font-size="10.00">vector&lt; double &gt;</text>
<text text-anchor="start" x="55" y="-195.5" font-family="Helvetica,sans-Serif" font-size="10.00"> </text>
<text text-anchor="start" x="55" y="-180.5" font-family="Helvetica,sans-Serif" font-size="10.00"> </text>
<polygon fill="#666666" stroke="#666666" points="8.5,-205.5 8.5,-205.5 105.5,-205.5 105.5,-205.5 8.5,-205.5"/>
<polygon fill="#666666" stroke="#666666" points="8.5,-190.5 8.5,-190.5 105.5,-190.5 105.5,-190.5 8.5,-190.5"/>
<polygon fill="none" stroke="#666666" points="8,-174 8,-223 105,-223 105,-174 8,-174"/>
</a>
</g>
</g>
<!-- Node2&#45;&gt;Node1 -->
<g id="edge1_Node000001_Node000002" class="edge">
<title>Node2&#45;&gt;Node1</title>
<g id="a_edge1_Node000001_Node000002"><a xlink:title=" ">
<path fill="none" stroke="#63b8ff" d="M56.54,-169.9C58.08,-142.3 64.75,-100.4 89.5,-75 112.81,-51.08 148.07,-39.6 178.87,-34.15"/>
<polygon fill="none" stroke="#63b8ff" points="179.01,-34.12 184.32,-29.25 190.87,-32.28 185.55,-37.15 179.01,-34.12"/>
</a>
</g>
<text text-anchor="middle" x="128.5" y="-144" font-family="Helvetica,sans-Serif" font-size="10.00" fill="grey"> +apriori_value</text>
<text text-anchor="middle" x="128.5" y="-133" font-family="Helvetica,sans-Serif" font-size="10.00" fill="grey">+mu</text>
<text text-anchor="middle" x="128.5" y="-122" font-family="Helvetica,sans-Serif" font-size="10.00" fill="grey">+outage_limit</text>
<text text-anchor="middle" x="128.5" y="-111" font-family="Helvetica,sans-Serif" font-size="10.00" fill="grey">+process_noise</text>
<text text-anchor="middle" x="128.5" y="-100" font-family="Helvetica,sans-Serif" font-size="10.00" fill="grey">+sigma</text>
<text text-anchor="middle" x="128.5" y="-89" font-family="Helvetica,sans-Serif" font-size="10.00" fill="grey">+sigma_limit</text>
<text text-anchor="middle" x="128.5" y="-78" font-family="Helvetica,sans-Serif" font-size="10.00" fill="grey">+tau</text>
</g>
<!-- Node3 -->
<g id="Node000003" class="node">
<title>Node3</title>
<g id="a_Node000003"><a xlink:title=" ">
<path fill="white" stroke="#666666" d="M198,-331C198,-331 165,-331 165,-331 159,-331 153,-325 153,-319 153,-319 153,-286 153,-286 153,-280 159,-274 165,-274 165,-274 198,-274 198,-274 204,-274 210,-280 210,-286 210,-286 210,-319 210,-319 210,-325 204,-331 198,-331"/>
<text text-anchor="start" x="166.5" y="-314.5" font-family="Helvetica,sans-Serif" font-size="10.00">vector</text>
<text text-anchor="start" x="180" y="-299.5" font-family="Helvetica,sans-Serif" font-size="10.00"> </text>
<text text-anchor="start" x="180" y="-284.5" font-family="Helvetica,sans-Serif" font-size="10.00"> </text>
<polygon fill="#666666" stroke="#666666" points="161.5,-309.5 161.5,-309.5 202.5,-309.5 202.5,-309.5 161.5,-309.5"/>
<polygon fill="#666666" stroke="#666666" points="161.5,-294.5 161.5,-294.5 202.5,-294.5 202.5,-294.5 161.5,-294.5"/>
<polygon fill="none" stroke="#666666" points="161,-278 161,-327 202,-327 202,-278 161,-278"/>
</a>
</g>
</g>
<!-- Node3&#45;&gt;Node2 -->
<g id="edge2_Node000002_Node000003" class="edge">
<title>Node3&#45;&gt;Node2</title>
<g id="a_edge2_Node000002_Node000003"><a xlink:title=" ">
<path fill="none" stroke="orange" d="M144.6,-275.92C135.9,-269.59 126.75,-262.7 118.5,-256 107.42,-247 95.74,-236.61 85.54,-227.22"/>
<polygon fill="orange" stroke="orange" points="142.6,-278.79 152.76,-281.78 146.68,-273.11 142.6,-278.79"/>
</a>
</g>
<text text-anchor="middle" x="148" y="-248" font-family="Helvetica,sans-Serif" font-size="10.00" fill="grey"> &lt; double &gt;</text>
</g>
<!-- Node4 -->
<g id="Node000004" class="node">
<title>Node4</title>
<g id="a_Node000004"><a xlink:title=" ">
<path fill="white" stroke="#666666" d="M220,-227C220,-227 143,-227 143,-227 137,-227 131,-221 131,-215 131,-215 131,-182 131,-182 131,-176 137,-170 143,-170 143,-170 220,-170 220,-170 226,-170 232,-176 232,-182 232,-182 232,-215 232,-215 232,-221 226,-227 220,-227"/>
<text text-anchor="start" x="144.5" y="-210.5" font-family="Helvetica,sans-Serif" font-size="10.00">vector&lt; bool &gt;</text>
<text text-anchor="start" x="180" y="-195.5" font-family="Helvetica,sans-Serif" font-size="10.00"> </text>
<text text-anchor="start" x="180" y="-180.5" font-family="Helvetica,sans-Serif" font-size="10.00"> </text>
<polygon fill="#666666" stroke="#666666" points="139.5,-205.5 139.5,-205.5 224.5,-205.5 224.5,-205.5 139.5,-205.5"/>
<polygon fill="#666666" stroke="#666666" points="139.5,-190.5 139.5,-190.5 224.5,-190.5 224.5,-190.5 139.5,-190.5"/>
<polygon fill="none" stroke="#666666" points="139,-174 139,-223 224,-223 224,-174 139,-174"/>
</a>
</g>
</g>
<!-- Node3&#45;&gt;Node4 -->
<g id="edge4_Node000004_Node000003" class="edge">
<title>Node3&#45;&gt;Node4</title>
<g id="a_edge4_Node000004_Node000003"><a xlink:title=" ">
<path fill="none" stroke="orange" d="M181.5,-263.61C181.5,-251.51 181.5,-238.35 181.5,-227.12"/>
<polygon fill="orange" stroke="orange" points="178,-263.9 181.5,-273.9 185,-263.9 178,-263.9"/>
</a>
</g>
<text text-anchor="middle" x="205" y="-248" font-family="Helvetica,sans-Serif" font-size="10.00" fill="grey"> &lt; bool &gt;</text>
</g>
<!-- Node5 -->
<g id="Node000005" class="node">
<title>Node5</title>
<g id="a_Node000005"><a xlink:title=" ">
<path fill="white" stroke="#666666" d="M346.5,-227C346.5,-227 262.5,-227 262.5,-227 256.5,-227 250.5,-221 250.5,-215 250.5,-215 250.5,-182 250.5,-182 250.5,-176 256.5,-170 262.5,-170 262.5,-170 346.5,-170 346.5,-170 352.5,-170 358.5,-176 358.5,-182 358.5,-182 358.5,-215 358.5,-215 358.5,-221 352.5,-227 346.5,-227"/>
<text text-anchor="start" x="263.5" y="-210.5" font-family="Helvetica,sans-Serif" font-size="10.00">vector&lt; string &gt;</text>
<text text-anchor="start" x="302.5" y="-195.5" font-family="Helvetica,sans-Serif" font-size="10.00"> </text>
<text text-anchor="start" x="302.5" y="-180.5" font-family="Helvetica,sans-Serif" font-size="10.00"> </text>
<polygon fill="#666666" stroke="#666666" points="258.5,-205.5 258.5,-205.5 350.5,-205.5 350.5,-205.5 258.5,-205.5"/>
<polygon fill="#666666" stroke="#666666" points="258.5,-190.5 258.5,-190.5 350.5,-190.5 350.5,-190.5 258.5,-190.5"/>
<polygon fill="none" stroke="#666666" points="258.5,-174 258.5,-223 350.5,-223 350.5,-174 258.5,-174"/>
</a>
</g>
</g>
<!-- Node3&#45;&gt;Node5 -->
<g id="edge6_Node000005_Node000003" class="edge">
<title>Node3&#45;&gt;Node5</title>
<g id="a_edge6_Node000005_Node000003"><a xlink:title=" ">
<path fill="none" stroke="orange" d="M218.05,-271.19C234.95,-257.17 254.88,-240.65 271.34,-227"/>
<polygon fill="orange" stroke="orange" points="215.49,-268.77 210.03,-277.84 219.96,-274.15 215.49,-268.77"/>
</a>
</g>
<text text-anchor="middle" x="274.5" y="-248" font-family="Helvetica,sans-Serif" font-size="10.00" fill="grey"> &lt; string &gt;</text>
</g>
<!-- Node4&#45;&gt;Node1 -->
<g id="edge3_Node000001_Node000004" class="edge">
<title>Node4&#45;&gt;Node1</title>
<g id="a_edge3_Node000001_Node000004"><a xlink:title=" ">
<path fill="none" stroke="#63b8ff" d="M174.69,-169.6C169.88,-143.66 166.62,-104.65 181.5,-75 183.08,-71.84 185,-68.85 187.16,-66.02"/>
<polygon fill="none" stroke="#63b8ff" points="187.27,-65.91 188.35,-58.78 195.35,-57.03 194.27,-64.16 187.27,-65.91"/>
</a>
</g>
<text text-anchor="middle" x="232.5" y="-116.5" font-family="Helvetica,sans-Serif" font-size="10.00" fill="grey"> +estimate</text>
<text text-anchor="middle" x="232.5" y="-105.5" font-family="Helvetica,sans-Serif" font-size="10.00" fill="grey">+use_remote_sigma</text>
</g>
<!-- Node5&#45;&gt;Node1 -->
<g id="edge5_Node000001_Node000005" class="edge">
<title>Node5&#45;&gt;Node1</title>
<g id="a_edge5_Node000001_Node000005"><a xlink:title=" ">
<path fill="none" stroke="#63b8ff" d="M304.11,-169.89C302.77,-144.15 298.19,-105.29 283.5,-75 282.16,-72.24 280.6,-69.52 278.89,-66.87"/>
<polygon fill="none" stroke="#63b8ff" points="278.78,-66.72 272,-64.26 271.67,-57.05 278.45,-59.52 278.78,-66.72"/>
</a>
</g>
<text text-anchor="middle" x="332.5" y="-111" font-family="Helvetica,sans-Serif" font-size="10.00" fill="grey"> +comment</text>
</g>
<!-- Node6 -->
<g id="Node000006" class="node">
<title>Node6</title>
<g id="a_Node000006"><a xlink:title=" ">
<path fill="white" stroke="#666666" d="M476,-227C476,-227 389,-227 389,-227 383,-227 377,-221 377,-215 377,-215 377,-182 377,-182 377,-176 383,-170 389,-170 389,-170 476,-170 476,-170 482,-170 488,-176 488,-182 488,-182 488,-215 488,-215 488,-221 482,-227 476,-227"/>
<text text-anchor="start" x="390.5" y="-210.5" font-family="Helvetica,sans-Serif" font-size="10.00">map&lt; int, bool &gt;</text>
<text text-anchor="start" x="431" y="-195.5" font-family="Helvetica,sans-Serif" font-size="10.00"> </text>
<text text-anchor="start" x="431" y="-180.5" font-family="Helvetica,sans-Serif" font-size="10.00"> </text>
<polygon fill="#666666" stroke="#666666" points="385.5,-205.5 385.5,-205.5 480.5,-205.5 480.5,-205.5 385.5,-205.5"/>
<polygon fill="#666666" stroke="#666666" points="385.5,-190.5 385.5,-190.5 480.5,-190.5 480.5,-190.5 385.5,-190.5"/>
<polygon fill="none" stroke="#666666" points="385,-174 385,-223 480,-223 480,-174 385,-174"/>
</a>
</g>
</g>
<!-- Node6&#45;&gt;Node1 -->
<g id="edge7_Node000001_Node000006" class="edge">
<title>Node6&#45;&gt;Node1</title>
<g id="a_edge7_Node000001_Node000006"><a xlink:title=" ">
<path fill="none" stroke="#63b8ff" d="M423.87,-169.95C413.92,-142.38 395.04,-100.51 365.5,-75 348.57,-60.38 326.51,-50.28 305.76,-43.38"/>
<polygon fill="none" stroke="#63b8ff" points="305.54,-43.31 298.63,-45.37 294.08,-39.78 300.99,-37.72 305.54,-43.31"/>
</a>
</g>
<text text-anchor="middle" x="458" y="-111" font-family="Helvetica,sans-Serif" font-size="10.00" fill="grey"> +initialisedMap</text>
</g>
<!-- Node7 -->
<g id="Node000007" class="node">
<title>Node7</title>
<g id="a_Node000007"><a xlink:title=" ">
<path fill="white" stroke="#666666" d="M444.5,-331C444.5,-331 420.5,-331 420.5,-331 414.5,-331 408.5,-325 408.5,-319 408.5,-319 408.5,-286 408.5,-286 408.5,-280 414.5,-274 420.5,-274 420.5,-274 444.5,-274 444.5,-274 450.5,-274 456.5,-280 456.5,-286 456.5,-286 456.5,-319 456.5,-319 456.5,-325 450.5,-331 444.5,-331"/>
<text text-anchor="start" x="421.5" y="-314.5" font-family="Helvetica,sans-Serif" font-size="10.00">map</text>
<text text-anchor="start" x="430.5" y="-299.5" font-family="Helvetica,sans-Serif" font-size="10.00"> </text>
<text text-anchor="start" x="430.5" y="-284.5" font-family="Helvetica,sans-Serif" font-size="10.00"> </text>
<polygon fill="#666666" stroke="#666666" points="416.5,-309.5 416.5,-309.5 448.5,-309.5 448.5,-309.5 416.5,-309.5"/>
<polygon fill="#666666" stroke="#666666" points="416.5,-294.5 416.5,-294.5 448.5,-294.5 448.5,-294.5 416.5,-294.5"/>
<polygon fill="none" stroke="#666666" points="416.5,-278 416.5,-327 448.5,-327 448.5,-278 416.5,-278"/>
</a>
</g>
</g>
<!-- Node7&#45;&gt;Node6 -->
<g id="edge8_Node000006_Node000007" class="edge">
<title>Node7&#45;&gt;Node6</title>
<g id="a_edge8_Node000006_Node000007"><a xlink:title=" ">
<path fill="none" stroke="orange" d="M432.5,-263.61C432.5,-251.51 432.5,-238.35 432.5,-227.12"/>
<polygon fill="orange" stroke="orange" points="429,-263.9 432.5,-273.9 436,-263.9 429,-263.9"/>
</a>
</g>
<text text-anchor="middle" x="465.5" y="-248" font-family="Helvetica,sans-Serif" font-size="10.00" fill="grey"> &lt; int, bool &gt;</text>
</g>
</g>
</svg>
