<?xml version="1.0" encoding="UTF-8" standalone="no"?>
<!DOCTYPE svg PUBLIC "-//W3C//DTD SVG 1.1//EN"
 "http://www.w3.org/Graphics/SVG/1.1/DTD/svg11.dtd">
<!-- Generated by graphviz version 2.43.0 (0)
 -->
<!-- Title: PppOptions Pages: 1 -->
<svg width="1195pt" height="724pt"
 viewBox="0.00 0.00 1195.00 724.00" xmlns="http://www.w3.org/2000/svg" xmlns:xlink="http://www.w3.org/1999/xlink">
<g id="graph0" class="graph" transform="scale(1 1) rotate(0) translate(4 720)">
<title>PppOptions</title>
<!-- Node1 -->
<g id="Node000001" class="node">
<title>Node1</title>
<g id="a_Node000001"><a xlink:href="structPppOptions.html" target="_top" xlink:title="Options associated with the ppp processing mode of operation.">
<path fill="white" stroke="#666666" stroke-width="2" d="M983,-207C983,-207 848,-207 848,-207 842,-207 836,-201 836,-195 836,-195 836,-12 836,-12 836,-6 842,0 848,0 848,0 983,0 983,0 989,0 995,-6 995,-12 995,-12 995,-195 995,-195 995,-201 989,-207 983,-207"/>
<text text-anchor="start" x="888" y="-190.5" font-family="Helvetica,sans-Serif" font-size="10.00">PppOptions</text>
<text text-anchor="start" x="848.5" y="-175.5" font-family="Helvetica,sans-Serif" font-size="10.00">+</text>
<text text-anchor="start" x="861.5" y="-175.5" font-family="Helvetica,sans-Serif" font-size="10.00">equate_ionospheres</text>
<text text-anchor="start" x="848.5" y="-160.5" font-family="Helvetica,sans-Serif" font-size="10.00">+</text>
<text text-anchor="start" x="861.5" y="-160.5" font-family="Helvetica,sans-Serif" font-size="10.00">equate_tropospheres</text>
<text text-anchor="start" x="848.5" y="-145.5" font-family="Helvetica,sans-Serif" font-size="10.00">+</text>
<text text-anchor="start" x="861.5" y="-145.5" font-family="Helvetica,sans-Serif" font-size="10.00">use_rtk_combo</text>
<text text-anchor="start" x="848.5" y="-130.5" font-family="Helvetica,sans-Serif" font-size="10.00">+</text>
<text text-anchor="start" x="861.5" y="-130.5" font-family="Helvetica,sans-Serif" font-size="10.00">merge_correlated_states</text>
<text text-anchor="start" x="848.5" y="-115.5" font-family="Helvetica,sans-Serif" font-size="10.00">+</text>
<text text-anchor="start" x="861.5" y="-115.5" font-family="Helvetica,sans-Serif" font-size="10.00">use_primary_signals</text>
<text text-anchor="start" x="848.5" y="-100.5" font-family="Helvetica,sans-Serif" font-size="10.00">+</text>
<text text-anchor="start" x="861.5" y="-100.5" font-family="Helvetica,sans-Serif" font-size="10.00">add_eop_component</text>
<text text-anchor="start" x="848.5" y="-85.5" font-family="Helvetica,sans-Serif" font-size="10.00">+</text>
<text text-anchor="start" x="861.5" y="-85.5" font-family="Helvetica,sans-Serif" font-size="10.00">satellite_chunking</text>
<text text-anchor="start" x="848.5" y="-70.5" font-family="Helvetica,sans-Serif" font-size="10.00">+</text>
<text text-anchor="start" x="861.5" y="-70.5" font-family="Helvetica,sans-Serif" font-size="10.00">receiver_chunking</text>
<text text-anchor="start" x="848.5" y="-55.5" font-family="Helvetica,sans-Serif" font-size="10.00">+</text>
<text text-anchor="start" x="861.5" y="-55.5" font-family="Helvetica,sans-Serif" font-size="10.00">chunk_size</text>
<text text-anchor="start" x="848.5" y="-40.5" font-family="Helvetica,sans-Serif" font-size="10.00">+</text>
<text text-anchor="start" x="861.5" y="-40.5" font-family="Helvetica,sans-Serif" font-size="10.00">nuke_enable</text>
<text text-anchor="start" x="848.5" y="-25.5" font-family="Helvetica,sans-Serif" font-size="10.00">+</text>
<text text-anchor="start" x="861.5" y="-25.5" font-family="Helvetica,sans-Serif" font-size="10.00">nuke_interval</text>
<text text-anchor="start" x="914" y="-10.5" font-family="Helvetica,sans-Serif" font-size="10.00"> </text>
<polygon fill="#666666" stroke="#666666" points="844.5,-185.5 844.5,-185.5 987.5,-185.5 987.5,-185.5 844.5,-185.5"/>
<polygon fill="#666666" stroke="#666666" points="844.5,-20.5 844.5,-20.5 859.5,-20.5 859.5,-20.5 844.5,-20.5"/>
<polygon fill="#666666" stroke="#666666" points="859.5,-20.5 859.5,-20.5 987.5,-20.5 987.5,-20.5 859.5,-20.5"/>
<polygon fill="none" stroke="#666666" points="844,-4 844,-203 987,-203 987,-4 844,-4"/>
</a>
</g>
</g>
<!-- Node2 -->
<g id="Node000002" class="node">
<title>Node2</title>
<g id="a_Node000002"><a xlink:href="structFilterOptions.html" target="_top" xlink:title=" ">
<path fill="white" stroke="#666666" d="M453,-382C453,-382 342,-382 342,-382 336,-382 330,-376 330,-370 330,-370 330,-277 330,-277 330,-271 336,-265 342,-265 342,-265 453,-265 453,-265 459,-265 465,-271 465,-277 465,-277 465,-370 465,-370 465,-376 459,-382 453,-382"/>
<text text-anchor="start" x="366.5" y="-365.5" font-family="Helvetica,sans-Serif" font-size="10.00">FilterOptions</text>
<text text-anchor="start" x="342.5" y="-350.5" font-family="Helvetica,sans-Serif" font-size="10.00">+</text>
<text text-anchor="start" x="355.5" y="-350.5" font-family="Helvetica,sans-Serif" font-size="10.00">simulate_filter_only</text>
<text text-anchor="start" x="342.5" y="-335.5" font-family="Helvetica,sans-Serif" font-size="10.00">+</text>
<text text-anchor="start" x="355.5" y="-335.5" font-family="Helvetica,sans-Serif" font-size="10.00">assume_linearity</text>
<text text-anchor="start" x="342.5" y="-320.5" font-family="Helvetica,sans-Serif" font-size="10.00">+</text>
<text text-anchor="start" x="355.5" y="-320.5" font-family="Helvetica,sans-Serif" font-size="10.00">advanced_postfits</text>
<text text-anchor="start" x="342.5" y="-305.5" font-family="Helvetica,sans-Serif" font-size="10.00">+</text>
<text text-anchor="start" x="355.5" y="-305.5" font-family="Helvetica,sans-Serif" font-size="10.00">joseph_stabilisation</text>
<text text-anchor="start" x="342.5" y="-290.5" font-family="Helvetica,sans-Serif" font-size="10.00">+</text>
<text text-anchor="start" x="355.5" y="-290.5" font-family="Helvetica,sans-Serif" font-size="10.00">inverter</text>
<text text-anchor="start" x="396" y="-275.5" font-family="Helvetica,sans-Serif" font-size="10.00"> </text>
<polygon fill="#666666" stroke="#666666" points="338.5,-360.5 338.5,-360.5 457.5,-360.5 457.5,-360.5 338.5,-360.5"/>
<polygon fill="#666666" stroke="#666666" points="338.5,-285.5 338.5,-285.5 353.5,-285.5 353.5,-285.5 338.5,-285.5"/>
<polygon fill="#666666" stroke="#666666" points="353.5,-285.5 353.5,-285.5 457.5,-285.5 457.5,-285.5 353.5,-285.5"/>
<polygon fill="none" stroke="#666666" points="338,-269 338,-378 457,-378 457,-269 338,-269"/>
</a>
</g>
</g>
<!-- Node2&#45;&gt;Node1 -->
<g id="edge1_Node000001_Node000002" class="edge">
<title>Node2&#45;&gt;Node1</title>
<g id="a_edge1_Node000001_Node000002"><a xlink:title=" ">
<path fill="none" stroke="#63b8ff" d="M474.68,-290.02C571.78,-249.16 737.65,-179.35 835.87,-138.01"/>
<polygon fill="none" stroke="#63b8ff" points="473.08,-286.9 465.22,-294 475.79,-293.35 473.08,-286.9"/>
</a>
</g>
</g>
<!-- Node3 -->
<g id="Node000003" class="node">
<title>Node3</title>
<g id="a_Node000003"><a xlink:href="structRtsOptions.html" target="_top" xlink:title=" ">
<path fill="#fff0f0" stroke="red" d="M591.5,-604.5C591.5,-604.5 487.5,-604.5 487.5,-604.5 481.5,-604.5 475.5,-598.5 475.5,-592.5 475.5,-592.5 475.5,-514.5 475.5,-514.5 475.5,-508.5 481.5,-502.5 487.5,-502.5 487.5,-502.5 591.5,-502.5 591.5,-502.5 597.5,-502.5 603.5,-508.5 603.5,-514.5 603.5,-514.5 603.5,-592.5 603.5,-592.5 603.5,-598.5 597.5,-604.5 591.5,-604.5"/>
<text text-anchor="start" x="512.5" y="-588.5" font-family="Helvetica,sans-Serif" font-size="10.00">RtsOptions</text>
<text text-anchor="start" x="487.5" y="-573.5" font-family="Helvetica,sans-Serif" font-size="10.00">+</text>
<text text-anchor="start" x="500.5" y="-573.5" font-family="Helvetica,sans-Serif" font-size="10.00">rts_lag</text>
<text text-anchor="start" x="487.5" y="-558.5" font-family="Helvetica,sans-Serif" font-size="10.00">+</text>
<text text-anchor="start" x="500.5" y="-558.5" font-family="Helvetica,sans-Serif" font-size="10.00">rts_interval</text>
<text text-anchor="start" x="487.5" y="-543.5" font-family="Helvetica,sans-Serif" font-size="10.00">+</text>
<text text-anchor="start" x="500.5" y="-543.5" font-family="Helvetica,sans-Serif" font-size="10.00">queue_rts_outputs</text>
<text text-anchor="start" x="487.5" y="-528.5" font-family="Helvetica,sans-Serif" font-size="10.00">+</text>
<text text-anchor="start" x="500.5" y="-528.5" font-family="Helvetica,sans-Serif" font-size="10.00">rts_inverter</text>
<text text-anchor="start" x="537.5" y="-513.5" font-family="Helvetica,sans-Serif" font-size="10.00"> </text>
<polygon fill="red" stroke="red" points="483.5,-583.5 483.5,-583.5 595.5,-583.5 595.5,-583.5 483.5,-583.5"/>
<polygon fill="red" stroke="red" points="483.5,-523.5 483.5,-523.5 498.5,-523.5 498.5,-523.5 483.5,-523.5"/>
<polygon fill="red" stroke="red" points="498.5,-523.5 498.5,-523.5 595.5,-523.5 595.5,-523.5 498.5,-523.5"/>
<polygon fill="none" stroke="red" points="483.5,-506.5 483.5,-600.5 595.5,-600.5 595.5,-506.5 483.5,-506.5"/>
</a>
</g>
</g>
<!-- Node3&#45;&gt;Node2 -->
<g id="edge2_Node000002_Node000003" class="edge">
<title>Node3&#45;&gt;Node2</title>
<g id="a_edge2_Node000002_Node000003"><a xlink:title=" ">
<path fill="none" stroke="#63b8ff" d="M523.42,-492.53C513.81,-463.06 499.68,-427.98 480.5,-400 475.98,-393.41 470.79,-387 465.24,-380.87"/>
<polygon fill="none" stroke="#63b8ff" points="520.16,-493.81 526.51,-502.28 526.83,-491.69 520.16,-493.81"/>
</a>
</g>
</g>
<!-- Node5 -->
<g id="Node000005" class="node">
<title>Node5</title>
<g id="a_Node000005"><a xlink:href="structPrefitOptions.html" target="_top" xlink:title=" ">
<path fill="white" stroke="#666666" d="M139,-612C139,-612 12,-612 12,-612 6,-612 0,-606 0,-600 0,-600 0,-507 0,-507 0,-501 6,-495 12,-495 12,-495 139,-495 139,-495 145,-495 151,-501 151,-507 151,-507 151,-600 151,-600 151,-606 145,-612 139,-612"/>
<text text-anchor="start" x="44" y="-595.5" font-family="Helvetica,sans-Serif" font-size="10.00">PrefitOptions</text>
<text text-anchor="start" x="12.5" y="-580.5" font-family="Helvetica,sans-Serif" font-size="10.00">+</text>
<text text-anchor="start" x="25.5" y="-580.5" font-family="Helvetica,sans-Serif" font-size="10.00">max_iterations</text>
<text text-anchor="start" x="12.5" y="-565.5" font-family="Helvetica,sans-Serif" font-size="10.00">+</text>
<text text-anchor="start" x="25.5" y="-565.5" font-family="Helvetica,sans-Serif" font-size="10.00">sigma_check</text>
<text text-anchor="start" x="12.5" y="-550.5" font-family="Helvetica,sans-Serif" font-size="10.00">+</text>
<text text-anchor="start" x="25.5" y="-550.5" font-family="Helvetica,sans-Serif" font-size="10.00">state_sigma_threshold</text>
<text text-anchor="start" x="12.5" y="-535.5" font-family="Helvetica,sans-Serif" font-size="10.00">+</text>
<text text-anchor="start" x="25.5" y="-535.5" font-family="Helvetica,sans-Serif" font-size="10.00">meas_sigma_threshold</text>
<text text-anchor="start" x="12.5" y="-520.5" font-family="Helvetica,sans-Serif" font-size="10.00">+</text>
<text text-anchor="start" x="25.5" y="-520.5" font-family="Helvetica,sans-Serif" font-size="10.00">omega_test</text>
<text text-anchor="start" x="74" y="-505.5" font-family="Helvetica,sans-Serif" font-size="10.00"> </text>
<polygon fill="#666666" stroke="#666666" points="8.5,-590.5 8.5,-590.5 143.5,-590.5 143.5,-590.5 8.5,-590.5"/>
<polygon fill="#666666" stroke="#666666" points="8.5,-515.5 8.5,-515.5 23.5,-515.5 23.5,-515.5 8.5,-515.5"/>
<polygon fill="#666666" stroke="#666666" points="23.5,-515.5 23.5,-515.5 143.5,-515.5 143.5,-515.5 23.5,-515.5"/>
<polygon fill="none" stroke="#666666" points="8,-499 8,-608 143,-608 143,-499 8,-499"/>
</a>
</g>
</g>
<!-- Node5&#45;&gt;Node2 -->
<g id="edge3_Node000002_Node000005" class="edge">
<title>Node5&#45;&gt;Node2</title>
<g id="a_edge3_Node000002_Node000005"><a xlink:title=" ">
<path fill="none" stroke="#63b8ff" d="M119.64,-494.68C145.75,-463.49 180.97,-426.14 218.5,-400 248.83,-378.88 285.99,-362 318.58,-349.61"/>
<polygon fill="none" stroke="#63b8ff" points="318.64,-349.59 322.88,-343.75 329.9,-345.42 325.66,-351.25 318.64,-349.59"/>
</a>
</g>
<text text-anchor="middle" x="248.5" y="-436" font-family="Helvetica,sans-Serif" font-size="10.00" fill="grey"> +prefitOpts</text>
</g>
<!-- Node6 -->
<g id="Node000006" class="node">
<title>Node6</title>
<g id="a_Node000006"><a xlink:href="structPostfitOptions.html" target="_top" xlink:title=" ">
<path fill="white" stroke="#666666" d="M308,-604.5C308,-604.5 181,-604.5 181,-604.5 175,-604.5 169,-598.5 169,-592.5 169,-592.5 169,-514.5 169,-514.5 169,-508.5 175,-502.5 181,-502.5 181,-502.5 308,-502.5 308,-502.5 314,-502.5 320,-508.5 320,-514.5 320,-514.5 320,-592.5 320,-592.5 320,-598.5 314,-604.5 308,-604.5"/>
<text text-anchor="start" x="210.5" y="-588.5" font-family="Helvetica,sans-Serif" font-size="10.00">PostfitOptions</text>
<text text-anchor="start" x="181.5" y="-573.5" font-family="Helvetica,sans-Serif" font-size="10.00">+</text>
<text text-anchor="start" x="194.5" y="-573.5" font-family="Helvetica,sans-Serif" font-size="10.00">max_iterations</text>
<text text-anchor="start" x="181.5" y="-558.5" font-family="Helvetica,sans-Serif" font-size="10.00">+</text>
<text text-anchor="start" x="194.5" y="-558.5" font-family="Helvetica,sans-Serif" font-size="10.00">sigma_check</text>
<text text-anchor="start" x="181.5" y="-543.5" font-family="Helvetica,sans-Serif" font-size="10.00">+</text>
<text text-anchor="start" x="194.5" y="-543.5" font-family="Helvetica,sans-Serif" font-size="10.00">state_sigma_threshold</text>
<text text-anchor="start" x="181.5" y="-528.5" font-family="Helvetica,sans-Serif" font-size="10.00">+</text>
<text text-anchor="start" x="194.5" y="-528.5" font-family="Helvetica,sans-Serif" font-size="10.00">meas_sigma_threshold</text>
<text text-anchor="start" x="243" y="-513.5" font-family="Helvetica,sans-Serif" font-size="10.00"> </text>
<polygon fill="#666666" stroke="#666666" points="177.5,-583.5 177.5,-583.5 312.5,-583.5 312.5,-583.5 177.5,-583.5"/>
<polygon fill="#666666" stroke="#666666" points="177.5,-523.5 177.5,-523.5 192.5,-523.5 192.5,-523.5 177.5,-523.5"/>
<polygon fill="#666666" stroke="#666666" points="192.5,-523.5 192.5,-523.5 312.5,-523.5 312.5,-523.5 192.5,-523.5"/>
<polygon fill="none" stroke="#666666" points="177,-506.5 177,-600.5 312,-600.5 312,-506.5 177,-506.5"/>
</a>
</g>
</g>
<!-- Node6&#45;&gt;Node2 -->
<g id="edge4_Node000002_Node000006" class="edge">
<title>Node6&#45;&gt;Node2</title>
<g id="a_edge4_Node000002_Node000006"><a xlink:title=" ">
<path fill="none" stroke="#63b8ff" d="M268.35,-502.3C283.81,-471.66 305.34,-432.3 328.5,-400 330.49,-397.23 332.57,-394.44 334.71,-391.67"/>
<polygon fill="none" stroke="#63b8ff" points="334.72,-391.66 335.35,-384.47 342.22,-382.29 341.59,-389.47 334.72,-391.66"/>
</a>
</g>
<text text-anchor="middle" x="361" y="-436" font-family="Helvetica,sans-Serif" font-size="10.00" fill="grey"> +postfitOpts</text>
</g>
<!-- Node7 -->
<g id="Node000007" class="node">
<title>Node7</title>
<g id="a_Node000007"><a xlink:href="structChiSquareOptions.html" target="_top" xlink:title=" ">
<path fill="white" stroke="#666666" d="M445,-597C445,-597 350,-597 350,-597 344,-597 338,-591 338,-585 338,-585 338,-522 338,-522 338,-516 344,-510 350,-510 350,-510 445,-510 445,-510 451,-510 457,-516 457,-522 457,-522 457,-585 457,-585 457,-591 451,-597 445,-597"/>
<text text-anchor="start" x="354" y="-580.5" font-family="Helvetica,sans-Serif" font-size="10.00">ChiSquareOptions</text>
<text text-anchor="start" x="350.5" y="-565.5" font-family="Helvetica,sans-Serif" font-size="10.00">+</text>
<text text-anchor="start" x="363.5" y="-565.5" font-family="Helvetica,sans-Serif" font-size="10.00">enable</text>
<text text-anchor="start" x="350.5" y="-550.5" font-family="Helvetica,sans-Serif" font-size="10.00">+</text>
<text text-anchor="start" x="363.5" y="-550.5" font-family="Helvetica,sans-Serif" font-size="10.00">mode</text>
<text text-anchor="start" x="350.5" y="-535.5" font-family="Helvetica,sans-Serif" font-size="10.00">+</text>
<text text-anchor="start" x="363.5" y="-535.5" font-family="Helvetica,sans-Serif" font-size="10.00">sigma_threshold</text>
<text text-anchor="start" x="396" y="-520.5" font-family="Helvetica,sans-Serif" font-size="10.00"> </text>
<polygon fill="#666666" stroke="#666666" points="346.5,-575.5 346.5,-575.5 449.5,-575.5 449.5,-575.5 346.5,-575.5"/>
<polygon fill="#666666" stroke="#666666" points="346.5,-530.5 346.5,-530.5 361.5,-530.5 361.5,-530.5 346.5,-530.5"/>
<polygon fill="#666666" stroke="#666666" points="361.5,-530.5 361.5,-530.5 449.5,-530.5 449.5,-530.5 361.5,-530.5"/>
<polygon fill="none" stroke="#666666" points="346,-514 346,-593 449,-593 449,-514 346,-514"/>
</a>
</g>
</g>
<!-- Node7&#45;&gt;Node2 -->
<g id="edge5_Node000002_Node000007" class="edge">
<title>Node7&#45;&gt;Node2</title>
<g id="a_edge5_Node000002_Node000007"><a xlink:title=" ">
<path fill="none" stroke="#63b8ff" d="M397.5,-509.88C397.5,-477.57 397.5,-432.47 397.5,-394.84"/>
<polygon fill="none" stroke="#63b8ff" points="397.5,-394.39 393.5,-388.39 397.5,-382.39 401.5,-388.39 397.5,-394.39"/>
</a>
</g>
<text text-anchor="middle" x="437" y="-436" font-family="Helvetica,sans-Serif" font-size="10.00" fill="grey"> +chiSquareTest</text>
</g>
<!-- Node8 -->
<g id="Node000008" class="node">
<title>Node8</title>
<g id="a_Node000008"><a xlink:href="structKalmanModel.html" target="_top" xlink:title="Options associated with kalman filter states.">
<path fill="white" stroke="#666666" d="M903,-352C903,-352 824,-352 824,-352 818,-352 812,-346 812,-340 812,-340 812,-307 812,-307 812,-301 818,-295 824,-295 824,-295 903,-295 903,-295 909,-295 915,-301 915,-307 915,-307 915,-340 915,-340 915,-346 909,-352 903,-352"/>
<text text-anchor="start" x="830" y="-335.5" font-family="Helvetica,sans-Serif" font-size="10.00">KalmanModel</text>
<text text-anchor="start" x="862" y="-320.5" font-family="Helvetica,sans-Serif" font-size="10.00"> </text>
<text text-anchor="start" x="824.5" y="-305.5" font-family="Helvetica,sans-Serif" font-size="10.00">+</text>
<text text-anchor="start" x="837.5" y="-305.5" font-family="Helvetica,sans-Serif" font-size="10.00">operator+=()</text>
<polygon fill="#666666" stroke="#666666" points="820.5,-330.5 820.5,-330.5 907.5,-330.5 907.5,-330.5 820.5,-330.5"/>
<polygon fill="#666666" stroke="#666666" points="820.5,-315.5 820.5,-315.5 907.5,-315.5 907.5,-315.5 820.5,-315.5"/>
<polygon fill="none" stroke="#666666" points="820,-299 820,-348 907,-348 907,-299 820,-299"/>
</a>
</g>
</g>
<!-- Node8&#45;&gt;Node1 -->
<g id="edge6_Node000001_Node000008" class="edge">
<title>Node8&#45;&gt;Node1</title>
<g id="a_edge6_Node000001_Node000008"><a xlink:title=" ">
<path fill="none" stroke="#63b8ff" d="M867.53,-294.6C870.56,-275.01 875.11,-248.27 880.5,-225 880.96,-222.99 881.44,-220.97 881.93,-218.94"/>
<polygon fill="none" stroke="#63b8ff" points="881.96,-218.82 879.53,-212.04 884.86,-207.18 887.29,-213.97 881.96,-218.82"/>
</a>
</g>
<text text-anchor="middle" x="909" y="-239" font-family="Helvetica,sans-Serif" font-size="10.00" fill="grey"> +eop</text>
<text text-anchor="middle" x="909" y="-228" font-family="Helvetica,sans-Serif" font-size="10.00" fill="grey">+eop_rates</text>
</g>
<!-- Node9 -->
<g id="Node000009" class="node">
<title>Node9</title>
<g id="a_Node000009"><a xlink:title=" ">
<path fill="white" stroke="#666666" d="M723,-582C723,-582 634,-582 634,-582 628,-582 622,-576 622,-570 622,-570 622,-537 622,-537 622,-531 628,-525 634,-525 634,-525 723,-525 723,-525 729,-525 735,-531 735,-537 735,-537 735,-570 735,-570 735,-576 729,-582 723,-582"/>
<text text-anchor="start" x="635.5" y="-565.5" font-family="Helvetica,sans-Serif" font-size="10.00">vector&lt; double &gt;</text>
<text text-anchor="start" x="677" y="-550.5" font-family="Helvetica,sans-Serif" font-size="10.00"> </text>
<text text-anchor="start" x="677" y="-535.5" font-family="Helvetica,sans-Serif" font-size="10.00"> </text>
<polygon fill="#666666" stroke="#666666" points="630.5,-560.5 630.5,-560.5 727.5,-560.5 727.5,-560.5 630.5,-560.5"/>
<polygon fill="#666666" stroke="#666666" points="630.5,-545.5 630.5,-545.5 727.5,-545.5 727.5,-545.5 630.5,-545.5"/>
<polygon fill="none" stroke="#666666" points="630,-529 630,-578 727,-578 727,-529 630,-529"/>
</a>
</g>
</g>
<!-- Node9&#45;&gt;Node8 -->
<g id="edge7_Node000008_Node000009" class="edge">
<title>Node9&#45;&gt;Node8</title>
<g id="a_edge7_Node000008_Node000009"><a xlink:title=" ">
<path fill="none" stroke="#63b8ff" d="M677.59,-524.74C677.94,-491.66 683.21,-436.34 711.5,-400 733.57,-371.65 769.09,-353.18 800.25,-341.61"/>
<polygon fill="none" stroke="#63b8ff" points="800.62,-341.48 804.96,-335.72 811.94,-337.5 807.61,-343.27 800.62,-341.48"/>
</a>
</g>
<text text-anchor="middle" x="750.5" y="-469" font-family="Helvetica,sans-Serif" font-size="10.00" fill="grey"> +apriori_value</text>
<text text-anchor="middle" x="750.5" y="-458" font-family="Helvetica,sans-Serif" font-size="10.00" fill="grey">+mu</text>
<text text-anchor="middle" x="750.5" y="-447" font-family="Helvetica,sans-Serif" font-size="10.00" fill="grey">+outage_limit</text>
<text text-anchor="middle" x="750.5" y="-436" font-family="Helvetica,sans-Serif" font-size="10.00" fill="grey">+process_noise</text>
<text text-anchor="middle" x="750.5" y="-425" font-family="Helvetica,sans-Serif" font-size="10.00" fill="grey">+sigma</text>
<text text-anchor="middle" x="750.5" y="-414" font-family="Helvetica,sans-Serif" font-size="10.00" fill="grey">+sigma_limit</text>
<text text-anchor="middle" x="750.5" y="-403" font-family="Helvetica,sans-Serif" font-size="10.00" fill="grey">+tau</text>
</g>
<!-- Node10 -->
<g id="Node000010" class="node">
<title>Node10</title>
<g id="a_Node000010"><a xlink:title=" ">
<path fill="white" stroke="#666666" d="M881,-716C881,-716 848,-716 848,-716 842,-716 836,-710 836,-704 836,-704 836,-671 836,-671 836,-665 842,-659 848,-659 848,-659 881,-659 881,-659 887,-659 893,-665 893,-671 893,-671 893,-704 893,-704 893,-710 887,-716 881,-716"/>
<text text-anchor="start" x="849.5" y="-699.5" font-family="Helvetica,sans-Serif" font-size="10.00">vector</text>
<text text-anchor="start" x="863" y="-684.5" font-family="Helvetica,sans-Serif" font-size="10.00"> </text>
<text text-anchor="start" x="863" y="-669.5" font-family="Helvetica,sans-Serif" font-size="10.00"> </text>
<polygon fill="#666666" stroke="#666666" points="844.5,-694.5 844.5,-694.5 885.5,-694.5 885.5,-694.5 844.5,-694.5"/>
<polygon fill="#666666" stroke="#666666" points="844.5,-679.5 844.5,-679.5 885.5,-679.5 885.5,-679.5 844.5,-679.5"/>
<polygon fill="none" stroke="#666666" points="844,-663 844,-712 885,-712 885,-663 844,-663"/>
</a>
</g>
</g>
<!-- Node10&#45;&gt;Node9 -->
<g id="edge8_Node000009_Node000010" class="edge">
<title>Node10&#45;&gt;Node9</title>
<g id="a_edge8_Node000009_Node000010"><a xlink:title=" ">
<path fill="none" stroke="orange" d="M826.44,-672.97C807.01,-665.15 783.52,-654.23 764.5,-641 740.51,-624.32 717.39,-600.48 701.18,-582.06"/>
<polygon fill="orange" stroke="orange" points="825.31,-676.29 835.9,-676.67 827.86,-669.77 825.31,-676.29"/>
</a>
</g>
<text text-anchor="middle" x="794" y="-633" font-family="Helvetica,sans-Serif" font-size="10.00" fill="grey"> &lt; double &gt;</text>
</g>
<!-- Node11 -->
<g id="Node000011" class="node">
<title>Node11</title>
<g id="a_Node000011"><a xlink:title=" ">
<path fill="white" stroke="#666666" d="M842,-582C842,-582 765,-582 765,-582 759,-582 753,-576 753,-570 753,-570 753,-537 753,-537 753,-531 759,-525 765,-525 765,-525 842,-525 842,-525 848,-525 854,-531 854,-537 854,-537 854,-570 854,-570 854,-576 848,-582 842,-582"/>
<text text-anchor="start" x="766.5" y="-565.5" font-family="Helvetica,sans-Serif" font-size="10.00">vector&lt; bool &gt;</text>
<text text-anchor="start" x="802" y="-550.5" font-family="Helvetica,sans-Serif" font-size="10.00"> </text>
<text text-anchor="start" x="802" y="-535.5" font-family="Helvetica,sans-Serif" font-size="10.00"> </text>
<polygon fill="#666666" stroke="#666666" points="761.5,-560.5 761.5,-560.5 846.5,-560.5 846.5,-560.5 761.5,-560.5"/>
<polygon fill="#666666" stroke="#666666" points="761.5,-545.5 761.5,-545.5 846.5,-545.5 846.5,-545.5 761.5,-545.5"/>
<polygon fill="none" stroke="#666666" points="761,-529 761,-578 846,-578 846,-529 761,-529"/>
</a>
</g>
</g>
<!-- Node10&#45;&gt;Node11 -->
<g id="edge10_Node000011_Node000010" class="edge">
<title>Node10&#45;&gt;Node11</title>
<g id="a_edge10_Node000011_Node000010"><a xlink:title=" ">
<path fill="none" stroke="orange" d="M836.82,-650.41C834.9,-647.3 833.1,-644.14 831.5,-641 821.99,-622.29 814.8,-599.67 810.09,-582.26"/>
<polygon fill="orange" stroke="orange" points="834.04,-652.55 842.45,-658.99 839.89,-648.71 834.04,-652.55"/>
</a>
</g>
<text text-anchor="middle" x="855" y="-633" font-family="Helvetica,sans-Serif" font-size="10.00" fill="grey"> &lt; bool &gt;</text>
</g>
<!-- Node12 -->
<g id="Node000012" class="node">
<title>Node12</title>
<g id="a_Node000012"><a xlink:title=" ">
<path fill="white" stroke="#666666" d="M968.5,-582C968.5,-582 884.5,-582 884.5,-582 878.5,-582 872.5,-576 872.5,-570 872.5,-570 872.5,-537 872.5,-537 872.5,-531 878.5,-525 884.5,-525 884.5,-525 968.5,-525 968.5,-525 974.5,-525 980.5,-531 980.5,-537 980.5,-537 980.5,-570 980.5,-570 980.5,-576 974.5,-582 968.5,-582"/>
<text text-anchor="start" x="885.5" y="-565.5" font-family="Helvetica,sans-Serif" font-size="10.00">vector&lt; string &gt;</text>
<text text-anchor="start" x="924.5" y="-550.5" font-family="Helvetica,sans-Serif" font-size="10.00"> </text>
<text text-anchor="start" x="924.5" y="-535.5" font-family="Helvetica,sans-Serif" font-size="10.00"> </text>
<polygon fill="#666666" stroke="#666666" points="880.5,-560.5 880.5,-560.5 972.5,-560.5 972.5,-560.5 880.5,-560.5"/>
<polygon fill="#666666" stroke="#666666" points="880.5,-545.5 880.5,-545.5 972.5,-545.5 972.5,-545.5 880.5,-545.5"/>
<polygon fill="none" stroke="#666666" points="880.5,-529 880.5,-578 972.5,-578 972.5,-529 880.5,-529"/>
</a>
</g>
</g>
<!-- Node10&#45;&gt;Node12 -->
<g id="edge12_Node000012_Node000010" class="edge">
<title>Node10&#45;&gt;Node12</title>
<g id="a_edge12_Node000012_Node000010"><a xlink:title=" ">
<path fill="none" stroke="orange" d="M881.78,-649.7C891.84,-628.29 904.31,-601.75 913.52,-582.14"/>
<polygon fill="orange" stroke="orange" points="878.58,-648.29 877.5,-658.83 884.92,-651.27 878.58,-648.29"/>
</a>
</g>
<text text-anchor="middle" x="917.5" y="-633" font-family="Helvetica,sans-Serif" font-size="10.00" fill="grey"> &lt; string &gt;</text>
</g>
<!-- Node16 -->
<g id="Node000016" class="node">
<title>Node16</title>
<g id="a_Node000016"><a xlink:title=" ">
<path fill="white" stroke="#666666" d="M1175,-467C1175,-467 1106,-467 1106,-467 1100,-467 1094,-461 1094,-455 1094,-455 1094,-422 1094,-422 1094,-416 1100,-410 1106,-410 1106,-410 1175,-410 1175,-410 1181,-410 1187,-416 1187,-422 1187,-422 1187,-455 1187,-455 1187,-461 1181,-467 1175,-467"/>
<text text-anchor="start" x="1107.5" y="-450.5" font-family="Helvetica,sans-Serif" font-size="10.00">vector&lt; KF &gt;</text>
<text text-anchor="start" x="1139" y="-435.5" font-family="Helvetica,sans-Serif" font-size="10.00"> </text>
<text text-anchor="start" x="1139" y="-420.5" font-family="Helvetica,sans-Serif" font-size="10.00"> </text>
<polygon fill="#666666" stroke="#666666" points="1102.5,-445.5 1102.5,-445.5 1179.5,-445.5 1179.5,-445.5 1102.5,-445.5"/>
<polygon fill="#666666" stroke="#666666" points="1102.5,-430.5 1102.5,-430.5 1179.5,-430.5 1179.5,-430.5 1102.5,-430.5"/>
<polygon fill="none" stroke="#666666" points="1102,-414 1102,-463 1179,-463 1179,-414 1102,-414"/>
</a>
</g>
</g>
<!-- Node10&#45;&gt;Node16 -->
<g id="edge16_Node000016_Node000010" class="edge">
<title>Node10&#45;&gt;Node16</title>
<g id="a_edge16_Node000016_Node000010"><a xlink:title=" ">
<path fill="none" stroke="orange" d="M903.43,-680.44C967.66,-669.62 1091.51,-644.97 1119.5,-612 1154.06,-571.29 1150.87,-504.41 1145.61,-467.01"/>
<polygon fill="orange" stroke="orange" points="902.58,-677.04 893.29,-682.12 903.72,-683.94 902.58,-677.04"/>
</a>
</g>
<text text-anchor="middle" x="1112" y="-633" font-family="Helvetica,sans-Serif" font-size="10.00" fill="grey"> &lt; KF &gt;</text>
</g>
<!-- Node11&#45;&gt;Node8 -->
<g id="edge9_Node000008_Node000011" class="edge">
<title>Node11&#45;&gt;Node8</title>
<g id="a_edge9_Node000008_Node000011"><a xlink:title=" ">
<path fill="none" stroke="#63b8ff" d="M797.83,-524.85C792.65,-493.57 787.81,-441.56 802.5,-400 807.46,-385.97 816.25,-372.64 825.64,-361.2"/>
<polygon fill="none" stroke="#63b8ff" points="825.73,-361.1 826.65,-353.95 833.6,-352.05 832.68,-359.2 825.73,-361.1"/>
</a>
</g>
<text text-anchor="middle" x="853.5" y="-441.5" font-family="Helvetica,sans-Serif" font-size="10.00" fill="grey"> +estimate</text>
<text text-anchor="middle" x="853.5" y="-430.5" font-family="Helvetica,sans-Serif" font-size="10.00" fill="grey">+use_remote_sigma</text>
</g>
<!-- Node12&#45;&gt;Node8 -->
<g id="edge11_Node000008_Node000012" class="edge">
<title>Node12&#45;&gt;Node8</title>
<g id="a_edge11_Node000008_Node000012"><a xlink:title=" ">
<path fill="none" stroke="#63b8ff" d="M925.44,-524.83C923.58,-493.76 918.48,-442.15 904.5,-400 900.3,-387.34 894.03,-374.31 887.65,-362.72"/>
<polygon fill="none" stroke="#63b8ff" points="887.53,-362.51 881.08,-359.3 881.57,-352.1 888.02,-355.32 887.53,-362.51"/>
</a>
</g>
<text text-anchor="middle" x="950.5" y="-436" font-family="Helvetica,sans-Serif" font-size="10.00" fill="grey"> +comment</text>
</g>
<!-- Node13 -->
<g id="Node000013" class="node">
<title>Node13</title>
<g id="a_Node000013"><a xlink:title=" ">
<path fill="#fff0f0" stroke="red" d="M1098,-582C1098,-582 1011,-582 1011,-582 1005,-582 999,-576 999,-570 999,-570 999,-537 999,-537 999,-531 1005,-525 1011,-525 1011,-525 1098,-525 1098,-525 1104,-525 1110,-531 1110,-537 1110,-537 1110,-570 1110,-570 1110,-576 1104,-582 1098,-582"/>
<text text-anchor="start" x="1012.5" y="-565.5" font-family="Helvetica,sans-Serif" font-size="10.00">map&lt; int, bool &gt;</text>
<text text-anchor="start" x="1053" y="-550.5" font-family="Helvetica,sans-Serif" font-size="10.00"> </text>
<text text-anchor="start" x="1053" y="-535.5" font-family="Helvetica,sans-Serif" font-size="10.00"> </text>
<polygon fill="red" stroke="red" points="1007.5,-560.5 1007.5,-560.5 1102.5,-560.5 1102.5,-560.5 1007.5,-560.5"/>
<polygon fill="red" stroke="red" points="1007.5,-545.5 1007.5,-545.5 1102.5,-545.5 1102.5,-545.5 1007.5,-545.5"/>
<polygon fill="none" stroke="red" points="1007,-529 1007,-578 1102,-578 1102,-529 1007,-529"/>
</a>
</g>
</g>
<!-- Node13&#45;&gt;Node8 -->
<g id="edge13_Node000008_Node000013" class="edge">
<title>Node13&#45;&gt;Node8</title>
<g id="a_edge13_Node000008_Node000013"><a xlink:title=" ">
<path fill="none" stroke="#63b8ff" d="M1033,-524.71C1023.19,-510.96 1012.09,-493.75 1004.5,-477 989.85,-444.69 1007.88,-425.77 983.5,-400 966.11,-381.62 951.46,-394.55 929.5,-382 919.02,-376.01 908.69,-368.21 899.43,-360.29"/>
<polygon fill="none" stroke="#63b8ff" points="899.16,-360.04 892.02,-359.04 890.2,-352.06 897.34,-353.07 899.16,-360.04"/>
</a>
</g>
<text text-anchor="middle" x="1045" y="-436" font-family="Helvetica,sans-Serif" font-size="10.00" fill="grey"> +initialisedMap</text>
</g>
<!-- Node15 -->
<g id="Node000015" class="node">
<title>Node15</title>
<g id="a_Node000015"><a xlink:href="structIonosphericOptions.html" target="_top" xlink:title="Options associated with the ionospheric modelling processing mode of operation.">
<path fill="white" stroke="#666666" d="M1167.5,-374.5C1167.5,-374.5 1051.5,-374.5 1051.5,-374.5 1045.5,-374.5 1039.5,-368.5 1039.5,-362.5 1039.5,-362.5 1039.5,-284.5 1039.5,-284.5 1039.5,-278.5 1045.5,-272.5 1051.5,-272.5 1051.5,-272.5 1167.5,-272.5 1167.5,-272.5 1173.5,-272.5 1179.5,-278.5 1179.5,-284.5 1179.5,-284.5 1179.5,-362.5 1179.5,-362.5 1179.5,-368.5 1173.5,-374.5 1167.5,-374.5"/>
<text text-anchor="start" x="1062.5" y="-358.5" font-family="Helvetica,sans-Serif" font-size="10.00">IonosphericOptions</text>
<text text-anchor="start" x="1051.5" y="-343.5" font-family="Helvetica,sans-Serif" font-size="10.00">+</text>
<text text-anchor="start" x="1064.5" y="-343.5" font-family="Helvetica,sans-Serif" font-size="10.00">corr_mode</text>
<text text-anchor="start" x="1051.5" y="-328.5" font-family="Helvetica,sans-Serif" font-size="10.00">+</text>
<text text-anchor="start" x="1064.5" y="-328.5" font-family="Helvetica,sans-Serif" font-size="10.00">common_ionosphere</text>
<text text-anchor="start" x="1051.5" y="-313.5" font-family="Helvetica,sans-Serif" font-size="10.00">+</text>
<text text-anchor="start" x="1064.5" y="-313.5" font-family="Helvetica,sans-Serif" font-size="10.00">use_if_combo</text>
<text text-anchor="start" x="1051.5" y="-298.5" font-family="Helvetica,sans-Serif" font-size="10.00">+</text>
<text text-anchor="start" x="1064.5" y="-298.5" font-family="Helvetica,sans-Serif" font-size="10.00">use_gf_combo</text>
<text text-anchor="start" x="1107.5" y="-283.5" font-family="Helvetica,sans-Serif" font-size="10.00"> </text>
<polygon fill="#666666" stroke="#666666" points="1047.5,-353.5 1047.5,-353.5 1171.5,-353.5 1171.5,-353.5 1047.5,-353.5"/>
<polygon fill="#666666" stroke="#666666" points="1047.5,-293.5 1047.5,-293.5 1062.5,-293.5 1062.5,-293.5 1047.5,-293.5"/>
<polygon fill="#666666" stroke="#666666" points="1062.5,-293.5 1062.5,-293.5 1171.5,-293.5 1171.5,-293.5 1062.5,-293.5"/>
<polygon fill="none" stroke="#666666" points="1047.5,-276.5 1047.5,-370.5 1171.5,-370.5 1171.5,-276.5 1047.5,-276.5"/>
</a>
</g>
</g>
<!-- Node15&#45;&gt;Node1 -->
<g id="edge14_Node000001_Node000015" class="edge">
<title>Node15&#45;&gt;Node1</title>
<g id="a_edge14_Node000001_Node000015"><a xlink:title=" ">
<path fill="none" stroke="#63b8ff" d="M1064.99,-272.49C1046.64,-251.87 1024.7,-227.21 1003.36,-203.23"/>
<polygon fill="none" stroke="#63b8ff" points="1003.2,-203.05 996.22,-201.22 995.22,-194.08 1002.2,-195.9 1003.2,-203.05"/>
</a>
</g>
<text text-anchor="middle" x="1068" y="-233.5" font-family="Helvetica,sans-Serif" font-size="10.00" fill="grey"> +ionoOpts</text>
</g>
<!-- Node16&#45;&gt;Node1 -->
<g id="edge15_Node000001_Node000016" class="edge">
<title>Node16&#45;&gt;Node1</title>
<g id="a_edge15_Node000001_Node000016"><a xlink:title=" ">
<path fill="none" stroke="#63b8ff" d="M1107.9,-409.96C1102.06,-406.09 1095.81,-402.57 1089.5,-400 1035.88,-378.19 1001.57,-422.79 960.5,-382 910.46,-332.3 948.95,-294.59 937.5,-225 937.17,-222.98 936.83,-220.94 936.49,-218.89"/>
<polygon fill="none" stroke="#63b8ff" points="936.48,-218.84 931.53,-213.59 934.47,-207.01 939.42,-212.25 936.48,-218.84"/>
</a>
</g>
<text text-anchor="middle" x="995.5" y="-321" font-family="Helvetica,sans-Serif" font-size="10.00" fill="grey"> +nuke_states</text>
</g>
</g>
</svg>
