<?xml version="1.0" encoding="UTF-8" standalone="no"?>
<!DOCTYPE svg PUBLIC "-//W3C//DTD SVG 1.1//EN"
 "http://www.w3.org/Graphics/SVG/1.1/DTD/svg11.dtd">
<!-- Generated by graphviz version 2.43.0 (0)
 -->
<!-- Title: Stream Pages: 1 -->
<svg width="287pt" height="971pt"
 viewBox="0.00 0.00 286.50 971.00" xmlns="http://www.w3.org/2000/svg" xmlns:xlink="http://www.w3.org/1999/xlink">
<g id="graph0" class="graph" transform="scale(1 1) rotate(0) translate(4 967)">
<title>Stream</title>
<!-- Node1 -->
<g id="Node000001" class="node">
<title>Node1</title>
<g id="a_Node000001"><a xlink:href="structStream.html" target="_top" xlink:title=" ">
<path fill="white" stroke="#666666" stroke-width="2" d="M174,-963C174,-963 80,-963 80,-963 74,-963 68,-957 68,-951 68,-951 68,-873 68,-873 68,-867 74,-861 80,-861 80,-861 174,-861 174,-861 180,-861 186,-867 186,-873 186,-873 186,-951 186,-951 186,-957 180,-963 174,-963"/>
<text text-anchor="start" x="109" y="-947" font-family="Helvetica,sans-Serif" font-size="10.00">Stream</text>
<text text-anchor="start" x="80" y="-932" font-family="Helvetica,sans-Serif" font-size="10.00">+</text>
<text text-anchor="start" x="93" y="-932" font-family="Helvetica,sans-Serif" font-size="10.00">sourceString</text>
<text text-anchor="start" x="80" y="-917" font-family="Helvetica,sans-Serif" font-size="10.00">+</text>
<text text-anchor="start" x="93" y="-917" font-family="Helvetica,sans-Serif" font-size="10.00">getIStream_ptr()</text>
<text text-anchor="start" x="80" y="-902" font-family="Helvetica,sans-Serif" font-size="10.00">+</text>
<text text-anchor="start" x="93" y="-902" font-family="Helvetica,sans-Serif" font-size="10.00">isDead()</text>
<text text-anchor="start" x="80" y="-887" font-family="Helvetica,sans-Serif" font-size="10.00">+</text>
<text text-anchor="start" x="93" y="-887" font-family="Helvetica,sans-Serif" font-size="10.00">isAvailable()</text>
<text text-anchor="start" x="80" y="-872" font-family="Helvetica,sans-Serif" font-size="10.00">+</text>
<text text-anchor="start" x="93" y="-872" font-family="Helvetica,sans-Serif" font-size="10.00">~Stream()</text>
<polygon fill="#666666" stroke="#666666" points="76,-942 76,-942 178,-942 178,-942 76,-942"/>
<polygon fill="#666666" stroke="#666666" points="76,-927 76,-927 91,-927 91,-927 76,-927"/>
<polygon fill="#666666" stroke="#666666" points="91,-927 91,-927 178,-927 178,-927 91,-927"/>
<polygon fill="none" stroke="#666666" points="76,-865 76,-959 178,-959 178,-865 76,-865"/>
</a>
</g>
</g>
<!-- Node2 -->
<g id="Node000002" class="node">
<title>Node2</title>
<g id="a_Node000002"><a xlink:href="structFileStream.html" target="_top" xlink:title=" ">
<path fill="white" stroke="#666666" d="M106,-802.5C106,-802.5 12,-802.5 12,-802.5 6,-802.5 0,-796.5 0,-790.5 0,-790.5 0,-697.5 0,-697.5 0,-691.5 6,-685.5 12,-685.5 12,-685.5 106,-685.5 106,-685.5 112,-685.5 118,-691.5 118,-697.5 118,-697.5 118,-790.5 118,-790.5 118,-796.5 112,-802.5 106,-802.5"/>
<text text-anchor="start" x="32.5" y="-786" font-family="Helvetica,sans-Serif" font-size="10.00">FileStream</text>
<text text-anchor="start" x="12" y="-771" font-family="Helvetica,sans-Serif" font-size="10.00">+</text>
<text text-anchor="start" x="25" y="-771" font-family="Helvetica,sans-Serif" font-size="10.00">path</text>
<text text-anchor="start" x="12" y="-756" font-family="Helvetica,sans-Serif" font-size="10.00">+</text>
<text text-anchor="start" x="25" y="-756" font-family="Helvetica,sans-Serif" font-size="10.00">filePos</text>
<text text-anchor="start" x="12" y="-741" font-family="Helvetica,sans-Serif" font-size="10.00">+</text>
<text text-anchor="start" x="25" y="-741" font-family="Helvetica,sans-Serif" font-size="10.00">FileStream()</text>
<text text-anchor="start" x="12" y="-726" font-family="Helvetica,sans-Serif" font-size="10.00">+</text>
<text text-anchor="start" x="25" y="-726" font-family="Helvetica,sans-Serif" font-size="10.00">getIStream_ptr()</text>
<text text-anchor="start" x="12" y="-711" font-family="Helvetica,sans-Serif" font-size="10.00">+</text>
<text text-anchor="start" x="25" y="-711" font-family="Helvetica,sans-Serif" font-size="10.00">isDead()</text>
<text text-anchor="start" x="12" y="-696" font-family="Helvetica,sans-Serif" font-size="10.00">+</text>
<text text-anchor="start" x="25" y="-696" font-family="Helvetica,sans-Serif" font-size="10.00">isAvailable()</text>
<polygon fill="#666666" stroke="#666666" points="8,-781 8,-781 110,-781 110,-781 8,-781"/>
<polygon fill="#666666" stroke="#666666" points="8,-751 8,-751 23,-751 23,-751 8,-751"/>
<polygon fill="#666666" stroke="#666666" points="23,-751 23,-751 110,-751 110,-751 23,-751"/>
<polygon fill="none" stroke="#666666" points="8,-689.5 8,-798.5 110,-798.5 110,-689.5 8,-689.5"/>
</a>
</g>
</g>
<!-- Node1&#45;&gt;Node2 -->
<g id="edge1_Node000001_Node000002" class="edge">
<title>Node1&#45;&gt;Node2</title>
<g id="a_edge1_Node000001_Node000002"><a xlink:title=" ">
<path fill="none" stroke="#63b8ff" d="M102.46,-851.09C95.99,-835.31 89.03,-818.31 82.62,-802.65"/>
<polygon fill="none" stroke="#63b8ff" points="99.38,-852.82 106.41,-860.74 105.86,-850.16 99.38,-852.82"/>
</a>
</g>
</g>
<!-- Node3 -->
<g id="Node000003" class="node">
<title>Node3</title>
<g id="a_Node000003"><a xlink:href="structSerialStream.html" target="_top" xlink:title=" ">
<path fill="white" stroke="#666666" d="M242,-825C242,-825 148,-825 148,-825 142,-825 136,-819 136,-813 136,-813 136,-675 136,-675 136,-669 142,-663 148,-663 148,-663 242,-663 242,-663 248,-663 254,-669 254,-675 254,-675 254,-813 254,-813 254,-819 248,-825 242,-825"/>
<text text-anchor="start" x="163" y="-809" font-family="Helvetica,sans-Serif" font-size="10.00">SerialStream</text>
<text text-anchor="start" x="148" y="-794" font-family="Helvetica,sans-Serif" font-size="10.00">+</text>
<text text-anchor="start" x="161" y="-794" font-family="Helvetica,sans-Serif" font-size="10.00">path</text>
<text text-anchor="start" x="148" y="-779" font-family="Helvetica,sans-Serif" font-size="10.00">+</text>
<text text-anchor="start" x="161" y="-779" font-family="Helvetica,sans-Serif" font-size="10.00">fileDescriptor</text>
<text text-anchor="start" x="148" y="-764" font-family="Helvetica,sans-Serif" font-size="10.00">+</text>
<text text-anchor="start" x="161" y="-764" font-family="Helvetica,sans-Serif" font-size="10.00">receivedData</text>
<text text-anchor="start" x="148" y="-749" font-family="Helvetica,sans-Serif" font-size="10.00">+</text>
<text text-anchor="start" x="161" y="-749" font-family="Helvetica,sans-Serif" font-size="10.00">SerialStream()</text>
<text text-anchor="start" x="148" y="-734" font-family="Helvetica,sans-Serif" font-size="10.00">+</text>
<text text-anchor="start" x="161" y="-734" font-family="Helvetica,sans-Serif" font-size="10.00">SerialStream()</text>
<text text-anchor="start" x="148" y="-719" font-family="Helvetica,sans-Serif" font-size="10.00">+</text>
<text text-anchor="start" x="161" y="-719" font-family="Helvetica,sans-Serif" font-size="10.00">openStream()</text>
<text text-anchor="start" x="148" y="-704" font-family="Helvetica,sans-Serif" font-size="10.00">+</text>
<text text-anchor="start" x="161" y="-704" font-family="Helvetica,sans-Serif" font-size="10.00">getData()</text>
<text text-anchor="start" x="148" y="-689" font-family="Helvetica,sans-Serif" font-size="10.00">+</text>
<text text-anchor="start" x="161" y="-689" font-family="Helvetica,sans-Serif" font-size="10.00">getIStream_ptr()</text>
<text text-anchor="start" x="148" y="-674" font-family="Helvetica,sans-Serif" font-size="10.00">+</text>
<text text-anchor="start" x="161" y="-674" font-family="Helvetica,sans-Serif" font-size="10.00">~SerialStream()</text>
<polygon fill="#666666" stroke="#666666" points="144,-804 144,-804 246,-804 246,-804 144,-804"/>
<polygon fill="#666666" stroke="#666666" points="144,-759 144,-759 159,-759 159,-759 144,-759"/>
<polygon fill="#666666" stroke="#666666" points="159,-759 159,-759 246,-759 246,-759 159,-759"/>
<polygon fill="none" stroke="#666666" points="144,-667 144,-821 246,-821 246,-667 144,-667"/>
</a>
</g>
</g>
<!-- Node1&#45;&gt;Node3 -->
<g id="edge2_Node000001_Node000003" class="edge">
<title>Node1&#45;&gt;Node3</title>
<g id="a_edge2_Node000001_Node000003"><a xlink:title=" ">
<path fill="none" stroke="#63b8ff" d="M151.45,-851.31C154.93,-842.81 158.56,-833.95 162.18,-825.13"/>
<polygon fill="none" stroke="#63b8ff" points="148.14,-850.16 147.59,-860.74 154.62,-852.82 148.14,-850.16"/>
</a>
</g>
</g>
<!-- Node4 -->
<g id="Node000004" class="node">
<title>Node4</title>
<g id="a_Node000004"><a xlink:href="structTcpSocket.html" target="_top" xlink:title=" ">
<path fill="#fff0f0" stroke="red" d="M266.5,-627C266.5,-627 123.5,-627 123.5,-627 117.5,-627 111.5,-621 111.5,-615 111.5,-615 111.5,-12 111.5,-12 111.5,-6 117.5,0 123.5,0 123.5,0 266.5,0 266.5,0 272.5,0 278.5,-6 278.5,-12 278.5,-12 278.5,-615 278.5,-615 278.5,-621 272.5,-627 266.5,-627"/>
<text text-anchor="start" x="171" y="-610.5" font-family="Helvetica,sans-Serif" font-size="10.00">TcpSocket</text>
<text text-anchor="start" x="124" y="-595.5" font-family="Helvetica,sans-Serif" font-size="10.00">+</text>
<text text-anchor="start" x="137" y="-595.5" font-family="Helvetica,sans-Serif" font-size="10.00">url</text>
<text text-anchor="start" x="124" y="-580.5" font-family="Helvetica,sans-Serif" font-size="10.00">+</text>
<text text-anchor="start" x="137" y="-580.5" font-family="Helvetica,sans-Serif" font-size="10.00">reconnectDelay</text>
<text text-anchor="start" x="124" y="-565.5" font-family="Helvetica,sans-Serif" font-size="10.00">+</text>
<text text-anchor="start" x="137" y="-565.5" font-family="Helvetica,sans-Serif" font-size="10.00">disconnectionCount</text>
<text text-anchor="start" x="124" y="-550.5" font-family="Helvetica,sans-Serif" font-size="10.00">+</text>
<text text-anchor="start" x="137" y="-550.5" font-family="Helvetica,sans-Serif" font-size="10.00">isConnected</text>
<text text-anchor="start" x="124" y="-535.5" font-family="Helvetica,sans-Serif" font-size="10.00">+</text>
<text text-anchor="start" x="137" y="-535.5" font-family="Helvetica,sans-Serif" font-size="10.00">numberErroredChunks</text>
<text text-anchor="start" x="124" y="-520.5" font-family="Helvetica,sans-Serif" font-size="10.00">+</text>
<text text-anchor="start" x="137" y="-520.5" font-family="Helvetica,sans-Serif" font-size="10.00">logHttpSentReceived</text>
<text text-anchor="start" x="124" y="-505.5" font-family="Helvetica,sans-Serif" font-size="10.00">+</text>
<text text-anchor="start" x="137" y="-505.5" font-family="Helvetica,sans-Serif" font-size="10.00">content_length</text>
<text text-anchor="start" x="124" y="-490.5" font-family="Helvetica,sans-Serif" font-size="10.00">+</text>
<text text-anchor="start" x="137" y="-490.5" font-family="Helvetica,sans-Serif" font-size="10.00">sslContext</text>
<text text-anchor="start" x="124" y="-475.5" font-family="Helvetica,sans-Serif" font-size="10.00">+</text>
<text text-anchor="start" x="137" y="-475.5" font-family="Helvetica,sans-Serif" font-size="10.00">ioService</text>
<text text-anchor="start" x="124" y="-460.5" font-family="Helvetica,sans-Serif" font-size="10.00">#</text>
<text text-anchor="start" x="137" y="-460.5" font-family="Helvetica,sans-Serif" font-size="10.00">_socket</text>
<text text-anchor="start" x="124" y="-445.5" font-family="Helvetica,sans-Serif" font-size="10.00">#</text>
<text text-anchor="start" x="137" y="-445.5" font-family="Helvetica,sans-Serif" font-size="10.00">socket_ptr</text>
<text text-anchor="start" x="124" y="-430.5" font-family="Helvetica,sans-Serif" font-size="10.00">#</text>
<text text-anchor="start" x="137" y="-430.5" font-family="Helvetica,sans-Serif" font-size="10.00">_sslsocket</text>
<text text-anchor="start" x="124" y="-415.5" font-family="Helvetica,sans-Serif" font-size="10.00">#</text>
<text text-anchor="start" x="137" y="-415.5" font-family="Helvetica,sans-Serif" font-size="10.00">_resolver</text>
<text text-anchor="start" x="124" y="-400.5" font-family="Helvetica,sans-Serif" font-size="10.00">#</text>
<text text-anchor="start" x="137" y="-400.5" font-family="Helvetica,sans-Serif" font-size="10.00">timer</text>
<text text-anchor="start" x="124" y="-385.5" font-family="Helvetica,sans-Serif" font-size="10.00">#</text>
<text text-anchor="start" x="137" y="-385.5" font-family="Helvetica,sans-Serif" font-size="10.00">readUntilString</text>
<text text-anchor="start" x="124" y="-370.5" font-family="Helvetica,sans-Serif" font-size="10.00">#</text>
<text text-anchor="start" x="137" y="-370.5" font-family="Helvetica,sans-Serif" font-size="10.00">requestString</text>
<text text-anchor="start" x="124" y="-355.5" font-family="Helvetica,sans-Serif" font-size="10.00">#</text>
<text text-anchor="start" x="137" y="-355.5" font-family="Helvetica,sans-Serif" font-size="10.00">responseString</text>
<text text-anchor="start" x="124" y="-340.5" font-family="Helvetica,sans-Serif" font-size="10.00">#</text>
<text text-anchor="start" x="137" y="-340.5" font-family="Helvetica,sans-Serif" font-size="10.00">request</text>
<text text-anchor="start" x="124" y="-325.5" font-family="Helvetica,sans-Serif" font-size="10.00">#</text>
<text text-anchor="start" x="137" y="-325.5" font-family="Helvetica,sans-Serif" font-size="10.00">downloadBuf</text>
<text text-anchor="start" x="124" y="-310.5" font-family="Helvetica,sans-Serif" font-size="10.00">#</text>
<text text-anchor="start" x="137" y="-310.5" font-family="Helvetica,sans-Serif" font-size="10.00">receivedTcpData</text>
<text text-anchor="start" x="124" y="-295.5" font-family="Helvetica,sans-Serif" font-size="10.00">+</text>
<text text-anchor="start" x="137" y="-295.5" font-family="Helvetica,sans-Serif" font-size="10.00">TcpSocket()</text>
<text text-anchor="start" x="124" y="-280.5" font-family="Helvetica,sans-Serif" font-size="10.00">+</text>
<text text-anchor="start" x="137" y="-280.5" font-family="Helvetica,sans-Serif" font-size="10.00">setUrl()</text>
<text text-anchor="start" x="124" y="-265.5" font-family="Helvetica,sans-Serif" font-size="10.00">+</text>
<text text-anchor="start" x="137" y="-265.5" font-family="Helvetica,sans-Serif" font-size="10.00">connect()</text>
<text text-anchor="start" x="124" y="-250.5" font-family="Helvetica,sans-Serif" font-size="10.00">+</text>
<text text-anchor="start" x="137" y="-250.5" font-family="Helvetica,sans-Serif" font-size="10.00">disconnect()</text>
<text text-anchor="start" x="124" y="-235.5" font-family="Helvetica,sans-Serif" font-size="10.00">+</text>
<text text-anchor="start" x="137" y="-235.5" font-family="Helvetica,sans-Serif" font-size="10.00">startRead()</text>
<text text-anchor="start" x="124" y="-220.5" font-family="Helvetica,sans-Serif" font-size="10.00">+</text>
<text text-anchor="start" x="137" y="-220.5" font-family="Helvetica,sans-Serif" font-size="10.00">timeoutHandler()</text>
<text text-anchor="start" x="124" y="-205.5" font-family="Helvetica,sans-Serif" font-size="10.00">+</text>
<text text-anchor="start" x="137" y="-205.5" font-family="Helvetica,sans-Serif" font-size="10.00">delayedReconnect()</text>
<text text-anchor="start" x="124" y="-190.5" font-family="Helvetica,sans-Serif" font-size="10.00">+</text>
<text text-anchor="start" x="137" y="-190.5" font-family="Helvetica,sans-Serif" font-size="10.00">connectHandler()</text>
<text text-anchor="start" x="124" y="-175.5" font-family="Helvetica,sans-Serif" font-size="10.00">+</text>
<text text-anchor="start" x="137" y="-175.5" font-family="Helvetica,sans-Serif" font-size="10.00">requestResponseHandler()</text>
<text text-anchor="start" x="124" y="-160.5" font-family="Helvetica,sans-Serif" font-size="10.00">+</text>
<text text-anchor="start" x="137" y="-160.5" font-family="Helvetica,sans-Serif" font-size="10.00">logChunkError()</text>
<text text-anchor="start" x="124" y="-145.5" font-family="Helvetica,sans-Serif" font-size="10.00">+</text>
<text text-anchor="start" x="137" y="-145.5" font-family="Helvetica,sans-Serif" font-size="10.00">dataChunkDownloaded()</text>
<text text-anchor="start" x="124" y="-130.5" font-family="Helvetica,sans-Serif" font-size="10.00">+</text>
<text text-anchor="start" x="137" y="-130.5" font-family="Helvetica,sans-Serif" font-size="10.00">readContentDownloaded()</text>
<text text-anchor="start" x="124" y="-115.5" font-family="Helvetica,sans-Serif" font-size="10.00">+</text>
<text text-anchor="start" x="137" y="-115.5" font-family="Helvetica,sans-Serif" font-size="10.00">connected()</text>
<text text-anchor="start" x="124" y="-100.5" font-family="Helvetica,sans-Serif" font-size="10.00">+</text>
<text text-anchor="start" x="137" y="-100.5" font-family="Helvetica,sans-Serif" font-size="10.00">messageChunkLog()</text>
<text text-anchor="start" x="124" y="-85.5" font-family="Helvetica,sans-Serif" font-size="10.00">+</text>
<text text-anchor="start" x="137" y="-85.5" font-family="Helvetica,sans-Serif" font-size="10.00">networkLog()</text>
<text text-anchor="start" x="124" y="-70.5" font-family="Helvetica,sans-Serif" font-size="10.00">+</text>
<text text-anchor="start" x="137" y="-70.5" font-family="Helvetica,sans-Serif" font-size="10.00">getData()</text>
<text text-anchor="start" x="124" y="-55.5" font-family="Helvetica,sans-Serif" font-size="10.00">+</text>
<text text-anchor="start" x="137" y="-55.5" font-family="Helvetica,sans-Serif" font-size="10.00">connectionError()</text>
<text text-anchor="start" x="124" y="-40.5" font-family="Helvetica,sans-Serif" font-size="10.00">+</text>
<text text-anchor="start" x="137" y="-40.5" font-family="Helvetica,sans-Serif" font-size="10.00">~TcpSocket()</text>
<text text-anchor="start" x="124" y="-25.5" font-family="Helvetica,sans-Serif" font-size="10.00">+</text>
<text text-anchor="start" x="137" y="-25.5" font-family="Helvetica,sans-Serif" font-size="10.00">runService()</text>
<text text-anchor="start" x="124" y="-10.5" font-family="Helvetica,sans-Serif" font-size="10.00">+</text>
<text text-anchor="start" x="137" y="-10.5" font-family="Helvetica,sans-Serif" font-size="10.00">startClients()</text>
<polygon fill="red" stroke="red" points="120,-605.5 120,-605.5 271,-605.5 271,-605.5 120,-605.5"/>
<polygon fill="red" stroke="red" points="120,-305.5 120,-305.5 135,-305.5 135,-305.5 120,-305.5"/>
<polygon fill="red" stroke="red" points="135,-305.5 135,-305.5 271,-305.5 271,-305.5 135,-305.5"/>
<polygon fill="none" stroke="red" points="119.5,-4 119.5,-623 270.5,-623 270.5,-4 119.5,-4"/>
</a>
</g>
</g>
<!-- Node3&#45;&gt;Node4 -->
<g id="edge3_Node000003_Node000004" class="edge">
<title>Node3&#45;&gt;Node4</title>
<g id="a_edge3_Node000003_Node000004"><a xlink:title=" ">
<path fill="none" stroke="#63b8ff" d="M195,-652.77C195,-644.61 195,-636.09 195,-627.28"/>
<polygon fill="none" stroke="#63b8ff" points="191.5,-652.91 195,-662.91 198.5,-652.91 191.5,-652.91"/>
</a>
</g>
</g>
</g>
</svg>
