<?xml version="1.0" encoding="UTF-8" standalone="no"?>
<!DOCTYPE svg PUBLIC "-//W3C//DTD SVG 1.1//EN"
 "http://www.w3.org/Graphics/SVG/1.1/DTD/svg11.dtd">
<!-- Generated by graphviz version 2.43.0 (0)
 -->
<!-- Title: KFState Pages: 1 -->
<svg width="183pt" height="1361pt"
 viewBox="0.00 0.00 183.00 1361.00" xmlns="http://www.w3.org/2000/svg" xmlns:xlink="http://www.w3.org/1999/xlink">
<g id="graph0" class="graph" transform="scale(1 1) rotate(0) translate(4 1357)">
<title>KFState</title>
<!-- Node1 -->
<g id="Node000001" class="node">
<title>Node1</title>
<g id="a_Node000001"><a xlink:href="structKFState.html" target="_top" xlink:title="Wrapper to simplify copying with default copy but overriding slightly.">
<path fill="white" stroke="#666666" stroke-width="2" d="M156.5,-627C156.5,-627 18.5,-627 18.5,-627 12.5,-627 6.5,-621 6.5,-615 6.5,-615 6.5,-12 6.5,-12 6.5,-6 12.5,0 18.5,0 18.5,0 156.5,0 156.5,0 162.5,0 168.5,-6 168.5,-12 168.5,-12 168.5,-615 168.5,-615 168.5,-621 162.5,-627 156.5,-627"/>
<text text-anchor="start" x="68.5" y="-610.5" font-family="Helvetica,sans-Serif" font-size="10.00">KFState</text>
<text text-anchor="start" x="18.5" y="-595.5" font-family="Helvetica,sans-Serif" font-size="10.00">+</text>
<text text-anchor="start" x="31.5" y="-595.5" font-family="Helvetica,sans-Serif" font-size="10.00">kfStateMutex</text>
<text text-anchor="start" x="18.5" y="-580.5" font-family="Helvetica,sans-Serif" font-size="10.00">+</text>
<text text-anchor="start" x="31.5" y="-580.5" font-family="Helvetica,sans-Serif" font-size="10.00">oneKey</text>
<text text-anchor="start" x="18.5" y="-565.5" font-family="Helvetica,sans-Serif" font-size="10.00">+</text>
<text text-anchor="start" x="31.5" y="-565.5" font-family="Helvetica,sans-Serif" font-size="10.00">KFState()</text>
<text text-anchor="start" x="18.5" y="-550.5" font-family="Helvetica,sans-Serif" font-size="10.00">+</text>
<text text-anchor="start" x="31.5" y="-550.5" font-family="Helvetica,sans-Serif" font-size="10.00">KFState()</text>
<text text-anchor="start" x="18.5" y="-535.5" font-family="Helvetica,sans-Serif" font-size="10.00">+</text>
<text text-anchor="start" x="31.5" y="-535.5" font-family="Helvetica,sans-Serif" font-size="10.00">operator=()</text>
<text text-anchor="start" x="18.5" y="-520.5" font-family="Helvetica,sans-Serif" font-size="10.00">+</text>
<text text-anchor="start" x="31.5" y="-520.5" font-family="Helvetica,sans-Serif" font-size="10.00">serialize()</text>
<text text-anchor="start" x="18.5" y="-505.5" font-family="Helvetica,sans-Serif" font-size="10.00">+</text>
<text text-anchor="start" x="31.5" y="-505.5" font-family="Helvetica,sans-Serif" font-size="10.00">initFilterEpoch()</text>
<text text-anchor="start" x="18.5" y="-490.5" font-family="Helvetica,sans-Serif" font-size="10.00">+</text>
<text text-anchor="start" x="31.5" y="-490.5" font-family="Helvetica,sans-Serif" font-size="10.00">getKFIndex()</text>
<text text-anchor="start" x="18.5" y="-475.5" font-family="Helvetica,sans-Serif" font-size="10.00">+</text>
<text text-anchor="start" x="31.5" y="-475.5" font-family="Helvetica,sans-Serif" font-size="10.00">getKFValue()</text>
<text text-anchor="start" x="18.5" y="-460.5" font-family="Helvetica,sans-Serif" font-size="10.00">+</text>
<text text-anchor="start" x="31.5" y="-460.5" font-family="Helvetica,sans-Serif" font-size="10.00">getPseudoValue()</text>
<text text-anchor="start" x="18.5" y="-445.5" font-family="Helvetica,sans-Serif" font-size="10.00">+</text>
<text text-anchor="start" x="31.5" y="-445.5" font-family="Helvetica,sans-Serif" font-size="10.00">getKFSigma()</text>
<text text-anchor="start" x="18.5" y="-430.5" font-family="Helvetica,sans-Serif" font-size="10.00">+</text>
<text text-anchor="start" x="31.5" y="-430.5" font-family="Helvetica,sans-Serif" font-size="10.00">addKFState()</text>
<text text-anchor="start" x="18.5" y="-415.5" font-family="Helvetica,sans-Serif" font-size="10.00">+</text>
<text text-anchor="start" x="31.5" y="-415.5" font-family="Helvetica,sans-Serif" font-size="10.00">addPseudoState()</text>
<text text-anchor="start" x="18.5" y="-400.5" font-family="Helvetica,sans-Serif" font-size="10.00">+</text>
<text text-anchor="start" x="31.5" y="-400.5" font-family="Helvetica,sans-Serif" font-size="10.00">setExponentialNoise()</text>
<text text-anchor="start" x="18.5" y="-385.5" font-family="Helvetica,sans-Serif" font-size="10.00">+</text>
<text text-anchor="start" x="31.5" y="-385.5" font-family="Helvetica,sans-Serif" font-size="10.00">setAccelerator()</text>
<text text-anchor="start" x="18.5" y="-370.5" font-family="Helvetica,sans-Serif" font-size="10.00">+</text>
<text text-anchor="start" x="31.5" y="-370.5" font-family="Helvetica,sans-Serif" font-size="10.00">setKFTrans()</text>
<text text-anchor="start" x="18.5" y="-355.5" font-family="Helvetica,sans-Serif" font-size="10.00">+</text>
<text text-anchor="start" x="31.5" y="-355.5" font-family="Helvetica,sans-Serif" font-size="10.00">setKFTransRate()</text>
<text text-anchor="start" x="18.5" y="-340.5" font-family="Helvetica,sans-Serif" font-size="10.00">+</text>
<text text-anchor="start" x="31.5" y="-340.5" font-family="Helvetica,sans-Serif" font-size="10.00">addNoiseElement()</text>
<text text-anchor="start" x="18.5" y="-325.5" font-family="Helvetica,sans-Serif" font-size="10.00">+</text>
<text text-anchor="start" x="31.5" y="-325.5" font-family="Helvetica,sans-Serif" font-size="10.00">removeState()</text>
<text text-anchor="start" x="18.5" y="-310.5" font-family="Helvetica,sans-Serif" font-size="10.00">+</text>
<text text-anchor="start" x="31.5" y="-310.5" font-family="Helvetica,sans-Serif" font-size="10.00">stateTransition()</text>
<text text-anchor="start" x="18.5" y="-295.5" font-family="Helvetica,sans-Serif" font-size="10.00">+</text>
<text text-anchor="start" x="31.5" y="-295.5" font-family="Helvetica,sans-Serif" font-size="10.00">manualStateTransition()</text>
<text text-anchor="start" x="18.5" y="-280.5" font-family="Helvetica,sans-Serif" font-size="10.00">+</text>
<text text-anchor="start" x="31.5" y="-280.5" font-family="Helvetica,sans-Serif" font-size="10.00">preFitSigmaCheck()</text>
<text text-anchor="start" x="18.5" y="-265.5" font-family="Helvetica,sans-Serif" font-size="10.00">+</text>
<text text-anchor="start" x="31.5" y="-265.5" font-family="Helvetica,sans-Serif" font-size="10.00">postFitSigmaChecks()</text>
<text text-anchor="start" x="18.5" y="-250.5" font-family="Helvetica,sans-Serif" font-size="10.00">+</text>
<text text-anchor="start" x="31.5" y="-250.5" font-family="Helvetica,sans-Serif" font-size="10.00">stateChiSquare()</text>
<text text-anchor="start" x="18.5" y="-235.5" font-family="Helvetica,sans-Serif" font-size="10.00">+</text>
<text text-anchor="start" x="31.5" y="-235.5" font-family="Helvetica,sans-Serif" font-size="10.00">measChiSquare()</text>
<text text-anchor="start" x="18.5" y="-220.5" font-family="Helvetica,sans-Serif" font-size="10.00">+</text>
<text text-anchor="start" x="31.5" y="-220.5" font-family="Helvetica,sans-Serif" font-size="10.00">innovChiSquare()</text>
<text text-anchor="start" x="18.5" y="-205.5" font-family="Helvetica,sans-Serif" font-size="10.00">+</text>
<text text-anchor="start" x="31.5" y="-205.5" font-family="Helvetica,sans-Serif" font-size="10.00">kFilter()</text>
<text text-anchor="start" x="18.5" y="-190.5" font-family="Helvetica,sans-Serif" font-size="10.00">+</text>
<text text-anchor="start" x="31.5" y="-190.5" font-family="Helvetica,sans-Serif" font-size="10.00">chiQC()</text>
<text text-anchor="start" x="18.5" y="-175.5" font-family="Helvetica,sans-Serif" font-size="10.00">+</text>
<text text-anchor="start" x="31.5" y="-175.5" font-family="Helvetica,sans-Serif" font-size="10.00">outputStates()</text>
<text text-anchor="start" x="18.5" y="-160.5" font-family="Helvetica,sans-Serif" font-size="10.00">+</text>
<text text-anchor="start" x="31.5" y="-160.5" font-family="Helvetica,sans-Serif" font-size="10.00">outputConditionNumber()</text>
<text text-anchor="start" x="18.5" y="-145.5" font-family="Helvetica,sans-Serif" font-size="10.00">+</text>
<text text-anchor="start" x="31.5" y="-145.5" font-family="Helvetica,sans-Serif" font-size="10.00">outputCorrelations()</text>
<text text-anchor="start" x="18.5" y="-130.5" font-family="Helvetica,sans-Serif" font-size="10.00">+</text>
<text text-anchor="start" x="31.5" y="-130.5" font-family="Helvetica,sans-Serif" font-size="10.00">outputMeasurements()</text>
<text text-anchor="start" x="18.5" y="-115.5" font-family="Helvetica,sans-Serif" font-size="10.00">+</text>
<text text-anchor="start" x="31.5" y="-115.5" font-family="Helvetica,sans-Serif" font-size="10.00">doStateRejectCallbacks()</text>
<text text-anchor="start" x="18.5" y="-100.5" font-family="Helvetica,sans-Serif" font-size="10.00">+</text>
<text text-anchor="start" x="31.5" y="-100.5" font-family="Helvetica,sans-Serif" font-size="10.00">doMeasRejectCallbacks()</text>
<text text-anchor="start" x="18.5" y="-85.5" font-family="Helvetica,sans-Serif" font-size="10.00">+</text>
<text text-anchor="start" x="31.5" y="-85.5" font-family="Helvetica,sans-Serif" font-size="10.00">filterKalman()</text>
<text text-anchor="start" x="18.5" y="-70.5" font-family="Helvetica,sans-Serif" font-size="10.00">+</text>
<text text-anchor="start" x="31.5" y="-70.5" font-family="Helvetica,sans-Serif" font-size="10.00">leastSquareInitStates()</text>
<text text-anchor="start" x="18.5" y="-55.5" font-family="Helvetica,sans-Serif" font-size="10.00">+</text>
<text text-anchor="start" x="31.5" y="-55.5" font-family="Helvetica,sans-Serif" font-size="10.00">getSubState()</text>
<text text-anchor="start" x="18.5" y="-40.5" font-family="Helvetica,sans-Serif" font-size="10.00">+</text>
<text text-anchor="start" x="31.5" y="-40.5" font-family="Helvetica,sans-Serif" font-size="10.00">getSubState()</text>
<text text-anchor="start" x="18.5" y="-25.5" font-family="Helvetica,sans-Serif" font-size="10.00">+</text>
<text text-anchor="start" x="31.5" y="-25.5" font-family="Helvetica,sans-Serif" font-size="10.00">getSubState()</text>
<text text-anchor="start" x="18.5" y="-10.5" font-family="Helvetica,sans-Serif" font-size="10.00">+</text>
<text text-anchor="start" x="31.5" y="-10.5" font-family="Helvetica,sans-Serif" font-size="10.00">decomposedStateKeys()</text>
<polygon fill="#666666" stroke="#666666" points="14.5,-605.5 14.5,-605.5 160.5,-605.5 160.5,-605.5 14.5,-605.5"/>
<polygon fill="#666666" stroke="#666666" points="14.5,-575.5 14.5,-575.5 29.5,-575.5 29.5,-575.5 14.5,-575.5"/>
<polygon fill="#666666" stroke="#666666" points="29.5,-575.5 29.5,-575.5 160.5,-575.5 160.5,-575.5 29.5,-575.5"/>
<polygon fill="none" stroke="#666666" points="14.5,-4 14.5,-623 160.5,-623 160.5,-4 14.5,-4"/>
</a>
</g>
</g>
<!-- Node2 -->
<g id="Node000002" class="node">
<title>Node2</title>
<g id="a_Node000002"><a xlink:href="structKFState__.html" target="_top" xlink:title="Kalman filter object.">
<path fill="white" stroke="#666666" d="M163,-1155C163,-1155 12,-1155 12,-1155 6,-1155 0,-1149 0,-1143 0,-1143 0,-675 0,-675 0,-669 6,-663 12,-663 12,-663 163,-663 163,-663 169,-663 175,-669 175,-675 175,-675 175,-1143 175,-1143 175,-1149 169,-1155 163,-1155"/>
<text text-anchor="start" x="66.5" y="-1139" font-family="Helvetica,sans-Serif" font-size="10.00">KFState_</text>
<text text-anchor="start" x="12.5" y="-1124" font-family="Helvetica,sans-Serif" font-size="10.00">+</text>
<text text-anchor="start" x="25.5" y="-1124" font-family="Helvetica,sans-Serif" font-size="10.00">lsqRequired</text>
<text text-anchor="start" x="12.5" y="-1109" font-family="Helvetica,sans-Serif" font-size="10.00">+</text>
<text text-anchor="start" x="25.5" y="-1109" font-family="Helvetica,sans-Serif" font-size="10.00">time</text>
<text text-anchor="start" x="12.5" y="-1094" font-family="Helvetica,sans-Serif" font-size="10.00">+</text>
<text text-anchor="start" x="25.5" y="-1094" font-family="Helvetica,sans-Serif" font-size="10.00">x</text>
<text text-anchor="start" x="12.5" y="-1079" font-family="Helvetica,sans-Serif" font-size="10.00">+</text>
<text text-anchor="start" x="25.5" y="-1079" font-family="Helvetica,sans-Serif" font-size="10.00">P</text>
<text text-anchor="start" x="12.5" y="-1064" font-family="Helvetica,sans-Serif" font-size="10.00">+</text>
<text text-anchor="start" x="25.5" y="-1064" font-family="Helvetica,sans-Serif" font-size="10.00">dx</text>
<text text-anchor="start" x="12.5" y="-1049" font-family="Helvetica,sans-Serif" font-size="10.00">+</text>
<text text-anchor="start" x="25.5" y="-1049" font-family="Helvetica,sans-Serif" font-size="10.00">kfIndexMap</text>
<text text-anchor="start" x="12.5" y="-1034" font-family="Helvetica,sans-Serif" font-size="10.00">+</text>
<text text-anchor="start" x="25.5" y="-1034" font-family="Helvetica,sans-Serif" font-size="10.00">stateTransitionMap</text>
<text text-anchor="start" x="12.5" y="-1019" font-family="Helvetica,sans-Serif" font-size="10.00">+</text>
<text text-anchor="start" x="25.5" y="-1019" font-family="Helvetica,sans-Serif" font-size="10.00">gaussMarkovTauMap</text>
<text text-anchor="start" x="12.5" y="-1004" font-family="Helvetica,sans-Serif" font-size="10.00">+</text>
<text text-anchor="start" x="25.5" y="-1004" font-family="Helvetica,sans-Serif" font-size="10.00">gaussMarkovMuMap</text>
<text text-anchor="start" x="12.5" y="-989" font-family="Helvetica,sans-Serif" font-size="10.00">+</text>
<text text-anchor="start" x="25.5" y="-989" font-family="Helvetica,sans-Serif" font-size="10.00">procNoiseMap</text>
<text text-anchor="start" x="12.5" y="-974" font-family="Helvetica,sans-Serif" font-size="10.00">+</text>
<text text-anchor="start" x="25.5" y="-974" font-family="Helvetica,sans-Serif" font-size="10.00">initNoiseMap</text>
<text text-anchor="start" x="12.5" y="-959" font-family="Helvetica,sans-Serif" font-size="10.00">+</text>
<text text-anchor="start" x="25.5" y="-959" font-family="Helvetica,sans-Serif" font-size="10.00">sigmaMaxMap</text>
<text text-anchor="start" x="12.5" y="-944" font-family="Helvetica,sans-Serif" font-size="10.00">+</text>
<text text-anchor="start" x="25.5" y="-944" font-family="Helvetica,sans-Serif" font-size="10.00">outageLimitMap</text>
<text text-anchor="start" x="12.5" y="-929" font-family="Helvetica,sans-Serif" font-size="10.00">+</text>
<text text-anchor="start" x="25.5" y="-929" font-family="Helvetica,sans-Serif" font-size="10.00">exponentialNoiseMap</text>
<text text-anchor="start" x="12.5" y="-914" font-family="Helvetica,sans-Serif" font-size="10.00">+</text>
<text text-anchor="start" x="25.5" y="-914" font-family="Helvetica,sans-Serif" font-size="10.00">pseudoStateMap</text>
<text text-anchor="start" x="12.5" y="-899" font-family="Helvetica,sans-Serif" font-size="10.00">+</text>
<text text-anchor="start" x="25.5" y="-899" font-family="Helvetica,sans-Serif" font-size="10.00">pseudoParentMap</text>
<text text-anchor="start" x="12.5" y="-884" font-family="Helvetica,sans-Serif" font-size="10.00">+</text>
<text text-anchor="start" x="25.5" y="-884" font-family="Helvetica,sans-Serif" font-size="10.00">stateRejectCallbacks</text>
<text text-anchor="start" x="12.5" y="-869" font-family="Helvetica,sans-Serif" font-size="10.00">+</text>
<text text-anchor="start" x="25.5" y="-869" font-family="Helvetica,sans-Serif" font-size="10.00">measRejectCallbacks</text>
<text text-anchor="start" x="12.5" y="-854" font-family="Helvetica,sans-Serif" font-size="10.00">+</text>
<text text-anchor="start" x="25.5" y="-854" font-family="Helvetica,sans-Serif" font-size="10.00">filterChunkMap</text>
<text text-anchor="start" x="12.5" y="-839" font-family="Helvetica,sans-Serif" font-size="10.00">+</text>
<text text-anchor="start" x="25.5" y="-839" font-family="Helvetica,sans-Serif" font-size="10.00">metaDataMap</text>
<text text-anchor="start" x="12.5" y="-824" font-family="Helvetica,sans-Serif" font-size="10.00">+</text>
<text text-anchor="start" x="25.5" y="-824" font-family="Helvetica,sans-Serif" font-size="10.00">chiQCPass</text>
<text text-anchor="start" x="12.5" y="-809" font-family="Helvetica,sans-Serif" font-size="10.00">+</text>
<text text-anchor="start" x="25.5" y="-809" font-family="Helvetica,sans-Serif" font-size="10.00">chi</text>
<text text-anchor="start" x="12.5" y="-794" font-family="Helvetica,sans-Serif" font-size="10.00">+</text>
<text text-anchor="start" x="25.5" y="-794" font-family="Helvetica,sans-Serif" font-size="10.00">dof</text>
<text text-anchor="start" x="12.5" y="-779" font-family="Helvetica,sans-Serif" font-size="10.00">+</text>
<text text-anchor="start" x="25.5" y="-779" font-family="Helvetica,sans-Serif" font-size="10.00">id</text>
<text text-anchor="start" x="12.5" y="-764" font-family="Helvetica,sans-Serif" font-size="10.00">+</text>
<text text-anchor="start" x="25.5" y="-764" font-family="Helvetica,sans-Serif" font-size="10.00">rts_basename</text>
<text text-anchor="start" x="12.5" y="-749" font-family="Helvetica,sans-Serif" font-size="10.00">+</text>
<text text-anchor="start" x="25.5" y="-749" font-family="Helvetica,sans-Serif" font-size="10.00">output_residuals</text>
<text text-anchor="start" x="12.5" y="-734" font-family="Helvetica,sans-Serif" font-size="10.00">+</text>
<text text-anchor="start" x="25.5" y="-734" font-family="Helvetica,sans-Serif" font-size="10.00">outputMongoMeasurements</text>
<text text-anchor="start" x="12.5" y="-719" font-family="Helvetica,sans-Serif" font-size="10.00">+</text>
<text text-anchor="start" x="25.5" y="-719" font-family="Helvetica,sans-Serif" font-size="10.00">alternate_ptr</text>
<text text-anchor="start" x="12.5" y="-704" font-family="Helvetica,sans-Serif" font-size="10.00">+</text>
<text text-anchor="start" x="25.5" y="-704" font-family="Helvetica,sans-Serif" font-size="10.00">statisticsMap</text>
<text text-anchor="start" x="12.5" y="-689" font-family="Helvetica,sans-Serif" font-size="10.00">+</text>
<text text-anchor="start" x="25.5" y="-689" font-family="Helvetica,sans-Serif" font-size="10.00">statisticsMapSum</text>
<text text-anchor="start" x="86" y="-674" font-family="Helvetica,sans-Serif" font-size="10.00"> </text>
<polygon fill="#666666" stroke="#666666" points="8.5,-1134 8.5,-1134 167.5,-1134 167.5,-1134 8.5,-1134"/>
<polygon fill="#666666" stroke="#666666" points="8.5,-684 8.5,-684 23.5,-684 23.5,-684 8.5,-684"/>
<polygon fill="#666666" stroke="#666666" points="23.5,-684 23.5,-684 167.5,-684 167.5,-684 23.5,-684"/>
<polygon fill="none" stroke="#666666" points="8,-667 8,-1151 167,-1151 167,-667 8,-667"/>
</a>
</g>
</g>
<!-- Node2&#45;&gt;Node1 -->
<g id="edge1_Node000001_Node000002" class="edge">
<title>Node2&#45;&gt;Node1</title>
<g id="a_edge1_Node000001_Node000002"><a xlink:title=" ">
<path fill="none" stroke="#63b8ff" d="M87.5,-652.48C87.5,-644.05 87.5,-635.56 87.5,-627.07"/>
<polygon fill="none" stroke="#63b8ff" points="84,-652.75 87.5,-662.75 91,-652.75 84,-652.75"/>
</a>
</g>
</g>
<!-- Node3 -->
<g id="Node000003" class="node">
<title>Node3</title>
<g id="a_Node000003"><a xlink:href="structFilterOptions.html" target="_top" xlink:title=" ">
<path fill="#fff0f0" stroke="red" d="M143,-1353C143,-1353 32,-1353 32,-1353 26,-1353 20,-1347 20,-1341 20,-1341 20,-1203 20,-1203 20,-1197 26,-1191 32,-1191 32,-1191 143,-1191 143,-1191 149,-1191 155,-1197 155,-1203 155,-1203 155,-1341 155,-1341 155,-1347 149,-1353 143,-1353"/>
<text text-anchor="start" x="56.5" y="-1337" font-family="Helvetica,sans-Serif" font-size="10.00">FilterOptions</text>
<text text-anchor="start" x="32.5" y="-1322" font-family="Helvetica,sans-Serif" font-size="10.00">+</text>
<text text-anchor="start" x="45.5" y="-1322" font-family="Helvetica,sans-Serif" font-size="10.00">simulate_filter_only</text>
<text text-anchor="start" x="32.5" y="-1307" font-family="Helvetica,sans-Serif" font-size="10.00">+</text>
<text text-anchor="start" x="45.5" y="-1307" font-family="Helvetica,sans-Serif" font-size="10.00">assume_linearity</text>
<text text-anchor="start" x="32.5" y="-1292" font-family="Helvetica,sans-Serif" font-size="10.00">+</text>
<text text-anchor="start" x="45.5" y="-1292" font-family="Helvetica,sans-Serif" font-size="10.00">advanced_postfits</text>
<text text-anchor="start" x="32.5" y="-1277" font-family="Helvetica,sans-Serif" font-size="10.00">+</text>
<text text-anchor="start" x="45.5" y="-1277" font-family="Helvetica,sans-Serif" font-size="10.00">joseph_stabilisation</text>
<text text-anchor="start" x="32.5" y="-1262" font-family="Helvetica,sans-Serif" font-size="10.00">+</text>
<text text-anchor="start" x="45.5" y="-1262" font-family="Helvetica,sans-Serif" font-size="10.00">inverter</text>
<text text-anchor="start" x="32.5" y="-1247" font-family="Helvetica,sans-Serif" font-size="10.00">+</text>
<text text-anchor="start" x="45.5" y="-1247" font-family="Helvetica,sans-Serif" font-size="10.00">prefitOpts</text>
<text text-anchor="start" x="32.5" y="-1232" font-family="Helvetica,sans-Serif" font-size="10.00">+</text>
<text text-anchor="start" x="45.5" y="-1232" font-family="Helvetica,sans-Serif" font-size="10.00">postfitOpts</text>
<text text-anchor="start" x="32.5" y="-1217" font-family="Helvetica,sans-Serif" font-size="10.00">+</text>
<text text-anchor="start" x="45.5" y="-1217" font-family="Helvetica,sans-Serif" font-size="10.00">chiSquareTest</text>
<text text-anchor="start" x="86" y="-1202" font-family="Helvetica,sans-Serif" font-size="10.00"> </text>
<polygon fill="red" stroke="red" points="28.5,-1332 28.5,-1332 147.5,-1332 147.5,-1332 28.5,-1332"/>
<polygon fill="red" stroke="red" points="28.5,-1212 28.5,-1212 43.5,-1212 43.5,-1212 28.5,-1212"/>
<polygon fill="red" stroke="red" points="43.5,-1212 43.5,-1212 147.5,-1212 147.5,-1212 43.5,-1212"/>
<polygon fill="none" stroke="red" points="28,-1195 28,-1349 147,-1349 147,-1195 28,-1195"/>
</a>
</g>
</g>
<!-- Node3&#45;&gt;Node2 -->
<g id="edge2_Node000002_Node000003" class="edge">
<title>Node3&#45;&gt;Node2</title>
<g id="a_edge2_Node000002_Node000003"><a xlink:title=" ">
<path fill="none" stroke="#63b8ff" d="M87.5,-1180.7C87.5,-1172.51 87.5,-1163.99 87.5,-1155.24"/>
<polygon fill="none" stroke="#63b8ff" points="84,-1180.88 87.5,-1190.88 91,-1180.88 84,-1180.88"/>
</a>
</g>
</g>
</g>
</svg>
