<?xml version="1.0" encoding="UTF-8" standalone="no"?>
<!DOCTYPE svg PUBLIC "-//W3C//DTD SVG 1.1//EN"
 "http://www.w3.org/Graphics/SVG/1.1/DTD/svg11.dtd">
<!-- Generated by graphviz version 2.43.0 (0)
 -->
<!-- Title: TcpSocket::delayedReconnect Pages: 1 -->
<svg width="971pt" height="246pt"
 viewBox="0.00 0.00 971.00 245.50" xmlns="http://www.w3.org/2000/svg" xmlns:xlink="http://www.w3.org/1999/xlink">
<g id="graph0" class="graph" transform="scale(1 1) rotate(0) translate(4 241.5)">
<title>TcpSocket::delayedReconnect</title>
<!-- Node1 -->
<g id="Node000001" class="node">
<title>Node1</title>
<g id="a_Node000001"><a xlink:href="structTcpSocket.html#ae4050e3ed6adf0dbe575ca992234f798" target="_top" xlink:title=" ">
<path fill="#fff0f0" stroke="red" stroke-width="2" d="M956.67,-114C956.67,-114 808.33,-114 808.33,-114 805.17,-114 802,-110.83 802,-107.67 802,-107.67 802,-101.33 802,-101.33 802,-98.17 805.17,-95 808.33,-95 808.33,-95 956.67,-95 956.67,-95 959.83,-95 963,-98.17 963,-101.33 963,-101.33 963,-107.67 963,-107.67 963,-110.83 959.83,-114 956.67,-114"/>
<text text-anchor="middle" x="882.5" y="-102" font-family="Helvetica,sans-Serif" font-size="10.00">TcpSocket::delayedReconnect</text>
</a>
</g>
</g>
<!-- Node2 -->
<g id="Node000002" class="node">
<title>Node2</title>
<g id="a_Node000002"><a xlink:href="structNtripResponder.html#a874ea233cd0c2b2139c68b6d9009112a" target="_top" xlink:title=" ">
<path fill="#fff0f0" stroke="red" d="M756,-237.5C756,-237.5 594,-237.5 594,-237.5 589,-237.5 584,-232.5 584,-227.5 584,-227.5 584,-217.5 584,-217.5 584,-212.5 589,-207.5 594,-207.5 594,-207.5 756,-207.5 756,-207.5 761,-207.5 766,-212.5 766,-217.5 766,-217.5 766,-227.5 766,-227.5 766,-232.5 761,-237.5 756,-237.5"/>
<text text-anchor="start" x="592" y="-225.5" font-family="Helvetica,sans-Serif" font-size="10.00">NtripResponder::requestResponse</text>
<text text-anchor="middle" x="675" y="-214.5" font-family="Helvetica,sans-Serif" font-size="10.00">Handler</text>
</a>
</g>
</g>
<!-- Node1&#45;&gt;Node2 -->
<g id="edge1_Node000001_Node000002" class="edge">
<title>Node1&#45;&gt;Node2</title>
<g id="a_edge1_Node000001_Node000002"><a xlink:title=" ">
<path fill="none" stroke="#63b8ff" d="M864.14,-121.02C842.64,-140.7 804.15,-173.44 766,-193.5 755.68,-198.92 744.17,-203.57 732.91,-207.45"/>
<polygon fill="#63b8ff" stroke="#63b8ff" points="866.57,-123.53 871.52,-114.16 861.81,-118.41 866.57,-123.53"/>
</a>
</g>
</g>
<!-- Node3 -->
<g id="Node000003" class="node">
<title>Node3</title>
<g id="a_Node000003"><a xlink:href="structSisnetStream.html#a56cc641704e031342a9c1eba56444c7a" target="_top" xlink:title=" ">
<path fill="#fff0f0" stroke="red" d="M162,-128.5C162,-128.5 10,-128.5 10,-128.5 5,-128.5 0,-123.5 0,-118.5 0,-118.5 0,-108.5 0,-108.5 0,-103.5 5,-98.5 10,-98.5 10,-98.5 162,-98.5 162,-98.5 167,-98.5 172,-103.5 172,-108.5 172,-108.5 172,-118.5 172,-118.5 172,-123.5 167,-128.5 162,-128.5"/>
<text text-anchor="start" x="8" y="-116.5" font-family="Helvetica,sans-Serif" font-size="10.00">SisnetStream::requestResponse</text>
<text text-anchor="middle" x="86" y="-105.5" font-family="Helvetica,sans-Serif" font-size="10.00">Handler</text>
</a>
</g>
</g>
<!-- Node1&#45;&gt;Node3 -->
<g id="edge2_Node000001_Node000003" class="edge">
<title>Node1&#45;&gt;Node3</title>
<g id="a_edge2_Node000001_Node000003"><a xlink:title=" ">
<path fill="none" stroke="#63b8ff" d="M858.85,-119.32C836.36,-133.08 800.36,-152.61 766,-160.5 540.27,-212.34 262.17,-157.25 144.21,-128.58"/>
<polygon fill="#63b8ff" stroke="#63b8ff" points="860.73,-122.28 867.34,-114 857.01,-116.34 860.73,-122.28"/>
</a>
</g>
</g>
<!-- Node4 -->
<g id="Node000004" class="node">
<title>Node4</title>
<g id="a_Node000004"><a xlink:href="structSisnetStream.html#a743f81c9442479914f1d2052b7818906" target="_top" xlink:title=" ">
<path fill="#fff0f0" stroke="red" d="M746.17,-133C746.17,-133 603.83,-133 603.83,-133 600.67,-133 597.5,-129.83 597.5,-126.67 597.5,-126.67 597.5,-120.33 597.5,-120.33 597.5,-117.17 600.67,-114 603.83,-114 603.83,-114 746.17,-114 746.17,-114 749.33,-114 752.5,-117.17 752.5,-120.33 752.5,-120.33 752.5,-126.67 752.5,-126.67 752.5,-129.83 749.33,-133 746.17,-133"/>
<text text-anchor="middle" x="675" y="-121" font-family="Helvetica,sans-Serif" font-size="10.00">SisnetStream::sisnetHandler</text>
</a>
</g>
</g>
<!-- Node1&#45;&gt;Node4 -->
<g id="edge3_Node000001_Node000004" class="edge">
<title>Node1&#45;&gt;Node4</title>
<g id="a_edge3_Node000001_Node000004"><a xlink:title=" ">
<path fill="none" stroke="#63b8ff" d="M791.45,-112.83C778.52,-114.02 765.31,-115.24 752.66,-116.41"/>
<polygon fill="#63b8ff" stroke="#63b8ff" points="792.12,-116.28 801.75,-111.87 791.47,-109.31 792.12,-116.28"/>
</a>
</g>
</g>
<!-- Node5 -->
<g id="Node000005" class="node">
<title>Node5</title>
<g id="a_Node000005"><a xlink:href="structSisnetStream.html#aa33b178bbc2570400475425ba059bb4d" target="_top" xlink:title=" ">
<path fill="#fff0f0" stroke="red" d="M538,-105.5C538,-105.5 394,-105.5 394,-105.5 389,-105.5 384,-100.5 384,-95.5 384,-95.5 384,-85.5 384,-85.5 384,-80.5 389,-75.5 394,-75.5 394,-75.5 538,-75.5 538,-75.5 543,-75.5 548,-80.5 548,-85.5 548,-85.5 548,-95.5 548,-95.5 548,-100.5 543,-105.5 538,-105.5"/>
<text text-anchor="start" x="392" y="-93.5" font-family="Helvetica,sans-Serif" font-size="10.00">SisnetStream::sisnetResponse</text>
<text text-anchor="middle" x="466" y="-82.5" font-family="Helvetica,sans-Serif" font-size="10.00">Handler</text>
</a>
</g>
</g>
<!-- Node1&#45;&gt;Node5 -->
<g id="edge8_Node000001_Node000005" class="edge">
<title>Node1&#45;&gt;Node5</title>
<g id="a_edge8_Node000001_Node000005"><a xlink:title=" ">
<path fill="none" stroke="#63b8ff" d="M791.55,-101.46C719.08,-99.01 618.09,-95.6 548.09,-93.24"/>
<polygon fill="#63b8ff" stroke="#63b8ff" points="791.47,-104.96 801.58,-101.8 791.7,-97.96 791.47,-104.96"/>
</a>
</g>
</g>
<!-- Node6 -->
<g id="Node000006" class="node">
<title>Node6</title>
<g id="a_Node000006"><a xlink:href="structSisnetStream.html#a5dc8b2ed787356a865782bdce91bb37a" target="_top" xlink:title=" ">
<path fill="#fff0f0" stroke="red" d="M338,-84.5C338,-84.5 218,-84.5 218,-84.5 213,-84.5 208,-79.5 208,-74.5 208,-74.5 208,-64.5 208,-64.5 208,-59.5 213,-54.5 218,-54.5 218,-54.5 338,-54.5 338,-54.5 343,-54.5 348,-59.5 348,-64.5 348,-64.5 348,-74.5 348,-74.5 348,-79.5 343,-84.5 338,-84.5"/>
<text text-anchor="start" x="216" y="-72.5" font-family="Helvetica,sans-Serif" font-size="10.00">SisnetStream::sisnetStart</text>
<text text-anchor="middle" x="278" y="-61.5" font-family="Helvetica,sans-Serif" font-size="10.00">Handler</text>
</a>
</g>
</g>
<!-- Node1&#45;&gt;Node6 -->
<g id="edge9_Node000001_Node000006" class="edge">
<title>Node1&#45;&gt;Node6</title>
<g id="a_edge9_Node000001_Node000006"><a xlink:title=" ">
<path fill="none" stroke="#63b8ff" d="M793.73,-93.76C784.37,-92.64 774.99,-91.54 766,-90.5 669.17,-79.3 645.33,-71.84 548,-66.5 475.22,-62.51 456.88,-65.46 384,-66.5 372.42,-66.67 360.13,-66.93 348.18,-67.24"/>
<polygon fill="#63b8ff" stroke="#63b8ff" points="793.51,-97.26 803.85,-94.97 794.34,-90.31 793.51,-97.26"/>
</a>
</g>
</g>
<!-- Node7 -->
<g id="Node000007" class="node">
<title>Node7</title>
<g id="a_Node000007"><a xlink:href="structTcpSocket.html#af0d4224df8c4ae9c3ca8227bfd10a701" target="_top" xlink:title=" ">
<path fill="#fff0f0" stroke="red" d="M533.17,-19C533.17,-19 398.83,-19 398.83,-19 395.67,-19 392.5,-15.83 392.5,-12.67 392.5,-12.67 392.5,-6.33 392.5,-6.33 392.5,-3.17 395.67,0 398.83,0 398.83,0 533.17,0 533.17,0 536.33,0 539.5,-3.17 539.5,-6.33 539.5,-6.33 539.5,-12.67 539.5,-12.67 539.5,-15.83 536.33,-19 533.17,-19"/>
<text text-anchor="middle" x="466" y="-7" font-family="Helvetica,sans-Serif" font-size="10.00">TcpSocket::timeoutHandler</text>
</a>
</g>
</g>
<!-- Node1&#45;&gt;Node7 -->
<g id="edge10_Node000001_Node000007" class="edge">
<title>Node1&#45;&gt;Node7</title>
<g id="a_edge10_Node000001_Node000007"><a xlink:title=" ">
<path fill="none" stroke="#63b8ff" d="M862.12,-88.56C840.27,-71.59 802.94,-45.56 766,-33.5 691.5,-9.17 601.25,-5.15 539.53,-5.97"/>
<polygon fill="#63b8ff" stroke="#63b8ff" points="859.96,-91.31 869.97,-94.78 864.31,-85.83 859.96,-91.31"/>
</a>
</g>
</g>
<!-- Node4&#45;&gt;Node4 -->
<g id="edge4_Node000004_Node000004" class="edge">
<title>Node4&#45;&gt;Node4</title>
<g id="a_edge4_Node000004_Node000004"><a xlink:title=" ">
<path fill="none" stroke="#63b8ff" d="M713.62,-140.69C713.62,-146.42 700.74,-151 675,-151 638.39,-151 627.8,-141.73 643.25,-133.08"/>
<polygon fill="#63b8ff" stroke="#63b8ff" points="716.05,-138.16 706.75,-133.08 710.86,-142.85 716.05,-138.16"/>
</a>
</g>
</g>
<!-- Node4&#45;&gt;Node5 -->
<g id="edge5_Node000004_Node000005" class="edge">
<title>Node4&#45;&gt;Node5</title>
<g id="a_edge5_Node000004_Node000005"><a xlink:title=" ">
<path fill="none" stroke="#63b8ff" d="M604.53,-112.42C586.42,-109.54 566.76,-106.4 548.12,-103.43"/>
<polygon fill="#63b8ff" stroke="#63b8ff" points="603.98,-115.88 614.4,-114 605.08,-108.97 603.98,-115.88"/>
</a>
</g>
</g>
<!-- Node5&#45;&gt;Node6 -->
<g id="edge6_Node000005_Node000006" class="edge">
<title>Node5&#45;&gt;Node6</title>
<g id="a_edge6_Node000005_Node000006"><a xlink:title=" ">
<path fill="none" stroke="#63b8ff" d="M373.84,-80.21C365.19,-79.23 356.52,-78.25 348.13,-77.31"/>
<polygon fill="#63b8ff" stroke="#63b8ff" points="373.63,-83.71 383.96,-81.35 374.41,-76.75 373.63,-83.71"/>
</a>
</g>
</g>
<!-- Node6&#45;&gt;Node3 -->
<g id="edge7_Node000006_Node000003" class="edge">
<title>Node6&#45;&gt;Node3</title>
<g id="a_edge7_Node000006_Node000003"><a xlink:title=" ">
<path fill="none" stroke="#63b8ff" d="M201.96,-86.88C185.41,-90.71 168,-94.74 151.89,-98.47"/>
<polygon fill="#63b8ff" stroke="#63b8ff" points="203.19,-90.19 212.14,-84.52 201.61,-83.37 203.19,-90.19"/>
</a>
</g>
</g>
<!-- Node7&#45;&gt;Node6 -->
<g id="edge11_Node000007_Node000006" class="edge">
<title>Node7&#45;&gt;Node6</title>
<g id="a_edge11_Node000007_Node000006"><a xlink:title=" ">
<path fill="none" stroke="#63b8ff" d="M421.48,-22.03C409.32,-25.63 396.12,-29.63 384,-33.5 363.35,-40.1 340.57,-47.85 321.52,-54.46"/>
<polygon fill="#63b8ff" stroke="#63b8ff" points="422.8,-25.29 431.4,-19.11 420.82,-18.57 422.8,-25.29"/>
</a>
</g>
</g>
</g>
</svg>
