<?xml version="1.0" encoding="UTF-8" standalone="no"?>
<!DOCTYPE svg PUBLIC "-//W3C//DTD SVG 1.1//EN"
 "http://www.w3.org/Graphics/SVG/1.1/DTD/svg11.dtd">
<!-- Generated by graphviz version 2.43.0 (0)
 -->
<!-- Title: IonModelOptions Pages: 1 -->
<svg width="145pt" height="566pt"
 viewBox="0.00 0.00 145.00 566.00" xmlns="http://www.w3.org/2000/svg" xmlns:xlink="http://www.w3.org/1999/xlink">
<g id="graph0" class="graph" transform="scale(1 1) rotate(0) translate(4 562)">
<title>IonModelOptions</title>
<!-- Node1 -->
<g id="Node000001" class="node">
<title>Node1</title>
<g id="a_Node000001"><a xlink:href="structIonModelOptions.html" target="_top" xlink:title=" ">
<path fill="white" stroke="#666666" stroke-width="2" d="M119.5,-177C119.5,-177 17.5,-177 17.5,-177 11.5,-177 5.5,-171 5.5,-165 5.5,-165 5.5,-12 5.5,-12 5.5,-6 11.5,0 17.5,0 17.5,0 119.5,0 119.5,0 125.5,0 131.5,-6 131.5,-12 131.5,-12 131.5,-165 131.5,-165 131.5,-171 125.5,-177 119.5,-177"/>
<text text-anchor="start" x="27" y="-160.5" font-family="Helvetica,sans-Serif" font-size="10.00">IonModelOptions</text>
<text text-anchor="start" x="17.5" y="-145.5" font-family="Helvetica,sans-Serif" font-size="10.00">+</text>
<text text-anchor="start" x="30.5" y="-145.5" font-family="Helvetica,sans-Serif" font-size="10.00">model</text>
<text text-anchor="start" x="17.5" y="-130.5" font-family="Helvetica,sans-Serif" font-size="10.00">+</text>
<text text-anchor="start" x="30.5" y="-130.5" font-family="Helvetica,sans-Serif" font-size="10.00">numBasis</text>
<text text-anchor="start" x="17.5" y="-115.5" font-family="Helvetica,sans-Serif" font-size="10.00">+</text>
<text text-anchor="start" x="30.5" y="-115.5" font-family="Helvetica,sans-Serif" font-size="10.00">function_order</text>
<text text-anchor="start" x="17.5" y="-100.5" font-family="Helvetica,sans-Serif" font-size="10.00">+</text>
<text text-anchor="start" x="30.5" y="-100.5" font-family="Helvetica,sans-Serif" font-size="10.00">function_degree</text>
<text text-anchor="start" x="17.5" y="-85.5" font-family="Helvetica,sans-Serif" font-size="10.00">+</text>
<text text-anchor="start" x="30.5" y="-85.5" font-family="Helvetica,sans-Serif" font-size="10.00">layer_heights</text>
<text text-anchor="start" x="17.5" y="-70.5" font-family="Helvetica,sans-Serif" font-size="10.00">+</text>
<text text-anchor="start" x="30.5" y="-70.5" font-family="Helvetica,sans-Serif" font-size="10.00">estimate_sat_dcb</text>
<text text-anchor="start" x="17.5" y="-55.5" font-family="Helvetica,sans-Serif" font-size="10.00">+</text>
<text text-anchor="start" x="30.5" y="-55.5" font-family="Helvetica,sans-Serif" font-size="10.00">use_rotation_mtx</text>
<text text-anchor="start" x="17.5" y="-40.5" font-family="Helvetica,sans-Serif" font-size="10.00">+</text>
<text text-anchor="start" x="30.5" y="-40.5" font-family="Helvetica,sans-Serif" font-size="10.00">basis_sigma_limit</text>
<text text-anchor="start" x="17.5" y="-25.5" font-family="Helvetica,sans-Serif" font-size="10.00">+</text>
<text text-anchor="start" x="30.5" y="-25.5" font-family="Helvetica,sans-Serif" font-size="10.00">ion</text>
<text text-anchor="start" x="66.5" y="-10.5" font-family="Helvetica,sans-Serif" font-size="10.00"> </text>
<polygon fill="#666666" stroke="#666666" points="13.5,-155.5 13.5,-155.5 123.5,-155.5 123.5,-155.5 13.5,-155.5"/>
<polygon fill="#666666" stroke="#666666" points="13.5,-20.5 13.5,-20.5 28.5,-20.5 28.5,-20.5 13.5,-20.5"/>
<polygon fill="#666666" stroke="#666666" points="28.5,-20.5 28.5,-20.5 123.5,-20.5 123.5,-20.5 28.5,-20.5"/>
<polygon fill="none" stroke="#666666" points="13.5,-4 13.5,-173 123.5,-173 123.5,-4 13.5,-4"/>
</a>
</g>
</g>
<!-- Node2 -->
<g id="Node000002" class="node">
<title>Node2</title>
<g id="a_Node000002"><a xlink:href="structFilterOptions.html" target="_top" xlink:title=" ">
<path fill="white" stroke="#666666" d="M124,-375C124,-375 13,-375 13,-375 7,-375 1,-369 1,-363 1,-363 1,-225 1,-225 1,-219 7,-213 13,-213 13,-213 124,-213 124,-213 130,-213 136,-219 136,-225 136,-225 136,-363 136,-363 136,-369 130,-375 124,-375"/>
<text text-anchor="start" x="37.5" y="-359" font-family="Helvetica,sans-Serif" font-size="10.00">FilterOptions</text>
<text text-anchor="start" x="13.5" y="-344" font-family="Helvetica,sans-Serif" font-size="10.00">+</text>
<text text-anchor="start" x="26.5" y="-344" font-family="Helvetica,sans-Serif" font-size="10.00">simulate_filter_only</text>
<text text-anchor="start" x="13.5" y="-329" font-family="Helvetica,sans-Serif" font-size="10.00">+</text>
<text text-anchor="start" x="26.5" y="-329" font-family="Helvetica,sans-Serif" font-size="10.00">assume_linearity</text>
<text text-anchor="start" x="13.5" y="-314" font-family="Helvetica,sans-Serif" font-size="10.00">+</text>
<text text-anchor="start" x="26.5" y="-314" font-family="Helvetica,sans-Serif" font-size="10.00">advanced_postfits</text>
<text text-anchor="start" x="13.5" y="-299" font-family="Helvetica,sans-Serif" font-size="10.00">+</text>
<text text-anchor="start" x="26.5" y="-299" font-family="Helvetica,sans-Serif" font-size="10.00">joseph_stabilisation</text>
<text text-anchor="start" x="13.5" y="-284" font-family="Helvetica,sans-Serif" font-size="10.00">+</text>
<text text-anchor="start" x="26.5" y="-284" font-family="Helvetica,sans-Serif" font-size="10.00">inverter</text>
<text text-anchor="start" x="13.5" y="-269" font-family="Helvetica,sans-Serif" font-size="10.00">+</text>
<text text-anchor="start" x="26.5" y="-269" font-family="Helvetica,sans-Serif" font-size="10.00">prefitOpts</text>
<text text-anchor="start" x="13.5" y="-254" font-family="Helvetica,sans-Serif" font-size="10.00">+</text>
<text text-anchor="start" x="26.5" y="-254" font-family="Helvetica,sans-Serif" font-size="10.00">postfitOpts</text>
<text text-anchor="start" x="13.5" y="-239" font-family="Helvetica,sans-Serif" font-size="10.00">+</text>
<text text-anchor="start" x="26.5" y="-239" font-family="Helvetica,sans-Serif" font-size="10.00">chiSquareTest</text>
<text text-anchor="start" x="67" y="-224" font-family="Helvetica,sans-Serif" font-size="10.00"> </text>
<polygon fill="#666666" stroke="#666666" points="9.5,-354 9.5,-354 128.5,-354 128.5,-354 9.5,-354"/>
<polygon fill="#666666" stroke="#666666" points="9.5,-234 9.5,-234 24.5,-234 24.5,-234 9.5,-234"/>
<polygon fill="#666666" stroke="#666666" points="24.5,-234 24.5,-234 128.5,-234 128.5,-234 24.5,-234"/>
<polygon fill="none" stroke="#666666" points="9,-217 9,-371 128,-371 128,-217 9,-217"/>
</a>
</g>
</g>
<!-- Node2&#45;&gt;Node1 -->
<g id="edge1_Node000001_Node000002" class="edge">
<title>Node2&#45;&gt;Node1</title>
<g id="a_edge1_Node000001_Node000002"><a xlink:title=" ">
<path fill="none" stroke="#63b8ff" d="M68.5,-202.65C68.5,-194.22 68.5,-185.69 68.5,-177.29"/>
<polygon fill="none" stroke="#63b8ff" points="65,-202.86 68.5,-212.86 72,-202.86 65,-202.86"/>
</a>
</g>
</g>
<!-- Node3 -->
<g id="Node000003" class="node">
<title>Node3</title>
<g id="a_Node000003"><a xlink:href="structRtsOptions.html" target="_top" xlink:title=" ">
<path fill="white" stroke="#666666" d="M125,-558C125,-558 12,-558 12,-558 6,-558 0,-552 0,-546 0,-546 0,-423 0,-423 0,-417 6,-411 12,-411 12,-411 125,-411 125,-411 131,-411 137,-417 137,-423 137,-423 137,-546 137,-546 137,-552 131,-558 125,-558"/>
<text text-anchor="start" x="42" y="-541.5" font-family="Helvetica,sans-Serif" font-size="10.00">RtsOptions</text>
<text text-anchor="start" x="12.5" y="-526.5" font-family="Helvetica,sans-Serif" font-size="10.00">+</text>
<text text-anchor="start" x="25.5" y="-526.5" font-family="Helvetica,sans-Serif" font-size="10.00">rts_filename</text>
<text text-anchor="start" x="12.5" y="-511.5" font-family="Helvetica,sans-Serif" font-size="10.00">+</text>
<text text-anchor="start" x="25.5" y="-511.5" font-family="Helvetica,sans-Serif" font-size="10.00">rts_directory</text>
<text text-anchor="start" x="12.5" y="-496.5" font-family="Helvetica,sans-Serif" font-size="10.00">+</text>
<text text-anchor="start" x="25.5" y="-496.5" font-family="Helvetica,sans-Serif" font-size="10.00">rts_lag</text>
<text text-anchor="start" x="12.5" y="-481.5" font-family="Helvetica,sans-Serif" font-size="10.00">+</text>
<text text-anchor="start" x="25.5" y="-481.5" font-family="Helvetica,sans-Serif" font-size="10.00">rts_interval</text>
<text text-anchor="start" x="12.5" y="-466.5" font-family="Helvetica,sans-Serif" font-size="10.00">+</text>
<text text-anchor="start" x="25.5" y="-466.5" font-family="Helvetica,sans-Serif" font-size="10.00">rts_smoothed_suffix</text>
<text text-anchor="start" x="12.5" y="-451.5" font-family="Helvetica,sans-Serif" font-size="10.00">+</text>
<text text-anchor="start" x="25.5" y="-451.5" font-family="Helvetica,sans-Serif" font-size="10.00">queue_rts_outputs</text>
<text text-anchor="start" x="12.5" y="-436.5" font-family="Helvetica,sans-Serif" font-size="10.00">+</text>
<text text-anchor="start" x="25.5" y="-436.5" font-family="Helvetica,sans-Serif" font-size="10.00">rts_inverter</text>
<text text-anchor="start" x="67" y="-421.5" font-family="Helvetica,sans-Serif" font-size="10.00"> </text>
<polygon fill="#666666" stroke="#666666" points="8.5,-536.5 8.5,-536.5 129.5,-536.5 129.5,-536.5 8.5,-536.5"/>
<polygon fill="#666666" stroke="#666666" points="8.5,-431.5 8.5,-431.5 23.5,-431.5 23.5,-431.5 8.5,-431.5"/>
<polygon fill="#666666" stroke="#666666" points="23.5,-431.5 23.5,-431.5 129.5,-431.5 129.5,-431.5 23.5,-431.5"/>
<polygon fill="none" stroke="#666666" points="8,-415 8,-554 129,-554 129,-415 8,-415"/>
</a>
</g>
</g>
<!-- Node3&#45;&gt;Node2 -->
<g id="edge2_Node000002_Node000003" class="edge">
<title>Node3&#45;&gt;Node2</title>
<g id="a_edge2_Node000002_Node000003"><a xlink:title=" ">
<path fill="none" stroke="#63b8ff" d="M68.5,-400.63C68.5,-392.15 68.5,-383.54 68.5,-375.1"/>
<polygon fill="none" stroke="#63b8ff" points="65,-400.89 68.5,-410.89 72,-400.89 65,-400.89"/>
</a>
</g>
</g>
</g>
</svg>
