<?xml version="1.0" encoding="UTF-8" standalone="no"?>
<!DOCTYPE svg PUBLIC "-//W3C//DTD SVG 1.1//EN"
 "http://www.w3.org/Graphics/SVG/1.1/DTD/svg11.dtd">
<!-- Generated by graphviz version 2.43.0 (0)
 -->
<!-- Title: KFState::decomposedStateKeys Pages: 1 -->
<svg width="346pt" height="27pt"
 viewBox="0.00 0.00 346.00 27.00" xmlns="http://www.w3.org/2000/svg" xmlns:xlink="http://www.w3.org/1999/xlink">
<g id="graph0" class="graph" transform="scale(1 1) rotate(0) translate(4 23)">
<title>KFState::decomposedStateKeys</title>
<!-- Node1 -->
<g id="Node000001" class="node">
<title>Node1</title>
<g id="a_Node000001"><a xlink:href="structKFState.html#ac161d9283e7fedbdf6236a2c8c0be180" target="_top" xlink:title=" ">
<path fill="#fff0f0" stroke="red" stroke-width="2" d="M331.67,-19C331.67,-19 173.33,-19 173.33,-19 170.17,-19 167,-15.83 167,-12.67 167,-12.67 167,-6.33 167,-6.33 167,-3.17 170.17,0 173.33,0 173.33,0 331.67,0 331.67,0 334.83,0 338,-3.17 338,-6.33 338,-6.33 338,-12.67 338,-12.67 338,-15.83 334.83,-19 331.67,-19"/>
<text text-anchor="middle" x="252.5" y="-7" font-family="Helvetica,sans-Serif" font-size="10.00">KFState::decomposedStateKeys</text>
</a>
</g>
</g>
<!-- Node2 -->
<g id="Node000002" class="node">
<title>Node2</title>
<g id="a_Node000002"><a xlink:href="ppp_8cpp.html#a075655f5235940732703f2e6ca41421a" target="_top" xlink:title="Remove ambiguity states from filter when they deemed old or bad This effectively reinitialises them o...">
<path fill="#fff0f0" stroke="red" d="M124.67,-19C124.67,-19 6.33,-19 6.33,-19 3.17,-19 0,-15.83 0,-12.67 0,-12.67 0,-6.33 0,-6.33 0,-3.17 3.17,0 6.33,0 6.33,0 124.67,0 124.67,0 127.83,0 131,-3.17 131,-6.33 131,-6.33 131,-12.67 131,-12.67 131,-15.83 127.83,-19 124.67,-19"/>
<text text-anchor="middle" x="65.5" y="-7" font-family="Helvetica,sans-Serif" font-size="10.00">removeBadAmbiguities</text>
</a>
</g>
</g>
<!-- Node1&#45;&gt;Node2 -->
<g id="edge1_Node000001_Node000002" class="edge">
<title>Node1&#45;&gt;Node2</title>
<g id="a_edge1_Node000001_Node000002"><a xlink:title=" ">
<path fill="none" stroke="#63b8ff" d="M156.71,-9.5C148.07,-9.5 139.45,-9.5 131.17,-9.5"/>
<polygon fill="#63b8ff" stroke="#63b8ff" points="156.85,-13 166.85,-9.5 156.85,-6 156.85,-13"/>
</a>
</g>
</g>
</g>
</svg>
