<?xml version="1.0" encoding="UTF-8" standalone="no"?>
<!DOCTYPE svg PUBLIC "-//W3C//DTD SVG 1.1//EN"
 "http://www.w3.org/Graphics/SVG/1.1/DTD/svg11.dtd">
<!-- Generated by graphviz version 2.43.0 (0)
 -->
<!-- Title: Solution Pages: 1 -->
<svg width="658pt" height="1782pt"
 viewBox="0.00 0.00 657.57 1782.00" xmlns="http://www.w3.org/2000/svg" xmlns:xlink="http://www.w3.org/1999/xlink">
<g id="graph0" class="graph" transform="scale(1 1) rotate(0) translate(4 1778)">
<title>Solution</title>
<!-- Node1 -->
<g id="Node000001" class="node">
<title>Node1</title>
<g id="a_Node000001"><a xlink:href="structSolution.html" target="_top" xlink:title="Solution of user mode processing functinos.">
<path fill="white" stroke="#666666" stroke-width="2" d="M350.57,-72C350.57,-72 288.57,-72 288.57,-72 282.57,-72 276.57,-66 276.57,-60 276.57,-60 276.57,-12 276.57,-12 276.57,-6 282.57,0 288.57,0 288.57,0 350.57,0 350.57,0 356.57,0 362.57,-6 362.57,-12 362.57,-12 362.57,-60 362.57,-60 362.57,-66 356.57,-72 350.57,-72"/>
<text text-anchor="start" x="299.57" y="-56" font-family="Helvetica,sans-Serif" font-size="10.00">Solution</text>
<text text-anchor="start" x="288.57" y="-41" font-family="Helvetica,sans-Serif" font-size="10.00">+</text>
<text text-anchor="start" x="301.57" y="-41" font-family="Helvetica,sans-Serif" font-size="10.00">status</text>
<text text-anchor="start" x="288.57" y="-26" font-family="Helvetica,sans-Serif" font-size="10.00">+</text>
<text text-anchor="start" x="301.57" y="-26" font-family="Helvetica,sans-Serif" font-size="10.00">numMeas</text>
<text text-anchor="start" x="317.57" y="-11" font-family="Helvetica,sans-Serif" font-size="10.00"> </text>
<polygon fill="#666666" stroke="#666666" points="284.57,-51 284.57,-51 354.57,-51 354.57,-51 284.57,-51"/>
<polygon fill="#666666" stroke="#666666" points="284.57,-21 284.57,-21 299.57,-21 299.57,-21 284.57,-21"/>
<polygon fill="#666666" stroke="#666666" points="299.57,-21 299.57,-21 354.57,-21 354.57,-21 299.57,-21"/>
<polygon fill="none" stroke="#666666" points="284.57,-4 284.57,-68 354.57,-68 354.57,-4 284.57,-4"/>
</a>
</g>
</g>
<!-- Node2 -->
<g id="Node000002" class="node">
<title>Node2</title>
<g id="a_Node000002"><a xlink:href="structGTime.html" target="_top" xlink:title="Time structure used throughout this software.">
<path fill="white" stroke="#666666" d="M353.57,-1670C353.57,-1670 231.57,-1670 231.57,-1670 225.57,-1670 219.57,-1664 219.57,-1658 219.57,-1658 219.57,-1010 219.57,-1010 219.57,-1004 225.57,-998 231.57,-998 231.57,-998 353.57,-998 353.57,-998 359.57,-998 365.57,-1004 365.57,-1010 365.57,-1010 365.57,-1658 365.57,-1658 365.57,-1664 359.57,-1670 353.57,-1670"/>
<text text-anchor="start" x="276.07" y="-1654" font-family="Helvetica,sans-Serif" font-size="10.00">GTime</text>
<text text-anchor="start" x="231.57" y="-1639" font-family="Helvetica,sans-Serif" font-size="10.00">+</text>
<text text-anchor="start" x="244.57" y="-1639" font-family="Helvetica,sans-Serif" font-size="10.00">cacheN</text>
<text text-anchor="start" x="231.57" y="-1624" font-family="Helvetica,sans-Serif" font-size="10.00">+</text>
<text text-anchor="start" x="244.57" y="-1624" font-family="Helvetica,sans-Serif" font-size="10.00">cacheTime</text>
<text text-anchor="start" x="231.57" y="-1609" font-family="Helvetica,sans-Serif" font-size="10.00">+</text>
<text text-anchor="start" x="244.57" y="-1609" font-family="Helvetica,sans-Serif" font-size="10.00">bigTime</text>
<text text-anchor="start" x="231.57" y="-1594" font-family="Helvetica,sans-Serif" font-size="10.00">+</text>
<text text-anchor="start" x="244.57" y="-1594" font-family="Helvetica,sans-Serif" font-size="10.00">GTime()</text>
<text text-anchor="start" x="231.57" y="-1579" font-family="Helvetica,sans-Serif" font-size="10.00">+</text>
<text text-anchor="start" x="244.57" y="-1579" font-family="Helvetica,sans-Serif" font-size="10.00">GTime()</text>
<text text-anchor="start" x="231.57" y="-1564" font-family="Helvetica,sans-Serif" font-size="10.00">+</text>
<text text-anchor="start" x="244.57" y="-1564" font-family="Helvetica,sans-Serif" font-size="10.00">GTime()</text>
<text text-anchor="start" x="231.57" y="-1549" font-family="Helvetica,sans-Serif" font-size="10.00">+</text>
<text text-anchor="start" x="244.57" y="-1549" font-family="Helvetica,sans-Serif" font-size="10.00">to_string()</text>
<text text-anchor="start" x="231.57" y="-1534" font-family="Helvetica,sans-Serif" font-size="10.00">+</text>
<text text-anchor="start" x="244.57" y="-1534" font-family="Helvetica,sans-Serif" font-size="10.00">to_ISOstring()</text>
<text text-anchor="start" x="231.57" y="-1519" font-family="Helvetica,sans-Serif" font-size="10.00">+</text>
<text text-anchor="start" x="244.57" y="-1519" font-family="Helvetica,sans-Serif" font-size="10.00">to_decYear()</text>
<text text-anchor="start" x="231.57" y="-1504" font-family="Helvetica,sans-Serif" font-size="10.00">+</text>
<text text-anchor="start" x="244.57" y="-1504" font-family="Helvetica,sans-Serif" font-size="10.00">operator==()</text>
<text text-anchor="start" x="231.57" y="-1489" font-family="Helvetica,sans-Serif" font-size="10.00">+</text>
<text text-anchor="start" x="244.57" y="-1489" font-family="Helvetica,sans-Serif" font-size="10.00">operator!=()</text>
<text text-anchor="start" x="231.57" y="-1474" font-family="Helvetica,sans-Serif" font-size="10.00">+</text>
<text text-anchor="start" x="244.57" y="-1474" font-family="Helvetica,sans-Serif" font-size="10.00">operator&lt;()</text>
<text text-anchor="start" x="231.57" y="-1459" font-family="Helvetica,sans-Serif" font-size="10.00">+</text>
<text text-anchor="start" x="244.57" y="-1459" font-family="Helvetica,sans-Serif" font-size="10.00">operator&gt;()</text>
<text text-anchor="start" x="231.57" y="-1444" font-family="Helvetica,sans-Serif" font-size="10.00">+</text>
<text text-anchor="start" x="244.57" y="-1444" font-family="Helvetica,sans-Serif" font-size="10.00">operator&gt;=()</text>
<text text-anchor="start" x="231.57" y="-1429" font-family="Helvetica,sans-Serif" font-size="10.00">+</text>
<text text-anchor="start" x="244.57" y="-1429" font-family="Helvetica,sans-Serif" font-size="10.00">operator+()</text>
<text text-anchor="start" x="231.57" y="-1414" font-family="Helvetica,sans-Serif" font-size="10.00">+</text>
<text text-anchor="start" x="244.57" y="-1414" font-family="Helvetica,sans-Serif" font-size="10.00">operator+()</text>
<text text-anchor="start" x="231.57" y="-1399" font-family="Helvetica,sans-Serif" font-size="10.00">+</text>
<text text-anchor="start" x="244.57" y="-1399" font-family="Helvetica,sans-Serif" font-size="10.00">operator+()</text>
<text text-anchor="start" x="231.57" y="-1384" font-family="Helvetica,sans-Serif" font-size="10.00">+</text>
<text text-anchor="start" x="244.57" y="-1384" font-family="Helvetica,sans-Serif" font-size="10.00">operator+=()</text>
<text text-anchor="start" x="231.57" y="-1369" font-family="Helvetica,sans-Serif" font-size="10.00">+</text>
<text text-anchor="start" x="244.57" y="-1369" font-family="Helvetica,sans-Serif" font-size="10.00">operator&#45;=()</text>
<text text-anchor="start" x="231.57" y="-1354" font-family="Helvetica,sans-Serif" font-size="10.00">+</text>
<text text-anchor="start" x="244.57" y="-1354" font-family="Helvetica,sans-Serif" font-size="10.00">operator&#45;()</text>
<text text-anchor="start" x="231.57" y="-1339" font-family="Helvetica,sans-Serif" font-size="10.00">+</text>
<text text-anchor="start" x="244.57" y="-1339" font-family="Helvetica,sans-Serif" font-size="10.00">operator&#45;()</text>
<text text-anchor="start" x="231.57" y="-1324" font-family="Helvetica,sans-Serif" font-size="10.00">+</text>
<text text-anchor="start" x="244.57" y="-1324" font-family="Helvetica,sans-Serif" font-size="10.00">operator&#45;()</text>
<text text-anchor="start" x="231.57" y="-1309" font-family="Helvetica,sans-Serif" font-size="10.00">+</text>
<text text-anchor="start" x="244.57" y="-1309" font-family="Helvetica,sans-Serif" font-size="10.00">operator++()</text>
<text text-anchor="start" x="231.57" y="-1294" font-family="Helvetica,sans-Serif" font-size="10.00">+</text>
<text text-anchor="start" x="244.57" y="-1294" font-family="Helvetica,sans-Serif" font-size="10.00">GTime()</text>
<text text-anchor="start" x="231.57" y="-1279" font-family="Helvetica,sans-Serif" font-size="10.00">+</text>
<text text-anchor="start" x="244.57" y="-1279" font-family="Helvetica,sans-Serif" font-size="10.00">GTime()</text>
<text text-anchor="start" x="231.57" y="-1264" font-family="Helvetica,sans-Serif" font-size="10.00">+</text>
<text text-anchor="start" x="244.57" y="-1264" font-family="Helvetica,sans-Serif" font-size="10.00">GTime()</text>
<text text-anchor="start" x="231.57" y="-1249" font-family="Helvetica,sans-Serif" font-size="10.00">+</text>
<text text-anchor="start" x="244.57" y="-1249" font-family="Helvetica,sans-Serif" font-size="10.00">GTime()</text>
<text text-anchor="start" x="231.57" y="-1234" font-family="Helvetica,sans-Serif" font-size="10.00">+</text>
<text text-anchor="start" x="244.57" y="-1234" font-family="Helvetica,sans-Serif" font-size="10.00">GTime()</text>
<text text-anchor="start" x="231.57" y="-1219" font-family="Helvetica,sans-Serif" font-size="10.00">+</text>
<text text-anchor="start" x="244.57" y="-1219" font-family="Helvetica,sans-Serif" font-size="10.00">serialize()</text>
<text text-anchor="start" x="231.57" y="-1204" font-family="Helvetica,sans-Serif" font-size="10.00">+</text>
<text text-anchor="start" x="244.57" y="-1204" font-family="Helvetica,sans-Serif" font-size="10.00">floorTime()</text>
<text text-anchor="start" x="231.57" y="-1189" font-family="Helvetica,sans-Serif" font-size="10.00">+</text>
<text text-anchor="start" x="244.57" y="-1189" font-family="Helvetica,sans-Serif" font-size="10.00">gregString()</text>
<text text-anchor="start" x="231.57" y="-1174" font-family="Helvetica,sans-Serif" font-size="10.00">+</text>
<text text-anchor="start" x="244.57" y="-1174" font-family="Helvetica,sans-Serif" font-size="10.00">operator long double()</text>
<text text-anchor="start" x="231.57" y="-1159" font-family="Helvetica,sans-Serif" font-size="10.00">+</text>
<text text-anchor="start" x="244.57" y="-1159" font-family="Helvetica,sans-Serif" font-size="10.00">operator MjDateTT()</text>
<text text-anchor="start" x="231.57" y="-1144" font-family="Helvetica,sans-Serif" font-size="10.00">+</text>
<text text-anchor="start" x="244.57" y="-1144" font-family="Helvetica,sans-Serif" font-size="10.00">operator GEpoch()</text>
<text text-anchor="start" x="231.57" y="-1129" font-family="Helvetica,sans-Serif" font-size="10.00">+</text>
<text text-anchor="start" x="244.57" y="-1129" font-family="Helvetica,sans-Serif" font-size="10.00">operator UtcTime()</text>
<text text-anchor="start" x="231.57" y="-1114" font-family="Helvetica,sans-Serif" font-size="10.00">+</text>
<text text-anchor="start" x="244.57" y="-1114" font-family="Helvetica,sans-Serif" font-size="10.00">operator GWeek()</text>
<text text-anchor="start" x="231.57" y="-1099" font-family="Helvetica,sans-Serif" font-size="10.00">+</text>
<text text-anchor="start" x="244.57" y="-1099" font-family="Helvetica,sans-Serif" font-size="10.00">operator BWeek()</text>
<text text-anchor="start" x="231.57" y="-1084" font-family="Helvetica,sans-Serif" font-size="10.00">+</text>
<text text-anchor="start" x="244.57" y="-1084" font-family="Helvetica,sans-Serif" font-size="10.00">operator GTow()</text>
<text text-anchor="start" x="231.57" y="-1069" font-family="Helvetica,sans-Serif" font-size="10.00">+</text>
<text text-anchor="start" x="244.57" y="-1069" font-family="Helvetica,sans-Serif" font-size="10.00">operator BTow()</text>
<text text-anchor="start" x="231.57" y="-1054" font-family="Helvetica,sans-Serif" font-size="10.00">+</text>
<text text-anchor="start" x="244.57" y="-1054" font-family="Helvetica,sans-Serif" font-size="10.00">operator PTime()</text>
<text text-anchor="start" x="231.57" y="-1039" font-family="Helvetica,sans-Serif" font-size="10.00">+</text>
<text text-anchor="start" x="244.57" y="-1039" font-family="Helvetica,sans-Serif" font-size="10.00">operator string()</text>
<text text-anchor="start" x="231.57" y="-1024" font-family="Helvetica,sans-Serif" font-size="10.00">+</text>
<text text-anchor="start" x="244.57" y="-1024" font-family="Helvetica,sans-Serif" font-size="10.00">operator RTod()</text>
<text text-anchor="start" x="231.57" y="-1009" font-family="Helvetica,sans-Serif" font-size="10.00">+</text>
<text text-anchor="start" x="244.57" y="-1009" font-family="Helvetica,sans-Serif" font-size="10.00">noTime()</text>
<polygon fill="#666666" stroke="#666666" points="227.57,-1649 227.57,-1649 357.57,-1649 357.57,-1649 227.57,-1649"/>
<polygon fill="#666666" stroke="#666666" points="227.57,-1604 227.57,-1604 242.57,-1604 242.57,-1604 227.57,-1604"/>
<polygon fill="#666666" stroke="#666666" points="242.57,-1604 242.57,-1604 357.57,-1604 357.57,-1604 242.57,-1604"/>
<polygon fill="none" stroke="#666666" points="227.57,-1002 227.57,-1666 357.57,-1666 357.57,-1002 227.57,-1002"/>
</a>
</g>
</g>
<!-- Node2&#45;&gt;Node1 -->
<g id="edge1_Node000001_Node000002" class="edge">
<title>Node2&#45;&gt;Node1</title>
<g id="a_edge1_Node000001_Node000002"><a xlink:title=" ">
<path fill="none" stroke="#63b8ff" d="M219.46,-1209.31C179.56,-1136.45 132.69,-1041.15 104.57,-951 76.62,-861.35 80.48,-835.65 73.57,-742 53.57,-470.74 -81.06,-353.77 73.57,-130 116.34,-68.1 205.98,-47.36 264.42,-40.43"/>
<polygon fill="none" stroke="#63b8ff" points="264.46,-40.43 270,-35.81 276.39,-39.15 270.85,-43.77 264.46,-40.43"/>
</a>
</g>
<text text-anchor="middle" x="102.57" y="-763" font-family="Helvetica,sans-Serif" font-size="10.00" fill="grey"> +sppTime</text>
</g>
<!-- Node7 -->
<g id="Node000007" class="node">
<title>Node7</title>
<g id="a_Node000007"><a xlink:href="structKFState__.html" target="_top" xlink:title="Kalman filter object.">
<path fill="#fff0f0" stroke="red" d="M343.07,-936C343.07,-936 192.07,-936 192.07,-936 186.07,-936 180.07,-930 180.07,-924 180.07,-924 180.07,-816 180.07,-816 180.07,-810 186.07,-804 192.07,-804 192.07,-804 343.07,-804 343.07,-804 349.07,-804 355.07,-810 355.07,-816 355.07,-816 355.07,-924 355.07,-924 355.07,-930 349.07,-936 343.07,-936"/>
<text text-anchor="start" x="246.57" y="-920" font-family="Helvetica,sans-Serif" font-size="10.00">KFState_</text>
<text text-anchor="start" x="192.57" y="-905" font-family="Helvetica,sans-Serif" font-size="10.00">+</text>
<text text-anchor="start" x="205.57" y="-905" font-family="Helvetica,sans-Serif" font-size="10.00">lsqRequired</text>
<text text-anchor="start" x="192.57" y="-890" font-family="Helvetica,sans-Serif" font-size="10.00">+</text>
<text text-anchor="start" x="205.57" y="-890" font-family="Helvetica,sans-Serif" font-size="10.00">chiQCPass</text>
<text text-anchor="start" x="192.57" y="-875" font-family="Helvetica,sans-Serif" font-size="10.00">+</text>
<text text-anchor="start" x="205.57" y="-875" font-family="Helvetica,sans-Serif" font-size="10.00">chi</text>
<text text-anchor="start" x="192.57" y="-860" font-family="Helvetica,sans-Serif" font-size="10.00">+</text>
<text text-anchor="start" x="205.57" y="-860" font-family="Helvetica,sans-Serif" font-size="10.00">dof</text>
<text text-anchor="start" x="192.57" y="-845" font-family="Helvetica,sans-Serif" font-size="10.00">+</text>
<text text-anchor="start" x="205.57" y="-845" font-family="Helvetica,sans-Serif" font-size="10.00">output_residuals</text>
<text text-anchor="start" x="192.57" y="-830" font-family="Helvetica,sans-Serif" font-size="10.00">+</text>
<text text-anchor="start" x="205.57" y="-830" font-family="Helvetica,sans-Serif" font-size="10.00">outputMongoMeasurements</text>
<text text-anchor="start" x="266.07" y="-815" font-family="Helvetica,sans-Serif" font-size="10.00"> </text>
<polygon fill="red" stroke="red" points="188.57,-915 188.57,-915 347.57,-915 347.57,-915 188.57,-915"/>
<polygon fill="red" stroke="red" points="188.57,-825 188.57,-825 203.57,-825 203.57,-825 188.57,-825"/>
<polygon fill="red" stroke="red" points="203.57,-825 203.57,-825 347.57,-825 347.57,-825 203.57,-825"/>
<polygon fill="none" stroke="red" points="188.07,-808 188.07,-932 347.07,-932 347.07,-808 188.07,-808"/>
</a>
</g>
</g>
<!-- Node2&#45;&gt;Node7 -->
<g id="edge7_Node000007_Node000002" class="edge">
<title>Node2&#45;&gt;Node7</title>
<g id="a_edge7_Node000007_Node000002"><a xlink:title=" ">
<path fill="none" stroke="#63b8ff" d="M269.3,-997.64C269.04,-991.72 268.8,-985.83 268.57,-980 268.18,-969.81 267.91,-959.07 267.72,-948.48"/>
<polygon fill="none" stroke="#63b8ff" points="267.72,-948.14 263.63,-942.2 267.55,-936.15 271.63,-942.09 267.72,-948.14"/>
</a>
</g>
<text text-anchor="middle" x="285.57" y="-972" font-family="Helvetica,sans-Serif" font-size="10.00" fill="grey"> +time</text>
</g>
<!-- Node28 -->
<g id="Node000028" class="node">
<title>Node28</title>
<g id="a_Node000028"><a xlink:href="structKFKey.html" target="_top" xlink:title="Keys used to interface with Kalman filter objects.">
<path fill="#fff0f0" stroke="red" d="M605.07,-951C605.07,-951 512.07,-951 512.07,-951 506.07,-951 500.07,-945 500.07,-939 500.07,-939 500.07,-801 500.07,-801 500.07,-795 506.07,-789 512.07,-789 512.07,-789 605.07,-789 605.07,-789 611.07,-789 617.07,-795 617.07,-801 617.07,-801 617.07,-939 617.07,-939 617.07,-945 611.07,-951 605.07,-951"/>
<text text-anchor="start" x="543.57" y="-935" font-family="Helvetica,sans-Serif" font-size="10.00">KFKey</text>
<text text-anchor="start" x="512.57" y="-920" font-family="Helvetica,sans-Serif" font-size="10.00">+</text>
<text text-anchor="start" x="525.57" y="-920" font-family="Helvetica,sans-Serif" font-size="10.00">type</text>
<text text-anchor="start" x="512.57" y="-905" font-family="Helvetica,sans-Serif" font-size="10.00">+</text>
<text text-anchor="start" x="525.57" y="-905" font-family="Helvetica,sans-Serif" font-size="10.00">num</text>
<text text-anchor="start" x="512.57" y="-890" font-family="Helvetica,sans-Serif" font-size="10.00">+</text>
<text text-anchor="start" x="525.57" y="-890" font-family="Helvetica,sans-Serif" font-size="10.00">operator!=()</text>
<text text-anchor="start" x="512.57" y="-875" font-family="Helvetica,sans-Serif" font-size="10.00">+</text>
<text text-anchor="start" x="525.57" y="-875" font-family="Helvetica,sans-Serif" font-size="10.00">operator==()</text>
<text text-anchor="start" x="512.57" y="-860" font-family="Helvetica,sans-Serif" font-size="10.00">+</text>
<text text-anchor="start" x="525.57" y="-860" font-family="Helvetica,sans-Serif" font-size="10.00">operator&lt;()</text>
<text text-anchor="start" x="512.57" y="-845" font-family="Helvetica,sans-Serif" font-size="10.00">+</text>
<text text-anchor="start" x="525.57" y="-845" font-family="Helvetica,sans-Serif" font-size="10.00">operator string()</text>
<text text-anchor="start" x="512.57" y="-830" font-family="Helvetica,sans-Serif" font-size="10.00">+</text>
<text text-anchor="start" x="525.57" y="-830" font-family="Helvetica,sans-Serif" font-size="10.00">commaString()</text>
<text text-anchor="start" x="512.57" y="-815" font-family="Helvetica,sans-Serif" font-size="10.00">+</text>
<text text-anchor="start" x="525.57" y="-815" font-family="Helvetica,sans-Serif" font-size="10.00">serialize()</text>
<text text-anchor="start" x="512.57" y="-800" font-family="Helvetica,sans-Serif" font-size="10.00">+</text>
<text text-anchor="start" x="525.57" y="-800" font-family="Helvetica,sans-Serif" font-size="10.00">emptyString()</text>
<polygon fill="red" stroke="red" points="508.57,-930 508.57,-930 609.57,-930 609.57,-930 508.57,-930"/>
<polygon fill="red" stroke="red" points="508.57,-900 508.57,-900 523.57,-900 523.57,-900 508.57,-900"/>
<polygon fill="red" stroke="red" points="523.57,-900 523.57,-900 609.57,-900 609.57,-900 523.57,-900"/>
<polygon fill="none" stroke="red" points="508.07,-793 508.07,-947 609.07,-947 609.07,-793 508.07,-793"/>
</a>
</g>
</g>
<!-- Node2&#45;&gt;Node28 -->
<g id="edge13_Node000028_Node000002" class="edge">
<title>Node2&#45;&gt;Node28</title>
<g id="a_edge13_Node000028_Node000002"><a xlink:title=" ">
<path fill="none" stroke="#63b8ff" d="M365.73,-1058.41C376.68,-1036.99 389.22,-1016.53 403.57,-998 418.15,-979.19 427.56,-980.17 448.57,-969 463.84,-960.88 471.71,-962.28 489.41,-950.94"/>
<polygon fill="none" stroke="#63b8ff" points="489.85,-950.63 492.45,-943.91 499.66,-943.73 497.05,-950.45 489.85,-950.63"/>
</a>
</g>
<text text-anchor="middle" x="491.57" y="-972" font-family="Helvetica,sans-Serif" font-size="10.00" fill="grey"> +estimatedTime</text>
</g>
<!-- Node3 -->
<g id="Node000003" class="node">
<title>Node3</title>
<g id="a_Node000003"><a xlink:title=" ">
<path fill="white" stroke="#666666" d="M440.57,-1774C440.57,-1774 410.57,-1774 410.57,-1774 404.57,-1774 398.57,-1768 398.57,-1762 398.57,-1762 398.57,-1729 398.57,-1729 398.57,-1723 404.57,-1717 410.57,-1717 410.57,-1717 440.57,-1717 440.57,-1717 446.57,-1717 452.57,-1723 452.57,-1729 452.57,-1729 452.57,-1762 452.57,-1762 452.57,-1768 446.57,-1774 440.57,-1774"/>
<text text-anchor="start" x="411.57" y="-1757.5" font-family="Helvetica,sans-Serif" font-size="10.00">string</text>
<text text-anchor="start" x="423.57" y="-1742.5" font-family="Helvetica,sans-Serif" font-size="10.00"> </text>
<text text-anchor="start" x="423.57" y="-1727.5" font-family="Helvetica,sans-Serif" font-size="10.00"> </text>
<polygon fill="#666666" stroke="#666666" points="406.57,-1752.5 406.57,-1752.5 444.57,-1752.5 444.57,-1752.5 406.57,-1752.5"/>
<polygon fill="#666666" stroke="#666666" points="406.57,-1737.5 406.57,-1737.5 444.57,-1737.5 444.57,-1737.5 406.57,-1737.5"/>
<polygon fill="none" stroke="#666666" points="406.57,-1721 406.57,-1770 444.57,-1770 444.57,-1721 406.57,-1721"/>
</a>
</g>
</g>
<!-- Node3&#45;&gt;Node2 -->
<g id="edge2_Node000002_Node000003" class="edge">
<title>Node3&#45;&gt;Node2</title>
<g id="a_edge2_Node000002_Node000003"><a xlink:title=" ">
<path fill="none" stroke="#63b8ff" d="M398.33,-1736.76C379.56,-1729.95 355.71,-1718.08 342.57,-1699 338.52,-1693.11 334.72,-1687.04 331.17,-1680.81"/>
<polygon fill="none" stroke="#63b8ff" points="331.13,-1680.74 324.76,-1677.37 325.42,-1670.19 331.8,-1673.56 331.13,-1680.74"/>
</a>
</g>
<text text-anchor="middle" x="377.07" y="-1691" font-family="Helvetica,sans-Serif" font-size="10.00" fill="grey"> +cacheString</text>
</g>
<!-- Node3&#45;&gt;Node7 -->
<g id="edge8_Node000007_Node000003" class="edge">
<title>Node3&#45;&gt;Node7</title>
<g id="a_edge8_Node000007_Node000003"><a xlink:title=" ">
<path fill="none" stroke="#63b8ff" d="M425.49,-1716.6C425.06,-1579.67 422.52,-984.61 411.57,-969 398.73,-950.69 383.9,-962.26 364.57,-951 360.28,-948.5 355.98,-945.8 351.71,-942.98"/>
<polygon fill="none" stroke="#63b8ff" points="351.7,-942.97 344.49,-942.86 341.82,-936.16 349.03,-936.27 351.7,-942.97"/>
</a>
</g>
<text text-anchor="middle" x="463.57" y="-1337" font-family="Helvetica,sans-Serif" font-size="10.00" fill="grey"> +id</text>
<text text-anchor="middle" x="463.57" y="-1326" font-family="Helvetica,sans-Serif" font-size="10.00" fill="grey">+rts_basename</text>
</g>
<!-- Node3&#45;&gt;Node28 -->
<g id="edge12_Node000028_Node000003" class="edge">
<title>Node3&#45;&gt;Node28</title>
<g id="a_edge12_Node000028_Node000003"><a xlink:title=" ">
<path fill="none" stroke="#63b8ff" d="M452.83,-1727.98C471.8,-1714.84 495.73,-1694.61 507.57,-1670 620.17,-1436.01 595.59,-1118.04 574.08,-963.26"/>
<polygon fill="none" stroke="#63b8ff" points="574.04,-962.93 569.23,-957.55 572.35,-951.05 577.15,-956.42 574.04,-962.93"/>
</a>
</g>
<text text-anchor="middle" x="620.57" y="-1337" font-family="Helvetica,sans-Serif" font-size="10.00" fill="grey"> +comment</text>
<text text-anchor="middle" x="620.57" y="-1326" font-family="Helvetica,sans-Serif" font-size="10.00" fill="grey">+str</text>
</g>
<!-- Node4 -->
<g id="Node000004" class="node">
<title>Node4</title>
<g id="a_Node000004"><a xlink:title=" ">
<path fill="white" stroke="#666666" d="M208.57,-464.5C208.57,-464.5 94.57,-464.5 94.57,-464.5 88.57,-464.5 82.57,-458.5 82.57,-452.5 82.57,-452.5 82.57,-419.5 82.57,-419.5 82.57,-413.5 88.57,-407.5 94.57,-407.5 94.57,-407.5 208.57,-407.5 208.57,-407.5 214.57,-407.5 220.57,-413.5 220.57,-419.5 220.57,-419.5 220.57,-452.5 220.57,-452.5 220.57,-458.5 214.57,-464.5 208.57,-464.5"/>
<text text-anchor="start" x="95.57" y="-448" font-family="Helvetica,sans-Serif" font-size="10.00">map&lt; E_Sys, double &gt;</text>
<text text-anchor="start" x="149.57" y="-433" font-family="Helvetica,sans-Serif" font-size="10.00"> </text>
<text text-anchor="start" x="149.57" y="-418" font-family="Helvetica,sans-Serif" font-size="10.00"> </text>
<polygon fill="#666666" stroke="#666666" points="90.57,-443 90.57,-443 212.57,-443 212.57,-443 90.57,-443"/>
<polygon fill="#666666" stroke="#666666" points="90.57,-428 90.57,-428 212.57,-428 212.57,-428 90.57,-428"/>
<polygon fill="none" stroke="#666666" points="90.57,-411.5 90.57,-460.5 212.57,-460.5 212.57,-411.5 90.57,-411.5"/>
</a>
</g>
</g>
<!-- Node4&#45;&gt;Node1 -->
<g id="edge3_Node000001_Node000004" class="edge">
<title>Node4&#45;&gt;Node1</title>
<g id="a_edge3_Node000001_Node000004"><a xlink:title=" ">
<path fill="none" stroke="#63b8ff" d="M148.87,-407.17C144.23,-344.02 141.48,-187.77 214.57,-90 227.14,-73.19 246.53,-61.34 265.25,-53.17"/>
<polygon fill="none" stroke="#63b8ff" points="265.31,-53.15 269.38,-47.2 276.44,-48.66 272.37,-54.62 265.31,-53.15"/>
</a>
</g>
<text text-anchor="middle" x="265.07" y="-104" font-family="Helvetica,sans-Serif" font-size="10.00" fill="grey"> +dtRec_m</text>
<text text-anchor="middle" x="265.07" y="-93" font-family="Helvetica,sans-Serif" font-size="10.00" fill="grey">+dtRec_m_pppp_old</text>
</g>
<!-- Node5 -->
<g id="Node000005" class="node">
<title>Node5</title>
<g id="a_Node000005"><a xlink:title=" ">
<path fill="white" stroke="#666666" d="M149.57,-898.5C149.57,-898.5 125.57,-898.5 125.57,-898.5 119.57,-898.5 113.57,-892.5 113.57,-886.5 113.57,-886.5 113.57,-853.5 113.57,-853.5 113.57,-847.5 119.57,-841.5 125.57,-841.5 125.57,-841.5 149.57,-841.5 149.57,-841.5 155.57,-841.5 161.57,-847.5 161.57,-853.5 161.57,-853.5 161.57,-886.5 161.57,-886.5 161.57,-892.5 155.57,-898.5 149.57,-898.5"/>
<text text-anchor="start" x="126.57" y="-882" font-family="Helvetica,sans-Serif" font-size="10.00">map</text>
<text text-anchor="start" x="135.57" y="-867" font-family="Helvetica,sans-Serif" font-size="10.00"> </text>
<text text-anchor="start" x="135.57" y="-852" font-family="Helvetica,sans-Serif" font-size="10.00"> </text>
<polygon fill="#666666" stroke="#666666" points="121.57,-877 121.57,-877 153.57,-877 153.57,-877 121.57,-877"/>
<polygon fill="#666666" stroke="#666666" points="121.57,-862 121.57,-862 153.57,-862 153.57,-862 121.57,-862"/>
<polygon fill="none" stroke="#666666" points="121.57,-845.5 121.57,-894.5 153.57,-894.5 153.57,-845.5 121.57,-845.5"/>
</a>
</g>
</g>
<!-- Node5&#45;&gt;Node4 -->
<g id="edge4_Node000004_Node000005" class="edge">
<title>Node5&#45;&gt;Node4</title>
<g id="a_edge4_Node000004_Node000005"><a xlink:title=" ">
<path fill="none" stroke="orange" d="M138.8,-831.29C141.56,-745.94 148.25,-539.6 150.67,-464.73"/>
<polygon fill="orange" stroke="orange" points="135.3,-831.21 138.47,-841.32 142.29,-831.44 135.3,-831.21"/>
</a>
</g>
<text text-anchor="middle" x="188.57" y="-763" font-family="Helvetica,sans-Serif" font-size="10.00" fill="grey"> &lt; E_Sys, double &gt;</text>
</g>
<!-- Node6 -->
<g id="Node000006" class="node">
<title>Node6</title>
<g id="a_Node000006"><a xlink:href="structKFState.html" target="_top" xlink:title="Wrapper to simplify copying with default copy but overriding slightly.">
<path fill="white" stroke="#666666" d="M388.57,-742C388.57,-742 250.57,-742 250.57,-742 244.57,-742 238.57,-736 238.57,-730 238.57,-730 238.57,-142 238.57,-142 238.57,-136 244.57,-130 250.57,-130 250.57,-130 388.57,-130 388.57,-130 394.57,-130 400.57,-136 400.57,-142 400.57,-142 400.57,-730 400.57,-730 400.57,-736 394.57,-742 388.57,-742"/>
<text text-anchor="start" x="300.57" y="-726" font-family="Helvetica,sans-Serif" font-size="10.00">KFState</text>
<text text-anchor="start" x="317.57" y="-711" font-family="Helvetica,sans-Serif" font-size="10.00"> </text>
<text text-anchor="start" x="250.57" y="-696" font-family="Helvetica,sans-Serif" font-size="10.00">+</text>
<text text-anchor="start" x="263.57" y="-696" font-family="Helvetica,sans-Serif" font-size="10.00">KFState()</text>
<text text-anchor="start" x="250.57" y="-681" font-family="Helvetica,sans-Serif" font-size="10.00">+</text>
<text text-anchor="start" x="263.57" y="-681" font-family="Helvetica,sans-Serif" font-size="10.00">KFState()</text>
<text text-anchor="start" x="250.57" y="-666" font-family="Helvetica,sans-Serif" font-size="10.00">+</text>
<text text-anchor="start" x="263.57" y="-666" font-family="Helvetica,sans-Serif" font-size="10.00">operator=()</text>
<text text-anchor="start" x="250.57" y="-651" font-family="Helvetica,sans-Serif" font-size="10.00">+</text>
<text text-anchor="start" x="263.57" y="-651" font-family="Helvetica,sans-Serif" font-size="10.00">serialize()</text>
<text text-anchor="start" x="250.57" y="-636" font-family="Helvetica,sans-Serif" font-size="10.00">+</text>
<text text-anchor="start" x="263.57" y="-636" font-family="Helvetica,sans-Serif" font-size="10.00">initFilterEpoch()</text>
<text text-anchor="start" x="250.57" y="-621" font-family="Helvetica,sans-Serif" font-size="10.00">+</text>
<text text-anchor="start" x="263.57" y="-621" font-family="Helvetica,sans-Serif" font-size="10.00">getKFIndex()</text>
<text text-anchor="start" x="250.57" y="-606" font-family="Helvetica,sans-Serif" font-size="10.00">+</text>
<text text-anchor="start" x="263.57" y="-606" font-family="Helvetica,sans-Serif" font-size="10.00">getKFValue()</text>
<text text-anchor="start" x="250.57" y="-591" font-family="Helvetica,sans-Serif" font-size="10.00">+</text>
<text text-anchor="start" x="263.57" y="-591" font-family="Helvetica,sans-Serif" font-size="10.00">getPseudoValue()</text>
<text text-anchor="start" x="250.57" y="-576" font-family="Helvetica,sans-Serif" font-size="10.00">+</text>
<text text-anchor="start" x="263.57" y="-576" font-family="Helvetica,sans-Serif" font-size="10.00">getKFSigma()</text>
<text text-anchor="start" x="250.57" y="-561" font-family="Helvetica,sans-Serif" font-size="10.00">+</text>
<text text-anchor="start" x="263.57" y="-561" font-family="Helvetica,sans-Serif" font-size="10.00">addKFState()</text>
<text text-anchor="start" x="250.57" y="-546" font-family="Helvetica,sans-Serif" font-size="10.00">+</text>
<text text-anchor="start" x="263.57" y="-546" font-family="Helvetica,sans-Serif" font-size="10.00">addPseudoState()</text>
<text text-anchor="start" x="250.57" y="-531" font-family="Helvetica,sans-Serif" font-size="10.00">+</text>
<text text-anchor="start" x="263.57" y="-531" font-family="Helvetica,sans-Serif" font-size="10.00">setExponentialNoise()</text>
<text text-anchor="start" x="250.57" y="-516" font-family="Helvetica,sans-Serif" font-size="10.00">+</text>
<text text-anchor="start" x="263.57" y="-516" font-family="Helvetica,sans-Serif" font-size="10.00">setAccelerator()</text>
<text text-anchor="start" x="250.57" y="-501" font-family="Helvetica,sans-Serif" font-size="10.00">+</text>
<text text-anchor="start" x="263.57" y="-501" font-family="Helvetica,sans-Serif" font-size="10.00">setKFTrans()</text>
<text text-anchor="start" x="250.57" y="-486" font-family="Helvetica,sans-Serif" font-size="10.00">+</text>
<text text-anchor="start" x="263.57" y="-486" font-family="Helvetica,sans-Serif" font-size="10.00">setKFTransRate()</text>
<text text-anchor="start" x="250.57" y="-471" font-family="Helvetica,sans-Serif" font-size="10.00">+</text>
<text text-anchor="start" x="263.57" y="-471" font-family="Helvetica,sans-Serif" font-size="10.00">addNoiseElement()</text>
<text text-anchor="start" x="250.57" y="-456" font-family="Helvetica,sans-Serif" font-size="10.00">+</text>
<text text-anchor="start" x="263.57" y="-456" font-family="Helvetica,sans-Serif" font-size="10.00">removeState()</text>
<text text-anchor="start" x="250.57" y="-441" font-family="Helvetica,sans-Serif" font-size="10.00">+</text>
<text text-anchor="start" x="263.57" y="-441" font-family="Helvetica,sans-Serif" font-size="10.00">stateTransition()</text>
<text text-anchor="start" x="250.57" y="-426" font-family="Helvetica,sans-Serif" font-size="10.00">+</text>
<text text-anchor="start" x="263.57" y="-426" font-family="Helvetica,sans-Serif" font-size="10.00">manualStateTransition()</text>
<text text-anchor="start" x="250.57" y="-411" font-family="Helvetica,sans-Serif" font-size="10.00">+</text>
<text text-anchor="start" x="263.57" y="-411" font-family="Helvetica,sans-Serif" font-size="10.00">preFitSigmaCheck()</text>
<text text-anchor="start" x="250.57" y="-396" font-family="Helvetica,sans-Serif" font-size="10.00">+</text>
<text text-anchor="start" x="263.57" y="-396" font-family="Helvetica,sans-Serif" font-size="10.00">postFitSigmaChecks()</text>
<text text-anchor="start" x="250.57" y="-381" font-family="Helvetica,sans-Serif" font-size="10.00">+</text>
<text text-anchor="start" x="263.57" y="-381" font-family="Helvetica,sans-Serif" font-size="10.00">stateChiSquare()</text>
<text text-anchor="start" x="250.57" y="-366" font-family="Helvetica,sans-Serif" font-size="10.00">+</text>
<text text-anchor="start" x="263.57" y="-366" font-family="Helvetica,sans-Serif" font-size="10.00">measChiSquare()</text>
<text text-anchor="start" x="250.57" y="-351" font-family="Helvetica,sans-Serif" font-size="10.00">+</text>
<text text-anchor="start" x="263.57" y="-351" font-family="Helvetica,sans-Serif" font-size="10.00">innovChiSquare()</text>
<text text-anchor="start" x="250.57" y="-336" font-family="Helvetica,sans-Serif" font-size="10.00">+</text>
<text text-anchor="start" x="263.57" y="-336" font-family="Helvetica,sans-Serif" font-size="10.00">kFilter()</text>
<text text-anchor="start" x="250.57" y="-321" font-family="Helvetica,sans-Serif" font-size="10.00">+</text>
<text text-anchor="start" x="263.57" y="-321" font-family="Helvetica,sans-Serif" font-size="10.00">chiQC()</text>
<text text-anchor="start" x="250.57" y="-306" font-family="Helvetica,sans-Serif" font-size="10.00">+</text>
<text text-anchor="start" x="263.57" y="-306" font-family="Helvetica,sans-Serif" font-size="10.00">outputStates()</text>
<text text-anchor="start" x="250.57" y="-291" font-family="Helvetica,sans-Serif" font-size="10.00">+</text>
<text text-anchor="start" x="263.57" y="-291" font-family="Helvetica,sans-Serif" font-size="10.00">outputConditionNumber()</text>
<text text-anchor="start" x="250.57" y="-276" font-family="Helvetica,sans-Serif" font-size="10.00">+</text>
<text text-anchor="start" x="263.57" y="-276" font-family="Helvetica,sans-Serif" font-size="10.00">outputCorrelations()</text>
<text text-anchor="start" x="250.57" y="-261" font-family="Helvetica,sans-Serif" font-size="10.00">+</text>
<text text-anchor="start" x="263.57" y="-261" font-family="Helvetica,sans-Serif" font-size="10.00">outputMeasurements()</text>
<text text-anchor="start" x="250.57" y="-246" font-family="Helvetica,sans-Serif" font-size="10.00">+</text>
<text text-anchor="start" x="263.57" y="-246" font-family="Helvetica,sans-Serif" font-size="10.00">doStateRejectCallbacks()</text>
<text text-anchor="start" x="250.57" y="-231" font-family="Helvetica,sans-Serif" font-size="10.00">+</text>
<text text-anchor="start" x="263.57" y="-231" font-family="Helvetica,sans-Serif" font-size="10.00">doMeasRejectCallbacks()</text>
<text text-anchor="start" x="250.57" y="-216" font-family="Helvetica,sans-Serif" font-size="10.00">+</text>
<text text-anchor="start" x="263.57" y="-216" font-family="Helvetica,sans-Serif" font-size="10.00">filterKalman()</text>
<text text-anchor="start" x="250.57" y="-201" font-family="Helvetica,sans-Serif" font-size="10.00">+</text>
<text text-anchor="start" x="263.57" y="-201" font-family="Helvetica,sans-Serif" font-size="10.00">leastSquareInitStates()</text>
<text text-anchor="start" x="250.57" y="-186" font-family="Helvetica,sans-Serif" font-size="10.00">+</text>
<text text-anchor="start" x="263.57" y="-186" font-family="Helvetica,sans-Serif" font-size="10.00">getSubState()</text>
<text text-anchor="start" x="250.57" y="-171" font-family="Helvetica,sans-Serif" font-size="10.00">+</text>
<text text-anchor="start" x="263.57" y="-171" font-family="Helvetica,sans-Serif" font-size="10.00">getSubState()</text>
<text text-anchor="start" x="250.57" y="-156" font-family="Helvetica,sans-Serif" font-size="10.00">+</text>
<text text-anchor="start" x="263.57" y="-156" font-family="Helvetica,sans-Serif" font-size="10.00">getSubState()</text>
<text text-anchor="start" x="250.57" y="-141" font-family="Helvetica,sans-Serif" font-size="10.00">+</text>
<text text-anchor="start" x="263.57" y="-141" font-family="Helvetica,sans-Serif" font-size="10.00">decomposedStateKeys()</text>
<polygon fill="#666666" stroke="#666666" points="246.57,-721 246.57,-721 392.57,-721 392.57,-721 246.57,-721"/>
<polygon fill="#666666" stroke="#666666" points="246.57,-706 246.57,-706 392.57,-706 392.57,-706 246.57,-706"/>
<polygon fill="none" stroke="#666666" points="246.57,-134 246.57,-738 392.57,-738 392.57,-134 246.57,-134"/>
</a>
</g>
</g>
<!-- Node6&#45;&gt;Node1 -->
<g id="edge5_Node000001_Node000006" class="edge">
<title>Node6&#45;&gt;Node1</title>
<g id="a_edge5_Node000001_Node000006"><a xlink:title=" ">
<path fill="none" stroke="#63b8ff" d="M319.57,-129.81C319.57,-113.13 319.57,-97.87 319.57,-84.74"/>
<polygon fill="none" stroke="#63b8ff" points="319.57,-84.35 315.57,-78.35 319.57,-72.35 323.57,-78.35 319.57,-84.35"/>
</a>
</g>
<text text-anchor="middle" x="347.07" y="-98.5" font-family="Helvetica,sans-Serif" font-size="10.00" fill="grey"> +sppState</text>
</g>
<!-- Node6&#45;&gt;Node7 -->
<g id="edge9_Node000007_Node000006" class="edge">
<title>Node6&#45;&gt;Node7</title>
<g id="a_edge9_Node000007_Node000006"><a xlink:title=" ">
<path fill="none" stroke="#63b8ff" d="M289.54,-742.02C288.25,-751.8 286.93,-761.48 285.57,-771 284.6,-777.8 283.5,-784.85 282.33,-791.91"/>
<polygon fill="none" stroke="#63b8ff" points="282.33,-791.92 285.26,-798.51 280.31,-803.75 277.38,-797.17 282.33,-791.92"/>
</a>
</g>
<text text-anchor="middle" x="324.07" y="-763" font-family="Helvetica,sans-Serif" font-size="10.00" fill="grey"> +alternate_ptr</text>
</g>
<!-- Node7&#45;&gt;Node6 -->
<g id="edge6_Node000006_Node000007" class="edge">
<title>Node7&#45;&gt;Node6</title>
<g id="a_edge6_Node000006_Node000007"><a xlink:title=" ">
<path fill="none" stroke="#63b8ff" d="M276.62,-793.81C278.51,-778.11 280.61,-760.67 282.84,-742.16"/>
<polygon fill="none" stroke="#63b8ff" points="273.13,-793.51 275.41,-803.86 280.08,-794.35 273.13,-793.51"/>
</a>
</g>
</g>
<!-- Node27 -->
<g id="Node000027" class="node">
<title>Node27</title>
<g id="a_Node000027"><a xlink:title=" ">
<path fill="white" stroke="#666666" d="M469.57,-898.5C469.57,-898.5 385.57,-898.5 385.57,-898.5 379.57,-898.5 373.57,-892.5 373.57,-886.5 373.57,-886.5 373.57,-853.5 373.57,-853.5 373.57,-847.5 379.57,-841.5 385.57,-841.5 385.57,-841.5 469.57,-841.5 469.57,-841.5 475.57,-841.5 481.57,-847.5 481.57,-853.5 481.57,-853.5 481.57,-886.5 481.57,-886.5 481.57,-892.5 475.57,-898.5 469.57,-898.5"/>
<text text-anchor="start" x="386.57" y="-882" font-family="Helvetica,sans-Serif" font-size="10.00">recursive_mutex</text>
<text text-anchor="start" x="425.57" y="-867" font-family="Helvetica,sans-Serif" font-size="10.00"> </text>
<text text-anchor="start" x="425.57" y="-852" font-family="Helvetica,sans-Serif" font-size="10.00"> </text>
<polygon fill="#666666" stroke="#666666" points="381.57,-877 381.57,-877 473.57,-877 473.57,-877 381.57,-877"/>
<polygon fill="#666666" stroke="#666666" points="381.57,-862 381.57,-862 473.57,-862 473.57,-862 381.57,-862"/>
<polygon fill="none" stroke="#666666" points="381.57,-845.5 381.57,-894.5 473.57,-894.5 473.57,-845.5 381.57,-845.5"/>
</a>
</g>
</g>
<!-- Node27&#45;&gt;Node6 -->
<g id="edge10_Node000006_Node000027" class="edge">
<title>Node27&#45;&gt;Node6</title>
<g id="a_edge10_Node000006_Node000027"><a xlink:title=" ">
<path fill="none" stroke="#63b8ff" d="M420.65,-841.32C415.47,-820.57 407.75,-789.69 398.85,-754.09"/>
<polygon fill="none" stroke="#63b8ff" points="398.83,-754.01 393.49,-749.16 395.92,-742.37 401.25,-747.22 398.83,-754.01"/>
</a>
</g>
<text text-anchor="middle" x="439.57" y="-763" font-family="Helvetica,sans-Serif" font-size="10.00" fill="grey"> +kfStateMutex</text>
</g>
<!-- Node28&#45;&gt;Node6 -->
<g id="edge11_Node000006_Node000028" class="edge">
<title>Node28&#45;&gt;Node6</title>
<g id="a_edge11_Node000006_Node000028"><a xlink:title=" ">
<path fill="none" stroke="#63b8ff" d="M513.21,-788.94C504.22,-777.99 493.98,-767.84 482.57,-760 455.03,-741.08 433.73,-765.09 409.57,-742 409.38,-741.82 409.19,-741.63 408.99,-741.44"/>
<polygon fill="none" stroke="#63b8ff" points="408.98,-741.43 401.93,-739.93 400.61,-732.84 407.66,-734.34 408.98,-741.43"/>
</a>
</g>
<text text-anchor="middle" x="517.57" y="-763" font-family="Helvetica,sans-Serif" font-size="10.00" fill="grey"> +oneKey</text>
</g>
<!-- Node59 -->
<g id="Node000059" class="node">
<title>Node59</title>
<g id="a_Node000059"><a xlink:href="structDops.html" target="_top" xlink:title=" ">
<path fill="white" stroke="#666666" d="M468.57,-487C468.57,-487 430.57,-487 430.57,-487 424.57,-487 418.57,-481 418.57,-475 418.57,-475 418.57,-397 418.57,-397 418.57,-391 424.57,-385 430.57,-385 430.57,-385 468.57,-385 468.57,-385 474.57,-385 480.57,-391 480.57,-397 480.57,-397 480.57,-475 480.57,-475 480.57,-481 474.57,-487 468.57,-487"/>
<text text-anchor="start" x="437.07" y="-471" font-family="Helvetica,sans-Serif" font-size="10.00">Dops</text>
<text text-anchor="start" x="430.57" y="-456" font-family="Helvetica,sans-Serif" font-size="10.00">+</text>
<text text-anchor="start" x="443.57" y="-456" font-family="Helvetica,sans-Serif" font-size="10.00">gdop</text>
<text text-anchor="start" x="430.57" y="-441" font-family="Helvetica,sans-Serif" font-size="10.00">+</text>
<text text-anchor="start" x="443.57" y="-441" font-family="Helvetica,sans-Serif" font-size="10.00">pdop</text>
<text text-anchor="start" x="430.57" y="-426" font-family="Helvetica,sans-Serif" font-size="10.00">+</text>
<text text-anchor="start" x="443.57" y="-426" font-family="Helvetica,sans-Serif" font-size="10.00">hdop</text>
<text text-anchor="start" x="430.57" y="-411" font-family="Helvetica,sans-Serif" font-size="10.00">+</text>
<text text-anchor="start" x="443.57" y="-411" font-family="Helvetica,sans-Serif" font-size="10.00">vdop</text>
<text text-anchor="start" x="447.57" y="-396" font-family="Helvetica,sans-Serif" font-size="10.00"> </text>
<polygon fill="#666666" stroke="#666666" points="426.57,-466 426.57,-466 472.57,-466 472.57,-466 426.57,-466"/>
<polygon fill="#666666" stroke="#666666" points="426.57,-406 426.57,-406 441.57,-406 441.57,-406 426.57,-406"/>
<polygon fill="#666666" stroke="#666666" points="441.57,-406 441.57,-406 472.57,-406 472.57,-406 441.57,-406"/>
<polygon fill="none" stroke="#666666" points="426.57,-389 426.57,-483 472.57,-483 472.57,-389 426.57,-389"/>
</a>
</g>
</g>
<!-- Node59&#45;&gt;Node1 -->
<g id="edge14_Node000001_Node000059" class="edge">
<title>Node59&#45;&gt;Node1</title>
<g id="a_edge14_Node000001_Node000059"><a xlink:title=" ">
<path fill="none" stroke="#63b8ff" d="M450.89,-384.88C450.78,-322.69 444.81,-214.54 409.57,-130 401.34,-110.24 386.76,-92.3 371.71,-77.57"/>
<polygon fill="none" stroke="#63b8ff" points="371.6,-77.47 364.49,-76.29 362.83,-69.28 369.95,-70.45 371.6,-77.47"/>
</a>
</g>
<text text-anchor="middle" x="417.07" y="-98.5" font-family="Helvetica,sans-Serif" font-size="10.00" fill="grey"> +dops</text>
</g>
<!-- Node40 -->
<g id="Node000040" class="node">
<title>Node40</title>
<g id="a_Node000040"><a xlink:href="structVectorEcef.html" target="_top" xlink:title=" ">
<path fill="#fff0f0" stroke="red" d="M584.07,-502C584.07,-502 511.07,-502 511.07,-502 505.07,-502 499.07,-496 499.07,-490 499.07,-490 499.07,-382 499.07,-382 499.07,-376 505.07,-370 511.07,-370 511.07,-370 584.07,-370 584.07,-370 590.07,-370 596.07,-376 596.07,-382 596.07,-382 596.07,-490 596.07,-490 596.07,-496 590.07,-502 584.07,-502"/>
<text text-anchor="start" x="522.07" y="-486" font-family="Helvetica,sans-Serif" font-size="10.00">VectorEcef</text>
<text text-anchor="start" x="546.07" y="-471" font-family="Helvetica,sans-Serif" font-size="10.00"> </text>
<text text-anchor="start" x="511.57" y="-456" font-family="Helvetica,sans-Serif" font-size="10.00">+</text>
<text text-anchor="start" x="524.57" y="-456" font-family="Helvetica,sans-Serif" font-size="10.00">VectorEcef()</text>
<text text-anchor="start" x="511.57" y="-441" font-family="Helvetica,sans-Serif" font-size="10.00">+</text>
<text text-anchor="start" x="524.57" y="-441" font-family="Helvetica,sans-Serif" font-size="10.00">VectorEcef()</text>
<text text-anchor="start" x="511.57" y="-426" font-family="Helvetica,sans-Serif" font-size="10.00">+</text>
<text text-anchor="start" x="524.57" y="-426" font-family="Helvetica,sans-Serif" font-size="10.00">operator=()</text>
<text text-anchor="start" x="511.57" y="-411" font-family="Helvetica,sans-Serif" font-size="10.00">+</text>
<text text-anchor="start" x="524.57" y="-411" font-family="Helvetica,sans-Serif" font-size="10.00">operator*()</text>
<text text-anchor="start" x="511.57" y="-396" font-family="Helvetica,sans-Serif" font-size="10.00">+</text>
<text text-anchor="start" x="524.57" y="-396" font-family="Helvetica,sans-Serif" font-size="10.00">operator&#45;()</text>
<text text-anchor="start" x="511.57" y="-381" font-family="Helvetica,sans-Serif" font-size="10.00">+</text>
<text text-anchor="start" x="524.57" y="-381" font-family="Helvetica,sans-Serif" font-size="10.00">operator+()</text>
<polygon fill="red" stroke="red" points="507.57,-481 507.57,-481 588.57,-481 588.57,-481 507.57,-481"/>
<polygon fill="red" stroke="red" points="507.57,-466 507.57,-466 588.57,-466 588.57,-466 507.57,-466"/>
<polygon fill="none" stroke="red" points="507.07,-374 507.07,-498 588.07,-498 588.07,-374 507.07,-374"/>
</a>
</g>
</g>
<!-- Node40&#45;&gt;Node1 -->
<g id="edge15_Node000001_Node000040" class="edge">
<title>Node40&#45;&gt;Node1</title>
<g id="a_edge15_Node000001_Node000040"><a xlink:title=" ">
<path fill="none" stroke="#63b8ff" d="M548.15,-369.88C545.9,-304.7 534.49,-203.78 489.57,-130 464.39,-88.63 413.78,-64.38 374.3,-51.08"/>
<polygon fill="none" stroke="#63b8ff" points="374.13,-51.03 367.2,-53.01 362.7,-47.37 369.64,-45.39 374.13,-51.03"/>
</a>
</g>
<text text-anchor="middle" x="500.57" y="-98.5" font-family="Helvetica,sans-Serif" font-size="10.00" fill="grey"> +sppRRec</text>
</g>
</g>
</svg>
