<?xml version="1.0" encoding="UTF-8" standalone="no"?>
<!DOCTYPE svg PUBLIC "-//W3C//DTD SVG 1.1//EN"
 "http://www.w3.org/Graphics/SVG/1.1/DTD/svg11.dtd">
<!-- Generated by graphviz version 2.43.0 (0)
 -->
<!-- Title: FileStream Pages: 1 -->
<svg width="126pt" height="263pt"
 viewBox="0.00 0.00 126.00 263.00" xmlns="http://www.w3.org/2000/svg" xmlns:xlink="http://www.w3.org/1999/xlink">
<g id="graph0" class="graph" transform="scale(1 1) rotate(0) translate(4 259)">
<title>FileStream</title>
<!-- Node1 -->
<g id="Node000001" class="node">
<title>Node1</title>
<g id="a_Node000001"><a xlink:href="structFileStream.html" target="_top" xlink:title=" ">
<path fill="white" stroke="#666666" stroke-width="2" d="M106,-117C106,-117 12,-117 12,-117 6,-117 0,-111 0,-105 0,-105 0,-12 0,-12 0,-6 6,0 12,0 12,0 106,0 106,0 112,0 118,-6 118,-12 118,-12 118,-105 118,-105 118,-111 112,-117 106,-117"/>
<text text-anchor="start" x="32.5" y="-100.5" font-family="Helvetica,sans-Serif" font-size="10.00">FileStream</text>
<text text-anchor="start" x="12" y="-85.5" font-family="Helvetica,sans-Serif" font-size="10.00">+</text>
<text text-anchor="start" x="25" y="-85.5" font-family="Helvetica,sans-Serif" font-size="10.00">path</text>
<text text-anchor="start" x="12" y="-70.5" font-family="Helvetica,sans-Serif" font-size="10.00">+</text>
<text text-anchor="start" x="25" y="-70.5" font-family="Helvetica,sans-Serif" font-size="10.00">filePos</text>
<text text-anchor="start" x="12" y="-55.5" font-family="Helvetica,sans-Serif" font-size="10.00">+</text>
<text text-anchor="start" x="25" y="-55.5" font-family="Helvetica,sans-Serif" font-size="10.00">FileStream()</text>
<text text-anchor="start" x="12" y="-40.5" font-family="Helvetica,sans-Serif" font-size="10.00">+</text>
<text text-anchor="start" x="25" y="-40.5" font-family="Helvetica,sans-Serif" font-size="10.00">getIStream_ptr()</text>
<text text-anchor="start" x="12" y="-25.5" font-family="Helvetica,sans-Serif" font-size="10.00">+</text>
<text text-anchor="start" x="25" y="-25.5" font-family="Helvetica,sans-Serif" font-size="10.00">isDead()</text>
<text text-anchor="start" x="12" y="-10.5" font-family="Helvetica,sans-Serif" font-size="10.00">+</text>
<text text-anchor="start" x="25" y="-10.5" font-family="Helvetica,sans-Serif" font-size="10.00">isAvailable()</text>
<polygon fill="#666666" stroke="#666666" points="8,-95.5 8,-95.5 110,-95.5 110,-95.5 8,-95.5"/>
<polygon fill="#666666" stroke="#666666" points="8,-65.5 8,-65.5 23,-65.5 23,-65.5 8,-65.5"/>
<polygon fill="#666666" stroke="#666666" points="23,-65.5 23,-65.5 110,-65.5 110,-65.5 23,-65.5"/>
<polygon fill="none" stroke="#666666" points="8,-4 8,-113 110,-113 110,-4 8,-4"/>
</a>
</g>
</g>
<!-- Node2 -->
<g id="Node000002" class="node">
<title>Node2</title>
<g id="a_Node000002"><a xlink:href="structStream.html" target="_top" xlink:title=" ">
<path fill="white" stroke="#666666" d="M106,-255C106,-255 12,-255 12,-255 6,-255 0,-249 0,-243 0,-243 0,-165 0,-165 0,-159 6,-153 12,-153 12,-153 106,-153 106,-153 112,-153 118,-159 118,-165 118,-165 118,-243 118,-243 118,-249 112,-255 106,-255"/>
<text text-anchor="start" x="41" y="-239" font-family="Helvetica,sans-Serif" font-size="10.00">Stream</text>
<text text-anchor="start" x="12" y="-224" font-family="Helvetica,sans-Serif" font-size="10.00">+</text>
<text text-anchor="start" x="25" y="-224" font-family="Helvetica,sans-Serif" font-size="10.00">sourceString</text>
<text text-anchor="start" x="12" y="-209" font-family="Helvetica,sans-Serif" font-size="10.00">+</text>
<text text-anchor="start" x="25" y="-209" font-family="Helvetica,sans-Serif" font-size="10.00">getIStream_ptr()</text>
<text text-anchor="start" x="12" y="-194" font-family="Helvetica,sans-Serif" font-size="10.00">+</text>
<text text-anchor="start" x="25" y="-194" font-family="Helvetica,sans-Serif" font-size="10.00">isDead()</text>
<text text-anchor="start" x="12" y="-179" font-family="Helvetica,sans-Serif" font-size="10.00">+</text>
<text text-anchor="start" x="25" y="-179" font-family="Helvetica,sans-Serif" font-size="10.00">isAvailable()</text>
<text text-anchor="start" x="12" y="-164" font-family="Helvetica,sans-Serif" font-size="10.00">+</text>
<text text-anchor="start" x="25" y="-164" font-family="Helvetica,sans-Serif" font-size="10.00">~Stream()</text>
<polygon fill="#666666" stroke="#666666" points="8,-234 8,-234 110,-234 110,-234 8,-234"/>
<polygon fill="#666666" stroke="#666666" points="8,-219 8,-219 23,-219 23,-219 8,-219"/>
<polygon fill="#666666" stroke="#666666" points="23,-219 23,-219 110,-219 110,-219 23,-219"/>
<polygon fill="none" stroke="#666666" points="8,-157 8,-251 110,-251 110,-157 8,-157"/>
</a>
</g>
</g>
<!-- Node2&#45;&gt;Node1 -->
<g id="edge1_Node000001_Node000002" class="edge">
<title>Node2&#45;&gt;Node1</title>
<g id="a_edge1_Node000001_Node000002"><a xlink:title=" ">
<path fill="none" stroke="#63b8ff" d="M59,-142.69C59,-134.27 59,-125.64 59,-117.28"/>
<polygon fill="none" stroke="#63b8ff" points="55.5,-142.81 59,-152.81 62.5,-142.81 55.5,-142.81"/>
</a>
</g>
</g>
</g>
</svg>
