<?xml version="1.0" encoding="UTF-8" standalone="no"?>
<!DOCTYPE svg PUBLIC "-//W3C//DTD SVG 1.1//EN"
 "http://www.w3.org/Graphics/SVG/1.1/DTD/svg11.dtd">
<!-- Generated by graphviz version 2.43.0 (0)
 -->
<!-- Title: Rtk Pages: 1 -->
<svg width="943pt" height="1197pt"
 viewBox="0.00 0.00 943.00 1197.00" xmlns="http://www.w3.org/2000/svg" xmlns:xlink="http://www.w3.org/1999/xlink">
<g id="graph0" class="graph" transform="scale(1 1) rotate(0) translate(4 1193)">
<title>Rtk</title>
<!-- Node1 -->
<g id="Node000001" class="node">
<title>Node1</title>
<g id="a_Node000001"><a xlink:href="structRtk.html" target="_top" xlink:title=" ">
<path fill="white" stroke="#666666" stroke-width="2" d="M501.5,-57C501.5,-57 482.5,-57 482.5,-57 476.5,-57 470.5,-51 470.5,-45 470.5,-45 470.5,-12 470.5,-12 470.5,-6 476.5,0 482.5,0 482.5,0 501.5,0 501.5,0 507.5,0 513.5,-6 513.5,-12 513.5,-12 513.5,-45 513.5,-45 513.5,-51 507.5,-57 501.5,-57"/>
<text text-anchor="start" x="484" y="-40.5" font-family="Helvetica,sans-Serif" font-size="10.00">Rtk</text>
<text text-anchor="start" x="490.5" y="-25.5" font-family="Helvetica,sans-Serif" font-size="10.00"> </text>
<text text-anchor="start" x="490.5" y="-10.5" font-family="Helvetica,sans-Serif" font-size="10.00"> </text>
<polygon fill="#666666" stroke="#666666" points="479,-35.5 479,-35.5 506,-35.5 506,-35.5 479,-35.5"/>
<polygon fill="#666666" stroke="#666666" points="479,-20.5 479,-20.5 506,-20.5 506,-20.5 479,-20.5"/>
<polygon fill="none" stroke="#666666" points="478.5,-4 478.5,-53 505.5,-53 505.5,-4 478.5,-4"/>
</a>
</g>
</g>
<!-- Node2 -->
<g id="Node000002" class="node">
<title>Node2</title>
<g id="a_Node000002"><a xlink:href="structSolution.html" target="_top" xlink:title="Solution of user mode processing functinos.">
<path fill="white" stroke="#666666" d="M523,-243.5C523,-243.5 461,-243.5 461,-243.5 455,-243.5 449,-237.5 449,-231.5 449,-231.5 449,-183.5 449,-183.5 449,-177.5 455,-171.5 461,-171.5 461,-171.5 523,-171.5 523,-171.5 529,-171.5 535,-177.5 535,-183.5 535,-183.5 535,-231.5 535,-231.5 535,-237.5 529,-243.5 523,-243.5"/>
<text text-anchor="start" x="472" y="-227.5" font-family="Helvetica,sans-Serif" font-size="10.00">Solution</text>
<text text-anchor="start" x="461" y="-212.5" font-family="Helvetica,sans-Serif" font-size="10.00">+</text>
<text text-anchor="start" x="474" y="-212.5" font-family="Helvetica,sans-Serif" font-size="10.00">status</text>
<text text-anchor="start" x="461" y="-197.5" font-family="Helvetica,sans-Serif" font-size="10.00">+</text>
<text text-anchor="start" x="474" y="-197.5" font-family="Helvetica,sans-Serif" font-size="10.00">numMeas</text>
<text text-anchor="start" x="490" y="-182.5" font-family="Helvetica,sans-Serif" font-size="10.00"> </text>
<polygon fill="#666666" stroke="#666666" points="457,-222.5 457,-222.5 527,-222.5 527,-222.5 457,-222.5"/>
<polygon fill="#666666" stroke="#666666" points="457,-192.5 457,-192.5 472,-192.5 472,-192.5 457,-192.5"/>
<polygon fill="#666666" stroke="#666666" points="472,-192.5 472,-192.5 527,-192.5 527,-192.5 472,-192.5"/>
<polygon fill="none" stroke="#666666" points="457,-175.5 457,-239.5 527,-239.5 527,-175.5 457,-175.5"/>
</a>
</g>
</g>
<!-- Node2&#45;&gt;Node1 -->
<g id="edge1_Node000001_Node000002" class="edge">
<title>Node2&#45;&gt;Node1</title>
<g id="a_edge1_Node000001_Node000002"><a xlink:title=" ">
<path fill="none" stroke="#63b8ff" d="M492,-171.11C492,-141.71 492,-99.91 492,-69.35"/>
<polygon fill="none" stroke="#63b8ff" points="492,-69 488,-63 492,-57 496,-63 492,-69"/>
</a>
</g>
<text text-anchor="middle" x="505" y="-78" font-family="Helvetica,sans-Serif" font-size="10.00" fill="grey"> +sol</text>
</g>
<!-- Node3 -->
<g id="Node000003" class="node">
<title>Node3</title>
<g id="a_Node000003"><a xlink:href="structGTime.html" target="_top" xlink:title="Time structure used throughout this software.">
<path fill="white" stroke="#666666" d="M231,-1085C231,-1085 109,-1085 109,-1085 103,-1085 97,-1079 97,-1073 97,-1073 97,-425 97,-425 97,-419 103,-413 109,-413 109,-413 231,-413 231,-413 237,-413 243,-419 243,-425 243,-425 243,-1073 243,-1073 243,-1079 237,-1085 231,-1085"/>
<text text-anchor="start" x="153.5" y="-1069" font-family="Helvetica,sans-Serif" font-size="10.00">GTime</text>
<text text-anchor="start" x="109" y="-1054" font-family="Helvetica,sans-Serif" font-size="10.00">+</text>
<text text-anchor="start" x="122" y="-1054" font-family="Helvetica,sans-Serif" font-size="10.00">cacheN</text>
<text text-anchor="start" x="109" y="-1039" font-family="Helvetica,sans-Serif" font-size="10.00">+</text>
<text text-anchor="start" x="122" y="-1039" font-family="Helvetica,sans-Serif" font-size="10.00">cacheTime</text>
<text text-anchor="start" x="109" y="-1024" font-family="Helvetica,sans-Serif" font-size="10.00">+</text>
<text text-anchor="start" x="122" y="-1024" font-family="Helvetica,sans-Serif" font-size="10.00">bigTime</text>
<text text-anchor="start" x="109" y="-1009" font-family="Helvetica,sans-Serif" font-size="10.00">+</text>
<text text-anchor="start" x="122" y="-1009" font-family="Helvetica,sans-Serif" font-size="10.00">GTime()</text>
<text text-anchor="start" x="109" y="-994" font-family="Helvetica,sans-Serif" font-size="10.00">+</text>
<text text-anchor="start" x="122" y="-994" font-family="Helvetica,sans-Serif" font-size="10.00">GTime()</text>
<text text-anchor="start" x="109" y="-979" font-family="Helvetica,sans-Serif" font-size="10.00">+</text>
<text text-anchor="start" x="122" y="-979" font-family="Helvetica,sans-Serif" font-size="10.00">GTime()</text>
<text text-anchor="start" x="109" y="-964" font-family="Helvetica,sans-Serif" font-size="10.00">+</text>
<text text-anchor="start" x="122" y="-964" font-family="Helvetica,sans-Serif" font-size="10.00">to_string()</text>
<text text-anchor="start" x="109" y="-949" font-family="Helvetica,sans-Serif" font-size="10.00">+</text>
<text text-anchor="start" x="122" y="-949" font-family="Helvetica,sans-Serif" font-size="10.00">to_ISOstring()</text>
<text text-anchor="start" x="109" y="-934" font-family="Helvetica,sans-Serif" font-size="10.00">+</text>
<text text-anchor="start" x="122" y="-934" font-family="Helvetica,sans-Serif" font-size="10.00">to_decYear()</text>
<text text-anchor="start" x="109" y="-919" font-family="Helvetica,sans-Serif" font-size="10.00">+</text>
<text text-anchor="start" x="122" y="-919" font-family="Helvetica,sans-Serif" font-size="10.00">operator==()</text>
<text text-anchor="start" x="109" y="-904" font-family="Helvetica,sans-Serif" font-size="10.00">+</text>
<text text-anchor="start" x="122" y="-904" font-family="Helvetica,sans-Serif" font-size="10.00">operator!=()</text>
<text text-anchor="start" x="109" y="-889" font-family="Helvetica,sans-Serif" font-size="10.00">+</text>
<text text-anchor="start" x="122" y="-889" font-family="Helvetica,sans-Serif" font-size="10.00">operator&lt;()</text>
<text text-anchor="start" x="109" y="-874" font-family="Helvetica,sans-Serif" font-size="10.00">+</text>
<text text-anchor="start" x="122" y="-874" font-family="Helvetica,sans-Serif" font-size="10.00">operator&gt;()</text>
<text text-anchor="start" x="109" y="-859" font-family="Helvetica,sans-Serif" font-size="10.00">+</text>
<text text-anchor="start" x="122" y="-859" font-family="Helvetica,sans-Serif" font-size="10.00">operator&gt;=()</text>
<text text-anchor="start" x="109" y="-844" font-family="Helvetica,sans-Serif" font-size="10.00">+</text>
<text text-anchor="start" x="122" y="-844" font-family="Helvetica,sans-Serif" font-size="10.00">operator+()</text>
<text text-anchor="start" x="109" y="-829" font-family="Helvetica,sans-Serif" font-size="10.00">+</text>
<text text-anchor="start" x="122" y="-829" font-family="Helvetica,sans-Serif" font-size="10.00">operator+()</text>
<text text-anchor="start" x="109" y="-814" font-family="Helvetica,sans-Serif" font-size="10.00">+</text>
<text text-anchor="start" x="122" y="-814" font-family="Helvetica,sans-Serif" font-size="10.00">operator+()</text>
<text text-anchor="start" x="109" y="-799" font-family="Helvetica,sans-Serif" font-size="10.00">+</text>
<text text-anchor="start" x="122" y="-799" font-family="Helvetica,sans-Serif" font-size="10.00">operator+=()</text>
<text text-anchor="start" x="109" y="-784" font-family="Helvetica,sans-Serif" font-size="10.00">+</text>
<text text-anchor="start" x="122" y="-784" font-family="Helvetica,sans-Serif" font-size="10.00">operator&#45;=()</text>
<text text-anchor="start" x="109" y="-769" font-family="Helvetica,sans-Serif" font-size="10.00">+</text>
<text text-anchor="start" x="122" y="-769" font-family="Helvetica,sans-Serif" font-size="10.00">operator&#45;()</text>
<text text-anchor="start" x="109" y="-754" font-family="Helvetica,sans-Serif" font-size="10.00">+</text>
<text text-anchor="start" x="122" y="-754" font-family="Helvetica,sans-Serif" font-size="10.00">operator&#45;()</text>
<text text-anchor="start" x="109" y="-739" font-family="Helvetica,sans-Serif" font-size="10.00">+</text>
<text text-anchor="start" x="122" y="-739" font-family="Helvetica,sans-Serif" font-size="10.00">operator&#45;()</text>
<text text-anchor="start" x="109" y="-724" font-family="Helvetica,sans-Serif" font-size="10.00">+</text>
<text text-anchor="start" x="122" y="-724" font-family="Helvetica,sans-Serif" font-size="10.00">operator++()</text>
<text text-anchor="start" x="109" y="-709" font-family="Helvetica,sans-Serif" font-size="10.00">+</text>
<text text-anchor="start" x="122" y="-709" font-family="Helvetica,sans-Serif" font-size="10.00">GTime()</text>
<text text-anchor="start" x="109" y="-694" font-family="Helvetica,sans-Serif" font-size="10.00">+</text>
<text text-anchor="start" x="122" y="-694" font-family="Helvetica,sans-Serif" font-size="10.00">GTime()</text>
<text text-anchor="start" x="109" y="-679" font-family="Helvetica,sans-Serif" font-size="10.00">+</text>
<text text-anchor="start" x="122" y="-679" font-family="Helvetica,sans-Serif" font-size="10.00">GTime()</text>
<text text-anchor="start" x="109" y="-664" font-family="Helvetica,sans-Serif" font-size="10.00">+</text>
<text text-anchor="start" x="122" y="-664" font-family="Helvetica,sans-Serif" font-size="10.00">GTime()</text>
<text text-anchor="start" x="109" y="-649" font-family="Helvetica,sans-Serif" font-size="10.00">+</text>
<text text-anchor="start" x="122" y="-649" font-family="Helvetica,sans-Serif" font-size="10.00">GTime()</text>
<text text-anchor="start" x="109" y="-634" font-family="Helvetica,sans-Serif" font-size="10.00">+</text>
<text text-anchor="start" x="122" y="-634" font-family="Helvetica,sans-Serif" font-size="10.00">serialize()</text>
<text text-anchor="start" x="109" y="-619" font-family="Helvetica,sans-Serif" font-size="10.00">+</text>
<text text-anchor="start" x="122" y="-619" font-family="Helvetica,sans-Serif" font-size="10.00">floorTime()</text>
<text text-anchor="start" x="109" y="-604" font-family="Helvetica,sans-Serif" font-size="10.00">+</text>
<text text-anchor="start" x="122" y="-604" font-family="Helvetica,sans-Serif" font-size="10.00">gregString()</text>
<text text-anchor="start" x="109" y="-589" font-family="Helvetica,sans-Serif" font-size="10.00">+</text>
<text text-anchor="start" x="122" y="-589" font-family="Helvetica,sans-Serif" font-size="10.00">operator long double()</text>
<text text-anchor="start" x="109" y="-574" font-family="Helvetica,sans-Serif" font-size="10.00">+</text>
<text text-anchor="start" x="122" y="-574" font-family="Helvetica,sans-Serif" font-size="10.00">operator MjDateTT()</text>
<text text-anchor="start" x="109" y="-559" font-family="Helvetica,sans-Serif" font-size="10.00">+</text>
<text text-anchor="start" x="122" y="-559" font-family="Helvetica,sans-Serif" font-size="10.00">operator GEpoch()</text>
<text text-anchor="start" x="109" y="-544" font-family="Helvetica,sans-Serif" font-size="10.00">+</text>
<text text-anchor="start" x="122" y="-544" font-family="Helvetica,sans-Serif" font-size="10.00">operator UtcTime()</text>
<text text-anchor="start" x="109" y="-529" font-family="Helvetica,sans-Serif" font-size="10.00">+</text>
<text text-anchor="start" x="122" y="-529" font-family="Helvetica,sans-Serif" font-size="10.00">operator GWeek()</text>
<text text-anchor="start" x="109" y="-514" font-family="Helvetica,sans-Serif" font-size="10.00">+</text>
<text text-anchor="start" x="122" y="-514" font-family="Helvetica,sans-Serif" font-size="10.00">operator BWeek()</text>
<text text-anchor="start" x="109" y="-499" font-family="Helvetica,sans-Serif" font-size="10.00">+</text>
<text text-anchor="start" x="122" y="-499" font-family="Helvetica,sans-Serif" font-size="10.00">operator GTow()</text>
<text text-anchor="start" x="109" y="-484" font-family="Helvetica,sans-Serif" font-size="10.00">+</text>
<text text-anchor="start" x="122" y="-484" font-family="Helvetica,sans-Serif" font-size="10.00">operator BTow()</text>
<text text-anchor="start" x="109" y="-469" font-family="Helvetica,sans-Serif" font-size="10.00">+</text>
<text text-anchor="start" x="122" y="-469" font-family="Helvetica,sans-Serif" font-size="10.00">operator PTime()</text>
<text text-anchor="start" x="109" y="-454" font-family="Helvetica,sans-Serif" font-size="10.00">+</text>
<text text-anchor="start" x="122" y="-454" font-family="Helvetica,sans-Serif" font-size="10.00">operator string()</text>
<text text-anchor="start" x="109" y="-439" font-family="Helvetica,sans-Serif" font-size="10.00">+</text>
<text text-anchor="start" x="122" y="-439" font-family="Helvetica,sans-Serif" font-size="10.00">operator RTod()</text>
<text text-anchor="start" x="109" y="-424" font-family="Helvetica,sans-Serif" font-size="10.00">+</text>
<text text-anchor="start" x="122" y="-424" font-family="Helvetica,sans-Serif" font-size="10.00">noTime()</text>
<polygon fill="#666666" stroke="#666666" points="105,-1064 105,-1064 235,-1064 235,-1064 105,-1064"/>
<polygon fill="#666666" stroke="#666666" points="105,-1019 105,-1019 120,-1019 120,-1019 105,-1019"/>
<polygon fill="#666666" stroke="#666666" points="120,-1019 120,-1019 235,-1019 235,-1019 120,-1019"/>
<polygon fill="none" stroke="#666666" points="105,-417 105,-1081 235,-1081 235,-417 105,-417"/>
</a>
</g>
</g>
<!-- Node3&#45;&gt;Node2 -->
<g id="edge2_Node000002_Node000003" class="edge">
<title>Node3&#45;&gt;Node2</title>
<g id="a_edge2_Node000002_Node000003"><a xlink:title=" ">
<path fill="none" stroke="#63b8ff" d="M139.65,-412.85C142.75,-375.1 150.39,-344.6 165,-329 206.71,-284.46 387.95,-344.42 439,-311 458.57,-298.19 471.31,-275.75 479.38,-255.13"/>
<polygon fill="none" stroke="#63b8ff" points="479.46,-254.9 477.72,-247.9 483.51,-243.6 485.25,-250.6 479.46,-254.9"/>
</a>
</g>
<text text-anchor="middle" x="192" y="-359.5" font-family="Helvetica,sans-Serif" font-size="10.00" fill="grey"> +sppTime</text>
</g>
<!-- Node59 -->
<g id="Node000059" class="node">
<title>Node59</title>
<g id="a_Node000059"><a xlink:href="structAttStatus.html" target="_top" xlink:title="Persistent data for yaw model.">
<path fill="white" stroke="#666666" d="M418.5,-273.5C418.5,-273.5 331.5,-273.5 331.5,-273.5 325.5,-273.5 319.5,-267.5 319.5,-261.5 319.5,-261.5 319.5,-153.5 319.5,-153.5 319.5,-147.5 325.5,-141.5 331.5,-141.5 331.5,-141.5 418.5,-141.5 418.5,-141.5 424.5,-141.5 430.5,-147.5 430.5,-153.5 430.5,-153.5 430.5,-261.5 430.5,-261.5 430.5,-267.5 424.5,-273.5 418.5,-273.5"/>
<text text-anchor="start" x="352.5" y="-257.5" font-family="Helvetica,sans-Serif" font-size="10.00">AttStatus</text>
<text text-anchor="start" x="332" y="-242.5" font-family="Helvetica,sans-Serif" font-size="10.00">+</text>
<text text-anchor="start" x="345" y="-242.5" font-family="Helvetica,sans-Serif" font-size="10.00">startSign</text>
<text text-anchor="start" x="332" y="-227.5" font-family="Helvetica,sans-Serif" font-size="10.00">+</text>
<text text-anchor="start" x="345" y="-227.5" font-family="Helvetica,sans-Serif" font-size="10.00">startYaw</text>
<text text-anchor="start" x="332" y="-212.5" font-family="Helvetica,sans-Serif" font-size="10.00">+</text>
<text text-anchor="start" x="345" y="-212.5" font-family="Helvetica,sans-Serif" font-size="10.00">startYawRate</text>
<text text-anchor="start" x="332" y="-197.5" font-family="Helvetica,sans-Serif" font-size="10.00">+</text>
<text text-anchor="start" x="345" y="-197.5" font-family="Helvetica,sans-Serif" font-size="10.00">nominalYaw</text>
<text text-anchor="start" x="332" y="-182.5" font-family="Helvetica,sans-Serif" font-size="10.00">+</text>
<text text-anchor="start" x="345" y="-182.5" font-family="Helvetica,sans-Serif" font-size="10.00">modelYaw</text>
<text text-anchor="start" x="332" y="-167.5" font-family="Helvetica,sans-Serif" font-size="10.00">+</text>
<text text-anchor="start" x="345" y="-167.5" font-family="Helvetica,sans-Serif" font-size="10.00">modelYawValid</text>
<text text-anchor="start" x="373.5" y="-152.5" font-family="Helvetica,sans-Serif" font-size="10.00"> </text>
<polygon fill="#666666" stroke="#666666" points="328,-252.5 328,-252.5 423,-252.5 423,-252.5 328,-252.5"/>
<polygon fill="#666666" stroke="#666666" points="328,-162.5 328,-162.5 343,-162.5 343,-162.5 328,-162.5"/>
<polygon fill="#666666" stroke="#666666" points="343,-162.5 343,-162.5 423,-162.5 423,-162.5 343,-162.5"/>
<polygon fill="none" stroke="#666666" points="327.5,-145.5 327.5,-269.5 422.5,-269.5 422.5,-145.5 327.5,-145.5"/>
</a>
</g>
</g>
<!-- Node3&#45;&gt;Node59 -->
<g id="edge14_Node000059_Node000003" class="edge">
<title>Node3&#45;&gt;Node59</title>
<g id="a_edge14_Node000059_Node000003"><a xlink:title=" ">
<path fill="none" stroke="#63b8ff" d="M217.85,-412.66C226.07,-376.88 235.16,-346.99 245,-329 260.7,-300.27 285.8,-274.61 309.78,-254.43"/>
<polygon fill="none" stroke="#63b8ff" points="309.95,-254.29 312.06,-247.39 319.24,-246.69 317.13,-253.59 309.95,-254.29"/>
</a>
</g>
<text text-anchor="middle" x="286.5" y="-370.5" font-family="Helvetica,sans-Serif" font-size="10.00" fill="grey"> +excludeTime</text>
<text text-anchor="middle" x="286.5" y="-359.5" font-family="Helvetica,sans-Serif" font-size="10.00" fill="grey">+modelYawTime</text>
<text text-anchor="middle" x="286.5" y="-348.5" font-family="Helvetica,sans-Serif" font-size="10.00" fill="grey">+startTime</text>
</g>
<!-- Node4 -->
<g id="Node000004" class="node">
<title>Node4</title>
<g id="a_Node000004"><a xlink:title=" ">
<path fill="white" stroke="#666666" d="M42,-1189C42,-1189 12,-1189 12,-1189 6,-1189 0,-1183 0,-1177 0,-1177 0,-1144 0,-1144 0,-1138 6,-1132 12,-1132 12,-1132 42,-1132 42,-1132 48,-1132 54,-1138 54,-1144 54,-1144 54,-1177 54,-1177 54,-1183 48,-1189 42,-1189"/>
<text text-anchor="start" x="13" y="-1172.5" font-family="Helvetica,sans-Serif" font-size="10.00">string</text>
<text text-anchor="start" x="25" y="-1157.5" font-family="Helvetica,sans-Serif" font-size="10.00"> </text>
<text text-anchor="start" x="25" y="-1142.5" font-family="Helvetica,sans-Serif" font-size="10.00"> </text>
<polygon fill="#666666" stroke="#666666" points="8,-1167.5 8,-1167.5 46,-1167.5 46,-1167.5 8,-1167.5"/>
<polygon fill="#666666" stroke="#666666" points="8,-1152.5 8,-1152.5 46,-1152.5 46,-1152.5 8,-1152.5"/>
<polygon fill="none" stroke="#666666" points="8,-1136 8,-1185 46,-1185 46,-1136 8,-1136"/>
</a>
</g>
</g>
<!-- Node4&#45;&gt;Node1 -->
<g id="edge9_Node000001_Node000004" class="edge">
<title>Node4&#45;&gt;Node1</title>
<g id="a_edge9_Node000001_Node000004"><a xlink:title=" ">
<path fill="none" stroke="#63b8ff" d="M47.26,-1131.72C50.43,-1126.1 53.23,-1120.05 55,-1114 152.81,-779.05 -74.02,-647.73 68,-329 143.6,-159.33 372.32,-68.72 458.58,-39.86"/>
<polygon fill="none" stroke="#63b8ff" points="458.84,-39.77 463.3,-34.11 470.24,-36.04 465.78,-41.71 458.84,-39.77"/>
</a>
</g>
<text text-anchor="middle" x="103.5" y="-370.5" font-family="Helvetica,sans-Serif" font-size="10.00" fill="grey"> +antennaId</text>
<text text-anchor="middle" x="103.5" y="-359.5" font-family="Helvetica,sans-Serif" font-size="10.00" fill="grey">+antennaType</text>
<text text-anchor="middle" x="103.5" y="-348.5" font-family="Helvetica,sans-Serif" font-size="10.00" fill="grey">+receiverType</text>
</g>
<!-- Node4&#45;&gt;Node3 -->
<g id="edge3_Node000003_Node000004" class="edge">
<title>Node4&#45;&gt;Node3</title>
<g id="a_edge3_Node000003_Node000004"><a xlink:title=" ">
<path fill="none" stroke="#63b8ff" d="M36.6,-1132C48.63,-1097.57 70.39,-1035.26 92.89,-970.81"/>
<polygon fill="none" stroke="#63b8ff" points="93,-970.51 91.2,-963.53 96.95,-959.18 98.75,-966.17 93,-970.51"/>
</a>
</g>
<text text-anchor="middle" x="79.5" y="-1106" font-family="Helvetica,sans-Serif" font-size="10.00" fill="grey"> +cacheString</text>
</g>
<!-- Node5 -->
<g id="Node000005" class="node">
<title>Node5</title>
<g id="a_Node000005"><a xlink:title=" ">
<path fill="white" stroke="#666666" d="M797,-777.5C797,-777.5 683,-777.5 683,-777.5 677,-777.5 671,-771.5 671,-765.5 671,-765.5 671,-732.5 671,-732.5 671,-726.5 677,-720.5 683,-720.5 683,-720.5 797,-720.5 797,-720.5 803,-720.5 809,-726.5 809,-732.5 809,-732.5 809,-765.5 809,-765.5 809,-771.5 803,-777.5 797,-777.5"/>
<text text-anchor="start" x="684" y="-761" font-family="Helvetica,sans-Serif" font-size="10.00">map&lt; E_Sys, double &gt;</text>
<text text-anchor="start" x="738" y="-746" font-family="Helvetica,sans-Serif" font-size="10.00"> </text>
<text text-anchor="start" x="738" y="-731" font-family="Helvetica,sans-Serif" font-size="10.00"> </text>
<polygon fill="#666666" stroke="#666666" points="679,-756 679,-756 801,-756 801,-756 679,-756"/>
<polygon fill="#666666" stroke="#666666" points="679,-741 679,-741 801,-741 801,-741 679,-741"/>
<polygon fill="none" stroke="#666666" points="679,-724.5 679,-773.5 801,-773.5 801,-724.5 679,-724.5"/>
</a>
</g>
</g>
<!-- Node5&#45;&gt;Node2 -->
<g id="edge4_Node000002_Node000005" class="edge">
<title>Node5&#45;&gt;Node2</title>
<g id="a_edge4_Node000002_Node000005"><a xlink:title=" ">
<path fill="none" stroke="#63b8ff" d="M741.68,-720.36C744.67,-643.4 741.2,-425.97 616,-329 590.26,-309.07 570.5,-331.24 545,-311 527.16,-296.84 514.71,-275.04 506.39,-255.18"/>
<polygon fill="none" stroke="#63b8ff" points="506.3,-254.97 500.4,-250.83 501.95,-243.79 507.86,-247.93 506.3,-254.97"/>
</a>
</g>
<text text-anchor="middle" x="720.5" y="-365" font-family="Helvetica,sans-Serif" font-size="10.00" fill="grey"> +dtRec_m</text>
<text text-anchor="middle" x="720.5" y="-354" font-family="Helvetica,sans-Serif" font-size="10.00" fill="grey">+dtRec_m_pppp_old</text>
</g>
<!-- Node6 -->
<g id="Node000006" class="node">
<title>Node6</title>
<g id="a_Node000006"><a xlink:title=" ">
<path fill="white" stroke="#666666" d="M810,-1189C810,-1189 786,-1189 786,-1189 780,-1189 774,-1183 774,-1177 774,-1177 774,-1144 774,-1144 774,-1138 780,-1132 786,-1132 786,-1132 810,-1132 810,-1132 816,-1132 822,-1138 822,-1144 822,-1144 822,-1177 822,-1177 822,-1183 816,-1189 810,-1189"/>
<text text-anchor="start" x="787" y="-1172.5" font-family="Helvetica,sans-Serif" font-size="10.00">map</text>
<text text-anchor="start" x="796" y="-1157.5" font-family="Helvetica,sans-Serif" font-size="10.00"> </text>
<text text-anchor="start" x="796" y="-1142.5" font-family="Helvetica,sans-Serif" font-size="10.00"> </text>
<polygon fill="#666666" stroke="#666666" points="782,-1167.5 782,-1167.5 814,-1167.5 814,-1167.5 782,-1167.5"/>
<polygon fill="#666666" stroke="#666666" points="782,-1152.5 782,-1152.5 814,-1152.5 814,-1152.5 782,-1152.5"/>
<polygon fill="none" stroke="#666666" points="782,-1136 782,-1185 814,-1185 814,-1136 782,-1136"/>
</a>
</g>
</g>
<!-- Node6&#45;&gt;Node5 -->
<g id="edge5_Node000005_Node000006" class="edge">
<title>Node6&#45;&gt;Node5</title>
<g id="a_edge5_Node000005_Node000006"><a xlink:title=" ">
<path fill="none" stroke="orange" d="M765.43,-1141.37C755.76,-1134.21 746.32,-1125.02 741,-1114 685.89,-999.91 716.49,-841.25 732.35,-777.82"/>
<polygon fill="orange" stroke="orange" points="763.67,-1144.41 773.91,-1147.15 767.61,-1138.62 763.67,-1144.41"/>
</a>
</g>
<text text-anchor="middle" x="788" y="-1106" font-family="Helvetica,sans-Serif" font-size="10.00" fill="grey"> &lt; E_Sys, double &gt;</text>
</g>
<!-- Node58 -->
<g id="Node000058" class="node">
<title>Node58</title>
<g id="a_Node000058"><a xlink:title=" ">
<path fill="white" stroke="#666666" d="M917.5,-390.5C917.5,-390.5 796.5,-390.5 796.5,-390.5 790.5,-390.5 784.5,-384.5 784.5,-378.5 784.5,-378.5 784.5,-345.5 784.5,-345.5 784.5,-339.5 790.5,-333.5 796.5,-333.5 796.5,-333.5 917.5,-333.5 917.5,-333.5 923.5,-333.5 929.5,-339.5 929.5,-345.5 929.5,-345.5 929.5,-378.5 929.5,-378.5 929.5,-384.5 923.5,-390.5 917.5,-390.5"/>
<text text-anchor="start" x="798" y="-374" font-family="Helvetica,sans-Serif" font-size="10.00">map&lt; SatSys, SatStat &gt;</text>
<text text-anchor="start" x="855.5" y="-359" font-family="Helvetica,sans-Serif" font-size="10.00"> </text>
<text text-anchor="start" x="855.5" y="-344" font-family="Helvetica,sans-Serif" font-size="10.00"> </text>
<polygon fill="#666666" stroke="#666666" points="793,-369 793,-369 922,-369 922,-369 793,-369"/>
<polygon fill="#666666" stroke="#666666" points="793,-354 793,-354 922,-354 922,-354 793,-354"/>
<polygon fill="none" stroke="#666666" points="792.5,-337.5 792.5,-386.5 921.5,-386.5 921.5,-337.5 792.5,-337.5"/>
</a>
</g>
</g>
<!-- Node6&#45;&gt;Node58 -->
<g id="edge11_Node000058_Node000006" class="edge">
<title>Node6&#45;&gt;Node58</title>
<g id="a_edge11_Node000058_Node000006"><a xlink:title=" ">
<path fill="none" stroke="orange" d="M828.1,-1127.45C830.86,-1123.17 833.27,-1118.65 835,-1114 933.88,-848.09 880.62,-491.92 862.37,-390.81"/>
<polygon fill="orange" stroke="orange" points="825.04,-1125.71 822.01,-1135.86 830.71,-1129.81 825.04,-1125.71"/>
</a>
</g>
<text text-anchor="middle" x="885" y="-1106" font-family="Helvetica,sans-Serif" font-size="10.00" fill="grey"> &lt; SatSys, SatStat &gt;</text>
</g>
<!-- Node7 -->
<g id="Node000007" class="node">
<title>Node7</title>
<g id="a_Node000007"><a xlink:href="structKFState.html" target="_top" xlink:title="Wrapper to simplify copying with default copy but overriding slightly.">
<path fill="#fff0f0" stroke="red" d="M561,-1055C561,-1055 423,-1055 423,-1055 417,-1055 411,-1049 411,-1043 411,-1043 411,-455 411,-455 411,-449 417,-443 423,-443 423,-443 561,-443 561,-443 567,-443 573,-449 573,-455 573,-455 573,-1043 573,-1043 573,-1049 567,-1055 561,-1055"/>
<text text-anchor="start" x="473" y="-1039" font-family="Helvetica,sans-Serif" font-size="10.00">KFState</text>
<text text-anchor="start" x="490" y="-1024" font-family="Helvetica,sans-Serif" font-size="10.00"> </text>
<text text-anchor="start" x="423" y="-1009" font-family="Helvetica,sans-Serif" font-size="10.00">+</text>
<text text-anchor="start" x="436" y="-1009" font-family="Helvetica,sans-Serif" font-size="10.00">KFState()</text>
<text text-anchor="start" x="423" y="-994" font-family="Helvetica,sans-Serif" font-size="10.00">+</text>
<text text-anchor="start" x="436" y="-994" font-family="Helvetica,sans-Serif" font-size="10.00">KFState()</text>
<text text-anchor="start" x="423" y="-979" font-family="Helvetica,sans-Serif" font-size="10.00">+</text>
<text text-anchor="start" x="436" y="-979" font-family="Helvetica,sans-Serif" font-size="10.00">operator=()</text>
<text text-anchor="start" x="423" y="-964" font-family="Helvetica,sans-Serif" font-size="10.00">+</text>
<text text-anchor="start" x="436" y="-964" font-family="Helvetica,sans-Serif" font-size="10.00">serialize()</text>
<text text-anchor="start" x="423" y="-949" font-family="Helvetica,sans-Serif" font-size="10.00">+</text>
<text text-anchor="start" x="436" y="-949" font-family="Helvetica,sans-Serif" font-size="10.00">initFilterEpoch()</text>
<text text-anchor="start" x="423" y="-934" font-family="Helvetica,sans-Serif" font-size="10.00">+</text>
<text text-anchor="start" x="436" y="-934" font-family="Helvetica,sans-Serif" font-size="10.00">getKFIndex()</text>
<text text-anchor="start" x="423" y="-919" font-family="Helvetica,sans-Serif" font-size="10.00">+</text>
<text text-anchor="start" x="436" y="-919" font-family="Helvetica,sans-Serif" font-size="10.00">getKFValue()</text>
<text text-anchor="start" x="423" y="-904" font-family="Helvetica,sans-Serif" font-size="10.00">+</text>
<text text-anchor="start" x="436" y="-904" font-family="Helvetica,sans-Serif" font-size="10.00">getPseudoValue()</text>
<text text-anchor="start" x="423" y="-889" font-family="Helvetica,sans-Serif" font-size="10.00">+</text>
<text text-anchor="start" x="436" y="-889" font-family="Helvetica,sans-Serif" font-size="10.00">getKFSigma()</text>
<text text-anchor="start" x="423" y="-874" font-family="Helvetica,sans-Serif" font-size="10.00">+</text>
<text text-anchor="start" x="436" y="-874" font-family="Helvetica,sans-Serif" font-size="10.00">addKFState()</text>
<text text-anchor="start" x="423" y="-859" font-family="Helvetica,sans-Serif" font-size="10.00">+</text>
<text text-anchor="start" x="436" y="-859" font-family="Helvetica,sans-Serif" font-size="10.00">addPseudoState()</text>
<text text-anchor="start" x="423" y="-844" font-family="Helvetica,sans-Serif" font-size="10.00">+</text>
<text text-anchor="start" x="436" y="-844" font-family="Helvetica,sans-Serif" font-size="10.00">setExponentialNoise()</text>
<text text-anchor="start" x="423" y="-829" font-family="Helvetica,sans-Serif" font-size="10.00">+</text>
<text text-anchor="start" x="436" y="-829" font-family="Helvetica,sans-Serif" font-size="10.00">setAccelerator()</text>
<text text-anchor="start" x="423" y="-814" font-family="Helvetica,sans-Serif" font-size="10.00">+</text>
<text text-anchor="start" x="436" y="-814" font-family="Helvetica,sans-Serif" font-size="10.00">setKFTrans()</text>
<text text-anchor="start" x="423" y="-799" font-family="Helvetica,sans-Serif" font-size="10.00">+</text>
<text text-anchor="start" x="436" y="-799" font-family="Helvetica,sans-Serif" font-size="10.00">setKFTransRate()</text>
<text text-anchor="start" x="423" y="-784" font-family="Helvetica,sans-Serif" font-size="10.00">+</text>
<text text-anchor="start" x="436" y="-784" font-family="Helvetica,sans-Serif" font-size="10.00">addNoiseElement()</text>
<text text-anchor="start" x="423" y="-769" font-family="Helvetica,sans-Serif" font-size="10.00">+</text>
<text text-anchor="start" x="436" y="-769" font-family="Helvetica,sans-Serif" font-size="10.00">removeState()</text>
<text text-anchor="start" x="423" y="-754" font-family="Helvetica,sans-Serif" font-size="10.00">+</text>
<text text-anchor="start" x="436" y="-754" font-family="Helvetica,sans-Serif" font-size="10.00">stateTransition()</text>
<text text-anchor="start" x="423" y="-739" font-family="Helvetica,sans-Serif" font-size="10.00">+</text>
<text text-anchor="start" x="436" y="-739" font-family="Helvetica,sans-Serif" font-size="10.00">manualStateTransition()</text>
<text text-anchor="start" x="423" y="-724" font-family="Helvetica,sans-Serif" font-size="10.00">+</text>
<text text-anchor="start" x="436" y="-724" font-family="Helvetica,sans-Serif" font-size="10.00">preFitSigmaCheck()</text>
<text text-anchor="start" x="423" y="-709" font-family="Helvetica,sans-Serif" font-size="10.00">+</text>
<text text-anchor="start" x="436" y="-709" font-family="Helvetica,sans-Serif" font-size="10.00">postFitSigmaChecks()</text>
<text text-anchor="start" x="423" y="-694" font-family="Helvetica,sans-Serif" font-size="10.00">+</text>
<text text-anchor="start" x="436" y="-694" font-family="Helvetica,sans-Serif" font-size="10.00">stateChiSquare()</text>
<text text-anchor="start" x="423" y="-679" font-family="Helvetica,sans-Serif" font-size="10.00">+</text>
<text text-anchor="start" x="436" y="-679" font-family="Helvetica,sans-Serif" font-size="10.00">measChiSquare()</text>
<text text-anchor="start" x="423" y="-664" font-family="Helvetica,sans-Serif" font-size="10.00">+</text>
<text text-anchor="start" x="436" y="-664" font-family="Helvetica,sans-Serif" font-size="10.00">innovChiSquare()</text>
<text text-anchor="start" x="423" y="-649" font-family="Helvetica,sans-Serif" font-size="10.00">+</text>
<text text-anchor="start" x="436" y="-649" font-family="Helvetica,sans-Serif" font-size="10.00">kFilter()</text>
<text text-anchor="start" x="423" y="-634" font-family="Helvetica,sans-Serif" font-size="10.00">+</text>
<text text-anchor="start" x="436" y="-634" font-family="Helvetica,sans-Serif" font-size="10.00">chiQC()</text>
<text text-anchor="start" x="423" y="-619" font-family="Helvetica,sans-Serif" font-size="10.00">+</text>
<text text-anchor="start" x="436" y="-619" font-family="Helvetica,sans-Serif" font-size="10.00">outputStates()</text>
<text text-anchor="start" x="423" y="-604" font-family="Helvetica,sans-Serif" font-size="10.00">+</text>
<text text-anchor="start" x="436" y="-604" font-family="Helvetica,sans-Serif" font-size="10.00">outputConditionNumber()</text>
<text text-anchor="start" x="423" y="-589" font-family="Helvetica,sans-Serif" font-size="10.00">+</text>
<text text-anchor="start" x="436" y="-589" font-family="Helvetica,sans-Serif" font-size="10.00">outputCorrelations()</text>
<text text-anchor="start" x="423" y="-574" font-family="Helvetica,sans-Serif" font-size="10.00">+</text>
<text text-anchor="start" x="436" y="-574" font-family="Helvetica,sans-Serif" font-size="10.00">outputMeasurements()</text>
<text text-anchor="start" x="423" y="-559" font-family="Helvetica,sans-Serif" font-size="10.00">+</text>
<text text-anchor="start" x="436" y="-559" font-family="Helvetica,sans-Serif" font-size="10.00">doStateRejectCallbacks()</text>
<text text-anchor="start" x="423" y="-544" font-family="Helvetica,sans-Serif" font-size="10.00">+</text>
<text text-anchor="start" x="436" y="-544" font-family="Helvetica,sans-Serif" font-size="10.00">doMeasRejectCallbacks()</text>
<text text-anchor="start" x="423" y="-529" font-family="Helvetica,sans-Serif" font-size="10.00">+</text>
<text text-anchor="start" x="436" y="-529" font-family="Helvetica,sans-Serif" font-size="10.00">filterKalman()</text>
<text text-anchor="start" x="423" y="-514" font-family="Helvetica,sans-Serif" font-size="10.00">+</text>
<text text-anchor="start" x="436" y="-514" font-family="Helvetica,sans-Serif" font-size="10.00">leastSquareInitStates()</text>
<text text-anchor="start" x="423" y="-499" font-family="Helvetica,sans-Serif" font-size="10.00">+</text>
<text text-anchor="start" x="436" y="-499" font-family="Helvetica,sans-Serif" font-size="10.00">getSubState()</text>
<text text-anchor="start" x="423" y="-484" font-family="Helvetica,sans-Serif" font-size="10.00">+</text>
<text text-anchor="start" x="436" y="-484" font-family="Helvetica,sans-Serif" font-size="10.00">getSubState()</text>
<text text-anchor="start" x="423" y="-469" font-family="Helvetica,sans-Serif" font-size="10.00">+</text>
<text text-anchor="start" x="436" y="-469" font-family="Helvetica,sans-Serif" font-size="10.00">getSubState()</text>
<text text-anchor="start" x="423" y="-454" font-family="Helvetica,sans-Serif" font-size="10.00">+</text>
<text text-anchor="start" x="436" y="-454" font-family="Helvetica,sans-Serif" font-size="10.00">decomposedStateKeys()</text>
<polygon fill="red" stroke="red" points="419,-1034 419,-1034 565,-1034 565,-1034 419,-1034"/>
<polygon fill="red" stroke="red" points="419,-1019 419,-1019 565,-1019 565,-1019 419,-1019"/>
<polygon fill="none" stroke="red" points="419,-447 419,-1051 565,-1051 565,-447 419,-447"/>
</a>
</g>
</g>
<!-- Node7&#45;&gt;Node2 -->
<g id="edge6_Node000002_Node000007" class="edge">
<title>Node7&#45;&gt;Node2</title>
<g id="a_edge6_Node000002_Node000007"><a xlink:title=" ">
<path fill="none" stroke="#63b8ff" d="M492,-442.78C492,-369.65 492,-300.06 492,-256.02"/>
<polygon fill="none" stroke="#63b8ff" points="492,-255.74 488,-249.74 492,-243.74 496,-249.74 492,-255.74"/>
</a>
</g>
<text text-anchor="middle" x="519.5" y="-359.5" font-family="Helvetica,sans-Serif" font-size="10.00" fill="grey"> +sppState</text>
</g>
<!-- Node57 -->
<g id="Node000057" class="node">
<title>Node57</title>
<g id="a_Node000057"><a xlink:href="structDops.html" target="_top" xlink:title=" ">
<path fill="white" stroke="#666666" d="M641,-800C641,-800 603,-800 603,-800 597,-800 591,-794 591,-788 591,-788 591,-710 591,-710 591,-704 597,-698 603,-698 603,-698 641,-698 641,-698 647,-698 653,-704 653,-710 653,-710 653,-788 653,-788 653,-794 647,-800 641,-800"/>
<text text-anchor="start" x="609.5" y="-784" font-family="Helvetica,sans-Serif" font-size="10.00">Dops</text>
<text text-anchor="start" x="603" y="-769" font-family="Helvetica,sans-Serif" font-size="10.00">+</text>
<text text-anchor="start" x="616" y="-769" font-family="Helvetica,sans-Serif" font-size="10.00">gdop</text>
<text text-anchor="start" x="603" y="-754" font-family="Helvetica,sans-Serif" font-size="10.00">+</text>
<text text-anchor="start" x="616" y="-754" font-family="Helvetica,sans-Serif" font-size="10.00">pdop</text>
<text text-anchor="start" x="603" y="-739" font-family="Helvetica,sans-Serif" font-size="10.00">+</text>
<text text-anchor="start" x="616" y="-739" font-family="Helvetica,sans-Serif" font-size="10.00">hdop</text>
<text text-anchor="start" x="603" y="-724" font-family="Helvetica,sans-Serif" font-size="10.00">+</text>
<text text-anchor="start" x="616" y="-724" font-family="Helvetica,sans-Serif" font-size="10.00">vdop</text>
<text text-anchor="start" x="620" y="-709" font-family="Helvetica,sans-Serif" font-size="10.00"> </text>
<polygon fill="#666666" stroke="#666666" points="599,-779 599,-779 645,-779 645,-779 599,-779"/>
<polygon fill="#666666" stroke="#666666" points="599,-719 599,-719 614,-719 614,-719 599,-719"/>
<polygon fill="#666666" stroke="#666666" points="614,-719 614,-719 645,-719 645,-719 614,-719"/>
<polygon fill="none" stroke="#666666" points="599,-702 599,-796 645,-796 645,-702 599,-702"/>
</a>
</g>
</g>
<!-- Node57&#45;&gt;Node2 -->
<g id="edge7_Node000002_Node000057" class="edge">
<title>Node57&#45;&gt;Node2</title>
<g id="a_edge7_Node000002_Node000057"><a xlink:title=" ">
<path fill="none" stroke="#63b8ff" d="M619.69,-697.97C615.81,-631.92 605.92,-512.37 582,-413 572.69,-374.31 566.66,-365.58 551,-329 540.3,-303.99 527.08,-276.73 515.87,-254.47"/>
<polygon fill="none" stroke="#63b8ff" points="515.82,-254.35 509.53,-250.81 510.39,-243.65 516.67,-247.19 515.82,-254.35"/>
</a>
</g>
<text text-anchor="middle" x="594.5" y="-359.5" font-family="Helvetica,sans-Serif" font-size="10.00" fill="grey"> +dops</text>
</g>
<!-- Node45 -->
<g id="Node000045" class="node">
<title>Node45</title>
<g id="a_Node000045"><a xlink:href="structVectorEcef.html" target="_top" xlink:title=" ">
<path fill="#fff0f0" stroke="red" d="M380.5,-815C380.5,-815 307.5,-815 307.5,-815 301.5,-815 295.5,-809 295.5,-803 295.5,-803 295.5,-695 295.5,-695 295.5,-689 301.5,-683 307.5,-683 307.5,-683 380.5,-683 380.5,-683 386.5,-683 392.5,-689 392.5,-695 392.5,-695 392.5,-803 392.5,-803 392.5,-809 386.5,-815 380.5,-815"/>
<text text-anchor="start" x="318.5" y="-799" font-family="Helvetica,sans-Serif" font-size="10.00">VectorEcef</text>
<text text-anchor="start" x="342.5" y="-784" font-family="Helvetica,sans-Serif" font-size="10.00"> </text>
<text text-anchor="start" x="308" y="-769" font-family="Helvetica,sans-Serif" font-size="10.00">+</text>
<text text-anchor="start" x="321" y="-769" font-family="Helvetica,sans-Serif" font-size="10.00">VectorEcef()</text>
<text text-anchor="start" x="308" y="-754" font-family="Helvetica,sans-Serif" font-size="10.00">+</text>
<text text-anchor="start" x="321" y="-754" font-family="Helvetica,sans-Serif" font-size="10.00">VectorEcef()</text>
<text text-anchor="start" x="308" y="-739" font-family="Helvetica,sans-Serif" font-size="10.00">+</text>
<text text-anchor="start" x="321" y="-739" font-family="Helvetica,sans-Serif" font-size="10.00">operator=()</text>
<text text-anchor="start" x="308" y="-724" font-family="Helvetica,sans-Serif" font-size="10.00">+</text>
<text text-anchor="start" x="321" y="-724" font-family="Helvetica,sans-Serif" font-size="10.00">operator*()</text>
<text text-anchor="start" x="308" y="-709" font-family="Helvetica,sans-Serif" font-size="10.00">+</text>
<text text-anchor="start" x="321" y="-709" font-family="Helvetica,sans-Serif" font-size="10.00">operator&#45;()</text>
<text text-anchor="start" x="308" y="-694" font-family="Helvetica,sans-Serif" font-size="10.00">+</text>
<text text-anchor="start" x="321" y="-694" font-family="Helvetica,sans-Serif" font-size="10.00">operator+()</text>
<polygon fill="red" stroke="red" points="304,-794 304,-794 385,-794 385,-794 304,-794"/>
<polygon fill="red" stroke="red" points="304,-779 304,-779 385,-779 385,-779 304,-779"/>
<polygon fill="none" stroke="red" points="303.5,-687 303.5,-811 384.5,-811 384.5,-687 303.5,-687"/>
</a>
</g>
</g>
<!-- Node45&#45;&gt;Node2 -->
<g id="edge8_Node000002_Node000045" class="edge">
<title>Node45&#45;&gt;Node2</title>
<g id="a_edge8_Node000002_Node000045"><a xlink:title=" ">
<path fill="none" stroke="#63b8ff" d="M339.35,-682.8C332.08,-571.8 321.02,-355.48 343,-329 370.72,-295.6 404.17,-336.91 439,-311 457.5,-297.24 470.07,-275.15 478.31,-254.99"/>
<polygon fill="none" stroke="#63b8ff" points="478.32,-254.96 476.7,-247.93 482.57,-243.74 484.19,-250.76 478.32,-254.96"/>
</a>
</g>
<text text-anchor="middle" x="370" y="-359.5" font-family="Helvetica,sans-Serif" font-size="10.00" fill="grey"> +sppRRec</text>
</g>
<!-- Node45&#45;&gt;Node59 -->
<g id="edge15_Node000059_Node000045" class="edge">
<title>Node45&#45;&gt;Node59</title>
<g id="a_edge15_Node000059_Node000045"><a xlink:title=" ">
<path fill="none" stroke="#63b8ff" d="M357.7,-682.99C371.82,-612.46 392.87,-496.33 401,-395 403.35,-365.76 404.11,-358.17 401,-329 399.49,-314.87 397.02,-299.96 394.18,-285.63"/>
<polygon fill="none" stroke="#63b8ff" points="394.15,-285.51 389.02,-280.44 391.72,-273.76 396.85,-278.82 394.15,-285.51"/>
</a>
</g>
<text text-anchor="middle" x="427" y="-387" font-family="Helvetica,sans-Serif" font-size="10.00" fill="grey"> +eXAnt</text>
<text text-anchor="middle" x="427" y="-376" font-family="Helvetica,sans-Serif" font-size="10.00" fill="grey">+eXBody</text>
<text text-anchor="middle" x="427" y="-365" font-family="Helvetica,sans-Serif" font-size="10.00" fill="grey">+eYAnt</text>
<text text-anchor="middle" x="427" y="-354" font-family="Helvetica,sans-Serif" font-size="10.00" fill="grey">+eYBody</text>
<text text-anchor="middle" x="427" y="-343" font-family="Helvetica,sans-Serif" font-size="10.00" fill="grey">+eZAnt</text>
<text text-anchor="middle" x="427" y="-332" font-family="Helvetica,sans-Serif" font-size="10.00" fill="grey">+eZBody</text>
</g>
<!-- Node58&#45;&gt;Node1 -->
<g id="edge10_Node000001_Node000058" class="edge">
<title>Node58&#45;&gt;Node1</title>
<g id="a_edge10_Node000001_Node000058"><a xlink:title=" ">
<path fill="none" stroke="#63b8ff" d="M841.87,-333.41C812.5,-282.07 743.13,-171.02 658,-104 617.37,-72.02 560.82,-50.47 525.33,-39.1"/>
<polygon fill="none" stroke="#63b8ff" points="525.18,-39.05 518.26,-41.09 513.72,-35.5 520.63,-33.45 525.18,-39.05"/>
</a>
</g>
<text text-anchor="middle" x="859.5" y="-205" font-family="Helvetica,sans-Serif" font-size="10.00" fill="grey"> +satStatMap</text>
</g>
<!-- Node43 -->
<g id="Node000043" class="node">
<title>Node43</title>
<g id="a_Node000043"><a xlink:href="structVectorEnu.html" target="_top" xlink:title=" ">
<path fill="#fff0f0" stroke="red" d="M636.5,-311C636.5,-311 565.5,-311 565.5,-311 559.5,-311 553.5,-305 553.5,-299 553.5,-299 553.5,-116 553.5,-116 553.5,-110 559.5,-104 565.5,-104 565.5,-104 636.5,-104 636.5,-104 642.5,-104 648.5,-110 648.5,-116 648.5,-116 648.5,-299 648.5,-299 648.5,-305 642.5,-311 636.5,-311"/>
<text text-anchor="start" x="577" y="-294.5" font-family="Helvetica,sans-Serif" font-size="10.00">VectorEnu</text>
<text text-anchor="start" x="599.5" y="-279.5" font-family="Helvetica,sans-Serif" font-size="10.00"> </text>
<text text-anchor="start" x="566" y="-264.5" font-family="Helvetica,sans-Serif" font-size="10.00">+</text>
<text text-anchor="start" x="579" y="-264.5" font-family="Helvetica,sans-Serif" font-size="10.00">VectorEnu()</text>
<text text-anchor="start" x="566" y="-249.5" font-family="Helvetica,sans-Serif" font-size="10.00">+</text>
<text text-anchor="start" x="579" y="-249.5" font-family="Helvetica,sans-Serif" font-size="10.00">VectorEnu()</text>
<text text-anchor="start" x="566" y="-234.5" font-family="Helvetica,sans-Serif" font-size="10.00">+</text>
<text text-anchor="start" x="579" y="-234.5" font-family="Helvetica,sans-Serif" font-size="10.00">operator=()</text>
<text text-anchor="start" x="566" y="-219.5" font-family="Helvetica,sans-Serif" font-size="10.00">+</text>
<text text-anchor="start" x="579" y="-219.5" font-family="Helvetica,sans-Serif" font-size="10.00">operator*()</text>
<text text-anchor="start" x="566" y="-204.5" font-family="Helvetica,sans-Serif" font-size="10.00">+</text>
<text text-anchor="start" x="579" y="-204.5" font-family="Helvetica,sans-Serif" font-size="10.00">operator&#45;()</text>
<text text-anchor="start" x="566" y="-189.5" font-family="Helvetica,sans-Serif" font-size="10.00">+</text>
<text text-anchor="start" x="579" y="-189.5" font-family="Helvetica,sans-Serif" font-size="10.00">operator+()</text>
<text text-anchor="start" x="566" y="-174.5" font-family="Helvetica,sans-Serif" font-size="10.00">+</text>
<text text-anchor="start" x="579" y="-174.5" font-family="Helvetica,sans-Serif" font-size="10.00">e()</text>
<text text-anchor="start" x="566" y="-159.5" font-family="Helvetica,sans-Serif" font-size="10.00">+</text>
<text text-anchor="start" x="579" y="-159.5" font-family="Helvetica,sans-Serif" font-size="10.00">n()</text>
<text text-anchor="start" x="566" y="-144.5" font-family="Helvetica,sans-Serif" font-size="10.00">+</text>
<text text-anchor="start" x="579" y="-144.5" font-family="Helvetica,sans-Serif" font-size="10.00">u()</text>
<text text-anchor="start" x="566" y="-129.5" font-family="Helvetica,sans-Serif" font-size="10.00">+</text>
<text text-anchor="start" x="579" y="-129.5" font-family="Helvetica,sans-Serif" font-size="10.00">r()</text>
<text text-anchor="start" x="566" y="-114.5" font-family="Helvetica,sans-Serif" font-size="10.00">+</text>
<text text-anchor="start" x="579" y="-114.5" font-family="Helvetica,sans-Serif" font-size="10.00">f()</text>
<polygon fill="red" stroke="red" points="562,-289.5 562,-289.5 641,-289.5 641,-289.5 562,-289.5"/>
<polygon fill="red" stroke="red" points="562,-274.5 562,-274.5 641,-274.5 641,-274.5 562,-274.5"/>
<polygon fill="none" stroke="red" points="561.5,-108 561.5,-307 640.5,-307 640.5,-108 561.5,-108"/>
</a>
</g>
</g>
<!-- Node43&#45;&gt;Node1 -->
<g id="edge12_Node000001_Node000043" class="edge">
<title>Node43&#45;&gt;Node1</title>
<g id="a_edge12_Node000001_Node000043"><a xlink:title=" ">
<path fill="none" stroke="#63b8ff" d="M553.41,-119.46C550.28,-114.2 547.13,-109.01 544,-104 536.37,-91.79 527.57,-78.82 519.41,-67.18"/>
<polygon fill="none" stroke="#63b8ff" points="519.38,-67.14 512.65,-64.55 512.44,-57.35 519.18,-59.93 519.38,-67.14"/>
</a>
</g>
<text text-anchor="middle" x="558" y="-78" font-family="Helvetica,sans-Serif" font-size="10.00" fill="grey"> +antDelta</text>
</g>
<!-- Node59&#45;&gt;Node1 -->
<g id="edge13_Node000001_Node000059" class="edge">
<title>Node59&#45;&gt;Node1</title>
<g id="a_edge13_Node000001_Node000059"><a xlink:title=" ">
<path fill="none" stroke="#63b8ff" d="M395.59,-141.32C404.58,-118.92 416.64,-94.57 432,-75 439.79,-65.08 450.23,-56.17 460.22,-48.93"/>
<polygon fill="none" stroke="#63b8ff" points="460.43,-48.78 463.12,-42.09 470.33,-42 467.64,-48.69 460.43,-48.78"/>
</a>
</g>
<text text-anchor="middle" x="460" y="-78" font-family="Helvetica,sans-Serif" font-size="10.00" fill="grey"> +attStatus</text>
</g>
</g>
</svg>
