<?xml version="1.0" encoding="UTF-8" standalone="no"?>
<!DOCTYPE svg PUBLIC "-//W3C//DTD SVG 1.1//EN"
 "http://www.w3.org/Graphics/SVG/1.1/DTD/svg11.dtd">
<!-- Generated by graphviz version 2.43.0 (0)
 -->
<!-- Title: AmbiguityErrorHandler Pages: 1 -->
<svg width="146pt" height="214pt"
 viewBox="0.00 0.00 146.00 214.00" xmlns="http://www.w3.org/2000/svg" xmlns:xlink="http://www.w3.org/1999/xlink">
<g id="graph0" class="graph" transform="scale(1 1) rotate(0) translate(4 210)">
<title>AmbiguityErrorHandler</title>
<!-- Node1 -->
<g id="Node000001" class="node">
<title>Node1</title>
<g id="a_Node000001"><a xlink:href="structAmbiguityErrorHandler.html" target="_top" xlink:title=" ">
<path fill="white" stroke="#666666" stroke-width="2" d="M126,-57C126,-57 12,-57 12,-57 6,-57 0,-51 0,-45 0,-45 0,-12 0,-12 0,-6 6,0 12,0 12,0 126,0 126,0 132,0 138,-6 138,-12 138,-12 138,-45 138,-45 138,-51 132,-57 126,-57"/>
<text text-anchor="start" x="13" y="-40.5" font-family="Helvetica,sans-Serif" font-size="10.00">AmbiguityErrorHandler</text>
<text text-anchor="start" x="14.5" y="-25.5" font-family="Helvetica,sans-Serif" font-size="10.00">+</text>
<text text-anchor="start" x="30" y="-25.5" font-family="Helvetica,sans-Serif" font-size="10.00">phase_reject_limit</text>
<text text-anchor="start" x="67" y="-10.5" font-family="Helvetica,sans-Serif" font-size="10.00"> </text>
<polygon fill="#666666" stroke="#666666" points="8,-35.5 8,-35.5 130,-35.5 130,-35.5 8,-35.5"/>
<polygon fill="#666666" stroke="#666666" points="8,-20.5 8,-20.5 28,-20.5 28,-20.5 8,-20.5"/>
<polygon fill="#666666" stroke="#666666" points="28,-20.5 28,-20.5 130,-20.5 130,-20.5 28,-20.5"/>
<polygon fill="none" stroke="#666666" points="8,-4 8,-53 130,-53 130,-4 8,-4"/>
</a>
</g>
</g>
<!-- Node2 -->
<g id="Node000002" class="node">
<title>Node2</title>
<g id="a_Node000002"><a xlink:href="structSlipOptions.html" target="_top" xlink:title=" ">
<path fill="white" stroke="#666666" d="M98,-206C98,-206 40,-206 40,-206 34,-206 28,-200 28,-194 28,-194 28,-116 28,-116 28,-110 34,-104 40,-104 40,-104 98,-104 98,-104 104,-104 110,-110 110,-116 110,-116 110,-194 110,-194 110,-200 104,-206 98,-206"/>
<text text-anchor="start" x="41" y="-190" font-family="Helvetica,sans-Serif" font-size="10.00">SlipOptions</text>
<text text-anchor="start" x="43.5" y="-175" font-family="Helvetica,sans-Serif" font-size="10.00">+</text>
<text text-anchor="start" x="60" y="-175" font-family="Helvetica,sans-Serif" font-size="10.00">LLI</text>
<text text-anchor="start" x="43.5" y="-160" font-family="Helvetica,sans-Serif" font-size="10.00">+</text>
<text text-anchor="start" x="60" y="-160" font-family="Helvetica,sans-Serif" font-size="10.00">GF</text>
<text text-anchor="start" x="43.5" y="-145" font-family="Helvetica,sans-Serif" font-size="10.00">+</text>
<text text-anchor="start" x="60" y="-145" font-family="Helvetica,sans-Serif" font-size="10.00">MW</text>
<text text-anchor="start" x="43.5" y="-130" font-family="Helvetica,sans-Serif" font-size="10.00">+</text>
<text text-anchor="start" x="60" y="-130" font-family="Helvetica,sans-Serif" font-size="10.00">SCDIA</text>
<text text-anchor="start" x="67" y="-115" font-family="Helvetica,sans-Serif" font-size="10.00"> </text>
<polygon fill="#666666" stroke="#666666" points="36,-185 36,-185 102,-185 102,-185 36,-185"/>
<polygon fill="#666666" stroke="#666666" points="36,-125 36,-125 58,-125 58,-125 36,-125"/>
<polygon fill="#666666" stroke="#666666" points="58,-125 58,-125 102,-125 102,-125 58,-125"/>
<polygon fill="none" stroke="#666666" points="36,-108 36,-202 102,-202 102,-108 36,-108"/>
</a>
</g>
</g>
<!-- Node2&#45;&gt;Node1 -->
<g id="edge1_Node000001_Node000002" class="edge">
<title>Node2&#45;&gt;Node1</title>
<g id="a_edge1_Node000001_Node000002"><a xlink:title=" ">
<path fill="none" stroke="#63b8ff" d="M69,-103.72C69,-92.27 69,-80.26 69,-69.32"/>
<polygon fill="none" stroke="#63b8ff" points="69,-69.07 65,-63.07 69,-57.07 73,-63.07 69,-69.07"/>
</a>
</g>
<text text-anchor="middle" x="103" y="-78" font-family="Helvetica,sans-Serif" font-size="10.00" fill="grey"> +resetOnSlip</text>
</g>
</g>
</svg>
