<?xml version="1.0" encoding="UTF-8" standalone="no"?>
<!DOCTYPE svg PUBLIC "-//W3C//DTD SVG 1.1//EN"
 "http://www.w3.org/Graphics/SVG/1.1/DTD/svg11.dtd">
<!-- Generated by graphviz version 2.43.0 (0)
 -->
<!-- Title: PhaseCenterData Pages: 1 -->
<svg width="656pt" height="974pt"
 viewBox="0.00 0.00 655.50 974.00" xmlns="http://www.w3.org/2000/svg" xmlns:xlink="http://www.w3.org/1999/xlink">
<g id="graph0" class="graph" transform="scale(1 1) rotate(0) translate(4 970)">
<title>PhaseCenterData</title>
<!-- Node1 -->
<g id="Node000001" class="node">
<title>Node1</title>
<g id="a_Node000001"><a xlink:href="structPhaseCenterData.html" target="_top" xlink:title=" ">
<path fill="white" stroke="#666666" stroke-width="2" d="M462,-57C462,-57 375,-57 375,-57 369,-57 363,-51 363,-45 363,-45 363,-12 363,-12 363,-6 369,0 375,0 375,0 462,0 462,0 468,0 474,-6 474,-12 474,-12 474,-45 474,-45 474,-51 468,-57 462,-57"/>
<text text-anchor="start" x="376.5" y="-40.5" font-family="Helvetica,sans-Serif" font-size="10.00">PhaseCenterData</text>
<text text-anchor="start" x="392" y="-25.5" font-family="Helvetica,sans-Serif" font-size="10.00">+</text>
<text text-anchor="start" x="421.5" y="-25.5" font-family="Helvetica,sans-Serif" font-size="10.00">ft</text>
<text text-anchor="start" x="417" y="-10.5" font-family="Helvetica,sans-Serif" font-size="10.00"> </text>
<polygon fill="#666666" stroke="#666666" points="371.5,-35.5 371.5,-35.5 466.5,-35.5 466.5,-35.5 371.5,-35.5"/>
<polygon fill="#666666" stroke="#666666" points="371.5,-20.5 371.5,-20.5 419.5,-20.5 419.5,-20.5 371.5,-20.5"/>
<polygon fill="#666666" stroke="#666666" points="419.5,-20.5 419.5,-20.5 466.5,-20.5 466.5,-20.5 419.5,-20.5"/>
<polygon fill="none" stroke="#666666" points="371,-4 371,-53 466,-53 466,-4 371,-4"/>
</a>
</g>
</g>
<!-- Node2 -->
<g id="Node000002" class="node">
<title>Node2</title>
<g id="a_Node000002"><a xlink:href="structAzElMapData.html" target="_top" xlink:title=" ">
<path fill="white" stroke="#666666" d="M326,-517C326,-517 203,-517 203,-517 197,-517 191,-511 191,-505 191,-505 191,-397 191,-397 191,-391 197,-385 203,-385 203,-385 326,-385 326,-385 332,-385 338,-391 338,-397 338,-397 338,-505 338,-505 338,-511 332,-517 326,-517"/>
<text text-anchor="start" x="204.5" y="-501" font-family="Helvetica,sans-Serif" font-size="10.00">AzElMapData&lt; double &gt;</text>
<text text-anchor="start" x="220" y="-486" font-family="Helvetica,sans-Serif" font-size="10.00">+</text>
<text text-anchor="start" x="249.5" y="-486" font-family="Helvetica,sans-Serif" font-size="10.00">aziDelta</text>
<text text-anchor="start" x="220" y="-471" font-family="Helvetica,sans-Serif" font-size="10.00">+</text>
<text text-anchor="start" x="249.5" y="-471" font-family="Helvetica,sans-Serif" font-size="10.00">zenStart</text>
<text text-anchor="start" x="220" y="-456" font-family="Helvetica,sans-Serif" font-size="10.00">+</text>
<text text-anchor="start" x="249.5" y="-456" font-family="Helvetica,sans-Serif" font-size="10.00">zenStop</text>
<text text-anchor="start" x="220" y="-441" font-family="Helvetica,sans-Serif" font-size="10.00">+</text>
<text text-anchor="start" x="249.5" y="-441" font-family="Helvetica,sans-Serif" font-size="10.00">zenDelta</text>
<text text-anchor="start" x="220" y="-426" font-family="Helvetica,sans-Serif" font-size="10.00">+</text>
<text text-anchor="start" x="249.5" y="-426" font-family="Helvetica,sans-Serif" font-size="10.00">nz</text>
<text text-anchor="start" x="220" y="-411" font-family="Helvetica,sans-Serif" font-size="10.00">+</text>
<text text-anchor="start" x="249.5" y="-411" font-family="Helvetica,sans-Serif" font-size="10.00">naz</text>
<text text-anchor="start" x="263" y="-396" font-family="Helvetica,sans-Serif" font-size="10.00"> </text>
<polygon fill="#666666" stroke="#666666" points="199.5,-496 199.5,-496 330.5,-496 330.5,-496 199.5,-496"/>
<polygon fill="#666666" stroke="#666666" points="199.5,-406 199.5,-406 247.5,-406 247.5,-406 199.5,-406"/>
<polygon fill="#666666" stroke="#666666" points="247.5,-406 247.5,-406 330.5,-406 330.5,-406 247.5,-406"/>
<polygon fill="none" stroke="#666666" points="199,-389 199,-513 330,-513 330,-389 199,-389"/>
</a>
</g>
</g>
<!-- Node2&#45;&gt;Node1 -->
<g id="edge1_Node000001_Node000002" class="edge">
<title>Node2&#45;&gt;Node1</title>
<g id="a_edge1_Node000001_Node000002"><a xlink:title=" ">
<path fill="none" stroke="#63b8ff" d="M291.89,-375.21C326.65,-280.29 384.91,-121.23 408.31,-57.32"/>
<polygon fill="none" stroke="#63b8ff" points="288.55,-374.16 288.39,-384.76 295.12,-376.57 288.55,-374.16"/>
</a>
</g>
</g>
<!-- Node3 -->
<g id="Node000003" class="node">
<title>Node3</title>
<g id="a_Node000003"><a xlink:title=" ">
<path fill="#fff0f0" stroke="red" d="M101,-928.5C101,-928.5 12,-928.5 12,-928.5 6,-928.5 0,-922.5 0,-916.5 0,-916.5 0,-883.5 0,-883.5 0,-877.5 6,-871.5 12,-871.5 12,-871.5 101,-871.5 101,-871.5 107,-871.5 113,-877.5 113,-883.5 113,-883.5 113,-916.5 113,-916.5 113,-922.5 107,-928.5 101,-928.5"/>
<text text-anchor="start" x="13.5" y="-912" font-family="Helvetica,sans-Serif" font-size="10.00">vector&lt; double &gt;</text>
<text text-anchor="start" x="55" y="-897" font-family="Helvetica,sans-Serif" font-size="10.00"> </text>
<text text-anchor="start" x="55" y="-882" font-family="Helvetica,sans-Serif" font-size="10.00"> </text>
<polygon fill="red" stroke="red" points="8.5,-907 8.5,-907 105.5,-907 105.5,-907 8.5,-907"/>
<polygon fill="red" stroke="red" points="8.5,-892 8.5,-892 105.5,-892 105.5,-892 8.5,-892"/>
<polygon fill="none" stroke="red" points="8,-875.5 8,-924.5 105,-924.5 105,-875.5 8,-875.5"/>
</a>
</g>
</g>
<!-- Node3&#45;&gt;Node2 -->
<g id="edge2_Node000002_Node000003" class="edge">
<title>Node3&#45;&gt;Node2</title>
<g id="a_edge2_Node000002_Node000003"><a xlink:title=" ">
<path fill="none" stroke="#63b8ff" d="M69.35,-871.38C100.69,-804.04 181.87,-629.57 229.07,-528.14"/>
<polygon fill="none" stroke="#63b8ff" points="229.17,-527.93 228.07,-520.8 234.23,-517.05 235.33,-524.17 229.17,-527.93"/>
</a>
</g>
<text text-anchor="middle" x="117.5" y="-808" font-family="Helvetica,sans-Serif" font-size="10.00" fill="grey"> +elMap</text>
</g>
<!-- Node5 -->
<g id="Node000005" class="node">
<title>Node5</title>
<g id="a_Node000005"><a xlink:title=" ">
<path fill="#fff0f0" stroke="red" d="M295.5,-928.5C295.5,-928.5 143.5,-928.5 143.5,-928.5 137.5,-928.5 131.5,-922.5 131.5,-916.5 131.5,-916.5 131.5,-883.5 131.5,-883.5 131.5,-877.5 137.5,-871.5 143.5,-871.5 143.5,-871.5 295.5,-871.5 295.5,-871.5 301.5,-871.5 307.5,-877.5 307.5,-883.5 307.5,-883.5 307.5,-916.5 307.5,-916.5 307.5,-922.5 301.5,-928.5 295.5,-928.5"/>
<text text-anchor="start" x="144.5" y="-912" font-family="Helvetica,sans-Serif" font-size="10.00">map&lt; int, vector&lt; double &gt; &gt;</text>
<text text-anchor="start" x="217.5" y="-897" font-family="Helvetica,sans-Serif" font-size="10.00"> </text>
<text text-anchor="start" x="217.5" y="-882" font-family="Helvetica,sans-Serif" font-size="10.00"> </text>
<polygon fill="red" stroke="red" points="139.5,-907 139.5,-907 299.5,-907 299.5,-907 139.5,-907"/>
<polygon fill="red" stroke="red" points="139.5,-892 139.5,-892 299.5,-892 299.5,-892 139.5,-892"/>
<polygon fill="none" stroke="red" points="139.5,-875.5 139.5,-924.5 299.5,-924.5 299.5,-875.5 139.5,-875.5"/>
</a>
</g>
</g>
<!-- Node5&#45;&gt;Node2 -->
<g id="edge3_Node000002_Node000005" class="edge">
<title>Node5&#45;&gt;Node2</title>
<g id="a_edge3_Node000002_Node000005"><a xlink:title=" ">
<path fill="none" stroke="#63b8ff" d="M222.28,-871.38C229.04,-804.25 246.52,-630.63 256.74,-529.06"/>
<polygon fill="none" stroke="#63b8ff" points="256.75,-528.99 253.37,-522.62 257.95,-517.05 261.33,-523.42 256.75,-528.99"/>
</a>
</g>
<text text-anchor="middle" x="255" y="-808" font-family="Helvetica,sans-Serif" font-size="10.00" fill="grey"> +azElMap</text>
</g>
<!-- Node7 -->
<g id="Node000007" class="node">
<title>Node7</title>
<g id="a_Node000007"><a xlink:href="structAzElMapData.html" target="_top" xlink:title=" ">
<path fill="#fff0f0" stroke="red" d="M451.5,-966C451.5,-966 337.5,-966 337.5,-966 331.5,-966 325.5,-960 325.5,-954 325.5,-954 325.5,-846 325.5,-846 325.5,-840 331.5,-834 337.5,-834 337.5,-834 451.5,-834 451.5,-834 457.5,-834 463.5,-840 463.5,-846 463.5,-846 463.5,-954 463.5,-954 463.5,-960 457.5,-966 451.5,-966"/>
<text text-anchor="start" x="338.5" y="-950" font-family="Helvetica,sans-Serif" font-size="10.00">AzElMapData&lt; TYPE &gt;</text>
<text text-anchor="start" x="351.5" y="-935" font-family="Helvetica,sans-Serif" font-size="10.00">+</text>
<text text-anchor="start" x="378.5" y="-935" font-family="Helvetica,sans-Serif" font-size="10.00">aziDelta</text>
<text text-anchor="start" x="351.5" y="-920" font-family="Helvetica,sans-Serif" font-size="10.00">+</text>
<text text-anchor="start" x="378.5" y="-920" font-family="Helvetica,sans-Serif" font-size="10.00">zenStart</text>
<text text-anchor="start" x="351.5" y="-905" font-family="Helvetica,sans-Serif" font-size="10.00">+</text>
<text text-anchor="start" x="378.5" y="-905" font-family="Helvetica,sans-Serif" font-size="10.00">zenStop</text>
<text text-anchor="start" x="351.5" y="-890" font-family="Helvetica,sans-Serif" font-size="10.00">+</text>
<text text-anchor="start" x="378.5" y="-890" font-family="Helvetica,sans-Serif" font-size="10.00">zenDelta</text>
<text text-anchor="start" x="351.5" y="-875" font-family="Helvetica,sans-Serif" font-size="10.00">+</text>
<text text-anchor="start" x="378.5" y="-875" font-family="Helvetica,sans-Serif" font-size="10.00">nz</text>
<text text-anchor="start" x="351.5" y="-860" font-family="Helvetica,sans-Serif" font-size="10.00">+</text>
<text text-anchor="start" x="378.5" y="-860" font-family="Helvetica,sans-Serif" font-size="10.00">naz</text>
<text text-anchor="start" x="392.5" y="-845" font-family="Helvetica,sans-Serif" font-size="10.00"> </text>
<polygon fill="red" stroke="red" points="333.5,-945 333.5,-945 455.5,-945 455.5,-945 333.5,-945"/>
<polygon fill="red" stroke="red" points="333.5,-855 333.5,-855 376.5,-855 376.5,-855 333.5,-855"/>
<polygon fill="red" stroke="red" points="376.5,-855 376.5,-855 455.5,-855 455.5,-855 376.5,-855"/>
<polygon fill="none" stroke="red" points="333.5,-838 333.5,-962 455.5,-962 455.5,-838 333.5,-838"/>
</a>
</g>
</g>
<!-- Node7&#45;&gt;Node2 -->
<g id="edge4_Node000002_Node000007" class="edge">
<title>Node7&#45;&gt;Node2</title>
<g id="a_edge4_Node000002_Node000007"><a xlink:title=" ">
<path fill="none" stroke="orange" d="M349.15,-824.63C347.85,-821.75 346.63,-818.86 345.5,-816 305.85,-715.59 283.48,-591.55 272.71,-517.27"/>
<polygon fill="orange" stroke="orange" points="346.05,-826.27 353.5,-833.81 352.38,-823.27 346.05,-826.27"/>
</a>
</g>
<text text-anchor="middle" x="375" y="-808" font-family="Helvetica,sans-Serif" font-size="10.00" fill="grey"> &lt; double &gt;</text>
</g>
<!-- Node10 -->
<g id="Node000010" class="node">
<title>Node10</title>
<g id="a_Node000010"><a xlink:title=" ">
<path fill="white" stroke="#666666" d="M540.5,-928.5C540.5,-928.5 510.5,-928.5 510.5,-928.5 504.5,-928.5 498.5,-922.5 498.5,-916.5 498.5,-916.5 498.5,-883.5 498.5,-883.5 498.5,-877.5 504.5,-871.5 510.5,-871.5 510.5,-871.5 540.5,-871.5 540.5,-871.5 546.5,-871.5 552.5,-877.5 552.5,-883.5 552.5,-883.5 552.5,-916.5 552.5,-916.5 552.5,-922.5 546.5,-928.5 540.5,-928.5"/>
<text text-anchor="start" x="511.5" y="-912" font-family="Helvetica,sans-Serif" font-size="10.00">string</text>
<text text-anchor="start" x="523.5" y="-897" font-family="Helvetica,sans-Serif" font-size="10.00"> </text>
<text text-anchor="start" x="523.5" y="-882" font-family="Helvetica,sans-Serif" font-size="10.00"> </text>
<polygon fill="#666666" stroke="#666666" points="506.5,-907 506.5,-907 544.5,-907 544.5,-907 506.5,-907"/>
<polygon fill="#666666" stroke="#666666" points="506.5,-892 506.5,-892 544.5,-892 544.5,-892 506.5,-892"/>
<polygon fill="none" stroke="#666666" points="506.5,-875.5 506.5,-924.5 544.5,-924.5 544.5,-875.5 506.5,-875.5"/>
</a>
</g>
</g>
<!-- Node10&#45;&gt;Node1 -->
<g id="edge5_Node000001_Node000010" class="edge">
<title>Node10&#45;&gt;Node1</title>
<g id="a_edge5_Node000001_Node000010"><a xlink:title=" ">
<path fill="none" stroke="#63b8ff" d="M503.8,-871.4C494.38,-859.69 483.11,-846 472.5,-834 453.35,-812.33 438.44,-813.77 427.5,-787 373.78,-655.49 404.32,-206.5 415.16,-69.51"/>
<polygon fill="none" stroke="#63b8ff" points="415.19,-69.21 411.68,-62.91 416.15,-57.25 419.65,-63.55 415.19,-69.21"/>
</a>
</g>
<text text-anchor="middle" x="460" y="-470.5" font-family="Helvetica,sans-Serif" font-size="10.00" fill="grey"> +calibModel</text>
<text text-anchor="middle" x="460" y="-459.5" font-family="Helvetica,sans-Serif" font-size="10.00" fill="grey">+code</text>
<text text-anchor="middle" x="460" y="-448.5" font-family="Helvetica,sans-Serif" font-size="10.00" fill="grey">+cospar</text>
<text text-anchor="middle" x="460" y="-437.5" font-family="Helvetica,sans-Serif" font-size="10.00" fill="grey">+svn</text>
<text text-anchor="middle" x="460" y="-426.5" font-family="Helvetica,sans-Serif" font-size="10.00" fill="grey">+type</text>
</g>
<!-- Node11 -->
<g id="Node000011" class="node">
<title>Node11</title>
<g id="a_Node000011"><a xlink:href="structGTime.html" target="_top" xlink:title="Time structure used throughout this software.">
<path fill="white" stroke="#666666" d="M635.5,-787C635.5,-787 513.5,-787 513.5,-787 507.5,-787 501.5,-781 501.5,-775 501.5,-775 501.5,-127 501.5,-127 501.5,-121 507.5,-115 513.5,-115 513.5,-115 635.5,-115 635.5,-115 641.5,-115 647.5,-121 647.5,-127 647.5,-127 647.5,-775 647.5,-775 647.5,-781 641.5,-787 635.5,-787"/>
<text text-anchor="start" x="558" y="-771" font-family="Helvetica,sans-Serif" font-size="10.00">GTime</text>
<text text-anchor="start" x="513.5" y="-756" font-family="Helvetica,sans-Serif" font-size="10.00">+</text>
<text text-anchor="start" x="526.5" y="-756" font-family="Helvetica,sans-Serif" font-size="10.00">cacheN</text>
<text text-anchor="start" x="513.5" y="-741" font-family="Helvetica,sans-Serif" font-size="10.00">+</text>
<text text-anchor="start" x="526.5" y="-741" font-family="Helvetica,sans-Serif" font-size="10.00">cacheTime</text>
<text text-anchor="start" x="513.5" y="-726" font-family="Helvetica,sans-Serif" font-size="10.00">+</text>
<text text-anchor="start" x="526.5" y="-726" font-family="Helvetica,sans-Serif" font-size="10.00">bigTime</text>
<text text-anchor="start" x="513.5" y="-711" font-family="Helvetica,sans-Serif" font-size="10.00">+</text>
<text text-anchor="start" x="526.5" y="-711" font-family="Helvetica,sans-Serif" font-size="10.00">GTime()</text>
<text text-anchor="start" x="513.5" y="-696" font-family="Helvetica,sans-Serif" font-size="10.00">+</text>
<text text-anchor="start" x="526.5" y="-696" font-family="Helvetica,sans-Serif" font-size="10.00">GTime()</text>
<text text-anchor="start" x="513.5" y="-681" font-family="Helvetica,sans-Serif" font-size="10.00">+</text>
<text text-anchor="start" x="526.5" y="-681" font-family="Helvetica,sans-Serif" font-size="10.00">GTime()</text>
<text text-anchor="start" x="513.5" y="-666" font-family="Helvetica,sans-Serif" font-size="10.00">+</text>
<text text-anchor="start" x="526.5" y="-666" font-family="Helvetica,sans-Serif" font-size="10.00">to_string()</text>
<text text-anchor="start" x="513.5" y="-651" font-family="Helvetica,sans-Serif" font-size="10.00">+</text>
<text text-anchor="start" x="526.5" y="-651" font-family="Helvetica,sans-Serif" font-size="10.00">to_ISOstring()</text>
<text text-anchor="start" x="513.5" y="-636" font-family="Helvetica,sans-Serif" font-size="10.00">+</text>
<text text-anchor="start" x="526.5" y="-636" font-family="Helvetica,sans-Serif" font-size="10.00">to_decYear()</text>
<text text-anchor="start" x="513.5" y="-621" font-family="Helvetica,sans-Serif" font-size="10.00">+</text>
<text text-anchor="start" x="526.5" y="-621" font-family="Helvetica,sans-Serif" font-size="10.00">operator==()</text>
<text text-anchor="start" x="513.5" y="-606" font-family="Helvetica,sans-Serif" font-size="10.00">+</text>
<text text-anchor="start" x="526.5" y="-606" font-family="Helvetica,sans-Serif" font-size="10.00">operator!=()</text>
<text text-anchor="start" x="513.5" y="-591" font-family="Helvetica,sans-Serif" font-size="10.00">+</text>
<text text-anchor="start" x="526.5" y="-591" font-family="Helvetica,sans-Serif" font-size="10.00">operator&lt;()</text>
<text text-anchor="start" x="513.5" y="-576" font-family="Helvetica,sans-Serif" font-size="10.00">+</text>
<text text-anchor="start" x="526.5" y="-576" font-family="Helvetica,sans-Serif" font-size="10.00">operator&gt;()</text>
<text text-anchor="start" x="513.5" y="-561" font-family="Helvetica,sans-Serif" font-size="10.00">+</text>
<text text-anchor="start" x="526.5" y="-561" font-family="Helvetica,sans-Serif" font-size="10.00">operator&gt;=()</text>
<text text-anchor="start" x="513.5" y="-546" font-family="Helvetica,sans-Serif" font-size="10.00">+</text>
<text text-anchor="start" x="526.5" y="-546" font-family="Helvetica,sans-Serif" font-size="10.00">operator+()</text>
<text text-anchor="start" x="513.5" y="-531" font-family="Helvetica,sans-Serif" font-size="10.00">+</text>
<text text-anchor="start" x="526.5" y="-531" font-family="Helvetica,sans-Serif" font-size="10.00">operator+()</text>
<text text-anchor="start" x="513.5" y="-516" font-family="Helvetica,sans-Serif" font-size="10.00">+</text>
<text text-anchor="start" x="526.5" y="-516" font-family="Helvetica,sans-Serif" font-size="10.00">operator+()</text>
<text text-anchor="start" x="513.5" y="-501" font-family="Helvetica,sans-Serif" font-size="10.00">+</text>
<text text-anchor="start" x="526.5" y="-501" font-family="Helvetica,sans-Serif" font-size="10.00">operator+=()</text>
<text text-anchor="start" x="513.5" y="-486" font-family="Helvetica,sans-Serif" font-size="10.00">+</text>
<text text-anchor="start" x="526.5" y="-486" font-family="Helvetica,sans-Serif" font-size="10.00">operator&#45;=()</text>
<text text-anchor="start" x="513.5" y="-471" font-family="Helvetica,sans-Serif" font-size="10.00">+</text>
<text text-anchor="start" x="526.5" y="-471" font-family="Helvetica,sans-Serif" font-size="10.00">operator&#45;()</text>
<text text-anchor="start" x="513.5" y="-456" font-family="Helvetica,sans-Serif" font-size="10.00">+</text>
<text text-anchor="start" x="526.5" y="-456" font-family="Helvetica,sans-Serif" font-size="10.00">operator&#45;()</text>
<text text-anchor="start" x="513.5" y="-441" font-family="Helvetica,sans-Serif" font-size="10.00">+</text>
<text text-anchor="start" x="526.5" y="-441" font-family="Helvetica,sans-Serif" font-size="10.00">operator&#45;()</text>
<text text-anchor="start" x="513.5" y="-426" font-family="Helvetica,sans-Serif" font-size="10.00">+</text>
<text text-anchor="start" x="526.5" y="-426" font-family="Helvetica,sans-Serif" font-size="10.00">operator++()</text>
<text text-anchor="start" x="513.5" y="-411" font-family="Helvetica,sans-Serif" font-size="10.00">+</text>
<text text-anchor="start" x="526.5" y="-411" font-family="Helvetica,sans-Serif" font-size="10.00">GTime()</text>
<text text-anchor="start" x="513.5" y="-396" font-family="Helvetica,sans-Serif" font-size="10.00">+</text>
<text text-anchor="start" x="526.5" y="-396" font-family="Helvetica,sans-Serif" font-size="10.00">GTime()</text>
<text text-anchor="start" x="513.5" y="-381" font-family="Helvetica,sans-Serif" font-size="10.00">+</text>
<text text-anchor="start" x="526.5" y="-381" font-family="Helvetica,sans-Serif" font-size="10.00">GTime()</text>
<text text-anchor="start" x="513.5" y="-366" font-family="Helvetica,sans-Serif" font-size="10.00">+</text>
<text text-anchor="start" x="526.5" y="-366" font-family="Helvetica,sans-Serif" font-size="10.00">GTime()</text>
<text text-anchor="start" x="513.5" y="-351" font-family="Helvetica,sans-Serif" font-size="10.00">+</text>
<text text-anchor="start" x="526.5" y="-351" font-family="Helvetica,sans-Serif" font-size="10.00">GTime()</text>
<text text-anchor="start" x="513.5" y="-336" font-family="Helvetica,sans-Serif" font-size="10.00">+</text>
<text text-anchor="start" x="526.5" y="-336" font-family="Helvetica,sans-Serif" font-size="10.00">serialize()</text>
<text text-anchor="start" x="513.5" y="-321" font-family="Helvetica,sans-Serif" font-size="10.00">+</text>
<text text-anchor="start" x="526.5" y="-321" font-family="Helvetica,sans-Serif" font-size="10.00">floorTime()</text>
<text text-anchor="start" x="513.5" y="-306" font-family="Helvetica,sans-Serif" font-size="10.00">+</text>
<text text-anchor="start" x="526.5" y="-306" font-family="Helvetica,sans-Serif" font-size="10.00">gregString()</text>
<text text-anchor="start" x="513.5" y="-291" font-family="Helvetica,sans-Serif" font-size="10.00">+</text>
<text text-anchor="start" x="526.5" y="-291" font-family="Helvetica,sans-Serif" font-size="10.00">operator long double()</text>
<text text-anchor="start" x="513.5" y="-276" font-family="Helvetica,sans-Serif" font-size="10.00">+</text>
<text text-anchor="start" x="526.5" y="-276" font-family="Helvetica,sans-Serif" font-size="10.00">operator MjDateTT()</text>
<text text-anchor="start" x="513.5" y="-261" font-family="Helvetica,sans-Serif" font-size="10.00">+</text>
<text text-anchor="start" x="526.5" y="-261" font-family="Helvetica,sans-Serif" font-size="10.00">operator GEpoch()</text>
<text text-anchor="start" x="513.5" y="-246" font-family="Helvetica,sans-Serif" font-size="10.00">+</text>
<text text-anchor="start" x="526.5" y="-246" font-family="Helvetica,sans-Serif" font-size="10.00">operator UtcTime()</text>
<text text-anchor="start" x="513.5" y="-231" font-family="Helvetica,sans-Serif" font-size="10.00">+</text>
<text text-anchor="start" x="526.5" y="-231" font-family="Helvetica,sans-Serif" font-size="10.00">operator GWeek()</text>
<text text-anchor="start" x="513.5" y="-216" font-family="Helvetica,sans-Serif" font-size="10.00">+</text>
<text text-anchor="start" x="526.5" y="-216" font-family="Helvetica,sans-Serif" font-size="10.00">operator BWeek()</text>
<text text-anchor="start" x="513.5" y="-201" font-family="Helvetica,sans-Serif" font-size="10.00">+</text>
<text text-anchor="start" x="526.5" y="-201" font-family="Helvetica,sans-Serif" font-size="10.00">operator GTow()</text>
<text text-anchor="start" x="513.5" y="-186" font-family="Helvetica,sans-Serif" font-size="10.00">+</text>
<text text-anchor="start" x="526.5" y="-186" font-family="Helvetica,sans-Serif" font-size="10.00">operator BTow()</text>
<text text-anchor="start" x="513.5" y="-171" font-family="Helvetica,sans-Serif" font-size="10.00">+</text>
<text text-anchor="start" x="526.5" y="-171" font-family="Helvetica,sans-Serif" font-size="10.00">operator PTime()</text>
<text text-anchor="start" x="513.5" y="-156" font-family="Helvetica,sans-Serif" font-size="10.00">+</text>
<text text-anchor="start" x="526.5" y="-156" font-family="Helvetica,sans-Serif" font-size="10.00">operator string()</text>
<text text-anchor="start" x="513.5" y="-141" font-family="Helvetica,sans-Serif" font-size="10.00">+</text>
<text text-anchor="start" x="526.5" y="-141" font-family="Helvetica,sans-Serif" font-size="10.00">operator RTod()</text>
<text text-anchor="start" x="513.5" y="-126" font-family="Helvetica,sans-Serif" font-size="10.00">+</text>
<text text-anchor="start" x="526.5" y="-126" font-family="Helvetica,sans-Serif" font-size="10.00">noTime()</text>
<polygon fill="#666666" stroke="#666666" points="509.5,-766 509.5,-766 639.5,-766 639.5,-766 509.5,-766"/>
<polygon fill="#666666" stroke="#666666" points="509.5,-721 509.5,-721 524.5,-721 524.5,-721 509.5,-721"/>
<polygon fill="#666666" stroke="#666666" points="524.5,-721 524.5,-721 639.5,-721 639.5,-721 524.5,-721"/>
<polygon fill="none" stroke="#666666" points="509.5,-119 509.5,-783 639.5,-783 639.5,-119 509.5,-119"/>
</a>
</g>
</g>
<!-- Node10&#45;&gt;Node11 -->
<g id="edge7_Node000011_Node000010" class="edge">
<title>Node10&#45;&gt;Node11</title>
<g id="a_edge7_Node000011_Node000010"><a xlink:title=" ">
<path fill="none" stroke="#63b8ff" d="M528.53,-871.38C530.46,-853.73 533.2,-828.71 536.4,-799.59"/>
<polygon fill="none" stroke="#63b8ff" points="536.43,-799.25 533.11,-792.85 537.74,-787.32 541.06,-793.72 536.43,-799.25"/>
</a>
</g>
<text text-anchor="middle" x="569" y="-808" font-family="Helvetica,sans-Serif" font-size="10.00" fill="grey"> +cacheString</text>
</g>
<!-- Node11&#45;&gt;Node1 -->
<g id="edge6_Node000001_Node000011" class="edge">
<title>Node11&#45;&gt;Node1</title>
<g id="a_edge6_Node000001_Node000011"><a xlink:title=" ">
<path fill="none" stroke="#63b8ff" d="M501.34,-144.78C496.98,-134.62 492.37,-124.66 487.5,-115 478.79,-97.7 466.13,-80.67 454.02,-66.42"/>
<polygon fill="none" stroke="#63b8ff" points="453.7,-66.05 446.74,-64.17 445.79,-57.02 452.75,-58.9 453.7,-66.05"/>
</a>
</g>
<text text-anchor="middle" x="507" y="-89" font-family="Helvetica,sans-Serif" font-size="10.00" fill="grey"> +validFrom</text>
<text text-anchor="middle" x="507" y="-78" font-family="Helvetica,sans-Serif" font-size="10.00" fill="grey">+validUntil</text>
</g>
</g>
</svg>
