<?xml version="1.0" encoding="UTF-8" standalone="no"?>
<!DOCTYPE svg PUBLIC "-//W3C//DTD SVG 1.1//EN"
 "http://www.w3.org/Graphics/SVG/1.1/DTD/svg11.dtd">
<!-- Generated by graphviz version 2.43.0 (0)
 -->
<!-- Title: StreamParser Pages: 1 -->
<svg width="242pt" height="378pt"
 viewBox="0.00 0.00 242.00 378.00" xmlns="http://www.w3.org/2000/svg" xmlns:xlink="http://www.w3.org/1999/xlink">
<g id="graph0" class="graph" transform="scale(1 1) rotate(0) translate(4 374)">
<title>StreamParser</title>
<!-- Node1 -->
<g id="Node000001" class="node">
<title>Node1</title>
<g id="a_Node000001"><a xlink:href="structStreamParser.html" target="_top" xlink:title=" ">
<path fill="white" stroke="#666666" stroke-width="2" d="M205.5,-117C205.5,-117 94.5,-117 94.5,-117 88.5,-117 82.5,-111 82.5,-105 82.5,-105 82.5,-12 82.5,-12 82.5,-6 88.5,0 94.5,0 94.5,0 205.5,0 205.5,0 211.5,0 217.5,-6 217.5,-12 217.5,-12 217.5,-105 217.5,-105 217.5,-111 211.5,-117 205.5,-117"/>
<text text-anchor="start" x="117.5" y="-100.5" font-family="Helvetica,sans-Serif" font-size="10.00">StreamParser</text>
<text text-anchor="start" x="148.5" y="-85.5" font-family="Helvetica,sans-Serif" font-size="10.00"> </text>
<text text-anchor="start" x="95" y="-70.5" font-family="Helvetica,sans-Serif" font-size="10.00">+</text>
<text text-anchor="start" x="108" y="-70.5" font-family="Helvetica,sans-Serif" font-size="10.00">StreamParser()</text>
<text text-anchor="start" x="95" y="-55.5" font-family="Helvetica,sans-Serif" font-size="10.00">+</text>
<text text-anchor="start" x="108" y="-55.5" font-family="Helvetica,sans-Serif" font-size="10.00">operator Stream &amp;()</text>
<text text-anchor="start" x="95" y="-40.5" font-family="Helvetica,sans-Serif" font-size="10.00">+</text>
<text text-anchor="start" x="108" y="-40.5" font-family="Helvetica,sans-Serif" font-size="10.00">operator Parser &amp;()</text>
<text text-anchor="start" x="95" y="-25.5" font-family="Helvetica,sans-Serif" font-size="10.00">+</text>
<text text-anchor="start" x="108" y="-25.5" font-family="Helvetica,sans-Serif" font-size="10.00">parse()</text>
<text text-anchor="start" x="95" y="-10.5" font-family="Helvetica,sans-Serif" font-size="10.00">+</text>
<text text-anchor="start" x="108" y="-10.5" font-family="Helvetica,sans-Serif" font-size="10.00">~StreamParser()</text>
<polygon fill="#666666" stroke="#666666" points="91,-95.5 91,-95.5 210,-95.5 210,-95.5 91,-95.5"/>
<polygon fill="#666666" stroke="#666666" points="91,-80.5 91,-80.5 210,-80.5 210,-80.5 91,-80.5"/>
<polygon fill="none" stroke="#666666" points="90.5,-4 90.5,-113 209.5,-113 209.5,-4 90.5,-4"/>
</a>
</g>
</g>
<!-- Node2 -->
<g id="Node000002" class="node">
<title>Node2</title>
<g id="a_Node000002"><a xlink:href="structStream.html" target="_top" xlink:title=" ">
<path fill="white" stroke="#666666" d="M106,-266C106,-266 12,-266 12,-266 6,-266 0,-260 0,-254 0,-254 0,-176 0,-176 0,-170 6,-164 12,-164 12,-164 106,-164 106,-164 112,-164 118,-170 118,-176 118,-176 118,-254 118,-254 118,-260 112,-266 106,-266"/>
<text text-anchor="start" x="41" y="-250" font-family="Helvetica,sans-Serif" font-size="10.00">Stream</text>
<text text-anchor="start" x="57" y="-235" font-family="Helvetica,sans-Serif" font-size="10.00"> </text>
<text text-anchor="start" x="12" y="-220" font-family="Helvetica,sans-Serif" font-size="10.00">+</text>
<text text-anchor="start" x="25" y="-220" font-family="Helvetica,sans-Serif" font-size="10.00">getIStream_ptr()</text>
<text text-anchor="start" x="12" y="-205" font-family="Helvetica,sans-Serif" font-size="10.00">+</text>
<text text-anchor="start" x="25" y="-205" font-family="Helvetica,sans-Serif" font-size="10.00">isDead()</text>
<text text-anchor="start" x="12" y="-190" font-family="Helvetica,sans-Serif" font-size="10.00">+</text>
<text text-anchor="start" x="25" y="-190" font-family="Helvetica,sans-Serif" font-size="10.00">isAvailable()</text>
<text text-anchor="start" x="12" y="-175" font-family="Helvetica,sans-Serif" font-size="10.00">+</text>
<text text-anchor="start" x="25" y="-175" font-family="Helvetica,sans-Serif" font-size="10.00">~Stream()</text>
<polygon fill="#666666" stroke="#666666" points="8,-245 8,-245 110,-245 110,-245 8,-245"/>
<polygon fill="#666666" stroke="#666666" points="8,-230 8,-230 110,-230 110,-230 8,-230"/>
<polygon fill="none" stroke="#666666" points="8,-168 8,-262 110,-262 110,-168 8,-168"/>
</a>
</g>
</g>
<!-- Node2&#45;&gt;Node1 -->
<g id="edge1_Node000001_Node000002" class="edge">
<title>Node2&#45;&gt;Node1</title>
<g id="a_edge1_Node000001_Node000002"><a xlink:title=" ">
<path fill="none" stroke="#63b8ff" d="M88.55,-163.84C95.33,-152.32 102.65,-139.88 109.8,-127.75"/>
<polygon fill="none" stroke="#63b8ff" points="109.93,-127.53 109.53,-120.33 116.02,-117.19 116.42,-124.39 109.93,-127.53"/>
</a>
</g>
<text text-anchor="middle" x="128" y="-138" font-family="Helvetica,sans-Serif" font-size="10.00" fill="grey"> +stream</text>
</g>
<!-- Node3 -->
<g id="Node000003" class="node">
<title>Node3</title>
<g id="a_Node000003"><a xlink:title=" ">
<path fill="white" stroke="#666666" d="M74,-370C74,-370 44,-370 44,-370 38,-370 32,-364 32,-358 32,-358 32,-325 32,-325 32,-319 38,-313 44,-313 44,-313 74,-313 74,-313 80,-313 86,-319 86,-325 86,-325 86,-358 86,-358 86,-364 80,-370 74,-370"/>
<text text-anchor="start" x="45" y="-353.5" font-family="Helvetica,sans-Serif" font-size="10.00">string</text>
<text text-anchor="start" x="57" y="-338.5" font-family="Helvetica,sans-Serif" font-size="10.00"> </text>
<text text-anchor="start" x="57" y="-323.5" font-family="Helvetica,sans-Serif" font-size="10.00"> </text>
<polygon fill="#666666" stroke="#666666" points="40,-348.5 40,-348.5 78,-348.5 78,-348.5 40,-348.5"/>
<polygon fill="#666666" stroke="#666666" points="40,-333.5 40,-333.5 78,-333.5 78,-333.5 40,-333.5"/>
<polygon fill="none" stroke="#666666" points="40,-317 40,-366 78,-366 78,-317 40,-317"/>
</a>
</g>
</g>
<!-- Node3&#45;&gt;Node2 -->
<g id="edge2_Node000002_Node000003" class="edge">
<title>Node3&#45;&gt;Node2</title>
<g id="a_edge2_Node000002_Node000003"><a xlink:title=" ">
<path fill="none" stroke="#63b8ff" d="M59,-312.87C59,-302.55 59,-290.38 59,-278.2"/>
<polygon fill="none" stroke="#63b8ff" points="59,-278.1 55,-272.1 59,-266.1 63,-272.1 59,-278.1"/>
</a>
</g>
<text text-anchor="middle" x="95.5" y="-287" font-family="Helvetica,sans-Serif" font-size="10.00" fill="grey"> +sourceString</text>
</g>
<!-- Node4 -->
<g id="Node000004" class="node">
<title>Node4</title>
<g id="a_Node000004"><a xlink:href="structParser.html" target="_top" xlink:title=" ">
<path fill="white" stroke="#666666" d="M222,-258.5C222,-258.5 148,-258.5 148,-258.5 142,-258.5 136,-252.5 136,-246.5 136,-246.5 136,-183.5 136,-183.5 136,-177.5 142,-171.5 148,-171.5 148,-171.5 222,-171.5 222,-171.5 228,-171.5 234,-177.5 234,-183.5 234,-183.5 234,-246.5 234,-246.5 234,-252.5 228,-258.5 222,-258.5"/>
<text text-anchor="start" x="169.5" y="-242" font-family="Helvetica,sans-Serif" font-size="10.00">Parser</text>
<text text-anchor="start" x="183" y="-227" font-family="Helvetica,sans-Serif" font-size="10.00"> </text>
<text text-anchor="start" x="148" y="-212" font-family="Helvetica,sans-Serif" font-size="10.00">+</text>
<text text-anchor="start" x="161" y="-212" font-family="Helvetica,sans-Serif" font-size="10.00">parse()</text>
<text text-anchor="start" x="148" y="-197" font-family="Helvetica,sans-Serif" font-size="10.00">+</text>
<text text-anchor="start" x="161" y="-197" font-family="Helvetica,sans-Serif" font-size="10.00">parserType()</text>
<text text-anchor="start" x="148" y="-182" font-family="Helvetica,sans-Serif" font-size="10.00">+</text>
<text text-anchor="start" x="161" y="-182" font-family="Helvetica,sans-Serif" font-size="10.00">~Parser()</text>
<polygon fill="#666666" stroke="#666666" points="144,-237 144,-237 226,-237 226,-237 144,-237"/>
<polygon fill="#666666" stroke="#666666" points="144,-222 144,-222 226,-222 226,-222 144,-222"/>
<polygon fill="none" stroke="#666666" points="144,-175.5 144,-254.5 226,-254.5 226,-175.5 144,-175.5"/>
</a>
</g>
</g>
<!-- Node4&#45;&gt;Node1 -->
<g id="edge3_Node000001_Node000004" class="edge">
<title>Node4&#45;&gt;Node1</title>
<g id="a_edge3_Node000001_Node000004"><a xlink:title=" ">
<path fill="none" stroke="#63b8ff" d="M175.34,-171.37C172.37,-158.25 169.02,-143.46 165.75,-129.02"/>
<polygon fill="none" stroke="#63b8ff" points="165.68,-128.73 160.46,-123.76 163.03,-117.03 168.26,-121.99 165.68,-128.73"/>
</a>
</g>
<text text-anchor="middle" x="189.5" y="-138" font-family="Helvetica,sans-Serif" font-size="10.00" fill="grey"> +parser</text>
</g>
</g>
</svg>
