<?xml version="1.0" encoding="UTF-8" standalone="no"?>
<!DOCTYPE svg PUBLIC "-//W3C//DTD SVG 1.1//EN"
 "http://www.w3.org/Graphics/SVG/1.1/DTD/svg11.dtd">
<!-- Generated by graphviz version 2.43.0 (0)
 -->
<!-- Title: SerialStream Pages: 1 -->
<svg width="316pt" height="393pt"
 viewBox="0.00 0.00 315.50 393.00" xmlns="http://www.w3.org/2000/svg" xmlns:xlink="http://www.w3.org/1999/xlink">
<g id="graph0" class="graph" transform="scale(1 1) rotate(0) translate(4 389)">
<title>SerialStream</title>
<!-- Node1 -->
<g id="Node000001" class="node">
<title>Node1</title>
<g id="a_Node000001"><a xlink:href="structSerialStream.html" target="_top" xlink:title=" ">
<path fill="white" stroke="#666666" stroke-width="2" d="M201,-132C201,-132 107,-132 107,-132 101,-132 95,-126 95,-120 95,-120 95,-12 95,-12 95,-6 101,0 107,0 107,0 201,0 201,0 207,0 213,-6 213,-12 213,-12 213,-120 213,-120 213,-126 207,-132 201,-132"/>
<text text-anchor="start" x="122" y="-116" font-family="Helvetica,sans-Serif" font-size="10.00">SerialStream</text>
<text text-anchor="start" x="107" y="-101" font-family="Helvetica,sans-Serif" font-size="10.00">+</text>
<text text-anchor="start" x="120" y="-101" font-family="Helvetica,sans-Serif" font-size="10.00">fileDescriptor</text>
<text text-anchor="start" x="107" y="-86" font-family="Helvetica,sans-Serif" font-size="10.00">+</text>
<text text-anchor="start" x="120" y="-86" font-family="Helvetica,sans-Serif" font-size="10.00">SerialStream()</text>
<text text-anchor="start" x="107" y="-71" font-family="Helvetica,sans-Serif" font-size="10.00">+</text>
<text text-anchor="start" x="120" y="-71" font-family="Helvetica,sans-Serif" font-size="10.00">SerialStream()</text>
<text text-anchor="start" x="107" y="-56" font-family="Helvetica,sans-Serif" font-size="10.00">+</text>
<text text-anchor="start" x="120" y="-56" font-family="Helvetica,sans-Serif" font-size="10.00">openStream()</text>
<text text-anchor="start" x="107" y="-41" font-family="Helvetica,sans-Serif" font-size="10.00">+</text>
<text text-anchor="start" x="120" y="-41" font-family="Helvetica,sans-Serif" font-size="10.00">getData()</text>
<text text-anchor="start" x="107" y="-26" font-family="Helvetica,sans-Serif" font-size="10.00">+</text>
<text text-anchor="start" x="120" y="-26" font-family="Helvetica,sans-Serif" font-size="10.00">getIStream_ptr()</text>
<text text-anchor="start" x="107" y="-11" font-family="Helvetica,sans-Serif" font-size="10.00">+</text>
<text text-anchor="start" x="120" y="-11" font-family="Helvetica,sans-Serif" font-size="10.00">~SerialStream()</text>
<polygon fill="#666666" stroke="#666666" points="103,-111 103,-111 205,-111 205,-111 103,-111"/>
<polygon fill="#666666" stroke="#666666" points="103,-96 103,-96 118,-96 118,-96 103,-96"/>
<polygon fill="#666666" stroke="#666666" points="118,-96 118,-96 205,-96 205,-96 118,-96"/>
<polygon fill="none" stroke="#666666" points="103,-4 103,-128 205,-128 205,-4 103,-4"/>
</a>
</g>
</g>
<!-- Node2 -->
<g id="Node000002" class="node">
<title>Node2</title>
<g id="a_Node000002"><a xlink:href="structStream.html" target="_top" xlink:title=" ">
<path fill="white" stroke="#666666" d="M106,-281C106,-281 12,-281 12,-281 6,-281 0,-275 0,-269 0,-269 0,-191 0,-191 0,-185 6,-179 12,-179 12,-179 106,-179 106,-179 112,-179 118,-185 118,-191 118,-191 118,-269 118,-269 118,-275 112,-281 106,-281"/>
<text text-anchor="start" x="41" y="-265" font-family="Helvetica,sans-Serif" font-size="10.00">Stream</text>
<text text-anchor="start" x="57" y="-250" font-family="Helvetica,sans-Serif" font-size="10.00"> </text>
<text text-anchor="start" x="12" y="-235" font-family="Helvetica,sans-Serif" font-size="10.00">+</text>
<text text-anchor="start" x="25" y="-235" font-family="Helvetica,sans-Serif" font-size="10.00">getIStream_ptr()</text>
<text text-anchor="start" x="12" y="-220" font-family="Helvetica,sans-Serif" font-size="10.00">+</text>
<text text-anchor="start" x="25" y="-220" font-family="Helvetica,sans-Serif" font-size="10.00">isDead()</text>
<text text-anchor="start" x="12" y="-205" font-family="Helvetica,sans-Serif" font-size="10.00">+</text>
<text text-anchor="start" x="25" y="-205" font-family="Helvetica,sans-Serif" font-size="10.00">isAvailable()</text>
<text text-anchor="start" x="12" y="-190" font-family="Helvetica,sans-Serif" font-size="10.00">+</text>
<text text-anchor="start" x="25" y="-190" font-family="Helvetica,sans-Serif" font-size="10.00">~Stream()</text>
<polygon fill="#666666" stroke="#666666" points="8,-260 8,-260 110,-260 110,-260 8,-260"/>
<polygon fill="#666666" stroke="#666666" points="8,-245 8,-245 110,-245 110,-245 8,-245"/>
<polygon fill="none" stroke="#666666" points="8,-183 8,-277 110,-277 110,-183 8,-183"/>
</a>
</g>
</g>
<!-- Node2&#45;&gt;Node1 -->
<g id="edge1_Node000001_Node000002" class="edge">
<title>Node2&#45;&gt;Node1</title>
<g id="a_edge1_Node000001_Node000002"><a xlink:title=" ">
<path fill="none" stroke="#63b8ff" d="M93.68,-169.87C100.85,-157.64 108.44,-144.69 115.73,-132.25"/>
<polygon fill="none" stroke="#63b8ff" points="90.58,-168.23 88.54,-178.63 96.62,-171.77 90.58,-168.23"/>
</a>
</g>
</g>
<!-- Node3 -->
<g id="Node000003" class="node">
<title>Node3</title>
<g id="a_Node000003"><a xlink:title=" ">
<path fill="white" stroke="#666666" d="M124,-385C124,-385 94,-385 94,-385 88,-385 82,-379 82,-373 82,-373 82,-340 82,-340 82,-334 88,-328 94,-328 94,-328 124,-328 124,-328 130,-328 136,-334 136,-340 136,-340 136,-373 136,-373 136,-379 130,-385 124,-385"/>
<text text-anchor="start" x="95" y="-368.5" font-family="Helvetica,sans-Serif" font-size="10.00">string</text>
<text text-anchor="start" x="107" y="-353.5" font-family="Helvetica,sans-Serif" font-size="10.00"> </text>
<text text-anchor="start" x="107" y="-338.5" font-family="Helvetica,sans-Serif" font-size="10.00"> </text>
<polygon fill="#666666" stroke="#666666" points="90,-363.5 90,-363.5 128,-363.5 128,-363.5 90,-363.5"/>
<polygon fill="#666666" stroke="#666666" points="90,-348.5 90,-348.5 128,-348.5 128,-348.5 90,-348.5"/>
<polygon fill="none" stroke="#666666" points="90,-332 90,-381 128,-381 128,-332 90,-332"/>
</a>
</g>
</g>
<!-- Node3&#45;&gt;Node1 -->
<g id="edge3_Node000001_Node000003" class="edge">
<title>Node3&#45;&gt;Node1</title>
<g id="a_edge3_Node000001_Node000003"><a xlink:title=" ">
<path fill="none" stroke="#63b8ff" d="M131.21,-327.88C134.74,-322.25 137.91,-316.15 140,-310 158.12,-256.71 161.18,-193.08 159.94,-144.3"/>
<polygon fill="none" stroke="#63b8ff" points="159.93,-144.23 155.74,-138.37 159.53,-132.24 163.73,-138.1 159.93,-144.23"/>
</a>
</g>
<text text-anchor="middle" x="177" y="-227.5" font-family="Helvetica,sans-Serif" font-size="10.00" fill="grey"> +path</text>
</g>
<!-- Node3&#45;&gt;Node2 -->
<g id="edge2_Node000002_Node000003" class="edge">
<title>Node3&#45;&gt;Node2</title>
<g id="a_edge2_Node000002_Node000003"><a xlink:title=" ">
<path fill="none" stroke="#63b8ff" d="M81.75,-331.67C75.96,-325.23 70.53,-317.84 67,-310 64.61,-304.7 62.8,-299.01 61.42,-293.19"/>
<polygon fill="none" stroke="#63b8ff" points="61.38,-292.96 56.36,-287.79 59.2,-281.16 64.22,-286.33 61.38,-292.96"/>
</a>
</g>
<text text-anchor="middle" x="103.5" y="-302" font-family="Helvetica,sans-Serif" font-size="10.00" fill="grey"> +sourceString</text>
</g>
<!-- Node4 -->
<g id="Node000004" class="node">
<title>Node4</title>
<g id="a_Node000004"><a xlink:title=" ">
<path fill="white" stroke="#666666" d="M295.5,-258.5C295.5,-258.5 218.5,-258.5 218.5,-258.5 212.5,-258.5 206.5,-252.5 206.5,-246.5 206.5,-246.5 206.5,-213.5 206.5,-213.5 206.5,-207.5 212.5,-201.5 218.5,-201.5 218.5,-201.5 295.5,-201.5 295.5,-201.5 301.5,-201.5 307.5,-207.5 307.5,-213.5 307.5,-213.5 307.5,-246.5 307.5,-246.5 307.5,-252.5 301.5,-258.5 295.5,-258.5"/>
<text text-anchor="start" x="220" y="-242" font-family="Helvetica,sans-Serif" font-size="10.00">vector&lt; char &gt;</text>
<text text-anchor="start" x="255.5" y="-227" font-family="Helvetica,sans-Serif" font-size="10.00"> </text>
<text text-anchor="start" x="255.5" y="-212" font-family="Helvetica,sans-Serif" font-size="10.00"> </text>
<polygon fill="#666666" stroke="#666666" points="215,-237 215,-237 300,-237 300,-237 215,-237"/>
<polygon fill="#666666" stroke="#666666" points="215,-222 215,-222 300,-222 300,-222 215,-222"/>
<polygon fill="none" stroke="#666666" points="214.5,-205.5 214.5,-254.5 299.5,-254.5 299.5,-205.5 214.5,-205.5"/>
</a>
</g>
</g>
<!-- Node4&#45;&gt;Node1 -->
<g id="edge4_Node000001_Node000004" class="edge">
<title>Node4&#45;&gt;Node1</title>
<g id="a_edge4_Node000001_Node000004"><a xlink:title=" ">
<path fill="none" stroke="#63b8ff" d="M239.29,-201.15C228.91,-184.83 215.25,-163.34 201.92,-142.36"/>
<polygon fill="none" stroke="#63b8ff" points="201.85,-142.26 195.25,-139.34 195.41,-132.13 202.01,-135.05 201.85,-142.26"/>
</a>
</g>
<text text-anchor="middle" x="250.5" y="-153" font-family="Helvetica,sans-Serif" font-size="10.00" fill="grey"> +receivedData</text>
</g>
<!-- Node5 -->
<g id="Node000005" class="node">
<title>Node5</title>
<g id="a_Node000005"><a xlink:title=" ">
<path fill="white" stroke="#666666" d="M273.5,-385C273.5,-385 240.5,-385 240.5,-385 234.5,-385 228.5,-379 228.5,-373 228.5,-373 228.5,-340 228.5,-340 228.5,-334 234.5,-328 240.5,-328 240.5,-328 273.5,-328 273.5,-328 279.5,-328 285.5,-334 285.5,-340 285.5,-340 285.5,-373 285.5,-373 285.5,-379 279.5,-385 273.5,-385"/>
<text text-anchor="start" x="242" y="-368.5" font-family="Helvetica,sans-Serif" font-size="10.00">vector</text>
<text text-anchor="start" x="255.5" y="-353.5" font-family="Helvetica,sans-Serif" font-size="10.00"> </text>
<text text-anchor="start" x="255.5" y="-338.5" font-family="Helvetica,sans-Serif" font-size="10.00"> </text>
<polygon fill="#666666" stroke="#666666" points="237,-363.5 237,-363.5 278,-363.5 278,-363.5 237,-363.5"/>
<polygon fill="#666666" stroke="#666666" points="237,-348.5 237,-348.5 278,-348.5 278,-348.5 237,-348.5"/>
<polygon fill="none" stroke="#666666" points="236.5,-332 236.5,-381 277.5,-381 277.5,-332 236.5,-332"/>
</a>
</g>
</g>
<!-- Node5&#45;&gt;Node4 -->
<g id="edge5_Node000004_Node000005" class="edge">
<title>Node5&#45;&gt;Node4</title>
<g id="a_edge5_Node000004_Node000005"><a xlink:title=" ">
<path fill="none" stroke="orange" d="M257,-317.71C257,-298.65 257,-275.95 257,-258.55"/>
<polygon fill="orange" stroke="orange" points="253.5,-317.87 257,-327.87 260.5,-317.87 253.5,-317.87"/>
</a>
</g>
<text text-anchor="middle" x="280.5" y="-302" font-family="Helvetica,sans-Serif" font-size="10.00" fill="grey"> &lt; char &gt;</text>
</g>
</g>
</svg>
