<?xml version="1.0" encoding="UTF-8" standalone="no"?>
<!DOCTYPE svg PUBLIC "-//W3C//DTD SVG 1.1//EN"
 "http://www.w3.org/Graphics/SVG/1.1/DTD/svg11.dtd">
<!-- Generated by graphviz version 2.43.0 (0)
 -->
<!-- Title: TcpSocket Pages: 1 -->
<svg width="420pt" height="1547pt"
 viewBox="0.00 0.00 420.00 1547.00" xmlns="http://www.w3.org/2000/svg" xmlns:xlink="http://www.w3.org/1999/xlink">
<g id="graph0" class="graph" transform="scale(1 1) rotate(0) translate(4 1543)">
<title>TcpSocket</title>
<!-- Node1 -->
<g id="Node000001" class="node">
<title>Node1</title>
<g id="a_Node000001"><a xlink:href="structTcpSocket.html" target="_top" xlink:title=" ">
<path fill="white" stroke="#666666" stroke-width="2" d="M307,-1098C307,-1098 164,-1098 164,-1098 158,-1098 152,-1092 152,-1086 152,-1086 152,-483 152,-483 152,-477 158,-471 164,-471 164,-471 307,-471 307,-471 313,-471 319,-477 319,-483 319,-483 319,-1086 319,-1086 319,-1092 313,-1098 307,-1098"/>
<text text-anchor="start" x="211.5" y="-1081.5" font-family="Helvetica,sans-Serif" font-size="10.00">TcpSocket</text>
<text text-anchor="start" x="164.5" y="-1066.5" font-family="Helvetica,sans-Serif" font-size="10.00">+</text>
<text text-anchor="start" x="177.5" y="-1066.5" font-family="Helvetica,sans-Serif" font-size="10.00">url</text>
<text text-anchor="start" x="164.5" y="-1051.5" font-family="Helvetica,sans-Serif" font-size="10.00">+</text>
<text text-anchor="start" x="177.5" y="-1051.5" font-family="Helvetica,sans-Serif" font-size="10.00">reconnectDelay</text>
<text text-anchor="start" x="164.5" y="-1036.5" font-family="Helvetica,sans-Serif" font-size="10.00">+</text>
<text text-anchor="start" x="177.5" y="-1036.5" font-family="Helvetica,sans-Serif" font-size="10.00">disconnectionCount</text>
<text text-anchor="start" x="164.5" y="-1021.5" font-family="Helvetica,sans-Serif" font-size="10.00">+</text>
<text text-anchor="start" x="177.5" y="-1021.5" font-family="Helvetica,sans-Serif" font-size="10.00">isConnected</text>
<text text-anchor="start" x="164.5" y="-1006.5" font-family="Helvetica,sans-Serif" font-size="10.00">+</text>
<text text-anchor="start" x="177.5" y="-1006.5" font-family="Helvetica,sans-Serif" font-size="10.00">numberErroredChunks</text>
<text text-anchor="start" x="164.5" y="-991.5" font-family="Helvetica,sans-Serif" font-size="10.00">+</text>
<text text-anchor="start" x="177.5" y="-991.5" font-family="Helvetica,sans-Serif" font-size="10.00">logHttpSentReceived</text>
<text text-anchor="start" x="164.5" y="-976.5" font-family="Helvetica,sans-Serif" font-size="10.00">+</text>
<text text-anchor="start" x="177.5" y="-976.5" font-family="Helvetica,sans-Serif" font-size="10.00">content_length</text>
<text text-anchor="start" x="164.5" y="-961.5" font-family="Helvetica,sans-Serif" font-size="10.00">+</text>
<text text-anchor="start" x="177.5" y="-961.5" font-family="Helvetica,sans-Serif" font-size="10.00">sslContext</text>
<text text-anchor="start" x="164.5" y="-946.5" font-family="Helvetica,sans-Serif" font-size="10.00">+</text>
<text text-anchor="start" x="177.5" y="-946.5" font-family="Helvetica,sans-Serif" font-size="10.00">ioService</text>
<text text-anchor="start" x="164.5" y="-931.5" font-family="Helvetica,sans-Serif" font-size="10.00">#</text>
<text text-anchor="start" x="177.5" y="-931.5" font-family="Helvetica,sans-Serif" font-size="10.00">_socket</text>
<text text-anchor="start" x="164.5" y="-916.5" font-family="Helvetica,sans-Serif" font-size="10.00">#</text>
<text text-anchor="start" x="177.5" y="-916.5" font-family="Helvetica,sans-Serif" font-size="10.00">socket_ptr</text>
<text text-anchor="start" x="164.5" y="-901.5" font-family="Helvetica,sans-Serif" font-size="10.00">#</text>
<text text-anchor="start" x="177.5" y="-901.5" font-family="Helvetica,sans-Serif" font-size="10.00">_sslsocket</text>
<text text-anchor="start" x="164.5" y="-886.5" font-family="Helvetica,sans-Serif" font-size="10.00">#</text>
<text text-anchor="start" x="177.5" y="-886.5" font-family="Helvetica,sans-Serif" font-size="10.00">_resolver</text>
<text text-anchor="start" x="164.5" y="-871.5" font-family="Helvetica,sans-Serif" font-size="10.00">#</text>
<text text-anchor="start" x="177.5" y="-871.5" font-family="Helvetica,sans-Serif" font-size="10.00">timer</text>
<text text-anchor="start" x="164.5" y="-856.5" font-family="Helvetica,sans-Serif" font-size="10.00">#</text>
<text text-anchor="start" x="177.5" y="-856.5" font-family="Helvetica,sans-Serif" font-size="10.00">readUntilString</text>
<text text-anchor="start" x="164.5" y="-841.5" font-family="Helvetica,sans-Serif" font-size="10.00">#</text>
<text text-anchor="start" x="177.5" y="-841.5" font-family="Helvetica,sans-Serif" font-size="10.00">requestString</text>
<text text-anchor="start" x="164.5" y="-826.5" font-family="Helvetica,sans-Serif" font-size="10.00">#</text>
<text text-anchor="start" x="177.5" y="-826.5" font-family="Helvetica,sans-Serif" font-size="10.00">responseString</text>
<text text-anchor="start" x="164.5" y="-811.5" font-family="Helvetica,sans-Serif" font-size="10.00">#</text>
<text text-anchor="start" x="177.5" y="-811.5" font-family="Helvetica,sans-Serif" font-size="10.00">request</text>
<text text-anchor="start" x="164.5" y="-796.5" font-family="Helvetica,sans-Serif" font-size="10.00">#</text>
<text text-anchor="start" x="177.5" y="-796.5" font-family="Helvetica,sans-Serif" font-size="10.00">downloadBuf</text>
<text text-anchor="start" x="164.5" y="-781.5" font-family="Helvetica,sans-Serif" font-size="10.00">#</text>
<text text-anchor="start" x="177.5" y="-781.5" font-family="Helvetica,sans-Serif" font-size="10.00">receivedTcpData</text>
<text text-anchor="start" x="164.5" y="-766.5" font-family="Helvetica,sans-Serif" font-size="10.00">+</text>
<text text-anchor="start" x="177.5" y="-766.5" font-family="Helvetica,sans-Serif" font-size="10.00">TcpSocket()</text>
<text text-anchor="start" x="164.5" y="-751.5" font-family="Helvetica,sans-Serif" font-size="10.00">+</text>
<text text-anchor="start" x="177.5" y="-751.5" font-family="Helvetica,sans-Serif" font-size="10.00">setUrl()</text>
<text text-anchor="start" x="164.5" y="-736.5" font-family="Helvetica,sans-Serif" font-size="10.00">+</text>
<text text-anchor="start" x="177.5" y="-736.5" font-family="Helvetica,sans-Serif" font-size="10.00">connect()</text>
<text text-anchor="start" x="164.5" y="-721.5" font-family="Helvetica,sans-Serif" font-size="10.00">+</text>
<text text-anchor="start" x="177.5" y="-721.5" font-family="Helvetica,sans-Serif" font-size="10.00">disconnect()</text>
<text text-anchor="start" x="164.5" y="-706.5" font-family="Helvetica,sans-Serif" font-size="10.00">+</text>
<text text-anchor="start" x="177.5" y="-706.5" font-family="Helvetica,sans-Serif" font-size="10.00">startRead()</text>
<text text-anchor="start" x="164.5" y="-691.5" font-family="Helvetica,sans-Serif" font-size="10.00">+</text>
<text text-anchor="start" x="177.5" y="-691.5" font-family="Helvetica,sans-Serif" font-size="10.00">timeoutHandler()</text>
<text text-anchor="start" x="164.5" y="-676.5" font-family="Helvetica,sans-Serif" font-size="10.00">+</text>
<text text-anchor="start" x="177.5" y="-676.5" font-family="Helvetica,sans-Serif" font-size="10.00">delayedReconnect()</text>
<text text-anchor="start" x="164.5" y="-661.5" font-family="Helvetica,sans-Serif" font-size="10.00">+</text>
<text text-anchor="start" x="177.5" y="-661.5" font-family="Helvetica,sans-Serif" font-size="10.00">connectHandler()</text>
<text text-anchor="start" x="164.5" y="-646.5" font-family="Helvetica,sans-Serif" font-size="10.00">+</text>
<text text-anchor="start" x="177.5" y="-646.5" font-family="Helvetica,sans-Serif" font-size="10.00">requestResponseHandler()</text>
<text text-anchor="start" x="164.5" y="-631.5" font-family="Helvetica,sans-Serif" font-size="10.00">+</text>
<text text-anchor="start" x="177.5" y="-631.5" font-family="Helvetica,sans-Serif" font-size="10.00">logChunkError()</text>
<text text-anchor="start" x="164.5" y="-616.5" font-family="Helvetica,sans-Serif" font-size="10.00">+</text>
<text text-anchor="start" x="177.5" y="-616.5" font-family="Helvetica,sans-Serif" font-size="10.00">dataChunkDownloaded()</text>
<text text-anchor="start" x="164.5" y="-601.5" font-family="Helvetica,sans-Serif" font-size="10.00">+</text>
<text text-anchor="start" x="177.5" y="-601.5" font-family="Helvetica,sans-Serif" font-size="10.00">readContentDownloaded()</text>
<text text-anchor="start" x="164.5" y="-586.5" font-family="Helvetica,sans-Serif" font-size="10.00">+</text>
<text text-anchor="start" x="177.5" y="-586.5" font-family="Helvetica,sans-Serif" font-size="10.00">connected()</text>
<text text-anchor="start" x="164.5" y="-571.5" font-family="Helvetica,sans-Serif" font-size="10.00">+</text>
<text text-anchor="start" x="177.5" y="-571.5" font-family="Helvetica,sans-Serif" font-size="10.00">messageChunkLog()</text>
<text text-anchor="start" x="164.5" y="-556.5" font-family="Helvetica,sans-Serif" font-size="10.00">+</text>
<text text-anchor="start" x="177.5" y="-556.5" font-family="Helvetica,sans-Serif" font-size="10.00">networkLog()</text>
<text text-anchor="start" x="164.5" y="-541.5" font-family="Helvetica,sans-Serif" font-size="10.00">+</text>
<text text-anchor="start" x="177.5" y="-541.5" font-family="Helvetica,sans-Serif" font-size="10.00">getData()</text>
<text text-anchor="start" x="164.5" y="-526.5" font-family="Helvetica,sans-Serif" font-size="10.00">+</text>
<text text-anchor="start" x="177.5" y="-526.5" font-family="Helvetica,sans-Serif" font-size="10.00">connectionError()</text>
<text text-anchor="start" x="164.5" y="-511.5" font-family="Helvetica,sans-Serif" font-size="10.00">+</text>
<text text-anchor="start" x="177.5" y="-511.5" font-family="Helvetica,sans-Serif" font-size="10.00">~TcpSocket()</text>
<text text-anchor="start" x="164.5" y="-496.5" font-family="Helvetica,sans-Serif" font-size="10.00">+</text>
<text text-anchor="start" x="177.5" y="-496.5" font-family="Helvetica,sans-Serif" font-size="10.00">runService()</text>
<text text-anchor="start" x="164.5" y="-481.5" font-family="Helvetica,sans-Serif" font-size="10.00">+</text>
<text text-anchor="start" x="177.5" y="-481.5" font-family="Helvetica,sans-Serif" font-size="10.00">startClients()</text>
<polygon fill="#666666" stroke="#666666" points="160.5,-1076.5 160.5,-1076.5 311.5,-1076.5 311.5,-1076.5 160.5,-1076.5"/>
<polygon fill="#666666" stroke="#666666" points="160.5,-776.5 160.5,-776.5 175.5,-776.5 175.5,-776.5 160.5,-776.5"/>
<polygon fill="#666666" stroke="#666666" points="175.5,-776.5 175.5,-776.5 311.5,-776.5 311.5,-776.5 175.5,-776.5"/>
<polygon fill="none" stroke="#666666" points="160,-475 160,-1094 311,-1094 311,-475 160,-475"/>
</a>
</g>
</g>
<!-- Node5 -->
<g id="Node000005" class="node">
<title>Node5</title>
<g id="a_Node000005"><a xlink:href="structNtripResponder.html" target="_top" xlink:title=" ">
<path fill="white" stroke="#666666" d="M215,-412.5C215,-412.5 72,-412.5 72,-412.5 66,-412.5 60,-406.5 60,-400.5 60,-400.5 60,-337.5 60,-337.5 60,-331.5 66,-325.5 72,-325.5 72,-325.5 215,-325.5 215,-325.5 221,-325.5 227,-331.5 227,-337.5 227,-337.5 227,-400.5 227,-400.5 227,-406.5 221,-412.5 215,-412.5"/>
<text text-anchor="start" x="106" y="-396" font-family="Helvetica,sans-Serif" font-size="10.00">NtripResponder</text>
<text text-anchor="start" x="142" y="-381" font-family="Helvetica,sans-Serif" font-size="10.00"> </text>
<text text-anchor="start" x="72.5" y="-366" font-family="Helvetica,sans-Serif" font-size="10.00">+</text>
<text text-anchor="start" x="85.5" y="-366" font-family="Helvetica,sans-Serif" font-size="10.00">NtripResponder()</text>
<text text-anchor="start" x="72.5" y="-351" font-family="Helvetica,sans-Serif" font-size="10.00">+</text>
<text text-anchor="start" x="85.5" y="-351" font-family="Helvetica,sans-Serif" font-size="10.00">requestResponseHandler()</text>
<text text-anchor="start" x="72.5" y="-336" font-family="Helvetica,sans-Serif" font-size="10.00">+</text>
<text text-anchor="start" x="85.5" y="-336" font-family="Helvetica,sans-Serif" font-size="10.00">serverResponse()</text>
<polygon fill="#666666" stroke="#666666" points="68.5,-391 68.5,-391 219.5,-391 219.5,-391 68.5,-391"/>
<polygon fill="#666666" stroke="#666666" points="68.5,-376 68.5,-376 219.5,-376 219.5,-376 68.5,-376"/>
<polygon fill="none" stroke="#666666" points="68,-329.5 68,-408.5 219,-408.5 219,-329.5 68,-329.5"/>
</a>
</g>
</g>
<!-- Node1&#45;&gt;Node5 -->
<g id="edge4_Node000001_Node000005" class="edge">
<title>Node1&#45;&gt;Node5</title>
<g id="a_edge4_Node000001_Node000005"><a xlink:title=" ">
<path fill="none" stroke="#63b8ff" d="M163.74,-460.99C159.73,-442.93 156.1,-426.61 153.06,-412.95"/>
<polygon fill="none" stroke="#63b8ff" points="160.36,-461.89 165.95,-470.89 167.19,-460.37 160.36,-461.89"/>
</a>
</g>
</g>
<!-- Node8 -->
<g id="Node000008" class="node">
<title>Node8</title>
<g id="a_Node000008"><a xlink:href="structSisnetStream.html" target="_top" xlink:title=" ">
<path fill="white" stroke="#666666" d="M400,-435C400,-435 257,-435 257,-435 251,-435 245,-429 245,-423 245,-423 245,-315 245,-315 245,-309 251,-303 257,-303 257,-303 400,-303 400,-303 406,-303 412,-309 412,-315 412,-315 412,-423 412,-423 412,-429 406,-435 400,-435"/>
<text text-anchor="start" x="296" y="-419" font-family="Helvetica,sans-Serif" font-size="10.00">SisnetStream</text>
<text text-anchor="start" x="327" y="-404" font-family="Helvetica,sans-Serif" font-size="10.00"> </text>
<text text-anchor="start" x="257.5" y="-389" font-family="Helvetica,sans-Serif" font-size="10.00">+</text>
<text text-anchor="start" x="270.5" y="-389" font-family="Helvetica,sans-Serif" font-size="10.00">SisnetStream()</text>
<text text-anchor="start" x="257.5" y="-374" font-family="Helvetica,sans-Serif" font-size="10.00">+</text>
<text text-anchor="start" x="270.5" y="-374" font-family="Helvetica,sans-Serif" font-size="10.00">sisnetHandler()</text>
<text text-anchor="start" x="257.5" y="-359" font-family="Helvetica,sans-Serif" font-size="10.00">+</text>
<text text-anchor="start" x="270.5" y="-359" font-family="Helvetica,sans-Serif" font-size="10.00">sisnetResponseHandler()</text>
<text text-anchor="start" x="257.5" y="-344" font-family="Helvetica,sans-Serif" font-size="10.00">+</text>
<text text-anchor="start" x="270.5" y="-344" font-family="Helvetica,sans-Serif" font-size="10.00">sisnetStartHandler()</text>
<text text-anchor="start" x="257.5" y="-329" font-family="Helvetica,sans-Serif" font-size="10.00">+</text>
<text text-anchor="start" x="270.5" y="-329" font-family="Helvetica,sans-Serif" font-size="10.00">requestResponseHandler()</text>
<text text-anchor="start" x="257.5" y="-314" font-family="Helvetica,sans-Serif" font-size="10.00">+</text>
<text text-anchor="start" x="270.5" y="-314" font-family="Helvetica,sans-Serif" font-size="10.00">~SisnetStream()</text>
<polygon fill="#666666" stroke="#666666" points="253.5,-414 253.5,-414 404.5,-414 404.5,-414 253.5,-414"/>
<polygon fill="#666666" stroke="#666666" points="253.5,-399 253.5,-399 404.5,-399 404.5,-399 253.5,-399"/>
<polygon fill="none" stroke="#666666" points="253,-307 253,-431 404,-431 404,-307 253,-307"/>
</a>
</g>
</g>
<!-- Node1&#45;&gt;Node8 -->
<g id="edge7_Node000001_Node000008" class="edge">
<title>Node1&#45;&gt;Node8</title>
<g id="a_edge7_Node000001_Node000008"><a xlink:title=" ">
<path fill="none" stroke="#63b8ff" d="M308.05,-460.93C310.08,-451.9 312.01,-443.3 313.82,-435.26"/>
<polygon fill="none" stroke="#63b8ff" points="304.59,-460.36 305.81,-470.89 311.42,-461.9 304.59,-460.36"/>
</a>
</g>
</g>
<!-- Node2 -->
<g id="Node000002" class="node">
<title>Node2</title>
<g id="a_Node000002"><a xlink:href="structNetworkStatistics.html" target="_top" xlink:title=" ">
<path fill="white" stroke="#666666" d="M229.5,-1401C229.5,-1401 75.5,-1401 75.5,-1401 69.5,-1401 63.5,-1395 63.5,-1389 63.5,-1389 63.5,-1146 63.5,-1146 63.5,-1140 69.5,-1134 75.5,-1134 75.5,-1134 229.5,-1134 229.5,-1134 235.5,-1134 241.5,-1140 241.5,-1146 241.5,-1146 241.5,-1389 241.5,-1389 241.5,-1395 235.5,-1401 229.5,-1401"/>
<text text-anchor="start" x="109" y="-1384.5" font-family="Helvetica,sans-Serif" font-size="10.00">NetworkStatistics</text>
<text text-anchor="start" x="75.5" y="-1369.5" font-family="Helvetica,sans-Serif" font-size="10.00">+</text>
<text text-anchor="start" x="88.5" y="-1369.5" font-family="Helvetica,sans-Serif" font-size="10.00">streamName</text>
<text text-anchor="start" x="75.5" y="-1354.5" font-family="Helvetica,sans-Serif" font-size="10.00">+</text>
<text text-anchor="start" x="88.5" y="-1354.5" font-family="Helvetica,sans-Serif" font-size="10.00">startTime</text>
<text text-anchor="start" x="75.5" y="-1339.5" font-family="Helvetica,sans-Serif" font-size="10.00">+</text>
<text text-anchor="start" x="88.5" y="-1339.5" font-family="Helvetica,sans-Serif" font-size="10.00">endTime</text>
<text text-anchor="start" x="75.5" y="-1324.5" font-family="Helvetica,sans-Serif" font-size="10.00">+</text>
<text text-anchor="start" x="88.5" y="-1324.5" font-family="Helvetica,sans-Serif" font-size="10.00">networkTraceFilename</text>
<text text-anchor="start" x="75.5" y="-1309.5" font-family="Helvetica,sans-Serif" font-size="10.00">+</text>
<text text-anchor="start" x="88.5" y="-1309.5" font-family="Helvetica,sans-Serif" font-size="10.00">connectCount</text>
<text text-anchor="start" x="75.5" y="-1294.5" font-family="Helvetica,sans-Serif" font-size="10.00">+</text>
<text text-anchor="start" x="88.5" y="-1294.5" font-family="Helvetica,sans-Serif" font-size="10.00">disconnectCount</text>
<text text-anchor="start" x="75.5" y="-1279.5" font-family="Helvetica,sans-Serif" font-size="10.00">+</text>
<text text-anchor="start" x="88.5" y="-1279.5" font-family="Helvetica,sans-Serif" font-size="10.00">chunksSent</text>
<text text-anchor="start" x="75.5" y="-1264.5" font-family="Helvetica,sans-Serif" font-size="10.00">+</text>
<text text-anchor="start" x="88.5" y="-1264.5" font-family="Helvetica,sans-Serif" font-size="10.00">chunksReceived</text>
<text text-anchor="start" x="75.5" y="-1249.5" font-family="Helvetica,sans-Serif" font-size="10.00">+</text>
<text text-anchor="start" x="88.5" y="-1249.5" font-family="Helvetica,sans-Serif" font-size="10.00">connectedDuration</text>
<text text-anchor="start" x="75.5" y="-1234.5" font-family="Helvetica,sans-Serif" font-size="10.00">+</text>
<text text-anchor="start" x="88.5" y="-1234.5" font-family="Helvetica,sans-Serif" font-size="10.00">disconnectedDuration</text>
<text text-anchor="start" x="75.5" y="-1219.5" font-family="Helvetica,sans-Serif" font-size="10.00">+</text>
<text text-anchor="start" x="88.5" y="-1219.5" font-family="Helvetica,sans-Serif" font-size="10.00">getNetworkStatistics()</text>
<text text-anchor="start" x="75.5" y="-1204.5" font-family="Helvetica,sans-Serif" font-size="10.00">+</text>
<text text-anchor="start" x="88.5" y="-1204.5" font-family="Helvetica,sans-Serif" font-size="10.00">onConnectedStatistics()</text>
<text text-anchor="start" x="75.5" y="-1189.5" font-family="Helvetica,sans-Serif" font-size="10.00">+</text>
<text text-anchor="start" x="88.5" y="-1189.5" font-family="Helvetica,sans-Serif" font-size="10.00">onDisconnectedStatistics()</text>
<text text-anchor="start" x="75.5" y="-1174.5" font-family="Helvetica,sans-Serif" font-size="10.00">+</text>
<text text-anchor="start" x="88.5" y="-1174.5" font-family="Helvetica,sans-Serif" font-size="10.00">onChunkSentStatistics()</text>
<text text-anchor="start" x="75.5" y="-1159.5" font-family="Helvetica,sans-Serif" font-size="10.00">+</text>
<text text-anchor="start" x="88.5" y="-1159.5" font-family="Helvetica,sans-Serif" font-size="10.00">onChunkReceivedStatistics()</text>
<text text-anchor="start" x="75.5" y="-1144.5" font-family="Helvetica,sans-Serif" font-size="10.00">+</text>
<text text-anchor="start" x="88.5" y="-1144.5" font-family="Helvetica,sans-Serif" font-size="10.00">onErrorStatistics()</text>
<polygon fill="#666666" stroke="#666666" points="71.5,-1379.5 71.5,-1379.5 233.5,-1379.5 233.5,-1379.5 71.5,-1379.5"/>
<polygon fill="#666666" stroke="#666666" points="71.5,-1229.5 71.5,-1229.5 86.5,-1229.5 86.5,-1229.5 71.5,-1229.5"/>
<polygon fill="#666666" stroke="#666666" points="86.5,-1229.5 86.5,-1229.5 233.5,-1229.5 233.5,-1229.5 86.5,-1229.5"/>
<polygon fill="none" stroke="#666666" points="71.5,-1138 71.5,-1397 233.5,-1397 233.5,-1138 71.5,-1138"/>
</a>
</g>
</g>
<!-- Node2&#45;&gt;Node1 -->
<g id="edge1_Node000001_Node000002" class="edge">
<title>Node2&#45;&gt;Node1</title>
<g id="a_edge1_Node000001_Node000002"><a xlink:title=" ">
<path fill="none" stroke="#63b8ff" d="M177.14,-1123.68C178.59,-1115.32 180.06,-1106.76 181.57,-1098.06"/>
<polygon fill="none" stroke="#63b8ff" points="173.65,-1123.34 175.4,-1133.79 180.55,-1124.53 173.65,-1123.34"/>
</a>
</g>
</g>
<!-- Node3 -->
<g id="Node000003" class="node">
<title>Node3</title>
<g id="a_Node000003"><a xlink:href="structSerialStream.html" target="_top" xlink:title=" ">
<path fill="white" stroke="#666666" d="M365.5,-1348.5C365.5,-1348.5 271.5,-1348.5 271.5,-1348.5 265.5,-1348.5 259.5,-1342.5 259.5,-1336.5 259.5,-1336.5 259.5,-1198.5 259.5,-1198.5 259.5,-1192.5 265.5,-1186.5 271.5,-1186.5 271.5,-1186.5 365.5,-1186.5 365.5,-1186.5 371.5,-1186.5 377.5,-1192.5 377.5,-1198.5 377.5,-1198.5 377.5,-1336.5 377.5,-1336.5 377.5,-1342.5 371.5,-1348.5 365.5,-1348.5"/>
<text text-anchor="start" x="286.5" y="-1332.5" font-family="Helvetica,sans-Serif" font-size="10.00">SerialStream</text>
<text text-anchor="start" x="271.5" y="-1317.5" font-family="Helvetica,sans-Serif" font-size="10.00">+</text>
<text text-anchor="start" x="284.5" y="-1317.5" font-family="Helvetica,sans-Serif" font-size="10.00">path</text>
<text text-anchor="start" x="271.5" y="-1302.5" font-family="Helvetica,sans-Serif" font-size="10.00">+</text>
<text text-anchor="start" x="284.5" y="-1302.5" font-family="Helvetica,sans-Serif" font-size="10.00">fileDescriptor</text>
<text text-anchor="start" x="271.5" y="-1287.5" font-family="Helvetica,sans-Serif" font-size="10.00">+</text>
<text text-anchor="start" x="284.5" y="-1287.5" font-family="Helvetica,sans-Serif" font-size="10.00">receivedData</text>
<text text-anchor="start" x="271.5" y="-1272.5" font-family="Helvetica,sans-Serif" font-size="10.00">+</text>
<text text-anchor="start" x="284.5" y="-1272.5" font-family="Helvetica,sans-Serif" font-size="10.00">SerialStream()</text>
<text text-anchor="start" x="271.5" y="-1257.5" font-family="Helvetica,sans-Serif" font-size="10.00">+</text>
<text text-anchor="start" x="284.5" y="-1257.5" font-family="Helvetica,sans-Serif" font-size="10.00">SerialStream()</text>
<text text-anchor="start" x="271.5" y="-1242.5" font-family="Helvetica,sans-Serif" font-size="10.00">+</text>
<text text-anchor="start" x="284.5" y="-1242.5" font-family="Helvetica,sans-Serif" font-size="10.00">openStream()</text>
<text text-anchor="start" x="271.5" y="-1227.5" font-family="Helvetica,sans-Serif" font-size="10.00">+</text>
<text text-anchor="start" x="284.5" y="-1227.5" font-family="Helvetica,sans-Serif" font-size="10.00">getData()</text>
<text text-anchor="start" x="271.5" y="-1212.5" font-family="Helvetica,sans-Serif" font-size="10.00">+</text>
<text text-anchor="start" x="284.5" y="-1212.5" font-family="Helvetica,sans-Serif" font-size="10.00">getIStream_ptr()</text>
<text text-anchor="start" x="271.5" y="-1197.5" font-family="Helvetica,sans-Serif" font-size="10.00">+</text>
<text text-anchor="start" x="284.5" y="-1197.5" font-family="Helvetica,sans-Serif" font-size="10.00">~SerialStream()</text>
<polygon fill="#666666" stroke="#666666" points="267.5,-1327.5 267.5,-1327.5 369.5,-1327.5 369.5,-1327.5 267.5,-1327.5"/>
<polygon fill="#666666" stroke="#666666" points="267.5,-1282.5 267.5,-1282.5 282.5,-1282.5 282.5,-1282.5 267.5,-1282.5"/>
<polygon fill="#666666" stroke="#666666" points="282.5,-1282.5 282.5,-1282.5 369.5,-1282.5 369.5,-1282.5 282.5,-1282.5"/>
<polygon fill="none" stroke="#666666" points="267.5,-1190.5 267.5,-1344.5 369.5,-1344.5 369.5,-1190.5 267.5,-1190.5"/>
</a>
</g>
</g>
<!-- Node3&#45;&gt;Node1 -->
<g id="edge2_Node000001_Node000003" class="edge">
<title>Node3&#45;&gt;Node1</title>
<g id="a_edge2_Node000001_Node000003"><a xlink:title=" ">
<path fill="none" stroke="#63b8ff" d="M302.9,-1176.1C298.87,-1152.71 294.29,-1126.18 289.46,-1098.21"/>
<polygon fill="none" stroke="#63b8ff" points="299.5,-1177 304.65,-1186.26 306.4,-1175.81 299.5,-1177"/>
</a>
</g>
</g>
<!-- Node4 -->
<g id="Node000004" class="node">
<title>Node4</title>
<g id="a_Node000004"><a xlink:href="structStream.html" target="_top" xlink:title=" ">
<path fill="white" stroke="#666666" d="M365.5,-1539C365.5,-1539 271.5,-1539 271.5,-1539 265.5,-1539 259.5,-1533 259.5,-1527 259.5,-1527 259.5,-1449 259.5,-1449 259.5,-1443 265.5,-1437 271.5,-1437 271.5,-1437 365.5,-1437 365.5,-1437 371.5,-1437 377.5,-1443 377.5,-1449 377.5,-1449 377.5,-1527 377.5,-1527 377.5,-1533 371.5,-1539 365.5,-1539"/>
<text text-anchor="start" x="300.5" y="-1523" font-family="Helvetica,sans-Serif" font-size="10.00">Stream</text>
<text text-anchor="start" x="271.5" y="-1508" font-family="Helvetica,sans-Serif" font-size="10.00">+</text>
<text text-anchor="start" x="284.5" y="-1508" font-family="Helvetica,sans-Serif" font-size="10.00">sourceString</text>
<text text-anchor="start" x="271.5" y="-1493" font-family="Helvetica,sans-Serif" font-size="10.00">+</text>
<text text-anchor="start" x="284.5" y="-1493" font-family="Helvetica,sans-Serif" font-size="10.00">getIStream_ptr()</text>
<text text-anchor="start" x="271.5" y="-1478" font-family="Helvetica,sans-Serif" font-size="10.00">+</text>
<text text-anchor="start" x="284.5" y="-1478" font-family="Helvetica,sans-Serif" font-size="10.00">isDead()</text>
<text text-anchor="start" x="271.5" y="-1463" font-family="Helvetica,sans-Serif" font-size="10.00">+</text>
<text text-anchor="start" x="284.5" y="-1463" font-family="Helvetica,sans-Serif" font-size="10.00">isAvailable()</text>
<text text-anchor="start" x="271.5" y="-1448" font-family="Helvetica,sans-Serif" font-size="10.00">+</text>
<text text-anchor="start" x="284.5" y="-1448" font-family="Helvetica,sans-Serif" font-size="10.00">~Stream()</text>
<polygon fill="#666666" stroke="#666666" points="267.5,-1518 267.5,-1518 369.5,-1518 369.5,-1518 267.5,-1518"/>
<polygon fill="#666666" stroke="#666666" points="267.5,-1503 267.5,-1503 282.5,-1503 282.5,-1503 267.5,-1503"/>
<polygon fill="#666666" stroke="#666666" points="282.5,-1503 282.5,-1503 369.5,-1503 369.5,-1503 282.5,-1503"/>
<polygon fill="none" stroke="#666666" points="267.5,-1441 267.5,-1535 369.5,-1535 369.5,-1441 267.5,-1441"/>
</a>
</g>
</g>
<!-- Node4&#45;&gt;Node3 -->
<g id="edge3_Node000003_Node000004" class="edge">
<title>Node4&#45;&gt;Node3</title>
<g id="a_edge3_Node000003_Node000004"><a xlink:title=" ">
<path fill="none" stroke="#63b8ff" d="M318.5,-1426.81C318.5,-1402.71 318.5,-1374.59 318.5,-1348.8"/>
<polygon fill="none" stroke="#63b8ff" points="315,-1426.87 318.5,-1436.87 322,-1426.87 315,-1426.87"/>
</a>
</g>
</g>
<!-- Node6 -->
<g id="Node000006" class="node">
<title>Node6</title>
<g id="a_Node000006"><a xlink:href="structNtripStream.html" target="_top" xlink:title=" ">
<path fill="white" stroke="#666666" d="M111,-177C111,-177 12,-177 12,-177 6,-177 0,-171 0,-165 0,-165 0,-102 0,-102 0,-96 6,-90 12,-90 12,-90 111,-90 111,-90 117,-90 123,-96 123,-102 123,-102 123,-165 123,-165 123,-171 117,-177 111,-177"/>
<text text-anchor="start" x="32" y="-160.5" font-family="Helvetica,sans-Serif" font-size="10.00">NtripStream</text>
<text text-anchor="start" x="60" y="-145.5" font-family="Helvetica,sans-Serif" font-size="10.00"> </text>
<text text-anchor="start" x="12.5" y="-130.5" font-family="Helvetica,sans-Serif" font-size="10.00">+</text>
<text text-anchor="start" x="25.5" y="-130.5" font-family="Helvetica,sans-Serif" font-size="10.00">NtripStream()</text>
<text text-anchor="start" x="12.5" y="-115.5" font-family="Helvetica,sans-Serif" font-size="10.00">+</text>
<text text-anchor="start" x="25.5" y="-115.5" font-family="Helvetica,sans-Serif" font-size="10.00">serverResponse()</text>
<text text-anchor="start" x="12.5" y="-100.5" font-family="Helvetica,sans-Serif" font-size="10.00">+</text>
<text text-anchor="start" x="25.5" y="-100.5" font-family="Helvetica,sans-Serif" font-size="10.00">~NtripStream()</text>
<polygon fill="#666666" stroke="#666666" points="8.5,-155.5 8.5,-155.5 115.5,-155.5 115.5,-155.5 8.5,-155.5"/>
<polygon fill="#666666" stroke="#666666" points="8.5,-140.5 8.5,-140.5 115.5,-140.5 115.5,-140.5 8.5,-140.5"/>
<polygon fill="none" stroke="#666666" points="8,-94 8,-173 115,-173 115,-94 8,-94"/>
</a>
</g>
</g>
<!-- Node5&#45;&gt;Node6 -->
<g id="edge5_Node000005_Node000006" class="edge">
<title>Node5&#45;&gt;Node6</title>
<g id="a_edge5_Node000005_Node000006"><a xlink:title=" ">
<path fill="none" stroke="#63b8ff" d="M125.24,-315.99C110.56,-274.21 90.21,-216.24 76.48,-177.16"/>
<polygon fill="none" stroke="#63b8ff" points="121.94,-317.17 128.56,-325.44 128.54,-314.85 121.94,-317.17"/>
</a>
</g>
</g>
<!-- Node7 -->
<g id="Node000007" class="node">
<title>Node7</title>
<g id="a_Node000007"><a xlink:href="structNtripUploader.html" target="_top" xlink:title=" ">
<path fill="white" stroke="#666666" d="M297.5,-267C297.5,-267 153.5,-267 153.5,-267 147.5,-267 141.5,-261 141.5,-255 141.5,-255 141.5,-12 141.5,-12 141.5,-6 147.5,0 153.5,0 153.5,0 297.5,0 297.5,0 303.5,0 309.5,-6 309.5,-12 309.5,-12 309.5,-255 309.5,-255 309.5,-261 303.5,-267 297.5,-267"/>
<text text-anchor="start" x="191" y="-250.5" font-family="Helvetica,sans-Serif" font-size="10.00">NtripUploader</text>
<text text-anchor="start" x="153.5" y="-235.5" font-family="Helvetica,sans-Serif" font-size="10.00">+</text>
<text text-anchor="start" x="166.5" y="-235.5" font-family="Helvetica,sans-Serif" font-size="10.00">timeNextMessage</text>
<text text-anchor="start" x="153.5" y="-220.5" font-family="Helvetica,sans-Serif" font-size="10.00">+</text>
<text text-anchor="start" x="166.5" y="-220.5" font-family="Helvetica,sans-Serif" font-size="10.00">outMessagesMtx</text>
<text text-anchor="start" x="153.5" y="-205.5" font-family="Helvetica,sans-Serif" font-size="10.00">+</text>
<text text-anchor="start" x="166.5" y="-205.5" font-family="Helvetica,sans-Serif" font-size="10.00">outMessages</text>
<text text-anchor="start" x="153.5" y="-190.5" font-family="Helvetica,sans-Serif" font-size="10.00">+</text>
<text text-anchor="start" x="166.5" y="-190.5" font-family="Helvetica,sans-Serif" font-size="10.00">sendTimer</text>
<text text-anchor="start" x="153.5" y="-175.5" font-family="Helvetica,sans-Serif" font-size="10.00">+</text>
<text text-anchor="start" x="166.5" y="-175.5" font-family="Helvetica,sans-Serif" font-size="10.00">numberChunksSent</text>
<text text-anchor="start" x="153.5" y="-160.5" font-family="Helvetica,sans-Serif" font-size="10.00">+</text>
<text text-anchor="start" x="166.5" y="-160.5" font-family="Helvetica,sans-Serif" font-size="10.00">previousTargetTime</text>
<text text-anchor="start" x="153.5" y="-145.5" font-family="Helvetica,sans-Serif" font-size="10.00">+</text>
<text text-anchor="start" x="166.5" y="-145.5" font-family="Helvetica,sans-Serif" font-size="10.00">ntripStr</text>
<text text-anchor="start" x="153.5" y="-130.5" font-family="Helvetica,sans-Serif" font-size="10.00">+</text>
<text text-anchor="start" x="166.5" y="-130.5" font-family="Helvetica,sans-Serif" font-size="10.00">id</text>
<text text-anchor="start" x="153.5" y="-115.5" font-family="Helvetica,sans-Serif" font-size="10.00">+</text>
<text text-anchor="start" x="166.5" y="-115.5" font-family="Helvetica,sans-Serif" font-size="10.00">streamConfig</text>
<text text-anchor="start" x="153.5" y="-100.5" font-family="Helvetica,sans-Serif" font-size="10.00">+</text>
<text text-anchor="start" x="166.5" y="-100.5" font-family="Helvetica,sans-Serif" font-size="10.00">NtripUploader()</text>
<text text-anchor="start" x="153.5" y="-85.5" font-family="Helvetica,sans-Serif" font-size="10.00">+</text>
<text text-anchor="start" x="166.5" y="-85.5" font-family="Helvetica,sans-Serif" font-size="10.00">startBroadcast()</text>
<text text-anchor="start" x="153.5" y="-70.5" font-family="Helvetica,sans-Serif" font-size="10.00">+</text>
<text text-anchor="start" x="166.5" y="-70.5" font-family="Helvetica,sans-Serif" font-size="10.00">connected()</text>
<text text-anchor="start" x="153.5" y="-55.5" font-family="Helvetica,sans-Serif" font-size="10.00">+</text>
<text text-anchor="start" x="166.5" y="-55.5" font-family="Helvetica,sans-Serif" font-size="10.00">messageTimeoutHandler()</text>
<text text-anchor="start" x="153.5" y="-40.5" font-family="Helvetica,sans-Serif" font-size="10.00">+</text>
<text text-anchor="start" x="166.5" y="-40.5" font-family="Helvetica,sans-Serif" font-size="10.00">writeHandler()</text>
<text text-anchor="start" x="153.5" y="-25.5" font-family="Helvetica,sans-Serif" font-size="10.00">+</text>
<text text-anchor="start" x="166.5" y="-25.5" font-family="Helvetica,sans-Serif" font-size="10.00">serverResponse()</text>
<text text-anchor="start" x="153.5" y="-10.5" font-family="Helvetica,sans-Serif" font-size="10.00">+</text>
<text text-anchor="start" x="166.5" y="-10.5" font-family="Helvetica,sans-Serif" font-size="10.00">getJsonNetworkStatistics()</text>
<polygon fill="#666666" stroke="#666666" points="149.5,-245.5 149.5,-245.5 301.5,-245.5 301.5,-245.5 149.5,-245.5"/>
<polygon fill="#666666" stroke="#666666" points="149.5,-110.5 149.5,-110.5 164.5,-110.5 164.5,-110.5 149.5,-110.5"/>
<polygon fill="#666666" stroke="#666666" points="164.5,-110.5 164.5,-110.5 301.5,-110.5 301.5,-110.5 164.5,-110.5"/>
<polygon fill="none" stroke="#666666" points="149.5,-4 149.5,-263 301.5,-263 301.5,-4 149.5,-4"/>
</a>
</g>
</g>
<!-- Node5&#45;&gt;Node7 -->
<g id="edge6_Node000005_Node000007" class="edge">
<title>Node5&#45;&gt;Node7</title>
<g id="a_edge6_Node000005_Node000007"><a xlink:title=" ">
<path fill="none" stroke="#63b8ff" d="M161.89,-315.62C167.05,-300.95 172.89,-284.31 178.9,-267.2"/>
<polygon fill="none" stroke="#63b8ff" points="158.46,-314.85 158.44,-325.44 165.06,-317.17 158.46,-314.85"/>
</a>
</g>
</g>
</g>
</svg>
