<?xml version="1.0" encoding="UTF-8" standalone="no"?>
<!DOCTYPE svg PUBLIC "-//W3C//DTD SVG 1.1//EN"
 "http://www.w3.org/Graphics/SVG/1.1/DTD/svg11.dtd">
<!-- Generated by graphviz version 2.43.0 (0)
 -->
<!-- Title: NtripResponder Pages: 1 -->
<svg width="346pt" height="1364pt"
 viewBox="0.00 0.00 346.00 1364.00" xmlns="http://www.w3.org/2000/svg" xmlns:xlink="http://www.w3.org/1999/xlink">
<g id="graph0" class="graph" transform="scale(1 1) rotate(0) translate(4 1360)">
<title>NtripResponder</title>
<!-- Node1 -->
<g id="Node000001" class="node">
<title>Node1</title>
<g id="a_Node000001"><a xlink:href="structNtripResponder.html" target="_top" xlink:title=" ">
<path fill="white" stroke="#666666" stroke-width="2" d="M243.5,-390C243.5,-390 100.5,-390 100.5,-390 94.5,-390 88.5,-384 88.5,-378 88.5,-378 88.5,-315 88.5,-315 88.5,-309 94.5,-303 100.5,-303 100.5,-303 243.5,-303 243.5,-303 249.5,-303 255.5,-309 255.5,-315 255.5,-315 255.5,-378 255.5,-378 255.5,-384 249.5,-390 243.5,-390"/>
<text text-anchor="start" x="134.5" y="-373.5" font-family="Helvetica,sans-Serif" font-size="10.00">NtripResponder</text>
<text text-anchor="start" x="170.5" y="-358.5" font-family="Helvetica,sans-Serif" font-size="10.00"> </text>
<text text-anchor="start" x="101" y="-343.5" font-family="Helvetica,sans-Serif" font-size="10.00">+</text>
<text text-anchor="start" x="114" y="-343.5" font-family="Helvetica,sans-Serif" font-size="10.00">NtripResponder()</text>
<text text-anchor="start" x="101" y="-328.5" font-family="Helvetica,sans-Serif" font-size="10.00">+</text>
<text text-anchor="start" x="114" y="-328.5" font-family="Helvetica,sans-Serif" font-size="10.00">requestResponseHandler()</text>
<text text-anchor="start" x="101" y="-313.5" font-family="Helvetica,sans-Serif" font-size="10.00">+</text>
<text text-anchor="start" x="114" y="-313.5" font-family="Helvetica,sans-Serif" font-size="10.00">serverResponse()</text>
<polygon fill="#666666" stroke="#666666" points="97,-368.5 97,-368.5 248,-368.5 248,-368.5 97,-368.5"/>
<polygon fill="#666666" stroke="#666666" points="97,-353.5 97,-353.5 248,-353.5 248,-353.5 97,-353.5"/>
<polygon fill="none" stroke="#666666" points="96.5,-307 96.5,-386 247.5,-386 247.5,-307 96.5,-307"/>
</a>
</g>
</g>
<!-- Node6 -->
<g id="Node000006" class="node">
<title>Node6</title>
<g id="a_Node000006"><a xlink:href="structNtripStream.html" target="_top" xlink:title=" ">
<path fill="white" stroke="#666666" d="M139.5,-177C139.5,-177 40.5,-177 40.5,-177 34.5,-177 28.5,-171 28.5,-165 28.5,-165 28.5,-102 28.5,-102 28.5,-96 34.5,-90 40.5,-90 40.5,-90 139.5,-90 139.5,-90 145.5,-90 151.5,-96 151.5,-102 151.5,-102 151.5,-165 151.5,-165 151.5,-171 145.5,-177 139.5,-177"/>
<text text-anchor="start" x="60.5" y="-160.5" font-family="Helvetica,sans-Serif" font-size="10.00">NtripStream</text>
<text text-anchor="start" x="88.5" y="-145.5" font-family="Helvetica,sans-Serif" font-size="10.00"> </text>
<text text-anchor="start" x="41" y="-130.5" font-family="Helvetica,sans-Serif" font-size="10.00">+</text>
<text text-anchor="start" x="54" y="-130.5" font-family="Helvetica,sans-Serif" font-size="10.00">NtripStream()</text>
<text text-anchor="start" x="41" y="-115.5" font-family="Helvetica,sans-Serif" font-size="10.00">+</text>
<text text-anchor="start" x="54" y="-115.5" font-family="Helvetica,sans-Serif" font-size="10.00">serverResponse()</text>
<text text-anchor="start" x="41" y="-100.5" font-family="Helvetica,sans-Serif" font-size="10.00">+</text>
<text text-anchor="start" x="54" y="-100.5" font-family="Helvetica,sans-Serif" font-size="10.00">~NtripStream()</text>
<polygon fill="#666666" stroke="#666666" points="37,-155.5 37,-155.5 144,-155.5 144,-155.5 37,-155.5"/>
<polygon fill="#666666" stroke="#666666" points="37,-140.5 37,-140.5 144,-140.5 144,-140.5 37,-140.5"/>
<polygon fill="none" stroke="#666666" points="36.5,-94 36.5,-173 143.5,-173 143.5,-94 36.5,-94"/>
</a>
</g>
</g>
<!-- Node1&#45;&gt;Node6 -->
<g id="edge4_Node000001_Node000006" class="edge">
<title>Node1&#45;&gt;Node6</title>
<g id="a_edge4_Node000001_Node000006"><a xlink:title=" ">
<path fill="none" stroke="#63b8ff" d="M151.61,-293.03C137.72,-257.29 119.57,-210.58 106.57,-177.14"/>
<polygon fill="none" stroke="#63b8ff" points="148.52,-294.75 155.41,-302.8 155.05,-292.21 148.52,-294.75"/>
</a>
</g>
</g>
<!-- Node7 -->
<g id="Node000007" class="node">
<title>Node7</title>
<g id="a_Node000007"><a xlink:href="structNtripUploader.html" target="_top" xlink:title=" ">
<path fill="white" stroke="#666666" d="M326,-267C326,-267 182,-267 182,-267 176,-267 170,-261 170,-255 170,-255 170,-12 170,-12 170,-6 176,0 182,0 182,0 326,0 326,0 332,0 338,-6 338,-12 338,-12 338,-255 338,-255 338,-261 332,-267 326,-267"/>
<text text-anchor="start" x="219.5" y="-250.5" font-family="Helvetica,sans-Serif" font-size="10.00">NtripUploader</text>
<text text-anchor="start" x="182" y="-235.5" font-family="Helvetica,sans-Serif" font-size="10.00">+</text>
<text text-anchor="start" x="195" y="-235.5" font-family="Helvetica,sans-Serif" font-size="10.00">timeNextMessage</text>
<text text-anchor="start" x="182" y="-220.5" font-family="Helvetica,sans-Serif" font-size="10.00">+</text>
<text text-anchor="start" x="195" y="-220.5" font-family="Helvetica,sans-Serif" font-size="10.00">outMessagesMtx</text>
<text text-anchor="start" x="182" y="-205.5" font-family="Helvetica,sans-Serif" font-size="10.00">+</text>
<text text-anchor="start" x="195" y="-205.5" font-family="Helvetica,sans-Serif" font-size="10.00">outMessages</text>
<text text-anchor="start" x="182" y="-190.5" font-family="Helvetica,sans-Serif" font-size="10.00">+</text>
<text text-anchor="start" x="195" y="-190.5" font-family="Helvetica,sans-Serif" font-size="10.00">sendTimer</text>
<text text-anchor="start" x="182" y="-175.5" font-family="Helvetica,sans-Serif" font-size="10.00">+</text>
<text text-anchor="start" x="195" y="-175.5" font-family="Helvetica,sans-Serif" font-size="10.00">numberChunksSent</text>
<text text-anchor="start" x="182" y="-160.5" font-family="Helvetica,sans-Serif" font-size="10.00">+</text>
<text text-anchor="start" x="195" y="-160.5" font-family="Helvetica,sans-Serif" font-size="10.00">previousTargetTime</text>
<text text-anchor="start" x="182" y="-145.5" font-family="Helvetica,sans-Serif" font-size="10.00">+</text>
<text text-anchor="start" x="195" y="-145.5" font-family="Helvetica,sans-Serif" font-size="10.00">ntripStr</text>
<text text-anchor="start" x="182" y="-130.5" font-family="Helvetica,sans-Serif" font-size="10.00">+</text>
<text text-anchor="start" x="195" y="-130.5" font-family="Helvetica,sans-Serif" font-size="10.00">id</text>
<text text-anchor="start" x="182" y="-115.5" font-family="Helvetica,sans-Serif" font-size="10.00">+</text>
<text text-anchor="start" x="195" y="-115.5" font-family="Helvetica,sans-Serif" font-size="10.00">streamConfig</text>
<text text-anchor="start" x="182" y="-100.5" font-family="Helvetica,sans-Serif" font-size="10.00">+</text>
<text text-anchor="start" x="195" y="-100.5" font-family="Helvetica,sans-Serif" font-size="10.00">NtripUploader()</text>
<text text-anchor="start" x="182" y="-85.5" font-family="Helvetica,sans-Serif" font-size="10.00">+</text>
<text text-anchor="start" x="195" y="-85.5" font-family="Helvetica,sans-Serif" font-size="10.00">startBroadcast()</text>
<text text-anchor="start" x="182" y="-70.5" font-family="Helvetica,sans-Serif" font-size="10.00">+</text>
<text text-anchor="start" x="195" y="-70.5" font-family="Helvetica,sans-Serif" font-size="10.00">connected()</text>
<text text-anchor="start" x="182" y="-55.5" font-family="Helvetica,sans-Serif" font-size="10.00">+</text>
<text text-anchor="start" x="195" y="-55.5" font-family="Helvetica,sans-Serif" font-size="10.00">messageTimeoutHandler()</text>
<text text-anchor="start" x="182" y="-40.5" font-family="Helvetica,sans-Serif" font-size="10.00">+</text>
<text text-anchor="start" x="195" y="-40.5" font-family="Helvetica,sans-Serif" font-size="10.00">writeHandler()</text>
<text text-anchor="start" x="182" y="-25.5" font-family="Helvetica,sans-Serif" font-size="10.00">+</text>
<text text-anchor="start" x="195" y="-25.5" font-family="Helvetica,sans-Serif" font-size="10.00">serverResponse()</text>
<text text-anchor="start" x="182" y="-10.5" font-family="Helvetica,sans-Serif" font-size="10.00">+</text>
<text text-anchor="start" x="195" y="-10.5" font-family="Helvetica,sans-Serif" font-size="10.00">getJsonNetworkStatistics()</text>
<polygon fill="#666666" stroke="#666666" points="178,-245.5 178,-245.5 330,-245.5 330,-245.5 178,-245.5"/>
<polygon fill="#666666" stroke="#666666" points="178,-110.5 178,-110.5 193,-110.5 193,-110.5 178,-110.5"/>
<polygon fill="#666666" stroke="#666666" points="193,-110.5 193,-110.5 330,-110.5 330,-110.5 193,-110.5"/>
<polygon fill="none" stroke="#666666" points="178,-4 178,-263 330,-263 330,-4 178,-4"/>
</a>
</g>
</g>
<!-- Node1&#45;&gt;Node7 -->
<g id="edge5_Node000001_Node000007" class="edge">
<title>Node1&#45;&gt;Node7</title>
<g id="a_edge5_Node000001_Node000007"><a xlink:title=" ">
<path fill="none" stroke="#63b8ff" d="M192.23,-293.45C195.42,-285.25 198.83,-276.45 202.36,-267.37"/>
<polygon fill="none" stroke="#63b8ff" points="188.95,-292.21 188.59,-302.8 195.48,-294.75 188.95,-292.21"/>
</a>
</g>
</g>
<!-- Node2 -->
<g id="Node000002" class="node">
<title>Node2</title>
<g id="a_Node000002"><a xlink:href="structTcpSocket.html" target="_top" xlink:title=" ">
<path fill="white" stroke="#666666" d="M243.5,-1053C243.5,-1053 100.5,-1053 100.5,-1053 94.5,-1053 88.5,-1047 88.5,-1041 88.5,-1041 88.5,-438 88.5,-438 88.5,-432 94.5,-426 100.5,-426 100.5,-426 243.5,-426 243.5,-426 249.5,-426 255.5,-432 255.5,-438 255.5,-438 255.5,-1041 255.5,-1041 255.5,-1047 249.5,-1053 243.5,-1053"/>
<text text-anchor="start" x="148" y="-1036.5" font-family="Helvetica,sans-Serif" font-size="10.00">TcpSocket</text>
<text text-anchor="start" x="101" y="-1021.5" font-family="Helvetica,sans-Serif" font-size="10.00">+</text>
<text text-anchor="start" x="114" y="-1021.5" font-family="Helvetica,sans-Serif" font-size="10.00">url</text>
<text text-anchor="start" x="101" y="-1006.5" font-family="Helvetica,sans-Serif" font-size="10.00">+</text>
<text text-anchor="start" x="114" y="-1006.5" font-family="Helvetica,sans-Serif" font-size="10.00">reconnectDelay</text>
<text text-anchor="start" x="101" y="-991.5" font-family="Helvetica,sans-Serif" font-size="10.00">+</text>
<text text-anchor="start" x="114" y="-991.5" font-family="Helvetica,sans-Serif" font-size="10.00">disconnectionCount</text>
<text text-anchor="start" x="101" y="-976.5" font-family="Helvetica,sans-Serif" font-size="10.00">+</text>
<text text-anchor="start" x="114" y="-976.5" font-family="Helvetica,sans-Serif" font-size="10.00">isConnected</text>
<text text-anchor="start" x="101" y="-961.5" font-family="Helvetica,sans-Serif" font-size="10.00">+</text>
<text text-anchor="start" x="114" y="-961.5" font-family="Helvetica,sans-Serif" font-size="10.00">numberErroredChunks</text>
<text text-anchor="start" x="101" y="-946.5" font-family="Helvetica,sans-Serif" font-size="10.00">+</text>
<text text-anchor="start" x="114" y="-946.5" font-family="Helvetica,sans-Serif" font-size="10.00">logHttpSentReceived</text>
<text text-anchor="start" x="101" y="-931.5" font-family="Helvetica,sans-Serif" font-size="10.00">+</text>
<text text-anchor="start" x="114" y="-931.5" font-family="Helvetica,sans-Serif" font-size="10.00">content_length</text>
<text text-anchor="start" x="101" y="-916.5" font-family="Helvetica,sans-Serif" font-size="10.00">+</text>
<text text-anchor="start" x="114" y="-916.5" font-family="Helvetica,sans-Serif" font-size="10.00">sslContext</text>
<text text-anchor="start" x="101" y="-901.5" font-family="Helvetica,sans-Serif" font-size="10.00">+</text>
<text text-anchor="start" x="114" y="-901.5" font-family="Helvetica,sans-Serif" font-size="10.00">ioService</text>
<text text-anchor="start" x="101" y="-886.5" font-family="Helvetica,sans-Serif" font-size="10.00">#</text>
<text text-anchor="start" x="114" y="-886.5" font-family="Helvetica,sans-Serif" font-size="10.00">_socket</text>
<text text-anchor="start" x="101" y="-871.5" font-family="Helvetica,sans-Serif" font-size="10.00">#</text>
<text text-anchor="start" x="114" y="-871.5" font-family="Helvetica,sans-Serif" font-size="10.00">socket_ptr</text>
<text text-anchor="start" x="101" y="-856.5" font-family="Helvetica,sans-Serif" font-size="10.00">#</text>
<text text-anchor="start" x="114" y="-856.5" font-family="Helvetica,sans-Serif" font-size="10.00">_sslsocket</text>
<text text-anchor="start" x="101" y="-841.5" font-family="Helvetica,sans-Serif" font-size="10.00">#</text>
<text text-anchor="start" x="114" y="-841.5" font-family="Helvetica,sans-Serif" font-size="10.00">_resolver</text>
<text text-anchor="start" x="101" y="-826.5" font-family="Helvetica,sans-Serif" font-size="10.00">#</text>
<text text-anchor="start" x="114" y="-826.5" font-family="Helvetica,sans-Serif" font-size="10.00">timer</text>
<text text-anchor="start" x="101" y="-811.5" font-family="Helvetica,sans-Serif" font-size="10.00">#</text>
<text text-anchor="start" x="114" y="-811.5" font-family="Helvetica,sans-Serif" font-size="10.00">readUntilString</text>
<text text-anchor="start" x="101" y="-796.5" font-family="Helvetica,sans-Serif" font-size="10.00">#</text>
<text text-anchor="start" x="114" y="-796.5" font-family="Helvetica,sans-Serif" font-size="10.00">requestString</text>
<text text-anchor="start" x="101" y="-781.5" font-family="Helvetica,sans-Serif" font-size="10.00">#</text>
<text text-anchor="start" x="114" y="-781.5" font-family="Helvetica,sans-Serif" font-size="10.00">responseString</text>
<text text-anchor="start" x="101" y="-766.5" font-family="Helvetica,sans-Serif" font-size="10.00">#</text>
<text text-anchor="start" x="114" y="-766.5" font-family="Helvetica,sans-Serif" font-size="10.00">request</text>
<text text-anchor="start" x="101" y="-751.5" font-family="Helvetica,sans-Serif" font-size="10.00">#</text>
<text text-anchor="start" x="114" y="-751.5" font-family="Helvetica,sans-Serif" font-size="10.00">downloadBuf</text>
<text text-anchor="start" x="101" y="-736.5" font-family="Helvetica,sans-Serif" font-size="10.00">#</text>
<text text-anchor="start" x="114" y="-736.5" font-family="Helvetica,sans-Serif" font-size="10.00">receivedTcpData</text>
<text text-anchor="start" x="101" y="-721.5" font-family="Helvetica,sans-Serif" font-size="10.00">+</text>
<text text-anchor="start" x="114" y="-721.5" font-family="Helvetica,sans-Serif" font-size="10.00">TcpSocket()</text>
<text text-anchor="start" x="101" y="-706.5" font-family="Helvetica,sans-Serif" font-size="10.00">+</text>
<text text-anchor="start" x="114" y="-706.5" font-family="Helvetica,sans-Serif" font-size="10.00">setUrl()</text>
<text text-anchor="start" x="101" y="-691.5" font-family="Helvetica,sans-Serif" font-size="10.00">+</text>
<text text-anchor="start" x="114" y="-691.5" font-family="Helvetica,sans-Serif" font-size="10.00">connect()</text>
<text text-anchor="start" x="101" y="-676.5" font-family="Helvetica,sans-Serif" font-size="10.00">+</text>
<text text-anchor="start" x="114" y="-676.5" font-family="Helvetica,sans-Serif" font-size="10.00">disconnect()</text>
<text text-anchor="start" x="101" y="-661.5" font-family="Helvetica,sans-Serif" font-size="10.00">+</text>
<text text-anchor="start" x="114" y="-661.5" font-family="Helvetica,sans-Serif" font-size="10.00">startRead()</text>
<text text-anchor="start" x="101" y="-646.5" font-family="Helvetica,sans-Serif" font-size="10.00">+</text>
<text text-anchor="start" x="114" y="-646.5" font-family="Helvetica,sans-Serif" font-size="10.00">timeoutHandler()</text>
<text text-anchor="start" x="101" y="-631.5" font-family="Helvetica,sans-Serif" font-size="10.00">+</text>
<text text-anchor="start" x="114" y="-631.5" font-family="Helvetica,sans-Serif" font-size="10.00">delayedReconnect()</text>
<text text-anchor="start" x="101" y="-616.5" font-family="Helvetica,sans-Serif" font-size="10.00">+</text>
<text text-anchor="start" x="114" y="-616.5" font-family="Helvetica,sans-Serif" font-size="10.00">connectHandler()</text>
<text text-anchor="start" x="101" y="-601.5" font-family="Helvetica,sans-Serif" font-size="10.00">+</text>
<text text-anchor="start" x="114" y="-601.5" font-family="Helvetica,sans-Serif" font-size="10.00">requestResponseHandler()</text>
<text text-anchor="start" x="101" y="-586.5" font-family="Helvetica,sans-Serif" font-size="10.00">+</text>
<text text-anchor="start" x="114" y="-586.5" font-family="Helvetica,sans-Serif" font-size="10.00">logChunkError()</text>
<text text-anchor="start" x="101" y="-571.5" font-family="Helvetica,sans-Serif" font-size="10.00">+</text>
<text text-anchor="start" x="114" y="-571.5" font-family="Helvetica,sans-Serif" font-size="10.00">dataChunkDownloaded()</text>
<text text-anchor="start" x="101" y="-556.5" font-family="Helvetica,sans-Serif" font-size="10.00">+</text>
<text text-anchor="start" x="114" y="-556.5" font-family="Helvetica,sans-Serif" font-size="10.00">readContentDownloaded()</text>
<text text-anchor="start" x="101" y="-541.5" font-family="Helvetica,sans-Serif" font-size="10.00">+</text>
<text text-anchor="start" x="114" y="-541.5" font-family="Helvetica,sans-Serif" font-size="10.00">connected()</text>
<text text-anchor="start" x="101" y="-526.5" font-family="Helvetica,sans-Serif" font-size="10.00">+</text>
<text text-anchor="start" x="114" y="-526.5" font-family="Helvetica,sans-Serif" font-size="10.00">messageChunkLog()</text>
<text text-anchor="start" x="101" y="-511.5" font-family="Helvetica,sans-Serif" font-size="10.00">+</text>
<text text-anchor="start" x="114" y="-511.5" font-family="Helvetica,sans-Serif" font-size="10.00">networkLog()</text>
<text text-anchor="start" x="101" y="-496.5" font-family="Helvetica,sans-Serif" font-size="10.00">+</text>
<text text-anchor="start" x="114" y="-496.5" font-family="Helvetica,sans-Serif" font-size="10.00">getData()</text>
<text text-anchor="start" x="101" y="-481.5" font-family="Helvetica,sans-Serif" font-size="10.00">+</text>
<text text-anchor="start" x="114" y="-481.5" font-family="Helvetica,sans-Serif" font-size="10.00">connectionError()</text>
<text text-anchor="start" x="101" y="-466.5" font-family="Helvetica,sans-Serif" font-size="10.00">+</text>
<text text-anchor="start" x="114" y="-466.5" font-family="Helvetica,sans-Serif" font-size="10.00">~TcpSocket()</text>
<text text-anchor="start" x="101" y="-451.5" font-family="Helvetica,sans-Serif" font-size="10.00">+</text>
<text text-anchor="start" x="114" y="-451.5" font-family="Helvetica,sans-Serif" font-size="10.00">runService()</text>
<text text-anchor="start" x="101" y="-436.5" font-family="Helvetica,sans-Serif" font-size="10.00">+</text>
<text text-anchor="start" x="114" y="-436.5" font-family="Helvetica,sans-Serif" font-size="10.00">startClients()</text>
<polygon fill="#666666" stroke="#666666" points="97,-1031.5 97,-1031.5 248,-1031.5 248,-1031.5 97,-1031.5"/>
<polygon fill="#666666" stroke="#666666" points="97,-731.5 97,-731.5 112,-731.5 112,-731.5 97,-731.5"/>
<polygon fill="#666666" stroke="#666666" points="112,-731.5 112,-731.5 248,-731.5 248,-731.5 112,-731.5"/>
<polygon fill="none" stroke="#666666" points="96.5,-430 96.5,-1049 247.5,-1049 247.5,-430 96.5,-430"/>
</a>
</g>
</g>
<!-- Node2&#45;&gt;Node1 -->
<g id="edge1_Node000001_Node000002" class="edge">
<title>Node2&#45;&gt;Node1</title>
<g id="a_edge1_Node000001_Node000002"><a xlink:title=" ">
<path fill="none" stroke="#63b8ff" d="M172,-415.49C172,-406.32 172,-397.82 172,-390.15"/>
<polygon fill="none" stroke="#63b8ff" points="168.5,-415.68 172,-425.68 175.5,-415.68 168.5,-415.68"/>
</a>
</g>
</g>
<!-- Node3 -->
<g id="Node000003" class="node">
<title>Node3</title>
<g id="a_Node000003"><a xlink:href="structNetworkStatistics.html" target="_top" xlink:title=" ">
<path fill="white" stroke="#666666" d="M166,-1356C166,-1356 12,-1356 12,-1356 6,-1356 0,-1350 0,-1344 0,-1344 0,-1101 0,-1101 0,-1095 6,-1089 12,-1089 12,-1089 166,-1089 166,-1089 172,-1089 178,-1095 178,-1101 178,-1101 178,-1344 178,-1344 178,-1350 172,-1356 166,-1356"/>
<text text-anchor="start" x="45.5" y="-1339.5" font-family="Helvetica,sans-Serif" font-size="10.00">NetworkStatistics</text>
<text text-anchor="start" x="12" y="-1324.5" font-family="Helvetica,sans-Serif" font-size="10.00">+</text>
<text text-anchor="start" x="25" y="-1324.5" font-family="Helvetica,sans-Serif" font-size="10.00">streamName</text>
<text text-anchor="start" x="12" y="-1309.5" font-family="Helvetica,sans-Serif" font-size="10.00">+</text>
<text text-anchor="start" x="25" y="-1309.5" font-family="Helvetica,sans-Serif" font-size="10.00">startTime</text>
<text text-anchor="start" x="12" y="-1294.5" font-family="Helvetica,sans-Serif" font-size="10.00">+</text>
<text text-anchor="start" x="25" y="-1294.5" font-family="Helvetica,sans-Serif" font-size="10.00">endTime</text>
<text text-anchor="start" x="12" y="-1279.5" font-family="Helvetica,sans-Serif" font-size="10.00">+</text>
<text text-anchor="start" x="25" y="-1279.5" font-family="Helvetica,sans-Serif" font-size="10.00">networkTraceFilename</text>
<text text-anchor="start" x="12" y="-1264.5" font-family="Helvetica,sans-Serif" font-size="10.00">+</text>
<text text-anchor="start" x="25" y="-1264.5" font-family="Helvetica,sans-Serif" font-size="10.00">connectCount</text>
<text text-anchor="start" x="12" y="-1249.5" font-family="Helvetica,sans-Serif" font-size="10.00">+</text>
<text text-anchor="start" x="25" y="-1249.5" font-family="Helvetica,sans-Serif" font-size="10.00">disconnectCount</text>
<text text-anchor="start" x="12" y="-1234.5" font-family="Helvetica,sans-Serif" font-size="10.00">+</text>
<text text-anchor="start" x="25" y="-1234.5" font-family="Helvetica,sans-Serif" font-size="10.00">chunksSent</text>
<text text-anchor="start" x="12" y="-1219.5" font-family="Helvetica,sans-Serif" font-size="10.00">+</text>
<text text-anchor="start" x="25" y="-1219.5" font-family="Helvetica,sans-Serif" font-size="10.00">chunksReceived</text>
<text text-anchor="start" x="12" y="-1204.5" font-family="Helvetica,sans-Serif" font-size="10.00">+</text>
<text text-anchor="start" x="25" y="-1204.5" font-family="Helvetica,sans-Serif" font-size="10.00">connectedDuration</text>
<text text-anchor="start" x="12" y="-1189.5" font-family="Helvetica,sans-Serif" font-size="10.00">+</text>
<text text-anchor="start" x="25" y="-1189.5" font-family="Helvetica,sans-Serif" font-size="10.00">disconnectedDuration</text>
<text text-anchor="start" x="12" y="-1174.5" font-family="Helvetica,sans-Serif" font-size="10.00">+</text>
<text text-anchor="start" x="25" y="-1174.5" font-family="Helvetica,sans-Serif" font-size="10.00">getNetworkStatistics()</text>
<text text-anchor="start" x="12" y="-1159.5" font-family="Helvetica,sans-Serif" font-size="10.00">+</text>
<text text-anchor="start" x="25" y="-1159.5" font-family="Helvetica,sans-Serif" font-size="10.00">onConnectedStatistics()</text>
<text text-anchor="start" x="12" y="-1144.5" font-family="Helvetica,sans-Serif" font-size="10.00">+</text>
<text text-anchor="start" x="25" y="-1144.5" font-family="Helvetica,sans-Serif" font-size="10.00">onDisconnectedStatistics()</text>
<text text-anchor="start" x="12" y="-1129.5" font-family="Helvetica,sans-Serif" font-size="10.00">+</text>
<text text-anchor="start" x="25" y="-1129.5" font-family="Helvetica,sans-Serif" font-size="10.00">onChunkSentStatistics()</text>
<text text-anchor="start" x="12" y="-1114.5" font-family="Helvetica,sans-Serif" font-size="10.00">+</text>
<text text-anchor="start" x="25" y="-1114.5" font-family="Helvetica,sans-Serif" font-size="10.00">onChunkReceivedStatistics()</text>
<text text-anchor="start" x="12" y="-1099.5" font-family="Helvetica,sans-Serif" font-size="10.00">+</text>
<text text-anchor="start" x="25" y="-1099.5" font-family="Helvetica,sans-Serif" font-size="10.00">onErrorStatistics()</text>
<polygon fill="#666666" stroke="#666666" points="8,-1334.5 8,-1334.5 170,-1334.5 170,-1334.5 8,-1334.5"/>
<polygon fill="#666666" stroke="#666666" points="8,-1184.5 8,-1184.5 23,-1184.5 23,-1184.5 8,-1184.5"/>
<polygon fill="#666666" stroke="#666666" points="23,-1184.5 23,-1184.5 170,-1184.5 170,-1184.5 23,-1184.5"/>
<polygon fill="none" stroke="#666666" points="8,-1093 8,-1352 170,-1352 170,-1093 8,-1093"/>
</a>
</g>
</g>
<!-- Node3&#45;&gt;Node2 -->
<g id="edge2_Node000002_Node000003" class="edge">
<title>Node3&#45;&gt;Node2</title>
<g id="a_edge2_Node000002_Node000003"><a xlink:title=" ">
<path fill="none" stroke="#63b8ff" d="M113.64,-1078.68C115.09,-1070.32 116.56,-1061.76 118.07,-1053.06"/>
<polygon fill="none" stroke="#63b8ff" points="110.15,-1078.34 111.9,-1088.79 117.05,-1079.53 110.15,-1078.34"/>
</a>
</g>
</g>
<!-- Node4 -->
<g id="Node000004" class="node">
<title>Node4</title>
<g id="a_Node000004"><a xlink:href="structSerialStream.html" target="_top" xlink:title=" ">
<path fill="#fff0f0" stroke="red" d="M302,-1303.5C302,-1303.5 208,-1303.5 208,-1303.5 202,-1303.5 196,-1297.5 196,-1291.5 196,-1291.5 196,-1153.5 196,-1153.5 196,-1147.5 202,-1141.5 208,-1141.5 208,-1141.5 302,-1141.5 302,-1141.5 308,-1141.5 314,-1147.5 314,-1153.5 314,-1153.5 314,-1291.5 314,-1291.5 314,-1297.5 308,-1303.5 302,-1303.5"/>
<text text-anchor="start" x="223" y="-1287.5" font-family="Helvetica,sans-Serif" font-size="10.00">SerialStream</text>
<text text-anchor="start" x="208" y="-1272.5" font-family="Helvetica,sans-Serif" font-size="10.00">+</text>
<text text-anchor="start" x="221" y="-1272.5" font-family="Helvetica,sans-Serif" font-size="10.00">path</text>
<text text-anchor="start" x="208" y="-1257.5" font-family="Helvetica,sans-Serif" font-size="10.00">+</text>
<text text-anchor="start" x="221" y="-1257.5" font-family="Helvetica,sans-Serif" font-size="10.00">fileDescriptor</text>
<text text-anchor="start" x="208" y="-1242.5" font-family="Helvetica,sans-Serif" font-size="10.00">+</text>
<text text-anchor="start" x="221" y="-1242.5" font-family="Helvetica,sans-Serif" font-size="10.00">receivedData</text>
<text text-anchor="start" x="208" y="-1227.5" font-family="Helvetica,sans-Serif" font-size="10.00">+</text>
<text text-anchor="start" x="221" y="-1227.5" font-family="Helvetica,sans-Serif" font-size="10.00">SerialStream()</text>
<text text-anchor="start" x="208" y="-1212.5" font-family="Helvetica,sans-Serif" font-size="10.00">+</text>
<text text-anchor="start" x="221" y="-1212.5" font-family="Helvetica,sans-Serif" font-size="10.00">SerialStream()</text>
<text text-anchor="start" x="208" y="-1197.5" font-family="Helvetica,sans-Serif" font-size="10.00">+</text>
<text text-anchor="start" x="221" y="-1197.5" font-family="Helvetica,sans-Serif" font-size="10.00">openStream()</text>
<text text-anchor="start" x="208" y="-1182.5" font-family="Helvetica,sans-Serif" font-size="10.00">+</text>
<text text-anchor="start" x="221" y="-1182.5" font-family="Helvetica,sans-Serif" font-size="10.00">getData()</text>
<text text-anchor="start" x="208" y="-1167.5" font-family="Helvetica,sans-Serif" font-size="10.00">+</text>
<text text-anchor="start" x="221" y="-1167.5" font-family="Helvetica,sans-Serif" font-size="10.00">getIStream_ptr()</text>
<text text-anchor="start" x="208" y="-1152.5" font-family="Helvetica,sans-Serif" font-size="10.00">+</text>
<text text-anchor="start" x="221" y="-1152.5" font-family="Helvetica,sans-Serif" font-size="10.00">~SerialStream()</text>
<polygon fill="red" stroke="red" points="204,-1282.5 204,-1282.5 306,-1282.5 306,-1282.5 204,-1282.5"/>
<polygon fill="red" stroke="red" points="204,-1237.5 204,-1237.5 219,-1237.5 219,-1237.5 204,-1237.5"/>
<polygon fill="red" stroke="red" points="219,-1237.5 219,-1237.5 306,-1237.5 306,-1237.5 219,-1237.5"/>
<polygon fill="none" stroke="red" points="204,-1145.5 204,-1299.5 306,-1299.5 306,-1145.5 204,-1145.5"/>
</a>
</g>
</g>
<!-- Node4&#45;&gt;Node2 -->
<g id="edge3_Node000002_Node000004" class="edge">
<title>Node4&#45;&gt;Node2</title>
<g id="a_edge3_Node000002_Node000004"><a xlink:title=" ">
<path fill="none" stroke="#63b8ff" d="M239.4,-1131.1C235.37,-1107.71 230.79,-1081.18 225.96,-1053.21"/>
<polygon fill="none" stroke="#63b8ff" points="236,-1132 241.15,-1141.26 242.9,-1130.81 236,-1132"/>
</a>
</g>
</g>
</g>
</svg>
