<?xml version="1.0" encoding="UTF-8" standalone="no"?>
<!DOCTYPE svg PUBLIC "-//W3C//DTD SVG 1.1//EN"
 "http://www.w3.org/Graphics/SVG/1.1/DTD/svg11.dtd">
<!-- Generated by graphviz version 2.43.0 (0)
 -->
<!-- Title: InputOptions Pages: 1 -->
<svg width="803pt" height="857pt"
 viewBox="0.00 0.00 803.00 857.00" xmlns="http://www.w3.org/2000/svg" xmlns:xlink="http://www.w3.org/1999/xlink">
<g id="graph0" class="graph" transform="scale(1 1) rotate(0) translate(4 853)">
<title>InputOptions</title>
<!-- Node1 -->
<g id="Node000001" class="node">
<title>Node1</title>
<g id="a_Node000001"><a xlink:href="structInputOptions.html" target="_top" xlink:title="Input source filenames and directories.">
<path fill="white" stroke="#666666" stroke-width="2" d="M385,-487C385,-487 243,-487 243,-487 237,-487 231,-481 231,-475 231,-475 231,-12 231,-12 231,-6 237,0 243,0 243,0 385,0 385,0 391,0 397,-6 397,-12 397,-12 397,-475 397,-475 397,-481 391,-487 385,-487"/>
<text text-anchor="start" x="282.5" y="-470.5" font-family="Helvetica,sans-Serif" font-size="10.00">InputOptions</text>
<text text-anchor="start" x="243" y="-455.5" font-family="Helvetica,sans-Serif" font-size="10.00">+</text>
<text text-anchor="start" x="256" y="-455.5" font-family="Helvetica,sans-Serif" font-size="10.00">allow_missing_inputs</text>
<text text-anchor="start" x="243" y="-440.5" font-family="Helvetica,sans-Serif" font-size="10.00">+</text>
<text text-anchor="start" x="256" y="-440.5" font-family="Helvetica,sans-Serif" font-size="10.00">snx_files</text>
<text text-anchor="start" x="243" y="-425.5" font-family="Helvetica,sans-Serif" font-size="10.00">+</text>
<text text-anchor="start" x="256" y="-425.5" font-family="Helvetica,sans-Serif" font-size="10.00">nav_files</text>
<text text-anchor="start" x="243" y="-410.5" font-family="Helvetica,sans-Serif" font-size="10.00">+</text>
<text text-anchor="start" x="256" y="-410.5" font-family="Helvetica,sans-Serif" font-size="10.00">sp3_files</text>
<text text-anchor="start" x="243" y="-395.5" font-family="Helvetica,sans-Serif" font-size="10.00">+</text>
<text text-anchor="start" x="256" y="-395.5" font-family="Helvetica,sans-Serif" font-size="10.00">obx_files</text>
<text text-anchor="start" x="243" y="-380.5" font-family="Helvetica,sans-Serif" font-size="10.00">+</text>
<text text-anchor="start" x="256" y="-380.5" font-family="Helvetica,sans-Serif" font-size="10.00">sid_files</text>
<text text-anchor="start" x="243" y="-365.5" font-family="Helvetica,sans-Serif" font-size="10.00">+</text>
<text text-anchor="start" x="256" y="-365.5" font-family="Helvetica,sans-Serif" font-size="10.00">vmf_files</text>
<text text-anchor="start" x="243" y="-350.5" font-family="Helvetica,sans-Serif" font-size="10.00">+</text>
<text text-anchor="start" x="256" y="-350.5" font-family="Helvetica,sans-Serif" font-size="10.00">erp_files</text>
<text text-anchor="start" x="243" y="-335.5" font-family="Helvetica,sans-Serif" font-size="10.00">+</text>
<text text-anchor="start" x="256" y="-335.5" font-family="Helvetica,sans-Serif" font-size="10.00">dcb_files</text>
<text text-anchor="start" x="243" y="-320.5" font-family="Helvetica,sans-Serif" font-size="10.00">+</text>
<text text-anchor="start" x="256" y="-320.5" font-family="Helvetica,sans-Serif" font-size="10.00">ion_files</text>
<text text-anchor="start" x="243" y="-305.5" font-family="Helvetica,sans-Serif" font-size="10.00">+</text>
<text text-anchor="start" x="256" y="-305.5" font-family="Helvetica,sans-Serif" font-size="10.00">igrf_files</text>
<text text-anchor="start" x="243" y="-290.5" font-family="Helvetica,sans-Serif" font-size="10.00">+</text>
<text text-anchor="start" x="256" y="-290.5" font-family="Helvetica,sans-Serif" font-size="10.00">egm_files</text>
<text text-anchor="start" x="243" y="-275.5" font-family="Helvetica,sans-Serif" font-size="10.00">+</text>
<text text-anchor="start" x="256" y="-275.5" font-family="Helvetica,sans-Serif" font-size="10.00">hfeop_files</text>
<text text-anchor="start" x="243" y="-260.5" font-family="Helvetica,sans-Serif" font-size="10.00">+</text>
<text text-anchor="start" x="256" y="-260.5" font-family="Helvetica,sans-Serif" font-size="10.00">gpt2grid_files</text>
<text text-anchor="start" x="243" y="-245.5" font-family="Helvetica,sans-Serif" font-size="10.00">+</text>
<text text-anchor="start" x="256" y="-245.5" font-family="Helvetica,sans-Serif" font-size="10.00">orography_files</text>
<text text-anchor="start" x="243" y="-230.5" font-family="Helvetica,sans-Serif" font-size="10.00">+</text>
<text text-anchor="start" x="256" y="-230.5" font-family="Helvetica,sans-Serif" font-size="10.00">pseudo_filter_files</text>
<text text-anchor="start" x="243" y="-215.5" font-family="Helvetica,sans-Serif" font-size="10.00">+</text>
<text text-anchor="start" x="256" y="-215.5" font-family="Helvetica,sans-Serif" font-size="10.00">space_weather_files</text>
<text text-anchor="start" x="243" y="-200.5" font-family="Helvetica,sans-Serif" font-size="10.00">+</text>
<text text-anchor="start" x="256" y="-200.5" font-family="Helvetica,sans-Serif" font-size="10.00">planetary_ephemeris</text>
<text text-anchor="start" x="256" y="-189.5" font-family="Helvetica,sans-Serif" font-size="10.00">_files</text>
<text text-anchor="start" x="243" y="-174.5" font-family="Helvetica,sans-Serif" font-size="10.00">+</text>
<text text-anchor="start" x="256" y="-174.5" font-family="Helvetica,sans-Serif" font-size="10.00">ocean_tide_potential</text>
<text text-anchor="start" x="256" y="-163.5" font-family="Helvetica,sans-Serif" font-size="10.00">_files</text>
<text text-anchor="start" x="243" y="-148.5" font-family="Helvetica,sans-Serif" font-size="10.00">+</text>
<text text-anchor="start" x="256" y="-148.5" font-family="Helvetica,sans-Serif" font-size="10.00">ocean_tide_loading</text>
<text text-anchor="start" x="256" y="-137.5" font-family="Helvetica,sans-Serif" font-size="10.00">_blq_files</text>
<text text-anchor="start" x="243" y="-122.5" font-family="Helvetica,sans-Serif" font-size="10.00">+</text>
<text text-anchor="start" x="256" y="-122.5" font-family="Helvetica,sans-Serif" font-size="10.00">ocean_pole_tide_loading</text>
<text text-anchor="start" x="256" y="-111.5" font-family="Helvetica,sans-Serif" font-size="10.00">_files</text>
<text text-anchor="start" x="243" y="-96.5" font-family="Helvetica,sans-Serif" font-size="10.00">+</text>
<text text-anchor="start" x="256" y="-96.5" font-family="Helvetica,sans-Serif" font-size="10.00">ocean_pole_tide_potential</text>
<text text-anchor="start" x="256" y="-85.5" font-family="Helvetica,sans-Serif" font-size="10.00">_files</text>
<text text-anchor="start" x="243" y="-70.5" font-family="Helvetica,sans-Serif" font-size="10.00">+</text>
<text text-anchor="start" x="256" y="-70.5" font-family="Helvetica,sans-Serif" font-size="10.00">sisnet_inputs</text>
<text text-anchor="start" x="243" y="-55.5" font-family="Helvetica,sans-Serif" font-size="10.00">+</text>
<text text-anchor="start" x="256" y="-55.5" font-family="Helvetica,sans-Serif" font-size="10.00">nav_rtcm_inputs</text>
<text text-anchor="start" x="243" y="-40.5" font-family="Helvetica,sans-Serif" font-size="10.00">+</text>
<text text-anchor="start" x="256" y="-40.5" font-family="Helvetica,sans-Serif" font-size="10.00">qzs_rtcm_inputs</text>
<text text-anchor="start" x="243" y="-25.5" font-family="Helvetica,sans-Serif" font-size="10.00">+</text>
<text text-anchor="start" x="256" y="-25.5" font-family="Helvetica,sans-Serif" font-size="10.00">eci_pseudoobs</text>
<text text-anchor="start" x="312" y="-10.5" font-family="Helvetica,sans-Serif" font-size="10.00"> </text>
<polygon fill="#666666" stroke="#666666" points="239,-465.5 239,-465.5 389,-465.5 389,-465.5 239,-465.5"/>
<polygon fill="#666666" stroke="#666666" points="239,-20.5 239,-20.5 254,-20.5 254,-20.5 239,-20.5"/>
<polygon fill="#666666" stroke="#666666" points="254,-20.5 254,-20.5 389,-20.5 389,-20.5 254,-20.5"/>
<polygon fill="none" stroke="#666666" points="239,-4 239,-483 389,-483 389,-4 239,-4"/>
</a>
</g>
</g>
<!-- Node2 -->
<g id="Node000002" class="node">
<title>Node2</title>
<g id="a_Node000002"><a xlink:title=" ">
<path fill="white" stroke="#666666" d="M42,-739.5C42,-739.5 12,-739.5 12,-739.5 6,-739.5 0,-733.5 0,-727.5 0,-727.5 0,-694.5 0,-694.5 0,-688.5 6,-682.5 12,-682.5 12,-682.5 42,-682.5 42,-682.5 48,-682.5 54,-688.5 54,-694.5 54,-694.5 54,-727.5 54,-727.5 54,-733.5 48,-739.5 42,-739.5"/>
<text text-anchor="start" x="13" y="-723" font-family="Helvetica,sans-Serif" font-size="10.00">string</text>
<text text-anchor="start" x="25" y="-708" font-family="Helvetica,sans-Serif" font-size="10.00"> </text>
<text text-anchor="start" x="25" y="-693" font-family="Helvetica,sans-Serif" font-size="10.00"> </text>
<polygon fill="#666666" stroke="#666666" points="8,-718 8,-718 46,-718 46,-718 8,-718"/>
<polygon fill="#666666" stroke="#666666" points="8,-703 8,-703 46,-703 46,-703 8,-703"/>
<polygon fill="none" stroke="#666666" points="8,-686.5 8,-735.5 46,-735.5 46,-686.5 8,-686.5"/>
</a>
</g>
</g>
<!-- Node2&#45;&gt;Node1 -->
<g id="edge1_Node000001_Node000002" class="edge">
<title>Node2&#45;&gt;Node1</title>
<g id="a_edge1_Node000001_Node000002"><a xlink:title=" ">
<path fill="none" stroke="#63b8ff" d="M20.4,-682.34C12.11,-641.54 1.9,-563.7 28,-505 67.39,-416.42 153.28,-344.92 220.72,-299.39"/>
<polygon fill="none" stroke="#63b8ff" points="220.96,-299.23 223.74,-292.58 230.95,-292.59 228.17,-299.24 220.96,-299.23"/>
</a>
</g>
<text text-anchor="start" x="28" y="-629" font-family="Helvetica,sans-Serif" font-size="10.00" fill="grey"> +custom_pseudo_obs</text>
<text text-anchor="middle" x="83.5" y="-618" font-family="Helvetica,sans-Serif" font-size="10.00" fill="grey">_root</text>
<text text-anchor="middle" x="83.5" y="-607" font-family="Helvetica,sans-Serif" font-size="10.00" fill="grey">+gnss_obs_root</text>
<text text-anchor="middle" x="83.5" y="-596" font-family="Helvetica,sans-Serif" font-size="10.00" fill="grey">+inputs_root</text>
<text text-anchor="middle" x="83.5" y="-585" font-family="Helvetica,sans-Serif" font-size="10.00" fill="grey">+pseudo_obs_root</text>
<text text-anchor="middle" x="83.5" y="-574" font-family="Helvetica,sans-Serif" font-size="10.00" fill="grey">+rtcm_inputs_root</text>
<text text-anchor="middle" x="83.5" y="-563" font-family="Helvetica,sans-Serif" font-size="10.00" fill="grey">+sat_data_root</text>
<text text-anchor="middle" x="83.5" y="-552" font-family="Helvetica,sans-Serif" font-size="10.00" fill="grey">+sisnet_inputs_root</text>
<text text-anchor="middle" x="83.5" y="-541" font-family="Helvetica,sans-Serif" font-size="10.00" fill="grey">+stream_pass</text>
<text text-anchor="middle" x="83.5" y="-530" font-family="Helvetica,sans-Serif" font-size="10.00" fill="grey">+stream_user</text>
</g>
<!-- Node3 -->
<g id="Node000003" class="node">
<title>Node3</title>
<g id="a_Node000003"><a xlink:title=" ">
<path fill="white" stroke="#666666" d="M183,-739.5C183,-739.5 99,-739.5 99,-739.5 93,-739.5 87,-733.5 87,-727.5 87,-727.5 87,-694.5 87,-694.5 87,-688.5 93,-682.5 99,-682.5 99,-682.5 183,-682.5 183,-682.5 189,-682.5 195,-688.5 195,-694.5 195,-694.5 195,-727.5 195,-727.5 195,-733.5 189,-739.5 183,-739.5"/>
<text text-anchor="start" x="100" y="-723" font-family="Helvetica,sans-Serif" font-size="10.00">vector&lt; string &gt;</text>
<text text-anchor="start" x="139" y="-708" font-family="Helvetica,sans-Serif" font-size="10.00"> </text>
<text text-anchor="start" x="139" y="-693" font-family="Helvetica,sans-Serif" font-size="10.00"> </text>
<polygon fill="#666666" stroke="#666666" points="95,-718 95,-718 187,-718 187,-718 95,-718"/>
<polygon fill="#666666" stroke="#666666" points="95,-703 95,-703 187,-703 187,-703 95,-703"/>
<polygon fill="none" stroke="#666666" points="95,-686.5 95,-735.5 187,-735.5 187,-686.5 95,-686.5"/>
</a>
</g>
</g>
<!-- Node3&#45;&gt;Node1 -->
<g id="edge2_Node000001_Node000003" class="edge">
<title>Node3&#45;&gt;Node1</title>
<g id="a_edge2_Node000001_Node000003"><a xlink:title=" ">
<path fill="none" stroke="#63b8ff" d="M141.15,-682.4C142.11,-642.32 146.75,-566.13 167,-505 181.18,-462.22 202.64,-418.5 224.81,-379.4"/>
<polygon fill="none" stroke="#63b8ff" points="224.94,-379.17 224.47,-371.98 230.92,-368.77 231.4,-375.96 224.94,-379.17"/>
</a>
</g>
<text text-anchor="middle" x="232" y="-651" font-family="Helvetica,sans-Serif" font-size="10.00" fill="grey"> +atm_reg_definitions</text>
<text text-anchor="start" x="167" y="-640" font-family="Helvetica,sans-Serif" font-size="10.00" fill="grey">+atmos_ocean_dealiasing</text>
<text text-anchor="middle" x="232" y="-629" font-family="Helvetica,sans-Serif" font-size="10.00" fill="grey">_files</text>
<text text-anchor="start" x="167" y="-618" font-family="Helvetica,sans-Serif" font-size="10.00" fill="grey">+atmos_tide_loading</text>
<text text-anchor="middle" x="232" y="-607" font-family="Helvetica,sans-Serif" font-size="10.00" fill="grey">_blq_files</text>
<text text-anchor="start" x="167" y="-596" font-family="Helvetica,sans-Serif" font-size="10.00" fill="grey">+atmos_tide_potential</text>
<text text-anchor="middle" x="232" y="-585" font-family="Helvetica,sans-Serif" font-size="10.00" fill="grey">_files</text>
<text text-anchor="middle" x="232" y="-574" font-family="Helvetica,sans-Serif" font-size="10.00" fill="grey">+atx_files</text>
<text text-anchor="middle" x="232" y="-563" font-family="Helvetica,sans-Serif" font-size="10.00" fill="grey">+bsx_files</text>
<text text-anchor="middle" x="232" y="-552" font-family="Helvetica,sans-Serif" font-size="10.00" fill="grey">+clk_files</text>
<text text-anchor="middle" x="232" y="-541" font-family="Helvetica,sans-Serif" font-size="10.00" fill="grey">+cmc_files</text>
<text text-anchor="middle" x="232" y="-530" font-family="Helvetica,sans-Serif" font-size="10.00" fill="grey">+com_files</text>
<text text-anchor="middle" x="232" y="-519" font-family="Helvetica,sans-Serif" font-size="10.00" fill="grey">+crd_files</text>
<text text-anchor="middle" x="232" y="-508" font-family="Helvetica,sans-Serif" font-size="10.00" fill="grey">...</text>
</g>
<!-- Node4 -->
<g id="Node000004" class="node">
<title>Node4</title>
<g id="a_Node000004"><a xlink:title=" ">
<path fill="white" stroke="#666666" d="M315.5,-849C315.5,-849 282.5,-849 282.5,-849 276.5,-849 270.5,-843 270.5,-837 270.5,-837 270.5,-804 270.5,-804 270.5,-798 276.5,-792 282.5,-792 282.5,-792 315.5,-792 315.5,-792 321.5,-792 327.5,-798 327.5,-804 327.5,-804 327.5,-837 327.5,-837 327.5,-843 321.5,-849 315.5,-849"/>
<text text-anchor="start" x="284" y="-832.5" font-family="Helvetica,sans-Serif" font-size="10.00">vector</text>
<text text-anchor="start" x="297.5" y="-817.5" font-family="Helvetica,sans-Serif" font-size="10.00"> </text>
<text text-anchor="start" x="297.5" y="-802.5" font-family="Helvetica,sans-Serif" font-size="10.00"> </text>
<polygon fill="#666666" stroke="#666666" points="279,-827.5 279,-827.5 320,-827.5 320,-827.5 279,-827.5"/>
<polygon fill="#666666" stroke="#666666" points="279,-812.5 279,-812.5 320,-812.5 320,-812.5 279,-812.5"/>
<polygon fill="none" stroke="#666666" points="278.5,-796 278.5,-845 319.5,-845 319.5,-796 278.5,-796"/>
</a>
</g>
</g>
<!-- Node4&#45;&gt;Node3 -->
<g id="edge3_Node000003_Node000004" class="edge">
<title>Node4&#45;&gt;Node3</title>
<g id="a_edge3_Node000003_Node000004"><a xlink:title=" ">
<path fill="none" stroke="orange" d="M261.86,-794.23C237.76,-777.83 206.34,-756.46 181.58,-739.61"/>
<polygon fill="orange" stroke="orange" points="260.15,-797.3 270.39,-800.03 264.09,-791.51 260.15,-797.3"/>
</a>
</g>
<text text-anchor="middle" x="257" y="-766" font-family="Helvetica,sans-Serif" font-size="10.00" fill="grey"> &lt; string &gt;</text>
</g>
<!-- Node7 -->
<g id="Node000007" class="node">
<title>Node7</title>
<g id="a_Node000007"><a xlink:title=" ">
<path fill="white" stroke="#666666" d="M372.5,-739.5C372.5,-739.5 225.5,-739.5 225.5,-739.5 219.5,-739.5 213.5,-733.5 213.5,-727.5 213.5,-727.5 213.5,-694.5 213.5,-694.5 213.5,-688.5 219.5,-682.5 225.5,-682.5 225.5,-682.5 372.5,-682.5 372.5,-682.5 378.5,-682.5 384.5,-688.5 384.5,-694.5 384.5,-694.5 384.5,-727.5 384.5,-727.5 384.5,-733.5 378.5,-739.5 372.5,-739.5"/>
<text text-anchor="start" x="227" y="-723" font-family="Helvetica,sans-Serif" font-size="10.00">vector&lt; E_TidalComponent &gt;</text>
<text text-anchor="start" x="297.5" y="-708" font-family="Helvetica,sans-Serif" font-size="10.00"> </text>
<text text-anchor="start" x="297.5" y="-693" font-family="Helvetica,sans-Serif" font-size="10.00"> </text>
<polygon fill="#666666" stroke="#666666" points="222,-718 222,-718 377,-718 377,-718 222,-718"/>
<polygon fill="#666666" stroke="#666666" points="222,-703 222,-703 377,-703 377,-703 222,-703"/>
<polygon fill="none" stroke="#666666" points="221.5,-686.5 221.5,-735.5 376.5,-735.5 376.5,-686.5 221.5,-686.5"/>
</a>
</g>
</g>
<!-- Node4&#45;&gt;Node7 -->
<g id="edge7_Node000007_Node000004" class="edge">
<title>Node4&#45;&gt;Node7</title>
<g id="a_edge7_Node000007_Node000004"><a xlink:title=" ">
<path fill="none" stroke="orange" d="M299,-781.6C299,-767.75 299,-752.37 299,-739.59"/>
<polygon fill="orange" stroke="orange" points="295.5,-781.82 299,-791.82 302.5,-781.82 295.5,-781.82"/>
</a>
</g>
<text text-anchor="middle" x="358" y="-766" font-family="Helvetica,sans-Serif" font-size="10.00" fill="grey"> &lt; E_TidalComponent &gt;</text>
</g>
<!-- Node8 -->
<g id="Node000008" class="node">
<title>Node8</title>
<g id="a_Node000008"><a xlink:title=" ">
<path fill="white" stroke="#666666" d="M561.5,-739.5C561.5,-739.5 414.5,-739.5 414.5,-739.5 408.5,-739.5 402.5,-733.5 402.5,-727.5 402.5,-727.5 402.5,-694.5 402.5,-694.5 402.5,-688.5 408.5,-682.5 414.5,-682.5 414.5,-682.5 561.5,-682.5 561.5,-682.5 567.5,-682.5 573.5,-688.5 573.5,-694.5 573.5,-694.5 573.5,-727.5 573.5,-727.5 573.5,-733.5 567.5,-739.5 561.5,-739.5"/>
<text text-anchor="start" x="416" y="-723" font-family="Helvetica,sans-Serif" font-size="10.00">vector&lt; E_TidalConstituent &gt;</text>
<text text-anchor="start" x="486.5" y="-708" font-family="Helvetica,sans-Serif" font-size="10.00"> </text>
<text text-anchor="start" x="486.5" y="-693" font-family="Helvetica,sans-Serif" font-size="10.00"> </text>
<polygon fill="#666666" stroke="#666666" points="411,-718 411,-718 566,-718 566,-718 411,-718"/>
<polygon fill="#666666" stroke="#666666" points="411,-703 411,-703 566,-703 566,-703 411,-703"/>
<polygon fill="none" stroke="#666666" points="410.5,-686.5 410.5,-735.5 565.5,-735.5 565.5,-686.5 410.5,-686.5"/>
</a>
</g>
</g>
<!-- Node4&#45;&gt;Node8 -->
<g id="edge9_Node000008_Node000004" class="edge">
<title>Node4&#45;&gt;Node8</title>
<g id="a_edge9_Node000008_Node000004"><a xlink:title=" ">
<path fill="none" stroke="orange" d="M337.39,-809.4C362.34,-801.84 394.94,-790.04 421,-774 436.25,-764.61 451.09,-751.43 462.91,-739.64"/>
<polygon fill="orange" stroke="orange" points="336.16,-806.11 327.55,-812.28 338.13,-812.83 336.16,-806.11"/>
</a>
</g>
<text text-anchor="middle" x="495" y="-766" font-family="Helvetica,sans-Serif" font-size="10.00" fill="grey"> &lt; E_TidalConstituent &gt;</text>
</g>
<!-- Node5 -->
<g id="Node000005" class="node">
<title>Node5</title>
<g id="a_Node000005"><a xlink:title=" ">
<path fill="white" stroke="#666666" d="M704,-745C704,-745 604,-745 604,-745 598,-745 592,-739 592,-733 592,-733 592,-689 592,-689 592,-683 598,-677 604,-677 604,-677 704,-677 704,-677 710,-677 716,-683 716,-689 716,-689 716,-733 716,-733 716,-739 710,-745 704,-745"/>
<text text-anchor="start" x="605" y="-729" font-family="Helvetica,sans-Serif" font-size="10.00">map&lt; string, vector</text>
<text text-anchor="start" x="623" y="-718" font-family="Helvetica,sans-Serif" font-size="10.00">&lt; string &gt; &gt;</text>
<text text-anchor="start" x="652" y="-703" font-family="Helvetica,sans-Serif" font-size="10.00"> </text>
<text text-anchor="start" x="652" y="-688" font-family="Helvetica,sans-Serif" font-size="10.00"> </text>
<polygon fill="#666666" stroke="#666666" points="600,-713 600,-713 708,-713 708,-713 600,-713"/>
<polygon fill="#666666" stroke="#666666" points="600,-698 600,-698 708,-698 708,-698 600,-698"/>
<polygon fill="none" stroke="#666666" points="600,-681 600,-741 708,-741 708,-681 600,-681"/>
</a>
</g>
</g>
<!-- Node5&#45;&gt;Node1 -->
<g id="edge4_Node000001_Node000005" class="edge">
<title>Node5&#45;&gt;Node1</title>
<g id="a_edge4_Node000001_Node000005"><a xlink:title=" ">
<path fill="none" stroke="#63b8ff" d="M643.95,-676.92C630.26,-634.79 603.12,-560.78 566,-505 521.27,-437.78 458.06,-372.49 406.14,-324.09"/>
<polygon fill="none" stroke="#63b8ff" points="406.06,-324.01 398.93,-322.87 397.25,-315.86 404.37,-317 406.06,-324.01"/>
</a>
</g>
<text text-anchor="middle" x="689" y="-607" font-family="Helvetica,sans-Serif" font-size="10.00" fill="grey"> +custom_inputs</text>
<text text-anchor="middle" x="689" y="-596" font-family="Helvetica,sans-Serif" font-size="10.00" fill="grey">+obs_rtcm_inputs</text>
<text text-anchor="middle" x="689" y="-585" font-family="Helvetica,sans-Serif" font-size="10.00" fill="grey">+pseudo_snx_inputs</text>
<text text-anchor="middle" x="689" y="-574" font-family="Helvetica,sans-Serif" font-size="10.00" fill="grey">+pseudo_sp3_inputs</text>
<text text-anchor="middle" x="689" y="-563" font-family="Helvetica,sans-Serif" font-size="10.00" fill="grey">+rnx_inputs</text>
<text text-anchor="middle" x="689" y="-552" font-family="Helvetica,sans-Serif" font-size="10.00" fill="grey">+ubx_inputs</text>
</g>
<!-- Node6 -->
<g id="Node000006" class="node">
<title>Node6</title>
<g id="a_Node000006"><a xlink:title=" ">
<path fill="white" stroke="#666666" d="M666,-849C666,-849 642,-849 642,-849 636,-849 630,-843 630,-837 630,-837 630,-804 630,-804 630,-798 636,-792 642,-792 642,-792 666,-792 666,-792 672,-792 678,-798 678,-804 678,-804 678,-837 678,-837 678,-843 672,-849 666,-849"/>
<text text-anchor="start" x="643" y="-832.5" font-family="Helvetica,sans-Serif" font-size="10.00">map</text>
<text text-anchor="start" x="652" y="-817.5" font-family="Helvetica,sans-Serif" font-size="10.00"> </text>
<text text-anchor="start" x="652" y="-802.5" font-family="Helvetica,sans-Serif" font-size="10.00"> </text>
<polygon fill="#666666" stroke="#666666" points="638,-827.5 638,-827.5 670,-827.5 670,-827.5 638,-827.5"/>
<polygon fill="#666666" stroke="#666666" points="638,-812.5 638,-812.5 670,-812.5 670,-812.5 638,-812.5"/>
<polygon fill="none" stroke="#666666" points="638,-796 638,-845 670,-845 670,-796 638,-796"/>
</a>
</g>
</g>
<!-- Node6&#45;&gt;Node5 -->
<g id="edge5_Node000005_Node000006" class="edge">
<title>Node6&#45;&gt;Node5</title>
<g id="a_edge5_Node000005_Node000006"><a xlink:title=" ">
<path fill="none" stroke="orange" d="M654,-781.75C654,-769.88 654,-756.87 654,-745.34"/>
<polygon fill="orange" stroke="orange" points="650.5,-781.82 654,-791.82 657.5,-781.82 650.5,-781.82"/>
</a>
</g>
<text text-anchor="middle" x="724.5" y="-766" font-family="Helvetica,sans-Serif" font-size="10.00" fill="grey"> &lt; string, vector&lt; string &gt; &gt;</text>
</g>
<!-- Node7&#45;&gt;Node1 -->
<g id="edge6_Node000001_Node000007" class="edge">
<title>Node7&#45;&gt;Node1</title>
<g id="a_edge6_Node000001_Node000007"><a xlink:title=" ">
<path fill="none" stroke="#63b8ff" d="M299.89,-682.27C301.1,-644.68 303.39,-573.69 305.78,-499.65"/>
<polygon fill="none" stroke="#63b8ff" points="305.79,-499.26 301.99,-493.13 306.18,-487.27 309.98,-493.39 305.79,-499.26"/>
</a>
</g>
<text text-anchor="middle" x="355.5" y="-585" font-family="Helvetica,sans-Serif" font-size="10.00" fill="grey"> +atl_blq_row_order</text>
<text text-anchor="middle" x="355.5" y="-574" font-family="Helvetica,sans-Serif" font-size="10.00" fill="grey">+otl_blq_row_order</text>
</g>
<!-- Node8&#45;&gt;Node1 -->
<g id="edge8_Node000001_Node000008" class="edge">
<title>Node8&#45;&gt;Node1</title>
<g id="a_edge8_Node000001_Node000008"><a xlink:title=" ">
<path fill="none" stroke="#63b8ff" d="M477.64,-682.27C462.21,-641.01 431.75,-559.51 401.25,-477.91"/>
<polygon fill="none" stroke="#63b8ff" points="401.24,-477.9 395.39,-473.68 397.04,-466.66 402.89,-470.88 401.24,-477.9"/>
</a>
</g>
<text text-anchor="middle" x="514.5" y="-585" font-family="Helvetica,sans-Serif" font-size="10.00" fill="grey"> +atl_blq_col_order</text>
<text text-anchor="middle" x="514.5" y="-574" font-family="Helvetica,sans-Serif" font-size="10.00" fill="grey">+otl_blq_col_order</text>
</g>
</g>
</svg>
