<?xml version="1.0" encoding="UTF-8" standalone="no"?>
<!DOCTYPE svg PUBLIC "-//W3C//DTD SVG 1.1//EN"
 "http://www.w3.org/Graphics/SVG/1.1/DTD/svg11.dtd">
<!-- Generated by graphviz version 2.43.0 (0)
 -->
<!-- Title: Stream Pages: 1 -->
<svg width="140pt" height="214pt"
 viewBox="0.00 0.00 140.00 214.00" xmlns="http://www.w3.org/2000/svg" xmlns:xlink="http://www.w3.org/1999/xlink">
<g id="graph0" class="graph" transform="scale(1 1) rotate(0) translate(4 210)">
<title>Stream</title>
<!-- Node1 -->
<g id="Node000001" class="node">
<title>Node1</title>
<g id="a_Node000001"><a xlink:href="structStream.html" target="_top" xlink:title=" ">
<path fill="white" stroke="#666666" stroke-width="2" d="M106,-102C106,-102 12,-102 12,-102 6,-102 0,-96 0,-90 0,-90 0,-12 0,-12 0,-6 6,0 12,0 12,0 106,0 106,0 112,0 118,-6 118,-12 118,-12 118,-90 118,-90 118,-96 112,-102 106,-102"/>
<text text-anchor="start" x="41" y="-86" font-family="Helvetica,sans-Serif" font-size="10.00">Stream</text>
<text text-anchor="start" x="57" y="-71" font-family="Helvetica,sans-Serif" font-size="10.00"> </text>
<text text-anchor="start" x="12" y="-56" font-family="Helvetica,sans-Serif" font-size="10.00">+</text>
<text text-anchor="start" x="25" y="-56" font-family="Helvetica,sans-Serif" font-size="10.00">getIStream_ptr()</text>
<text text-anchor="start" x="12" y="-41" font-family="Helvetica,sans-Serif" font-size="10.00">+</text>
<text text-anchor="start" x="25" y="-41" font-family="Helvetica,sans-Serif" font-size="10.00">isDead()</text>
<text text-anchor="start" x="12" y="-26" font-family="Helvetica,sans-Serif" font-size="10.00">+</text>
<text text-anchor="start" x="25" y="-26" font-family="Helvetica,sans-Serif" font-size="10.00">isAvailable()</text>
<text text-anchor="start" x="12" y="-11" font-family="Helvetica,sans-Serif" font-size="10.00">+</text>
<text text-anchor="start" x="25" y="-11" font-family="Helvetica,sans-Serif" font-size="10.00">~Stream()</text>
<polygon fill="#666666" stroke="#666666" points="8,-81 8,-81 110,-81 110,-81 8,-81"/>
<polygon fill="#666666" stroke="#666666" points="8,-66 8,-66 110,-66 110,-66 8,-66"/>
<polygon fill="none" stroke="#666666" points="8,-4 8,-98 110,-98 110,-4 8,-4"/>
</a>
</g>
</g>
<!-- Node2 -->
<g id="Node000002" class="node">
<title>Node2</title>
<g id="a_Node000002"><a xlink:title=" ">
<path fill="white" stroke="#666666" d="M74,-206C74,-206 44,-206 44,-206 38,-206 32,-200 32,-194 32,-194 32,-161 32,-161 32,-155 38,-149 44,-149 44,-149 74,-149 74,-149 80,-149 86,-155 86,-161 86,-161 86,-194 86,-194 86,-200 80,-206 74,-206"/>
<text text-anchor="start" x="45" y="-189.5" font-family="Helvetica,sans-Serif" font-size="10.00">string</text>
<text text-anchor="start" x="57" y="-174.5" font-family="Helvetica,sans-Serif" font-size="10.00"> </text>
<text text-anchor="start" x="57" y="-159.5" font-family="Helvetica,sans-Serif" font-size="10.00"> </text>
<polygon fill="#666666" stroke="#666666" points="40,-184.5 40,-184.5 78,-184.5 78,-184.5 40,-184.5"/>
<polygon fill="#666666" stroke="#666666" points="40,-169.5 40,-169.5 78,-169.5 78,-169.5 40,-169.5"/>
<polygon fill="none" stroke="#666666" points="40,-153 40,-202 78,-202 78,-153 40,-153"/>
</a>
</g>
</g>
<!-- Node2&#45;&gt;Node1 -->
<g id="edge1_Node000001_Node000002" class="edge">
<title>Node2&#45;&gt;Node1</title>
<g id="a_edge1_Node000001_Node000002"><a xlink:title=" ">
<path fill="none" stroke="#63b8ff" d="M59,-148.87C59,-138.55 59,-126.38 59,-114.2"/>
<polygon fill="none" stroke="#63b8ff" points="59,-114.1 55,-108.1 59,-102.1 63,-108.1 59,-114.1"/>
</a>
</g>
<text text-anchor="middle" x="95.5" y="-123" font-family="Helvetica,sans-Serif" font-size="10.00" fill="grey"> +sourceString</text>
</g>
</g>
</svg>
