<?xml version="1.0" encoding="UTF-8" standalone="no"?>
<!DOCTYPE svg PUBLIC "-//W3C//DTD SVG 1.1//EN"
 "http://www.w3.org/Graphics/SVG/1.1/DTD/svg11.dtd">
<!-- Generated by graphviz version 2.43.0 (0)
 -->
<!-- Title: Sp3Entry Pages: 1 -->
<svg width="220pt" height="580pt"
 viewBox="0.00 0.00 219.50 580.00" xmlns="http://www.w3.org/2000/svg" xmlns:xlink="http://www.w3.org/1999/xlink">
<g id="graph0" class="graph" transform="scale(1 1) rotate(0) translate(4 576)">
<title>Sp3Entry</title>
<!-- Node1 -->
<g id="Node000001" class="node">
<title>Node1</title>
<g id="a_Node000001"><a xlink:href="structSp3Entry.html" target="_top" xlink:title=" ">
<path fill="white" stroke="#666666" stroke-width="2" d="M178.5,-102C178.5,-102 119.5,-102 119.5,-102 113.5,-102 107.5,-96 107.5,-90 107.5,-90 107.5,-12 107.5,-12 107.5,-6 113.5,0 119.5,0 119.5,0 178.5,0 178.5,0 184.5,0 190.5,-6 190.5,-12 190.5,-12 190.5,-90 190.5,-90 190.5,-96 184.5,-102 178.5,-102"/>
<text text-anchor="start" x="127.5" y="-86" font-family="Helvetica,sans-Serif" font-size="10.00">Sp3Entry</text>
<text text-anchor="start" x="120" y="-71" font-family="Helvetica,sans-Serif" font-size="10.00">+</text>
<text text-anchor="start" x="133" y="-71" font-family="Helvetica,sans-Serif" font-size="10.00">satClk</text>
<text text-anchor="start" x="120" y="-56" font-family="Helvetica,sans-Serif" font-size="10.00">+</text>
<text text-anchor="start" x="133" y="-56" font-family="Helvetica,sans-Serif" font-size="10.00">satClkVel</text>
<text text-anchor="start" x="120" y="-41" font-family="Helvetica,sans-Serif" font-size="10.00">+</text>
<text text-anchor="start" x="133" y="-41" font-family="Helvetica,sans-Serif" font-size="10.00">sigma</text>
<text text-anchor="start" x="120" y="-26" font-family="Helvetica,sans-Serif" font-size="10.00">+</text>
<text text-anchor="start" x="133" y="-26" font-family="Helvetica,sans-Serif" font-size="10.00">predicted</text>
<text text-anchor="start" x="147.5" y="-11" font-family="Helvetica,sans-Serif" font-size="10.00"> </text>
<polygon fill="#666666" stroke="#666666" points="116,-81 116,-81 183,-81 183,-81 116,-81"/>
<polygon fill="#666666" stroke="#666666" points="116,-21 116,-21 131,-21 131,-21 116,-21"/>
<polygon fill="#666666" stroke="#666666" points="131,-21 131,-21 183,-21 183,-21 131,-21"/>
<polygon fill="none" stroke="#666666" points="115.5,-4 115.5,-98 182.5,-98 182.5,-4 115.5,-4"/>
</a>
</g>
</g>
<!-- Node2 -->
<g id="Node000002" class="node">
<title>Node2</title>
<g id="a_Node000002"><a xlink:href="structSatSys.html" target="_top" xlink:title="Object holding satellite id, and providing related functions.">
<path fill="white" stroke="#666666" d="M112.5,-457C112.5,-457 19.5,-457 19.5,-457 13.5,-457 7.5,-451 7.5,-445 7.5,-445 7.5,-172 7.5,-172 7.5,-166 13.5,-160 19.5,-160 19.5,-160 112.5,-160 112.5,-160 118.5,-160 124.5,-166 124.5,-172 124.5,-172 124.5,-445 124.5,-445 124.5,-451 118.5,-457 112.5,-457"/>
<text text-anchor="start" x="49.5" y="-440.5" font-family="Helvetica,sans-Serif" font-size="10.00">SatSys</text>
<text text-anchor="start" x="20" y="-425.5" font-family="Helvetica,sans-Serif" font-size="10.00">+</text>
<text text-anchor="start" x="33" y="-425.5" font-family="Helvetica,sans-Serif" font-size="10.00">sys</text>
<text text-anchor="start" x="20" y="-410.5" font-family="Helvetica,sans-Serif" font-size="10.00">+</text>
<text text-anchor="start" x="33" y="-410.5" font-family="Helvetica,sans-Serif" font-size="10.00">prn</text>
<text text-anchor="start" x="20" y="-395.5" font-family="Helvetica,sans-Serif" font-size="10.00">+</text>
<text text-anchor="start" x="33" y="-395.5" font-family="Helvetica,sans-Serif" font-size="10.00">SatSys()</text>
<text text-anchor="start" x="20" y="-380.5" font-family="Helvetica,sans-Serif" font-size="10.00">+</text>
<text text-anchor="start" x="33" y="-380.5" font-family="Helvetica,sans-Serif" font-size="10.00">sysChar()</text>
<text text-anchor="start" x="20" y="-365.5" font-family="Helvetica,sans-Serif" font-size="10.00">+</text>
<text text-anchor="start" x="33" y="-365.5" font-family="Helvetica,sans-Serif" font-size="10.00">getId()</text>
<text text-anchor="start" x="20" y="-350.5" font-family="Helvetica,sans-Serif" font-size="10.00">+</text>
<text text-anchor="start" x="33" y="-350.5" font-family="Helvetica,sans-Serif" font-size="10.00">operator int()</text>
<text text-anchor="start" x="20" y="-335.5" font-family="Helvetica,sans-Serif" font-size="10.00">+</text>
<text text-anchor="start" x="33" y="-335.5" font-family="Helvetica,sans-Serif" font-size="10.00">setBlockType()</text>
<text text-anchor="start" x="20" y="-320.5" font-family="Helvetica,sans-Serif" font-size="10.00">+</text>
<text text-anchor="start" x="33" y="-320.5" font-family="Helvetica,sans-Serif" font-size="10.00">setSvn()</text>
<text text-anchor="start" x="20" y="-305.5" font-family="Helvetica,sans-Serif" font-size="10.00">+</text>
<text text-anchor="start" x="33" y="-305.5" font-family="Helvetica,sans-Serif" font-size="10.00">blockType()</text>
<text text-anchor="start" x="20" y="-290.5" font-family="Helvetica,sans-Serif" font-size="10.00">+</text>
<text text-anchor="start" x="33" y="-290.5" font-family="Helvetica,sans-Serif" font-size="10.00">svn()</text>
<text text-anchor="start" x="20" y="-275.5" font-family="Helvetica,sans-Serif" font-size="10.00">+</text>
<text text-anchor="start" x="33" y="-275.5" font-family="Helvetica,sans-Serif" font-size="10.00">fromHash()</text>
<text text-anchor="start" x="20" y="-260.5" font-family="Helvetica,sans-Serif" font-size="10.00">+</text>
<text text-anchor="start" x="33" y="-260.5" font-family="Helvetica,sans-Serif" font-size="10.00">id()</text>
<text text-anchor="start" x="20" y="-245.5" font-family="Helvetica,sans-Serif" font-size="10.00">+</text>
<text text-anchor="start" x="33" y="-245.5" font-family="Helvetica,sans-Serif" font-size="10.00">operator string()</text>
<text text-anchor="start" x="20" y="-230.5" font-family="Helvetica,sans-Serif" font-size="10.00">+</text>
<text text-anchor="start" x="33" y="-230.5" font-family="Helvetica,sans-Serif" font-size="10.00">SatSys()</text>
<text text-anchor="start" x="20" y="-215.5" font-family="Helvetica,sans-Serif" font-size="10.00">+</text>
<text text-anchor="start" x="33" y="-215.5" font-family="Helvetica,sans-Serif" font-size="10.00">sysName()</text>
<text text-anchor="start" x="20" y="-200.5" font-family="Helvetica,sans-Serif" font-size="10.00">+</text>
<text text-anchor="start" x="33" y="-200.5" font-family="Helvetica,sans-Serif" font-size="10.00">serialize()</text>
<text text-anchor="start" x="20" y="-185.5" font-family="Helvetica,sans-Serif" font-size="10.00">+</text>
<text text-anchor="start" x="33" y="-185.5" font-family="Helvetica,sans-Serif" font-size="10.00">noSat()</text>
<text text-anchor="start" x="20" y="-170.5" font-family="Helvetica,sans-Serif" font-size="10.00">+</text>
<text text-anchor="start" x="33" y="-170.5" font-family="Helvetica,sans-Serif" font-size="10.00">sysFromChar()</text>
<polygon fill="#666666" stroke="#666666" points="16,-435.5 16,-435.5 117,-435.5 117,-435.5 16,-435.5"/>
<polygon fill="#666666" stroke="#666666" points="16,-405.5 16,-405.5 31,-405.5 31,-405.5 16,-405.5"/>
<polygon fill="#666666" stroke="#666666" points="31,-405.5 31,-405.5 117,-405.5 117,-405.5 31,-405.5"/>
<polygon fill="none" stroke="#666666" points="15.5,-164 15.5,-453 116.5,-453 116.5,-164 15.5,-164"/>
</a>
</g>
</g>
<!-- Node2&#45;&gt;Node1 -->
<g id="edge1_Node000001_Node000002" class="edge">
<title>Node2&#45;&gt;Node1</title>
<g id="a_edge1_Node000001_Node000002"><a xlink:title=" ">
<path fill="none" stroke="#63b8ff" d="M110.87,-159.88C115.21,-146.37 119.63,-132.91 124,-120 124.71,-117.9 125.44,-115.77 126.18,-113.62"/>
<polygon fill="none" stroke="#63b8ff" points="126.28,-113.35 124.5,-106.36 130.27,-102.03 132.05,-109.02 126.28,-113.35"/>
</a>
</g>
<text text-anchor="middle" x="138" y="-128.5" font-family="Helvetica,sans-Serif" font-size="10.00" fill="grey"> +Sat</text>
</g>
<!-- Node3 -->
<g id="Node000003" class="node">
<title>Node3</title>
<g id="a_Node000003"><a xlink:title=" ">
<path fill="#fff0f0" stroke="red" d="M120,-572C120,-572 12,-572 12,-572 6,-572 0,-566 0,-560 0,-560 0,-516 0,-516 0,-510 6,-504 12,-504 12,-504 120,-504 120,-504 126,-504 132,-510 132,-516 132,-516 132,-560 132,-560 132,-566 126,-572 120,-572"/>
<text text-anchor="start" x="13" y="-556" font-family="Helvetica,sans-Serif" font-size="10.00">map&lt; SatSys, SatSys</text>
<text text-anchor="start" x="37.5" y="-545" font-family="Helvetica,sans-Serif" font-size="10.00">::SatData &gt;</text>
<text text-anchor="start" x="64" y="-530" font-family="Helvetica,sans-Serif" font-size="10.00"> </text>
<text text-anchor="start" x="64" y="-515" font-family="Helvetica,sans-Serif" font-size="10.00"> </text>
<polygon fill="red" stroke="red" points="8,-540 8,-540 124,-540 124,-540 8,-540"/>
<polygon fill="red" stroke="red" points="8,-525 8,-525 124,-525 124,-525 8,-525"/>
<polygon fill="none" stroke="red" points="8,-508 8,-568 124,-568 124,-508 8,-508"/>
</a>
</g>
</g>
<!-- Node3&#45;&gt;Node2 -->
<g id="edge2_Node000002_Node000003" class="edge">
<title>Node3&#45;&gt;Node2</title>
<g id="a_edge2_Node000002_Node000003"><a xlink:title=" ">
<path fill="none" stroke="#63b8ff" d="M66,-503.92C66,-493.93 66,-482.22 66,-469.6"/>
<polygon fill="none" stroke="#63b8ff" points="66,-469.24 62,-463.24 66,-457.24 70,-463.24 66,-469.24"/>
</a>
</g>
<text text-anchor="middle" x="101.5" y="-478" font-family="Helvetica,sans-Serif" font-size="10.00" fill="grey"> +satDataMap</text>
</g>
<!-- Node5 -->
<g id="Node000005" class="node">
<title>Node5</title>
<g id="a_Node000005"><a xlink:title=" ">
<path fill="white" stroke="#666666" d="M199.5,-337C199.5,-337 154.5,-337 154.5,-337 148.5,-337 142.5,-331 142.5,-325 142.5,-325 142.5,-292 142.5,-292 142.5,-286 148.5,-280 154.5,-280 154.5,-280 199.5,-280 199.5,-280 205.5,-280 211.5,-286 211.5,-292 211.5,-292 211.5,-325 211.5,-325 211.5,-331 205.5,-337 199.5,-337"/>
<text text-anchor="start" x="156" y="-320.5" font-family="Helvetica,sans-Serif" font-size="10.00">Vector3d</text>
<text text-anchor="start" x="175.5" y="-305.5" font-family="Helvetica,sans-Serif" font-size="10.00"> </text>
<text text-anchor="start" x="175.5" y="-290.5" font-family="Helvetica,sans-Serif" font-size="10.00"> </text>
<polygon fill="#666666" stroke="#666666" points="151,-315.5 151,-315.5 204,-315.5 204,-315.5 151,-315.5"/>
<polygon fill="#666666" stroke="#666666" points="151,-300.5 151,-300.5 204,-300.5 204,-300.5 151,-300.5"/>
<polygon fill="none" stroke="#666666" points="150.5,-284 150.5,-333 203.5,-333 203.5,-284 150.5,-284"/>
</a>
</g>
</g>
<!-- Node5&#45;&gt;Node1 -->
<g id="edge3_Node000001_Node000005" class="edge">
<title>Node5&#45;&gt;Node1</title>
<g id="a_edge3_Node000001_Node000005"><a xlink:title=" ">
<path fill="none" stroke="#63b8ff" d="M173.95,-279.67C169.62,-240.19 161.59,-166.87 155.8,-114.09"/>
<polygon fill="none" stroke="#63b8ff" points="155.8,-114.08 151.17,-108.56 154.5,-102.16 159.13,-107.68 155.8,-114.08"/>
</a>
</g>
<text text-anchor="middle" x="180" y="-134" font-family="Helvetica,sans-Serif" font-size="10.00" fill="grey"> +satPos</text>
<text text-anchor="middle" x="180" y="-123" font-family="Helvetica,sans-Serif" font-size="10.00" fill="grey">+satVel</text>
</g>
</g>
</svg>
