<?xml version="1.0" encoding="UTF-8" standalone="no"?>
<!DOCTYPE svg PUBLIC "-//W3C//DTD SVG 1.1//EN"
 "http://www.w3.org/Graphics/SVG/1.1/DTD/svg11.dtd">
<!-- Generated by graphviz version 2.43.0 (0)
 -->
<!-- Title: PppOptions Pages: 1 -->
<svg width="167pt" height="656pt"
 viewBox="0.00 0.00 167.00 656.00" xmlns="http://www.w3.org/2000/svg" xmlns:xlink="http://www.w3.org/1999/xlink">
<g id="graph0" class="graph" transform="scale(1 1) rotate(0) translate(4 652)">
<title>PppOptions</title>
<!-- Node1 -->
<g id="Node000001" class="node">
<title>Node1</title>
<g id="a_Node000001"><a xlink:href="structPppOptions.html" target="_top" xlink:title="Options associated with the ppp processing mode of operation.">
<path fill="white" stroke="#666666" stroke-width="2" d="M147,-267C147,-267 12,-267 12,-267 6,-267 0,-261 0,-255 0,-255 0,-12 0,-12 0,-6 6,0 12,0 12,0 147,0 147,0 153,0 159,-6 159,-12 159,-12 159,-255 159,-255 159,-261 153,-267 147,-267"/>
<text text-anchor="start" x="52" y="-250.5" font-family="Helvetica,sans-Serif" font-size="10.00">PppOptions</text>
<text text-anchor="start" x="12.5" y="-235.5" font-family="Helvetica,sans-Serif" font-size="10.00">+</text>
<text text-anchor="start" x="25.5" y="-235.5" font-family="Helvetica,sans-Serif" font-size="10.00">eop</text>
<text text-anchor="start" x="12.5" y="-220.5" font-family="Helvetica,sans-Serif" font-size="10.00">+</text>
<text text-anchor="start" x="25.5" y="-220.5" font-family="Helvetica,sans-Serif" font-size="10.00">eop_rates</text>
<text text-anchor="start" x="12.5" y="-205.5" font-family="Helvetica,sans-Serif" font-size="10.00">+</text>
<text text-anchor="start" x="25.5" y="-205.5" font-family="Helvetica,sans-Serif" font-size="10.00">ionoOpts</text>
<text text-anchor="start" x="12.5" y="-190.5" font-family="Helvetica,sans-Serif" font-size="10.00">+</text>
<text text-anchor="start" x="25.5" y="-190.5" font-family="Helvetica,sans-Serif" font-size="10.00">equate_ionospheres</text>
<text text-anchor="start" x="12.5" y="-175.5" font-family="Helvetica,sans-Serif" font-size="10.00">+</text>
<text text-anchor="start" x="25.5" y="-175.5" font-family="Helvetica,sans-Serif" font-size="10.00">equate_tropospheres</text>
<text text-anchor="start" x="12.5" y="-160.5" font-family="Helvetica,sans-Serif" font-size="10.00">+</text>
<text text-anchor="start" x="25.5" y="-160.5" font-family="Helvetica,sans-Serif" font-size="10.00">use_rtk_combo</text>
<text text-anchor="start" x="12.5" y="-145.5" font-family="Helvetica,sans-Serif" font-size="10.00">+</text>
<text text-anchor="start" x="25.5" y="-145.5" font-family="Helvetica,sans-Serif" font-size="10.00">merge_correlated_states</text>
<text text-anchor="start" x="12.5" y="-130.5" font-family="Helvetica,sans-Serif" font-size="10.00">+</text>
<text text-anchor="start" x="25.5" y="-130.5" font-family="Helvetica,sans-Serif" font-size="10.00">use_primary_signals</text>
<text text-anchor="start" x="12.5" y="-115.5" font-family="Helvetica,sans-Serif" font-size="10.00">+</text>
<text text-anchor="start" x="25.5" y="-115.5" font-family="Helvetica,sans-Serif" font-size="10.00">add_eop_component</text>
<text text-anchor="start" x="12.5" y="-100.5" font-family="Helvetica,sans-Serif" font-size="10.00">+</text>
<text text-anchor="start" x="25.5" y="-100.5" font-family="Helvetica,sans-Serif" font-size="10.00">satellite_chunking</text>
<text text-anchor="start" x="12.5" y="-85.5" font-family="Helvetica,sans-Serif" font-size="10.00">+</text>
<text text-anchor="start" x="25.5" y="-85.5" font-family="Helvetica,sans-Serif" font-size="10.00">receiver_chunking</text>
<text text-anchor="start" x="12.5" y="-70.5" font-family="Helvetica,sans-Serif" font-size="10.00">+</text>
<text text-anchor="start" x="25.5" y="-70.5" font-family="Helvetica,sans-Serif" font-size="10.00">chunk_size</text>
<text text-anchor="start" x="12.5" y="-55.5" font-family="Helvetica,sans-Serif" font-size="10.00">+</text>
<text text-anchor="start" x="25.5" y="-55.5" font-family="Helvetica,sans-Serif" font-size="10.00">nuke_enable</text>
<text text-anchor="start" x="12.5" y="-40.5" font-family="Helvetica,sans-Serif" font-size="10.00">+</text>
<text text-anchor="start" x="25.5" y="-40.5" font-family="Helvetica,sans-Serif" font-size="10.00">nuke_interval</text>
<text text-anchor="start" x="12.5" y="-25.5" font-family="Helvetica,sans-Serif" font-size="10.00">+</text>
<text text-anchor="start" x="25.5" y="-25.5" font-family="Helvetica,sans-Serif" font-size="10.00">nuke_states</text>
<text text-anchor="start" x="78" y="-10.5" font-family="Helvetica,sans-Serif" font-size="10.00"> </text>
<polygon fill="#666666" stroke="#666666" points="8.5,-245.5 8.5,-245.5 151.5,-245.5 151.5,-245.5 8.5,-245.5"/>
<polygon fill="#666666" stroke="#666666" points="8.5,-20.5 8.5,-20.5 23.5,-20.5 23.5,-20.5 8.5,-20.5"/>
<polygon fill="#666666" stroke="#666666" points="23.5,-20.5 23.5,-20.5 151.5,-20.5 151.5,-20.5 23.5,-20.5"/>
<polygon fill="none" stroke="#666666" points="8,-4 8,-263 151,-263 151,-4 8,-4"/>
</a>
</g>
</g>
<!-- Node2 -->
<g id="Node000002" class="node">
<title>Node2</title>
<g id="a_Node000002"><a xlink:href="structFilterOptions.html" target="_top" xlink:title=" ">
<path fill="white" stroke="#666666" d="M135,-465C135,-465 24,-465 24,-465 18,-465 12,-459 12,-453 12,-453 12,-315 12,-315 12,-309 18,-303 24,-303 24,-303 135,-303 135,-303 141,-303 147,-309 147,-315 147,-315 147,-453 147,-453 147,-459 141,-465 135,-465"/>
<text text-anchor="start" x="48.5" y="-449" font-family="Helvetica,sans-Serif" font-size="10.00">FilterOptions</text>
<text text-anchor="start" x="24.5" y="-434" font-family="Helvetica,sans-Serif" font-size="10.00">+</text>
<text text-anchor="start" x="37.5" y="-434" font-family="Helvetica,sans-Serif" font-size="10.00">simulate_filter_only</text>
<text text-anchor="start" x="24.5" y="-419" font-family="Helvetica,sans-Serif" font-size="10.00">+</text>
<text text-anchor="start" x="37.5" y="-419" font-family="Helvetica,sans-Serif" font-size="10.00">assume_linearity</text>
<text text-anchor="start" x="24.5" y="-404" font-family="Helvetica,sans-Serif" font-size="10.00">+</text>
<text text-anchor="start" x="37.5" y="-404" font-family="Helvetica,sans-Serif" font-size="10.00">advanced_postfits</text>
<text text-anchor="start" x="24.5" y="-389" font-family="Helvetica,sans-Serif" font-size="10.00">+</text>
<text text-anchor="start" x="37.5" y="-389" font-family="Helvetica,sans-Serif" font-size="10.00">joseph_stabilisation</text>
<text text-anchor="start" x="24.5" y="-374" font-family="Helvetica,sans-Serif" font-size="10.00">+</text>
<text text-anchor="start" x="37.5" y="-374" font-family="Helvetica,sans-Serif" font-size="10.00">inverter</text>
<text text-anchor="start" x="24.5" y="-359" font-family="Helvetica,sans-Serif" font-size="10.00">+</text>
<text text-anchor="start" x="37.5" y="-359" font-family="Helvetica,sans-Serif" font-size="10.00">prefitOpts</text>
<text text-anchor="start" x="24.5" y="-344" font-family="Helvetica,sans-Serif" font-size="10.00">+</text>
<text text-anchor="start" x="37.5" y="-344" font-family="Helvetica,sans-Serif" font-size="10.00">postfitOpts</text>
<text text-anchor="start" x="24.5" y="-329" font-family="Helvetica,sans-Serif" font-size="10.00">+</text>
<text text-anchor="start" x="37.5" y="-329" font-family="Helvetica,sans-Serif" font-size="10.00">chiSquareTest</text>
<text text-anchor="start" x="78" y="-314" font-family="Helvetica,sans-Serif" font-size="10.00"> </text>
<polygon fill="#666666" stroke="#666666" points="20.5,-444 20.5,-444 139.5,-444 139.5,-444 20.5,-444"/>
<polygon fill="#666666" stroke="#666666" points="20.5,-324 20.5,-324 35.5,-324 35.5,-324 20.5,-324"/>
<polygon fill="#666666" stroke="#666666" points="35.5,-324 35.5,-324 139.5,-324 139.5,-324 35.5,-324"/>
<polygon fill="none" stroke="#666666" points="20,-307 20,-461 139,-461 139,-307 20,-307"/>
</a>
</g>
</g>
<!-- Node2&#45;&gt;Node1 -->
<g id="edge1_Node000001_Node000002" class="edge">
<title>Node2&#45;&gt;Node1</title>
<g id="a_edge1_Node000001_Node000002"><a xlink:title=" ">
<path fill="none" stroke="#63b8ff" d="M79.5,-292.42C79.5,-284.24 79.5,-275.85 79.5,-267.4"/>
<polygon fill="none" stroke="#63b8ff" points="76,-292.66 79.5,-302.66 83,-292.66 76,-292.66"/>
</a>
</g>
</g>
<!-- Node3 -->
<g id="Node000003" class="node">
<title>Node3</title>
<g id="a_Node000003"><a xlink:href="structRtsOptions.html" target="_top" xlink:title=" ">
<path fill="white" stroke="#666666" d="M136,-648C136,-648 23,-648 23,-648 17,-648 11,-642 11,-636 11,-636 11,-513 11,-513 11,-507 17,-501 23,-501 23,-501 136,-501 136,-501 142,-501 148,-507 148,-513 148,-513 148,-636 148,-636 148,-642 142,-648 136,-648"/>
<text text-anchor="start" x="53" y="-631.5" font-family="Helvetica,sans-Serif" font-size="10.00">RtsOptions</text>
<text text-anchor="start" x="23.5" y="-616.5" font-family="Helvetica,sans-Serif" font-size="10.00">+</text>
<text text-anchor="start" x="36.5" y="-616.5" font-family="Helvetica,sans-Serif" font-size="10.00">rts_filename</text>
<text text-anchor="start" x="23.5" y="-601.5" font-family="Helvetica,sans-Serif" font-size="10.00">+</text>
<text text-anchor="start" x="36.5" y="-601.5" font-family="Helvetica,sans-Serif" font-size="10.00">rts_directory</text>
<text text-anchor="start" x="23.5" y="-586.5" font-family="Helvetica,sans-Serif" font-size="10.00">+</text>
<text text-anchor="start" x="36.5" y="-586.5" font-family="Helvetica,sans-Serif" font-size="10.00">rts_lag</text>
<text text-anchor="start" x="23.5" y="-571.5" font-family="Helvetica,sans-Serif" font-size="10.00">+</text>
<text text-anchor="start" x="36.5" y="-571.5" font-family="Helvetica,sans-Serif" font-size="10.00">rts_interval</text>
<text text-anchor="start" x="23.5" y="-556.5" font-family="Helvetica,sans-Serif" font-size="10.00">+</text>
<text text-anchor="start" x="36.5" y="-556.5" font-family="Helvetica,sans-Serif" font-size="10.00">rts_smoothed_suffix</text>
<text text-anchor="start" x="23.5" y="-541.5" font-family="Helvetica,sans-Serif" font-size="10.00">+</text>
<text text-anchor="start" x="36.5" y="-541.5" font-family="Helvetica,sans-Serif" font-size="10.00">queue_rts_outputs</text>
<text text-anchor="start" x="23.5" y="-526.5" font-family="Helvetica,sans-Serif" font-size="10.00">+</text>
<text text-anchor="start" x="36.5" y="-526.5" font-family="Helvetica,sans-Serif" font-size="10.00">rts_inverter</text>
<text text-anchor="start" x="78" y="-511.5" font-family="Helvetica,sans-Serif" font-size="10.00"> </text>
<polygon fill="#666666" stroke="#666666" points="19.5,-626.5 19.5,-626.5 140.5,-626.5 140.5,-626.5 19.5,-626.5"/>
<polygon fill="#666666" stroke="#666666" points="19.5,-521.5 19.5,-521.5 34.5,-521.5 34.5,-521.5 19.5,-521.5"/>
<polygon fill="#666666" stroke="#666666" points="34.5,-521.5 34.5,-521.5 140.5,-521.5 140.5,-521.5 34.5,-521.5"/>
<polygon fill="none" stroke="#666666" points="19,-505 19,-644 140,-644 140,-505 19,-505"/>
</a>
</g>
</g>
<!-- Node3&#45;&gt;Node2 -->
<g id="edge2_Node000002_Node000003" class="edge">
<title>Node3&#45;&gt;Node2</title>
<g id="a_edge2_Node000002_Node000003"><a xlink:title=" ">
<path fill="none" stroke="#63b8ff" d="M79.5,-490.63C79.5,-482.15 79.5,-473.54 79.5,-465.1"/>
<polygon fill="none" stroke="#63b8ff" points="76,-490.89 79.5,-500.89 83,-490.89 76,-490.89"/>
</a>
</g>
</g>
</g>
</svg>
