<?xml version="1.0" encoding="UTF-8" standalone="no"?>
<!DOCTYPE svg PUBLIC "-//W3C//DTD SVG 1.1//EN"
 "http://www.w3.org/Graphics/SVG/1.1/DTD/svg11.dtd">
<!-- Generated by graphviz version 2.43.0 (0)
 -->
<!-- Title: OrbitOptions Pages: 1 -->
<svg width="292pt" height="803pt"
 viewBox="0.00 0.00 291.50 803.00" xmlns="http://www.w3.org/2000/svg" xmlns:xlink="http://www.w3.org/1999/xlink">
<g id="graph0" class="graph" transform="scale(1 1) rotate(0) translate(4 799)">
<title>OrbitOptions</title>
<!-- Node1 -->
<g id="Node000001" class="node">
<title>Node1</title>
<g id="a_Node000001"><a xlink:href="structOrbitOptions.html" target="_top" xlink:title="Options associated with orbital force models.">
<path fill="white" stroke="#666666" stroke-width="2" d="M201.5,-795C201.5,-795 67.5,-795 67.5,-795 61.5,-795 55.5,-789 55.5,-783 55.5,-783 55.5,-465 55.5,-465 55.5,-459 61.5,-453 67.5,-453 67.5,-453 201.5,-453 201.5,-453 207.5,-453 213.5,-459 213.5,-465 213.5,-465 213.5,-783 213.5,-783 213.5,-789 207.5,-795 201.5,-795"/>
<text text-anchor="start" x="103.5" y="-779" font-family="Helvetica,sans-Serif" font-size="10.00">OrbitOptions</text>
<text text-anchor="start" x="67.5" y="-764" font-family="Helvetica,sans-Serif" font-size="10.00">+</text>
<text text-anchor="start" x="80.5" y="-764" font-family="Helvetica,sans-Serif" font-size="10.00">mass</text>
<text text-anchor="start" x="67.5" y="-749" font-family="Helvetica,sans-Serif" font-size="10.00">+</text>
<text text-anchor="start" x="80.5" y="-749" font-family="Helvetica,sans-Serif" font-size="10.00">area</text>
<text text-anchor="start" x="67.5" y="-734" font-family="Helvetica,sans-Serif" font-size="10.00">+</text>
<text text-anchor="start" x="80.5" y="-734" font-family="Helvetica,sans-Serif" font-size="10.00">power</text>
<text text-anchor="start" x="67.5" y="-719" font-family="Helvetica,sans-Serif" font-size="10.00">+</text>
<text text-anchor="start" x="80.5" y="-719" font-family="Helvetica,sans-Serif" font-size="10.00">srp_cr</text>
<text text-anchor="start" x="67.5" y="-704" font-family="Helvetica,sans-Serif" font-size="10.00">+</text>
<text text-anchor="start" x="80.5" y="-704" font-family="Helvetica,sans-Serif" font-size="10.00">drag_cd</text>
<text text-anchor="start" x="67.5" y="-689" font-family="Helvetica,sans-Serif" font-size="10.00">+</text>
<text text-anchor="start" x="80.5" y="-689" font-family="Helvetica,sans-Serif" font-size="10.00">planetary_perturbations</text>
<text text-anchor="start" x="67.5" y="-674" font-family="Helvetica,sans-Serif" font-size="10.00">+</text>
<text text-anchor="start" x="80.5" y="-674" font-family="Helvetica,sans-Serif" font-size="10.00">empirical</text>
<text text-anchor="start" x="67.5" y="-659" font-family="Helvetica,sans-Serif" font-size="10.00">+</text>
<text text-anchor="start" x="80.5" y="-659" font-family="Helvetica,sans-Serif" font-size="10.00">antenna_thrust</text>
<text text-anchor="start" x="67.5" y="-644" font-family="Helvetica,sans-Serif" font-size="10.00">+</text>
<text text-anchor="start" x="80.5" y="-644" font-family="Helvetica,sans-Serif" font-size="10.00">albedo</text>
<text text-anchor="start" x="67.5" y="-629" font-family="Helvetica,sans-Serif" font-size="10.00">+</text>
<text text-anchor="start" x="80.5" y="-629" font-family="Helvetica,sans-Serif" font-size="10.00">solar_radiation_pressure</text>
<text text-anchor="start" x="67.5" y="-614" font-family="Helvetica,sans-Serif" font-size="10.00">+</text>
<text text-anchor="start" x="80.5" y="-614" font-family="Helvetica,sans-Serif" font-size="10.00">drag</text>
<text text-anchor="start" x="67.5" y="-599" font-family="Helvetica,sans-Serif" font-size="10.00">+</text>
<text text-anchor="start" x="80.5" y="-599" font-family="Helvetica,sans-Serif" font-size="10.00">empirical_dyb_eclipse</text>
<text text-anchor="start" x="67.5" y="-584" font-family="Helvetica,sans-Serif" font-size="10.00">+</text>
<text text-anchor="start" x="80.5" y="-584" font-family="Helvetica,sans-Serif" font-size="10.00">empirical_rtn_eclipse</text>
<text text-anchor="start" x="67.5" y="-569" font-family="Helvetica,sans-Serif" font-size="10.00">+</text>
<text text-anchor="start" x="80.5" y="-569" font-family="Helvetica,sans-Serif" font-size="10.00">surface_details</text>
<text text-anchor="start" x="67.5" y="-554" font-family="Helvetica,sans-Serif" font-size="10.00">+</text>
<text text-anchor="start" x="80.5" y="-554" font-family="Helvetica,sans-Serif" font-size="10.00">enable</text>
<text text-anchor="start" x="67.5" y="-539" font-family="Helvetica,sans-Serif" font-size="10.00">+</text>
<text text-anchor="start" x="80.5" y="-539" font-family="Helvetica,sans-Serif" font-size="10.00">interval</text>
<text text-anchor="start" x="67.5" y="-524" font-family="Helvetica,sans-Serif" font-size="10.00">+</text>
<text text-anchor="start" x="80.5" y="-524" font-family="Helvetica,sans-Serif" font-size="10.00">pos_proc_noise</text>
<text text-anchor="start" x="67.5" y="-509" font-family="Helvetica,sans-Serif" font-size="10.00">+</text>
<text text-anchor="start" x="80.5" y="-509" font-family="Helvetica,sans-Serif" font-size="10.00">vel_proc_noise</text>
<text text-anchor="start" x="67.5" y="-494" font-family="Helvetica,sans-Serif" font-size="10.00">+</text>
<text text-anchor="start" x="80.5" y="-494" font-family="Helvetica,sans-Serif" font-size="10.00">pseudoPulses</text>
<text text-anchor="start" x="67.5" y="-479" font-family="Helvetica,sans-Serif" font-size="10.00">+</text>
<text text-anchor="start" x="80.5" y="-479" font-family="Helvetica,sans-Serif" font-size="10.00">initialisedMap</text>
<text text-anchor="start" x="67.5" y="-464" font-family="Helvetica,sans-Serif" font-size="10.00">+</text>
<text text-anchor="start" x="80.5" y="-464" font-family="Helvetica,sans-Serif" font-size="10.00">operator+=()</text>
<polygon fill="#666666" stroke="#666666" points="63.5,-774 63.5,-774 205.5,-774 205.5,-774 63.5,-774"/>
<polygon fill="#666666" stroke="#666666" points="63.5,-474 63.5,-474 78.5,-474 78.5,-474 63.5,-474"/>
<polygon fill="#666666" stroke="#666666" points="78.5,-474 78.5,-474 205.5,-474 205.5,-474 78.5,-474"/>
<polygon fill="none" stroke="#666666" points="63.5,-457 63.5,-791 205.5,-791 205.5,-457 63.5,-457"/>
</a>
</g>
</g>
<!-- Node2 -->
<g id="Node000002" class="node">
<title>Node2</title>
<g id="a_Node000002"><a xlink:href="structOrbitState.html" target="_top" xlink:title=" ">
<path fill="white" stroke="#666666" d="M107,-417C107,-417 12,-417 12,-417 6,-417 0,-411 0,-405 0,-405 0,-12 0,-12 0,-6 6,0 12,0 12,0 107,0 107,0 113,0 119,-6 119,-12 119,-12 119,-405 119,-405 119,-411 113,-417 107,-417"/>
<text text-anchor="start" x="35" y="-400.5" font-family="Helvetica,sans-Serif" font-size="10.00">OrbitState</text>
<text text-anchor="start" x="12.5" y="-385.5" font-family="Helvetica,sans-Serif" font-size="10.00">+</text>
<text text-anchor="start" x="25.5" y="-385.5" font-family="Helvetica,sans-Serif" font-size="10.00">Sat</text>
<text text-anchor="start" x="12.5" y="-370.5" font-family="Helvetica,sans-Serif" font-size="10.00">+</text>
<text text-anchor="start" x="25.5" y="-370.5" font-family="Helvetica,sans-Serif" font-size="10.00">str</text>
<text text-anchor="start" x="12.5" y="-355.5" font-family="Helvetica,sans-Serif" font-size="10.00">+</text>
<text text-anchor="start" x="25.5" y="-355.5" font-family="Helvetica,sans-Serif" font-size="10.00">exclude</text>
<text text-anchor="start" x="12.5" y="-340.5" font-family="Helvetica,sans-Serif" font-size="10.00">+</text>
<text text-anchor="start" x="25.5" y="-340.5" font-family="Helvetica,sans-Serif" font-size="10.00">subState_ptr</text>
<text text-anchor="start" x="12.5" y="-325.5" font-family="Helvetica,sans-Serif" font-size="10.00">+</text>
<text text-anchor="start" x="25.5" y="-325.5" font-family="Helvetica,sans-Serif" font-size="10.00">empInput</text>
<text text-anchor="start" x="12.5" y="-310.5" font-family="Helvetica,sans-Serif" font-size="10.00">+</text>
<text text-anchor="start" x="25.5" y="-310.5" font-family="Helvetica,sans-Serif" font-size="10.00">componentsMap</text>
<text text-anchor="start" x="12.5" y="-295.5" font-family="Helvetica,sans-Serif" font-size="10.00">+</text>
<text text-anchor="start" x="25.5" y="-295.5" font-family="Helvetica,sans-Serif" font-size="10.00">numEmp</text>
<text text-anchor="start" x="12.5" y="-280.5" font-family="Helvetica,sans-Serif" font-size="10.00">+</text>
<text text-anchor="start" x="25.5" y="-280.5" font-family="Helvetica,sans-Serif" font-size="10.00">numParam</text>
<text text-anchor="start" x="12.5" y="-265.5" font-family="Helvetica,sans-Serif" font-size="10.00">+</text>
<text text-anchor="start" x="25.5" y="-265.5" font-family="Helvetica,sans-Serif" font-size="10.00">srpCr</text>
<text text-anchor="start" x="12.5" y="-250.5" font-family="Helvetica,sans-Serif" font-size="10.00">+</text>
<text text-anchor="start" x="25.5" y="-250.5" font-family="Helvetica,sans-Serif" font-size="10.00">dragCd</text>
<text text-anchor="start" x="12.5" y="-235.5" font-family="Helvetica,sans-Serif" font-size="10.00">+</text>
<text text-anchor="start" x="25.5" y="-235.5" font-family="Helvetica,sans-Serif" font-size="10.00">pos</text>
<text text-anchor="start" x="12.5" y="-220.5" font-family="Helvetica,sans-Serif" font-size="10.00">+</text>
<text text-anchor="start" x="25.5" y="-220.5" font-family="Helvetica,sans-Serif" font-size="10.00">vel</text>
<text text-anchor="start" x="12.5" y="-205.5" font-family="Helvetica,sans-Serif" font-size="10.00">+</text>
<text text-anchor="start" x="25.5" y="-205.5" font-family="Helvetica,sans-Serif" font-size="10.00">posVelSTM</text>
<text text-anchor="start" x="12.5" y="-190.5" font-family="Helvetica,sans-Serif" font-size="10.00">+</text>
<text text-anchor="start" x="25.5" y="-190.5" font-family="Helvetica,sans-Serif" font-size="10.00">estimateCr</text>
<text text-anchor="start" x="12.5" y="-175.5" font-family="Helvetica,sans-Serif" font-size="10.00">+</text>
<text text-anchor="start" x="25.5" y="-175.5" font-family="Helvetica,sans-Serif" font-size="10.00">estimateCd</text>
<text text-anchor="start" x="12.5" y="-160.5" font-family="Helvetica,sans-Serif" font-size="10.00">+</text>
<text text-anchor="start" x="25.5" y="-160.5" font-family="Helvetica,sans-Serif" font-size="10.00">attStatus</text>
<text text-anchor="start" x="12.5" y="-145.5" font-family="Helvetica,sans-Serif" font-size="10.00">+</text>
<text text-anchor="start" x="25.5" y="-145.5" font-family="Helvetica,sans-Serif" font-size="10.00">gyroBias</text>
<text text-anchor="start" x="12.5" y="-130.5" font-family="Helvetica,sans-Serif" font-size="10.00">+</text>
<text text-anchor="start" x="25.5" y="-130.5" font-family="Helvetica,sans-Serif" font-size="10.00">acclBias</text>
<text text-anchor="start" x="12.5" y="-115.5" font-family="Helvetica,sans-Serif" font-size="10.00">+</text>
<text text-anchor="start" x="25.5" y="-115.5" font-family="Helvetica,sans-Serif" font-size="10.00">gyroScale</text>
<text text-anchor="start" x="12.5" y="-100.5" font-family="Helvetica,sans-Serif" font-size="10.00">+</text>
<text text-anchor="start" x="25.5" y="-100.5" font-family="Helvetica,sans-Serif" font-size="10.00">acclScale</text>
<text text-anchor="start" x="12.5" y="-85.5" font-family="Helvetica,sans-Serif" font-size="10.00">+</text>
<text text-anchor="start" x="25.5" y="-85.5" font-family="Helvetica,sans-Serif" font-size="10.00">posVar</text>
<text text-anchor="start" x="12.5" y="-70.5" font-family="Helvetica,sans-Serif" font-size="10.00">+</text>
<text text-anchor="start" x="25.5" y="-70.5" font-family="Helvetica,sans-Serif" font-size="10.00">operator+=()</text>
<text text-anchor="start" x="12.5" y="-55.5" font-family="Helvetica,sans-Serif" font-size="10.00">+</text>
<text text-anchor="start" x="25.5" y="-55.5" font-family="Helvetica,sans-Serif" font-size="10.00">operator*=()</text>
<text text-anchor="start" x="12.5" y="-40.5" font-family="Helvetica,sans-Serif" font-size="10.00">+</text>
<text text-anchor="start" x="25.5" y="-40.5" font-family="Helvetica,sans-Serif" font-size="10.00">operator+()</text>
<text text-anchor="start" x="12.5" y="-25.5" font-family="Helvetica,sans-Serif" font-size="10.00">+</text>
<text text-anchor="start" x="25.5" y="-25.5" font-family="Helvetica,sans-Serif" font-size="10.00">operator+()</text>
<text text-anchor="start" x="12.5" y="-10.5" font-family="Helvetica,sans-Serif" font-size="10.00">+</text>
<text text-anchor="start" x="25.5" y="-10.5" font-family="Helvetica,sans-Serif" font-size="10.00">operator*()</text>
<polygon fill="#666666" stroke="#666666" points="8.5,-395.5 8.5,-395.5 111.5,-395.5 111.5,-395.5 8.5,-395.5"/>
<polygon fill="#666666" stroke="#666666" points="8.5,-80.5 8.5,-80.5 23.5,-80.5 23.5,-80.5 8.5,-80.5"/>
<polygon fill="#666666" stroke="#666666" points="23.5,-80.5 23.5,-80.5 111.5,-80.5 111.5,-80.5 23.5,-80.5"/>
<polygon fill="none" stroke="#666666" points="8,-4 8,-413 111,-413 111,-4 8,-4"/>
</a>
</g>
</g>
<!-- Node1&#45;&gt;Node2 -->
<g id="edge1_Node000001_Node000002" class="edge">
<title>Node1&#45;&gt;Node2</title>
<g id="a_edge1_Node000001_Node000002"><a xlink:title=" ">
<path fill="none" stroke="#63b8ff" d="M101.82,-442.83C100.29,-434.37 98.74,-425.86 97.2,-417.34"/>
<polygon fill="none" stroke="#63b8ff" points="98.39,-443.51 103.62,-452.73 105.27,-442.26 98.39,-443.51"/>
</a>
</g>
</g>
<!-- Node3 -->
<g id="Node000003" class="node">
<title>Node3</title>
<g id="a_Node000003"><a xlink:href="structSatelliteOptions.html" target="_top" xlink:title="Options to be applied to kalman filter states for individual satellites.">
<path fill="white" stroke="#666666" d="M271.5,-297C271.5,-297 149.5,-297 149.5,-297 143.5,-297 137.5,-291 137.5,-285 137.5,-285 137.5,-132 137.5,-132 137.5,-126 143.5,-120 149.5,-120 149.5,-120 271.5,-120 271.5,-120 277.5,-120 283.5,-126 283.5,-132 283.5,-132 283.5,-285 283.5,-285 283.5,-291 277.5,-297 271.5,-297"/>
<text text-anchor="start" x="171" y="-280.5" font-family="Helvetica,sans-Serif" font-size="10.00">SatelliteOptions</text>
<text text-anchor="start" x="149.5" y="-265.5" font-family="Helvetica,sans-Serif" font-size="10.00">+</text>
<text text-anchor="start" x="162.5" y="-265.5" font-family="Helvetica,sans-Serif" font-size="10.00">_initialised</text>
<text text-anchor="start" x="149.5" y="-250.5" font-family="Helvetica,sans-Serif" font-size="10.00">+</text>
<text text-anchor="start" x="162.5" y="-250.5" font-family="Helvetica,sans-Serif" font-size="10.00">id</text>
<text text-anchor="start" x="149.5" y="-235.5" font-family="Helvetica,sans-Serif" font-size="10.00">+</text>
<text text-anchor="start" x="162.5" y="-235.5" font-family="Helvetica,sans-Serif" font-size="10.00">error_model</text>
<text text-anchor="start" x="149.5" y="-220.5" font-family="Helvetica,sans-Serif" font-size="10.00">+</text>
<text text-anchor="start" x="162.5" y="-220.5" font-family="Helvetica,sans-Serif" font-size="10.00">code_sigma</text>
<text text-anchor="start" x="149.5" y="-205.5" font-family="Helvetica,sans-Serif" font-size="10.00">+</text>
<text text-anchor="start" x="162.5" y="-205.5" font-family="Helvetica,sans-Serif" font-size="10.00">phase_sigma</text>
<text text-anchor="start" x="149.5" y="-190.5" font-family="Helvetica,sans-Serif" font-size="10.00">+</text>
<text text-anchor="start" x="162.5" y="-190.5" font-family="Helvetica,sans-Serif" font-size="10.00">inheritors</text>
<text text-anchor="start" x="149.5" y="-175.5" font-family="Helvetica,sans-Serif" font-size="10.00">+</text>
<text text-anchor="start" x="162.5" y="-175.5" font-family="Helvetica,sans-Serif" font-size="10.00">inheritedFrom</text>
<text text-anchor="start" x="149.5" y="-160.5" font-family="Helvetica,sans-Serif" font-size="10.00">+</text>
<text text-anchor="start" x="162.5" y="-160.5" font-family="Helvetica,sans-Serif" font-size="10.00">initialisedMap</text>
<text text-anchor="start" x="149.5" y="-145.5" font-family="Helvetica,sans-Serif" font-size="10.00">+</text>
<text text-anchor="start" x="162.5" y="-145.5" font-family="Helvetica,sans-Serif" font-size="10.00">operator+=()</text>
<text text-anchor="start" x="149.5" y="-130.5" font-family="Helvetica,sans-Serif" font-size="10.00">+</text>
<text text-anchor="start" x="162.5" y="-130.5" font-family="Helvetica,sans-Serif" font-size="10.00">uninitialiseInheritors()</text>
<polygon fill="#666666" stroke="#666666" points="145.5,-275.5 145.5,-275.5 275.5,-275.5 275.5,-275.5 145.5,-275.5"/>
<polygon fill="#666666" stroke="#666666" points="145.5,-155.5 145.5,-155.5 160.5,-155.5 160.5,-155.5 145.5,-155.5"/>
<polygon fill="#666666" stroke="#666666" points="160.5,-155.5 160.5,-155.5 275.5,-155.5 275.5,-155.5 160.5,-155.5"/>
<polygon fill="none" stroke="#666666" points="145.5,-124 145.5,-293 275.5,-293 275.5,-124 145.5,-124"/>
</a>
</g>
</g>
<!-- Node1&#45;&gt;Node3 -->
<g id="edge2_Node000001_Node000003" class="edge">
<title>Node1&#45;&gt;Node3</title>
<g id="a_edge2_Node000001_Node000003"><a xlink:title=" ">
<path fill="none" stroke="#63b8ff" d="M167.64,-442.67C176.91,-392.25 186.57,-339.69 194.37,-297.26"/>
<polygon fill="none" stroke="#63b8ff" points="164.16,-442.26 165.8,-452.73 171.05,-443.52 164.16,-442.26"/>
</a>
</g>
</g>
</g>
</svg>
