<?xml version="1.0" encoding="UTF-8" standalone="no"?>
<!DOCTYPE svg PUBLIC "-//W3C//DTD SVG 1.1//EN"
 "http://www.w3.org/Graphics/SVG/1.1/DTD/svg11.dtd">
<!-- Generated by graphviz version 2.43.0 (0)
 -->
<!-- Title: OrbitOptions Pages: 1 -->
<svg width="580pt" height="494pt"
 viewBox="0.00 0.00 579.50 494.00" xmlns="http://www.w3.org/2000/svg" xmlns:xlink="http://www.w3.org/1999/xlink">
<g id="graph0" class="graph" transform="scale(1 1) rotate(0) translate(4 490)">
<title>OrbitOptions</title>
<!-- Node1 -->
<g id="Node000001" class="node">
<title>Node1</title>
<g id="a_Node000001"><a xlink:href="structOrbitOptions.html" target="_top" xlink:title="Options associated with orbital force models.">
<path fill="white" stroke="#666666" stroke-width="2" d="M355.5,-267C355.5,-267 221.5,-267 221.5,-267 215.5,-267 209.5,-261 209.5,-255 209.5,-255 209.5,-12 209.5,-12 209.5,-6 215.5,0 221.5,0 221.5,0 355.5,0 355.5,0 361.5,0 367.5,-6 367.5,-12 367.5,-12 367.5,-255 367.5,-255 367.5,-261 361.5,-267 355.5,-267"/>
<text text-anchor="start" x="257.5" y="-250.5" font-family="Helvetica,sans-Serif" font-size="10.00">OrbitOptions</text>
<text text-anchor="start" x="221.5" y="-235.5" font-family="Helvetica,sans-Serif" font-size="10.00">+</text>
<text text-anchor="start" x="234.5" y="-235.5" font-family="Helvetica,sans-Serif" font-size="10.00">mass</text>
<text text-anchor="start" x="221.5" y="-220.5" font-family="Helvetica,sans-Serif" font-size="10.00">+</text>
<text text-anchor="start" x="234.5" y="-220.5" font-family="Helvetica,sans-Serif" font-size="10.00">area</text>
<text text-anchor="start" x="221.5" y="-205.5" font-family="Helvetica,sans-Serif" font-size="10.00">+</text>
<text text-anchor="start" x="234.5" y="-205.5" font-family="Helvetica,sans-Serif" font-size="10.00">power</text>
<text text-anchor="start" x="221.5" y="-190.5" font-family="Helvetica,sans-Serif" font-size="10.00">+</text>
<text text-anchor="start" x="234.5" y="-190.5" font-family="Helvetica,sans-Serif" font-size="10.00">srp_cr</text>
<text text-anchor="start" x="221.5" y="-175.5" font-family="Helvetica,sans-Serif" font-size="10.00">+</text>
<text text-anchor="start" x="234.5" y="-175.5" font-family="Helvetica,sans-Serif" font-size="10.00">drag_cd</text>
<text text-anchor="start" x="221.5" y="-160.5" font-family="Helvetica,sans-Serif" font-size="10.00">+</text>
<text text-anchor="start" x="234.5" y="-160.5" font-family="Helvetica,sans-Serif" font-size="10.00">empirical</text>
<text text-anchor="start" x="221.5" y="-145.5" font-family="Helvetica,sans-Serif" font-size="10.00">+</text>
<text text-anchor="start" x="234.5" y="-145.5" font-family="Helvetica,sans-Serif" font-size="10.00">antenna_thrust</text>
<text text-anchor="start" x="221.5" y="-130.5" font-family="Helvetica,sans-Serif" font-size="10.00">+</text>
<text text-anchor="start" x="234.5" y="-130.5" font-family="Helvetica,sans-Serif" font-size="10.00">albedo</text>
<text text-anchor="start" x="221.5" y="-115.5" font-family="Helvetica,sans-Serif" font-size="10.00">+</text>
<text text-anchor="start" x="234.5" y="-115.5" font-family="Helvetica,sans-Serif" font-size="10.00">solar_radiation_pressure</text>
<text text-anchor="start" x="221.5" y="-100.5" font-family="Helvetica,sans-Serif" font-size="10.00">+</text>
<text text-anchor="start" x="234.5" y="-100.5" font-family="Helvetica,sans-Serif" font-size="10.00">drag</text>
<text text-anchor="start" x="221.5" y="-85.5" font-family="Helvetica,sans-Serif" font-size="10.00">+</text>
<text text-anchor="start" x="234.5" y="-85.5" font-family="Helvetica,sans-Serif" font-size="10.00">enable</text>
<text text-anchor="start" x="221.5" y="-70.5" font-family="Helvetica,sans-Serif" font-size="10.00">+</text>
<text text-anchor="start" x="234.5" y="-70.5" font-family="Helvetica,sans-Serif" font-size="10.00">interval</text>
<text text-anchor="start" x="221.5" y="-55.5" font-family="Helvetica,sans-Serif" font-size="10.00">+</text>
<text text-anchor="start" x="234.5" y="-55.5" font-family="Helvetica,sans-Serif" font-size="10.00">pos_proc_noise</text>
<text text-anchor="start" x="221.5" y="-40.5" font-family="Helvetica,sans-Serif" font-size="10.00">+</text>
<text text-anchor="start" x="234.5" y="-40.5" font-family="Helvetica,sans-Serif" font-size="10.00">vel_proc_noise</text>
<text text-anchor="start" x="221.5" y="-25.5" font-family="Helvetica,sans-Serif" font-size="10.00">+</text>
<text text-anchor="start" x="234.5" y="-25.5" font-family="Helvetica,sans-Serif" font-size="10.00">pseudoPulses</text>
<text text-anchor="start" x="221.5" y="-10.5" font-family="Helvetica,sans-Serif" font-size="10.00">+</text>
<text text-anchor="start" x="234.5" y="-10.5" font-family="Helvetica,sans-Serif" font-size="10.00">operator+=()</text>
<polygon fill="#666666" stroke="#666666" points="217.5,-245.5 217.5,-245.5 359.5,-245.5 359.5,-245.5 217.5,-245.5"/>
<polygon fill="#666666" stroke="#666666" points="217.5,-20.5 217.5,-20.5 232.5,-20.5 232.5,-20.5 217.5,-20.5"/>
<polygon fill="#666666" stroke="#666666" points="232.5,-20.5 232.5,-20.5 359.5,-20.5 359.5,-20.5 232.5,-20.5"/>
<polygon fill="none" stroke="#666666" points="217.5,-4 217.5,-263 359.5,-263 359.5,-4 217.5,-4"/>
</a>
</g>
</g>
<!-- Node2 -->
<g id="Node000002" class="node">
<title>Node2</title>
<g id="a_Node000002"><a xlink:title=" ">
<path fill="white" stroke="#666666" d="M129,-382C129,-382 12,-382 12,-382 6,-382 0,-376 0,-370 0,-370 0,-337 0,-337 0,-331 6,-325 12,-325 12,-325 129,-325 129,-325 135,-325 141,-331 141,-337 141,-337 141,-370 141,-370 141,-376 135,-382 129,-382"/>
<text text-anchor="start" x="13.5" y="-365.5" font-family="Helvetica,sans-Serif" font-size="10.00">vector&lt; E_ThirdBody &gt;</text>
<text text-anchor="start" x="69" y="-350.5" font-family="Helvetica,sans-Serif" font-size="10.00"> </text>
<text text-anchor="start" x="69" y="-335.5" font-family="Helvetica,sans-Serif" font-size="10.00"> </text>
<polygon fill="#666666" stroke="#666666" points="8.5,-360.5 8.5,-360.5 133.5,-360.5 133.5,-360.5 8.5,-360.5"/>
<polygon fill="#666666" stroke="#666666" points="8.5,-345.5 8.5,-345.5 133.5,-345.5 133.5,-345.5 8.5,-345.5"/>
<polygon fill="none" stroke="#666666" points="8,-329 8,-378 133,-378 133,-329 8,-329"/>
</a>
</g>
</g>
<!-- Node2&#45;&gt;Node1 -->
<g id="edge1_Node000001_Node000002" class="edge">
<title>Node2&#45;&gt;Node1</title>
<g id="a_edge1_Node000001_Node000002"><a xlink:title=" ">
<path fill="none" stroke="#63b8ff" d="M68.32,-324.95C68.51,-312.04 70.56,-296.91 77.5,-285 105.16,-237.49 154.48,-201.05 198.48,-175.94"/>
<polygon fill="none" stroke="#63b8ff" points="198.75,-175.78 202.06,-169.37 209.24,-169.95 205.94,-176.37 198.75,-175.78"/>
</a>
</g>
<text text-anchor="middle" x="142" y="-293.5" font-family="Helvetica,sans-Serif" font-size="10.00" fill="grey"> +planetary_perturbations</text>
</g>
<!-- Node3 -->
<g id="Node000003" class="node">
<title>Node3</title>
<g id="a_Node000003"><a xlink:title=" ">
<path fill="white" stroke="#666666" d="M229,-486C229,-486 196,-486 196,-486 190,-486 184,-480 184,-474 184,-474 184,-441 184,-441 184,-435 190,-429 196,-429 196,-429 229,-429 229,-429 235,-429 241,-435 241,-441 241,-441 241,-474 241,-474 241,-480 235,-486 229,-486"/>
<text text-anchor="start" x="197.5" y="-469.5" font-family="Helvetica,sans-Serif" font-size="10.00">vector</text>
<text text-anchor="start" x="211" y="-454.5" font-family="Helvetica,sans-Serif" font-size="10.00"> </text>
<text text-anchor="start" x="211" y="-439.5" font-family="Helvetica,sans-Serif" font-size="10.00"> </text>
<polygon fill="#666666" stroke="#666666" points="192.5,-464.5 192.5,-464.5 233.5,-464.5 233.5,-464.5 192.5,-464.5"/>
<polygon fill="#666666" stroke="#666666" points="192.5,-449.5 192.5,-449.5 233.5,-449.5 233.5,-449.5 192.5,-449.5"/>
<polygon fill="none" stroke="#666666" points="192,-433 192,-482 233,-482 233,-433 192,-433"/>
</a>
</g>
</g>
<!-- Node3&#45;&gt;Node2 -->
<g id="edge2_Node000002_Node000003" class="edge">
<title>Node3&#45;&gt;Node2</title>
<g id="a_edge2_Node000002_Node000003"><a xlink:title=" ">
<path fill="none" stroke="orange" d="M174.7,-441.43C157.59,-433.68 137.63,-423.27 121.5,-411 110.67,-402.76 100.29,-392.01 91.77,-382.09"/>
<polygon fill="orange" stroke="orange" points="173.3,-444.64 183.87,-445.46 176.12,-438.24 173.3,-444.64"/>
</a>
</g>
<text text-anchor="middle" x="165" y="-403" font-family="Helvetica,sans-Serif" font-size="10.00" fill="grey"> &lt; E_ThirdBody &gt;</text>
</g>
<!-- Node4 -->
<g id="Node000004" class="node">
<title>Node4</title>
<g id="a_Node000004"><a xlink:title=" ">
<path fill="white" stroke="#666666" d="M251,-382C251,-382 174,-382 174,-382 168,-382 162,-376 162,-370 162,-370 162,-337 162,-337 162,-331 168,-325 174,-325 174,-325 251,-325 251,-325 257,-325 263,-331 263,-337 263,-337 263,-370 263,-370 263,-376 257,-382 251,-382"/>
<text text-anchor="start" x="175.5" y="-365.5" font-family="Helvetica,sans-Serif" font-size="10.00">vector&lt; bool &gt;</text>
<text text-anchor="start" x="211" y="-350.5" font-family="Helvetica,sans-Serif" font-size="10.00"> </text>
<text text-anchor="start" x="211" y="-335.5" font-family="Helvetica,sans-Serif" font-size="10.00"> </text>
<polygon fill="#666666" stroke="#666666" points="170.5,-360.5 170.5,-360.5 255.5,-360.5 255.5,-360.5 170.5,-360.5"/>
<polygon fill="#666666" stroke="#666666" points="170.5,-345.5 170.5,-345.5 255.5,-345.5 255.5,-345.5 170.5,-345.5"/>
<polygon fill="none" stroke="#666666" points="170,-329 170,-378 255,-378 255,-329 170,-329"/>
</a>
</g>
</g>
<!-- Node3&#45;&gt;Node4 -->
<g id="edge4_Node000004_Node000003" class="edge">
<title>Node3&#45;&gt;Node4</title>
<g id="a_edge4_Node000004_Node000003"><a xlink:title=" ">
<path fill="none" stroke="orange" d="M212.5,-418.61C212.5,-406.51 212.5,-393.35 212.5,-382.12"/>
<polygon fill="orange" stroke="orange" points="209,-418.9 212.5,-428.9 216,-418.9 209,-418.9"/>
</a>
</g>
<text text-anchor="middle" x="236" y="-403" font-family="Helvetica,sans-Serif" font-size="10.00" fill="grey"> &lt; bool &gt;</text>
</g>
<!-- Node5 -->
<g id="Node000005" class="node">
<title>Node5</title>
<g id="a_Node000005"><a xlink:title=" ">
<path fill="white" stroke="#666666" d="M420,-382C420,-382 293,-382 293,-382 287,-382 281,-376 281,-370 281,-370 281,-337 281,-337 281,-331 287,-325 293,-325 293,-325 420,-325 420,-325 426,-325 432,-331 432,-337 432,-337 432,-370 432,-370 432,-376 426,-382 420,-382"/>
<text text-anchor="start" x="294.5" y="-365.5" font-family="Helvetica,sans-Serif" font-size="10.00">vector&lt; SurfaceDetails &gt;</text>
<text text-anchor="start" x="355" y="-350.5" font-family="Helvetica,sans-Serif" font-size="10.00"> </text>
<text text-anchor="start" x="355" y="-335.5" font-family="Helvetica,sans-Serif" font-size="10.00"> </text>
<polygon fill="#666666" stroke="#666666" points="289.5,-360.5 289.5,-360.5 424.5,-360.5 424.5,-360.5 289.5,-360.5"/>
<polygon fill="#666666" stroke="#666666" points="289.5,-345.5 289.5,-345.5 424.5,-345.5 424.5,-345.5 289.5,-345.5"/>
<polygon fill="none" stroke="#666666" points="289,-329 289,-378 424,-378 424,-329 289,-329"/>
</a>
</g>
</g>
<!-- Node3&#45;&gt;Node5 -->
<g id="edge6_Node000005_Node000003" class="edge">
<title>Node3&#45;&gt;Node5</title>
<g id="a_edge6_Node000005_Node000003"><a xlink:title=" ">
<path fill="none" stroke="orange" d="M249.6,-430.22C270.48,-415.43 296.51,-396.99 317.66,-382.01"/>
<polygon fill="orange" stroke="orange" points="247.43,-427.47 241.29,-436.1 251.48,-433.18 247.43,-427.47"/>
</a>
</g>
<text text-anchor="middle" x="338" y="-403" font-family="Helvetica,sans-Serif" font-size="10.00" fill="grey"> &lt; SurfaceDetails &gt;</text>
</g>
<!-- Node4&#45;&gt;Node1 -->
<g id="edge3_Node000001_Node000004" class="edge">
<title>Node4&#45;&gt;Node1</title>
<g id="a_edge3_Node000001_Node000004"><a xlink:title=" ">
<path fill="none" stroke="#63b8ff" d="M210.16,-324.89C209.81,-312.53 210.37,-297.87 213.5,-285 214,-282.95 214.53,-280.9 215.09,-278.85"/>
<polygon fill="none" stroke="#63b8ff" points="215.17,-278.57 213.05,-271.68 218.59,-267.07 220.71,-273.96 215.17,-278.57"/>
</a>
</g>
<text text-anchor="middle" x="274" y="-299" font-family="Helvetica,sans-Serif" font-size="10.00" fill="grey"> +empirical_dyb_eclipse</text>
<text text-anchor="middle" x="274" y="-288" font-family="Helvetica,sans-Serif" font-size="10.00" fill="grey">+empirical_rtn_eclipse</text>
</g>
<!-- Node5&#45;&gt;Node1 -->
<g id="edge5_Node000001_Node000005" class="edge">
<title>Node5&#45;&gt;Node1</title>
<g id="a_edge5_Node000001_Node000005"><a xlink:title=" ">
<path fill="none" stroke="#63b8ff" d="M349.52,-324.81C346.33,-312.56 342.39,-298.01 338.5,-285 337.9,-283.01 337.3,-281 336.69,-278.98"/>
<polygon fill="none" stroke="#63b8ff" points="336.63,-278.78 331.04,-274.22 333.1,-267.31 338.69,-271.87 336.63,-278.78"/>
</a>
</g>
<text text-anchor="middle" x="387.5" y="-293.5" font-family="Helvetica,sans-Serif" font-size="10.00" fill="grey"> +surface_details</text>
</g>
<!-- Node6 -->
<g id="Node000006" class="node">
<title>Node6</title>
<g id="a_Node000006"><a xlink:title=" ">
<path fill="white" stroke="#666666" d="M549,-382C549,-382 462,-382 462,-382 456,-382 450,-376 450,-370 450,-370 450,-337 450,-337 450,-331 456,-325 462,-325 462,-325 549,-325 549,-325 555,-325 561,-331 561,-337 561,-337 561,-370 561,-370 561,-376 555,-382 549,-382"/>
<text text-anchor="start" x="463.5" y="-365.5" font-family="Helvetica,sans-Serif" font-size="10.00">map&lt; int, bool &gt;</text>
<text text-anchor="start" x="504" y="-350.5" font-family="Helvetica,sans-Serif" font-size="10.00"> </text>
<text text-anchor="start" x="504" y="-335.5" font-family="Helvetica,sans-Serif" font-size="10.00"> </text>
<polygon fill="#666666" stroke="#666666" points="458.5,-360.5 458.5,-360.5 553.5,-360.5 553.5,-360.5 458.5,-360.5"/>
<polygon fill="#666666" stroke="#666666" points="458.5,-345.5 458.5,-345.5 553.5,-345.5 553.5,-345.5 458.5,-345.5"/>
<polygon fill="none" stroke="#666666" points="458,-329 458,-378 553,-378 553,-329 458,-329"/>
</a>
</g>
</g>
<!-- Node6&#45;&gt;Node1 -->
<g id="edge7_Node000001_Node000006" class="edge">
<title>Node6&#45;&gt;Node1</title>
<g id="a_edge7_Node000001_Node000006"><a xlink:title=" ">
<path fill="none" stroke="#63b8ff" d="M478.02,-324.89C452.36,-299.12 412.66,-259.23 376.21,-222.62"/>
<polygon fill="none" stroke="#63b8ff" points="375.99,-222.39 368.92,-220.96 367.52,-213.88 374.59,-215.32 375.99,-222.39"/>
</a>
</g>
<text text-anchor="middle" x="500" y="-293.5" font-family="Helvetica,sans-Serif" font-size="10.00" fill="grey"> +initialisedMap</text>
</g>
<!-- Node7 -->
<g id="Node000007" class="node">
<title>Node7</title>
<g id="a_Node000007"><a xlink:title=" ">
<path fill="white" stroke="#666666" d="M517.5,-486C517.5,-486 493.5,-486 493.5,-486 487.5,-486 481.5,-480 481.5,-474 481.5,-474 481.5,-441 481.5,-441 481.5,-435 487.5,-429 493.5,-429 493.5,-429 517.5,-429 517.5,-429 523.5,-429 529.5,-435 529.5,-441 529.5,-441 529.5,-474 529.5,-474 529.5,-480 523.5,-486 517.5,-486"/>
<text text-anchor="start" x="494.5" y="-469.5" font-family="Helvetica,sans-Serif" font-size="10.00">map</text>
<text text-anchor="start" x="503.5" y="-454.5" font-family="Helvetica,sans-Serif" font-size="10.00"> </text>
<text text-anchor="start" x="503.5" y="-439.5" font-family="Helvetica,sans-Serif" font-size="10.00"> </text>
<polygon fill="#666666" stroke="#666666" points="489.5,-464.5 489.5,-464.5 521.5,-464.5 521.5,-464.5 489.5,-464.5"/>
<polygon fill="#666666" stroke="#666666" points="489.5,-449.5 489.5,-449.5 521.5,-449.5 521.5,-449.5 489.5,-449.5"/>
<polygon fill="none" stroke="#666666" points="489.5,-433 489.5,-482 521.5,-482 521.5,-433 489.5,-433"/>
</a>
</g>
</g>
<!-- Node7&#45;&gt;Node6 -->
<g id="edge8_Node000006_Node000007" class="edge">
<title>Node7&#45;&gt;Node6</title>
<g id="a_edge8_Node000006_Node000007"><a xlink:title=" ">
<path fill="none" stroke="orange" d="M505.5,-418.61C505.5,-406.51 505.5,-393.35 505.5,-382.12"/>
<polygon fill="orange" stroke="orange" points="502,-418.9 505.5,-428.9 509,-418.9 502,-418.9"/>
</a>
</g>
<text text-anchor="middle" x="538.5" y="-403" font-family="Helvetica,sans-Serif" font-size="10.00" fill="grey"> &lt; int, bool &gt;</text>
</g>
</g>
</svg>
