<?xml version="1.0" encoding="UTF-8" standalone="no"?>
<!DOCTYPE svg PUBLIC "-//W3C//DTD SVG 1.1//EN"
 "http://www.w3.org/Graphics/SVG/1.1/DTD/svg11.dtd">
<!-- Generated by graphviz version 2.43.0 (0)
 -->
<!-- Title: IonModelOptions Pages: 1 -->
<svg width="1122pt" height="653pt"
 viewBox="0.00 0.00 1122.00 653.00" xmlns="http://www.w3.org/2000/svg" xmlns:xlink="http://www.w3.org/1999/xlink">
<g id="graph0" class="graph" transform="scale(1 1) rotate(0) translate(4 649)">
<title>IonModelOptions</title>
<!-- Node1 -->
<g id="Node000001" class="node">
<title>Node1</title>
<g id="a_Node000001"><a xlink:href="structIonModelOptions.html" target="_top" xlink:title=" ">
<path fill="white" stroke="#666666" stroke-width="2" d="M708,-147C708,-147 606,-147 606,-147 600,-147 594,-141 594,-135 594,-135 594,-12 594,-12 594,-6 600,0 606,0 606,0 708,0 708,0 714,0 720,-6 720,-12 720,-12 720,-135 720,-135 720,-141 714,-147 708,-147"/>
<text text-anchor="start" x="615.5" y="-130.5" font-family="Helvetica,sans-Serif" font-size="10.00">IonModelOptions</text>
<text text-anchor="start" x="606" y="-115.5" font-family="Helvetica,sans-Serif" font-size="10.00">+</text>
<text text-anchor="start" x="619" y="-115.5" font-family="Helvetica,sans-Serif" font-size="10.00">model</text>
<text text-anchor="start" x="606" y="-100.5" font-family="Helvetica,sans-Serif" font-size="10.00">+</text>
<text text-anchor="start" x="619" y="-100.5" font-family="Helvetica,sans-Serif" font-size="10.00">numBasis</text>
<text text-anchor="start" x="606" y="-85.5" font-family="Helvetica,sans-Serif" font-size="10.00">+</text>
<text text-anchor="start" x="619" y="-85.5" font-family="Helvetica,sans-Serif" font-size="10.00">function_order</text>
<text text-anchor="start" x="606" y="-70.5" font-family="Helvetica,sans-Serif" font-size="10.00">+</text>
<text text-anchor="start" x="619" y="-70.5" font-family="Helvetica,sans-Serif" font-size="10.00">function_degree</text>
<text text-anchor="start" x="606" y="-55.5" font-family="Helvetica,sans-Serif" font-size="10.00">+</text>
<text text-anchor="start" x="619" y="-55.5" font-family="Helvetica,sans-Serif" font-size="10.00">estimate_sat_dcb</text>
<text text-anchor="start" x="606" y="-40.5" font-family="Helvetica,sans-Serif" font-size="10.00">+</text>
<text text-anchor="start" x="619" y="-40.5" font-family="Helvetica,sans-Serif" font-size="10.00">use_rotation_mtx</text>
<text text-anchor="start" x="606" y="-25.5" font-family="Helvetica,sans-Serif" font-size="10.00">+</text>
<text text-anchor="start" x="619" y="-25.5" font-family="Helvetica,sans-Serif" font-size="10.00">basis_sigma_limit</text>
<text text-anchor="start" x="655" y="-10.5" font-family="Helvetica,sans-Serif" font-size="10.00"> </text>
<polygon fill="#666666" stroke="#666666" points="602,-125.5 602,-125.5 712,-125.5 712,-125.5 602,-125.5"/>
<polygon fill="#666666" stroke="#666666" points="602,-20.5 602,-20.5 617,-20.5 617,-20.5 602,-20.5"/>
<polygon fill="#666666" stroke="#666666" points="617,-20.5 617,-20.5 712,-20.5 712,-20.5 617,-20.5"/>
<polygon fill="none" stroke="#666666" points="602,-4 602,-143 712,-143 712,-4 602,-4"/>
</a>
</g>
</g>
<!-- Node2 -->
<g id="Node000002" class="node">
<title>Node2</title>
<g id="a_Node000002"><a xlink:href="structFilterOptions.html" target="_top" xlink:title=" ">
<path fill="white" stroke="#666666" d="M446.5,-311C446.5,-311 335.5,-311 335.5,-311 329.5,-311 323.5,-305 323.5,-299 323.5,-299 323.5,-206 323.5,-206 323.5,-200 329.5,-194 335.5,-194 335.5,-194 446.5,-194 446.5,-194 452.5,-194 458.5,-200 458.5,-206 458.5,-206 458.5,-299 458.5,-299 458.5,-305 452.5,-311 446.5,-311"/>
<text text-anchor="start" x="360" y="-294.5" font-family="Helvetica,sans-Serif" font-size="10.00">FilterOptions</text>
<text text-anchor="start" x="336" y="-279.5" font-family="Helvetica,sans-Serif" font-size="10.00">+</text>
<text text-anchor="start" x="349" y="-279.5" font-family="Helvetica,sans-Serif" font-size="10.00">simulate_filter_only</text>
<text text-anchor="start" x="336" y="-264.5" font-family="Helvetica,sans-Serif" font-size="10.00">+</text>
<text text-anchor="start" x="349" y="-264.5" font-family="Helvetica,sans-Serif" font-size="10.00">assume_linearity</text>
<text text-anchor="start" x="336" y="-249.5" font-family="Helvetica,sans-Serif" font-size="10.00">+</text>
<text text-anchor="start" x="349" y="-249.5" font-family="Helvetica,sans-Serif" font-size="10.00">advanced_postfits</text>
<text text-anchor="start" x="336" y="-234.5" font-family="Helvetica,sans-Serif" font-size="10.00">+</text>
<text text-anchor="start" x="349" y="-234.5" font-family="Helvetica,sans-Serif" font-size="10.00">joseph_stabilisation</text>
<text text-anchor="start" x="336" y="-219.5" font-family="Helvetica,sans-Serif" font-size="10.00">+</text>
<text text-anchor="start" x="349" y="-219.5" font-family="Helvetica,sans-Serif" font-size="10.00">inverter</text>
<text text-anchor="start" x="389.5" y="-204.5" font-family="Helvetica,sans-Serif" font-size="10.00"> </text>
<polygon fill="#666666" stroke="#666666" points="332,-289.5 332,-289.5 451,-289.5 451,-289.5 332,-289.5"/>
<polygon fill="#666666" stroke="#666666" points="332,-214.5 332,-214.5 347,-214.5 347,-214.5 332,-214.5"/>
<polygon fill="#666666" stroke="#666666" points="347,-214.5 347,-214.5 451,-214.5 451,-214.5 347,-214.5"/>
<polygon fill="none" stroke="#666666" points="331.5,-198 331.5,-307 450.5,-307 450.5,-198 331.5,-198"/>
</a>
</g>
</g>
<!-- Node2&#45;&gt;Node1 -->
<g id="edge1_Node000001_Node000002" class="edge">
<title>Node2&#45;&gt;Node1</title>
<g id="a_edge1_Node000001_Node000002"><a xlink:title=" ">
<path fill="none" stroke="#63b8ff" d="M467.23,-200.77C507.34,-174.09 555.91,-141.76 593.88,-116.5"/>
<polygon fill="none" stroke="#63b8ff" points="465.2,-197.92 458.81,-206.38 469.08,-203.75 465.2,-197.92"/>
</a>
</g>
</g>
<!-- Node3 -->
<g id="Node000003" class="node">
<title>Node3</title>
<g id="a_Node000003"><a xlink:href="structRtsOptions.html" target="_top" xlink:title=" ">
<path fill="#fff0f0" stroke="red" d="M116,-533.5C116,-533.5 12,-533.5 12,-533.5 6,-533.5 0,-527.5 0,-521.5 0,-521.5 0,-443.5 0,-443.5 0,-437.5 6,-431.5 12,-431.5 12,-431.5 116,-431.5 116,-431.5 122,-431.5 128,-437.5 128,-443.5 128,-443.5 128,-521.5 128,-521.5 128,-527.5 122,-533.5 116,-533.5"/>
<text text-anchor="start" x="37" y="-517.5" font-family="Helvetica,sans-Serif" font-size="10.00">RtsOptions</text>
<text text-anchor="start" x="12" y="-502.5" font-family="Helvetica,sans-Serif" font-size="10.00">+</text>
<text text-anchor="start" x="25" y="-502.5" font-family="Helvetica,sans-Serif" font-size="10.00">rts_lag</text>
<text text-anchor="start" x="12" y="-487.5" font-family="Helvetica,sans-Serif" font-size="10.00">+</text>
<text text-anchor="start" x="25" y="-487.5" font-family="Helvetica,sans-Serif" font-size="10.00">rts_interval</text>
<text text-anchor="start" x="12" y="-472.5" font-family="Helvetica,sans-Serif" font-size="10.00">+</text>
<text text-anchor="start" x="25" y="-472.5" font-family="Helvetica,sans-Serif" font-size="10.00">queue_rts_outputs</text>
<text text-anchor="start" x="12" y="-457.5" font-family="Helvetica,sans-Serif" font-size="10.00">+</text>
<text text-anchor="start" x="25" y="-457.5" font-family="Helvetica,sans-Serif" font-size="10.00">rts_inverter</text>
<text text-anchor="start" x="62" y="-442.5" font-family="Helvetica,sans-Serif" font-size="10.00"> </text>
<polygon fill="red" stroke="red" points="8,-512.5 8,-512.5 120,-512.5 120,-512.5 8,-512.5"/>
<polygon fill="red" stroke="red" points="8,-452.5 8,-452.5 23,-452.5 23,-452.5 8,-452.5"/>
<polygon fill="red" stroke="red" points="23,-452.5 23,-452.5 120,-452.5 120,-452.5 23,-452.5"/>
<polygon fill="none" stroke="red" points="8,-435.5 8,-529.5 120,-529.5 120,-435.5 8,-435.5"/>
</a>
</g>
</g>
<!-- Node3&#45;&gt;Node2 -->
<g id="edge2_Node000002_Node000003" class="edge">
<title>Node3&#45;&gt;Node2</title>
<g id="a_edge2_Node000002_Node000003"><a xlink:title=" ">
<path fill="none" stroke="#63b8ff" d="M135.18,-425.37C135.79,-424.91 136.4,-424.45 137,-424 195.1,-380.4 209.6,-369.36 270,-329 287.09,-317.58 305.81,-305.63 323.32,-294.69"/>
<polygon fill="none" stroke="#63b8ff" points="133.02,-422.62 127.17,-431.45 137.25,-428.19 133.02,-422.62"/>
</a>
</g>
</g>
<!-- Node5 -->
<g id="Node000005" class="node">
<title>Node5</title>
<g id="a_Node000005"><a xlink:href="structPrefitOptions.html" target="_top" xlink:title=" ">
<path fill="white" stroke="#666666" d="M285.5,-541C285.5,-541 158.5,-541 158.5,-541 152.5,-541 146.5,-535 146.5,-529 146.5,-529 146.5,-436 146.5,-436 146.5,-430 152.5,-424 158.5,-424 158.5,-424 285.5,-424 285.5,-424 291.5,-424 297.5,-430 297.5,-436 297.5,-436 297.5,-529 297.5,-529 297.5,-535 291.5,-541 285.5,-541"/>
<text text-anchor="start" x="190.5" y="-524.5" font-family="Helvetica,sans-Serif" font-size="10.00">PrefitOptions</text>
<text text-anchor="start" x="159" y="-509.5" font-family="Helvetica,sans-Serif" font-size="10.00">+</text>
<text text-anchor="start" x="172" y="-509.5" font-family="Helvetica,sans-Serif" font-size="10.00">max_iterations</text>
<text text-anchor="start" x="159" y="-494.5" font-family="Helvetica,sans-Serif" font-size="10.00">+</text>
<text text-anchor="start" x="172" y="-494.5" font-family="Helvetica,sans-Serif" font-size="10.00">sigma_check</text>
<text text-anchor="start" x="159" y="-479.5" font-family="Helvetica,sans-Serif" font-size="10.00">+</text>
<text text-anchor="start" x="172" y="-479.5" font-family="Helvetica,sans-Serif" font-size="10.00">state_sigma_threshold</text>
<text text-anchor="start" x="159" y="-464.5" font-family="Helvetica,sans-Serif" font-size="10.00">+</text>
<text text-anchor="start" x="172" y="-464.5" font-family="Helvetica,sans-Serif" font-size="10.00">meas_sigma_threshold</text>
<text text-anchor="start" x="159" y="-449.5" font-family="Helvetica,sans-Serif" font-size="10.00">+</text>
<text text-anchor="start" x="172" y="-449.5" font-family="Helvetica,sans-Serif" font-size="10.00">omega_test</text>
<text text-anchor="start" x="220.5" y="-434.5" font-family="Helvetica,sans-Serif" font-size="10.00"> </text>
<polygon fill="#666666" stroke="#666666" points="155,-519.5 155,-519.5 290,-519.5 290,-519.5 155,-519.5"/>
<polygon fill="#666666" stroke="#666666" points="155,-444.5 155,-444.5 170,-444.5 170,-444.5 155,-444.5"/>
<polygon fill="#666666" stroke="#666666" points="170,-444.5 170,-444.5 290,-444.5 290,-444.5 170,-444.5"/>
<polygon fill="none" stroke="#666666" points="154.5,-428 154.5,-537 289.5,-537 289.5,-428 154.5,-428"/>
</a>
</g>
</g>
<!-- Node5&#45;&gt;Node2 -->
<g id="edge3_Node000002_Node000005" class="edge">
<title>Node5&#45;&gt;Node2</title>
<g id="a_edge3_Node000002_Node000005"><a xlink:title=" ">
<path fill="none" stroke="#63b8ff" d="M259.81,-423.69C279.23,-394.76 303.66,-359.51 327,-329 329.1,-326.25 331.27,-323.46 333.49,-320.67"/>
<polygon fill="none" stroke="#63b8ff" points="333.62,-320.5 334.26,-313.31 341.13,-311.14 340.5,-318.32 333.62,-320.5"/>
</a>
</g>
<text text-anchor="middle" x="357" y="-365" font-family="Helvetica,sans-Serif" font-size="10.00" fill="grey"> +prefitOpts</text>
</g>
<!-- Node6 -->
<g id="Node000006" class="node">
<title>Node6</title>
<g id="a_Node000006"><a xlink:href="structPostfitOptions.html" target="_top" xlink:title=" ">
<path fill="white" stroke="#666666" d="M454.5,-533.5C454.5,-533.5 327.5,-533.5 327.5,-533.5 321.5,-533.5 315.5,-527.5 315.5,-521.5 315.5,-521.5 315.5,-443.5 315.5,-443.5 315.5,-437.5 321.5,-431.5 327.5,-431.5 327.5,-431.5 454.5,-431.5 454.5,-431.5 460.5,-431.5 466.5,-437.5 466.5,-443.5 466.5,-443.5 466.5,-521.5 466.5,-521.5 466.5,-527.5 460.5,-533.5 454.5,-533.5"/>
<text text-anchor="start" x="357" y="-517.5" font-family="Helvetica,sans-Serif" font-size="10.00">PostfitOptions</text>
<text text-anchor="start" x="328" y="-502.5" font-family="Helvetica,sans-Serif" font-size="10.00">+</text>
<text text-anchor="start" x="341" y="-502.5" font-family="Helvetica,sans-Serif" font-size="10.00">max_iterations</text>
<text text-anchor="start" x="328" y="-487.5" font-family="Helvetica,sans-Serif" font-size="10.00">+</text>
<text text-anchor="start" x="341" y="-487.5" font-family="Helvetica,sans-Serif" font-size="10.00">sigma_check</text>
<text text-anchor="start" x="328" y="-472.5" font-family="Helvetica,sans-Serif" font-size="10.00">+</text>
<text text-anchor="start" x="341" y="-472.5" font-family="Helvetica,sans-Serif" font-size="10.00">state_sigma_threshold</text>
<text text-anchor="start" x="328" y="-457.5" font-family="Helvetica,sans-Serif" font-size="10.00">+</text>
<text text-anchor="start" x="341" y="-457.5" font-family="Helvetica,sans-Serif" font-size="10.00">meas_sigma_threshold</text>
<text text-anchor="start" x="389.5" y="-442.5" font-family="Helvetica,sans-Serif" font-size="10.00"> </text>
<polygon fill="#666666" stroke="#666666" points="324,-512.5 324,-512.5 459,-512.5 459,-512.5 324,-512.5"/>
<polygon fill="#666666" stroke="#666666" points="324,-452.5 324,-452.5 339,-452.5 339,-452.5 324,-452.5"/>
<polygon fill="#666666" stroke="#666666" points="339,-452.5 339,-452.5 459,-452.5 459,-452.5 339,-452.5"/>
<polygon fill="none" stroke="#666666" points="323.5,-435.5 323.5,-529.5 458.5,-529.5 458.5,-435.5 323.5,-435.5"/>
</a>
</g>
</g>
<!-- Node6&#45;&gt;Node2 -->
<g id="edge4_Node000002_Node000006" class="edge">
<title>Node6&#45;&gt;Node2</title>
<g id="a_edge4_Node000002_Node000006"><a xlink:title=" ">
<path fill="none" stroke="#63b8ff" d="M391,-431.46C391,-399.69 391,-358.11 391,-323.13"/>
<polygon fill="none" stroke="#63b8ff" points="391,-323.06 387,-317.06 391,-311.06 395,-317.06 391,-323.06"/>
</a>
</g>
<text text-anchor="middle" x="423.5" y="-365" font-family="Helvetica,sans-Serif" font-size="10.00" fill="grey"> +postfitOpts</text>
</g>
<!-- Node7 -->
<g id="Node000007" class="node">
<title>Node7</title>
<g id="a_Node000007"><a xlink:href="structChiSquareOptions.html" target="_top" xlink:title=" ">
<path fill="white" stroke="#666666" d="M591.5,-526C591.5,-526 496.5,-526 496.5,-526 490.5,-526 484.5,-520 484.5,-514 484.5,-514 484.5,-451 484.5,-451 484.5,-445 490.5,-439 496.5,-439 496.5,-439 591.5,-439 591.5,-439 597.5,-439 603.5,-445 603.5,-451 603.5,-451 603.5,-514 603.5,-514 603.5,-520 597.5,-526 591.5,-526"/>
<text text-anchor="start" x="500.5" y="-509.5" font-family="Helvetica,sans-Serif" font-size="10.00">ChiSquareOptions</text>
<text text-anchor="start" x="497" y="-494.5" font-family="Helvetica,sans-Serif" font-size="10.00">+</text>
<text text-anchor="start" x="510" y="-494.5" font-family="Helvetica,sans-Serif" font-size="10.00">enable</text>
<text text-anchor="start" x="497" y="-479.5" font-family="Helvetica,sans-Serif" font-size="10.00">+</text>
<text text-anchor="start" x="510" y="-479.5" font-family="Helvetica,sans-Serif" font-size="10.00">mode</text>
<text text-anchor="start" x="497" y="-464.5" font-family="Helvetica,sans-Serif" font-size="10.00">+</text>
<text text-anchor="start" x="510" y="-464.5" font-family="Helvetica,sans-Serif" font-size="10.00">sigma_threshold</text>
<text text-anchor="start" x="542.5" y="-449.5" font-family="Helvetica,sans-Serif" font-size="10.00"> </text>
<polygon fill="#666666" stroke="#666666" points="493,-504.5 493,-504.5 596,-504.5 596,-504.5 493,-504.5"/>
<polygon fill="#666666" stroke="#666666" points="493,-459.5 493,-459.5 508,-459.5 508,-459.5 493,-459.5"/>
<polygon fill="#666666" stroke="#666666" points="508,-459.5 508,-459.5 596,-459.5 596,-459.5 508,-459.5"/>
<polygon fill="none" stroke="#666666" points="492.5,-443 492.5,-522 595.5,-522 595.5,-443 492.5,-443"/>
</a>
</g>
</g>
<!-- Node7&#45;&gt;Node2 -->
<g id="edge5_Node000002_Node000007" class="edge">
<title>Node7&#45;&gt;Node2</title>
<g id="a_edge5_Node000002_Node000007"><a xlink:title=" ">
<path fill="none" stroke="#63b8ff" d="M523.9,-438.79C508.28,-407.29 485.1,-364.01 460,-329 458.01,-326.23 455.93,-323.44 453.79,-320.67"/>
<polygon fill="none" stroke="#63b8ff" points="453.78,-320.66 446.91,-318.47 446.28,-311.29 453.15,-313.47 453.78,-320.66"/>
</a>
</g>
<text text-anchor="middle" x="546.5" y="-365" font-family="Helvetica,sans-Serif" font-size="10.00" fill="grey"> +chiSquareTest</text>
</g>
<!-- Node8 -->
<g id="Node000008" class="node">
<title>Node8</title>
<g id="a_Node000008"><a xlink:title=" ">
<path fill="white" stroke="#666666" d="M722.5,-511C722.5,-511 633.5,-511 633.5,-511 627.5,-511 621.5,-505 621.5,-499 621.5,-499 621.5,-466 621.5,-466 621.5,-460 627.5,-454 633.5,-454 633.5,-454 722.5,-454 722.5,-454 728.5,-454 734.5,-460 734.5,-466 734.5,-466 734.5,-499 734.5,-499 734.5,-505 728.5,-511 722.5,-511"/>
<text text-anchor="start" x="635" y="-494.5" font-family="Helvetica,sans-Serif" font-size="10.00">vector&lt; double &gt;</text>
<text text-anchor="start" x="676.5" y="-479.5" font-family="Helvetica,sans-Serif" font-size="10.00"> </text>
<text text-anchor="start" x="676.5" y="-464.5" font-family="Helvetica,sans-Serif" font-size="10.00"> </text>
<polygon fill="#666666" stroke="#666666" points="630,-489.5 630,-489.5 727,-489.5 727,-489.5 630,-489.5"/>
<polygon fill="#666666" stroke="#666666" points="630,-474.5 630,-474.5 727,-474.5 727,-474.5 630,-474.5"/>
<polygon fill="none" stroke="#666666" points="629.5,-458 629.5,-507 726.5,-507 726.5,-458 629.5,-458"/>
</a>
</g>
</g>
<!-- Node8&#45;&gt;Node1 -->
<g id="edge6_Node000001_Node000008" class="edge">
<title>Node8&#45;&gt;Node1</title>
<g id="a_edge6_Node000001_Node000008"><a xlink:title=" ">
<path fill="none" stroke="#63b8ff" d="M676.02,-453.75C673.66,-420.02 669.69,-361.35 667,-311 664.32,-260.72 661.91,-204.4 660.13,-159.34"/>
<polygon fill="none" stroke="#63b8ff" points="660.13,-159.23 655.9,-153.39 659.66,-147.24 663.89,-153.08 660.13,-159.23"/>
</a>
</g>
<text text-anchor="middle" x="706" y="-250" font-family="Helvetica,sans-Serif" font-size="10.00" fill="grey"> +layer_heights</text>
</g>
<!-- Node10 -->
<g id="Node000010" class="node">
<title>Node10</title>
<g id="a_Node000010"><a xlink:href="structKalmanModel.html" target="_top" xlink:title="Options associated with kalman filter states.">
<path fill="white" stroke="#666666" d="M844.5,-281C844.5,-281 765.5,-281 765.5,-281 759.5,-281 753.5,-275 753.5,-269 753.5,-269 753.5,-236 753.5,-236 753.5,-230 759.5,-224 765.5,-224 765.5,-224 844.5,-224 844.5,-224 850.5,-224 856.5,-230 856.5,-236 856.5,-236 856.5,-269 856.5,-269 856.5,-275 850.5,-281 844.5,-281"/>
<text text-anchor="start" x="771.5" y="-264.5" font-family="Helvetica,sans-Serif" font-size="10.00">KalmanModel</text>
<text text-anchor="start" x="803.5" y="-249.5" font-family="Helvetica,sans-Serif" font-size="10.00"> </text>
<text text-anchor="start" x="766" y="-234.5" font-family="Helvetica,sans-Serif" font-size="10.00">+</text>
<text text-anchor="start" x="779" y="-234.5" font-family="Helvetica,sans-Serif" font-size="10.00">operator+=()</text>
<polygon fill="#666666" stroke="#666666" points="762,-259.5 762,-259.5 849,-259.5 849,-259.5 762,-259.5"/>
<polygon fill="#666666" stroke="#666666" points="762,-244.5 762,-244.5 849,-244.5 849,-244.5 762,-244.5"/>
<polygon fill="none" stroke="#666666" points="761.5,-228 761.5,-277 848.5,-277 848.5,-228 761.5,-228"/>
</a>
</g>
</g>
<!-- Node8&#45;&gt;Node10 -->
<g id="edge9_Node000010_Node000008" class="edge">
<title>Node8&#45;&gt;Node10</title>
<g id="a_edge9_Node000010_Node000008"><a xlink:title=" ">
<path fill="none" stroke="#63b8ff" d="M680.84,-453.71C685.15,-421.61 695.63,-368.17 720,-329 721.67,-326.32 742.94,-307.43 763.78,-289.22"/>
<polygon fill="none" stroke="#63b8ff" points="763.89,-289.12 765.78,-282.16 772.94,-281.23 771.04,-288.19 763.89,-289.12"/>
</a>
</g>
<text text-anchor="middle" x="759" y="-398" font-family="Helvetica,sans-Serif" font-size="10.00" fill="grey"> +apriori_value</text>
<text text-anchor="middle" x="759" y="-387" font-family="Helvetica,sans-Serif" font-size="10.00" fill="grey">+mu</text>
<text text-anchor="middle" x="759" y="-376" font-family="Helvetica,sans-Serif" font-size="10.00" fill="grey">+outage_limit</text>
<text text-anchor="middle" x="759" y="-365" font-family="Helvetica,sans-Serif" font-size="10.00" fill="grey">+process_noise</text>
<text text-anchor="middle" x="759" y="-354" font-family="Helvetica,sans-Serif" font-size="10.00" fill="grey">+sigma</text>
<text text-anchor="middle" x="759" y="-343" font-family="Helvetica,sans-Serif" font-size="10.00" fill="grey">+sigma_limit</text>
<text text-anchor="middle" x="759" y="-332" font-family="Helvetica,sans-Serif" font-size="10.00" fill="grey">+tau</text>
</g>
<!-- Node9 -->
<g id="Node000009" class="node">
<title>Node9</title>
<g id="a_Node000009"><a xlink:title=" ">
<path fill="white" stroke="#666666" d="M819.5,-645C819.5,-645 786.5,-645 786.5,-645 780.5,-645 774.5,-639 774.5,-633 774.5,-633 774.5,-600 774.5,-600 774.5,-594 780.5,-588 786.5,-588 786.5,-588 819.5,-588 819.5,-588 825.5,-588 831.5,-594 831.5,-600 831.5,-600 831.5,-633 831.5,-633 831.5,-639 825.5,-645 819.5,-645"/>
<text text-anchor="start" x="788" y="-628.5" font-family="Helvetica,sans-Serif" font-size="10.00">vector</text>
<text text-anchor="start" x="801.5" y="-613.5" font-family="Helvetica,sans-Serif" font-size="10.00"> </text>
<text text-anchor="start" x="801.5" y="-598.5" font-family="Helvetica,sans-Serif" font-size="10.00"> </text>
<polygon fill="#666666" stroke="#666666" points="783,-623.5 783,-623.5 824,-623.5 824,-623.5 783,-623.5"/>
<polygon fill="#666666" stroke="#666666" points="783,-608.5 783,-608.5 824,-608.5 824,-608.5 783,-608.5"/>
<polygon fill="none" stroke="#666666" points="782.5,-592 782.5,-641 823.5,-641 823.5,-592 782.5,-592"/>
</a>
</g>
</g>
<!-- Node9&#45;&gt;Node8 -->
<g id="edge7_Node000008_Node000009" class="edge">
<title>Node9&#45;&gt;Node8</title>
<g id="a_edge7_Node000008_Node000009"><a xlink:title=" ">
<path fill="none" stroke="orange" d="M766.3,-592.04C757.23,-585.45 747.87,-577.9 740,-570 722.39,-552.33 706.12,-529.24 694.66,-511.36"/>
<polygon fill="orange" stroke="orange" points="764.3,-594.91 774.49,-597.81 768.33,-589.19 764.3,-594.91"/>
</a>
</g>
<text text-anchor="middle" x="769.5" y="-562" font-family="Helvetica,sans-Serif" font-size="10.00" fill="grey"> &lt; double &gt;</text>
</g>
<!-- Node11 -->
<g id="Node000011" class="node">
<title>Node11</title>
<g id="a_Node000011"><a xlink:title=" ">
<path fill="white" stroke="#666666" d="M841.5,-511C841.5,-511 764.5,-511 764.5,-511 758.5,-511 752.5,-505 752.5,-499 752.5,-499 752.5,-466 752.5,-466 752.5,-460 758.5,-454 764.5,-454 764.5,-454 841.5,-454 841.5,-454 847.5,-454 853.5,-460 853.5,-466 853.5,-466 853.5,-499 853.5,-499 853.5,-505 847.5,-511 841.5,-511"/>
<text text-anchor="start" x="766" y="-494.5" font-family="Helvetica,sans-Serif" font-size="10.00">vector&lt; bool &gt;</text>
<text text-anchor="start" x="801.5" y="-479.5" font-family="Helvetica,sans-Serif" font-size="10.00"> </text>
<text text-anchor="start" x="801.5" y="-464.5" font-family="Helvetica,sans-Serif" font-size="10.00"> </text>
<polygon fill="#666666" stroke="#666666" points="761,-489.5 761,-489.5 846,-489.5 846,-489.5 761,-489.5"/>
<polygon fill="#666666" stroke="#666666" points="761,-474.5 761,-474.5 846,-474.5 846,-474.5 761,-474.5"/>
<polygon fill="none" stroke="#666666" points="760.5,-458 760.5,-507 845.5,-507 845.5,-458 760.5,-458"/>
</a>
</g>
</g>
<!-- Node9&#45;&gt;Node11 -->
<g id="edge11_Node000011_Node000009" class="edge">
<title>Node9&#45;&gt;Node11</title>
<g id="a_edge11_Node000011_Node000009"><a xlink:title=" ">
<path fill="none" stroke="orange" d="M803,-577.54C803,-556.34 803,-530.4 803,-511.14"/>
<polygon fill="orange" stroke="orange" points="799.5,-577.83 803,-587.83 806.5,-577.83 799.5,-577.83"/>
</a>
</g>
<text text-anchor="middle" x="826.5" y="-562" font-family="Helvetica,sans-Serif" font-size="10.00" fill="grey"> &lt; bool &gt;</text>
</g>
<!-- Node12 -->
<g id="Node000012" class="node">
<title>Node12</title>
<g id="a_Node000012"><a xlink:title=" ">
<path fill="white" stroke="#666666" d="M968,-511C968,-511 884,-511 884,-511 878,-511 872,-505 872,-499 872,-499 872,-466 872,-466 872,-460 878,-454 884,-454 884,-454 968,-454 968,-454 974,-454 980,-460 980,-466 980,-466 980,-499 980,-499 980,-505 974,-511 968,-511"/>
<text text-anchor="start" x="885" y="-494.5" font-family="Helvetica,sans-Serif" font-size="10.00">vector&lt; string &gt;</text>
<text text-anchor="start" x="924" y="-479.5" font-family="Helvetica,sans-Serif" font-size="10.00"> </text>
<text text-anchor="start" x="924" y="-464.5" font-family="Helvetica,sans-Serif" font-size="10.00"> </text>
<polygon fill="#666666" stroke="#666666" points="880,-489.5 880,-489.5 972,-489.5 972,-489.5 880,-489.5"/>
<polygon fill="#666666" stroke="#666666" points="880,-474.5 880,-474.5 972,-474.5 972,-474.5 880,-474.5"/>
<polygon fill="none" stroke="#666666" points="880,-458 880,-507 972,-507 972,-458 880,-458"/>
</a>
</g>
</g>
<!-- Node9&#45;&gt;Node12 -->
<g id="edge13_Node000012_Node000009" class="edge">
<title>Node9&#45;&gt;Node12</title>
<g id="a_edge13_Node000012_Node000009"><a xlink:title=" ">
<path fill="none" stroke="orange" d="M839.17,-584.44C844.27,-579.72 849.35,-574.82 854,-570 872.06,-551.31 890.79,-528.69 904.61,-511.27"/>
<polygon fill="orange" stroke="orange" points="836.79,-581.87 831.75,-591.19 841.5,-587.05 836.79,-581.87"/>
</a>
</g>
<text text-anchor="middle" x="889" y="-562" font-family="Helvetica,sans-Serif" font-size="10.00" fill="grey"> &lt; string &gt;</text>
</g>
<!-- Node10&#45;&gt;Node1 -->
<g id="edge8_Node000001_Node000010" class="edge">
<title>Node10&#45;&gt;Node1</title>
<g id="a_edge8_Node000001_Node000010"><a xlink:title=" ">
<path fill="none" stroke="#63b8ff" d="M781.88,-223.84C766.59,-205.57 745.7,-180.58 725.37,-156.27"/>
<polygon fill="none" stroke="#63b8ff" points="725.32,-156.21 718.4,-154.17 717.62,-147 724.54,-149.04 725.32,-156.21"/>
</a>
</g>
<text text-anchor="middle" x="752.5" y="-168" font-family="Helvetica,sans-Serif" font-size="10.00" fill="grey"> +ion</text>
</g>
<!-- Node11&#45;&gt;Node10 -->
<g id="edge10_Node000010_Node000011" class="edge">
<title>Node11&#45;&gt;Node10</title>
<g id="a_edge10_Node000010_Node000011"><a xlink:title=" ">
<path fill="none" stroke="#63b8ff" d="M802.78,-453.95C802.59,-423.41 802.42,-372.68 803,-329 803.15,-317.35 803.44,-304.69 803.75,-293.13"/>
<polygon fill="none" stroke="#63b8ff" points="803.75,-293.1 799.93,-286.99 804.09,-281.11 807.92,-287.22 803.75,-293.1"/>
</a>
</g>
<text text-anchor="middle" x="854" y="-370.5" font-family="Helvetica,sans-Serif" font-size="10.00" fill="grey"> +estimate</text>
<text text-anchor="middle" x="854" y="-359.5" font-family="Helvetica,sans-Serif" font-size="10.00" fill="grey">+use_remote_sigma</text>
</g>
<!-- Node12&#45;&gt;Node10 -->
<g id="edge12_Node000010_Node000012" class="edge">
<title>Node12&#45;&gt;Node10</title>
<g id="a_edge12_Node000010_Node000012"><a xlink:title=" ">
<path fill="none" stroke="#63b8ff" d="M928.3,-453.85C929.67,-421.62 927.78,-367.84 905,-329 895.57,-312.92 881.24,-299.14 866.35,-287.92"/>
<polygon fill="none" stroke="#63b8ff" points="866.3,-287.89 859.1,-287.67 856.53,-280.93 863.74,-281.15 866.3,-287.89"/>
</a>
</g>
<text text-anchor="middle" x="955" y="-365" font-family="Helvetica,sans-Serif" font-size="10.00" fill="grey"> +comment</text>
</g>
<!-- Node13 -->
<g id="Node000013" class="node">
<title>Node13</title>
<g id="a_Node000013"><a xlink:title=" ">
<path fill="#fff0f0" stroke="red" d="M1097.5,-511C1097.5,-511 1010.5,-511 1010.5,-511 1004.5,-511 998.5,-505 998.5,-499 998.5,-499 998.5,-466 998.5,-466 998.5,-460 1004.5,-454 1010.5,-454 1010.5,-454 1097.5,-454 1097.5,-454 1103.5,-454 1109.5,-460 1109.5,-466 1109.5,-466 1109.5,-499 1109.5,-499 1109.5,-505 1103.5,-511 1097.5,-511"/>
<text text-anchor="start" x="1012" y="-494.5" font-family="Helvetica,sans-Serif" font-size="10.00">map&lt; int, bool &gt;</text>
<text text-anchor="start" x="1052.5" y="-479.5" font-family="Helvetica,sans-Serif" font-size="10.00"> </text>
<text text-anchor="start" x="1052.5" y="-464.5" font-family="Helvetica,sans-Serif" font-size="10.00"> </text>
<polygon fill="red" stroke="red" points="1007,-489.5 1007,-489.5 1102,-489.5 1102,-489.5 1007,-489.5"/>
<polygon fill="red" stroke="red" points="1007,-474.5 1007,-474.5 1102,-474.5 1102,-474.5 1007,-474.5"/>
<polygon fill="none" stroke="red" points="1006.5,-458 1006.5,-507 1101.5,-507 1101.5,-458 1006.5,-458"/>
</a>
</g>
</g>
<!-- Node13&#45;&gt;Node10 -->
<g id="edge14_Node000010_Node000013" class="edge">
<title>Node13&#45;&gt;Node10</title>
<g id="a_edge14_Node000010_Node000013"><a xlink:title=" ">
<path fill="none" stroke="#63b8ff" d="M1048.71,-453.96C1040.91,-420.34 1023.28,-363.68 988,-329 955.35,-296.9 907.12,-277.77 868.37,-266.79"/>
<polygon fill="none" stroke="#63b8ff" points="868.27,-266.76 861.43,-269.07 856.68,-263.64 863.52,-261.34 868.27,-266.76"/>
</a>
</g>
<text text-anchor="middle" x="1073.5" y="-365" font-family="Helvetica,sans-Serif" font-size="10.00" fill="grey"> +initialisedMap</text>
</g>
</g>
</svg>
