<?xml version="1.0" encoding="UTF-8" standalone="no"?>
<!DOCTYPE svg PUBLIC "-//W3C//DTD SVG 1.1//EN"
 "http://www.w3.org/Graphics/SVG/1.1/DTD/svg11.dtd">
<!-- Generated by graphviz version 2.43.0 (0)
 -->
<!-- Title: SatGeom Pages: 1 -->
<svg width="248pt" height="624pt"
 viewBox="0.00 0.00 247.50 624.00" xmlns="http://www.w3.org/2000/svg" xmlns:xlink="http://www.w3.org/1999/xlink">
<g id="graph0" class="graph" transform="scale(1 1) rotate(0) translate(4 620)">
<title>SatGeom</title>
<!-- Node1 -->
<g id="Node000001" class="node">
<title>Node1</title>
<g id="a_Node000001"><a xlink:href="structSatGeom.html" target="_top" xlink:title=" ">
<path fill="white" stroke="#666666" stroke-width="2" d="M157,-102C157,-102 99,-102 99,-102 93,-102 87,-96 87,-90 87,-90 87,-12 87,-12 87,-6 93,0 99,0 99,0 157,0 157,0 163,0 169,-6 169,-12 169,-12 169,-90 169,-90 169,-96 163,-102 157,-102"/>
<text text-anchor="start" x="105" y="-86" font-family="Helvetica,sans-Serif" font-size="10.00">SatGeom</text>
<text text-anchor="start" x="99" y="-71" font-family="Helvetica,sans-Serif" font-size="10.00">+</text>
<text text-anchor="start" x="112" y="-71" font-family="Helvetica,sans-Serif" font-size="10.00">beta</text>
<text text-anchor="start" x="99" y="-56" font-family="Helvetica,sans-Serif" font-size="10.00">+</text>
<text text-anchor="start" x="112" y="-56" font-family="Helvetica,sans-Serif" font-size="10.00">betaRate</text>
<text text-anchor="start" x="99" y="-41" font-family="Helvetica,sans-Serif" font-size="10.00">+</text>
<text text-anchor="start" x="112" y="-41" font-family="Helvetica,sans-Serif" font-size="10.00">mu</text>
<text text-anchor="start" x="99" y="-26" font-family="Helvetica,sans-Serif" font-size="10.00">+</text>
<text text-anchor="start" x="112" y="-26" font-family="Helvetica,sans-Serif" font-size="10.00">muRate</text>
<text text-anchor="start" x="126" y="-11" font-family="Helvetica,sans-Serif" font-size="10.00"> </text>
<polygon fill="#666666" stroke="#666666" points="95,-81 95,-81 161,-81 161,-81 95,-81"/>
<polygon fill="#666666" stroke="#666666" points="95,-21 95,-21 110,-21 110,-21 95,-21"/>
<polygon fill="#666666" stroke="#666666" points="110,-21 110,-21 161,-21 161,-21 110,-21"/>
<polygon fill="none" stroke="#666666" points="95,-4 95,-98 161,-98 161,-4 95,-4"/>
</a>
</g>
</g>
<!-- Node2 -->
<g id="Node000002" class="node">
<title>Node2</title>
<g id="a_Node000002"><a xlink:href="structSatSys.html" target="_top" xlink:title="Object holding satellite id, and providing related functions.">
<path fill="white" stroke="#666666" d="M112.5,-501C112.5,-501 19.5,-501 19.5,-501 13.5,-501 7.5,-495 7.5,-489 7.5,-489 7.5,-216 7.5,-216 7.5,-210 13.5,-204 19.5,-204 19.5,-204 112.5,-204 112.5,-204 118.5,-204 124.5,-210 124.5,-216 124.5,-216 124.5,-489 124.5,-489 124.5,-495 118.5,-501 112.5,-501"/>
<text text-anchor="start" x="49.5" y="-484.5" font-family="Helvetica,sans-Serif" font-size="10.00">SatSys</text>
<text text-anchor="start" x="20" y="-469.5" font-family="Helvetica,sans-Serif" font-size="10.00">+</text>
<text text-anchor="start" x="33" y="-469.5" font-family="Helvetica,sans-Serif" font-size="10.00">sys</text>
<text text-anchor="start" x="20" y="-454.5" font-family="Helvetica,sans-Serif" font-size="10.00">+</text>
<text text-anchor="start" x="33" y="-454.5" font-family="Helvetica,sans-Serif" font-size="10.00">prn</text>
<text text-anchor="start" x="20" y="-439.5" font-family="Helvetica,sans-Serif" font-size="10.00">+</text>
<text text-anchor="start" x="33" y="-439.5" font-family="Helvetica,sans-Serif" font-size="10.00">SatSys()</text>
<text text-anchor="start" x="20" y="-424.5" font-family="Helvetica,sans-Serif" font-size="10.00">+</text>
<text text-anchor="start" x="33" y="-424.5" font-family="Helvetica,sans-Serif" font-size="10.00">sysChar()</text>
<text text-anchor="start" x="20" y="-409.5" font-family="Helvetica,sans-Serif" font-size="10.00">+</text>
<text text-anchor="start" x="33" y="-409.5" font-family="Helvetica,sans-Serif" font-size="10.00">getId()</text>
<text text-anchor="start" x="20" y="-394.5" font-family="Helvetica,sans-Serif" font-size="10.00">+</text>
<text text-anchor="start" x="33" y="-394.5" font-family="Helvetica,sans-Serif" font-size="10.00">operator int()</text>
<text text-anchor="start" x="20" y="-379.5" font-family="Helvetica,sans-Serif" font-size="10.00">+</text>
<text text-anchor="start" x="33" y="-379.5" font-family="Helvetica,sans-Serif" font-size="10.00">setBlockType()</text>
<text text-anchor="start" x="20" y="-364.5" font-family="Helvetica,sans-Serif" font-size="10.00">+</text>
<text text-anchor="start" x="33" y="-364.5" font-family="Helvetica,sans-Serif" font-size="10.00">setSvn()</text>
<text text-anchor="start" x="20" y="-349.5" font-family="Helvetica,sans-Serif" font-size="10.00">+</text>
<text text-anchor="start" x="33" y="-349.5" font-family="Helvetica,sans-Serif" font-size="10.00">blockType()</text>
<text text-anchor="start" x="20" y="-334.5" font-family="Helvetica,sans-Serif" font-size="10.00">+</text>
<text text-anchor="start" x="33" y="-334.5" font-family="Helvetica,sans-Serif" font-size="10.00">svn()</text>
<text text-anchor="start" x="20" y="-319.5" font-family="Helvetica,sans-Serif" font-size="10.00">+</text>
<text text-anchor="start" x="33" y="-319.5" font-family="Helvetica,sans-Serif" font-size="10.00">fromHash()</text>
<text text-anchor="start" x="20" y="-304.5" font-family="Helvetica,sans-Serif" font-size="10.00">+</text>
<text text-anchor="start" x="33" y="-304.5" font-family="Helvetica,sans-Serif" font-size="10.00">id()</text>
<text text-anchor="start" x="20" y="-289.5" font-family="Helvetica,sans-Serif" font-size="10.00">+</text>
<text text-anchor="start" x="33" y="-289.5" font-family="Helvetica,sans-Serif" font-size="10.00">operator string()</text>
<text text-anchor="start" x="20" y="-274.5" font-family="Helvetica,sans-Serif" font-size="10.00">+</text>
<text text-anchor="start" x="33" y="-274.5" font-family="Helvetica,sans-Serif" font-size="10.00">SatSys()</text>
<text text-anchor="start" x="20" y="-259.5" font-family="Helvetica,sans-Serif" font-size="10.00">+</text>
<text text-anchor="start" x="33" y="-259.5" font-family="Helvetica,sans-Serif" font-size="10.00">sysName()</text>
<text text-anchor="start" x="20" y="-244.5" font-family="Helvetica,sans-Serif" font-size="10.00">+</text>
<text text-anchor="start" x="33" y="-244.5" font-family="Helvetica,sans-Serif" font-size="10.00">serialize()</text>
<text text-anchor="start" x="20" y="-229.5" font-family="Helvetica,sans-Serif" font-size="10.00">+</text>
<text text-anchor="start" x="33" y="-229.5" font-family="Helvetica,sans-Serif" font-size="10.00">noSat()</text>
<text text-anchor="start" x="20" y="-214.5" font-family="Helvetica,sans-Serif" font-size="10.00">+</text>
<text text-anchor="start" x="33" y="-214.5" font-family="Helvetica,sans-Serif" font-size="10.00">sysFromChar()</text>
<polygon fill="#666666" stroke="#666666" points="16,-479.5 16,-479.5 117,-479.5 117,-479.5 16,-479.5"/>
<polygon fill="#666666" stroke="#666666" points="16,-449.5 16,-449.5 31,-449.5 31,-449.5 16,-449.5"/>
<polygon fill="#666666" stroke="#666666" points="31,-449.5 31,-449.5 117,-449.5 117,-449.5 31,-449.5"/>
<polygon fill="none" stroke="#666666" points="15.5,-208 15.5,-497 116.5,-497 116.5,-208 15.5,-208"/>
</a>
</g>
</g>
<!-- Node2&#45;&gt;Node1 -->
<g id="edge1_Node000001_Node000002" class="edge">
<title>Node2&#45;&gt;Node1</title>
<g id="a_edge1_Node000001_Node000002"><a xlink:title=" ">
<path fill="none" stroke="#63b8ff" d="M96.55,-203.94C103.09,-172.33 109.66,-140.59 115.09,-114.35"/>
<polygon fill="none" stroke="#63b8ff" points="115.15,-114.08 112.45,-107.39 117.58,-102.32 120.28,-109.01 115.15,-114.08"/>
</a>
</g>
<text text-anchor="middle" x="128" y="-150.5" font-family="Helvetica,sans-Serif" font-size="10.00" fill="grey"> +Sat</text>
</g>
<!-- Node3 -->
<g id="Node000003" class="node">
<title>Node3</title>
<g id="a_Node000003"><a xlink:title=" ">
<path fill="#fff0f0" stroke="red" d="M120,-616C120,-616 12,-616 12,-616 6,-616 0,-610 0,-604 0,-604 0,-560 0,-560 0,-554 6,-548 12,-548 12,-548 120,-548 120,-548 126,-548 132,-554 132,-560 132,-560 132,-604 132,-604 132,-610 126,-616 120,-616"/>
<text text-anchor="start" x="13" y="-600" font-family="Helvetica,sans-Serif" font-size="10.00">map&lt; SatSys, SatSys</text>
<text text-anchor="start" x="37.5" y="-589" font-family="Helvetica,sans-Serif" font-size="10.00">::SatData &gt;</text>
<text text-anchor="start" x="64" y="-574" font-family="Helvetica,sans-Serif" font-size="10.00"> </text>
<text text-anchor="start" x="64" y="-559" font-family="Helvetica,sans-Serif" font-size="10.00"> </text>
<polygon fill="red" stroke="red" points="8,-584 8,-584 124,-584 124,-584 8,-584"/>
<polygon fill="red" stroke="red" points="8,-569 8,-569 124,-569 124,-569 8,-569"/>
<polygon fill="none" stroke="red" points="8,-552 8,-612 124,-612 124,-552 8,-552"/>
</a>
</g>
</g>
<!-- Node3&#45;&gt;Node2 -->
<g id="edge2_Node000002_Node000003" class="edge">
<title>Node3&#45;&gt;Node2</title>
<g id="a_edge2_Node000002_Node000003"><a xlink:title=" ">
<path fill="none" stroke="#63b8ff" d="M66,-547.92C66,-537.93 66,-526.22 66,-513.6"/>
<polygon fill="none" stroke="#63b8ff" points="66,-513.24 62,-507.24 66,-501.24 70,-507.24 66,-513.24"/>
</a>
</g>
<text text-anchor="middle" x="101.5" y="-522" font-family="Helvetica,sans-Serif" font-size="10.00" fill="grey"> +satDataMap</text>
</g>
<!-- Node5 -->
<g id="Node000005" class="node">
<title>Node5</title>
<g id="a_Node000005"><a xlink:href="structVectorEcef.html" target="_top" xlink:title=" ">
<path fill="white" stroke="#666666" d="M227.5,-418.5C227.5,-418.5 154.5,-418.5 154.5,-418.5 148.5,-418.5 142.5,-412.5 142.5,-406.5 142.5,-406.5 142.5,-298.5 142.5,-298.5 142.5,-292.5 148.5,-286.5 154.5,-286.5 154.5,-286.5 227.5,-286.5 227.5,-286.5 233.5,-286.5 239.5,-292.5 239.5,-298.5 239.5,-298.5 239.5,-406.5 239.5,-406.5 239.5,-412.5 233.5,-418.5 227.5,-418.5"/>
<text text-anchor="start" x="165.5" y="-402.5" font-family="Helvetica,sans-Serif" font-size="10.00">VectorEcef</text>
<text text-anchor="start" x="189.5" y="-387.5" font-family="Helvetica,sans-Serif" font-size="10.00"> </text>
<text text-anchor="start" x="155" y="-372.5" font-family="Helvetica,sans-Serif" font-size="10.00">+</text>
<text text-anchor="start" x="168" y="-372.5" font-family="Helvetica,sans-Serif" font-size="10.00">VectorEcef()</text>
<text text-anchor="start" x="155" y="-357.5" font-family="Helvetica,sans-Serif" font-size="10.00">+</text>
<text text-anchor="start" x="168" y="-357.5" font-family="Helvetica,sans-Serif" font-size="10.00">VectorEcef()</text>
<text text-anchor="start" x="155" y="-342.5" font-family="Helvetica,sans-Serif" font-size="10.00">+</text>
<text text-anchor="start" x="168" y="-342.5" font-family="Helvetica,sans-Serif" font-size="10.00">operator=()</text>
<text text-anchor="start" x="155" y="-327.5" font-family="Helvetica,sans-Serif" font-size="10.00">+</text>
<text text-anchor="start" x="168" y="-327.5" font-family="Helvetica,sans-Serif" font-size="10.00">operator*()</text>
<text text-anchor="start" x="155" y="-312.5" font-family="Helvetica,sans-Serif" font-size="10.00">+</text>
<text text-anchor="start" x="168" y="-312.5" font-family="Helvetica,sans-Serif" font-size="10.00">operator&#45;()</text>
<text text-anchor="start" x="155" y="-297.5" font-family="Helvetica,sans-Serif" font-size="10.00">+</text>
<text text-anchor="start" x="168" y="-297.5" font-family="Helvetica,sans-Serif" font-size="10.00">operator+()</text>
<polygon fill="#666666" stroke="#666666" points="151,-397.5 151,-397.5 232,-397.5 232,-397.5 151,-397.5"/>
<polygon fill="#666666" stroke="#666666" points="151,-382.5 151,-382.5 232,-382.5 232,-382.5 151,-382.5"/>
<polygon fill="none" stroke="#666666" points="150.5,-290.5 150.5,-414.5 231.5,-414.5 231.5,-290.5 150.5,-290.5"/>
</a>
</g>
</g>
<!-- Node5&#45;&gt;Node1 -->
<g id="edge3_Node000001_Node000005" class="edge">
<title>Node5&#45;&gt;Node1</title>
<g id="a_edge3_Node000001_Node000005"><a xlink:title=" ">
<path fill="none" stroke="#63b8ff" d="M179.55,-286.39C171.07,-239.87 158.81,-175.87 146,-120 145.54,-118 145.06,-115.96 144.57,-113.91"/>
<polygon fill="none" stroke="#63b8ff" points="144.52,-113.69 139.2,-108.82 141.65,-102.04 146.97,-106.91 144.52,-113.69"/>
</a>
</g>
<text text-anchor="middle" x="189.5" y="-178" font-family="Helvetica,sans-Serif" font-size="10.00" fill="grey"> +eNorm</text>
<text text-anchor="middle" x="189.5" y="-167" font-family="Helvetica,sans-Serif" font-size="10.00" fill="grey">+rMoon</text>
<text text-anchor="middle" x="189.5" y="-156" font-family="Helvetica,sans-Serif" font-size="10.00" fill="grey">+rSat</text>
<text text-anchor="middle" x="189.5" y="-145" font-family="Helvetica,sans-Serif" font-size="10.00" fill="grey">+rSun</text>
<text text-anchor="middle" x="189.5" y="-134" font-family="Helvetica,sans-Serif" font-size="10.00" fill="grey">+vSat</text>
<text text-anchor="middle" x="189.5" y="-123" font-family="Helvetica,sans-Serif" font-size="10.00" fill="grey">+vSatPrime</text>
</g>
<!-- Node6 -->
<g id="Node000006" class="node">
<title>Node6</title>
<g id="a_Node000006"><a xlink:title=" ">
<path fill="white" stroke="#666666" d="M213.5,-610.5C213.5,-610.5 168.5,-610.5 168.5,-610.5 162.5,-610.5 156.5,-604.5 156.5,-598.5 156.5,-598.5 156.5,-565.5 156.5,-565.5 156.5,-559.5 162.5,-553.5 168.5,-553.5 168.5,-553.5 213.5,-553.5 213.5,-553.5 219.5,-553.5 225.5,-559.5 225.5,-565.5 225.5,-565.5 225.5,-598.5 225.5,-598.5 225.5,-604.5 219.5,-610.5 213.5,-610.5"/>
<text text-anchor="start" x="170" y="-594" font-family="Helvetica,sans-Serif" font-size="10.00">Vector3d</text>
<text text-anchor="start" x="189.5" y="-579" font-family="Helvetica,sans-Serif" font-size="10.00"> </text>
<text text-anchor="start" x="189.5" y="-564" font-family="Helvetica,sans-Serif" font-size="10.00"> </text>
<polygon fill="#666666" stroke="#666666" points="165,-589 165,-589 218,-589 218,-589 165,-589"/>
<polygon fill="#666666" stroke="#666666" points="165,-574 165,-574 218,-574 218,-574 165,-574"/>
<polygon fill="none" stroke="#666666" points="164.5,-557.5 164.5,-606.5 217.5,-606.5 217.5,-557.5 164.5,-557.5"/>
</a>
</g>
</g>
<!-- Node6&#45;&gt;Node5 -->
<g id="edge4_Node000005_Node000006" class="edge">
<title>Node6&#45;&gt;Node5</title>
<g id="a_edge4_Node000005_Node000006"><a xlink:title=" ">
<path fill="none" stroke="#63b8ff" d="M191,-542.74C191,-508.95 191,-458.96 191,-418.84"/>
<polygon fill="none" stroke="#63b8ff" points="187.5,-543.1 191,-553.1 194.5,-543.1 187.5,-543.1"/>
</a>
</g>
</g>
</g>
</svg>
