<?xml version="1.0" encoding="UTF-8" standalone="no"?>
<!DOCTYPE svg PUBLIC "-//W3C//DTD SVG 1.1//EN"
 "http://www.w3.org/Graphics/SVG/1.1/DTD/svg11.dtd">
<!-- Generated by graphviz version 2.43.0 (0)
 -->
<!-- Title: RtsOptions Pages: 1 -->
<svg width="833pt" height="881pt"
 viewBox="0.00 0.00 832.50 881.00" xmlns="http://www.w3.org/2000/svg" xmlns:xlink="http://www.w3.org/1999/xlink">
<g id="graph0" class="graph" transform="scale(1 1) rotate(0) translate(4 877)">
<title>RtsOptions</title>
<!-- Node1 -->
<g id="Node000001" class="node">
<title>Node1</title>
<g id="a_Node000001"><a xlink:href="structRtsOptions.html" target="_top" xlink:title=" ">
<path fill="white" stroke="#666666" stroke-width="2" d="M474.5,-873C474.5,-873 361.5,-873 361.5,-873 355.5,-873 349.5,-867 349.5,-861 349.5,-861 349.5,-738 349.5,-738 349.5,-732 355.5,-726 361.5,-726 361.5,-726 474.5,-726 474.5,-726 480.5,-726 486.5,-732 486.5,-738 486.5,-738 486.5,-861 486.5,-861 486.5,-867 480.5,-873 474.5,-873"/>
<text text-anchor="start" x="391.5" y="-856.5" font-family="Helvetica,sans-Serif" font-size="10.00">RtsOptions</text>
<text text-anchor="start" x="362" y="-841.5" font-family="Helvetica,sans-Serif" font-size="10.00">+</text>
<text text-anchor="start" x="375" y="-841.5" font-family="Helvetica,sans-Serif" font-size="10.00">rts_filename</text>
<text text-anchor="start" x="362" y="-826.5" font-family="Helvetica,sans-Serif" font-size="10.00">+</text>
<text text-anchor="start" x="375" y="-826.5" font-family="Helvetica,sans-Serif" font-size="10.00">rts_directory</text>
<text text-anchor="start" x="362" y="-811.5" font-family="Helvetica,sans-Serif" font-size="10.00">+</text>
<text text-anchor="start" x="375" y="-811.5" font-family="Helvetica,sans-Serif" font-size="10.00">rts_lag</text>
<text text-anchor="start" x="362" y="-796.5" font-family="Helvetica,sans-Serif" font-size="10.00">+</text>
<text text-anchor="start" x="375" y="-796.5" font-family="Helvetica,sans-Serif" font-size="10.00">rts_interval</text>
<text text-anchor="start" x="362" y="-781.5" font-family="Helvetica,sans-Serif" font-size="10.00">+</text>
<text text-anchor="start" x="375" y="-781.5" font-family="Helvetica,sans-Serif" font-size="10.00">rts_smoothed_suffix</text>
<text text-anchor="start" x="362" y="-766.5" font-family="Helvetica,sans-Serif" font-size="10.00">+</text>
<text text-anchor="start" x="375" y="-766.5" font-family="Helvetica,sans-Serif" font-size="10.00">queue_rts_outputs</text>
<text text-anchor="start" x="362" y="-751.5" font-family="Helvetica,sans-Serif" font-size="10.00">+</text>
<text text-anchor="start" x="375" y="-751.5" font-family="Helvetica,sans-Serif" font-size="10.00">rts_inverter</text>
<text text-anchor="start" x="416.5" y="-736.5" font-family="Helvetica,sans-Serif" font-size="10.00"> </text>
<polygon fill="#666666" stroke="#666666" points="358,-851.5 358,-851.5 479,-851.5 479,-851.5 358,-851.5"/>
<polygon fill="#666666" stroke="#666666" points="358,-746.5 358,-746.5 373,-746.5 373,-746.5 358,-746.5"/>
<polygon fill="#666666" stroke="#666666" points="373,-746.5 373,-746.5 479,-746.5 479,-746.5 373,-746.5"/>
<polygon fill="none" stroke="#666666" points="357.5,-730 357.5,-869 478.5,-869 478.5,-730 357.5,-730"/>
</a>
</g>
</g>
<!-- Node2 -->
<g id="Node000002" class="node">
<title>Node2</title>
<g id="a_Node000002"><a xlink:href="structFilterOptions.html" target="_top" xlink:title=" ">
<path fill="white" stroke="#666666" d="M473.5,-690C473.5,-690 362.5,-690 362.5,-690 356.5,-690 350.5,-684 350.5,-678 350.5,-678 350.5,-540 350.5,-540 350.5,-534 356.5,-528 362.5,-528 362.5,-528 473.5,-528 473.5,-528 479.5,-528 485.5,-534 485.5,-540 485.5,-540 485.5,-678 485.5,-678 485.5,-684 479.5,-690 473.5,-690"/>
<text text-anchor="start" x="387" y="-674" font-family="Helvetica,sans-Serif" font-size="10.00">FilterOptions</text>
<text text-anchor="start" x="363" y="-659" font-family="Helvetica,sans-Serif" font-size="10.00">+</text>
<text text-anchor="start" x="376" y="-659" font-family="Helvetica,sans-Serif" font-size="10.00">simulate_filter_only</text>
<text text-anchor="start" x="363" y="-644" font-family="Helvetica,sans-Serif" font-size="10.00">+</text>
<text text-anchor="start" x="376" y="-644" font-family="Helvetica,sans-Serif" font-size="10.00">assume_linearity</text>
<text text-anchor="start" x="363" y="-629" font-family="Helvetica,sans-Serif" font-size="10.00">+</text>
<text text-anchor="start" x="376" y="-629" font-family="Helvetica,sans-Serif" font-size="10.00">advanced_postfits</text>
<text text-anchor="start" x="363" y="-614" font-family="Helvetica,sans-Serif" font-size="10.00">+</text>
<text text-anchor="start" x="376" y="-614" font-family="Helvetica,sans-Serif" font-size="10.00">joseph_stabilisation</text>
<text text-anchor="start" x="363" y="-599" font-family="Helvetica,sans-Serif" font-size="10.00">+</text>
<text text-anchor="start" x="376" y="-599" font-family="Helvetica,sans-Serif" font-size="10.00">inverter</text>
<text text-anchor="start" x="363" y="-584" font-family="Helvetica,sans-Serif" font-size="10.00">+</text>
<text text-anchor="start" x="376" y="-584" font-family="Helvetica,sans-Serif" font-size="10.00">prefitOpts</text>
<text text-anchor="start" x="363" y="-569" font-family="Helvetica,sans-Serif" font-size="10.00">+</text>
<text text-anchor="start" x="376" y="-569" font-family="Helvetica,sans-Serif" font-size="10.00">postfitOpts</text>
<text text-anchor="start" x="363" y="-554" font-family="Helvetica,sans-Serif" font-size="10.00">+</text>
<text text-anchor="start" x="376" y="-554" font-family="Helvetica,sans-Serif" font-size="10.00">chiSquareTest</text>
<text text-anchor="start" x="416.5" y="-539" font-family="Helvetica,sans-Serif" font-size="10.00"> </text>
<polygon fill="#666666" stroke="#666666" points="359,-669 359,-669 478,-669 478,-669 359,-669"/>
<polygon fill="#666666" stroke="#666666" points="359,-549 359,-549 374,-549 374,-549 359,-549"/>
<polygon fill="#666666" stroke="#666666" points="374,-549 374,-549 478,-549 478,-549 374,-549"/>
<polygon fill="none" stroke="#666666" points="358.5,-532 358.5,-686 477.5,-686 477.5,-532 358.5,-532"/>
</a>
</g>
</g>
<!-- Node1&#45;&gt;Node2 -->
<g id="edge1_Node000001_Node000002" class="edge">
<title>Node1&#45;&gt;Node2</title>
<g id="a_edge1_Node000001_Node000002"><a xlink:title=" ">
<path fill="none" stroke="#63b8ff" d="M418,-715.63C418,-707.15 418,-698.54 418,-690.1"/>
<polygon fill="none" stroke="#63b8ff" points="414.5,-715.89 418,-725.89 421.5,-715.89 414.5,-715.89"/>
</a>
</g>
</g>
<!-- Node3 -->
<g id="Node000003" class="node">
<title>Node3</title>
<g id="a_Node000003"><a xlink:href="structIonModelOptions.html" target="_top" xlink:title=" ">
<path fill="white" stroke="#666666" d="M114,-334.5C114,-334.5 12,-334.5 12,-334.5 6,-334.5 0,-328.5 0,-322.5 0,-322.5 0,-169.5 0,-169.5 0,-163.5 6,-157.5 12,-157.5 12,-157.5 114,-157.5 114,-157.5 120,-157.5 126,-163.5 126,-169.5 126,-169.5 126,-322.5 126,-322.5 126,-328.5 120,-334.5 114,-334.5"/>
<text text-anchor="start" x="21.5" y="-318" font-family="Helvetica,sans-Serif" font-size="10.00">IonModelOptions</text>
<text text-anchor="start" x="12" y="-303" font-family="Helvetica,sans-Serif" font-size="10.00">+</text>
<text text-anchor="start" x="25" y="-303" font-family="Helvetica,sans-Serif" font-size="10.00">model</text>
<text text-anchor="start" x="12" y="-288" font-family="Helvetica,sans-Serif" font-size="10.00">+</text>
<text text-anchor="start" x="25" y="-288" font-family="Helvetica,sans-Serif" font-size="10.00">numBasis</text>
<text text-anchor="start" x="12" y="-273" font-family="Helvetica,sans-Serif" font-size="10.00">+</text>
<text text-anchor="start" x="25" y="-273" font-family="Helvetica,sans-Serif" font-size="10.00">function_order</text>
<text text-anchor="start" x="12" y="-258" font-family="Helvetica,sans-Serif" font-size="10.00">+</text>
<text text-anchor="start" x="25" y="-258" font-family="Helvetica,sans-Serif" font-size="10.00">function_degree</text>
<text text-anchor="start" x="12" y="-243" font-family="Helvetica,sans-Serif" font-size="10.00">+</text>
<text text-anchor="start" x="25" y="-243" font-family="Helvetica,sans-Serif" font-size="10.00">layer_heights</text>
<text text-anchor="start" x="12" y="-228" font-family="Helvetica,sans-Serif" font-size="10.00">+</text>
<text text-anchor="start" x="25" y="-228" font-family="Helvetica,sans-Serif" font-size="10.00">estimate_sat_dcb</text>
<text text-anchor="start" x="12" y="-213" font-family="Helvetica,sans-Serif" font-size="10.00">+</text>
<text text-anchor="start" x="25" y="-213" font-family="Helvetica,sans-Serif" font-size="10.00">use_rotation_mtx</text>
<text text-anchor="start" x="12" y="-198" font-family="Helvetica,sans-Serif" font-size="10.00">+</text>
<text text-anchor="start" x="25" y="-198" font-family="Helvetica,sans-Serif" font-size="10.00">basis_sigma_limit</text>
<text text-anchor="start" x="12" y="-183" font-family="Helvetica,sans-Serif" font-size="10.00">+</text>
<text text-anchor="start" x="25" y="-183" font-family="Helvetica,sans-Serif" font-size="10.00">ion</text>
<text text-anchor="start" x="61" y="-168" font-family="Helvetica,sans-Serif" font-size="10.00"> </text>
<polygon fill="#666666" stroke="#666666" points="8,-313 8,-313 118,-313 118,-313 8,-313"/>
<polygon fill="#666666" stroke="#666666" points="8,-178 8,-178 23,-178 23,-178 8,-178"/>
<polygon fill="#666666" stroke="#666666" points="23,-178 23,-178 118,-178 118,-178 23,-178"/>
<polygon fill="none" stroke="#666666" points="8,-161.5 8,-330.5 118,-330.5 118,-161.5 8,-161.5"/>
</a>
</g>
</g>
<!-- Node2&#45;&gt;Node3 -->
<g id="edge2_Node000002_Node000003" class="edge">
<title>Node2&#45;&gt;Node3</title>
<g id="a_edge2_Node000002_Node000003"><a xlink:title=" ">
<path fill="none" stroke="#63b8ff" d="M340.33,-595.29C276.58,-580.89 188.42,-551.23 135,-492 96.18,-448.95 78.23,-385.97 69.96,-334.64"/>
<polygon fill="none" stroke="#63b8ff" points="339.83,-598.76 350.34,-597.47 341.32,-591.92 339.83,-598.76"/>
</a>
</g>
</g>
<!-- Node4 -->
<g id="Node000004" class="node">
<title>Node4</title>
<g id="a_Node000004"><a xlink:href="structKFState__.html" target="_top" xlink:title="Kalman filter object.">
<path fill="#fff0f0" stroke="red" d="M307.5,-492C307.5,-492 156.5,-492 156.5,-492 150.5,-492 144.5,-486 144.5,-480 144.5,-480 144.5,-12 144.5,-12 144.5,-6 150.5,0 156.5,0 156.5,0 307.5,0 307.5,0 313.5,0 319.5,-6 319.5,-12 319.5,-12 319.5,-480 319.5,-480 319.5,-486 313.5,-492 307.5,-492"/>
<text text-anchor="start" x="211" y="-476" font-family="Helvetica,sans-Serif" font-size="10.00">KFState_</text>
<text text-anchor="start" x="157" y="-461" font-family="Helvetica,sans-Serif" font-size="10.00">+</text>
<text text-anchor="start" x="170" y="-461" font-family="Helvetica,sans-Serif" font-size="10.00">lsqRequired</text>
<text text-anchor="start" x="157" y="-446" font-family="Helvetica,sans-Serif" font-size="10.00">+</text>
<text text-anchor="start" x="170" y="-446" font-family="Helvetica,sans-Serif" font-size="10.00">time</text>
<text text-anchor="start" x="157" y="-431" font-family="Helvetica,sans-Serif" font-size="10.00">+</text>
<text text-anchor="start" x="170" y="-431" font-family="Helvetica,sans-Serif" font-size="10.00">x</text>
<text text-anchor="start" x="157" y="-416" font-family="Helvetica,sans-Serif" font-size="10.00">+</text>
<text text-anchor="start" x="170" y="-416" font-family="Helvetica,sans-Serif" font-size="10.00">P</text>
<text text-anchor="start" x="157" y="-401" font-family="Helvetica,sans-Serif" font-size="10.00">+</text>
<text text-anchor="start" x="170" y="-401" font-family="Helvetica,sans-Serif" font-size="10.00">dx</text>
<text text-anchor="start" x="157" y="-386" font-family="Helvetica,sans-Serif" font-size="10.00">+</text>
<text text-anchor="start" x="170" y="-386" font-family="Helvetica,sans-Serif" font-size="10.00">kfIndexMap</text>
<text text-anchor="start" x="157" y="-371" font-family="Helvetica,sans-Serif" font-size="10.00">+</text>
<text text-anchor="start" x="170" y="-371" font-family="Helvetica,sans-Serif" font-size="10.00">stateTransitionMap</text>
<text text-anchor="start" x="157" y="-356" font-family="Helvetica,sans-Serif" font-size="10.00">+</text>
<text text-anchor="start" x="170" y="-356" font-family="Helvetica,sans-Serif" font-size="10.00">gaussMarkovTauMap</text>
<text text-anchor="start" x="157" y="-341" font-family="Helvetica,sans-Serif" font-size="10.00">+</text>
<text text-anchor="start" x="170" y="-341" font-family="Helvetica,sans-Serif" font-size="10.00">gaussMarkovMuMap</text>
<text text-anchor="start" x="157" y="-326" font-family="Helvetica,sans-Serif" font-size="10.00">+</text>
<text text-anchor="start" x="170" y="-326" font-family="Helvetica,sans-Serif" font-size="10.00">procNoiseMap</text>
<text text-anchor="start" x="157" y="-311" font-family="Helvetica,sans-Serif" font-size="10.00">+</text>
<text text-anchor="start" x="170" y="-311" font-family="Helvetica,sans-Serif" font-size="10.00">initNoiseMap</text>
<text text-anchor="start" x="157" y="-296" font-family="Helvetica,sans-Serif" font-size="10.00">+</text>
<text text-anchor="start" x="170" y="-296" font-family="Helvetica,sans-Serif" font-size="10.00">sigmaMaxMap</text>
<text text-anchor="start" x="157" y="-281" font-family="Helvetica,sans-Serif" font-size="10.00">+</text>
<text text-anchor="start" x="170" y="-281" font-family="Helvetica,sans-Serif" font-size="10.00">outageLimitMap</text>
<text text-anchor="start" x="157" y="-266" font-family="Helvetica,sans-Serif" font-size="10.00">+</text>
<text text-anchor="start" x="170" y="-266" font-family="Helvetica,sans-Serif" font-size="10.00">exponentialNoiseMap</text>
<text text-anchor="start" x="157" y="-251" font-family="Helvetica,sans-Serif" font-size="10.00">+</text>
<text text-anchor="start" x="170" y="-251" font-family="Helvetica,sans-Serif" font-size="10.00">pseudoStateMap</text>
<text text-anchor="start" x="157" y="-236" font-family="Helvetica,sans-Serif" font-size="10.00">+</text>
<text text-anchor="start" x="170" y="-236" font-family="Helvetica,sans-Serif" font-size="10.00">pseudoParentMap</text>
<text text-anchor="start" x="157" y="-221" font-family="Helvetica,sans-Serif" font-size="10.00">+</text>
<text text-anchor="start" x="170" y="-221" font-family="Helvetica,sans-Serif" font-size="10.00">stateRejectCallbacks</text>
<text text-anchor="start" x="157" y="-206" font-family="Helvetica,sans-Serif" font-size="10.00">+</text>
<text text-anchor="start" x="170" y="-206" font-family="Helvetica,sans-Serif" font-size="10.00">measRejectCallbacks</text>
<text text-anchor="start" x="157" y="-191" font-family="Helvetica,sans-Serif" font-size="10.00">+</text>
<text text-anchor="start" x="170" y="-191" font-family="Helvetica,sans-Serif" font-size="10.00">filterChunkMap</text>
<text text-anchor="start" x="157" y="-176" font-family="Helvetica,sans-Serif" font-size="10.00">+</text>
<text text-anchor="start" x="170" y="-176" font-family="Helvetica,sans-Serif" font-size="10.00">metaDataMap</text>
<text text-anchor="start" x="157" y="-161" font-family="Helvetica,sans-Serif" font-size="10.00">+</text>
<text text-anchor="start" x="170" y="-161" font-family="Helvetica,sans-Serif" font-size="10.00">chiQCPass</text>
<text text-anchor="start" x="157" y="-146" font-family="Helvetica,sans-Serif" font-size="10.00">+</text>
<text text-anchor="start" x="170" y="-146" font-family="Helvetica,sans-Serif" font-size="10.00">chi</text>
<text text-anchor="start" x="157" y="-131" font-family="Helvetica,sans-Serif" font-size="10.00">+</text>
<text text-anchor="start" x="170" y="-131" font-family="Helvetica,sans-Serif" font-size="10.00">dof</text>
<text text-anchor="start" x="157" y="-116" font-family="Helvetica,sans-Serif" font-size="10.00">+</text>
<text text-anchor="start" x="170" y="-116" font-family="Helvetica,sans-Serif" font-size="10.00">id</text>
<text text-anchor="start" x="157" y="-101" font-family="Helvetica,sans-Serif" font-size="10.00">+</text>
<text text-anchor="start" x="170" y="-101" font-family="Helvetica,sans-Serif" font-size="10.00">rts_basename</text>
<text text-anchor="start" x="157" y="-86" font-family="Helvetica,sans-Serif" font-size="10.00">+</text>
<text text-anchor="start" x="170" y="-86" font-family="Helvetica,sans-Serif" font-size="10.00">output_residuals</text>
<text text-anchor="start" x="157" y="-71" font-family="Helvetica,sans-Serif" font-size="10.00">+</text>
<text text-anchor="start" x="170" y="-71" font-family="Helvetica,sans-Serif" font-size="10.00">outputMongoMeasurements</text>
<text text-anchor="start" x="157" y="-56" font-family="Helvetica,sans-Serif" font-size="10.00">+</text>
<text text-anchor="start" x="170" y="-56" font-family="Helvetica,sans-Serif" font-size="10.00">alternate_ptr</text>
<text text-anchor="start" x="157" y="-41" font-family="Helvetica,sans-Serif" font-size="10.00">+</text>
<text text-anchor="start" x="170" y="-41" font-family="Helvetica,sans-Serif" font-size="10.00">statisticsMap</text>
<text text-anchor="start" x="157" y="-26" font-family="Helvetica,sans-Serif" font-size="10.00">+</text>
<text text-anchor="start" x="170" y="-26" font-family="Helvetica,sans-Serif" font-size="10.00">statisticsMapSum</text>
<text text-anchor="start" x="230.5" y="-11" font-family="Helvetica,sans-Serif" font-size="10.00"> </text>
<polygon fill="red" stroke="red" points="153,-471 153,-471 312,-471 312,-471 153,-471"/>
<polygon fill="red" stroke="red" points="153,-21 153,-21 168,-21 168,-21 153,-21"/>
<polygon fill="red" stroke="red" points="168,-21 168,-21 312,-21 312,-21 168,-21"/>
<polygon fill="none" stroke="red" points="152.5,-4 152.5,-488 311.5,-488 311.5,-4 152.5,-4"/>
</a>
</g>
</g>
<!-- Node2&#45;&gt;Node4 -->
<g id="edge3_Node000002_Node000004" class="edge">
<title>Node2&#45;&gt;Node4</title>
<g id="a_edge3_Node000002_Node000004"><a xlink:title=" ">
<path fill="none" stroke="#63b8ff" d="M345.44,-519.68C339.19,-510.56 333.25,-501.25 328,-492 325.12,-486.94 322.29,-481.77 319.52,-476.52"/>
<polygon fill="none" stroke="#63b8ff" points="342.65,-521.8 351.25,-527.98 348.38,-517.78 342.65,-521.8"/>
</a>
</g>
</g>
<!-- Node6 -->
<g id="Node000006" class="node">
<title>Node6</title>
<g id="a_Node000006"><a xlink:href="structMinimumConstraintOptions.html" target="_top" xlink:title="Options associated with the minimum constraints mode of operation.">
<path fill="white" stroke="#666666" d="M486.5,-334.5C486.5,-334.5 349.5,-334.5 349.5,-334.5 343.5,-334.5 337.5,-328.5 337.5,-322.5 337.5,-322.5 337.5,-169.5 337.5,-169.5 337.5,-163.5 343.5,-157.5 349.5,-157.5 349.5,-157.5 486.5,-157.5 486.5,-157.5 492.5,-157.5 498.5,-163.5 498.5,-169.5 498.5,-169.5 498.5,-322.5 498.5,-322.5 498.5,-328.5 492.5,-334.5 486.5,-334.5"/>
<text text-anchor="start" x="351" y="-318" font-family="Helvetica,sans-Serif" font-size="10.00">MinimumConstraintOptions</text>
<text text-anchor="start" x="353" y="-303" font-family="Helvetica,sans-Serif" font-size="10.00">+</text>
<text text-anchor="start" x="369" y="-303" font-family="Helvetica,sans-Serif" font-size="10.00">delay</text>
<text text-anchor="start" x="353" y="-288" font-family="Helvetica,sans-Serif" font-size="10.00">+</text>
<text text-anchor="start" x="369" y="-288" font-family="Helvetica,sans-Serif" font-size="10.00">scale</text>
<text text-anchor="start" x="353" y="-273" font-family="Helvetica,sans-Serif" font-size="10.00">+</text>
<text text-anchor="start" x="369" y="-273" font-family="Helvetica,sans-Serif" font-size="10.00">rotation</text>
<text text-anchor="start" x="353" y="-258" font-family="Helvetica,sans-Serif" font-size="10.00">+</text>
<text text-anchor="start" x="369" y="-258" font-family="Helvetica,sans-Serif" font-size="10.00">translation</text>
<text text-anchor="start" x="353" y="-243" font-family="Helvetica,sans-Serif" font-size="10.00">+</text>
<text text-anchor="start" x="369" y="-243" font-family="Helvetica,sans-Serif" font-size="10.00">once_per_epoch</text>
<text text-anchor="start" x="353" y="-228" font-family="Helvetica,sans-Serif" font-size="10.00">+</text>
<text text-anchor="start" x="369" y="-228" font-family="Helvetica,sans-Serif" font-size="10.00">full_vcv</text>
<text text-anchor="start" x="353" y="-213" font-family="Helvetica,sans-Serif" font-size="10.00">+</text>
<text text-anchor="start" x="369" y="-213" font-family="Helvetica,sans-Serif" font-size="10.00">constrain_orbits</text>
<text text-anchor="start" x="353" y="-198" font-family="Helvetica,sans-Serif" font-size="10.00">+</text>
<text text-anchor="start" x="369" y="-198" font-family="Helvetica,sans-Serif" font-size="10.00">transform_unweighted</text>
<text text-anchor="start" x="353" y="-183" font-family="Helvetica,sans-Serif" font-size="10.00">+</text>
<text text-anchor="start" x="369" y="-183" font-family="Helvetica,sans-Serif" font-size="10.00">application_mode</text>
<text text-anchor="start" x="416.5" y="-168" font-family="Helvetica,sans-Serif" font-size="10.00"> </text>
<polygon fill="#666666" stroke="#666666" points="346,-313 346,-313 491,-313 491,-313 346,-313"/>
<polygon fill="#666666" stroke="#666666" points="346,-178 346,-178 367,-178 367,-178 346,-178"/>
<polygon fill="#666666" stroke="#666666" points="367,-178 367,-178 491,-178 491,-178 367,-178"/>
<polygon fill="none" stroke="#666666" points="345.5,-161.5 345.5,-330.5 490.5,-330.5 490.5,-161.5 345.5,-161.5"/>
</a>
</g>
</g>
<!-- Node2&#45;&gt;Node6 -->
<g id="edge4_Node000002_Node000006" class="edge">
<title>Node2&#45;&gt;Node6</title>
<g id="a_edge4_Node000002_Node000006"><a xlink:title=" ">
<path fill="none" stroke="#63b8ff" d="M418,-517.63C418,-461.7 418,-390.24 418,-334.79"/>
<polygon fill="none" stroke="#63b8ff" points="414.5,-517.88 418,-527.88 421.5,-517.88 414.5,-517.88"/>
</a>
</g>
</g>
<!-- Node7 -->
<g id="Node000007" class="node">
<title>Node7</title>
<g id="a_Node000007"><a xlink:href="structPppOptions.html" target="_top" xlink:title="Options associated with the ppp processing mode of operation.">
<path fill="white" stroke="#666666" d="M663.5,-379.5C663.5,-379.5 528.5,-379.5 528.5,-379.5 522.5,-379.5 516.5,-373.5 516.5,-367.5 516.5,-367.5 516.5,-124.5 516.5,-124.5 516.5,-118.5 522.5,-112.5 528.5,-112.5 528.5,-112.5 663.5,-112.5 663.5,-112.5 669.5,-112.5 675.5,-118.5 675.5,-124.5 675.5,-124.5 675.5,-367.5 675.5,-367.5 675.5,-373.5 669.5,-379.5 663.5,-379.5"/>
<text text-anchor="start" x="568.5" y="-363" font-family="Helvetica,sans-Serif" font-size="10.00">PppOptions</text>
<text text-anchor="start" x="529" y="-348" font-family="Helvetica,sans-Serif" font-size="10.00">+</text>
<text text-anchor="start" x="542" y="-348" font-family="Helvetica,sans-Serif" font-size="10.00">eop</text>
<text text-anchor="start" x="529" y="-333" font-family="Helvetica,sans-Serif" font-size="10.00">+</text>
<text text-anchor="start" x="542" y="-333" font-family="Helvetica,sans-Serif" font-size="10.00">eop_rates</text>
<text text-anchor="start" x="529" y="-318" font-family="Helvetica,sans-Serif" font-size="10.00">+</text>
<text text-anchor="start" x="542" y="-318" font-family="Helvetica,sans-Serif" font-size="10.00">ionoOpts</text>
<text text-anchor="start" x="529" y="-303" font-family="Helvetica,sans-Serif" font-size="10.00">+</text>
<text text-anchor="start" x="542" y="-303" font-family="Helvetica,sans-Serif" font-size="10.00">equate_ionospheres</text>
<text text-anchor="start" x="529" y="-288" font-family="Helvetica,sans-Serif" font-size="10.00">+</text>
<text text-anchor="start" x="542" y="-288" font-family="Helvetica,sans-Serif" font-size="10.00">equate_tropospheres</text>
<text text-anchor="start" x="529" y="-273" font-family="Helvetica,sans-Serif" font-size="10.00">+</text>
<text text-anchor="start" x="542" y="-273" font-family="Helvetica,sans-Serif" font-size="10.00">use_rtk_combo</text>
<text text-anchor="start" x="529" y="-258" font-family="Helvetica,sans-Serif" font-size="10.00">+</text>
<text text-anchor="start" x="542" y="-258" font-family="Helvetica,sans-Serif" font-size="10.00">merge_correlated_states</text>
<text text-anchor="start" x="529" y="-243" font-family="Helvetica,sans-Serif" font-size="10.00">+</text>
<text text-anchor="start" x="542" y="-243" font-family="Helvetica,sans-Serif" font-size="10.00">use_primary_signals</text>
<text text-anchor="start" x="529" y="-228" font-family="Helvetica,sans-Serif" font-size="10.00">+</text>
<text text-anchor="start" x="542" y="-228" font-family="Helvetica,sans-Serif" font-size="10.00">add_eop_component</text>
<text text-anchor="start" x="529" y="-213" font-family="Helvetica,sans-Serif" font-size="10.00">+</text>
<text text-anchor="start" x="542" y="-213" font-family="Helvetica,sans-Serif" font-size="10.00">satellite_chunking</text>
<text text-anchor="start" x="529" y="-198" font-family="Helvetica,sans-Serif" font-size="10.00">+</text>
<text text-anchor="start" x="542" y="-198" font-family="Helvetica,sans-Serif" font-size="10.00">receiver_chunking</text>
<text text-anchor="start" x="529" y="-183" font-family="Helvetica,sans-Serif" font-size="10.00">+</text>
<text text-anchor="start" x="542" y="-183" font-family="Helvetica,sans-Serif" font-size="10.00">chunk_size</text>
<text text-anchor="start" x="529" y="-168" font-family="Helvetica,sans-Serif" font-size="10.00">+</text>
<text text-anchor="start" x="542" y="-168" font-family="Helvetica,sans-Serif" font-size="10.00">nuke_enable</text>
<text text-anchor="start" x="529" y="-153" font-family="Helvetica,sans-Serif" font-size="10.00">+</text>
<text text-anchor="start" x="542" y="-153" font-family="Helvetica,sans-Serif" font-size="10.00">nuke_interval</text>
<text text-anchor="start" x="529" y="-138" font-family="Helvetica,sans-Serif" font-size="10.00">+</text>
<text text-anchor="start" x="542" y="-138" font-family="Helvetica,sans-Serif" font-size="10.00">nuke_states</text>
<text text-anchor="start" x="594.5" y="-123" font-family="Helvetica,sans-Serif" font-size="10.00"> </text>
<polygon fill="#666666" stroke="#666666" points="525,-358 525,-358 668,-358 668,-358 525,-358"/>
<polygon fill="#666666" stroke="#666666" points="525,-133 525,-133 540,-133 540,-133 525,-133"/>
<polygon fill="#666666" stroke="#666666" points="540,-133 540,-133 668,-133 668,-133 540,-133"/>
<polygon fill="none" stroke="#666666" points="524.5,-116.5 524.5,-375.5 667.5,-375.5 667.5,-116.5 524.5,-116.5"/>
</a>
</g>
</g>
<!-- Node2&#45;&gt;Node7 -->
<g id="edge5_Node000002_Node000007" class="edge">
<title>Node2&#45;&gt;Node7</title>
<g id="a_edge5_Node000002_Node000007"><a xlink:title=" ">
<path fill="none" stroke="#63b8ff" d="M491.01,-519.58C497.14,-510.51 502.93,-501.24 508,-492 527.2,-457.04 543.62,-417.07 556.9,-379.7"/>
<polygon fill="none" stroke="#63b8ff" points="488.11,-517.63 485.3,-527.84 493.87,-521.61 488.11,-517.63"/>
</a>
</g>
</g>
<!-- Node8 -->
<g id="Node000008" class="node">
<title>Node8</title>
<g id="a_Node000008"><a xlink:href="structSppOptions.html" target="_top" xlink:title=" ">
<path fill="white" stroke="#666666" d="M812.5,-312C812.5,-312 705.5,-312 705.5,-312 699.5,-312 693.5,-306 693.5,-300 693.5,-300 693.5,-192 693.5,-192 693.5,-186 699.5,-180 705.5,-180 705.5,-180 812.5,-180 812.5,-180 818.5,-180 824.5,-186 824.5,-192 824.5,-192 824.5,-300 824.5,-300 824.5,-306 818.5,-312 812.5,-312"/>
<text text-anchor="start" x="731.5" y="-296" font-family="Helvetica,sans-Serif" font-size="10.00">SppOptions</text>
<text text-anchor="start" x="706" y="-281" font-family="Helvetica,sans-Serif" font-size="10.00">+</text>
<text text-anchor="start" x="719" y="-281" font-family="Helvetica,sans-Serif" font-size="10.00">always_reinitialise</text>
<text text-anchor="start" x="706" y="-266" font-family="Helvetica,sans-Serif" font-size="10.00">+</text>
<text text-anchor="start" x="719" y="-266" font-family="Helvetica,sans-Serif" font-size="10.00">max_lsq_iterations</text>
<text text-anchor="start" x="706" y="-251" font-family="Helvetica,sans-Serif" font-size="10.00">+</text>
<text text-anchor="start" x="719" y="-251" font-family="Helvetica,sans-Serif" font-size="10.00">max_gdop</text>
<text text-anchor="start" x="706" y="-236" font-family="Helvetica,sans-Serif" font-size="10.00">+</text>
<text text-anchor="start" x="719" y="-236" font-family="Helvetica,sans-Serif" font-size="10.00">sigma_scaling</text>
<text text-anchor="start" x="706" y="-221" font-family="Helvetica,sans-Serif" font-size="10.00">+</text>
<text text-anchor="start" x="719" y="-221" font-family="Helvetica,sans-Serif" font-size="10.00">raim</text>
<text text-anchor="start" x="706" y="-206" font-family="Helvetica,sans-Serif" font-size="10.00">+</text>
<text text-anchor="start" x="719" y="-206" font-family="Helvetica,sans-Serif" font-size="10.00">iono_mode</text>
<text text-anchor="start" x="757.5" y="-191" font-family="Helvetica,sans-Serif" font-size="10.00"> </text>
<polygon fill="#666666" stroke="#666666" points="702,-291 702,-291 817,-291 817,-291 702,-291"/>
<polygon fill="#666666" stroke="#666666" points="702,-201 702,-201 717,-201 717,-201 702,-201"/>
<polygon fill="#666666" stroke="#666666" points="717,-201 717,-201 817,-201 817,-201 717,-201"/>
<polygon fill="none" stroke="#666666" points="701.5,-184 701.5,-308 816.5,-308 816.5,-184 701.5,-184"/>
</a>
</g>
</g>
<!-- Node2&#45;&gt;Node8 -->
<g id="edge6_Node000002_Node000008" class="edge">
<title>Node2&#45;&gt;Node8</title>
<g id="a_edge6_Node000002_Node000008"><a xlink:title=" ">
<path fill="none" stroke="#63b8ff" d="M495.35,-592.95C555.1,-577.44 635.67,-547.44 685,-492 729.45,-442.04 747.21,-366.15 754.3,-312.08"/>
<polygon fill="none" stroke="#63b8ff" points="494.42,-589.58 485.57,-595.41 496.12,-596.36 494.42,-589.58"/>
</a>
</g>
</g>
</g>
</svg>
