<?xml version="1.0" encoding="UTF-8" standalone="no"?>
<!DOCTYPE svg PUBLIC "-//W3C//DTD SVG 1.1//EN"
 "http://www.w3.org/Graphics/SVG/1.1/DTD/svg11.dtd">
<!-- Generated by graphviz version 2.43.0 (0)
 -->
<!-- Title: OutputOptions Pages: 1 -->
<svg width="510pt" height="2291pt"
 viewBox="0.00 0.00 509.50 2291.00" xmlns="http://www.w3.org/2000/svg" xmlns:xlink="http://www.w3.org/1999/xlink">
<g id="graph0" class="graph" transform="scale(1 1) rotate(0) translate(4 2287)">
<title>OutputOptions</title>
<!-- Node1 -->
<g id="Node000001" class="node">
<title>Node1</title>
<g id="a_Node000001"><a xlink:href="structOutputOptions.html" target="_top" xlink:title="Enabling and setting destiations of program outputs.">
<path fill="white" stroke="#666666" stroke-width="2" d="M320.5,-1875C320.5,-1875 155.5,-1875 155.5,-1875 149.5,-1875 143.5,-1869 143.5,-1863 143.5,-1863 143.5,-12 143.5,-12 143.5,-6 149.5,0 155.5,0 155.5,0 320.5,0 320.5,0 326.5,0 332.5,-6 332.5,-12 332.5,-12 332.5,-1863 332.5,-1863 332.5,-1869 326.5,-1875 320.5,-1875"/>
<text text-anchor="start" x="203" y="-1858.5" font-family="Helvetica,sans-Serif" font-size="10.00">OutputOptions</text>
<text text-anchor="start" x="156" y="-1843.5" font-family="Helvetica,sans-Serif" font-size="10.00">+</text>
<text text-anchor="start" x="169" y="-1843.5" font-family="Helvetica,sans-Serif" font-size="10.00">outputs_root</text>
<text text-anchor="start" x="156" y="-1828.5" font-family="Helvetica,sans-Serif" font-size="10.00">+</text>
<text text-anchor="start" x="169" y="-1828.5" font-family="Helvetica,sans-Serif" font-size="10.00">fatal_level</text>
<text text-anchor="start" x="156" y="-1813.5" font-family="Helvetica,sans-Serif" font-size="10.00">+</text>
<text text-anchor="start" x="169" y="-1813.5" font-family="Helvetica,sans-Serif" font-size="10.00">rotate_period</text>
<text text-anchor="start" x="156" y="-1798.5" font-family="Helvetica,sans-Serif" font-size="10.00">+</text>
<text text-anchor="start" x="169" y="-1798.5" font-family="Helvetica,sans-Serif" font-size="10.00">trace_level</text>
<text text-anchor="start" x="156" y="-1783.5" font-family="Helvetica,sans-Serif" font-size="10.00">+</text>
<text text-anchor="start" x="169" y="-1783.5" font-family="Helvetica,sans-Serif" font-size="10.00">output_receiver_trace</text>
<text text-anchor="start" x="156" y="-1768.5" font-family="Helvetica,sans-Serif" font-size="10.00">+</text>
<text text-anchor="start" x="169" y="-1768.5" font-family="Helvetica,sans-Serif" font-size="10.00">output_network_trace</text>
<text text-anchor="start" x="156" y="-1753.5" font-family="Helvetica,sans-Serif" font-size="10.00">+</text>
<text text-anchor="start" x="169" y="-1753.5" font-family="Helvetica,sans-Serif" font-size="10.00">output_ionosphere_trace</text>
<text text-anchor="start" x="156" y="-1738.5" font-family="Helvetica,sans-Serif" font-size="10.00">+</text>
<text text-anchor="start" x="169" y="-1738.5" font-family="Helvetica,sans-Serif" font-size="10.00">output_satellite_trace</text>
<text text-anchor="start" x="156" y="-1723.5" font-family="Helvetica,sans-Serif" font-size="10.00">+</text>
<text text-anchor="start" x="169" y="-1723.5" font-family="Helvetica,sans-Serif" font-size="10.00">output_json_trace</text>
<text text-anchor="start" x="156" y="-1708.5" font-family="Helvetica,sans-Serif" font-size="10.00">+</text>
<text text-anchor="start" x="169" y="-1708.5" font-family="Helvetica,sans-Serif" font-size="10.00">trace_directory</text>
<text text-anchor="start" x="156" y="-1693.5" font-family="Helvetica,sans-Serif" font-size="10.00">+</text>
<text text-anchor="start" x="169" y="-1693.5" font-family="Helvetica,sans-Serif" font-size="10.00">receiver_trace_filename</text>
<text text-anchor="start" x="156" y="-1678.5" font-family="Helvetica,sans-Serif" font-size="10.00">+</text>
<text text-anchor="start" x="169" y="-1678.5" font-family="Helvetica,sans-Serif" font-size="10.00">receiver_json_filename</text>
<text text-anchor="start" x="156" y="-1663.5" font-family="Helvetica,sans-Serif" font-size="10.00">+</text>
<text text-anchor="start" x="169" y="-1663.5" font-family="Helvetica,sans-Serif" font-size="10.00">network_trace_filename</text>
<text text-anchor="start" x="156" y="-1648.5" font-family="Helvetica,sans-Serif" font-size="10.00">+</text>
<text text-anchor="start" x="169" y="-1648.5" font-family="Helvetica,sans-Serif" font-size="10.00">ionosphere_trace_filename</text>
<text text-anchor="start" x="156" y="-1633.5" font-family="Helvetica,sans-Serif" font-size="10.00">+</text>
<text text-anchor="start" x="169" y="-1633.5" font-family="Helvetica,sans-Serif" font-size="10.00">satellite_trace_filename</text>
<text text-anchor="start" x="156" y="-1618.5" font-family="Helvetica,sans-Serif" font-size="10.00">+</text>
<text text-anchor="start" x="169" y="-1618.5" font-family="Helvetica,sans-Serif" font-size="10.00">record_raw_ubx</text>
<text text-anchor="start" x="156" y="-1603.5" font-family="Helvetica,sans-Serif" font-size="10.00">+</text>
<text text-anchor="start" x="169" y="-1603.5" font-family="Helvetica,sans-Serif" font-size="10.00">raw_ubx_directory</text>
<text text-anchor="start" x="156" y="-1588.5" font-family="Helvetica,sans-Serif" font-size="10.00">+</text>
<text text-anchor="start" x="169" y="-1588.5" font-family="Helvetica,sans-Serif" font-size="10.00">raw_ubx_filename</text>
<text text-anchor="start" x="156" y="-1573.5" font-family="Helvetica,sans-Serif" font-size="10.00">+</text>
<text text-anchor="start" x="169" y="-1573.5" font-family="Helvetica,sans-Serif" font-size="10.00">record_raw_custom</text>
<text text-anchor="start" x="156" y="-1558.5" font-family="Helvetica,sans-Serif" font-size="10.00">+</text>
<text text-anchor="start" x="169" y="-1558.5" font-family="Helvetica,sans-Serif" font-size="10.00">raw_custom_directory</text>
<text text-anchor="start" x="156" y="-1543.5" font-family="Helvetica,sans-Serif" font-size="10.00">+</text>
<text text-anchor="start" x="169" y="-1543.5" font-family="Helvetica,sans-Serif" font-size="10.00">raw_custom_filename</text>
<text text-anchor="start" x="156" y="-1528.5" font-family="Helvetica,sans-Serif" font-size="10.00">+</text>
<text text-anchor="start" x="169" y="-1528.5" font-family="Helvetica,sans-Serif" font-size="10.00">record_rtcm_obs</text>
<text text-anchor="start" x="156" y="-1513.5" font-family="Helvetica,sans-Serif" font-size="10.00">+</text>
<text text-anchor="start" x="169" y="-1513.5" font-family="Helvetica,sans-Serif" font-size="10.00">record_rtcm_nav</text>
<text text-anchor="start" x="156" y="-1498.5" font-family="Helvetica,sans-Serif" font-size="10.00">+</text>
<text text-anchor="start" x="169" y="-1498.5" font-family="Helvetica,sans-Serif" font-size="10.00">rtcm_obs_directory</text>
<text text-anchor="start" x="156" y="-1483.5" font-family="Helvetica,sans-Serif" font-size="10.00">+</text>
<text text-anchor="start" x="169" y="-1483.5" font-family="Helvetica,sans-Serif" font-size="10.00">rtcm_nav_directory</text>
<text text-anchor="start" x="156" y="-1468.5" font-family="Helvetica,sans-Serif" font-size="10.00">+</text>
<text text-anchor="start" x="169" y="-1468.5" font-family="Helvetica,sans-Serif" font-size="10.00">rtcm_obs_filename</text>
<text text-anchor="start" x="156" y="-1453.5" font-family="Helvetica,sans-Serif" font-size="10.00">+</text>
<text text-anchor="start" x="169" y="-1453.5" font-family="Helvetica,sans-Serif" font-size="10.00">rtcm_nav_filename</text>
<text text-anchor="start" x="156" y="-1438.5" font-family="Helvetica,sans-Serif" font-size="10.00">+</text>
<text text-anchor="start" x="169" y="-1438.5" font-family="Helvetica,sans-Serif" font-size="10.00">output_log</text>
<text text-anchor="start" x="156" y="-1423.5" font-family="Helvetica,sans-Serif" font-size="10.00">+</text>
<text text-anchor="start" x="169" y="-1423.5" font-family="Helvetica,sans-Serif" font-size="10.00">log_json</text>
<text text-anchor="start" x="156" y="-1408.5" font-family="Helvetica,sans-Serif" font-size="10.00">+</text>
<text text-anchor="start" x="169" y="-1408.5" font-family="Helvetica,sans-Serif" font-size="10.00">log_directory</text>
<text text-anchor="start" x="156" y="-1393.5" font-family="Helvetica,sans-Serif" font-size="10.00">+</text>
<text text-anchor="start" x="169" y="-1393.5" font-family="Helvetica,sans-Serif" font-size="10.00">log_filename</text>
<text text-anchor="start" x="156" y="-1378.5" font-family="Helvetica,sans-Serif" font-size="10.00">+</text>
<text text-anchor="start" x="169" y="-1378.5" font-family="Helvetica,sans-Serif" font-size="10.00">output_ntrip_log</text>
<text text-anchor="start" x="156" y="-1363.5" font-family="Helvetica,sans-Serif" font-size="10.00">+</text>
<text text-anchor="start" x="169" y="-1363.5" font-family="Helvetica,sans-Serif" font-size="10.00">ntrip_log_directory</text>
<text text-anchor="start" x="156" y="-1348.5" font-family="Helvetica,sans-Serif" font-size="10.00">+</text>
<text text-anchor="start" x="169" y="-1348.5" font-family="Helvetica,sans-Serif" font-size="10.00">ntrip_log_filename</text>
<text text-anchor="start" x="156" y="-1333.5" font-family="Helvetica,sans-Serif" font-size="10.00">+</text>
<text text-anchor="start" x="169" y="-1333.5" font-family="Helvetica,sans-Serif" font-size="10.00">output_gpx</text>
<text text-anchor="start" x="156" y="-1318.5" font-family="Helvetica,sans-Serif" font-size="10.00">+</text>
<text text-anchor="start" x="169" y="-1318.5" font-family="Helvetica,sans-Serif" font-size="10.00">gpx_directory</text>
<text text-anchor="start" x="156" y="-1303.5" font-family="Helvetica,sans-Serif" font-size="10.00">+</text>
<text text-anchor="start" x="169" y="-1303.5" font-family="Helvetica,sans-Serif" font-size="10.00">gpx_filename</text>
<text text-anchor="start" x="156" y="-1288.5" font-family="Helvetica,sans-Serif" font-size="10.00">+</text>
<text text-anchor="start" x="169" y="-1288.5" font-family="Helvetica,sans-Serif" font-size="10.00">output_pos</text>
<text text-anchor="start" x="156" y="-1273.5" font-family="Helvetica,sans-Serif" font-size="10.00">+</text>
<text text-anchor="start" x="169" y="-1273.5" font-family="Helvetica,sans-Serif" font-size="10.00">pos_directory</text>
<text text-anchor="start" x="156" y="-1258.5" font-family="Helvetica,sans-Serif" font-size="10.00">+</text>
<text text-anchor="start" x="169" y="-1258.5" font-family="Helvetica,sans-Serif" font-size="10.00">pos_filename</text>
<text text-anchor="start" x="156" y="-1243.5" font-family="Helvetica,sans-Serif" font-size="10.00">+</text>
<text text-anchor="start" x="169" y="-1243.5" font-family="Helvetica,sans-Serif" font-size="10.00">root_stream_url</text>
<text text-anchor="start" x="156" y="-1228.5" font-family="Helvetica,sans-Serif" font-size="10.00">+</text>
<text text-anchor="start" x="169" y="-1228.5" font-family="Helvetica,sans-Serif" font-size="10.00">output_predicted_states</text>
<text text-anchor="start" x="156" y="-1213.5" font-family="Helvetica,sans-Serif" font-size="10.00">+</text>
<text text-anchor="start" x="169" y="-1213.5" font-family="Helvetica,sans-Serif" font-size="10.00">output_initialised</text>
<text text-anchor="start" x="169" y="-1202.5" font-family="Helvetica,sans-Serif" font-size="10.00">_states</text>
<text text-anchor="start" x="156" y="-1187.5" font-family="Helvetica,sans-Serif" font-size="10.00">+</text>
<text text-anchor="start" x="169" y="-1187.5" font-family="Helvetica,sans-Serif" font-size="10.00">output_residuals</text>
<text text-anchor="start" x="156" y="-1172.5" font-family="Helvetica,sans-Serif" font-size="10.00">+</text>
<text text-anchor="start" x="169" y="-1172.5" font-family="Helvetica,sans-Serif" font-size="10.00">output_residual_chain</text>
<text text-anchor="start" x="156" y="-1157.5" font-family="Helvetica,sans-Serif" font-size="10.00">+</text>
<text text-anchor="start" x="169" y="-1157.5" font-family="Helvetica,sans-Serif" font-size="10.00">output_statistics</text>
<text text-anchor="start" x="156" y="-1142.5" font-family="Helvetica,sans-Serif" font-size="10.00">+</text>
<text text-anchor="start" x="169" y="-1142.5" font-family="Helvetica,sans-Serif" font-size="10.00">output_summaries</text>
<text text-anchor="start" x="156" y="-1127.5" font-family="Helvetica,sans-Serif" font-size="10.00">+</text>
<text text-anchor="start" x="169" y="-1127.5" font-family="Helvetica,sans-Serif" font-size="10.00">output_config</text>
<text text-anchor="start" x="156" y="-1112.5" font-family="Helvetica,sans-Serif" font-size="10.00">+</text>
<text text-anchor="start" x="169" y="-1112.5" font-family="Helvetica,sans-Serif" font-size="10.00">colourise_terminal</text>
<text text-anchor="start" x="156" y="-1097.5" font-family="Helvetica,sans-Serif" font-size="10.00">+</text>
<text text-anchor="start" x="169" y="-1097.5" font-family="Helvetica,sans-Serif" font-size="10.00">warn_once</text>
<text text-anchor="start" x="156" y="-1082.5" font-family="Helvetica,sans-Serif" font-size="10.00">+</text>
<text text-anchor="start" x="169" y="-1082.5" font-family="Helvetica,sans-Serif" font-size="10.00">output_clocks</text>
<text text-anchor="start" x="156" y="-1067.5" font-family="Helvetica,sans-Serif" font-size="10.00">+</text>
<text text-anchor="start" x="169" y="-1067.5" font-family="Helvetica,sans-Serif" font-size="10.00">clocks_output_interval</text>
<text text-anchor="start" x="156" y="-1052.5" font-family="Helvetica,sans-Serif" font-size="10.00">+</text>
<text text-anchor="start" x="169" y="-1052.5" font-family="Helvetica,sans-Serif" font-size="10.00">output_sp3</text>
<text text-anchor="start" x="156" y="-1037.5" font-family="Helvetica,sans-Serif" font-size="10.00">+</text>
<text text-anchor="start" x="169" y="-1037.5" font-family="Helvetica,sans-Serif" font-size="10.00">output_inertial_orbits</text>
<text text-anchor="start" x="156" y="-1022.5" font-family="Helvetica,sans-Serif" font-size="10.00">+</text>
<text text-anchor="start" x="169" y="-1022.5" font-family="Helvetica,sans-Serif" font-size="10.00">output_sp3_velocities</text>
<text text-anchor="start" x="156" y="-1007.5" font-family="Helvetica,sans-Serif" font-size="10.00">+</text>
<text text-anchor="start" x="169" y="-1007.5" font-family="Helvetica,sans-Serif" font-size="10.00">sp3_output_interval</text>
<text text-anchor="start" x="156" y="-992.5" font-family="Helvetica,sans-Serif" font-size="10.00">+</text>
<text text-anchor="start" x="169" y="-992.5" font-family="Helvetica,sans-Serif" font-size="10.00">sp3_directory</text>
<text text-anchor="start" x="156" y="-977.5" font-family="Helvetica,sans-Serif" font-size="10.00">+</text>
<text text-anchor="start" x="169" y="-977.5" font-family="Helvetica,sans-Serif" font-size="10.00">sp3_filename</text>
<text text-anchor="start" x="156" y="-962.5" font-family="Helvetica,sans-Serif" font-size="10.00">+</text>
<text text-anchor="start" x="169" y="-962.5" font-family="Helvetica,sans-Serif" font-size="10.00">predicted_sp3_filename</text>
<text text-anchor="start" x="156" y="-947.5" font-family="Helvetica,sans-Serif" font-size="10.00">+</text>
<text text-anchor="start" x="169" y="-947.5" font-family="Helvetica,sans-Serif" font-size="10.00">output_orbex</text>
<text text-anchor="start" x="156" y="-932.5" font-family="Helvetica,sans-Serif" font-size="10.00">+</text>
<text text-anchor="start" x="169" y="-932.5" font-family="Helvetica,sans-Serif" font-size="10.00">orbex_output_interval</text>
<text text-anchor="start" x="156" y="-917.5" font-family="Helvetica,sans-Serif" font-size="10.00">+</text>
<text text-anchor="start" x="169" y="-917.5" font-family="Helvetica,sans-Serif" font-size="10.00">orbex_directory</text>
<text text-anchor="start" x="156" y="-902.5" font-family="Helvetica,sans-Serif" font-size="10.00">+</text>
<text text-anchor="start" x="169" y="-902.5" font-family="Helvetica,sans-Serif" font-size="10.00">orbex_filename</text>
<text text-anchor="start" x="156" y="-887.5" font-family="Helvetica,sans-Serif" font-size="10.00">+</text>
<text text-anchor="start" x="169" y="-887.5" font-family="Helvetica,sans-Serif" font-size="10.00">split_sys</text>
<text text-anchor="start" x="156" y="-872.5" font-family="Helvetica,sans-Serif" font-size="10.00">+</text>
<text text-anchor="start" x="169" y="-872.5" font-family="Helvetica,sans-Serif" font-size="10.00">output_rinex_obs</text>
<text text-anchor="start" x="156" y="-857.5" font-family="Helvetica,sans-Serif" font-size="10.00">+</text>
<text text-anchor="start" x="169" y="-857.5" font-family="Helvetica,sans-Serif" font-size="10.00">rinex_obs_directory</text>
<text text-anchor="start" x="156" y="-842.5" font-family="Helvetica,sans-Serif" font-size="10.00">+</text>
<text text-anchor="start" x="169" y="-842.5" font-family="Helvetica,sans-Serif" font-size="10.00">rinex_obs_filename</text>
<text text-anchor="start" x="156" y="-827.5" font-family="Helvetica,sans-Serif" font-size="10.00">+</text>
<text text-anchor="start" x="169" y="-827.5" font-family="Helvetica,sans-Serif" font-size="10.00">rinex_obs_version</text>
<text text-anchor="start" x="156" y="-812.5" font-family="Helvetica,sans-Serif" font-size="10.00">+</text>
<text text-anchor="start" x="169" y="-812.5" font-family="Helvetica,sans-Serif" font-size="10.00">rinex_obs_print_C_code</text>
<text text-anchor="start" x="156" y="-797.5" font-family="Helvetica,sans-Serif" font-size="10.00">+</text>
<text text-anchor="start" x="169" y="-797.5" font-family="Helvetica,sans-Serif" font-size="10.00">rinex_obs_print_L_code</text>
<text text-anchor="start" x="156" y="-782.5" font-family="Helvetica,sans-Serif" font-size="10.00">+</text>
<text text-anchor="start" x="169" y="-782.5" font-family="Helvetica,sans-Serif" font-size="10.00">rinex_obs_print_D_code</text>
<text text-anchor="start" x="156" y="-767.5" font-family="Helvetica,sans-Serif" font-size="10.00">+</text>
<text text-anchor="start" x="169" y="-767.5" font-family="Helvetica,sans-Serif" font-size="10.00">rinex_obs_print_S_code</text>
<text text-anchor="start" x="156" y="-752.5" font-family="Helvetica,sans-Serif" font-size="10.00">+</text>
<text text-anchor="start" x="169" y="-752.5" font-family="Helvetica,sans-Serif" font-size="10.00">output_ionex</text>
<text text-anchor="start" x="156" y="-737.5" font-family="Helvetica,sans-Serif" font-size="10.00">+</text>
<text text-anchor="start" x="169" y="-737.5" font-family="Helvetica,sans-Serif" font-size="10.00">ionex_directory</text>
<text text-anchor="start" x="156" y="-722.5" font-family="Helvetica,sans-Serif" font-size="10.00">+</text>
<text text-anchor="start" x="169" y="-722.5" font-family="Helvetica,sans-Serif" font-size="10.00">ionex_filename</text>
<text text-anchor="start" x="156" y="-707.5" font-family="Helvetica,sans-Serif" font-size="10.00">+</text>
<text text-anchor="start" x="169" y="-707.5" font-family="Helvetica,sans-Serif" font-size="10.00">output_rinex_nav</text>
<text text-anchor="start" x="156" y="-692.5" font-family="Helvetica,sans-Serif" font-size="10.00">+</text>
<text text-anchor="start" x="169" y="-692.5" font-family="Helvetica,sans-Serif" font-size="10.00">rinex_nav_directory</text>
<text text-anchor="start" x="156" y="-677.5" font-family="Helvetica,sans-Serif" font-size="10.00">+</text>
<text text-anchor="start" x="169" y="-677.5" font-family="Helvetica,sans-Serif" font-size="10.00">rinex_nav_filename</text>
<text text-anchor="start" x="156" y="-662.5" font-family="Helvetica,sans-Serif" font-size="10.00">+</text>
<text text-anchor="start" x="169" y="-662.5" font-family="Helvetica,sans-Serif" font-size="10.00">rinex_nav_version</text>
<text text-anchor="start" x="156" y="-647.5" font-family="Helvetica,sans-Serif" font-size="10.00">+</text>
<text text-anchor="start" x="169" y="-647.5" font-family="Helvetica,sans-Serif" font-size="10.00">output_ionstec</text>
<text text-anchor="start" x="156" y="-632.5" font-family="Helvetica,sans-Serif" font-size="10.00">+</text>
<text text-anchor="start" x="169" y="-632.5" font-family="Helvetica,sans-Serif" font-size="10.00">ionstec_directory</text>
<text text-anchor="start" x="156" y="-617.5" font-family="Helvetica,sans-Serif" font-size="10.00">+</text>
<text text-anchor="start" x="169" y="-617.5" font-family="Helvetica,sans-Serif" font-size="10.00">ionstec_filename</text>
<text text-anchor="start" x="156" y="-602.5" font-family="Helvetica,sans-Serif" font-size="10.00">+</text>
<text text-anchor="start" x="169" y="-602.5" font-family="Helvetica,sans-Serif" font-size="10.00">output_erp</text>
<text text-anchor="start" x="156" y="-587.5" font-family="Helvetica,sans-Serif" font-size="10.00">+</text>
<text text-anchor="start" x="169" y="-587.5" font-family="Helvetica,sans-Serif" font-size="10.00">erp_directory</text>
<text text-anchor="start" x="156" y="-572.5" font-family="Helvetica,sans-Serif" font-size="10.00">+</text>
<text text-anchor="start" x="169" y="-572.5" font-family="Helvetica,sans-Serif" font-size="10.00">erp_filename</text>
<text text-anchor="start" x="156" y="-557.5" font-family="Helvetica,sans-Serif" font-size="10.00">+</text>
<text text-anchor="start" x="169" y="-557.5" font-family="Helvetica,sans-Serif" font-size="10.00">output_bias_sinex</text>
<text text-anchor="start" x="156" y="-542.5" font-family="Helvetica,sans-Serif" font-size="10.00">+</text>
<text text-anchor="start" x="169" y="-542.5" font-family="Helvetica,sans-Serif" font-size="10.00">output_sinex</text>
<text text-anchor="start" x="156" y="-527.5" font-family="Helvetica,sans-Serif" font-size="10.00">+</text>
<text text-anchor="start" x="169" y="-527.5" font-family="Helvetica,sans-Serif" font-size="10.00">sinex_directory</text>
<text text-anchor="start" x="156" y="-512.5" font-family="Helvetica,sans-Serif" font-size="10.00">+</text>
<text text-anchor="start" x="169" y="-512.5" font-family="Helvetica,sans-Serif" font-size="10.00">sinex_filename</text>
<text text-anchor="start" x="156" y="-497.5" font-family="Helvetica,sans-Serif" font-size="10.00">+</text>
<text text-anchor="start" x="169" y="-497.5" font-family="Helvetica,sans-Serif" font-size="10.00">output_trop_sinex</text>
<text text-anchor="start" x="156" y="-482.5" font-family="Helvetica,sans-Serif" font-size="10.00">+</text>
<text text-anchor="start" x="169" y="-482.5" font-family="Helvetica,sans-Serif" font-size="10.00">trop_sinex_directory</text>
<text text-anchor="start" x="156" y="-467.5" font-family="Helvetica,sans-Serif" font-size="10.00">+</text>
<text text-anchor="start" x="169" y="-467.5" font-family="Helvetica,sans-Serif" font-size="10.00">trop_sinex_filename</text>
<text text-anchor="start" x="156" y="-452.5" font-family="Helvetica,sans-Serif" font-size="10.00">+</text>
<text text-anchor="start" x="169" y="-452.5" font-family="Helvetica,sans-Serif" font-size="10.00">trop_sinex_sol_type</text>
<text text-anchor="start" x="156" y="-437.5" font-family="Helvetica,sans-Serif" font-size="10.00">+</text>
<text text-anchor="start" x="169" y="-437.5" font-family="Helvetica,sans-Serif" font-size="10.00">trop_sinex_obs_code</text>
<text text-anchor="start" x="156" y="-422.5" font-family="Helvetica,sans-Serif" font-size="10.00">+</text>
<text text-anchor="start" x="169" y="-422.5" font-family="Helvetica,sans-Serif" font-size="10.00">trop_sinex_const_code</text>
<text text-anchor="start" x="156" y="-407.5" font-family="Helvetica,sans-Serif" font-size="10.00">+</text>
<text text-anchor="start" x="169" y="-407.5" font-family="Helvetica,sans-Serif" font-size="10.00">trop_sinex_version</text>
<text text-anchor="start" x="156" y="-392.5" font-family="Helvetica,sans-Serif" font-size="10.00">+</text>
<text text-anchor="start" x="169" y="-392.5" font-family="Helvetica,sans-Serif" font-size="10.00">output_cost</text>
<text text-anchor="start" x="156" y="-377.5" font-family="Helvetica,sans-Serif" font-size="10.00">+</text>
<text text-anchor="start" x="169" y="-377.5" font-family="Helvetica,sans-Serif" font-size="10.00">cost_time_interval</text>
<text text-anchor="start" x="156" y="-362.5" font-family="Helvetica,sans-Serif" font-size="10.00">+</text>
<text text-anchor="start" x="169" y="-362.5" font-family="Helvetica,sans-Serif" font-size="10.00">cost_project</text>
<text text-anchor="start" x="156" y="-347.5" font-family="Helvetica,sans-Serif" font-size="10.00">+</text>
<text text-anchor="start" x="169" y="-347.5" font-family="Helvetica,sans-Serif" font-size="10.00">cost_status</text>
<text text-anchor="start" x="156" y="-332.5" font-family="Helvetica,sans-Serif" font-size="10.00">+</text>
<text text-anchor="start" x="169" y="-332.5" font-family="Helvetica,sans-Serif" font-size="10.00">cost_method</text>
<text text-anchor="start" x="156" y="-317.5" font-family="Helvetica,sans-Serif" font-size="10.00">+</text>
<text text-anchor="start" x="169" y="-317.5" font-family="Helvetica,sans-Serif" font-size="10.00">cost_orbit_type</text>
<text text-anchor="start" x="156" y="-302.5" font-family="Helvetica,sans-Serif" font-size="10.00">+</text>
<text text-anchor="start" x="169" y="-302.5" font-family="Helvetica,sans-Serif" font-size="10.00">output_slr_obs</text>
<text text-anchor="start" x="156" y="-287.5" font-family="Helvetica,sans-Serif" font-size="10.00">+</text>
<text text-anchor="start" x="169" y="-287.5" font-family="Helvetica,sans-Serif" font-size="10.00">slr_obs_directory</text>
<text text-anchor="start" x="156" y="-272.5" font-family="Helvetica,sans-Serif" font-size="10.00">+</text>
<text text-anchor="start" x="169" y="-272.5" font-family="Helvetica,sans-Serif" font-size="10.00">slr_obs_filename</text>
<text text-anchor="start" x="156" y="-257.5" font-family="Helvetica,sans-Serif" font-size="10.00">+</text>
<text text-anchor="start" x="169" y="-257.5" font-family="Helvetica,sans-Serif" font-size="10.00">output_orbit_ics</text>
<text text-anchor="start" x="156" y="-242.5" font-family="Helvetica,sans-Serif" font-size="10.00">+</text>
<text text-anchor="start" x="169" y="-242.5" font-family="Helvetica,sans-Serif" font-size="10.00">orbit_ics_directory</text>
<text text-anchor="start" x="156" y="-227.5" font-family="Helvetica,sans-Serif" font-size="10.00">+</text>
<text text-anchor="start" x="169" y="-227.5" font-family="Helvetica,sans-Serif" font-size="10.00">orbit_ics_filename</text>
<text text-anchor="start" x="156" y="-212.5" font-family="Helvetica,sans-Serif" font-size="10.00">+</text>
<text text-anchor="start" x="169" y="-212.5" font-family="Helvetica,sans-Serif" font-size="10.00">output_sbas_ems</text>
<text text-anchor="start" x="156" y="-197.5" font-family="Helvetica,sans-Serif" font-size="10.00">+</text>
<text text-anchor="start" x="169" y="-197.5" font-family="Helvetica,sans-Serif" font-size="10.00">ems_directory</text>
<text text-anchor="start" x="156" y="-182.5" font-family="Helvetica,sans-Serif" font-size="10.00">+</text>
<text text-anchor="start" x="169" y="-182.5" font-family="Helvetica,sans-Serif" font-size="10.00">ems_filename</text>
<text text-anchor="start" x="156" y="-167.5" font-family="Helvetica,sans-Serif" font-size="10.00">+</text>
<text text-anchor="start" x="169" y="-167.5" font-family="Helvetica,sans-Serif" font-size="10.00">output_decoded_rtcm_json</text>
<text text-anchor="start" x="156" y="-152.5" font-family="Helvetica,sans-Serif" font-size="10.00">+</text>
<text text-anchor="start" x="169" y="-152.5" font-family="Helvetica,sans-Serif" font-size="10.00">decoded_rtcm_json_directory</text>
<text text-anchor="start" x="156" y="-137.5" font-family="Helvetica,sans-Serif" font-size="10.00">+</text>
<text text-anchor="start" x="169" y="-137.5" font-family="Helvetica,sans-Serif" font-size="10.00">decoded_rtcm_json_filename</text>
<text text-anchor="start" x="156" y="-122.5" font-family="Helvetica,sans-Serif" font-size="10.00">+</text>
<text text-anchor="start" x="169" y="-122.5" font-family="Helvetica,sans-Serif" font-size="10.00">output_encoded_rtcm_json</text>
<text text-anchor="start" x="156" y="-107.5" font-family="Helvetica,sans-Serif" font-size="10.00">+</text>
<text text-anchor="start" x="169" y="-107.5" font-family="Helvetica,sans-Serif" font-size="10.00">encoded_rtcm_json_directory</text>
<text text-anchor="start" x="156" y="-92.5" font-family="Helvetica,sans-Serif" font-size="10.00">+</text>
<text text-anchor="start" x="169" y="-92.5" font-family="Helvetica,sans-Serif" font-size="10.00">encoded_rtcm_json_filename</text>
<text text-anchor="start" x="156" y="-77.5" font-family="Helvetica,sans-Serif" font-size="10.00">+</text>
<text text-anchor="start" x="169" y="-77.5" font-family="Helvetica,sans-Serif" font-size="10.00">output_network_statistics_json</text>
<text text-anchor="start" x="156" y="-62.5" font-family="Helvetica,sans-Serif" font-size="10.00">+</text>
<text text-anchor="start" x="169" y="-62.5" font-family="Helvetica,sans-Serif" font-size="10.00">network_statistics</text>
<text text-anchor="start" x="169" y="-51.5" font-family="Helvetica,sans-Serif" font-size="10.00">_json_directory</text>
<text text-anchor="start" x="156" y="-36.5" font-family="Helvetica,sans-Serif" font-size="10.00">+</text>
<text text-anchor="start" x="169" y="-36.5" font-family="Helvetica,sans-Serif" font-size="10.00">network_statistics</text>
<text text-anchor="start" x="169" y="-25.5" font-family="Helvetica,sans-Serif" font-size="10.00">_json_filename</text>
<text text-anchor="start" x="156" y="-10.5" font-family="Helvetica,sans-Serif" font-size="10.00">+</text>
<text text-anchor="start" x="169" y="-10.5" font-family="Helvetica,sans-Serif" font-size="10.00">defaultOutputOptions()</text>
<polygon fill="#666666" stroke="#666666" points="152,-1853.5 152,-1853.5 325,-1853.5 325,-1853.5 152,-1853.5"/>
<polygon fill="#666666" stroke="#666666" points="152,-20.5 152,-20.5 167,-20.5 167,-20.5 152,-20.5"/>
<polygon fill="#666666" stroke="#666666" points="167,-20.5 167,-20.5 325,-20.5 325,-20.5 167,-20.5"/>
<polygon fill="none" stroke="#666666" points="151.5,-4 151.5,-1871 324.5,-1871 324.5,-4 151.5,-4"/>
</a>
</g>
</g>
<!-- Node2 -->
<g id="Node000002" class="node">
<title>Node2</title>
<g id="a_Node000002"><a xlink:title=" ">
<path fill="white" stroke="#666666" d="M42,-2134C42,-2134 12,-2134 12,-2134 6,-2134 0,-2128 0,-2122 0,-2122 0,-2089 0,-2089 0,-2083 6,-2077 12,-2077 12,-2077 42,-2077 42,-2077 48,-2077 54,-2083 54,-2089 54,-2089 54,-2122 54,-2122 54,-2128 48,-2134 42,-2134"/>
<text text-anchor="start" x="13" y="-2117.5" font-family="Helvetica,sans-Serif" font-size="10.00">string</text>
<text text-anchor="start" x="25" y="-2102.5" font-family="Helvetica,sans-Serif" font-size="10.00"> </text>
<text text-anchor="start" x="25" y="-2087.5" font-family="Helvetica,sans-Serif" font-size="10.00"> </text>
<polygon fill="#666666" stroke="#666666" points="8,-2112.5 8,-2112.5 46,-2112.5 46,-2112.5 8,-2112.5"/>
<polygon fill="#666666" stroke="#666666" points="8,-2097.5 8,-2097.5 46,-2097.5 46,-2097.5 8,-2097.5"/>
<polygon fill="none" stroke="#666666" points="8,-2081 8,-2130 46,-2130 46,-2081 8,-2081"/>
</a>
</g>
</g>
<!-- Node2&#45;&gt;Node1 -->
<g id="edge1_Node000001_Node000002" class="edge">
<title>Node2&#45;&gt;Node1</title>
<g id="a_edge1_Node000001_Node000002"><a xlink:title=" ">
<path fill="none" stroke="#63b8ff" d="M28.35,-2076.67C30.55,-2036.12 35.62,-1958.48 45,-1893 69.91,-1719.04 106.4,-1528.99 140.98,-1364.59"/>
<polygon fill="none" stroke="#63b8ff" points="140.99,-1364.54 138.31,-1357.85 143.46,-1352.8 146.14,-1359.5 140.99,-1364.54"/>
</a>
</g>
<text text-anchor="middle" x="101" y="-2006" font-family="Helvetica,sans-Serif" font-size="10.00" fill="grey"> +bias_sinex_directory</text>
<text text-anchor="middle" x="101" y="-1995" font-family="Helvetica,sans-Serif" font-size="10.00" fill="grey">+bias_sinex_filename</text>
<text text-anchor="middle" x="101" y="-1984" font-family="Helvetica,sans-Serif" font-size="10.00" fill="grey">+bias_time_system</text>
<text text-anchor="middle" x="101" y="-1973" font-family="Helvetica,sans-Serif" font-size="10.00" fill="grey">+clocks_directory</text>
<text text-anchor="middle" x="101" y="-1962" font-family="Helvetica,sans-Serif" font-size="10.00" fill="grey">+clocks_filename</text>
<text text-anchor="middle" x="101" y="-1951" font-family="Helvetica,sans-Serif" font-size="10.00" fill="grey">+cost_centre</text>
<text text-anchor="middle" x="101" y="-1940" font-family="Helvetica,sans-Serif" font-size="10.00" fill="grey">+cost_directory</text>
<text text-anchor="middle" x="101" y="-1929" font-family="Helvetica,sans-Serif" font-size="10.00" fill="grey">+cost_filename</text>
<text text-anchor="middle" x="101" y="-1918" font-family="Helvetica,sans-Serif" font-size="10.00" fill="grey">+cost_format</text>
<text text-anchor="middle" x="101" y="-1907" font-family="Helvetica,sans-Serif" font-size="10.00" fill="grey">+cost_met_source</text>
<text text-anchor="middle" x="101" y="-1896" font-family="Helvetica,sans-Serif" font-size="10.00" fill="grey">...</text>
</g>
<!-- Node3 -->
<g id="Node000003" class="node">
<title>Node3</title>
<g id="a_Node000003"><a xlink:title=" ">
<path fill="white" stroke="#666666" d="M208,-2134C208,-2134 108,-2134 108,-2134 102,-2134 96,-2128 96,-2122 96,-2122 96,-2089 96,-2089 96,-2083 102,-2077 108,-2077 108,-2077 208,-2077 208,-2077 214,-2077 220,-2083 220,-2089 220,-2089 220,-2122 220,-2122 220,-2128 214,-2134 208,-2134"/>
<text text-anchor="start" x="109" y="-2117.5" font-family="Helvetica,sans-Serif" font-size="10.00">vector&lt; E_Source &gt;</text>
<text text-anchor="start" x="156" y="-2102.5" font-family="Helvetica,sans-Serif" font-size="10.00"> </text>
<text text-anchor="start" x="156" y="-2087.5" font-family="Helvetica,sans-Serif" font-size="10.00"> </text>
<polygon fill="#666666" stroke="#666666" points="104,-2112.5 104,-2112.5 212,-2112.5 212,-2112.5 104,-2112.5"/>
<polygon fill="#666666" stroke="#666666" points="104,-2097.5 104,-2097.5 212,-2097.5 212,-2097.5 104,-2097.5"/>
<polygon fill="none" stroke="#666666" points="104,-2081 104,-2130 212,-2130 212,-2081 104,-2081"/>
</a>
</g>
</g>
<!-- Node3&#45;&gt;Node1 -->
<g id="edge2_Node000001_Node000003" class="edge">
<title>Node3&#45;&gt;Node1</title>
<g id="a_edge2_Node000001_Node000003"><a xlink:title=" ">
<path fill="none" stroke="#63b8ff" d="M159.08,-2076.77C160.71,-2036.35 164.03,-1958.86 168,-1893 168.11,-1891.15 168.22,-1889.31 168.34,-1887.45"/>
<polygon fill="none" stroke="#63b8ff" points="168.35,-1887.19 164.72,-1880.96 169.08,-1875.21 172.71,-1881.45 168.35,-1887.19"/>
</a>
</g>
<text text-anchor="middle" x="233" y="-1995" font-family="Helvetica,sans-Serif" font-size="10.00" fill="grey"> +clocks_receiver_sources</text>
<text text-anchor="middle" x="233" y="-1984" font-family="Helvetica,sans-Serif" font-size="10.00" fill="grey">+clocks_satellite_sources</text>
<text text-anchor="middle" x="233" y="-1973" font-family="Helvetica,sans-Serif" font-size="10.00" fill="grey">+cost_data_sources</text>
<text text-anchor="middle" x="233" y="-1962" font-family="Helvetica,sans-Serif" font-size="10.00" fill="grey">+orbex_attitude_sources</text>
<text text-anchor="middle" x="233" y="-1951" font-family="Helvetica,sans-Serif" font-size="10.00" fill="grey">+orbex_clock_sources</text>
<text text-anchor="middle" x="233" y="-1940" font-family="Helvetica,sans-Serif" font-size="10.00" fill="grey">+orbex_orbit_sources</text>
<text text-anchor="middle" x="233" y="-1929" font-family="Helvetica,sans-Serif" font-size="10.00" fill="grey">+sp3_clock_sources</text>
<text text-anchor="middle" x="233" y="-1918" font-family="Helvetica,sans-Serif" font-size="10.00" fill="grey">+sp3_orbit_sources</text>
<text text-anchor="middle" x="233" y="-1907" font-family="Helvetica,sans-Serif" font-size="10.00" fill="grey">+trop_sinex_data_sources</text>
</g>
<!-- Node4 -->
<g id="Node000004" class="node">
<title>Node4</title>
<g id="a_Node000004"><a xlink:title=" ">
<path fill="white" stroke="#666666" d="M252.5,-2283C252.5,-2283 219.5,-2283 219.5,-2283 213.5,-2283 207.5,-2277 207.5,-2271 207.5,-2271 207.5,-2238 207.5,-2238 207.5,-2232 213.5,-2226 219.5,-2226 219.5,-2226 252.5,-2226 252.5,-2226 258.5,-2226 264.5,-2232 264.5,-2238 264.5,-2238 264.5,-2271 264.5,-2271 264.5,-2277 258.5,-2283 252.5,-2283"/>
<text text-anchor="start" x="221" y="-2266.5" font-family="Helvetica,sans-Serif" font-size="10.00">vector</text>
<text text-anchor="start" x="234.5" y="-2251.5" font-family="Helvetica,sans-Serif" font-size="10.00"> </text>
<text text-anchor="start" x="234.5" y="-2236.5" font-family="Helvetica,sans-Serif" font-size="10.00"> </text>
<polygon fill="#666666" stroke="#666666" points="216,-2261.5 216,-2261.5 257,-2261.5 257,-2261.5 216,-2261.5"/>
<polygon fill="#666666" stroke="#666666" points="216,-2246.5 216,-2246.5 257,-2246.5 257,-2246.5 216,-2246.5"/>
<polygon fill="none" stroke="#666666" points="215.5,-2230 215.5,-2279 256.5,-2279 256.5,-2230 215.5,-2230"/>
</a>
</g>
</g>
<!-- Node4&#45;&gt;Node3 -->
<g id="edge3_Node000003_Node000004" class="edge">
<title>Node4&#45;&gt;Node3</title>
<g id="a_edge3_Node000003_Node000004"><a xlink:title=" ">
<path fill="none" stroke="orange" d="M212.37,-2217.25C210.51,-2214.15 208.69,-2211.04 207,-2208 193.37,-2183.56 179.68,-2154.75 170.25,-2134.08"/>
<polygon fill="orange" stroke="orange" points="209.46,-2219.22 217.68,-2225.9 215.43,-2215.55 209.46,-2219.22"/>
</a>
</g>
<text text-anchor="middle" x="242" y="-2200" font-family="Helvetica,sans-Serif" font-size="10.00" fill="grey"> &lt; E_Source &gt;</text>
</g>
<!-- Node5 -->
<g id="Node000005" class="node">
<title>Node5</title>
<g id="a_Node000005"><a xlink:title=" ">
<path fill="white" stroke="#666666" d="M380,-2134C380,-2134 250,-2134 250,-2134 244,-2134 238,-2128 238,-2122 238,-2122 238,-2089 238,-2089 238,-2083 244,-2077 250,-2077 250,-2077 380,-2077 380,-2077 386,-2077 392,-2083 392,-2089 392,-2089 392,-2122 392,-2122 392,-2128 386,-2134 380,-2134"/>
<text text-anchor="start" x="251" y="-2117.5" font-family="Helvetica,sans-Serif" font-size="10.00">vector&lt; E_OrbexRecord &gt;</text>
<text text-anchor="start" x="313" y="-2102.5" font-family="Helvetica,sans-Serif" font-size="10.00"> </text>
<text text-anchor="start" x="313" y="-2087.5" font-family="Helvetica,sans-Serif" font-size="10.00"> </text>
<polygon fill="#666666" stroke="#666666" points="246,-2112.5 246,-2112.5 384,-2112.5 384,-2112.5 246,-2112.5"/>
<polygon fill="#666666" stroke="#666666" points="246,-2097.5 246,-2097.5 384,-2097.5 384,-2097.5 246,-2097.5"/>
<polygon fill="none" stroke="#666666" points="246,-2081 246,-2130 384,-2130 384,-2081 246,-2081"/>
</a>
</g>
</g>
<!-- Node4&#45;&gt;Node5 -->
<g id="edge5_Node000005_Node000004" class="edge">
<title>Node4&#45;&gt;Node5</title>
<g id="a_edge5_Node000005_Node000004"><a xlink:title=" ">
<path fill="none" stroke="orange" d="M270.16,-2218.01C272.63,-2214.74 274.95,-2211.38 277,-2208 291.16,-2184.68 301.47,-2155.22 307.75,-2134.05"/>
<polygon fill="orange" stroke="orange" points="267.33,-2215.94 263.79,-2225.92 272.78,-2220.33 267.33,-2215.94"/>
</a>
</g>
<text text-anchor="middle" x="332" y="-2200" font-family="Helvetica,sans-Serif" font-size="10.00" fill="grey"> &lt; E_OrbexRecord &gt;</text>
</g>
<!-- Node5&#45;&gt;Node1 -->
<g id="edge4_Node000001_Node000005" class="edge">
<title>Node5&#45;&gt;Node1</title>
<g id="a_edge4_Node000001_Node000005"><a xlink:title=" ">
<path fill="none" stroke="#63b8ff" d="M313.17,-2076.83C310.81,-2041.05 306.32,-1973.03 300.66,-1887.31"/>
<polygon fill="none" stroke="#63b8ff" points="300.64,-1887.07 296.26,-1881.35 299.85,-1875.1 304.24,-1880.82 300.64,-1887.07"/>
</a>
</g>
<text text-anchor="middle" x="362" y="-1951" font-family="Helvetica,sans-Serif" font-size="10.00" fill="grey"> +orbex_record_types</text>
</g>
<!-- Node6 -->
<g id="Node000006" class="node">
<title>Node6</title>
<g id="a_Node000006"><a xlink:href="structIonexOptions.html" target="_top" xlink:title=" ">
<path fill="white" stroke="#666666" d="M489.5,-2179C489.5,-2179 422.5,-2179 422.5,-2179 416.5,-2179 410.5,-2173 410.5,-2167 410.5,-2167 410.5,-2044 410.5,-2044 410.5,-2038 416.5,-2032 422.5,-2032 422.5,-2032 489.5,-2032 489.5,-2032 495.5,-2032 501.5,-2038 501.5,-2044 501.5,-2044 501.5,-2167 501.5,-2167 501.5,-2173 495.5,-2179 489.5,-2179"/>
<text text-anchor="start" x="424" y="-2162.5" font-family="Helvetica,sans-Serif" font-size="10.00">IonexOptions</text>
<text text-anchor="start" x="423.5" y="-2147.5" font-family="Helvetica,sans-Serif" font-size="10.00">+</text>
<text text-anchor="start" x="437" y="-2147.5" font-family="Helvetica,sans-Serif" font-size="10.00">lat_centre</text>
<text text-anchor="start" x="423.5" y="-2132.5" font-family="Helvetica,sans-Serif" font-size="10.00">+</text>
<text text-anchor="start" x="437" y="-2132.5" font-family="Helvetica,sans-Serif" font-size="10.00">lon_centre</text>
<text text-anchor="start" x="423.5" y="-2117.5" font-family="Helvetica,sans-Serif" font-size="10.00">+</text>
<text text-anchor="start" x="437" y="-2117.5" font-family="Helvetica,sans-Serif" font-size="10.00">lat_width</text>
<text text-anchor="start" x="423.5" y="-2102.5" font-family="Helvetica,sans-Serif" font-size="10.00">+</text>
<text text-anchor="start" x="437" y="-2102.5" font-family="Helvetica,sans-Serif" font-size="10.00">lon_width</text>
<text text-anchor="start" x="423.5" y="-2087.5" font-family="Helvetica,sans-Serif" font-size="10.00">+</text>
<text text-anchor="start" x="437" y="-2087.5" font-family="Helvetica,sans-Serif" font-size="10.00">lat_res</text>
<text text-anchor="start" x="423.5" y="-2072.5" font-family="Helvetica,sans-Serif" font-size="10.00">+</text>
<text text-anchor="start" x="437" y="-2072.5" font-family="Helvetica,sans-Serif" font-size="10.00">lon_res</text>
<text text-anchor="start" x="423.5" y="-2057.5" font-family="Helvetica,sans-Serif" font-size="10.00">+</text>
<text text-anchor="start" x="437" y="-2057.5" font-family="Helvetica,sans-Serif" font-size="10.00">time_res</text>
<text text-anchor="start" x="454.5" y="-2042.5" font-family="Helvetica,sans-Serif" font-size="10.00"> </text>
<polygon fill="#666666" stroke="#666666" points="419,-2157.5 419,-2157.5 494,-2157.5 494,-2157.5 419,-2157.5"/>
<polygon fill="#666666" stroke="#666666" points="419,-2052.5 419,-2052.5 435,-2052.5 435,-2052.5 419,-2052.5"/>
<polygon fill="#666666" stroke="#666666" points="435,-2052.5 435,-2052.5 494,-2052.5 494,-2052.5 435,-2052.5"/>
<polygon fill="none" stroke="#666666" points="418.5,-2036 418.5,-2175 493.5,-2175 493.5,-2036 418.5,-2036"/>
</a>
</g>
</g>
<!-- Node6&#45;&gt;Node1 -->
<g id="edge6_Node000001_Node000006" class="edge">
<title>Node6&#45;&gt;Node1</title>
<g id="a_edge6_Node000001_Node000006"><a xlink:title=" ">
<path fill="none" stroke="#63b8ff" d="M443.94,-2031.51C437.11,-1990.73 428.3,-1939 420,-1893 393.19,-1744.39 362.87,-1583.01 334.79,-1435.95"/>
<polygon fill="none" stroke="#63b8ff" points="334.76,-1435.83 329.71,-1430.68 332.51,-1424.04 337.56,-1429.18 334.76,-1435.83"/>
</a>
</g>
<text text-anchor="middle" x="469.5" y="-1951" font-family="Helvetica,sans-Serif" font-size="10.00" fill="grey"> +ionexGrid</text>
</g>
</g>
</svg>
