<?xml version="1.0" encoding="UTF-8" standalone="no"?>
<!DOCTYPE svg PUBLIC "-//W3C//DTD SVG 1.1//EN"
 "http://www.w3.org/Graphics/SVG/1.1/DTD/svg11.dtd">
<!-- Generated by graphviz version 2.43.0 (0)
 -->
<!-- Title: CommonOptions Pages: 1 -->
<svg width="336pt" height="1173pt"
 viewBox="0.00 0.00 336.00 1173.00" xmlns="http://www.w3.org/2000/svg" xmlns:xlink="http://www.w3.org/1999/xlink">
<g id="graph0" class="graph" transform="scale(1 1) rotate(0) translate(4 1169)">
<title>CommonOptions</title>
<!-- Node1 -->
<g id="Node000001" class="node">
<title>Node1</title>
<g id="a_Node000001"><a xlink:href="structCommonOptions.html" target="_top" xlink:title=" ">
<path fill="white" stroke="#666666" stroke-width="2" d="M226.5,-1165C226.5,-1165 109.5,-1165 109.5,-1165 103.5,-1165 97.5,-1159 97.5,-1153 97.5,-1153 97.5,-742 97.5,-742 97.5,-736 103.5,-730 109.5,-730 109.5,-730 226.5,-730 226.5,-730 232.5,-730 238.5,-736 238.5,-742 238.5,-742 238.5,-1153 238.5,-1153 238.5,-1159 232.5,-1165 226.5,-1165"/>
<text text-anchor="start" x="127.5" y="-1148.5" font-family="Helvetica,sans-Serif" font-size="10.00">CommonOptions</text>
<text text-anchor="start" x="110" y="-1133.5" font-family="Helvetica,sans-Serif" font-size="10.00">+</text>
<text text-anchor="start" x="123" y="-1133.5" font-family="Helvetica,sans-Serif" font-size="10.00">exclude</text>
<text text-anchor="start" x="110" y="-1118.5" font-family="Helvetica,sans-Serif" font-size="10.00">+</text>
<text text-anchor="start" x="123" y="-1118.5" font-family="Helvetica,sans-Serif" font-size="10.00">pseudo_sigma</text>
<text text-anchor="start" x="110" y="-1103.5" font-family="Helvetica,sans-Serif" font-size="10.00">+</text>
<text text-anchor="start" x="123" y="-1103.5" font-family="Helvetica,sans-Serif" font-size="10.00">laser_sigma</text>
<text text-anchor="start" x="110" y="-1088.5" font-family="Helvetica,sans-Serif" font-size="10.00">+</text>
<text text-anchor="start" x="123" y="-1088.5" font-family="Helvetica,sans-Serif" font-size="10.00">clock_codes</text>
<text text-anchor="start" x="110" y="-1073.5" font-family="Helvetica,sans-Serif" font-size="10.00">+</text>
<text text-anchor="start" x="123" y="-1073.5" font-family="Helvetica,sans-Serif" font-size="10.00">apriori_sigma_enu</text>
<text text-anchor="start" x="110" y="-1058.5" font-family="Helvetica,sans-Serif" font-size="10.00">+</text>
<text text-anchor="start" x="123" y="-1058.5" font-family="Helvetica,sans-Serif" font-size="10.00">mincon_scale_apriori</text>
<text text-anchor="start" x="123" y="-1047.5" font-family="Helvetica,sans-Serif" font-size="10.00">_sigma</text>
<text text-anchor="start" x="110" y="-1032.5" font-family="Helvetica,sans-Serif" font-size="10.00">+</text>
<text text-anchor="start" x="123" y="-1032.5" font-family="Helvetica,sans-Serif" font-size="10.00">mincon_scale_filter</text>
<text text-anchor="start" x="123" y="-1021.5" font-family="Helvetica,sans-Serif" font-size="10.00">_sigma</text>
<text text-anchor="start" x="110" y="-1006.5" font-family="Helvetica,sans-Serif" font-size="10.00">+</text>
<text text-anchor="start" x="123" y="-1006.5" font-family="Helvetica,sans-Serif" font-size="10.00">antenna_boresight</text>
<text text-anchor="start" x="110" y="-991.5" font-family="Helvetica,sans-Serif" font-size="10.00">+</text>
<text text-anchor="start" x="123" y="-991.5" font-family="Helvetica,sans-Serif" font-size="10.00">antenna_azimuth</text>
<text text-anchor="start" x="110" y="-976.5" font-family="Helvetica,sans-Serif" font-size="10.00">+</text>
<text text-anchor="start" x="123" y="-976.5" font-family="Helvetica,sans-Serif" font-size="10.00">ellipse_propagation</text>
<text text-anchor="start" x="123" y="-965.5" font-family="Helvetica,sans-Serif" font-size="10.00">_time_tolerance</text>
<text text-anchor="start" x="110" y="-950.5" font-family="Helvetica,sans-Serif" font-size="10.00">+</text>
<text text-anchor="start" x="123" y="-950.5" font-family="Helvetica,sans-Serif" font-size="10.00">enable</text>
<text text-anchor="start" x="110" y="-935.5" font-family="Helvetica,sans-Serif" font-size="10.00">+</text>
<text text-anchor="start" x="123" y="-935.5" font-family="Helvetica,sans-Serif" font-size="10.00">sources</text>
<text text-anchor="start" x="110" y="-920.5" font-family="Helvetica,sans-Serif" font-size="10.00">+</text>
<text text-anchor="start" x="123" y="-920.5" font-family="Helvetica,sans-Serif" font-size="10.00">posModel</text>
<text text-anchor="start" x="110" y="-905.5" font-family="Helvetica,sans-Serif" font-size="10.00">+</text>
<text text-anchor="start" x="123" y="-905.5" font-family="Helvetica,sans-Serif" font-size="10.00">clockModel</text>
<text text-anchor="start" x="110" y="-890.5" font-family="Helvetica,sans-Serif" font-size="10.00">+</text>
<text text-anchor="start" x="123" y="-890.5" font-family="Helvetica,sans-Serif" font-size="10.00">model_dt</text>
<text text-anchor="start" x="110" y="-875.5" font-family="Helvetica,sans-Serif" font-size="10.00">+</text>
<text text-anchor="start" x="123" y="-875.5" font-family="Helvetica,sans-Serif" font-size="10.00">attitudeModel</text>
<text text-anchor="start" x="110" y="-860.5" font-family="Helvetica,sans-Serif" font-size="10.00">+</text>
<text text-anchor="start" x="123" y="-860.5" font-family="Helvetica,sans-Serif" font-size="10.00">default_bias</text>
<text text-anchor="start" x="110" y="-845.5" font-family="Helvetica,sans-Serif" font-size="10.00">+</text>
<text text-anchor="start" x="123" y="-845.5" font-family="Helvetica,sans-Serif" font-size="10.00">undefined_sigma</text>
<text text-anchor="start" x="110" y="-830.5" font-family="Helvetica,sans-Serif" font-size="10.00">+</text>
<text text-anchor="start" x="123" y="-830.5" font-family="Helvetica,sans-Serif" font-size="10.00">codeBiasModel</text>
<text text-anchor="start" x="110" y="-815.5" font-family="Helvetica,sans-Serif" font-size="10.00">+</text>
<text text-anchor="start" x="123" y="-815.5" font-family="Helvetica,sans-Serif" font-size="10.00">phaseBiasModel</text>
<text text-anchor="start" x="110" y="-800.5" font-family="Helvetica,sans-Serif" font-size="10.00">+</text>
<text text-anchor="start" x="123" y="-800.5" font-family="Helvetica,sans-Serif" font-size="10.00">pcoModel</text>
<text text-anchor="start" x="110" y="-785.5" font-family="Helvetica,sans-Serif" font-size="10.00">+</text>
<text text-anchor="start" x="123" y="-785.5" font-family="Helvetica,sans-Serif" font-size="10.00">pcvModel</text>
<text text-anchor="start" x="110" y="-770.5" font-family="Helvetica,sans-Serif" font-size="10.00">+</text>
<text text-anchor="start" x="123" y="-770.5" font-family="Helvetica,sans-Serif" font-size="10.00">phaseWindupModel</text>
<text text-anchor="start" x="110" y="-755.5" font-family="Helvetica,sans-Serif" font-size="10.00">+</text>
<text text-anchor="start" x="123" y="-755.5" font-family="Helvetica,sans-Serif" font-size="10.00">initialisedMap</text>
<text text-anchor="start" x="110" y="-740.5" font-family="Helvetica,sans-Serif" font-size="10.00">+</text>
<text text-anchor="start" x="123" y="-740.5" font-family="Helvetica,sans-Serif" font-size="10.00">operator+=()</text>
<polygon fill="#666666" stroke="#666666" points="106,-1143.5 106,-1143.5 231,-1143.5 231,-1143.5 106,-1143.5"/>
<polygon fill="#666666" stroke="#666666" points="106,-750.5 106,-750.5 121,-750.5 121,-750.5 106,-750.5"/>
<polygon fill="#666666" stroke="#666666" points="121,-750.5 121,-750.5 231,-750.5 231,-750.5 121,-750.5"/>
<polygon fill="none" stroke="#666666" points="105.5,-734 105.5,-1161 230.5,-1161 230.5,-734 105.5,-734"/>
</a>
</g>
</g>
<!-- Node2 -->
<g id="Node000002" class="node">
<title>Node2</title>
<g id="a_Node000002"><a xlink:href="structReceiverOptions.html" target="_top" xlink:title="Options to be applied to kalman filter states for individual receivers.">
<path fill="white" stroke="#666666" d="M152,-694C152,-694 12,-694 12,-694 6,-694 0,-688 0,-682 0,-682 0,-12 0,-12 0,-6 6,0 12,0 12,0 152,0 152,0 158,0 164,-6 164,-12 164,-12 164,-682 164,-682 164,-688 158,-694 152,-694"/>
<text text-anchor="start" x="41.5" y="-678" font-family="Helvetica,sans-Serif" font-size="10.00">ReceiverOptions</text>
<text text-anchor="start" x="12" y="-663" font-family="Helvetica,sans-Serif" font-size="10.00">+</text>
<text text-anchor="start" x="25" y="-663" font-family="Helvetica,sans-Serif" font-size="10.00">_initialised</text>
<text text-anchor="start" x="12" y="-648" font-family="Helvetica,sans-Serif" font-size="10.00">+</text>
<text text-anchor="start" x="25" y="-648" font-family="Helvetica,sans-Serif" font-size="10.00">id</text>
<text text-anchor="start" x="12" y="-633" font-family="Helvetica,sans-Serif" font-size="10.00">+</text>
<text text-anchor="start" x="25" y="-633" font-family="Helvetica,sans-Serif" font-size="10.00">rinex23Conv</text>
<text text-anchor="start" x="12" y="-618" font-family="Helvetica,sans-Serif" font-size="10.00">+</text>
<text text-anchor="start" x="25" y="-618" font-family="Helvetica,sans-Serif" font-size="10.00">kill</text>
<text text-anchor="start" x="12" y="-603" font-family="Helvetica,sans-Serif" font-size="10.00">+</text>
<text text-anchor="start" x="25" y="-603" font-family="Helvetica,sans-Serif" font-size="10.00">zero_dcb_codes</text>
<text text-anchor="start" x="12" y="-588" font-family="Helvetica,sans-Serif" font-size="10.00">+</text>
<text text-anchor="start" x="25" y="-588" font-family="Helvetica,sans-Serif" font-size="10.00">apriori_pos</text>
<text text-anchor="start" x="12" y="-573" font-family="Helvetica,sans-Serif" font-size="10.00">+</text>
<text text-anchor="start" x="25" y="-573" font-family="Helvetica,sans-Serif" font-size="10.00">antenna_type</text>
<text text-anchor="start" x="12" y="-558" font-family="Helvetica,sans-Serif" font-size="10.00">+</text>
<text text-anchor="start" x="25" y="-558" font-family="Helvetica,sans-Serif" font-size="10.00">receiver_type</text>
<text text-anchor="start" x="12" y="-543" font-family="Helvetica,sans-Serif" font-size="10.00">+</text>
<text text-anchor="start" x="25" y="-543" font-family="Helvetica,sans-Serif" font-size="10.00">sat_id</text>
<text text-anchor="start" x="12" y="-528" font-family="Helvetica,sans-Serif" font-size="10.00">+</text>
<text text-anchor="start" x="25" y="-528" font-family="Helvetica,sans-Serif" font-size="10.00">elevation_mask_deg</text>
<text text-anchor="start" x="12" y="-513" font-family="Helvetica,sans-Serif" font-size="10.00">+</text>
<text text-anchor="start" x="25" y="-513" font-family="Helvetica,sans-Serif" font-size="10.00">receiver_reference</text>
<text text-anchor="start" x="25" y="-502" font-family="Helvetica,sans-Serif" font-size="10.00">_system</text>
<text text-anchor="start" x="12" y="-487" font-family="Helvetica,sans-Serif" font-size="10.00">+</text>
<text text-anchor="start" x="25" y="-487" font-family="Helvetica,sans-Serif" font-size="10.00">enable</text>
<text text-anchor="start" x="12" y="-472" font-family="Helvetica,sans-Serif" font-size="10.00">+</text>
<text text-anchor="start" x="25" y="-472" font-family="Helvetica,sans-Serif" font-size="10.00">eccentricity</text>
<text text-anchor="start" x="12" y="-457" font-family="Helvetica,sans-Serif" font-size="10.00">+</text>
<text text-anchor="start" x="25" y="-457" font-family="Helvetica,sans-Serif" font-size="10.00">eccentricityModel</text>
<text text-anchor="start" x="12" y="-442" font-family="Helvetica,sans-Serif" font-size="10.00">+</text>
<text text-anchor="start" x="25" y="-442" font-family="Helvetica,sans-Serif" font-size="10.00">models</text>
<text text-anchor="start" x="12" y="-427" font-family="Helvetica,sans-Serif" font-size="10.00">+</text>
<text text-anchor="start" x="25" y="-427" font-family="Helvetica,sans-Serif" font-size="10.00">tropModel</text>
<text text-anchor="start" x="12" y="-412" font-family="Helvetica,sans-Serif" font-size="10.00">+</text>
<text text-anchor="start" x="25" y="-412" font-family="Helvetica,sans-Serif" font-size="10.00">solid</text>
<text text-anchor="start" x="12" y="-397" font-family="Helvetica,sans-Serif" font-size="10.00">+</text>
<text text-anchor="start" x="25" y="-397" font-family="Helvetica,sans-Serif" font-size="10.00">otl</text>
<text text-anchor="start" x="12" y="-382" font-family="Helvetica,sans-Serif" font-size="10.00">+</text>
<text text-anchor="start" x="25" y="-382" font-family="Helvetica,sans-Serif" font-size="10.00">atl</text>
<text text-anchor="start" x="12" y="-367" font-family="Helvetica,sans-Serif" font-size="10.00">+</text>
<text text-anchor="start" x="25" y="-367" font-family="Helvetica,sans-Serif" font-size="10.00">spole</text>
<text text-anchor="start" x="12" y="-352" font-family="Helvetica,sans-Serif" font-size="10.00">+</text>
<text text-anchor="start" x="25" y="-352" font-family="Helvetica,sans-Serif" font-size="10.00">opole</text>
<text text-anchor="start" x="12" y="-337" font-family="Helvetica,sans-Serif" font-size="10.00">+</text>
<text text-anchor="start" x="25" y="-337" font-family="Helvetica,sans-Serif" font-size="10.00">tideModels</text>
<text text-anchor="start" x="12" y="-322" font-family="Helvetica,sans-Serif" font-size="10.00">+</text>
<text text-anchor="start" x="25" y="-322" font-family="Helvetica,sans-Serif" font-size="10.00">range</text>
<text text-anchor="start" x="12" y="-307" font-family="Helvetica,sans-Serif" font-size="10.00">+</text>
<text text-anchor="start" x="25" y="-307" font-family="Helvetica,sans-Serif" font-size="10.00">relativity</text>
<text text-anchor="start" x="12" y="-292" font-family="Helvetica,sans-Serif" font-size="10.00">+</text>
<text text-anchor="start" x="25" y="-292" font-family="Helvetica,sans-Serif" font-size="10.00">relativity2</text>
<text text-anchor="start" x="12" y="-277" font-family="Helvetica,sans-Serif" font-size="10.00">+</text>
<text text-anchor="start" x="25" y="-277" font-family="Helvetica,sans-Serif" font-size="10.00">sagnac</text>
<text text-anchor="start" x="12" y="-262" font-family="Helvetica,sans-Serif" font-size="10.00">+</text>
<text text-anchor="start" x="25" y="-262" font-family="Helvetica,sans-Serif" font-size="10.00">integer_ambiguity</text>
<text text-anchor="start" x="12" y="-247" font-family="Helvetica,sans-Serif" font-size="10.00">+</text>
<text text-anchor="start" x="25" y="-247" font-family="Helvetica,sans-Serif" font-size="10.00">ionospheric_component</text>
<text text-anchor="start" x="12" y="-232" font-family="Helvetica,sans-Serif" font-size="10.00">+</text>
<text text-anchor="start" x="25" y="-232" font-family="Helvetica,sans-Serif" font-size="10.00">ionospheric_component2</text>
<text text-anchor="start" x="12" y="-217" font-family="Helvetica,sans-Serif" font-size="10.00">+</text>
<text text-anchor="start" x="25" y="-217" font-family="Helvetica,sans-Serif" font-size="10.00">ionospheric_component3</text>
<text text-anchor="start" x="12" y="-202" font-family="Helvetica,sans-Serif" font-size="10.00">+</text>
<text text-anchor="start" x="25" y="-202" font-family="Helvetica,sans-Serif" font-size="10.00">ionospheric_model</text>
<text text-anchor="start" x="12" y="-187" font-family="Helvetica,sans-Serif" font-size="10.00">+</text>
<text text-anchor="start" x="25" y="-187" font-family="Helvetica,sans-Serif" font-size="10.00">tropospheric_map</text>
<text text-anchor="start" x="12" y="-172" font-family="Helvetica,sans-Serif" font-size="10.00">+</text>
<text text-anchor="start" x="25" y="-172" font-family="Helvetica,sans-Serif" font-size="10.00">eop</text>
<text text-anchor="start" x="12" y="-157" font-family="Helvetica,sans-Serif" font-size="10.00">+</text>
<text text-anchor="start" x="25" y="-157" font-family="Helvetica,sans-Serif" font-size="10.00">mapping_function</text>
<text text-anchor="start" x="12" y="-142" font-family="Helvetica,sans-Serif" font-size="10.00">+</text>
<text text-anchor="start" x="25" y="-142" font-family="Helvetica,sans-Serif" font-size="10.00">geomagnetic_field_height</text>
<text text-anchor="start" x="12" y="-127" font-family="Helvetica,sans-Serif" font-size="10.00">+</text>
<text text-anchor="start" x="25" y="-127" font-family="Helvetica,sans-Serif" font-size="10.00">mapping_function_layer</text>
<text text-anchor="start" x="25" y="-116" font-family="Helvetica,sans-Serif" font-size="10.00">_height</text>
<text text-anchor="start" x="12" y="-101" font-family="Helvetica,sans-Serif" font-size="10.00">+</text>
<text text-anchor="start" x="25" y="-101" font-family="Helvetica,sans-Serif" font-size="10.00">error_model</text>
<text text-anchor="start" x="12" y="-86" font-family="Helvetica,sans-Serif" font-size="10.00">+</text>
<text text-anchor="start" x="25" y="-86" font-family="Helvetica,sans-Serif" font-size="10.00">code_sigma</text>
<text text-anchor="start" x="12" y="-71" font-family="Helvetica,sans-Serif" font-size="10.00">+</text>
<text text-anchor="start" x="25" y="-71" font-family="Helvetica,sans-Serif" font-size="10.00">phase_sigma</text>
<text text-anchor="start" x="12" y="-56" font-family="Helvetica,sans-Serif" font-size="10.00">+</text>
<text text-anchor="start" x="25" y="-56" font-family="Helvetica,sans-Serif" font-size="10.00">inheritors</text>
<text text-anchor="start" x="12" y="-41" font-family="Helvetica,sans-Serif" font-size="10.00">+</text>
<text text-anchor="start" x="25" y="-41" font-family="Helvetica,sans-Serif" font-size="10.00">inheritedFrom</text>
<text text-anchor="start" x="12" y="-26" font-family="Helvetica,sans-Serif" font-size="10.00">+</text>
<text text-anchor="start" x="25" y="-26" font-family="Helvetica,sans-Serif" font-size="10.00">initialisedMap</text>
<text text-anchor="start" x="12" y="-11" font-family="Helvetica,sans-Serif" font-size="10.00">+</text>
<text text-anchor="start" x="25" y="-11" font-family="Helvetica,sans-Serif" font-size="10.00">operator+=()</text>
<polygon fill="#666666" stroke="#666666" points="8,-673 8,-673 156,-673 156,-673 8,-673"/>
<polygon fill="#666666" stroke="#666666" points="8,-21 8,-21 23,-21 23,-21 8,-21"/>
<polygon fill="#666666" stroke="#666666" points="23,-21 23,-21 156,-21 156,-21 23,-21"/>
<polygon fill="none" stroke="#666666" points="8,-4 8,-690 156,-690 156,-4 8,-4"/>
</a>
</g>
</g>
<!-- Node1&#45;&gt;Node2 -->
<g id="edge1_Node000001_Node000002" class="edge">
<title>Node1&#45;&gt;Node2</title>
<g id="a_edge1_Node000001_Node000002"><a xlink:title=" ">
<path fill="none" stroke="#63b8ff" d="M135.38,-719.46C134.18,-711.12 132.97,-702.71 131.75,-694.25"/>
<polygon fill="none" stroke="#63b8ff" points="131.94,-720.18 136.83,-729.58 138.87,-719.19 131.94,-720.18"/>
</a>
</g>
</g>
<!-- Node3 -->
<g id="Node000003" class="node">
<title>Node3</title>
<g id="a_Node000003"><a xlink:href="structSatelliteOptions.html" target="_top" xlink:title="Options to be applied to kalman filter states for individual satellites.">
<path fill="white" stroke="#666666" d="M316,-435.5C316,-435.5 194,-435.5 194,-435.5 188,-435.5 182,-429.5 182,-423.5 182,-423.5 182,-270.5 182,-270.5 182,-264.5 188,-258.5 194,-258.5 194,-258.5 316,-258.5 316,-258.5 322,-258.5 328,-264.5 328,-270.5 328,-270.5 328,-423.5 328,-423.5 328,-429.5 322,-435.5 316,-435.5"/>
<text text-anchor="start" x="215.5" y="-419" font-family="Helvetica,sans-Serif" font-size="10.00">SatelliteOptions</text>
<text text-anchor="start" x="194" y="-404" font-family="Helvetica,sans-Serif" font-size="10.00">+</text>
<text text-anchor="start" x="207" y="-404" font-family="Helvetica,sans-Serif" font-size="10.00">_initialised</text>
<text text-anchor="start" x="194" y="-389" font-family="Helvetica,sans-Serif" font-size="10.00">+</text>
<text text-anchor="start" x="207" y="-389" font-family="Helvetica,sans-Serif" font-size="10.00">id</text>
<text text-anchor="start" x="194" y="-374" font-family="Helvetica,sans-Serif" font-size="10.00">+</text>
<text text-anchor="start" x="207" y="-374" font-family="Helvetica,sans-Serif" font-size="10.00">error_model</text>
<text text-anchor="start" x="194" y="-359" font-family="Helvetica,sans-Serif" font-size="10.00">+</text>
<text text-anchor="start" x="207" y="-359" font-family="Helvetica,sans-Serif" font-size="10.00">code_sigma</text>
<text text-anchor="start" x="194" y="-344" font-family="Helvetica,sans-Serif" font-size="10.00">+</text>
<text text-anchor="start" x="207" y="-344" font-family="Helvetica,sans-Serif" font-size="10.00">phase_sigma</text>
<text text-anchor="start" x="194" y="-329" font-family="Helvetica,sans-Serif" font-size="10.00">+</text>
<text text-anchor="start" x="207" y="-329" font-family="Helvetica,sans-Serif" font-size="10.00">inheritors</text>
<text text-anchor="start" x="194" y="-314" font-family="Helvetica,sans-Serif" font-size="10.00">+</text>
<text text-anchor="start" x="207" y="-314" font-family="Helvetica,sans-Serif" font-size="10.00">inheritedFrom</text>
<text text-anchor="start" x="194" y="-299" font-family="Helvetica,sans-Serif" font-size="10.00">+</text>
<text text-anchor="start" x="207" y="-299" font-family="Helvetica,sans-Serif" font-size="10.00">initialisedMap</text>
<text text-anchor="start" x="194" y="-284" font-family="Helvetica,sans-Serif" font-size="10.00">+</text>
<text text-anchor="start" x="207" y="-284" font-family="Helvetica,sans-Serif" font-size="10.00">operator+=()</text>
<text text-anchor="start" x="194" y="-269" font-family="Helvetica,sans-Serif" font-size="10.00">+</text>
<text text-anchor="start" x="207" y="-269" font-family="Helvetica,sans-Serif" font-size="10.00">uninitialiseInheritors()</text>
<polygon fill="#666666" stroke="#666666" points="190,-414 190,-414 320,-414 320,-414 190,-414"/>
<polygon fill="#666666" stroke="#666666" points="190,-294 190,-294 205,-294 205,-294 190,-294"/>
<polygon fill="#666666" stroke="#666666" points="205,-294 205,-294 320,-294 320,-294 205,-294"/>
<polygon fill="none" stroke="#666666" points="190,-262.5 190,-431.5 320,-431.5 320,-262.5 190,-262.5"/>
</a>
</g>
</g>
<!-- Node1&#45;&gt;Node3 -->
<g id="edge2_Node000001_Node000003" class="edge">
<title>Node1&#45;&gt;Node3</title>
<g id="a_edge2_Node000001_Node000003"><a xlink:title=" ">
<path fill="none" stroke="#63b8ff" d="M201.01,-719.42C215.4,-620.44 231.41,-510.25 242.24,-435.79"/>
<polygon fill="none" stroke="#63b8ff" points="197.51,-719.18 199.53,-729.58 204.43,-720.19 197.51,-719.18"/>
</a>
</g>
</g>
</g>
</svg>
