<?xml version="1.0" encoding="UTF-8" standalone="no"?>
<!DOCTYPE svg PUBLIC "-//W3C//DTD SVG 1.1//EN"
 "http://www.w3.org/Graphics/SVG/1.1/DTD/svg11.dtd">
<!-- Generated by graphviz version 2.43.0 (0)
 -->
<!-- Title: ReceiverLogs Pages: 1 -->
<svg width="143pt" height="698pt"
 viewBox="0.00 0.00 143.00 698.00" xmlns="http://www.w3.org/2000/svg" xmlns:xlink="http://www.w3.org/1999/xlink">
<g id="graph0" class="graph" transform="scale(1 1) rotate(0) translate(4 694)">
<title>ReceiverLogs</title>
<!-- Node1 -->
<g id="Node000001" class="node">
<title>Node1</title>
<g id="a_Node000001"><a xlink:href="structReceiverLogs.html" target="_top" xlink:title=" ">
<path fill="white" stroke="#666666" stroke-width="2" d="M123,-690C123,-690 12,-690 12,-690 6,-690 0,-684 0,-678 0,-678 0,-525 0,-525 0,-519 6,-513 12,-513 12,-513 123,-513 123,-513 129,-513 135,-519 135,-525 135,-525 135,-678 135,-678 135,-684 129,-690 123,-690"/>
<text text-anchor="start" x="35" y="-673.5" font-family="Helvetica,sans-Serif" font-size="10.00">ReceiverLogs</text>
<text text-anchor="start" x="12.5" y="-658.5" font-family="Helvetica,sans-Serif" font-size="10.00">+</text>
<text text-anchor="start" x="25.5" y="-658.5" font-family="Helvetica,sans-Serif" font-size="10.00">firstEpoch</text>
<text text-anchor="start" x="12.5" y="-643.5" font-family="Helvetica,sans-Serif" font-size="10.00">+</text>
<text text-anchor="start" x="25.5" y="-643.5" font-family="Helvetica,sans-Serif" font-size="10.00">lastEpoch</text>
<text text-anchor="start" x="12.5" y="-628.5" font-family="Helvetica,sans-Serif" font-size="10.00">+</text>
<text text-anchor="start" x="25.5" y="-628.5" font-family="Helvetica,sans-Serif" font-size="10.00">epochCount</text>
<text text-anchor="start" x="12.5" y="-613.5" font-family="Helvetica,sans-Serif" font-size="10.00">+</text>
<text text-anchor="start" x="25.5" y="-613.5" font-family="Helvetica,sans-Serif" font-size="10.00">obsCount</text>
<text text-anchor="start" x="12.5" y="-598.5" font-family="Helvetica,sans-Serif" font-size="10.00">+</text>
<text text-anchor="start" x="25.5" y="-598.5" font-family="Helvetica,sans-Serif" font-size="10.00">slipCount</text>
<text text-anchor="start" x="12.5" y="-583.5" font-family="Helvetica,sans-Serif" font-size="10.00">+</text>
<text text-anchor="start" x="25.5" y="-583.5" font-family="Helvetica,sans-Serif" font-size="10.00">codeCount</text>
<text text-anchor="start" x="12.5" y="-568.5" font-family="Helvetica,sans-Serif" font-size="10.00">+</text>
<text text-anchor="start" x="25.5" y="-568.5" font-family="Helvetica,sans-Serif" font-size="10.00">satCount</text>
<text text-anchor="start" x="12.5" y="-553.5" font-family="Helvetica,sans-Serif" font-size="10.00">+</text>
<text text-anchor="start" x="25.5" y="-553.5" font-family="Helvetica,sans-Serif" font-size="10.00">receiverErrorEpochs</text>
<text text-anchor="start" x="12.5" y="-538.5" font-family="Helvetica,sans-Serif" font-size="10.00">+</text>
<text text-anchor="start" x="25.5" y="-538.5" font-family="Helvetica,sans-Serif" font-size="10.00">receiverErrorCount</text>
<text text-anchor="start" x="66" y="-523.5" font-family="Helvetica,sans-Serif" font-size="10.00"> </text>
<polygon fill="#666666" stroke="#666666" points="8.5,-668.5 8.5,-668.5 127.5,-668.5 127.5,-668.5 8.5,-668.5"/>
<polygon fill="#666666" stroke="#666666" points="8.5,-533.5 8.5,-533.5 23.5,-533.5 23.5,-533.5 8.5,-533.5"/>
<polygon fill="#666666" stroke="#666666" points="23.5,-533.5 23.5,-533.5 127.5,-533.5 127.5,-533.5 23.5,-533.5"/>
<polygon fill="none" stroke="#666666" points="8,-517 8,-686 127,-686 127,-517 8,-517"/>
</a>
</g>
</g>
<!-- Node2 -->
<g id="Node000002" class="node">
<title>Node2</title>
<g id="a_Node000002"><a xlink:href="structReceiver.html" target="_top" xlink:title="Object to maintain receiver station data.">
<path fill="white" stroke="#666666" d="M119.5,-477C119.5,-477 15.5,-477 15.5,-477 9.5,-477 3.5,-471 3.5,-465 3.5,-465 3.5,-12 3.5,-12 3.5,-6 9.5,0 15.5,0 15.5,0 119.5,0 119.5,0 125.5,0 131.5,-6 131.5,-12 131.5,-12 131.5,-465 131.5,-465 131.5,-471 125.5,-477 119.5,-477"/>
<text text-anchor="start" x="46" y="-460.5" font-family="Helvetica,sans-Serif" font-size="10.00">Receiver</text>
<text text-anchor="start" x="15.5" y="-445.5" font-family="Helvetica,sans-Serif" font-size="10.00">+</text>
<text text-anchor="start" x="28.5" y="-445.5" font-family="Helvetica,sans-Serif" font-size="10.00">isPseudoRec</text>
<text text-anchor="start" x="15.5" y="-430.5" font-family="Helvetica,sans-Serif" font-size="10.00">+</text>
<text text-anchor="start" x="28.5" y="-430.5" font-family="Helvetica,sans-Serif" font-size="10.00">invalid</text>
<text text-anchor="start" x="15.5" y="-415.5" font-family="Helvetica,sans-Serif" font-size="10.00">+</text>
<text text-anchor="start" x="28.5" y="-415.5" font-family="Helvetica,sans-Serif" font-size="10.00">snx</text>
<text text-anchor="start" x="15.5" y="-400.5" font-family="Helvetica,sans-Serif" font-size="10.00">+</text>
<text text-anchor="start" x="28.5" y="-400.5" font-family="Helvetica,sans-Serif" font-size="10.00">metaDataMap</text>
<text text-anchor="start" x="15.5" y="-385.5" font-family="Helvetica,sans-Serif" font-size="10.00">+</text>
<text text-anchor="start" x="28.5" y="-385.5" font-family="Helvetica,sans-Serif" font-size="10.00">obsList</text>
<text text-anchor="start" x="15.5" y="-370.5" font-family="Helvetica,sans-Serif" font-size="10.00">+</text>
<text text-anchor="start" x="28.5" y="-370.5" font-family="Helvetica,sans-Serif" font-size="10.00">id</text>
<text text-anchor="start" x="15.5" y="-355.5" font-family="Helvetica,sans-Serif" font-size="10.00">+</text>
<text text-anchor="start" x="28.5" y="-355.5" font-family="Helvetica,sans-Serif" font-size="10.00">source</text>
<text text-anchor="start" x="15.5" y="-340.5" font-family="Helvetica,sans-Serif" font-size="10.00">+</text>
<text text-anchor="start" x="28.5" y="-340.5" font-family="Helvetica,sans-Serif" font-size="10.00">primaryApriori</text>
<text text-anchor="start" x="15.5" y="-325.5" font-family="Helvetica,sans-Serif" font-size="10.00">+</text>
<text text-anchor="start" x="28.5" y="-325.5" font-family="Helvetica,sans-Serif" font-size="10.00">aprioriTime</text>
<text text-anchor="start" x="15.5" y="-310.5" font-family="Helvetica,sans-Serif" font-size="10.00">+</text>
<text text-anchor="start" x="28.5" y="-310.5" font-family="Helvetica,sans-Serif" font-size="10.00">aprioriClk</text>
<text text-anchor="start" x="15.5" y="-295.5" font-family="Helvetica,sans-Serif" font-size="10.00">+</text>
<text text-anchor="start" x="28.5" y="-295.5" font-family="Helvetica,sans-Serif" font-size="10.00">aprioriClkVar</text>
<text text-anchor="start" x="15.5" y="-280.5" font-family="Helvetica,sans-Serif" font-size="10.00">+</text>
<text text-anchor="start" x="28.5" y="-280.5" font-family="Helvetica,sans-Serif" font-size="10.00">aprioriPos</text>
<text text-anchor="start" x="15.5" y="-265.5" font-family="Helvetica,sans-Serif" font-size="10.00">+</text>
<text text-anchor="start" x="28.5" y="-265.5" font-family="Helvetica,sans-Serif" font-size="10.00">aprioriVar</text>
<text text-anchor="start" x="15.5" y="-250.5" font-family="Helvetica,sans-Serif" font-size="10.00">+</text>
<text text-anchor="start" x="28.5" y="-250.5" font-family="Helvetica,sans-Serif" font-size="10.00">minconApriori</text>
<text text-anchor="start" x="15.5" y="-235.5" font-family="Helvetica,sans-Serif" font-size="10.00">+</text>
<text text-anchor="start" x="28.5" y="-235.5" font-family="Helvetica,sans-Serif" font-size="10.00">pos</text>
<text text-anchor="start" x="15.5" y="-220.5" font-family="Helvetica,sans-Serif" font-size="10.00">+</text>
<text text-anchor="start" x="28.5" y="-220.5" font-family="Helvetica,sans-Serif" font-size="10.00">ready</text>
<text text-anchor="start" x="15.5" y="-205.5" font-family="Helvetica,sans-Serif" font-size="10.00">+</text>
<text text-anchor="start" x="28.5" y="-205.5" font-family="Helvetica,sans-Serif" font-size="10.00">antBoresight</text>
<text text-anchor="start" x="15.5" y="-190.5" font-family="Helvetica,sans-Serif" font-size="10.00">+</text>
<text text-anchor="start" x="28.5" y="-190.5" font-family="Helvetica,sans-Serif" font-size="10.00">antAzimuth</text>
<text text-anchor="start" x="15.5" y="-175.5" font-family="Helvetica,sans-Serif" font-size="10.00">+</text>
<text text-anchor="start" x="28.5" y="-175.5" font-family="Helvetica,sans-Serif" font-size="10.00">traceFilename</text>
<text text-anchor="start" x="15.5" y="-160.5" font-family="Helvetica,sans-Serif" font-size="10.00">+</text>
<text text-anchor="start" x="28.5" y="-160.5" font-family="Helvetica,sans-Serif" font-size="10.00">jsonTraceFilename</text>
<text text-anchor="start" x="15.5" y="-145.5" font-family="Helvetica,sans-Serif" font-size="10.00">+</text>
<text text-anchor="start" x="28.5" y="-145.5" font-family="Helvetica,sans-Serif" font-size="10.00">savedSlips</text>
<text text-anchor="start" x="15.5" y="-130.5" font-family="Helvetica,sans-Serif" font-size="10.00">+</text>
<text text-anchor="start" x="28.5" y="-130.5" font-family="Helvetica,sans-Serif" font-size="10.00">failure</text>
<text text-anchor="start" x="15.5" y="-115.5" font-family="Helvetica,sans-Serif" font-size="10.00">+</text>
<text text-anchor="start" x="28.5" y="-115.5" font-family="Helvetica,sans-Serif" font-size="10.00">failureSinex</text>
<text text-anchor="start" x="15.5" y="-100.5" font-family="Helvetica,sans-Serif" font-size="10.00">+</text>
<text text-anchor="start" x="28.5" y="-100.5" font-family="Helvetica,sans-Serif" font-size="10.00">failureAprioriPos</text>
<text text-anchor="start" x="15.5" y="-85.5" font-family="Helvetica,sans-Serif" font-size="10.00">+</text>
<text text-anchor="start" x="28.5" y="-85.5" font-family="Helvetica,sans-Serif" font-size="10.00">failureEccentricity</text>
<text text-anchor="start" x="15.5" y="-70.5" font-family="Helvetica,sans-Serif" font-size="10.00">+</text>
<text text-anchor="start" x="28.5" y="-70.5" font-family="Helvetica,sans-Serif" font-size="10.00">failureAntenna</text>
<text text-anchor="start" x="15.5" y="-55.5" font-family="Helvetica,sans-Serif" font-size="10.00">+</text>
<text text-anchor="start" x="28.5" y="-55.5" font-family="Helvetica,sans-Serif" font-size="10.00">@37</text>
<text text-anchor="start" x="15.5" y="-40.5" font-family="Helvetica,sans-Serif" font-size="10.00">+</text>
<text text-anchor="start" x="28.5" y="-40.5" font-family="Helvetica,sans-Serif" font-size="10.00">pppTideCache</text>
<text text-anchor="start" x="15.5" y="-25.5" font-family="Helvetica,sans-Serif" font-size="10.00">+</text>
<text text-anchor="start" x="28.5" y="-25.5" font-family="Helvetica,sans-Serif" font-size="10.00">pppEopCache</text>
<text text-anchor="start" x="65.5" y="-10.5" font-family="Helvetica,sans-Serif" font-size="10.00"> </text>
<polygon fill="#666666" stroke="#666666" points="11.5,-455.5 11.5,-455.5 123.5,-455.5 123.5,-455.5 11.5,-455.5"/>
<polygon fill="#666666" stroke="#666666" points="11.5,-20.5 11.5,-20.5 26.5,-20.5 26.5,-20.5 11.5,-20.5"/>
<polygon fill="#666666" stroke="#666666" points="26.5,-20.5 26.5,-20.5 123.5,-20.5 123.5,-20.5 26.5,-20.5"/>
<polygon fill="none" stroke="#666666" points="11.5,-4 11.5,-473 123.5,-473 123.5,-4 11.5,-4"/>
</a>
</g>
</g>
<!-- Node1&#45;&gt;Node2 -->
<g id="edge1_Node000001_Node000002" class="edge">
<title>Node1&#45;&gt;Node2</title>
<g id="a_edge1_Node000001_Node000002"><a xlink:title=" ">
<path fill="none" stroke="#63b8ff" d="M67.5,-502.45C67.5,-494.26 67.5,-485.79 67.5,-477.12"/>
<polygon fill="none" stroke="#63b8ff" points="64,-502.65 67.5,-512.65 71,-502.65 64,-502.65"/>
</a>
</g>
</g>
</g>
</svg>
