<?xml version="1.0" encoding="UTF-8" standalone="no"?>
<!DOCTYPE svg PUBLIC "-//W3C//DTD SVG 1.1//EN"
 "http://www.w3.org/Graphics/SVG/1.1/DTD/svg11.dtd">
<!-- Generated by graphviz version 2.43.0 (0)
 -->
<!-- Title: GlobalOptions Pages: 1 -->
<svg width="991pt" height="1157pt"
 viewBox="0.00 0.00 990.50 1157.00" xmlns="http://www.w3.org/2000/svg" xmlns:xlink="http://www.w3.org/1999/xlink">
<g id="graph0" class="graph" transform="scale(1 1) rotate(0) translate(4 1153)">
<title>GlobalOptions</title>
<!-- Node1 -->
<g id="Node000001" class="node">
<title>Node1</title>
<g id="a_Node000001"><a xlink:href="structGlobalOptions.html" target="_top" xlink:title="Options for the general operation of the software.">
<path fill="white" stroke="#666666" stroke-width="2" d="M479,-776C479,-776 316,-776 316,-776 310,-776 304,-770 304,-764 304,-764 304,-12 304,-12 304,-6 310,0 316,0 316,0 479,0 479,0 485,0 491,-6 491,-12 491,-12 491,-764 491,-764 491,-770 485,-776 479,-776"/>
<text text-anchor="start" x="363" y="-760" font-family="Helvetica,sans-Serif" font-size="10.00">GlobalOptions</text>
<text text-anchor="start" x="316.5" y="-745" font-family="Helvetica,sans-Serif" font-size="10.00">+</text>
<text text-anchor="start" x="329.5" y="-745" font-family="Helvetica,sans-Serif" font-size="10.00">sleep_milliseconds</text>
<text text-anchor="start" x="316.5" y="-730" font-family="Helvetica,sans-Serif" font-size="10.00">+</text>
<text text-anchor="start" x="329.5" y="-730" font-family="Helvetica,sans-Serif" font-size="10.00">epoch_interval</text>
<text text-anchor="start" x="316.5" y="-715" font-family="Helvetica,sans-Serif" font-size="10.00">+</text>
<text text-anchor="start" x="329.5" y="-715" font-family="Helvetica,sans-Serif" font-size="10.00">epoch_tolerance</text>
<text text-anchor="start" x="316.5" y="-700" font-family="Helvetica,sans-Serif" font-size="10.00">+</text>
<text text-anchor="start" x="329.5" y="-700" font-family="Helvetica,sans-Serif" font-size="10.00">max_epochs</text>
<text text-anchor="start" x="316.5" y="-685" font-family="Helvetica,sans-Serif" font-size="10.00">+</text>
<text text-anchor="start" x="329.5" y="-685" font-family="Helvetica,sans-Serif" font-size="10.00">leap_seconds</text>
<text text-anchor="start" x="316.5" y="-670" font-family="Helvetica,sans-Serif" font-size="10.00">+</text>
<text text-anchor="start" x="329.5" y="-670" font-family="Helvetica,sans-Serif" font-size="10.00">rinex_comment</text>
<text text-anchor="start" x="316.5" y="-655" font-family="Helvetica,sans-Serif" font-size="10.00">+</text>
<text text-anchor="start" x="329.5" y="-655" font-family="Helvetica,sans-Serif" font-size="10.00">reference_system</text>
<text text-anchor="start" x="316.5" y="-640" font-family="Helvetica,sans-Serif" font-size="10.00">+</text>
<text text-anchor="start" x="329.5" y="-640" font-family="Helvetica,sans-Serif" font-size="10.00">time_system</text>
<text text-anchor="start" x="316.5" y="-625" font-family="Helvetica,sans-Serif" font-size="10.00">+</text>
<text text-anchor="start" x="329.5" y="-625" font-family="Helvetica,sans-Serif" font-size="10.00">ocean_tide_loading</text>
<text text-anchor="start" x="329.5" y="-614" font-family="Helvetica,sans-Serif" font-size="10.00">_model</text>
<text text-anchor="start" x="316.5" y="-599" font-family="Helvetica,sans-Serif" font-size="10.00">+</text>
<text text-anchor="start" x="329.5" y="-599" font-family="Helvetica,sans-Serif" font-size="10.00">simulate_real_time</text>
<text text-anchor="start" x="316.5" y="-584" font-family="Helvetica,sans-Serif" font-size="10.00">+</text>
<text text-anchor="start" x="329.5" y="-584" font-family="Helvetica,sans-Serif" font-size="10.00">process_preprocessor</text>
<text text-anchor="start" x="316.5" y="-569" font-family="Helvetica,sans-Serif" font-size="10.00">+</text>
<text text-anchor="start" x="329.5" y="-569" font-family="Helvetica,sans-Serif" font-size="10.00">process_spp</text>
<text text-anchor="start" x="316.5" y="-554" font-family="Helvetica,sans-Serif" font-size="10.00">+</text>
<text text-anchor="start" x="329.5" y="-554" font-family="Helvetica,sans-Serif" font-size="10.00">process_minimum_constraints</text>
<text text-anchor="start" x="316.5" y="-539" font-family="Helvetica,sans-Serif" font-size="10.00">+</text>
<text text-anchor="start" x="329.5" y="-539" font-family="Helvetica,sans-Serif" font-size="10.00">process_ionosphere</text>
<text text-anchor="start" x="316.5" y="-524" font-family="Helvetica,sans-Serif" font-size="10.00">+</text>
<text text-anchor="start" x="329.5" y="-524" font-family="Helvetica,sans-Serif" font-size="10.00">process_rts</text>
<text text-anchor="start" x="316.5" y="-509" font-family="Helvetica,sans-Serif" font-size="10.00">+</text>
<text text-anchor="start" x="329.5" y="-509" font-family="Helvetica,sans-Serif" font-size="10.00">process_ppp</text>
<text text-anchor="start" x="316.5" y="-494" font-family="Helvetica,sans-Serif" font-size="10.00">+</text>
<text text-anchor="start" x="329.5" y="-494" font-family="Helvetica,sans-Serif" font-size="10.00">process_orbits</text>
<text text-anchor="start" x="316.5" y="-479" font-family="Helvetica,sans-Serif" font-size="10.00">+</text>
<text text-anchor="start" x="329.5" y="-479" font-family="Helvetica,sans-Serif" font-size="10.00">process_meas</text>
<text text-anchor="start" x="316.5" y="-464" font-family="Helvetica,sans-Serif" font-size="10.00">+</text>
<text text-anchor="start" x="329.5" y="-464" font-family="Helvetica,sans-Serif" font-size="10.00">reference_clock</text>
<text text-anchor="start" x="316.5" y="-449" font-family="Helvetica,sans-Serif" font-size="10.00">+</text>
<text text-anchor="start" x="329.5" y="-449" font-family="Helvetica,sans-Serif" font-size="10.00">reference_bias</text>
<text text-anchor="start" x="316.5" y="-434" font-family="Helvetica,sans-Serif" font-size="10.00">+</text>
<text text-anchor="start" x="329.5" y="-434" font-family="Helvetica,sans-Serif" font-size="10.00">pivot_receiver</text>
<text text-anchor="start" x="316.5" y="-419" font-family="Helvetica,sans-Serif" font-size="10.00">+</text>
<text text-anchor="start" x="329.5" y="-419" font-family="Helvetica,sans-Serif" font-size="10.00">interpolate_rec_pco</text>
<text text-anchor="start" x="316.5" y="-404" font-family="Helvetica,sans-Serif" font-size="10.00">+</text>
<text text-anchor="start" x="329.5" y="-404" font-family="Helvetica,sans-Serif" font-size="10.00">auto_fill_pco</text>
<text text-anchor="start" x="316.5" y="-389" font-family="Helvetica,sans-Serif" font-size="10.00">+</text>
<text text-anchor="start" x="329.5" y="-389" font-family="Helvetica,sans-Serif" font-size="10.00">require_apriori_positions</text>
<text text-anchor="start" x="316.5" y="-374" font-family="Helvetica,sans-Serif" font-size="10.00">+</text>
<text text-anchor="start" x="329.5" y="-374" font-family="Helvetica,sans-Serif" font-size="10.00">require_site_eccentricity</text>
<text text-anchor="start" x="316.5" y="-359" font-family="Helvetica,sans-Serif" font-size="10.00">+</text>
<text text-anchor="start" x="329.5" y="-359" font-family="Helvetica,sans-Serif" font-size="10.00">require_sinex_data</text>
<text text-anchor="start" x="316.5" y="-344" font-family="Helvetica,sans-Serif" font-size="10.00">+</text>
<text text-anchor="start" x="329.5" y="-344" font-family="Helvetica,sans-Serif" font-size="10.00">require_antenna_details</text>
<text text-anchor="start" x="316.5" y="-329" font-family="Helvetica,sans-Serif" font-size="10.00">+</text>
<text text-anchor="start" x="329.5" y="-329" font-family="Helvetica,sans-Serif" font-size="10.00">require_reflector_com</text>
<text text-anchor="start" x="316.5" y="-314" font-family="Helvetica,sans-Serif" font-size="10.00">+</text>
<text text-anchor="start" x="329.5" y="-314" font-family="Helvetica,sans-Serif" font-size="10.00">use_tgd_bias</text>
<text text-anchor="start" x="316.5" y="-299" font-family="Helvetica,sans-Serif" font-size="10.00">+</text>
<text text-anchor="start" x="329.5" y="-299" font-family="Helvetica,sans-Serif" font-size="10.00">wait_next_epoch</text>
<text text-anchor="start" x="316.5" y="-284" font-family="Helvetica,sans-Serif" font-size="10.00">+</text>
<text text-anchor="start" x="329.5" y="-284" font-family="Helvetica,sans-Serif" font-size="10.00">max_rec_latency</text>
<text text-anchor="start" x="316.5" y="-269" font-family="Helvetica,sans-Serif" font-size="10.00">+</text>
<text text-anchor="start" x="329.5" y="-269" font-family="Helvetica,sans-Serif" font-size="10.00">require_obs</text>
<text text-anchor="start" x="316.5" y="-254" font-family="Helvetica,sans-Serif" font-size="10.00">+</text>
<text text-anchor="start" x="329.5" y="-254" font-family="Helvetica,sans-Serif" font-size="10.00">assign_closest_epoch</text>
<text text-anchor="start" x="316.5" y="-239" font-family="Helvetica,sans-Serif" font-size="10.00">+</text>
<text text-anchor="start" x="329.5" y="-239" font-family="Helvetica,sans-Serif" font-size="10.00">delete_old_ephemerides</text>
<text text-anchor="start" x="316.5" y="-224" font-family="Helvetica,sans-Serif" font-size="10.00">+</text>
<text text-anchor="start" x="329.5" y="-224" font-family="Helvetica,sans-Serif" font-size="10.00">validity_interval_factor</text>
<text text-anchor="start" x="316.5" y="-209" font-family="Helvetica,sans-Serif" font-size="10.00">+</text>
<text text-anchor="start" x="329.5" y="-209" font-family="Helvetica,sans-Serif" font-size="10.00">ssr_input_antenna_offset</text>
<text text-anchor="start" x="316.5" y="-194" font-family="Helvetica,sans-Serif" font-size="10.00">+</text>
<text text-anchor="start" x="329.5" y="-194" font-family="Helvetica,sans-Serif" font-size="10.00">fixed_phase_bias_var</text>
<text text-anchor="start" x="316.5" y="-179" font-family="Helvetica,sans-Serif" font-size="10.00">+</text>
<text text-anchor="start" x="329.5" y="-179" font-family="Helvetica,sans-Serif" font-size="10.00">adjust_rec_clocks_by_spp</text>
<text text-anchor="start" x="316.5" y="-164" font-family="Helvetica,sans-Serif" font-size="10.00">+</text>
<text text-anchor="start" x="329.5" y="-164" font-family="Helvetica,sans-Serif" font-size="10.00">adjust_clocks_for_jumps_only</text>
<text text-anchor="start" x="316.5" y="-149" font-family="Helvetica,sans-Serif" font-size="10.00">+</text>
<text text-anchor="start" x="329.5" y="-149" font-family="Helvetica,sans-Serif" font-size="10.00">minimise_sat_clock</text>
<text text-anchor="start" x="329.5" y="-138" font-family="Helvetica,sans-Serif" font-size="10.00">_offsets</text>
<text text-anchor="start" x="316.5" y="-123" font-family="Helvetica,sans-Serif" font-size="10.00">+</text>
<text text-anchor="start" x="329.5" y="-123" font-family="Helvetica,sans-Serif" font-size="10.00">minimise_sat_orbit</text>
<text text-anchor="start" x="329.5" y="-112" font-family="Helvetica,sans-Serif" font-size="10.00">_offsets</text>
<text text-anchor="start" x="316.5" y="-97" font-family="Helvetica,sans-Serif" font-size="10.00">+</text>
<text text-anchor="start" x="329.5" y="-97" font-family="Helvetica,sans-Serif" font-size="10.00">minimise_ionosphere</text>
<text text-anchor="start" x="329.5" y="-86" font-family="Helvetica,sans-Serif" font-size="10.00">_offsets</text>
<text text-anchor="start" x="316.5" y="-71" font-family="Helvetica,sans-Serif" font-size="10.00">+</text>
<text text-anchor="start" x="329.5" y="-71" font-family="Helvetica,sans-Serif" font-size="10.00">common_sat_pco</text>
<text text-anchor="start" x="316.5" y="-56" font-family="Helvetica,sans-Serif" font-size="10.00">+</text>
<text text-anchor="start" x="329.5" y="-56" font-family="Helvetica,sans-Serif" font-size="10.00">common_rec_pco</text>
<text text-anchor="start" x="316.5" y="-41" font-family="Helvetica,sans-Serif" font-size="10.00">+</text>
<text text-anchor="start" x="329.5" y="-41" font-family="Helvetica,sans-Serif" font-size="10.00">use_trop_corrections</text>
<text text-anchor="start" x="316.5" y="-26" font-family="Helvetica,sans-Serif" font-size="10.00">+</text>
<text text-anchor="start" x="329.5" y="-26" font-family="Helvetica,sans-Serif" font-size="10.00">predefined_fail</text>
<text text-anchor="start" x="396" y="-11" font-family="Helvetica,sans-Serif" font-size="10.00"> </text>
<polygon fill="#666666" stroke="#666666" points="312.5,-755 312.5,-755 483.5,-755 483.5,-755 312.5,-755"/>
<polygon fill="#666666" stroke="#666666" points="312.5,-21 312.5,-21 327.5,-21 327.5,-21 312.5,-21"/>
<polygon fill="#666666" stroke="#666666" points="327.5,-21 327.5,-21 483.5,-21 483.5,-21 327.5,-21"/>
<polygon fill="none" stroke="#666666" points="312,-4 312,-772 483,-772 483,-4 312,-4"/>
</a>
</g>
</g>
<!-- Node2 -->
<g id="Node000002" class="node">
<title>Node2</title>
<g id="a_Node000002"><a xlink:title=" ">
<path fill="white" stroke="#666666" d="M43,-1028.5C43,-1028.5 12,-1028.5 12,-1028.5 6,-1028.5 0,-1022.5 0,-1016.5 0,-1016.5 0,-983.5 0,-983.5 0,-977.5 6,-971.5 12,-971.5 12,-971.5 43,-971.5 43,-971.5 49,-971.5 55,-977.5 55,-983.5 55,-983.5 55,-1016.5 55,-1016.5 55,-1022.5 49,-1028.5 43,-1028.5"/>
<text text-anchor="start" x="13.5" y="-1012" font-family="Helvetica,sans-Serif" font-size="10.00">ptime</text>
<text text-anchor="start" x="26" y="-997" font-family="Helvetica,sans-Serif" font-size="10.00"> </text>
<text text-anchor="start" x="26" y="-982" font-family="Helvetica,sans-Serif" font-size="10.00"> </text>
<polygon fill="#666666" stroke="#666666" points="8.5,-1007 8.5,-1007 47.5,-1007 47.5,-1007 8.5,-1007"/>
<polygon fill="#666666" stroke="#666666" points="8.5,-992 8.5,-992 47.5,-992 47.5,-992 8.5,-992"/>
<polygon fill="none" stroke="#666666" points="8,-975.5 8,-1024.5 47,-1024.5 47,-975.5 8,-975.5"/>
</a>
</g>
</g>
<!-- Node2&#45;&gt;Node1 -->
<g id="edge1_Node000001_Node000002" class="edge">
<title>Node2&#45;&gt;Node1</title>
<g id="a_edge1_Node000001_Node000002"><a xlink:title=" ">
<path fill="none" stroke="#63b8ff" d="M23.39,-971.22C18.6,-930.59 14.14,-853.35 38.5,-794 92.71,-661.91 209.06,-543.93 294.68,-469.85"/>
<polygon fill="none" stroke="#63b8ff" points="294.8,-469.74 296.75,-462.8 303.91,-461.93 301.96,-468.87 294.8,-469.74"/>
</a>
</g>
<text text-anchor="middle" x="71.5" y="-874" font-family="Helvetica,sans-Serif" font-size="10.00" fill="grey"> +end_epoch</text>
<text text-anchor="middle" x="71.5" y="-863" font-family="Helvetica,sans-Serif" font-size="10.00" fill="grey">+start_epoch</text>
</g>
<!-- Node3 -->
<g id="Node000003" class="node">
<title>Node3</title>
<g id="a_Node000003"><a xlink:title=" ">
<path fill="white" stroke="#666666" d="M131.5,-1028.5C131.5,-1028.5 101.5,-1028.5 101.5,-1028.5 95.5,-1028.5 89.5,-1022.5 89.5,-1016.5 89.5,-1016.5 89.5,-983.5 89.5,-983.5 89.5,-977.5 95.5,-971.5 101.5,-971.5 101.5,-971.5 131.5,-971.5 131.5,-971.5 137.5,-971.5 143.5,-977.5 143.5,-983.5 143.5,-983.5 143.5,-1016.5 143.5,-1016.5 143.5,-1022.5 137.5,-1028.5 131.5,-1028.5"/>
<text text-anchor="start" x="102.5" y="-1012" font-family="Helvetica,sans-Serif" font-size="10.00">string</text>
<text text-anchor="start" x="114.5" y="-997" font-family="Helvetica,sans-Serif" font-size="10.00"> </text>
<text text-anchor="start" x="114.5" y="-982" font-family="Helvetica,sans-Serif" font-size="10.00"> </text>
<polygon fill="#666666" stroke="#666666" points="97.5,-1007 97.5,-1007 135.5,-1007 135.5,-1007 97.5,-1007"/>
<polygon fill="#666666" stroke="#666666" points="97.5,-992 97.5,-992 135.5,-992 135.5,-992 97.5,-992"/>
<polygon fill="none" stroke="#666666" points="97.5,-975.5 97.5,-1024.5 135.5,-1024.5 135.5,-975.5 97.5,-975.5"/>
</a>
</g>
</g>
<!-- Node3&#45;&gt;Node1 -->
<g id="edge2_Node000001_Node000003" class="edge">
<title>Node3&#45;&gt;Node1</title>
<g id="a_edge2_Node000001_Node000003"><a xlink:title=" ">
<path fill="none" stroke="#63b8ff" d="M112.33,-971.32C107.34,-931.14 101.93,-854.83 121.5,-794 156.93,-683.89 232.55,-576.53 295.69,-500.03"/>
<polygon fill="none" stroke="#63b8ff" points="296.05,-499.61 296.81,-492.44 303.72,-490.39 302.96,-497.56 296.05,-499.61"/>
</a>
</g>
<text text-anchor="middle" x="170" y="-940" font-family="Helvetica,sans-Serif" font-size="10.00" fill="grey"> +ac_contact</text>
<text text-anchor="middle" x="170" y="-929" font-family="Helvetica,sans-Serif" font-size="10.00" fill="grey">+analysis_agency</text>
<text text-anchor="middle" x="170" y="-918" font-family="Helvetica,sans-Serif" font-size="10.00" fill="grey">+analysis_centre</text>
<text text-anchor="middle" x="170" y="-907" font-family="Helvetica,sans-Serif" font-size="10.00" fill="grey">+analysis_software</text>
<text text-anchor="start" x="121.5" y="-896" font-family="Helvetica,sans-Serif" font-size="10.00" fill="grey">+analysis_software</text>
<text text-anchor="middle" x="170" y="-885" font-family="Helvetica,sans-Serif" font-size="10.00" fill="grey">_version</text>
<text text-anchor="start" x="121.5" y="-874" font-family="Helvetica,sans-Serif" font-size="10.00" fill="grey">+atmospheric_tide</text>
<text text-anchor="middle" x="170" y="-863" font-family="Helvetica,sans-Serif" font-size="10.00" fill="grey">_loading_model</text>
<text text-anchor="middle" x="170" y="-852" font-family="Helvetica,sans-Serif" font-size="10.00" fill="grey">+config_description</text>
<text text-anchor="middle" x="170" y="-841" font-family="Helvetica,sans-Serif" font-size="10.00" fill="grey">+config_details</text>
<text text-anchor="middle" x="170" y="-830" font-family="Helvetica,sans-Serif" font-size="10.00" fill="grey">+geoid_model</text>
<text text-anchor="start" x="121.5" y="-819" font-family="Helvetica,sans-Serif" font-size="10.00" fill="grey">+gradient_mapping</text>
<text text-anchor="middle" x="170" y="-808" font-family="Helvetica,sans-Serif" font-size="10.00" fill="grey">_function</text>
<text text-anchor="middle" x="170" y="-797" font-family="Helvetica,sans-Serif" font-size="10.00" fill="grey">...</text>
</g>
<!-- Node4 -->
<g id="Node000004" class="node">
<title>Node4</title>
<g id="a_Node000004"><a xlink:title=" ">
<path fill="white" stroke="#666666" d="M275.5,-1028.5C275.5,-1028.5 173.5,-1028.5 173.5,-1028.5 167.5,-1028.5 161.5,-1022.5 161.5,-1016.5 161.5,-1016.5 161.5,-983.5 161.5,-983.5 161.5,-977.5 167.5,-971.5 173.5,-971.5 173.5,-971.5 275.5,-971.5 275.5,-971.5 281.5,-971.5 287.5,-977.5 287.5,-983.5 287.5,-983.5 287.5,-1016.5 287.5,-1016.5 287.5,-1022.5 281.5,-1028.5 275.5,-1028.5"/>
<text text-anchor="start" x="174.5" y="-1012" font-family="Helvetica,sans-Serif" font-size="10.00">map&lt; E_Sys, bool &gt;</text>
<text text-anchor="start" x="222.5" y="-997" font-family="Helvetica,sans-Serif" font-size="10.00"> </text>
<text text-anchor="start" x="222.5" y="-982" font-family="Helvetica,sans-Serif" font-size="10.00"> </text>
<polygon fill="#666666" stroke="#666666" points="169.5,-1007 169.5,-1007 279.5,-1007 279.5,-1007 169.5,-1007"/>
<polygon fill="#666666" stroke="#666666" points="169.5,-992 169.5,-992 279.5,-992 279.5,-992 169.5,-992"/>
<polygon fill="none" stroke="#666666" points="169.5,-975.5 169.5,-1024.5 279.5,-1024.5 279.5,-975.5 169.5,-975.5"/>
</a>
</g>
</g>
<!-- Node4&#45;&gt;Node1 -->
<g id="edge3_Node000001_Node000004" class="edge">
<title>Node4&#45;&gt;Node1</title>
<g id="a_edge3_Node000001_Node000004"><a xlink:title=" ">
<path fill="none" stroke="#63b8ff" d="M222.77,-971.43C220.94,-931.71 219.94,-856.31 233.5,-794 248.19,-726.52 273.17,-655.82 299.26,-592.72"/>
<polygon fill="none" stroke="#63b8ff" points="299.35,-592.52 297.97,-585.44 303.97,-581.44 305.35,-588.52 299.35,-592.52"/>
</a>
</g>
<text text-anchor="start" x="233.5" y="-912.5" font-family="Helvetica,sans-Serif" font-size="10.00" fill="grey"> +constrain_best_ambiguity</text>
<text text-anchor="middle" x="302.5" y="-901.5" font-family="Helvetica,sans-Serif" font-size="10.00" fill="grey">_integer</text>
<text text-anchor="middle" x="302.5" y="-890.5" font-family="Helvetica,sans-Serif" font-size="10.00" fill="grey">+network_amb_pivot</text>
<text text-anchor="middle" x="302.5" y="-879.5" font-family="Helvetica,sans-Serif" font-size="10.00" fill="grey">+process_sys</text>
<text text-anchor="middle" x="302.5" y="-868.5" font-family="Helvetica,sans-Serif" font-size="10.00" fill="grey">+receiver_amb_pivot</text>
<text text-anchor="middle" x="302.5" y="-857.5" font-family="Helvetica,sans-Serif" font-size="10.00" fill="grey">+reject_eclipse</text>
<text text-anchor="middle" x="302.5" y="-846.5" font-family="Helvetica,sans-Serif" font-size="10.00" fill="grey">+solve_amb_for</text>
<text text-anchor="middle" x="302.5" y="-835.5" font-family="Helvetica,sans-Serif" font-size="10.00" fill="grey">+use_for_iono_model</text>
<text text-anchor="middle" x="302.5" y="-824.5" font-family="Helvetica,sans-Serif" font-size="10.00" fill="grey">+use_iono_corrections</text>
</g>
<!-- Node5 -->
<g id="Node000005" class="node">
<title>Node5</title>
<g id="a_Node000005"><a xlink:title=" ">
<path fill="white" stroke="#666666" d="M453.5,-1149C453.5,-1149 429.5,-1149 429.5,-1149 423.5,-1149 417.5,-1143 417.5,-1137 417.5,-1137 417.5,-1104 417.5,-1104 417.5,-1098 423.5,-1092 429.5,-1092 429.5,-1092 453.5,-1092 453.5,-1092 459.5,-1092 465.5,-1098 465.5,-1104 465.5,-1104 465.5,-1137 465.5,-1137 465.5,-1143 459.5,-1149 453.5,-1149"/>
<text text-anchor="start" x="430.5" y="-1132.5" font-family="Helvetica,sans-Serif" font-size="10.00">map</text>
<text text-anchor="start" x="439.5" y="-1117.5" font-family="Helvetica,sans-Serif" font-size="10.00"> </text>
<text text-anchor="start" x="439.5" y="-1102.5" font-family="Helvetica,sans-Serif" font-size="10.00"> </text>
<polygon fill="#666666" stroke="#666666" points="425.5,-1127.5 425.5,-1127.5 457.5,-1127.5 457.5,-1127.5 425.5,-1127.5"/>
<polygon fill="#666666" stroke="#666666" points="425.5,-1112.5 425.5,-1112.5 457.5,-1112.5 457.5,-1112.5 425.5,-1112.5"/>
<polygon fill="none" stroke="#666666" points="425.5,-1096 425.5,-1145 457.5,-1145 457.5,-1096 425.5,-1096"/>
</a>
</g>
</g>
<!-- Node5&#45;&gt;Node4 -->
<g id="edge4_Node000004_Node000005" class="edge">
<title>Node5&#45;&gt;Node4</title>
<g id="a_edge4_Node000004_Node000005"><a xlink:title=" ">
<path fill="none" stroke="orange" d="M407.23,-1113.33C377.01,-1106.83 332.61,-1094.6 298.5,-1074 278.73,-1062.06 260.23,-1043.81 246.67,-1028.54"/>
<polygon fill="orange" stroke="orange" points="406.79,-1116.82 417.29,-1115.4 408.2,-1109.96 406.79,-1116.82"/>
</a>
</g>
<text text-anchor="middle" x="339.5" y="-1060.5" font-family="Helvetica,sans-Serif" font-size="10.00" fill="grey"> &lt; E_Sys, bool &gt;</text>
</g>
<!-- Node6 -->
<g id="Node000006" class="node">
<title>Node6</title>
<g id="a_Node000006"><a xlink:title=" ">
<path fill="white" stroke="#666666" d="M419,-1034C419,-1034 318,-1034 318,-1034 312,-1034 306,-1028 306,-1022 306,-1022 306,-978 306,-978 306,-972 312,-966 318,-966 318,-966 419,-966 419,-966 425,-966 431,-972 431,-978 431,-978 431,-1022 431,-1022 431,-1028 425,-1034 419,-1034"/>
<text text-anchor="start" x="319.5" y="-1018" font-family="Helvetica,sans-Serif" font-size="10.00">map&lt; E_Sys, vector</text>
<text text-anchor="start" x="324.5" y="-1007" font-family="Helvetica,sans-Serif" font-size="10.00">&lt; E_ObsCode &gt; &gt;</text>
<text text-anchor="start" x="367" y="-992" font-family="Helvetica,sans-Serif" font-size="10.00"> </text>
<text text-anchor="start" x="367" y="-977" font-family="Helvetica,sans-Serif" font-size="10.00"> </text>
<polygon fill="#666666" stroke="#666666" points="314.5,-1002 314.5,-1002 423.5,-1002 423.5,-1002 314.5,-1002"/>
<polygon fill="#666666" stroke="#666666" points="314.5,-987 314.5,-987 423.5,-987 423.5,-987 314.5,-987"/>
<polygon fill="none" stroke="#666666" points="314,-970 314,-1030 423,-1030 423,-970 314,-970"/>
</a>
</g>
</g>
<!-- Node5&#45;&gt;Node6 -->
<g id="edge6_Node000006_Node000005" class="edge">
<title>Node5&#45;&gt;Node6</title>
<g id="a_edge6_Node000006_Node000005"><a xlink:title=" ">
<path fill="none" stroke="orange" d="M410.01,-1093.01C404.32,-1087.17 398.82,-1080.71 394.5,-1074 386.71,-1061.9 380.89,-1047.16 376.75,-1034.1"/>
<polygon fill="orange" stroke="orange" points="407.64,-1095.59 417.26,-1100.04 412.52,-1090.57 407.64,-1095.59"/>
</a>
</g>
<text text-anchor="start" x="394.5" y="-1066" font-family="Helvetica,sans-Serif" font-size="10.00" fill="grey"> &lt; E_Sys, vector&lt; E</text>
<text text-anchor="middle" x="443" y="-1055" font-family="Helvetica,sans-Serif" font-size="10.00" fill="grey">_ObsCode &gt; &gt;</text>
</g>
<!-- Node7 -->
<g id="Node000007" class="node">
<title>Node7</title>
<g id="a_Node000007"><a xlink:title=" ">
<path fill="white" stroke="#666666" d="M616,-1028.5C616,-1028.5 461,-1028.5 461,-1028.5 455,-1028.5 449,-1022.5 449,-1016.5 449,-1016.5 449,-983.5 449,-983.5 449,-977.5 455,-971.5 461,-971.5 461,-971.5 616,-971.5 616,-971.5 622,-971.5 628,-977.5 628,-983.5 628,-983.5 628,-1016.5 628,-1016.5 628,-1022.5 622,-1028.5 616,-1028.5"/>
<text text-anchor="start" x="462.5" y="-1012" font-family="Helvetica,sans-Serif" font-size="10.00">map&lt; E_Sys, E_NavMsgType &gt;</text>
<text text-anchor="start" x="537" y="-997" font-family="Helvetica,sans-Serif" font-size="10.00"> </text>
<text text-anchor="start" x="537" y="-982" font-family="Helvetica,sans-Serif" font-size="10.00"> </text>
<polygon fill="#666666" stroke="#666666" points="457.5,-1007 457.5,-1007 620.5,-1007 620.5,-1007 457.5,-1007"/>
<polygon fill="#666666" stroke="#666666" points="457.5,-992 457.5,-992 620.5,-992 620.5,-992 457.5,-992"/>
<polygon fill="none" stroke="#666666" points="457,-975.5 457,-1024.5 620,-1024.5 620,-975.5 457,-975.5"/>
</a>
</g>
</g>
<!-- Node5&#45;&gt;Node7 -->
<g id="edge8_Node000007_Node000005" class="edge">
<title>Node5&#45;&gt;Node7</title>
<g id="a_edge8_Node000007_Node000005"><a xlink:title=" ">
<path fill="none" stroke="orange" d="M473.06,-1093.09C479.47,-1087.11 485.94,-1080.57 491.5,-1074 503.38,-1059.96 514.61,-1042.72 523.11,-1028.53"/>
<polygon fill="orange" stroke="orange" points="470.68,-1090.53 465.62,-1099.84 475.38,-1095.71 470.68,-1090.53"/>
</a>
</g>
<text text-anchor="middle" x="574.5" y="-1060.5" font-family="Helvetica,sans-Serif" font-size="10.00" fill="grey"> &lt; E_Sys, E_NavMsgType &gt;</text>
</g>
<!-- Node10 -->
<g id="Node000010" class="node">
<title>Node10</title>
<g id="a_Node000010"><a xlink:title=" ">
<path fill="white" stroke="#666666" d="M767,-1028.5C767,-1028.5 658,-1028.5 658,-1028.5 652,-1028.5 646,-1022.5 646,-1016.5 646,-1016.5 646,-983.5 646,-983.5 646,-977.5 652,-971.5 658,-971.5 658,-971.5 767,-971.5 767,-971.5 773,-971.5 779,-977.5 779,-983.5 779,-983.5 779,-1016.5 779,-1016.5 779,-1022.5 773,-1028.5 767,-1028.5"/>
<text text-anchor="start" x="659.5" y="-1012" font-family="Helvetica,sans-Serif" font-size="10.00">map&lt; E_Sys, string &gt;</text>
<text text-anchor="start" x="711" y="-997" font-family="Helvetica,sans-Serif" font-size="10.00"> </text>
<text text-anchor="start" x="711" y="-982" font-family="Helvetica,sans-Serif" font-size="10.00"> </text>
<polygon fill="#666666" stroke="#666666" points="654.5,-1007 654.5,-1007 771.5,-1007 771.5,-1007 654.5,-1007"/>
<polygon fill="#666666" stroke="#666666" points="654.5,-992 654.5,-992 771.5,-992 771.5,-992 654.5,-992"/>
<polygon fill="none" stroke="#666666" points="654,-975.5 654,-1024.5 771,-1024.5 771,-975.5 654,-975.5"/>
</a>
</g>
</g>
<!-- Node5&#45;&gt;Node10 -->
<g id="edge12_Node000010_Node000005" class="edge">
<title>Node5&#45;&gt;Node10</title>
<g id="a_edge12_Node000010_Node000005"><a xlink:title=" ">
<path fill="none" stroke="orange" d="M475.92,-1118.07C518.4,-1114.97 591.62,-1105.12 645.5,-1074 664.86,-1062.81 681.84,-1044.16 693.86,-1028.52"/>
<polygon fill="orange" stroke="orange" points="475.56,-1114.59 465.81,-1118.73 476.01,-1121.57 475.56,-1114.59"/>
</a>
</g>
<text text-anchor="middle" x="717.5" y="-1060.5" font-family="Helvetica,sans-Serif" font-size="10.00" fill="grey"> &lt; E_Sys, string &gt;</text>
</g>
<!-- Node6&#45;&gt;Node1 -->
<g id="edge5_Node000001_Node000006" class="edge">
<title>Node6&#45;&gt;Node1</title>
<g id="a_edge5_Node000001_Node000006"><a xlink:title=" ">
<path fill="none" stroke="#63b8ff" d="M373.52,-965.86C374.29,-959.92 374.99,-953.79 375.5,-948 380.05,-896.39 383.65,-842.02 386.51,-788.28"/>
<polygon fill="none" stroke="#63b8ff" points="386.53,-788.08 382.84,-781.88 387.15,-776.1 390.83,-782.3 386.53,-788.08"/>
</a>
</g>
<text text-anchor="middle" x="428.5" y="-868.5" font-family="Helvetica,sans-Serif" font-size="10.00" fill="grey"> +code_priorities</text>
</g>
<!-- Node7&#45;&gt;Node1 -->
<g id="edge7_Node000001_Node000007" class="edge">
<title>Node7&#45;&gt;Node1</title>
<g id="a_edge7_Node000001_Node000007"><a xlink:title=" ">
<path fill="none" stroke="#63b8ff" d="M532.08,-971.2C523.63,-934.68 507.75,-865.98 489.78,-788.21"/>
<polygon fill="none" stroke="#63b8ff" points="489.69,-787.86 484.45,-782.91 486.99,-776.16 492.24,-781.11 489.69,-787.86"/>
</a>
</g>
<text text-anchor="middle" x="572" y="-868.5" font-family="Helvetica,sans-Serif" font-size="10.00" fill="grey"> +used_nav_types</text>
</g>
<!-- Node8 -->
<g id="Node000008" class="node">
<title>Node8</title>
<g id="a_Node000008"><a xlink:title=" ">
<path fill="white" stroke="#666666" d="M920,-1028.5C920,-1028.5 809,-1028.5 809,-1028.5 803,-1028.5 797,-1022.5 797,-1016.5 797,-1016.5 797,-983.5 797,-983.5 797,-977.5 803,-971.5 809,-971.5 809,-971.5 920,-971.5 920,-971.5 926,-971.5 932,-977.5 932,-983.5 932,-983.5 932,-1016.5 932,-1016.5 932,-1022.5 926,-1028.5 920,-1028.5"/>
<text text-anchor="start" x="810.5" y="-1012" font-family="Helvetica,sans-Serif" font-size="10.00">vector&lt; E_ObsCode &gt;</text>
<text text-anchor="start" x="863" y="-997" font-family="Helvetica,sans-Serif" font-size="10.00"> </text>
<text text-anchor="start" x="863" y="-982" font-family="Helvetica,sans-Serif" font-size="10.00"> </text>
<polygon fill="#666666" stroke="#666666" points="805.5,-1007 805.5,-1007 924.5,-1007 924.5,-1007 805.5,-1007"/>
<polygon fill="#666666" stroke="#666666" points="805.5,-992 805.5,-992 924.5,-992 924.5,-992 805.5,-992"/>
<polygon fill="none" stroke="#666666" points="805,-975.5 805,-1024.5 924,-1024.5 924,-975.5 805,-975.5"/>
</a>
</g>
</g>
<!-- Node8&#45;&gt;Node1 -->
<g id="edge9_Node000001_Node000008" class="edge">
<title>Node8&#45;&gt;Node1</title>
<g id="a_edge9_Node000001_Node000008"><a xlink:title=" ">
<path fill="none" stroke="#63b8ff" d="M861.59,-971.36C856.26,-930.24 842.24,-851.63 808.5,-794 729.59,-659.23 594.37,-538.41 500.69,-464.53"/>
<polygon fill="none" stroke="#63b8ff" points="500.63,-464.49 493.44,-463.93 491.19,-457.08 498.38,-457.64 500.63,-464.49"/>
</a>
</g>
<text text-anchor="middle" x="920.5" y="-868.5" font-family="Helvetica,sans-Serif" font-size="10.00" fill="grey"> +code_priorities_default</text>
</g>
<!-- Node9 -->
<g id="Node000009" class="node">
<title>Node9</title>
<g id="a_Node000009"><a xlink:title=" ">
<path fill="white" stroke="#666666" d="M881,-1149C881,-1149 848,-1149 848,-1149 842,-1149 836,-1143 836,-1137 836,-1137 836,-1104 836,-1104 836,-1098 842,-1092 848,-1092 848,-1092 881,-1092 881,-1092 887,-1092 893,-1098 893,-1104 893,-1104 893,-1137 893,-1137 893,-1143 887,-1149 881,-1149"/>
<text text-anchor="start" x="849.5" y="-1132.5" font-family="Helvetica,sans-Serif" font-size="10.00">vector</text>
<text text-anchor="start" x="863" y="-1117.5" font-family="Helvetica,sans-Serif" font-size="10.00"> </text>
<text text-anchor="start" x="863" y="-1102.5" font-family="Helvetica,sans-Serif" font-size="10.00"> </text>
<polygon fill="#666666" stroke="#666666" points="844.5,-1127.5 844.5,-1127.5 885.5,-1127.5 885.5,-1127.5 844.5,-1127.5"/>
<polygon fill="#666666" stroke="#666666" points="844.5,-1112.5 844.5,-1112.5 885.5,-1112.5 885.5,-1112.5 844.5,-1112.5"/>
<polygon fill="none" stroke="#666666" points="844,-1096 844,-1145 885,-1145 885,-1096 844,-1096"/>
</a>
</g>
</g>
<!-- Node9&#45;&gt;Node8 -->
<g id="edge10_Node000008_Node000009" class="edge">
<title>Node9&#45;&gt;Node8</title>
<g id="a_edge10_Node000008_Node000009"><a xlink:title=" ">
<path fill="none" stroke="orange" d="M864.5,-1081.43C864.5,-1064.25 864.5,-1044.33 864.5,-1028.61"/>
<polygon fill="orange" stroke="orange" points="861,-1081.72 864.5,-1091.72 868,-1081.72 861,-1081.72"/>
</a>
</g>
<text text-anchor="middle" x="905" y="-1060.5" font-family="Helvetica,sans-Serif" font-size="10.00" fill="grey"> &lt; E_ObsCode &gt;</text>
</g>
<!-- Node10&#45;&gt;Node1 -->
<g id="edge11_Node000001_Node000010" class="edge">
<title>Node10&#45;&gt;Node1</title>
<g id="a_edge11_Node000001_Node000010"><a xlink:title=" ">
<path fill="none" stroke="#63b8ff" d="M701.18,-971.46C684.66,-931.77 652.54,-856.41 621.5,-794 583.04,-716.67 537.39,-632.88 497.37,-561.69"/>
<polygon fill="none" stroke="#63b8ff" points="497.14,-561.29 490.71,-558.02 491.25,-550.83 497.68,-554.1 497.14,-561.29"/>
</a>
</g>
<text text-anchor="middle" x="747.5" y="-874" font-family="Helvetica,sans-Serif" font-size="10.00" fill="grey"> +constrain_clock</text>
<text text-anchor="middle" x="747.5" y="-863" font-family="Helvetica,sans-Serif" font-size="10.00" fill="grey">+constrain_phase_bias</text>
</g>
</g>
</svg>
