<?xml version="1.0" encoding="UTF-8" standalone="no"?>
<!DOCTYPE svg PUBLIC "-//W3C//DTD SVG 1.1//EN"
 "http://www.w3.org/Graphics/SVG/1.1/DTD/svg11.dtd">
<!-- Generated by graphviz version 2.43.0 (0)
 -->
<!-- Title: NetworkStatistics::onChunkReceivedStatistics Pages: 1 -->
<svg width="375pt" height="38pt"
 viewBox="0.00 0.00 375.00 38.00" xmlns="http://www.w3.org/2000/svg" xmlns:xlink="http://www.w3.org/1999/xlink">
<g id="graph0" class="graph" transform="scale(1 1) rotate(0) translate(4 34)">
<title>NetworkStatistics::onChunkReceivedStatistics</title>
<!-- Node1 -->
<g id="Node000001" class="node">
<title>Node1</title>
<g id="a_Node000001"><a xlink:href="structNetworkStatistics.html#ae5b148edcc8d178932e524e789d7baed" target="_top" xlink:title=" ">
<path fill="#fff0f0" stroke="red" stroke-width="2" d="M357,-30C357,-30 228,-30 228,-30 223,-30 218,-25 218,-20 218,-20 218,-10 218,-10 218,-5 223,0 228,0 228,0 357,0 357,0 362,0 367,-5 367,-10 367,-10 367,-20 367,-20 367,-25 362,-30 357,-30"/>
<text text-anchor="start" x="226" y="-18" font-family="Helvetica,sans-Serif" font-size="10.00">NetworkStatistics::</text>
<text text-anchor="middle" x="292.5" y="-7" font-family="Helvetica,sans-Serif" font-size="10.00">onChunkReceivedStatistics</text>
</a>
</g>
</g>
<!-- Node2 -->
<g id="Node000002" class="node">
<title>Node2</title>
<g id="a_Node000002"><a xlink:href="structNtripResponder.html#a874ea233cd0c2b2139c68b6d9009112a" target="_top" xlink:title=" ">
<path fill="#fff0f0" stroke="red" d="M172,-30C172,-30 10,-30 10,-30 5,-30 0,-25 0,-20 0,-20 0,-10 0,-10 0,-5 5,0 10,0 10,0 172,0 172,0 177,0 182,-5 182,-10 182,-10 182,-20 182,-20 182,-25 177,-30 172,-30"/>
<text text-anchor="start" x="8" y="-18" font-family="Helvetica,sans-Serif" font-size="10.00">NtripResponder::requestResponse</text>
<text text-anchor="middle" x="91" y="-7" font-family="Helvetica,sans-Serif" font-size="10.00">Handler</text>
</a>
</g>
</g>
<!-- Node1&#45;&gt;Node2 -->
<g id="edge1_Node000001_Node000002" class="edge">
<title>Node1&#45;&gt;Node2</title>
<g id="a_edge1_Node000001_Node000002"><a xlink:title=" ">
<path fill="none" stroke="#63b8ff" d="M207.66,-15C199.29,-15 190.76,-15 182.33,-15"/>
<polygon fill="#63b8ff" stroke="#63b8ff" points="207.78,-18.5 217.78,-15 207.78,-11.5 207.78,-18.5"/>
</a>
</g>
</g>
</g>
</svg>
