<?xml version="1.0" encoding="UTF-8" standalone="no"?>
<!DOCTYPE svg PUBLIC "-//W3C//DTD SVG 1.1//EN"
 "http://www.w3.org/Graphics/SVG/1.1/DTD/svg11.dtd">
<!-- Generated by graphviz version 2.43.0 (0)
 -->
<!-- Title: RejectCallbackDetails Pages: 1 -->
<svg width="1253pt" height="1782pt"
 viewBox="0.00 0.00 1253.00 1782.00" xmlns="http://www.w3.org/2000/svg" xmlns:xlink="http://www.w3.org/1999/xlink">
<g id="graph0" class="graph" transform="scale(1 1) rotate(0) translate(4 1778)">
<title>RejectCallbackDetails</title>
<!-- Node1 -->
<g id="Node000001" class="node">
<title>Node1</title>
<g id="a_Node000001"><a xlink:href="structRejectCallbackDetails.html" target="_top" xlink:title=" ">
<path fill="white" stroke="#666666" stroke-width="2" d="M540,-117C540,-117 412,-117 412,-117 406,-117 400,-111 400,-105 400,-105 400,-27 400,-27 400,-21 406,-15 412,-15 412,-15 540,-15 540,-15 546,-15 552,-21 552,-27 552,-27 552,-105 552,-105 552,-111 546,-117 540,-117"/>
<text text-anchor="start" x="422" y="-101" font-family="Helvetica,sans-Serif" font-size="10.00">RejectCallbackDetails</text>
<text text-anchor="start" x="412" y="-86" font-family="Helvetica,sans-Serif" font-size="10.00">+</text>
<text text-anchor="start" x="425" y="-86" font-family="Helvetica,sans-Serif" font-size="10.00">trace</text>
<text text-anchor="start" x="412" y="-71" font-family="Helvetica,sans-Serif" font-size="10.00">+</text>
<text text-anchor="start" x="425" y="-71" font-family="Helvetica,sans-Serif" font-size="10.00">measIndex</text>
<text text-anchor="start" x="412" y="-56" font-family="Helvetica,sans-Serif" font-size="10.00">+</text>
<text text-anchor="start" x="425" y="-56" font-family="Helvetica,sans-Serif" font-size="10.00">postFit</text>
<text text-anchor="start" x="412" y="-41" font-family="Helvetica,sans-Serif" font-size="10.00">+</text>
<text text-anchor="start" x="425" y="-41" font-family="Helvetica,sans-Serif" font-size="10.00">scalar</text>
<text text-anchor="start" x="412" y="-26" font-family="Helvetica,sans-Serif" font-size="10.00">+</text>
<text text-anchor="start" x="425" y="-26" font-family="Helvetica,sans-Serif" font-size="10.00">RejectCallbackDetails()</text>
<polygon fill="#666666" stroke="#666666" points="408,-96 408,-96 544,-96 544,-96 408,-96"/>
<polygon fill="#666666" stroke="#666666" points="408,-36 408,-36 423,-36 423,-36 408,-36"/>
<polygon fill="#666666" stroke="#666666" points="423,-36 423,-36 544,-36 544,-36 423,-36"/>
<polygon fill="none" stroke="#666666" points="408,-19 408,-113 544,-113 544,-19 408,-19"/>
</a>
</g>
</g>
<!-- Node2 -->
<g id="Node000002" class="node">
<title>Node2</title>
<g id="a_Node000002"><a xlink:href="structKFState.html" target="_top" xlink:title="Wrapper to simplify copying with default copy but overriding slightly.">
<path fill="white" stroke="#666666" d="M333,-791C333,-791 195,-791 195,-791 189,-791 183,-785 183,-779 183,-779 183,-191 183,-191 183,-185 189,-179 195,-179 195,-179 333,-179 333,-179 339,-179 345,-185 345,-191 345,-191 345,-779 345,-779 345,-785 339,-791 333,-791"/>
<text text-anchor="start" x="245" y="-775" font-family="Helvetica,sans-Serif" font-size="10.00">KFState</text>
<text text-anchor="start" x="262" y="-760" font-family="Helvetica,sans-Serif" font-size="10.00"> </text>
<text text-anchor="start" x="195" y="-745" font-family="Helvetica,sans-Serif" font-size="10.00">+</text>
<text text-anchor="start" x="208" y="-745" font-family="Helvetica,sans-Serif" font-size="10.00">KFState()</text>
<text text-anchor="start" x="195" y="-730" font-family="Helvetica,sans-Serif" font-size="10.00">+</text>
<text text-anchor="start" x="208" y="-730" font-family="Helvetica,sans-Serif" font-size="10.00">KFState()</text>
<text text-anchor="start" x="195" y="-715" font-family="Helvetica,sans-Serif" font-size="10.00">+</text>
<text text-anchor="start" x="208" y="-715" font-family="Helvetica,sans-Serif" font-size="10.00">operator=()</text>
<text text-anchor="start" x="195" y="-700" font-family="Helvetica,sans-Serif" font-size="10.00">+</text>
<text text-anchor="start" x="208" y="-700" font-family="Helvetica,sans-Serif" font-size="10.00">serialize()</text>
<text text-anchor="start" x="195" y="-685" font-family="Helvetica,sans-Serif" font-size="10.00">+</text>
<text text-anchor="start" x="208" y="-685" font-family="Helvetica,sans-Serif" font-size="10.00">initFilterEpoch()</text>
<text text-anchor="start" x="195" y="-670" font-family="Helvetica,sans-Serif" font-size="10.00">+</text>
<text text-anchor="start" x="208" y="-670" font-family="Helvetica,sans-Serif" font-size="10.00">getKFIndex()</text>
<text text-anchor="start" x="195" y="-655" font-family="Helvetica,sans-Serif" font-size="10.00">+</text>
<text text-anchor="start" x="208" y="-655" font-family="Helvetica,sans-Serif" font-size="10.00">getKFValue()</text>
<text text-anchor="start" x="195" y="-640" font-family="Helvetica,sans-Serif" font-size="10.00">+</text>
<text text-anchor="start" x="208" y="-640" font-family="Helvetica,sans-Serif" font-size="10.00">getPseudoValue()</text>
<text text-anchor="start" x="195" y="-625" font-family="Helvetica,sans-Serif" font-size="10.00">+</text>
<text text-anchor="start" x="208" y="-625" font-family="Helvetica,sans-Serif" font-size="10.00">getKFSigma()</text>
<text text-anchor="start" x="195" y="-610" font-family="Helvetica,sans-Serif" font-size="10.00">+</text>
<text text-anchor="start" x="208" y="-610" font-family="Helvetica,sans-Serif" font-size="10.00">addKFState()</text>
<text text-anchor="start" x="195" y="-595" font-family="Helvetica,sans-Serif" font-size="10.00">+</text>
<text text-anchor="start" x="208" y="-595" font-family="Helvetica,sans-Serif" font-size="10.00">addPseudoState()</text>
<text text-anchor="start" x="195" y="-580" font-family="Helvetica,sans-Serif" font-size="10.00">+</text>
<text text-anchor="start" x="208" y="-580" font-family="Helvetica,sans-Serif" font-size="10.00">setExponentialNoise()</text>
<text text-anchor="start" x="195" y="-565" font-family="Helvetica,sans-Serif" font-size="10.00">+</text>
<text text-anchor="start" x="208" y="-565" font-family="Helvetica,sans-Serif" font-size="10.00">setAccelerator()</text>
<text text-anchor="start" x="195" y="-550" font-family="Helvetica,sans-Serif" font-size="10.00">+</text>
<text text-anchor="start" x="208" y="-550" font-family="Helvetica,sans-Serif" font-size="10.00">setKFTrans()</text>
<text text-anchor="start" x="195" y="-535" font-family="Helvetica,sans-Serif" font-size="10.00">+</text>
<text text-anchor="start" x="208" y="-535" font-family="Helvetica,sans-Serif" font-size="10.00">setKFTransRate()</text>
<text text-anchor="start" x="195" y="-520" font-family="Helvetica,sans-Serif" font-size="10.00">+</text>
<text text-anchor="start" x="208" y="-520" font-family="Helvetica,sans-Serif" font-size="10.00">addNoiseElement()</text>
<text text-anchor="start" x="195" y="-505" font-family="Helvetica,sans-Serif" font-size="10.00">+</text>
<text text-anchor="start" x="208" y="-505" font-family="Helvetica,sans-Serif" font-size="10.00">removeState()</text>
<text text-anchor="start" x="195" y="-490" font-family="Helvetica,sans-Serif" font-size="10.00">+</text>
<text text-anchor="start" x="208" y="-490" font-family="Helvetica,sans-Serif" font-size="10.00">stateTransition()</text>
<text text-anchor="start" x="195" y="-475" font-family="Helvetica,sans-Serif" font-size="10.00">+</text>
<text text-anchor="start" x="208" y="-475" font-family="Helvetica,sans-Serif" font-size="10.00">manualStateTransition()</text>
<text text-anchor="start" x="195" y="-460" font-family="Helvetica,sans-Serif" font-size="10.00">+</text>
<text text-anchor="start" x="208" y="-460" font-family="Helvetica,sans-Serif" font-size="10.00">preFitSigmaCheck()</text>
<text text-anchor="start" x="195" y="-445" font-family="Helvetica,sans-Serif" font-size="10.00">+</text>
<text text-anchor="start" x="208" y="-445" font-family="Helvetica,sans-Serif" font-size="10.00">postFitSigmaChecks()</text>
<text text-anchor="start" x="195" y="-430" font-family="Helvetica,sans-Serif" font-size="10.00">+</text>
<text text-anchor="start" x="208" y="-430" font-family="Helvetica,sans-Serif" font-size="10.00">stateChiSquare()</text>
<text text-anchor="start" x="195" y="-415" font-family="Helvetica,sans-Serif" font-size="10.00">+</text>
<text text-anchor="start" x="208" y="-415" font-family="Helvetica,sans-Serif" font-size="10.00">measChiSquare()</text>
<text text-anchor="start" x="195" y="-400" font-family="Helvetica,sans-Serif" font-size="10.00">+</text>
<text text-anchor="start" x="208" y="-400" font-family="Helvetica,sans-Serif" font-size="10.00">innovChiSquare()</text>
<text text-anchor="start" x="195" y="-385" font-family="Helvetica,sans-Serif" font-size="10.00">+</text>
<text text-anchor="start" x="208" y="-385" font-family="Helvetica,sans-Serif" font-size="10.00">kFilter()</text>
<text text-anchor="start" x="195" y="-370" font-family="Helvetica,sans-Serif" font-size="10.00">+</text>
<text text-anchor="start" x="208" y="-370" font-family="Helvetica,sans-Serif" font-size="10.00">chiQC()</text>
<text text-anchor="start" x="195" y="-355" font-family="Helvetica,sans-Serif" font-size="10.00">+</text>
<text text-anchor="start" x="208" y="-355" font-family="Helvetica,sans-Serif" font-size="10.00">outputStates()</text>
<text text-anchor="start" x="195" y="-340" font-family="Helvetica,sans-Serif" font-size="10.00">+</text>
<text text-anchor="start" x="208" y="-340" font-family="Helvetica,sans-Serif" font-size="10.00">outputConditionNumber()</text>
<text text-anchor="start" x="195" y="-325" font-family="Helvetica,sans-Serif" font-size="10.00">+</text>
<text text-anchor="start" x="208" y="-325" font-family="Helvetica,sans-Serif" font-size="10.00">outputCorrelations()</text>
<text text-anchor="start" x="195" y="-310" font-family="Helvetica,sans-Serif" font-size="10.00">+</text>
<text text-anchor="start" x="208" y="-310" font-family="Helvetica,sans-Serif" font-size="10.00">outputMeasurements()</text>
<text text-anchor="start" x="195" y="-295" font-family="Helvetica,sans-Serif" font-size="10.00">+</text>
<text text-anchor="start" x="208" y="-295" font-family="Helvetica,sans-Serif" font-size="10.00">doStateRejectCallbacks()</text>
<text text-anchor="start" x="195" y="-280" font-family="Helvetica,sans-Serif" font-size="10.00">+</text>
<text text-anchor="start" x="208" y="-280" font-family="Helvetica,sans-Serif" font-size="10.00">doMeasRejectCallbacks()</text>
<text text-anchor="start" x="195" y="-265" font-family="Helvetica,sans-Serif" font-size="10.00">+</text>
<text text-anchor="start" x="208" y="-265" font-family="Helvetica,sans-Serif" font-size="10.00">filterKalman()</text>
<text text-anchor="start" x="195" y="-250" font-family="Helvetica,sans-Serif" font-size="10.00">+</text>
<text text-anchor="start" x="208" y="-250" font-family="Helvetica,sans-Serif" font-size="10.00">leastSquareInitStates()</text>
<text text-anchor="start" x="195" y="-235" font-family="Helvetica,sans-Serif" font-size="10.00">+</text>
<text text-anchor="start" x="208" y="-235" font-family="Helvetica,sans-Serif" font-size="10.00">getSubState()</text>
<text text-anchor="start" x="195" y="-220" font-family="Helvetica,sans-Serif" font-size="10.00">+</text>
<text text-anchor="start" x="208" y="-220" font-family="Helvetica,sans-Serif" font-size="10.00">getSubState()</text>
<text text-anchor="start" x="195" y="-205" font-family="Helvetica,sans-Serif" font-size="10.00">+</text>
<text text-anchor="start" x="208" y="-205" font-family="Helvetica,sans-Serif" font-size="10.00">getSubState()</text>
<text text-anchor="start" x="195" y="-190" font-family="Helvetica,sans-Serif" font-size="10.00">+</text>
<text text-anchor="start" x="208" y="-190" font-family="Helvetica,sans-Serif" font-size="10.00">decomposedStateKeys()</text>
<polygon fill="#666666" stroke="#666666" points="191,-770 191,-770 337,-770 337,-770 191,-770"/>
<polygon fill="#666666" stroke="#666666" points="191,-755 191,-755 337,-755 337,-755 191,-755"/>
<polygon fill="none" stroke="#666666" points="191,-183 191,-787 337,-787 337,-183 191,-183"/>
</a>
</g>
</g>
<!-- Node2&#45;&gt;Node1 -->
<g id="edge1_Node000001_Node000002" class="edge">
<title>Node2&#45;&gt;Node1</title>
<g id="a_edge1_Node000001_Node000002"><a xlink:title=" ">
<path fill="none" stroke="#63b8ff" d="M217.37,-178.71C222.59,-168.54 229.08,-158.91 237,-150 259.75,-124.42 358.24,-144.77 390,-132 395.82,-129.66 401.59,-126.82 407.22,-123.65"/>
<polygon fill="none" stroke="#63b8ff" points="407.61,-123.42 410.66,-116.88 417.87,-117.19 414.81,-123.72 407.61,-123.42"/>
</a>
</g>
<text text-anchor="middle" x="260.5" y="-153" font-family="Helvetica,sans-Serif" font-size="10.00" fill="grey"> +kfState</text>
</g>
<!-- Node3 -->
<g id="Node000003" class="node">
<title>Node3</title>
<g id="a_Node000003"><a xlink:href="structKFState__.html" target="_top" xlink:title="Kalman filter object.">
<path fill="#fff0f0" stroke="red" d="M369.5,-132C369.5,-132 218.5,-132 218.5,-132 212.5,-132 206.5,-126 206.5,-120 206.5,-120 206.5,-12 206.5,-12 206.5,-6 212.5,0 218.5,0 218.5,0 369.5,0 369.5,0 375.5,0 381.5,-6 381.5,-12 381.5,-12 381.5,-120 381.5,-120 381.5,-126 375.5,-132 369.5,-132"/>
<text text-anchor="start" x="273" y="-116" font-family="Helvetica,sans-Serif" font-size="10.00">KFState_</text>
<text text-anchor="start" x="219" y="-101" font-family="Helvetica,sans-Serif" font-size="10.00">+</text>
<text text-anchor="start" x="232" y="-101" font-family="Helvetica,sans-Serif" font-size="10.00">lsqRequired</text>
<text text-anchor="start" x="219" y="-86" font-family="Helvetica,sans-Serif" font-size="10.00">+</text>
<text text-anchor="start" x="232" y="-86" font-family="Helvetica,sans-Serif" font-size="10.00">chiQCPass</text>
<text text-anchor="start" x="219" y="-71" font-family="Helvetica,sans-Serif" font-size="10.00">+</text>
<text text-anchor="start" x="232" y="-71" font-family="Helvetica,sans-Serif" font-size="10.00">chi</text>
<text text-anchor="start" x="219" y="-56" font-family="Helvetica,sans-Serif" font-size="10.00">+</text>
<text text-anchor="start" x="232" y="-56" font-family="Helvetica,sans-Serif" font-size="10.00">dof</text>
<text text-anchor="start" x="219" y="-41" font-family="Helvetica,sans-Serif" font-size="10.00">+</text>
<text text-anchor="start" x="232" y="-41" font-family="Helvetica,sans-Serif" font-size="10.00">output_residuals</text>
<text text-anchor="start" x="219" y="-26" font-family="Helvetica,sans-Serif" font-size="10.00">+</text>
<text text-anchor="start" x="232" y="-26" font-family="Helvetica,sans-Serif" font-size="10.00">outputMongoMeasurements</text>
<text text-anchor="start" x="292.5" y="-11" font-family="Helvetica,sans-Serif" font-size="10.00"> </text>
<polygon fill="red" stroke="red" points="215,-111 215,-111 374,-111 374,-111 215,-111"/>
<polygon fill="red" stroke="red" points="215,-21 215,-21 230,-21 230,-21 215,-21"/>
<polygon fill="red" stroke="red" points="230,-21 230,-21 374,-21 374,-21 230,-21"/>
<polygon fill="none" stroke="red" points="214.5,-4 214.5,-128 373.5,-128 373.5,-4 214.5,-4"/>
</a>
</g>
</g>
<!-- Node2&#45;&gt;Node3 -->
<g id="edge7_Node000003_Node000002" class="edge">
<title>Node2&#45;&gt;Node3</title>
<g id="a_edge7_Node000003_Node000002"><a xlink:title=" ">
<path fill="none" stroke="#63b8ff" d="M285.96,-178.75C286.83,-166.7 287.65,-155.2 288.43,-144.48"/>
<polygon fill="none" stroke="#63b8ff" points="288.44,-144.24 284.88,-137.96 289.3,-132.27 292.86,-138.54 288.44,-144.24"/>
</a>
</g>
<text text-anchor="middle" x="325.5" y="-153" font-family="Helvetica,sans-Serif" font-size="10.00" fill="grey"> +alternate_ptr</text>
</g>
<!-- Node3&#45;&gt;Node2 -->
<g id="edge2_Node000002_Node000003" class="edge">
<title>Node3&#45;&gt;Node2</title>
<g id="a_edge2_Node000002_Node000003"><a xlink:title=" ">
<path fill="none" stroke="#63b8ff" d="M276.16,-141.93C275.74,-144.65 275.34,-147.34 275,-150 273.77,-159.49 272.65,-169.15 271.64,-178.91"/>
<polygon fill="none" stroke="#63b8ff" points="279.62,-142.48 277.87,-132.03 272.72,-141.29 279.62,-142.48"/>
</a>
</g>
</g>
<!-- Node10 -->
<g id="Node000010" class="node">
<title>Node10</title>
<g id="a_Node000010"><a xlink:href="structGTime.html" target="_top" xlink:title="Time structure used throughout this software.">
<path fill="#fff0f0" stroke="red" d="M367,-1774C367,-1774 245,-1774 245,-1774 239,-1774 233,-1768 233,-1762 233,-1762 233,-1114 233,-1114 233,-1108 239,-1102 245,-1102 245,-1102 367,-1102 367,-1102 373,-1102 379,-1108 379,-1114 379,-1114 379,-1762 379,-1762 379,-1768 373,-1774 367,-1774"/>
<text text-anchor="start" x="289.5" y="-1758" font-family="Helvetica,sans-Serif" font-size="10.00">GTime</text>
<text text-anchor="start" x="245" y="-1743" font-family="Helvetica,sans-Serif" font-size="10.00">+</text>
<text text-anchor="start" x="258" y="-1743" font-family="Helvetica,sans-Serif" font-size="10.00">cacheN</text>
<text text-anchor="start" x="245" y="-1728" font-family="Helvetica,sans-Serif" font-size="10.00">+</text>
<text text-anchor="start" x="258" y="-1728" font-family="Helvetica,sans-Serif" font-size="10.00">cacheTime</text>
<text text-anchor="start" x="245" y="-1713" font-family="Helvetica,sans-Serif" font-size="10.00">+</text>
<text text-anchor="start" x="258" y="-1713" font-family="Helvetica,sans-Serif" font-size="10.00">bigTime</text>
<text text-anchor="start" x="245" y="-1698" font-family="Helvetica,sans-Serif" font-size="10.00">+</text>
<text text-anchor="start" x="258" y="-1698" font-family="Helvetica,sans-Serif" font-size="10.00">GTime()</text>
<text text-anchor="start" x="245" y="-1683" font-family="Helvetica,sans-Serif" font-size="10.00">+</text>
<text text-anchor="start" x="258" y="-1683" font-family="Helvetica,sans-Serif" font-size="10.00">GTime()</text>
<text text-anchor="start" x="245" y="-1668" font-family="Helvetica,sans-Serif" font-size="10.00">+</text>
<text text-anchor="start" x="258" y="-1668" font-family="Helvetica,sans-Serif" font-size="10.00">GTime()</text>
<text text-anchor="start" x="245" y="-1653" font-family="Helvetica,sans-Serif" font-size="10.00">+</text>
<text text-anchor="start" x="258" y="-1653" font-family="Helvetica,sans-Serif" font-size="10.00">to_string()</text>
<text text-anchor="start" x="245" y="-1638" font-family="Helvetica,sans-Serif" font-size="10.00">+</text>
<text text-anchor="start" x="258" y="-1638" font-family="Helvetica,sans-Serif" font-size="10.00">to_ISOstring()</text>
<text text-anchor="start" x="245" y="-1623" font-family="Helvetica,sans-Serif" font-size="10.00">+</text>
<text text-anchor="start" x="258" y="-1623" font-family="Helvetica,sans-Serif" font-size="10.00">to_decYear()</text>
<text text-anchor="start" x="245" y="-1608" font-family="Helvetica,sans-Serif" font-size="10.00">+</text>
<text text-anchor="start" x="258" y="-1608" font-family="Helvetica,sans-Serif" font-size="10.00">operator==()</text>
<text text-anchor="start" x="245" y="-1593" font-family="Helvetica,sans-Serif" font-size="10.00">+</text>
<text text-anchor="start" x="258" y="-1593" font-family="Helvetica,sans-Serif" font-size="10.00">operator!=()</text>
<text text-anchor="start" x="245" y="-1578" font-family="Helvetica,sans-Serif" font-size="10.00">+</text>
<text text-anchor="start" x="258" y="-1578" font-family="Helvetica,sans-Serif" font-size="10.00">operator&lt;()</text>
<text text-anchor="start" x="245" y="-1563" font-family="Helvetica,sans-Serif" font-size="10.00">+</text>
<text text-anchor="start" x="258" y="-1563" font-family="Helvetica,sans-Serif" font-size="10.00">operator&gt;()</text>
<text text-anchor="start" x="245" y="-1548" font-family="Helvetica,sans-Serif" font-size="10.00">+</text>
<text text-anchor="start" x="258" y="-1548" font-family="Helvetica,sans-Serif" font-size="10.00">operator&gt;=()</text>
<text text-anchor="start" x="245" y="-1533" font-family="Helvetica,sans-Serif" font-size="10.00">+</text>
<text text-anchor="start" x="258" y="-1533" font-family="Helvetica,sans-Serif" font-size="10.00">operator+()</text>
<text text-anchor="start" x="245" y="-1518" font-family="Helvetica,sans-Serif" font-size="10.00">+</text>
<text text-anchor="start" x="258" y="-1518" font-family="Helvetica,sans-Serif" font-size="10.00">operator+()</text>
<text text-anchor="start" x="245" y="-1503" font-family="Helvetica,sans-Serif" font-size="10.00">+</text>
<text text-anchor="start" x="258" y="-1503" font-family="Helvetica,sans-Serif" font-size="10.00">operator+()</text>
<text text-anchor="start" x="245" y="-1488" font-family="Helvetica,sans-Serif" font-size="10.00">+</text>
<text text-anchor="start" x="258" y="-1488" font-family="Helvetica,sans-Serif" font-size="10.00">operator+=()</text>
<text text-anchor="start" x="245" y="-1473" font-family="Helvetica,sans-Serif" font-size="10.00">+</text>
<text text-anchor="start" x="258" y="-1473" font-family="Helvetica,sans-Serif" font-size="10.00">operator&#45;=()</text>
<text text-anchor="start" x="245" y="-1458" font-family="Helvetica,sans-Serif" font-size="10.00">+</text>
<text text-anchor="start" x="258" y="-1458" font-family="Helvetica,sans-Serif" font-size="10.00">operator&#45;()</text>
<text text-anchor="start" x="245" y="-1443" font-family="Helvetica,sans-Serif" font-size="10.00">+</text>
<text text-anchor="start" x="258" y="-1443" font-family="Helvetica,sans-Serif" font-size="10.00">operator&#45;()</text>
<text text-anchor="start" x="245" y="-1428" font-family="Helvetica,sans-Serif" font-size="10.00">+</text>
<text text-anchor="start" x="258" y="-1428" font-family="Helvetica,sans-Serif" font-size="10.00">operator&#45;()</text>
<text text-anchor="start" x="245" y="-1413" font-family="Helvetica,sans-Serif" font-size="10.00">+</text>
<text text-anchor="start" x="258" y="-1413" font-family="Helvetica,sans-Serif" font-size="10.00">operator++()</text>
<text text-anchor="start" x="245" y="-1398" font-family="Helvetica,sans-Serif" font-size="10.00">+</text>
<text text-anchor="start" x="258" y="-1398" font-family="Helvetica,sans-Serif" font-size="10.00">GTime()</text>
<text text-anchor="start" x="245" y="-1383" font-family="Helvetica,sans-Serif" font-size="10.00">+</text>
<text text-anchor="start" x="258" y="-1383" font-family="Helvetica,sans-Serif" font-size="10.00">GTime()</text>
<text text-anchor="start" x="245" y="-1368" font-family="Helvetica,sans-Serif" font-size="10.00">+</text>
<text text-anchor="start" x="258" y="-1368" font-family="Helvetica,sans-Serif" font-size="10.00">GTime()</text>
<text text-anchor="start" x="245" y="-1353" font-family="Helvetica,sans-Serif" font-size="10.00">+</text>
<text text-anchor="start" x="258" y="-1353" font-family="Helvetica,sans-Serif" font-size="10.00">GTime()</text>
<text text-anchor="start" x="245" y="-1338" font-family="Helvetica,sans-Serif" font-size="10.00">+</text>
<text text-anchor="start" x="258" y="-1338" font-family="Helvetica,sans-Serif" font-size="10.00">GTime()</text>
<text text-anchor="start" x="245" y="-1323" font-family="Helvetica,sans-Serif" font-size="10.00">+</text>
<text text-anchor="start" x="258" y="-1323" font-family="Helvetica,sans-Serif" font-size="10.00">serialize()</text>
<text text-anchor="start" x="245" y="-1308" font-family="Helvetica,sans-Serif" font-size="10.00">+</text>
<text text-anchor="start" x="258" y="-1308" font-family="Helvetica,sans-Serif" font-size="10.00">floorTime()</text>
<text text-anchor="start" x="245" y="-1293" font-family="Helvetica,sans-Serif" font-size="10.00">+</text>
<text text-anchor="start" x="258" y="-1293" font-family="Helvetica,sans-Serif" font-size="10.00">gregString()</text>
<text text-anchor="start" x="245" y="-1278" font-family="Helvetica,sans-Serif" font-size="10.00">+</text>
<text text-anchor="start" x="258" y="-1278" font-family="Helvetica,sans-Serif" font-size="10.00">operator long double()</text>
<text text-anchor="start" x="245" y="-1263" font-family="Helvetica,sans-Serif" font-size="10.00">+</text>
<text text-anchor="start" x="258" y="-1263" font-family="Helvetica,sans-Serif" font-size="10.00">operator MjDateTT()</text>
<text text-anchor="start" x="245" y="-1248" font-family="Helvetica,sans-Serif" font-size="10.00">+</text>
<text text-anchor="start" x="258" y="-1248" font-family="Helvetica,sans-Serif" font-size="10.00">operator GEpoch()</text>
<text text-anchor="start" x="245" y="-1233" font-family="Helvetica,sans-Serif" font-size="10.00">+</text>
<text text-anchor="start" x="258" y="-1233" font-family="Helvetica,sans-Serif" font-size="10.00">operator UtcTime()</text>
<text text-anchor="start" x="245" y="-1218" font-family="Helvetica,sans-Serif" font-size="10.00">+</text>
<text text-anchor="start" x="258" y="-1218" font-family="Helvetica,sans-Serif" font-size="10.00">operator GWeek()</text>
<text text-anchor="start" x="245" y="-1203" font-family="Helvetica,sans-Serif" font-size="10.00">+</text>
<text text-anchor="start" x="258" y="-1203" font-family="Helvetica,sans-Serif" font-size="10.00">operator BWeek()</text>
<text text-anchor="start" x="245" y="-1188" font-family="Helvetica,sans-Serif" font-size="10.00">+</text>
<text text-anchor="start" x="258" y="-1188" font-family="Helvetica,sans-Serif" font-size="10.00">operator GTow()</text>
<text text-anchor="start" x="245" y="-1173" font-family="Helvetica,sans-Serif" font-size="10.00">+</text>
<text text-anchor="start" x="258" y="-1173" font-family="Helvetica,sans-Serif" font-size="10.00">operator BTow()</text>
<text text-anchor="start" x="245" y="-1158" font-family="Helvetica,sans-Serif" font-size="10.00">+</text>
<text text-anchor="start" x="258" y="-1158" font-family="Helvetica,sans-Serif" font-size="10.00">operator PTime()</text>
<text text-anchor="start" x="245" y="-1143" font-family="Helvetica,sans-Serif" font-size="10.00">+</text>
<text text-anchor="start" x="258" y="-1143" font-family="Helvetica,sans-Serif" font-size="10.00">operator string()</text>
<text text-anchor="start" x="245" y="-1128" font-family="Helvetica,sans-Serif" font-size="10.00">+</text>
<text text-anchor="start" x="258" y="-1128" font-family="Helvetica,sans-Serif" font-size="10.00">operator RTod()</text>
<text text-anchor="start" x="245" y="-1113" font-family="Helvetica,sans-Serif" font-size="10.00">+</text>
<text text-anchor="start" x="258" y="-1113" font-family="Helvetica,sans-Serif" font-size="10.00">noTime()</text>
<polygon fill="red" stroke="red" points="241,-1753 241,-1753 371,-1753 371,-1753 241,-1753"/>
<polygon fill="red" stroke="red" points="241,-1708 241,-1708 256,-1708 256,-1708 241,-1708"/>
<polygon fill="red" stroke="red" points="256,-1708 256,-1708 371,-1708 371,-1708 256,-1708"/>
<polygon fill="none" stroke="red" points="241,-1106 241,-1770 371,-1770 371,-1106 241,-1106"/>
</a>
</g>
</g>
<!-- Node10&#45;&gt;Node3 -->
<g id="edge3_Node000003_Node000010" class="edge">
<title>Node10&#45;&gt;Node3</title>
<g id="a_edge3_Node000003_Node000010"><a xlink:title=" ">
<path fill="none" stroke="#63b8ff" d="M232.92,-1143.05C209.09,-1033.32 185.75,-907.17 174,-791 146.63,-520.38 65.59,-428.46 174,-179 179.91,-165.39 188.39,-152.68 198.14,-141.07"/>
<polygon fill="none" stroke="#63b8ff" points="198.23,-140.97 199.23,-133.83 206.2,-132 205.21,-139.14 198.23,-140.97"/>
</a>
</g>
<text text-anchor="middle" x="201" y="-839.5" font-family="Helvetica,sans-Serif" font-size="10.00" fill="grey"> +time</text>
</g>
<!-- Node27 -->
<g id="Node000027" class="node">
<title>Node27</title>
<g id="a_Node000027"><a xlink:href="structKFKey.html" target="_top" xlink:title="Keys used to interface with Kalman filter objects.">
<path fill="#fff0f0" stroke="red" d="M352.5,-1055C352.5,-1055 259.5,-1055 259.5,-1055 253.5,-1055 247.5,-1049 247.5,-1043 247.5,-1043 247.5,-905 247.5,-905 247.5,-899 253.5,-893 259.5,-893 259.5,-893 352.5,-893 352.5,-893 358.5,-893 364.5,-899 364.5,-905 364.5,-905 364.5,-1043 364.5,-1043 364.5,-1049 358.5,-1055 352.5,-1055"/>
<text text-anchor="start" x="291" y="-1039" font-family="Helvetica,sans-Serif" font-size="10.00">KFKey</text>
<text text-anchor="start" x="260" y="-1024" font-family="Helvetica,sans-Serif" font-size="10.00">+</text>
<text text-anchor="start" x="273" y="-1024" font-family="Helvetica,sans-Serif" font-size="10.00">type</text>
<text text-anchor="start" x="260" y="-1009" font-family="Helvetica,sans-Serif" font-size="10.00">+</text>
<text text-anchor="start" x="273" y="-1009" font-family="Helvetica,sans-Serif" font-size="10.00">num</text>
<text text-anchor="start" x="260" y="-994" font-family="Helvetica,sans-Serif" font-size="10.00">+</text>
<text text-anchor="start" x="273" y="-994" font-family="Helvetica,sans-Serif" font-size="10.00">operator!=()</text>
<text text-anchor="start" x="260" y="-979" font-family="Helvetica,sans-Serif" font-size="10.00">+</text>
<text text-anchor="start" x="273" y="-979" font-family="Helvetica,sans-Serif" font-size="10.00">operator==()</text>
<text text-anchor="start" x="260" y="-964" font-family="Helvetica,sans-Serif" font-size="10.00">+</text>
<text text-anchor="start" x="273" y="-964" font-family="Helvetica,sans-Serif" font-size="10.00">operator&lt;()</text>
<text text-anchor="start" x="260" y="-949" font-family="Helvetica,sans-Serif" font-size="10.00">+</text>
<text text-anchor="start" x="273" y="-949" font-family="Helvetica,sans-Serif" font-size="10.00">operator string()</text>
<text text-anchor="start" x="260" y="-934" font-family="Helvetica,sans-Serif" font-size="10.00">+</text>
<text text-anchor="start" x="273" y="-934" font-family="Helvetica,sans-Serif" font-size="10.00">commaString()</text>
<text text-anchor="start" x="260" y="-919" font-family="Helvetica,sans-Serif" font-size="10.00">+</text>
<text text-anchor="start" x="273" y="-919" font-family="Helvetica,sans-Serif" font-size="10.00">serialize()</text>
<text text-anchor="start" x="260" y="-904" font-family="Helvetica,sans-Serif" font-size="10.00">+</text>
<text text-anchor="start" x="273" y="-904" font-family="Helvetica,sans-Serif" font-size="10.00">emptyString()</text>
<polygon fill="red" stroke="red" points="256,-1034 256,-1034 357,-1034 357,-1034 256,-1034"/>
<polygon fill="red" stroke="red" points="256,-1004 256,-1004 271,-1004 271,-1004 256,-1004"/>
<polygon fill="red" stroke="red" points="271,-1004 271,-1004 357,-1004 357,-1004 271,-1004"/>
<polygon fill="none" stroke="red" points="255.5,-897 255.5,-1051 356.5,-1051 356.5,-897 255.5,-897"/>
</a>
</g>
</g>
<!-- Node10&#45;&gt;Node27 -->
<g id="edge10_Node000027_Node000010" class="edge">
<title>Node10&#45;&gt;Node27</title>
<g id="a_edge10_Node000027_Node000010"><a xlink:title=" ">
<path fill="none" stroke="#63b8ff" d="M306,-1101.85C306,-1089.81 306,-1078.24 306,-1067.32"/>
<polygon fill="none" stroke="#63b8ff" points="306,-1067.29 302,-1061.29 306,-1055.29 310,-1061.29 306,-1067.29"/>
</a>
</g>
<text text-anchor="middle" x="349" y="-1076" font-family="Helvetica,sans-Serif" font-size="10.00" fill="grey"> +estimatedTime</text>
</g>
<!-- Node61 -->
<g id="Node000061" class="node">
<title>Node61</title>
<g id="a_Node000061"><a xlink:href="structKFMeas.html" target="_top" xlink:title="Object to hold measurements, design matrices, and residuals for multiple observations.">
<path fill="white" stroke="#666666" d="M829,-543.5C829,-543.5 737,-543.5 737,-543.5 731,-543.5 725,-537.5 725,-531.5 725,-531.5 725,-438.5 725,-438.5 725,-432.5 731,-426.5 737,-426.5 737,-426.5 829,-426.5 829,-426.5 835,-426.5 841,-432.5 841,-438.5 841,-438.5 841,-531.5 841,-531.5 841,-537.5 835,-543.5 829,-543.5"/>
<text text-anchor="start" x="763" y="-527" font-family="Helvetica,sans-Serif" font-size="10.00">KFMeas</text>
<text text-anchor="start" x="781" y="-512" font-family="Helvetica,sans-Serif" font-size="10.00"> </text>
<text text-anchor="start" x="737" y="-497" font-family="Helvetica,sans-Serif" font-size="10.00">+</text>
<text text-anchor="start" x="750" y="-497" font-family="Helvetica,sans-Serif" font-size="10.00">KFMeas()</text>
<text text-anchor="start" x="737" y="-482" font-family="Helvetica,sans-Serif" font-size="10.00">+</text>
<text text-anchor="start" x="750" y="-482" font-family="Helvetica,sans-Serif" font-size="10.00">KFMeas()</text>
<text text-anchor="start" x="737" y="-467" font-family="Helvetica,sans-Serif" font-size="10.00">+</text>
<text text-anchor="start" x="750" y="-467" font-family="Helvetica,sans-Serif" font-size="10.00">KFMeas()</text>
<text text-anchor="start" x="737" y="-452" font-family="Helvetica,sans-Serif" font-size="10.00">+</text>
<text text-anchor="start" x="750" y="-452" font-family="Helvetica,sans-Serif" font-size="10.00">getNoiseIndex()</text>
<text text-anchor="start" x="737" y="-437" font-family="Helvetica,sans-Serif" font-size="10.00">+</text>
<text text-anchor="start" x="750" y="-437" font-family="Helvetica,sans-Serif" font-size="10.00">serialize()</text>
<polygon fill="#666666" stroke="#666666" points="733,-522 733,-522 833,-522 833,-522 733,-522"/>
<polygon fill="#666666" stroke="#666666" points="733,-507 733,-507 833,-507 833,-507 733,-507"/>
<polygon fill="none" stroke="#666666" points="733,-430.5 733,-539.5 833,-539.5 833,-430.5 733,-430.5"/>
</a>
</g>
</g>
<!-- Node10&#45;&gt;Node61 -->
<g id="edge12_Node000061_Node000010" class="edge">
<title>Node10&#45;&gt;Node61</title>
<g id="a_edge12_Node000061_Node000010"><a xlink:title=" ">
<path fill="none" stroke="#63b8ff" d="M379.21,-1430.83C554.22,-1411.68 995.95,-1336.3 1180,-1055 1311.7,-853.7 996.32,-620.2 851.25,-527.24"/>
<polygon fill="none" stroke="#63b8ff" points="851.24,-527.23 844.03,-527.39 841.11,-520.79 848.32,-520.64 851.24,-527.23"/>
</a>
</g>
<text text-anchor="middle" x="1228" y="-971.5" font-family="Helvetica,sans-Serif" font-size="10.00" fill="grey"> +time</text>
</g>
<!-- Node11 -->
<g id="Node000011" class="node">
<title>Node11</title>
<g id="a_Node000011"><a xlink:title=" ">
<path fill="white" stroke="#666666" d="M460,-1002.5C460,-1002.5 414,-1002.5 414,-1002.5 408,-1002.5 402,-996.5 402,-990.5 402,-990.5 402,-957.5 402,-957.5 402,-951.5 408,-945.5 414,-945.5 414,-945.5 460,-945.5 460,-945.5 466,-945.5 472,-951.5 472,-957.5 472,-957.5 472,-990.5 472,-990.5 472,-996.5 466,-1002.5 460,-1002.5"/>
<text text-anchor="start" x="415" y="-986" font-family="Helvetica,sans-Serif" font-size="10.00">VectorXd</text>
<text text-anchor="start" x="435" y="-971" font-family="Helvetica,sans-Serif" font-size="10.00"> </text>
<text text-anchor="start" x="435" y="-956" font-family="Helvetica,sans-Serif" font-size="10.00"> </text>
<polygon fill="#666666" stroke="#666666" points="410,-981 410,-981 464,-981 464,-981 410,-981"/>
<polygon fill="#666666" stroke="#666666" points="410,-966 410,-966 464,-966 464,-966 410,-966"/>
<polygon fill="none" stroke="#666666" points="410,-949.5 410,-998.5 464,-998.5 464,-949.5 410,-949.5"/>
</a>
</g>
</g>
<!-- Node11&#45;&gt;Node3 -->
<g id="edge4_Node000003_Node000011" class="edge">
<title>Node11&#45;&gt;Node3</title>
<g id="a_edge4_Node000003_Node000011"><a xlink:title=" ">
<path fill="none" stroke="#63b8ff" d="M437.92,-945.31C442.15,-813.08 458.09,-249.42 425,-179 416.78,-161.51 404.37,-145.71 390.4,-131.87"/>
<polygon fill="none" stroke="#63b8ff" points="390.26,-131.74 383.15,-130.53 381.53,-123.51 388.64,-124.71 390.26,-131.74"/>
</a>
</g>
<text text-anchor="middle" x="458" y="-488" font-family="Helvetica,sans-Serif" font-size="10.00" fill="grey"> +dx</text>
<text text-anchor="middle" x="458" y="-477" font-family="Helvetica,sans-Serif" font-size="10.00" fill="grey">+x</text>
</g>
<!-- Node11&#45;&gt;Node61 -->
<g id="edge13_Node000061_Node000011" class="edge">
<title>Node11&#45;&gt;Node61</title>
<g id="a_edge13_Node000061_Node000011"><a xlink:title=" ">
<path fill="none" stroke="#63b8ff" d="M436.8,-945.21C438.19,-907.75 446.79,-841.98 488,-809 526.82,-777.94 673.29,-823.4 711,-791 777.86,-733.56 788.93,-626.65 788.05,-555.91"/>
<polygon fill="none" stroke="#63b8ff" points="788.04,-555.57 783.91,-549.66 787.77,-543.57 791.9,-549.48 788.04,-555.57"/>
</a>
</g>
<text text-anchor="middle" x="523" y="-867" font-family="Helvetica,sans-Serif" font-size="10.00" fill="grey"> +V</text>
<text text-anchor="middle" x="523" y="-856" font-family="Helvetica,sans-Serif" font-size="10.00" fill="grey">+VV</text>
<text text-anchor="middle" x="523" y="-845" font-family="Helvetica,sans-Serif" font-size="10.00" fill="grey">+W</text>
<text text-anchor="middle" x="523" y="-834" font-family="Helvetica,sans-Serif" font-size="10.00" fill="grey">+Y</text>
<text text-anchor="start" x="488" y="-823" font-family="Helvetica,sans-Serif" font-size="10.00" fill="grey">+uncorrelated</text>
<text text-anchor="middle" x="523" y="-812" font-family="Helvetica,sans-Serif" font-size="10.00" fill="grey">Noise</text>
</g>
<!-- Node12 -->
<g id="Node000012" class="node">
<title>Node12</title>
<g id="a_Node000012"><a xlink:title=" ">
<path fill="white" stroke="#666666" d="M550.5,-1002.5C550.5,-1002.5 503.5,-1002.5 503.5,-1002.5 497.5,-1002.5 491.5,-996.5 491.5,-990.5 491.5,-990.5 491.5,-957.5 491.5,-957.5 491.5,-951.5 497.5,-945.5 503.5,-945.5 503.5,-945.5 550.5,-945.5 550.5,-945.5 556.5,-945.5 562.5,-951.5 562.5,-957.5 562.5,-957.5 562.5,-990.5 562.5,-990.5 562.5,-996.5 556.5,-1002.5 550.5,-1002.5"/>
<text text-anchor="start" x="505" y="-986" font-family="Helvetica,sans-Serif" font-size="10.00">MatrixXd</text>
<text text-anchor="start" x="525.5" y="-971" font-family="Helvetica,sans-Serif" font-size="10.00"> </text>
<text text-anchor="start" x="525.5" y="-956" font-family="Helvetica,sans-Serif" font-size="10.00"> </text>
<polygon fill="#666666" stroke="#666666" points="500,-981 500,-981 555,-981 555,-981 500,-981"/>
<polygon fill="#666666" stroke="#666666" points="500,-966 500,-966 555,-966 555,-966 500,-966"/>
<polygon fill="none" stroke="#666666" points="499.5,-949.5 499.5,-998.5 554.5,-998.5 554.5,-949.5 499.5,-949.5"/>
</a>
</g>
</g>
<!-- Node12&#45;&gt;Node3 -->
<g id="edge5_Node000003_Node000012" class="edge">
<title>Node12&#45;&gt;Node3</title>
<g id="a_edge5_Node000003_Node000012"><a xlink:title=" ">
<path fill="none" stroke="#63b8ff" d="M533.91,-945.16C559.19,-836.61 636.92,-435.17 474,-179 460.42,-157.65 447.08,-162.37 425,-150 412.53,-143.01 407.41,-141.26 391.94,-132.38"/>
<polygon fill="none" stroke="#63b8ff" points="391.85,-132.32 384.65,-132.72 381.51,-126.23 388.71,-125.83 391.85,-132.32"/>
</a>
</g>
<text text-anchor="middle" x="584" y="-482.5" font-family="Helvetica,sans-Serif" font-size="10.00" fill="grey"> +P</text>
</g>
<!-- Node12&#45;&gt;Node61 -->
<g id="edge14_Node000061_Node000012" class="edge">
<title>Node12&#45;&gt;Node61</title>
<g id="a_edge14_Node000061_Node000012"><a xlink:title=" ">
<path fill="none" stroke="#63b8ff" d="M533.78,-945.44C544.45,-908.25 568.85,-842.78 615,-809 650.03,-783.36 679.6,-820.97 711,-791 774.39,-730.49 786.52,-625.37 786.79,-555.74"/>
<polygon fill="none" stroke="#63b8ff" points="786.79,-555.6 782.76,-549.62 786.72,-543.6 790.75,-549.58 786.79,-555.6"/>
</a>
</g>
<text text-anchor="middle" x="635" y="-850.5" font-family="Helvetica,sans-Serif" font-size="10.00" fill="grey"> +H</text>
<text text-anchor="middle" x="635" y="-839.5" font-family="Helvetica,sans-Serif" font-size="10.00" fill="grey">+H_star</text>
<text text-anchor="middle" x="635" y="-828.5" font-family="Helvetica,sans-Serif" font-size="10.00" fill="grey">+R</text>
</g>
<!-- Node13 -->
<g id="Node000013" class="node">
<title>Node13</title>
<g id="a_Node000013"><a xlink:title=" ">
<path fill="#fff0f0" stroke="red" d="M689,-1002.5C689,-1002.5 593,-1002.5 593,-1002.5 587,-1002.5 581,-996.5 581,-990.5 581,-990.5 581,-957.5 581,-957.5 581,-951.5 587,-945.5 593,-945.5 593,-945.5 689,-945.5 689,-945.5 695,-945.5 701,-951.5 701,-957.5 701,-957.5 701,-990.5 701,-990.5 701,-996.5 695,-1002.5 689,-1002.5"/>
<text text-anchor="start" x="594" y="-986" font-family="Helvetica,sans-Serif" font-size="10.00">map&lt; KFKey, int &gt;</text>
<text text-anchor="start" x="639" y="-971" font-family="Helvetica,sans-Serif" font-size="10.00"> </text>
<text text-anchor="start" x="639" y="-956" font-family="Helvetica,sans-Serif" font-size="10.00"> </text>
<polygon fill="red" stroke="red" points="589,-981 589,-981 693,-981 693,-981 589,-981"/>
<polygon fill="red" stroke="red" points="589,-966 589,-966 693,-966 693,-966 589,-966"/>
<polygon fill="none" stroke="red" points="589,-949.5 589,-998.5 693,-998.5 693,-949.5 589,-949.5"/>
</a>
</g>
</g>
<!-- Node13&#45;&gt;Node3 -->
<g id="edge6_Node000003_Node000013" class="edge">
<title>Node13&#45;&gt;Node3</title>
<g id="a_edge6_Node000003_Node000013"><a xlink:title=" ">
<path fill="none" stroke="#63b8ff" d="M641.4,-945.3C643.08,-811.78 647.31,-238.61 597,-179 538.86,-110.1 481.97,-164.46 393.07,-132.24"/>
<polygon fill="none" stroke="#63b8ff" points="392.93,-132.19 385.87,-133.68 381.78,-127.75 388.83,-126.25 392.93,-132.19"/>
</a>
</g>
<text text-anchor="middle" x="678" y="-482.5" font-family="Helvetica,sans-Serif" font-size="10.00" fill="grey"> +kfIndexMap</text>
</g>
<!-- Node13&#45;&gt;Node61 -->
<g id="edge15_Node000061_Node000013" class="edge">
<title>Node13&#45;&gt;Node61</title>
<g id="a_edge15_Node000061_Node000013"><a xlink:title=" ">
<path fill="none" stroke="#63b8ff" d="M643.29,-945.47C647.31,-910.92 658.18,-851.09 687,-809 694.53,-798 703.7,-802.16 711,-791 757.68,-719.69 774.19,-621.44 779.97,-555.93"/>
<polygon fill="none" stroke="#63b8ff" points="780,-555.65 776.49,-549.34 780.97,-543.69 784.47,-549.99 780,-555.65"/>
</a>
</g>
<text text-anchor="middle" x="730" y="-839.5" font-family="Helvetica,sans-Serif" font-size="10.00" fill="grey"> +noiseIndexMap</text>
</g>
<!-- Node26 -->
<g id="Node000026" class="node">
<title>Node26</title>
<g id="a_Node000026"><a xlink:title=" ">
<path fill="white" stroke="#666666" d="M96,-1002.5C96,-1002.5 12,-1002.5 12,-1002.5 6,-1002.5 0,-996.5 0,-990.5 0,-990.5 0,-957.5 0,-957.5 0,-951.5 6,-945.5 12,-945.5 12,-945.5 96,-945.5 96,-945.5 102,-945.5 108,-951.5 108,-957.5 108,-957.5 108,-990.5 108,-990.5 108,-996.5 102,-1002.5 96,-1002.5"/>
<text text-anchor="start" x="13" y="-986" font-family="Helvetica,sans-Serif" font-size="10.00">recursive_mutex</text>
<text text-anchor="start" x="52" y="-971" font-family="Helvetica,sans-Serif" font-size="10.00"> </text>
<text text-anchor="start" x="52" y="-956" font-family="Helvetica,sans-Serif" font-size="10.00"> </text>
<polygon fill="#666666" stroke="#666666" points="8,-981 8,-981 100,-981 100,-981 8,-981"/>
<polygon fill="#666666" stroke="#666666" points="8,-966 8,-966 100,-966 100,-966 8,-966"/>
<polygon fill="none" stroke="#666666" points="8,-949.5 8,-998.5 100,-998.5 100,-949.5 8,-949.5"/>
</a>
</g>
</g>
<!-- Node26&#45;&gt;Node2 -->
<g id="edge8_Node000002_Node000026" class="edge">
<title>Node26&#45;&gt;Node2</title>
<g id="a_edge8_Node000002_Node000026"><a xlink:title=" ">
<path fill="none" stroke="#63b8ff" d="M49.54,-945.32C45.23,-912.15 41.19,-855.24 55,-809 79.03,-728.52 129.88,-649.17 175.41,-589.26"/>
<polygon fill="none" stroke="#63b8ff" points="175.64,-588.95 176.13,-581.76 182.96,-579.44 182.47,-586.63 175.64,-588.95"/>
</a>
</g>
<text text-anchor="middle" x="94" y="-839.5" font-family="Helvetica,sans-Serif" font-size="10.00" fill="grey"> +kfStateMutex</text>
</g>
<!-- Node27&#45;&gt;Node1 -->
<g id="edge19_Node000001_Node000027" class="edge">
<title>Node27&#45;&gt;Node1</title>
<g id="a_edge19_Node000001_Node000027"><a xlink:title=" ">
<path fill="none" stroke="#63b8ff" d="M343.86,-892.76C345.84,-886.83 347.59,-880.87 349,-875 357.76,-838.64 352.06,-828.35 354,-791 357.52,-723.03 356.15,-242.37 381,-179 388.36,-160.23 400.24,-142.36 413.15,-126.64"/>
<polygon fill="none" stroke="#63b8ff" points="413.48,-126.25 414.34,-119.1 421.28,-117.14 420.42,-124.3 413.48,-126.25"/>
</a>
</g>
<text text-anchor="middle" x="401" y="-482.5" font-family="Helvetica,sans-Serif" font-size="10.00" fill="grey"> +kfKey</text>
</g>
<!-- Node27&#45;&gt;Node2 -->
<g id="edge9_Node000002_Node000027" class="edge">
<title>Node27&#45;&gt;Node2</title>
<g id="a_edge9_Node000002_Node000027"><a xlink:title=" ">
<path fill="none" stroke="#63b8ff" d="M299.09,-892.85C296.84,-866.76 294.19,-836.03 291.37,-803.33"/>
<polygon fill="none" stroke="#63b8ff" points="291.35,-803.16 286.85,-797.52 290.32,-791.2 294.82,-796.84 291.35,-803.16"/>
</a>
</g>
<text text-anchor="middle" x="321" y="-839.5" font-family="Helvetica,sans-Serif" font-size="10.00" fill="grey"> +oneKey</text>
</g>
<!-- Node61&#45;&gt;Node1 -->
<g id="edge11_Node000001_Node000061" class="edge">
<title>Node61&#45;&gt;Node1</title>
<g id="a_edge11_Node000001_Node000061"><a xlink:title=" ">
<path fill="none" stroke="#63b8ff" d="M783.61,-426.23C781.37,-359.69 768.29,-250.4 711,-179 674.13,-133.05 613.88,-104.86 563.62,-88.25"/>
<polygon fill="none" stroke="#63b8ff" points="563.51,-88.22 556.58,-90.21 552.07,-84.58 559.01,-82.59 563.51,-88.22"/>
</a>
</g>
<text text-anchor="middle" x="717" y="-153" font-family="Helvetica,sans-Serif" font-size="10.00" fill="grey"> +kfMeas</text>
</g>
<!-- Node62 -->
<g id="Node000062" class="node">
<title>Node62</title>
<g id="a_Node000062"><a xlink:title=" ">
<path fill="#fff0f0" stroke="red" d="M818.5,-1002.5C818.5,-1002.5 731.5,-1002.5 731.5,-1002.5 725.5,-1002.5 719.5,-996.5 719.5,-990.5 719.5,-990.5 719.5,-957.5 719.5,-957.5 719.5,-951.5 725.5,-945.5 731.5,-945.5 731.5,-945.5 818.5,-945.5 818.5,-945.5 824.5,-945.5 830.5,-951.5 830.5,-957.5 830.5,-957.5 830.5,-990.5 830.5,-990.5 830.5,-996.5 824.5,-1002.5 818.5,-1002.5"/>
<text text-anchor="start" x="733" y="-986" font-family="Helvetica,sans-Serif" font-size="10.00">vector&lt; KFKey &gt;</text>
<text text-anchor="start" x="773.5" y="-971" font-family="Helvetica,sans-Serif" font-size="10.00"> </text>
<text text-anchor="start" x="773.5" y="-956" font-family="Helvetica,sans-Serif" font-size="10.00"> </text>
<polygon fill="red" stroke="red" points="728,-981 728,-981 823,-981 823,-981 728,-981"/>
<polygon fill="red" stroke="red" points="728,-966 728,-966 823,-966 823,-966 728,-966"/>
<polygon fill="none" stroke="red" points="727.5,-949.5 727.5,-998.5 822.5,-998.5 822.5,-949.5 727.5,-949.5"/>
</a>
</g>
</g>
<!-- Node62&#45;&gt;Node61 -->
<g id="edge16_Node000061_Node000062" class="edge">
<title>Node62&#45;&gt;Node61</title>
<g id="a_edge16_Node000061_Node000062"><a xlink:title=" ">
<path fill="none" stroke="#63b8ff" d="M775.45,-945.42C776.67,-871.12 780.06,-665.02 781.85,-555.88"/>
<polygon fill="none" stroke="#63b8ff" points="781.85,-555.71 777.95,-549.64 782.05,-543.71 785.95,-549.77 781.85,-555.71"/>
</a>
</g>
<text text-anchor="middle" x="804" y="-839.5" font-family="Helvetica,sans-Serif" font-size="10.00" fill="grey"> +obsKeys</text>
</g>
<!-- Node63 -->
<g id="Node000063" class="node">
<title>Node63</title>
<g id="a_Node000063"><a xlink:title=" ">
<path fill="#fff0f0" stroke="red" d="M969,-1008C969,-1008 861,-1008 861,-1008 855,-1008 849,-1002 849,-996 849,-996 849,-952 849,-952 849,-946 855,-940 861,-940 861,-940 969,-940 969,-940 975,-940 981,-946 981,-952 981,-952 981,-996 981,-996 981,-1002 975,-1008 969,-1008"/>
<text text-anchor="start" x="862" y="-992" font-family="Helvetica,sans-Serif" font-size="10.00">vector&lt; map&lt; string,</text>
<text text-anchor="start" x="887.5" y="-981" font-family="Helvetica,sans-Serif" font-size="10.00"> void * &gt; &gt;</text>
<text text-anchor="start" x="913" y="-966" font-family="Helvetica,sans-Serif" font-size="10.00"> </text>
<text text-anchor="start" x="913" y="-951" font-family="Helvetica,sans-Serif" font-size="10.00"> </text>
<polygon fill="red" stroke="red" points="857,-976 857,-976 973,-976 973,-976 857,-976"/>
<polygon fill="red" stroke="red" points="857,-961 857,-961 973,-961 973,-961 857,-961"/>
<polygon fill="none" stroke="red" points="857,-944 857,-1004 973,-1004 973,-944 857,-944"/>
</a>
</g>
</g>
<!-- Node63&#45;&gt;Node61 -->
<g id="edge17_Node000061_Node000063" class="edge">
<title>Node63&#45;&gt;Node61</title>
<g id="a_edge17_Node000061_Node000063"><a xlink:title=" ">
<path fill="none" stroke="#63b8ff" d="M906.03,-939.91C884.72,-861.27 830.65,-661.82 801.81,-555.39"/>
<polygon fill="none" stroke="#63b8ff" points="801.73,-555.1 796.3,-550.35 798.59,-543.52 804.02,-548.26 801.73,-555.1"/>
</a>
</g>
<text text-anchor="middle" x="929.5" y="-839.5" font-family="Helvetica,sans-Serif" font-size="10.00" fill="grey"> +metaDataMaps</text>
</g>
<!-- Node64 -->
<g id="Node000064" class="node">
<title>Node64</title>
<g id="a_Node000064"><a xlink:title=" ">
<path fill="#fff0f0" stroke="red" d="M1159,-1008C1159,-1008 1011,-1008 1011,-1008 1005,-1008 999,-1002 999,-996 999,-996 999,-952 999,-952 999,-946 1005,-940 1011,-940 1011,-940 1159,-940 1159,-940 1165,-940 1171,-946 1171,-952 1171,-952 1171,-996 1171,-996 1171,-1002 1165,-1008 1159,-1008"/>
<text text-anchor="start" x="1012" y="-992" font-family="Helvetica,sans-Serif" font-size="10.00">vector&lt; map&lt; E_Component,</text>
<text text-anchor="start" x="1024" y="-981" font-family="Helvetica,sans-Serif" font-size="10.00"> ComponentsDetails &gt; &gt;</text>
<text text-anchor="start" x="1083" y="-966" font-family="Helvetica,sans-Serif" font-size="10.00"> </text>
<text text-anchor="start" x="1083" y="-951" font-family="Helvetica,sans-Serif" font-size="10.00"> </text>
<polygon fill="red" stroke="red" points="1007,-976 1007,-976 1163,-976 1163,-976 1007,-976"/>
<polygon fill="red" stroke="red" points="1007,-961 1007,-961 1163,-961 1163,-961 1007,-961"/>
<polygon fill="none" stroke="red" points="1007,-944 1007,-1004 1163,-1004 1163,-944 1007,-944"/>
</a>
</g>
</g>
<!-- Node64&#45;&gt;Node61 -->
<g id="edge18_Node000061_Node000064" class="edge">
<title>Node64&#45;&gt;Node61</title>
<g id="a_edge18_Node000061_Node000064"><a xlink:title=" ">
<path fill="none" stroke="#63b8ff" d="M1064.48,-939.91C1015.46,-860.87 890.77,-659.79 825.03,-553.78"/>
<polygon fill="none" stroke="#63b8ff" points="824.99,-553.71 818.43,-550.72 818.67,-543.52 825.23,-546.51 824.99,-553.71"/>
</a>
</g>
<text text-anchor="middle" x="1068" y="-839.5" font-family="Helvetica,sans-Serif" font-size="10.00" fill="grey"> +componentsMaps</text>
</g>
</g>
</svg>
