<?xml version="1.0" encoding="UTF-8" standalone="no"?>
<!DOCTYPE svg PUBLIC "-//W3C//DTD SVG 1.1//EN"
 "http://www.w3.org/Graphics/SVG/1.1/DTD/svg11.dtd">
<!-- Generated by graphviz version 2.43.0 (0)
 -->
<!-- Title: GTime::noTime Pages: 1 -->
<svg width="776pt" height="1854pt"
 viewBox="0.00 0.00 776.00 1854.00" xmlns="http://www.w3.org/2000/svg" xmlns:xlink="http://www.w3.org/1999/xlink">
<g id="graph0" class="graph" transform="scale(1 1) rotate(0) translate(4 1850)">
<title>GTime::noTime</title>
<!-- Node1 -->
<g id="Node000001" class="node">
<title>Node1</title>
<g id="a_Node000001"><a xlink:href="structGTime.html#aaa8a379d11cd6c040a6bbe680c0e913e" target="_top" xlink:title="Uninitialised time for comparisons.">
<path fill="#fff0f0" stroke="red" stroke-width="2" d="M761.67,-918C761.67,-918 682.33,-918 682.33,-918 679.17,-918 676,-914.83 676,-911.67 676,-911.67 676,-905.33 676,-905.33 676,-902.17 679.17,-899 682.33,-899 682.33,-899 761.67,-899 761.67,-899 764.83,-899 768,-902.17 768,-905.33 768,-905.33 768,-911.67 768,-911.67 768,-914.83 764.83,-918 761.67,-918"/>
<text text-anchor="middle" x="722" y="-906" font-family="Helvetica,sans-Serif" font-size="10.00">GTime::noTime</text>
</a>
</g>
</g>
<!-- Node2 -->
<g id="Node000002" class="node">
<title>Node2</title>
<g id="a_Node000002"><a xlink:href="antenna_8cpp.html#aa781255f62e500233148b6f4a9240740" target="_top" xlink:title="fetch pco">
<path fill="#fff0f0" stroke="red" d="M570.67,-1846C570.67,-1846 533.33,-1846 533.33,-1846 530.17,-1846 527,-1842.83 527,-1839.67 527,-1839.67 527,-1833.33 527,-1833.33 527,-1830.17 530.17,-1827 533.33,-1827 533.33,-1827 570.67,-1827 570.67,-1827 573.83,-1827 577,-1830.17 577,-1833.33 577,-1833.33 577,-1839.67 577,-1839.67 577,-1842.83 573.83,-1846 570.67,-1846"/>
<text text-anchor="middle" x="552" y="-1834" font-family="Helvetica,sans-Serif" font-size="10.00">antPco</text>
</a>
</g>
</g>
<!-- Node1&#45;&gt;Node2 -->
<g id="edge1_Node000001_Node000002" class="edge">
<title>Node1&#45;&gt;Node2</title>
<g id="a_edge1_Node000001_Node000002"><a xlink:title=" ">
<path fill="none" stroke="#63b8ff" d="M720.63,-928.37C718.07,-1055.31 701.33,-1749.67 640,-1818.5 624.51,-1835.89 597.02,-1839.03 577.08,-1838.68"/>
<polygon fill="#63b8ff" stroke="#63b8ff" points="724.13,-928.24 720.83,-918.18 717.13,-928.11 724.13,-928.24"/>
</a>
</g>
</g>
<!-- Node35 -->
<g id="Node000035" class="node">
<title>Node35</title>
<g id="a_Node000035"><a xlink:href="antenna_8cpp.html#a803e19596e682a54b66749c4ef3f8b16" target="_top" xlink:title="find and interpolate antenna pcv">
<path fill="#fff0f0" stroke="red" d="M570.67,-1809C570.67,-1809 533.33,-1809 533.33,-1809 530.17,-1809 527,-1805.83 527,-1802.67 527,-1802.67 527,-1796.33 527,-1796.33 527,-1793.17 530.17,-1790 533.33,-1790 533.33,-1790 570.67,-1790 570.67,-1790 573.83,-1790 577,-1793.17 577,-1796.33 577,-1796.33 577,-1802.67 577,-1802.67 577,-1805.83 573.83,-1809 570.67,-1809"/>
<text text-anchor="middle" x="552" y="-1797" font-family="Helvetica,sans-Serif" font-size="10.00">antPcv</text>
</a>
</g>
</g>
<!-- Node1&#45;&gt;Node35 -->
<g id="edge2_Node000001_Node000035" class="edge">
<title>Node1&#45;&gt;Node35</title>
<g id="a_edge2_Node000001_Node000035"><a xlink:title=" ">
<path fill="none" stroke="#63b8ff" d="M720.55,-928.32C717.56,-1052.09 698.85,-1715.69 640,-1781.5 624.47,-1798.86 597,-1802 577.07,-1801.66"/>
<polygon fill="#63b8ff" stroke="#63b8ff" points="724.06,-928.15 720.79,-918.07 717.06,-927.98 724.06,-928.15"/>
</a>
</g>
</g>
<!-- Node38 -->
<g id="Node000038" class="node">
<title>Node38</title>
<g id="a_Node000038"><a xlink:href="biases_8cpp.html#ac35aee460f932095f5be80ed33f9fa74" target="_top" xlink:title=" ">
<path fill="#fff0f0" stroke="red" d="M586.67,-1772C586.67,-1772 517.33,-1772 517.33,-1772 514.17,-1772 511,-1768.83 511,-1765.67 511,-1765.67 511,-1759.33 511,-1759.33 511,-1756.17 514.17,-1753 517.33,-1753 517.33,-1753 586.67,-1753 586.67,-1753 589.83,-1753 593,-1756.17 593,-1759.33 593,-1759.33 593,-1765.67 593,-1765.67 593,-1768.83 589.83,-1772 586.67,-1772"/>
<text text-anchor="middle" x="552" y="-1760" font-family="Helvetica,sans-Serif" font-size="10.00">calculateBias</text>
</a>
</g>
</g>
<!-- Node1&#45;&gt;Node38 -->
<g id="edge3_Node000001_Node000038" class="edge">
<title>Node1&#45;&gt;Node38</title>
<g id="a_edge3_Node000001_Node000038"><a xlink:title=" ">
<path fill="none" stroke="#63b8ff" d="M720.39,-928.4C716.52,-1048.59 693.9,-1674.44 640,-1738.5 628.6,-1752.05 610.31,-1758.31 593.44,-1761.08"/>
<polygon fill="#63b8ff" stroke="#63b8ff" points="723.9,-928.22 720.71,-918.12 716.9,-928 723.9,-928.22"/>
</a>
</g>
</g>
<!-- Node53 -->
<g id="Node000053" class="node">
<title>Node53</title>
<g id="a_Node000053"><a xlink:href="gTime_8cpp.html#abd3e80e328e3d4afed1001aa34ca9d16" target="_top" xlink:title="Returns (posix) for current epoch.">
<path fill="#fff0f0" stroke="red" d="M196.17,-1510C196.17,-1510 111.83,-1510 111.83,-1510 108.67,-1510 105.5,-1506.83 105.5,-1503.67 105.5,-1503.67 105.5,-1497.33 105.5,-1497.33 105.5,-1494.17 108.67,-1491 111.83,-1491 111.83,-1491 196.17,-1491 196.17,-1491 199.33,-1491 202.5,-1494.17 202.5,-1497.33 202.5,-1497.33 202.5,-1503.67 202.5,-1503.67 202.5,-1506.83 199.33,-1510 196.17,-1510"/>
<text text-anchor="middle" x="154" y="-1498" font-family="Helvetica,sans-Serif" font-size="10.00">currentLogptime</text>
</a>
</g>
</g>
<!-- Node1&#45;&gt;Node53 -->
<g id="edge4_Node000001_Node000053" class="edge">
<title>Node1&#45;&gt;Node53</title>
<g id="a_edge4_Node000001_Node000053"><a xlink:title=" ">
<path fill="none" stroke="#63b8ff" d="M720.54,-928.19C717.6,-1045.75 699.61,-1651.64 640,-1705.5 581.96,-1757.94 538.89,-1728.08 464,-1705.5 329.63,-1664.98 200.04,-1544.81 164.52,-1510.03"/>
<polygon fill="#63b8ff" stroke="#63b8ff" points="724.04,-928.19 720.79,-918.11 717.04,-928.02 724.04,-928.19"/>
</a>
</g>
</g>
<!-- Node9 -->
<g id="Node000009" class="node">
<title>Node9</title>
<g id="a_Node000009"><a xlink:href="main_8cpp.html#a3c04138a5bfe5d72780bb7e82a18e627" target="_top" xlink:title=" ">
<path fill="#fff0f0" stroke="red" d="M34.67,-1226C34.67,-1226 6.33,-1226 6.33,-1226 3.17,-1226 0,-1222.83 0,-1219.67 0,-1219.67 0,-1213.33 0,-1213.33 0,-1210.17 3.17,-1207 6.33,-1207 6.33,-1207 34.67,-1207 34.67,-1207 37.83,-1207 41,-1210.17 41,-1213.33 41,-1213.33 41,-1219.67 41,-1219.67 41,-1222.83 37.83,-1226 34.67,-1226"/>
<text text-anchor="middle" x="20.5" y="-1214" font-family="Helvetica,sans-Serif" font-size="10.00">main</text>
</a>
</g>
</g>
<!-- Node1&#45;&gt;Node9 -->
<g id="edge25_Node000001_Node000009" class="edge">
<title>Node1&#45;&gt;Node9</title>
<g id="a_edge25_Node000001_Node000009"><a xlink:title=" ">
<path fill="none" stroke="#63b8ff" d="M717.97,-928.25C708.88,-984.71 679.98,-1144.76 640,-1176.5 452.69,-1325.18 124.44,-1245.85 41.15,-1222.35"/>
<polygon fill="#63b8ff" stroke="#63b8ff" points="721.46,-928.56 719.56,-918.13 714.55,-927.47 721.46,-928.56"/>
</a>
</g>
</g>
<!-- Node56 -->
<g id="Node000056" class="node">
<title>Node56</title>
<g id="a_Node000056"><a xlink:href="prototypeCmpSSRDecode_8cpp.html#a64568502e5d54f952257863f6a753f7d" target="_top" xlink:title=" ">
<path fill="#fff0f0" stroke="red" d="M602.17,-1696C602.17,-1696 501.83,-1696 501.83,-1696 498.67,-1696 495.5,-1692.83 495.5,-1689.67 495.5,-1689.67 495.5,-1683.33 495.5,-1683.33 495.5,-1680.17 498.67,-1677 501.83,-1677 501.83,-1677 602.17,-1677 602.17,-1677 605.33,-1677 608.5,-1680.17 608.5,-1683.33 608.5,-1683.33 608.5,-1689.67 608.5,-1689.67 608.5,-1692.83 605.33,-1696 602.17,-1696"/>
<text text-anchor="middle" x="552" y="-1684" font-family="Helvetica,sans-Serif" font-size="10.00">decodecompactSSR</text>
</a>
</g>
</g>
<!-- Node1&#45;&gt;Node56 -->
<g id="edge6_Node000001_Node000056" class="edge">
<title>Node1&#45;&gt;Node56</title>
<g id="a_edge6_Node000001_Node000056"><a xlink:title=" ">
<path fill="none" stroke="#63b8ff" d="M720.27,-928.17C715.86,-1041.88 691.32,-1611.89 640,-1668.5 631.82,-1677.53 620.4,-1682.7 608.52,-1685.53"/>
<polygon fill="#63b8ff" stroke="#63b8ff" points="723.77,-928.24 720.65,-918.11 716.77,-927.97 723.77,-928.24"/>
</a>
</g>
</g>
<!-- Node59 -->
<g id="Node000059" class="node">
<title>Node59</title>
<g id="a_Node000059"><a xlink:href="structRtcmDecoder.html#a3b7993d7cc20610d8770c2f4d1e902d6" target="_top" xlink:title=" ">
<path fill="#fff0f0" stroke="red" d="M626.17,-1659C626.17,-1659 477.83,-1659 477.83,-1659 474.67,-1659 471.5,-1655.83 471.5,-1652.67 471.5,-1652.67 471.5,-1646.33 471.5,-1646.33 471.5,-1643.17 474.67,-1640 477.83,-1640 477.83,-1640 626.17,-1640 626.17,-1640 629.33,-1640 632.5,-1643.17 632.5,-1646.33 632.5,-1646.33 632.5,-1652.67 632.5,-1652.67 632.5,-1655.83 629.33,-1659 626.17,-1659"/>
<text text-anchor="middle" x="552" y="-1647" font-family="Helvetica,sans-Serif" font-size="10.00">RtcmDecoder::decodeCustom</text>
</a>
</g>
</g>
<!-- Node1&#45;&gt;Node59 -->
<g id="edge7_Node000001_Node000059" class="edge">
<title>Node1&#45;&gt;Node59</title>
<g id="a_edge7_Node000001_Node000059"><a xlink:title=" ">
<path fill="none" stroke="#63b8ff" d="M720.07,-928.36C714.74,-1038.45 686.67,-1570.88 640,-1625.5 634.71,-1631.69 627.98,-1636.36 620.61,-1639.87"/>
<polygon fill="#63b8ff" stroke="#63b8ff" points="723.58,-928.2 720.56,-918.05 716.59,-927.87 723.58,-928.2"/>
</a>
</g>
</g>
<!-- Node60 -->
<g id="Node000060" class="node">
<title>Node60</title>
<g id="a_Node000060"><a xlink:href="gTime_8cpp.html#a42f524ddac7eb2f122e34df9a5a1f08f" target="_top" xlink:title=" ">
<path fill="#fff0f0" stroke="red" d="M378.17,-375C378.17,-375 316.83,-375 316.83,-375 313.67,-375 310.5,-371.83 310.5,-368.67 310.5,-368.67 310.5,-362.33 310.5,-362.33 310.5,-359.17 313.67,-356 316.83,-356 316.83,-356 378.17,-356 378.17,-356 381.33,-356 384.5,-359.17 384.5,-362.33 384.5,-362.33 384.5,-368.67 384.5,-368.67 384.5,-371.83 381.33,-375 378.17,-375"/>
<text text-anchor="middle" x="347.5" y="-363" font-family="Helvetica,sans-Serif" font-size="10.00">epoch2time</text>
</a>
</g>
</g>
<!-- Node1&#45;&gt;Node60 -->
<g id="edge8_Node000001_Node000060" class="edge">
<title>Node1&#45;&gt;Node60</title>
<g id="a_edge8_Node000001_Node000060"><a xlink:title=" ">
<path fill="none" stroke="#63b8ff" d="M720.19,-928.33C715.59,-1035.99 691.16,-1547.05 640,-1592.5 610.76,-1618.48 492.06,-1619.74 464,-1592.5 367.64,-1498.97 512.75,-488.66 428,-384.5 417.61,-371.73 400.31,-366.63 384.5,-364.88"/>
<polygon fill="#63b8ff" stroke="#63b8ff" points="723.69,-928.35 720.61,-918.21 716.7,-928.06 723.69,-928.35"/>
</a>
</g>
</g>
<!-- Node82 -->
<g id="Node000082" class="node">
<title>Node82</title>
<g id="a_Node000082"><a xlink:href="structKFState.html#a0d12c57e70876543084c182a660bbbd3" target="_top" xlink:title="Kalman filter operation.">
<path fill="#fff0f0" stroke="red" d="M605.67,-1583C605.67,-1583 498.33,-1583 498.33,-1583 495.17,-1583 492,-1579.83 492,-1576.67 492,-1576.67 492,-1570.33 492,-1570.33 492,-1567.17 495.17,-1564 498.33,-1564 498.33,-1564 605.67,-1564 605.67,-1564 608.83,-1564 612,-1567.17 612,-1570.33 612,-1570.33 612,-1576.67 612,-1576.67 612,-1579.83 608.83,-1583 605.67,-1583"/>
<text text-anchor="middle" x="552" y="-1571" font-family="Helvetica,sans-Serif" font-size="10.00">KFState::filterKalman</text>
</a>
</g>
</g>
<!-- Node1&#45;&gt;Node82 -->
<g id="edge9_Node000001_Node000082" class="edge">
<title>Node1&#45;&gt;Node82</title>
<g id="a_edge9_Node000001_Node000082"><a xlink:title=" ">
<path fill="none" stroke="#63b8ff" d="M719.87,-928.39C713.81,-1032.11 683.77,-1508.11 640,-1555.5 632.67,-1563.43 622.85,-1568.37 612.44,-1571.36"/>
<polygon fill="#63b8ff" stroke="#63b8ff" points="723.37,-928.52 720.45,-918.33 716.38,-928.12 723.37,-928.52"/>
</a>
</g>
</g>
<!-- Node89 -->
<g id="Node000089" class="node">
<title>Node89</title>
<g id="a_Node000089"><a xlink:href="minimumConstraints_8cpp.html#aa40934b017f373d875c3470591eff52e" target="_top" xlink:title=" ">
<path fill="#fff0f0" stroke="red" d="M367.67,-1031C367.67,-1031 327.33,-1031 327.33,-1031 324.17,-1031 321,-1027.83 321,-1024.67 321,-1024.67 321,-1018.33 321,-1018.33 321,-1015.17 324.17,-1012 327.33,-1012 327.33,-1012 367.67,-1012 367.67,-1012 370.83,-1012 374,-1015.17 374,-1018.33 374,-1018.33 374,-1024.67 374,-1024.67 374,-1027.83 370.83,-1031 367.67,-1031"/>
<text text-anchor="middle" x="347.5" y="-1019" font-family="Helvetica,sans-Serif" font-size="10.00">mincon</text>
</a>
</g>
</g>
<!-- Node1&#45;&gt;Node89 -->
<g id="edge31_Node000001_Node000089" class="edge">
<title>Node1&#45;&gt;Node89</title>
<g id="a_edge31_Node000001_Node000089"><a xlink:title=" ">
<path fill="none" stroke="#63b8ff" d="M711.18,-927.04C698.21,-949.39 673.09,-986.01 640,-1002.5 551.03,-1046.84 427.43,-1034.42 374.37,-1026.16"/>
<polygon fill="#63b8ff" stroke="#63b8ff" points="714.32,-928.6 716.13,-918.16 708.2,-925.19 714.32,-928.6"/>
</a>
</g>
</g>
<!-- Node19 -->
<g id="Node000019" class="node">
<title>Node19</title>
<g id="a_Node000019"><a xlink:href="main_8cpp.html#a2b0d1066eac1a878cf982adcdd550ce1" target="_top" xlink:title="Perform any post&#45;final epoch calculations and outputs, then begin reverse smoothing and tidy up.">
<path fill="#fff0f0" stroke="red" d="M205.17,-1124C205.17,-1124 102.83,-1124 102.83,-1124 99.67,-1124 96.5,-1120.83 96.5,-1117.67 96.5,-1117.67 96.5,-1111.33 96.5,-1111.33 96.5,-1108.17 99.67,-1105 102.83,-1105 102.83,-1105 205.17,-1105 205.17,-1105 208.33,-1105 211.5,-1108.17 211.5,-1111.33 211.5,-1111.33 211.5,-1117.67 211.5,-1117.67 211.5,-1120.83 208.33,-1124 205.17,-1124"/>
<text text-anchor="middle" x="154" y="-1112" font-family="Helvetica,sans-Serif" font-size="10.00">mainPostProcessing</text>
</a>
</g>
</g>
<!-- Node1&#45;&gt;Node19 -->
<g id="edge27_Node000001_Node000019" class="edge">
<title>Node1&#45;&gt;Node19</title>
<g id="a_edge27_Node000001_Node000019"><a xlink:title=" ">
<path fill="none" stroke="#63b8ff" d="M721.22,-928.24C720.55,-975.2 711.49,-1093.46 640,-1144.5 491.36,-1250.64 247.25,-1155.8 175.46,-1124"/>
<polygon fill="#63b8ff" stroke="#63b8ff" points="724.72,-928.16 721.25,-918.15 717.72,-928.15 724.72,-928.16"/>
</a>
</g>
</g>
<!-- Node17 -->
<g id="Node000017" class="node">
<title>Node17</title>
<g id="a_Node000017"><a xlink:href="outputs_8cpp.html#abf277b1afcff7cb07fa2857b4a373100" target="_top" xlink:title=" ">
<path fill="#fff0f0" stroke="red" d="M221,-904.5C221,-904.5 87,-904.5 87,-904.5 82,-904.5 77,-899.5 77,-894.5 77,-894.5 77,-884.5 77,-884.5 77,-879.5 82,-874.5 87,-874.5 87,-874.5 221,-874.5 221,-874.5 226,-874.5 231,-879.5 231,-884.5 231,-884.5 231,-894.5 231,-894.5 231,-899.5 226,-904.5 221,-904.5"/>
<text text-anchor="start" x="85" y="-892.5" font-family="Helvetica,sans-Serif" font-size="10.00">perEpochPostProcessingAnd</text>
<text text-anchor="middle" x="154" y="-881.5" font-family="Helvetica,sans-Serif" font-size="10.00">Outputs</text>
</a>
</g>
</g>
<!-- Node1&#45;&gt;Node17 -->
<g id="edge39_Node000001_Node000017" class="edge">
<title>Node1&#45;&gt;Node17</title>
<g id="a_edge39_Node000001_Node000017"><a xlink:title=" ">
<path fill="none" stroke="#63b8ff" d="M665.67,-904.15C606.79,-899.74 510.89,-893.2 428,-890.5 361.56,-888.34 285.98,-888.25 231.22,-888.6"/>
<polygon fill="#63b8ff" stroke="#63b8ff" points="665.63,-907.65 675.86,-904.92 666.16,-900.67 665.63,-907.65"/>
</a>
</g>
</g>
<!-- Node95 -->
<g id="Node000095" class="node">
<title>Node95</title>
<g id="a_Node000095"><a xlink:href="ionoLocalSTEC_8cpp.html#a4ac0ae5657ac53a7056034344425230a" target="_top" xlink:title=" ">
<path fill="#fff0f0" stroke="red" d="M593.17,-1546C593.17,-1546 510.83,-1546 510.83,-1546 507.67,-1546 504.5,-1542.83 504.5,-1539.67 504.5,-1539.67 504.5,-1533.33 504.5,-1533.33 504.5,-1530.17 507.67,-1527 510.83,-1527 510.83,-1527 593.17,-1527 593.17,-1527 596.33,-1527 599.5,-1530.17 599.5,-1533.33 599.5,-1533.33 599.5,-1539.67 599.5,-1539.67 599.5,-1542.83 596.33,-1546 593.17,-1546"/>
<text text-anchor="middle" x="552" y="-1534" font-family="Helvetica,sans-Serif" font-size="10.00">getCmpSSRIono</text>
</a>
</g>
</g>
<!-- Node1&#45;&gt;Node95 -->
<g id="edge14_Node000001_Node000095" class="edge">
<title>Node1&#45;&gt;Node95</title>
<g id="a_edge14_Node000001_Node000095"><a xlink:title=" ">
<path fill="none" stroke="#63b8ff" d="M721.32,-928.54C722.4,-1023.85 722.09,-1430.28 640,-1518.5 629.7,-1529.57 614.54,-1534.8 599.75,-1537.04"/>
<polygon fill="#63b8ff" stroke="#63b8ff" points="724.81,-928.24 721.18,-918.29 717.81,-928.33 724.81,-928.24"/>
</a>
</g>
</g>
<!-- Node99 -->
<g id="Node000099" class="node">
<title>Node99</title>
<g id="a_Node000099"><a xlink:href="erp_8cpp.html#afe3874cc58d609f4ccc2b03a5ef632b8" target="_top" xlink:title="Get earth rotation parameter values.">
<path fill="#fff0f0" stroke="red" d="M569.67,-1509C569.67,-1509 534.33,-1509 534.33,-1509 531.17,-1509 528,-1505.83 528,-1502.67 528,-1502.67 528,-1496.33 528,-1496.33 528,-1493.17 531.17,-1490 534.33,-1490 534.33,-1490 569.67,-1490 569.67,-1490 572.83,-1490 576,-1493.17 576,-1496.33 576,-1496.33 576,-1502.67 576,-1502.67 576,-1505.83 572.83,-1509 569.67,-1509"/>
<text text-anchor="middle" x="552" y="-1497" font-family="Helvetica,sans-Serif" font-size="10.00">getErp</text>
</a>
</g>
</g>
<!-- Node1&#45;&gt;Node99 -->
<g id="edge15_Node000001_Node000099" class="edge">
<title>Node1&#45;&gt;Node99</title>
<g id="a_edge15_Node000001_Node000099"><a xlink:title=" ">
<path fill="none" stroke="#63b8ff" d="M721.13,-928.19C721.3,-1019.31 717.3,-1399.12 640,-1481.5 623.85,-1498.71 595.93,-1501.78 576.08,-1501.46"/>
<polygon fill="#63b8ff" stroke="#63b8ff" points="724.63,-928.11 721.09,-918.13 717.63,-928.14 724.63,-928.11"/>
</a>
</g>
</g>
<!-- Node133 -->
<g id="Node000133" class="node">
<title>Node133</title>
<g id="a_Node000133"><a xlink:href="structObsStream.html#a6d0ad39e5f301fc9455cfe5d9d3c3f99" target="_top" xlink:title="Return a list of observations from the stream, with a specified timestamp.">
<path fill="#fff0f0" stroke="red" d="M601.17,-1472C601.17,-1472 502.83,-1472 502.83,-1472 499.67,-1472 496.5,-1468.83 496.5,-1465.67 496.5,-1465.67 496.5,-1459.33 496.5,-1459.33 496.5,-1456.17 499.67,-1453 502.83,-1453 502.83,-1453 601.17,-1453 601.17,-1453 604.33,-1453 607.5,-1456.17 607.5,-1459.33 607.5,-1459.33 607.5,-1465.67 607.5,-1465.67 607.5,-1468.83 604.33,-1472 601.17,-1472"/>
<text text-anchor="middle" x="552" y="-1460" font-family="Helvetica,sans-Serif" font-size="10.00">ObsStream::getObs</text>
</a>
</g>
</g>
<!-- Node1&#45;&gt;Node133 -->
<g id="edge18_Node000001_Node000133" class="edge">
<title>Node1&#45;&gt;Node133</title>
<g id="a_edge18_Node000001_Node000133"><a xlink:title=" ">
<path fill="none" stroke="#63b8ff" d="M720.91,-928.57C720.1,-1016.67 712.32,-1368.16 640,-1444.5 631.51,-1453.46 619.84,-1458.57 607.79,-1461.38"/>
<polygon fill="#63b8ff" stroke="#63b8ff" points="724.41,-928.37 720.98,-918.35 717.41,-928.32 724.41,-928.37"/>
</a>
</g>
</g>
<!-- Node134 -->
<g id="Node000134" class="node">
<title>Node134</title>
<g id="a_Node000134"><a xlink:href="sinex_8cpp.html#a896ea71ee9c9d98a1977581586139d28" target="_top" xlink:title=" ">
<path fill="#fff0f0" stroke="red" d="M587.67,-1435C587.67,-1435 516.33,-1435 516.33,-1435 513.17,-1435 510,-1431.83 510,-1428.67 510,-1428.67 510,-1422.33 510,-1422.33 510,-1419.17 513.17,-1416 516.33,-1416 516.33,-1416 587.67,-1416 587.67,-1416 590.83,-1416 594,-1419.17 594,-1422.33 594,-1422.33 594,-1428.67 594,-1428.67 594,-1431.83 590.83,-1435 587.67,-1435"/>
<text text-anchor="middle" x="552" y="-1423" font-family="Helvetica,sans-Serif" font-size="10.00">getSlrRecBias</text>
</a>
</g>
</g>
<!-- Node1&#45;&gt;Node134 -->
<g id="edge19_Node000001_Node000134" class="edge">
<title>Node1&#45;&gt;Node134</title>
<g id="a_edge19_Node000001_Node000134"><a xlink:title=" ">
<path fill="none" stroke="#63b8ff" d="M720.67,-928.24C718.87,-1012 707.55,-1336.98 640,-1407.5 628.26,-1419.75 610.55,-1424.8 594.16,-1426.57"/>
<polygon fill="#63b8ff" stroke="#63b8ff" points="724.17,-928.14 720.87,-918.07 717.18,-928 724.17,-928.14"/>
</a>
</g>
</g>
<!-- Node136 -->
<g id="Node000136" class="node">
<title>Node136</title>
<g id="a_Node000136"><a xlink:href="sinex_8cpp.html#a2427a868db0f0ab748d35d7fedaffb6d" target="_top" xlink:title="Get attitude mode for sat.">
<path fill="#fff0f0" stroke="red" d="M599.17,-1398C599.17,-1398 504.83,-1398 504.83,-1398 501.67,-1398 498.5,-1394.83 498.5,-1391.67 498.5,-1391.67 498.5,-1385.33 498.5,-1385.33 498.5,-1382.17 501.67,-1379 504.83,-1379 504.83,-1379 599.17,-1379 599.17,-1379 602.33,-1379 605.5,-1382.17 605.5,-1385.33 605.5,-1385.33 605.5,-1391.67 605.5,-1391.67 605.5,-1394.83 602.33,-1398 599.17,-1398"/>
<text text-anchor="middle" x="552" y="-1386" font-family="Helvetica,sans-Serif" font-size="10.00">getSnxSatAttMode</text>
</a>
</g>
</g>
<!-- Node1&#45;&gt;Node136 -->
<g id="edge20_Node000001_Node000136" class="edge">
<title>Node1&#45;&gt;Node136</title>
<g id="a_edge20_Node000001_Node000136"><a xlink:title=" ">
<path fill="none" stroke="#63b8ff" d="M720.39,-928.29C717.51,-1008.2 702.69,-1305.87 640,-1370.5 630.98,-1379.8 618.51,-1384.93 605.83,-1387.64"/>
<polygon fill="#63b8ff" stroke="#63b8ff" points="723.89,-928.24 720.73,-918.13 716.9,-928.01 723.89,-928.24"/>
</a>
</g>
</g>
<!-- Node137 -->
<g id="Node000137" class="node">
<title>Node137</title>
<g id="a_Node000137"><a xlink:href="attitude_8cpp.html#abd7ddf5a848e540724fe5341542eef52" target="_top" xlink:title="Yaw model for BDS&#45;2I/2M satellites Requires bds_yaw_modes.snx Ref: https://doi.org/10....">
<path fill="#fff0f0" stroke="red" d="M378.17,-545C378.17,-545 316.83,-545 316.83,-545 313.67,-545 310.5,-541.83 310.5,-538.67 310.5,-538.67 310.5,-532.33 310.5,-532.33 310.5,-529.17 313.67,-526 316.83,-526 316.83,-526 378.17,-526 378.17,-526 381.33,-526 384.5,-529.17 384.5,-532.33 384.5,-532.33 384.5,-538.67 384.5,-538.67 384.5,-541.83 381.33,-545 378.17,-545"/>
<text text-anchor="middle" x="347.5" y="-533" font-family="Helvetica,sans-Serif" font-size="10.00">satYawBds2</text>
</a>
</g>
</g>
<!-- Node1&#45;&gt;Node137 -->
<g id="edge48_Node000001_Node000137" class="edge">
<title>Node1&#45;&gt;Node137</title>
<g id="a_edge48_Node000001_Node000137"><a xlink:title=" ">
<path fill="none" stroke="#63b8ff" d="M719.47,-888.57C713.8,-820.6 691.64,-599.6 640,-555.5 602.54,-523.5 454.09,-528.55 384.66,-532.84"/>
<polygon fill="#63b8ff" stroke="#63b8ff" points="716,-889.08 720.29,-898.77 722.97,-888.52 716,-889.08"/>
</a>
</g>
</g>
<!-- Node140 -->
<g id="Node000140" class="node">
<title>Node140</title>
<g id="a_Node000140"><a xlink:href="rinexClkWrite_8cpp.html#a87a652e05ec91c35c1e56c0650176dfa" target="_top" xlink:title=" ">
<path fill="#fff0f0" stroke="red" d="M612.17,-1361C612.17,-1361 491.83,-1361 491.83,-1361 488.67,-1361 485.5,-1357.83 485.5,-1354.67 485.5,-1354.67 485.5,-1348.33 485.5,-1348.33 485.5,-1345.17 488.67,-1342 491.83,-1342 491.83,-1342 612.17,-1342 612.17,-1342 615.33,-1342 618.5,-1345.17 618.5,-1348.33 618.5,-1348.33 618.5,-1354.67 618.5,-1354.67 618.5,-1357.83 615.33,-1361 612.17,-1361"/>
<text text-anchor="middle" x="552" y="-1349" font-family="Helvetica,sans-Serif" font-size="10.00">getSysOutputFilenames</text>
</a>
</g>
</g>
<!-- Node1&#45;&gt;Node140 -->
<g id="edge22_Node000001_Node000140" class="edge">
<title>Node1&#45;&gt;Node140</title>
<g id="a_edge22_Node000001_Node000140"><a xlink:title=" ">
<path fill="none" stroke="#63b8ff" d="M720.07,-928.14C716.08,-1003.76 697.89,-1274.69 640,-1333.5 634.05,-1339.55 626.64,-1343.82 618.67,-1346.82"/>
<polygon fill="#63b8ff" stroke="#63b8ff" points="723.57,-928.26 720.57,-918.1 716.58,-927.91 723.57,-928.26"/>
</a>
</g>
</g>
<!-- Node143 -->
<g id="Node000143" class="node">
<title>Node143</title>
<g id="a_Node000143"><a xlink:href="ionoSpherical_8cpp.html#a5b7bfe4a5b9c8c410133e7e6efbfc753" target="_top" xlink:title="rotates the Ionosphere piercing point time: I time of observations (to update the rotation matrix) IP...">
<path fill="#fff0f0" stroke="red" d="M593.17,-1324C593.17,-1324 510.83,-1324 510.83,-1324 507.67,-1324 504.5,-1320.83 504.5,-1317.67 504.5,-1317.67 504.5,-1311.33 504.5,-1311.33 504.5,-1308.17 507.67,-1305 510.83,-1305 510.83,-1305 593.17,-1305 593.17,-1305 596.33,-1305 599.5,-1308.17 599.5,-1311.33 599.5,-1311.33 599.5,-1317.67 599.5,-1317.67 599.5,-1320.83 596.33,-1324 593.17,-1324"/>
<text text-anchor="middle" x="552" y="-1312" font-family="Helvetica,sans-Serif" font-size="10.00">ippCheckSphhar</text>
</a>
</g>
</g>
<!-- Node1&#45;&gt;Node143 -->
<g id="edge23_Node000001_Node000143" class="edge">
<title>Node1&#45;&gt;Node143</title>
<g id="a_edge23_Node000001_Node000143"><a xlink:title=" ">
<path fill="none" stroke="#63b8ff" d="M719.64,-928.7C714.38,-1000.75 692.94,-1243.66 640,-1296.5 629.41,-1307.07 614.36,-1312.21 599.74,-1314.53"/>
<polygon fill="#63b8ff" stroke="#63b8ff" points="723.16,-928.54 720.37,-918.32 716.18,-928.05 723.16,-928.54"/>
</a>
</g>
</g>
<!-- Node152 -->
<g id="Node000152" class="node">
<title>Node152</title>
<g id="a_Node000152"><a xlink:href="structKFMeas.html#aeb3d2d1ff6ef485f46f1b1eb2e9a59ee" target="_top" xlink:title="Combine a list of KFMeasEntrys into a single KFMeas object for used in the filter.">
<path fill="#fff0f0" stroke="red" d="M596.17,-1287C596.17,-1287 507.83,-1287 507.83,-1287 504.67,-1287 501.5,-1283.83 501.5,-1280.67 501.5,-1280.67 501.5,-1274.33 501.5,-1274.33 501.5,-1271.17 504.67,-1268 507.83,-1268 507.83,-1268 596.17,-1268 596.17,-1268 599.33,-1268 602.5,-1271.17 602.5,-1274.33 602.5,-1274.33 602.5,-1280.67 602.5,-1280.67 602.5,-1283.83 599.33,-1287 596.17,-1287"/>
<text text-anchor="middle" x="552" y="-1275" font-family="Helvetica,sans-Serif" font-size="10.00">KFMeas::KFMeas</text>
</a>
</g>
</g>
<!-- Node1&#45;&gt;Node152 -->
<g id="edge24_Node000001_Node000152" class="edge">
<title>Node1&#45;&gt;Node152</title>
<g id="a_edge24_Node000001_Node000152"><a xlink:title=" ">
<path fill="none" stroke="#63b8ff" d="M718.97,-928.47C711.84,-994.72 685.88,-1205.82 640,-1253.5 630.11,-1263.77 616.26,-1269.78 602.52,-1273.25"/>
<polygon fill="#63b8ff" stroke="#63b8ff" points="722.49,-928.48 720.05,-918.16 715.53,-927.75 722.49,-928.48"/>
</a>
</g>
</g>
<!-- Node26 -->
<g id="Node000026" class="node">
<title>Node26</title>
<g id="a_Node000026"><a xlink:href="main_8cpp.html#ae9a767ba206649ca2e395dd210c2218b" target="_top" xlink:title="Perform operations for each station This function occurs in parallel with other stations &#45; ensure tha...">
<path fill="#fff0f0" stroke="red" d="M421.67,-338C421.67,-338 273.33,-338 273.33,-338 270.17,-338 267,-334.83 267,-331.67 267,-331.67 267,-325.33 267,-325.33 267,-322.17 270.17,-319 273.33,-319 273.33,-319 421.67,-319 421.67,-319 424.83,-319 428,-322.17 428,-325.33 428,-325.33 428,-331.67 428,-331.67 428,-334.83 424.83,-338 421.67,-338"/>
<text text-anchor="middle" x="347.5" y="-326" font-family="Helvetica,sans-Serif" font-size="10.00">mainOncePerEpochPerStation</text>
</a>
</g>
</g>
<!-- Node1&#45;&gt;Node26 -->
<g id="edge26_Node000001_Node000026" class="edge">
<title>Node1&#45;&gt;Node26</title>
<g id="a_edge26_Node000001_Node000026"><a xlink:title=" ">
<path fill="none" stroke="#63b8ff" d="M721.22,-928.24C720.55,-975.2 711.49,-1093.46 640,-1144.5 576.34,-1189.96 520.55,-1198.55 464,-1144.5 399.92,-1083.25 484.47,-415.83 428,-347.5 424.93,-343.78 421.27,-340.71 417.23,-338.19"/>
<polygon fill="#63b8ff" stroke="#63b8ff" points="724.72,-928.16 721.25,-918.15 717.72,-928.15 724.72,-928.16"/>
</a>
</g>
</g>
<!-- Node153 -->
<g id="Node000153" class="node">
<title>Node153</title>
<g id="a_Node000153"><a xlink:href="structKFState.html#a35b82ca74c6a6795abf1b6e919a4fec1" target="_top" xlink:title="Add process noise and dynamics to filter object manually.">
<path fill="#fff0f0" stroke="red" d="M630.67,-1135C630.67,-1135 473.33,-1135 473.33,-1135 470.17,-1135 467,-1131.83 467,-1128.67 467,-1128.67 467,-1122.33 467,-1122.33 467,-1119.17 470.17,-1116 473.33,-1116 473.33,-1116 630.67,-1116 630.67,-1116 633.83,-1116 637,-1119.17 637,-1122.33 637,-1122.33 637,-1128.67 637,-1128.67 637,-1131.83 633.83,-1135 630.67,-1135"/>
<text text-anchor="middle" x="552" y="-1123" font-family="Helvetica,sans-Serif" font-size="10.00">KFState::manualStateTransition</text>
</a>
</g>
</g>
<!-- Node1&#45;&gt;Node153 -->
<g id="edge28_Node000001_Node000153" class="edge">
<title>Node1&#45;&gt;Node153</title>
<g id="a_edge28_Node000001_Node000153"><a xlink:title=" ">
<path fill="none" stroke="#63b8ff" d="M718.93,-928.25C713.63,-968.39 695.76,-1059.65 640,-1106.5 635.5,-1110.28 630.42,-1113.35 625.03,-1115.85"/>
<polygon fill="#63b8ff" stroke="#63b8ff" points="722.43,-928.5 720.14,-918.16 715.47,-927.67 722.43,-928.5"/>
</a>
</g>
</g>
<!-- Node154 -->
<g id="Node000154" class="node">
<title>Node154</title>
<g id="a_Node000154"><a xlink:href="structNtripUploader.html#aed62670c2d0d02f1bb0d930f42e68609" target="_top" xlink:title=" ">
<path fill="#fff0f0" stroke="red" d="M630,-1079.5C630,-1079.5 474,-1079.5 474,-1079.5 469,-1079.5 464,-1074.5 464,-1069.5 464,-1069.5 464,-1059.5 464,-1059.5 464,-1054.5 469,-1049.5 474,-1049.5 474,-1049.5 630,-1049.5 630,-1049.5 635,-1049.5 640,-1054.5 640,-1059.5 640,-1059.5 640,-1069.5 640,-1069.5 640,-1074.5 635,-1079.5 630,-1079.5"/>
<text text-anchor="start" x="472" y="-1067.5" font-family="Helvetica,sans-Serif" font-size="10.00">NtripUploader::messageTimeout</text>
<text text-anchor="middle" x="552" y="-1056.5" font-family="Helvetica,sans-Serif" font-size="10.00">Handler</text>
</a>
</g>
</g>
<!-- Node1&#45;&gt;Node154 -->
<g id="edge29_Node000001_Node000154" class="edge">
<title>Node1&#45;&gt;Node154</title>
<g id="a_edge29_Node000001_Node000154"><a xlink:title=" ">
<path fill="none" stroke="#63b8ff" d="M713.81,-927.37C702.33,-955.02 677.3,-1006.41 640,-1035.5 632.72,-1041.18 624.27,-1045.77 615.56,-1049.48"/>
<polygon fill="#63b8ff" stroke="#63b8ff" points="717.08,-928.61 717.54,-918.03 710.58,-926.02 717.08,-928.61"/>
</a>
</g>
</g>
<!-- Node157 -->
<g id="Node000157" class="node">
<title>Node157</title>
<g id="a_Node000157"><a xlink:href="mongoRead_8cpp.html#afb0cf2e28aad7d5f276d9735f941195d" target="_top" xlink:title=" ">
<path fill="#fff0f0" stroke="red" d="M595.67,-993C595.67,-993 508.33,-993 508.33,-993 505.17,-993 502,-989.83 502,-986.67 502,-986.67 502,-980.33 502,-980.33 502,-977.17 505.17,-974 508.33,-974 508.33,-974 595.67,-974 595.67,-974 598.83,-974 602,-977.17 602,-980.33 602,-980.33 602,-986.67 602,-986.67 602,-989.83 598.83,-993 595.67,-993"/>
<text text-anchor="middle" x="552" y="-981" font-family="Helvetica,sans-Serif" font-size="10.00">mongoReadFilter</text>
</a>
</g>
</g>
<!-- Node1&#45;&gt;Node157 -->
<g id="edge32_Node000001_Node000157" class="edge">
<title>Node1&#45;&gt;Node157</title>
<g id="a_edge32_Node000001_Node000157"><a xlink:title=" ">
<path fill="none" stroke="#63b8ff" d="M702.54,-924.84C686.94,-937.8 663.43,-955.35 640,-965.5 628.25,-970.59 614.98,-974.27 602.4,-976.92"/>
<polygon fill="#63b8ff" stroke="#63b8ff" points="705,-927.34 710.35,-918.2 700.47,-922.02 705,-927.34"/>
</a>
</g>
</g>
<!-- Node158 -->
<g id="Node000158" class="node">
<title>Node158</title>
<g id="a_Node000158"><a xlink:href="mongoWrite_8cpp.html#a7b0669675f4db278af7db5cb0b0dee6a" target="_top" xlink:title=" ">
<path fill="#fff0f0" stroke="red" d="M586.17,-956C586.17,-956 517.83,-956 517.83,-956 514.67,-956 511.5,-952.83 511.5,-949.67 511.5,-949.67 511.5,-943.33 511.5,-943.33 511.5,-940.17 514.67,-937 517.83,-937 517.83,-937 586.17,-937 586.17,-937 589.33,-937 592.5,-940.17 592.5,-943.33 592.5,-943.33 592.5,-949.67 592.5,-949.67 592.5,-952.83 589.33,-956 586.17,-956"/>
<text text-anchor="middle" x="552" y="-944" font-family="Helvetica,sans-Serif" font-size="10.00">mongoStates</text>
</a>
</g>
</g>
<!-- Node1&#45;&gt;Node158 -->
<g id="edge33_Node000001_Node000158" class="edge">
<title>Node1&#45;&gt;Node158</title>
<g id="a_edge33_Node000001_Node000158"><a xlink:title=" ">
<path fill="none" stroke="#63b8ff" d="M668.74,-920.32C644.23,-925.86 615.49,-932.37 592.78,-937.5"/>
<polygon fill="#63b8ff" stroke="#63b8ff" points="669.63,-923.71 678.61,-918.09 668.08,-916.88 669.63,-923.71"/>
</a>
</g>
</g>
<!-- Node167 -->
<g id="Node000167" class="node">
<title>Node167</title>
<g id="a_Node000167"><a xlink:href="orbitProp_8cpp.html#a2074537e52ef853217ad980d3d299621" target="_top" xlink:title=" ">
<path fill="#fff0f0" stroke="red" d="M392.67,-918C392.67,-918 302.33,-918 302.33,-918 299.17,-918 296,-914.83 296,-911.67 296,-911.67 296,-905.33 296,-905.33 296,-902.17 299.17,-899 302.33,-899 302.33,-899 392.67,-899 392.67,-899 395.83,-899 399,-902.17 399,-905.33 399,-905.33 399,-911.67 399,-911.67 399,-914.83 395.83,-918 392.67,-918"/>
<text text-anchor="middle" x="347.5" y="-906" font-family="Helvetica,sans-Serif" font-size="10.00">outputOrbitConfig</text>
</a>
</g>
</g>
<!-- Node1&#45;&gt;Node167 -->
<g id="edge37_Node000001_Node000167" class="edge">
<title>Node1&#45;&gt;Node167</title>
<g id="a_edge37_Node000001_Node000167"><a xlink:title=" ">
<path fill="none" stroke="#63b8ff" d="M665.46,-908.5C593.4,-908.5 468.7,-908.5 399.13,-908.5"/>
<polygon fill="#63b8ff" stroke="#63b8ff" points="665.7,-912 675.7,-908.5 665.7,-905 665.7,-912"/>
</a>
</g>
</g>
<!-- Node168 -->
<g id="Node000168" class="node">
<title>Node168</title>
<g id="a_Node000168"><a xlink:href="biasSINEXread_8cpp.html#a3f0946f586f8337c5d03d50c09d7bc52" target="_top" xlink:title="Read data line in bias SINEX file.">
<path fill="#fff0f0" stroke="red" d="M603.67,-842C603.67,-842 500.33,-842 500.33,-842 497.17,-842 494,-838.83 494,-835.67 494,-835.67 494,-829.33 494,-829.33 494,-826.17 497.17,-823 500.33,-823 500.33,-823 603.67,-823 603.67,-823 606.83,-823 610,-826.17 610,-829.33 610,-829.33 610,-835.67 610,-835.67 610,-838.83 606.83,-842 603.67,-842"/>
<text text-anchor="middle" x="552" y="-830" font-family="Helvetica,sans-Serif" font-size="10.00">read_biasSINEX_line</text>
</a>
</g>
</g>
<!-- Node1&#45;&gt;Node168 -->
<g id="edge40_Node000001_Node000168" class="edge">
<title>Node1&#45;&gt;Node168</title>
<g id="a_edge40_Node000001_Node000168"><a xlink:title=" ">
<path fill="none" stroke="#63b8ff" d="M700.32,-892.73C684.52,-881.31 661.81,-866.24 640,-856.5 626.69,-850.56 611.57,-845.77 597.71,-842.07"/>
<polygon fill="#63b8ff" stroke="#63b8ff" points="698.65,-895.84 708.77,-898.96 702.8,-890.21 698.65,-895.84"/>
</a>
</g>
</g>
<!-- Node170 -->
<g id="Node000170" class="node">
<title>Node170</title>
<g id="a_Node000170"><a xlink:href="antenna_8cpp.html#a8c56b39d78caff862f84c8364a392bc4" target="_top" xlink:title="Read antex file.">
<path fill="#fff0f0" stroke="red" d="M580.67,-805C580.67,-805 523.33,-805 523.33,-805 520.17,-805 517,-801.83 517,-798.67 517,-798.67 517,-792.33 517,-792.33 517,-789.17 520.17,-786 523.33,-786 523.33,-786 580.67,-786 580.67,-786 583.83,-786 587,-789.17 587,-792.33 587,-792.33 587,-798.67 587,-798.67 587,-801.83 583.83,-805 580.67,-805"/>
<text text-anchor="middle" x="552" y="-793" font-family="Helvetica,sans-Serif" font-size="10.00">readantexf</text>
</a>
</g>
</g>
<!-- Node1&#45;&gt;Node170 -->
<g id="edge41_Node000001_Node000170" class="edge">
<title>Node1&#45;&gt;Node170</title>
<g id="a_edge41_Node000001_Node000170"><a xlink:title=" ">
<path fill="none" stroke="#63b8ff" d="M710.54,-890.43C697.08,-868.85 671.6,-833.32 640,-814.5 624.06,-805 603.95,-800.24 587.08,-797.85"/>
<polygon fill="#63b8ff" stroke="#63b8ff" points="707.55,-892.24 715.72,-898.99 713.54,-888.62 707.55,-892.24"/>
</a>
</g>
</g>
<!-- Node171 -->
<g id="Node000171" class="node">
<title>Node171</title>
<g id="a_Node000171"><a xlink:href="erp_8cpp.html#a33c70b74bb73dd330fcbe0193762aa11" target="_top" xlink:title="read IERS C04 EOP products">
<path fill="#fff0f0" stroke="red" d="M589.17,-768C589.17,-768 514.83,-768 514.83,-768 511.67,-768 508.5,-764.83 508.5,-761.67 508.5,-761.67 508.5,-755.33 508.5,-755.33 508.5,-752.17 511.67,-749 514.83,-749 514.83,-749 589.17,-749 589.17,-749 592.33,-749 595.5,-752.17 595.5,-755.33 595.5,-755.33 595.5,-761.67 595.5,-761.67 595.5,-764.83 592.33,-768 589.17,-768"/>
<text text-anchor="middle" x="552" y="-756" font-family="Helvetica,sans-Serif" font-size="10.00">readIers14C04</text>
</a>
</g>
</g>
<!-- Node1&#45;&gt;Node171 -->
<g id="edge42_Node000001_Node000171" class="edge">
<title>Node1&#45;&gt;Node171</title>
<g id="a_edge42_Node000001_Node000171"><a xlink:title=" ">
<path fill="none" stroke="#63b8ff" d="M714.53,-888.93C703.84,-859.83 679.67,-805.58 640,-777.5 627.13,-768.39 610.7,-763.52 595.6,-760.96"/>
<polygon fill="#63b8ff" stroke="#63b8ff" points="711.35,-890.46 717.96,-898.75 717.96,-888.15 711.35,-890.46"/>
</a>
</g>
</g>
<!-- Node173 -->
<g id="Node000173" class="node">
<title>Node173</title>
<g id="a_Node000173"><a xlink:href="erp_8cpp.html#aea74a6a66f8dbe955856469da9df6a43" target="_top" xlink:title="read IERS C04 EOP products">
<path fill="#fff0f0" stroke="red" d="M589.17,-731C589.17,-731 514.83,-731 514.83,-731 511.67,-731 508.5,-727.83 508.5,-724.67 508.5,-724.67 508.5,-718.33 508.5,-718.33 508.5,-715.17 511.67,-712 514.83,-712 514.83,-712 589.17,-712 589.17,-712 592.33,-712 595.5,-715.17 595.5,-718.33 595.5,-718.33 595.5,-724.67 595.5,-724.67 595.5,-727.83 592.33,-731 589.17,-731"/>
<text text-anchor="middle" x="552" y="-719" font-family="Helvetica,sans-Serif" font-size="10.00">readIers20C04</text>
</a>
</g>
</g>
<!-- Node1&#45;&gt;Node173 -->
<g id="edge43_Node000001_Node000173" class="edge">
<title>Node1&#45;&gt;Node173</title>
<g id="a_edge43_Node000001_Node000173"><a xlink:title=" ">
<path fill="none" stroke="#63b8ff" d="M717.3,-888.58C709.6,-853.01 688.39,-778.7 640,-740.5 627.5,-730.63 610.98,-725.63 595.69,-723.17"/>
<polygon fill="#63b8ff" stroke="#63b8ff" points="713.93,-889.57 719.34,-898.68 720.79,-888.18 713.93,-889.57"/>
</a>
</g>
</g>
<!-- Node174 -->
<g id="Node000174" class="node">
<title>Node174</title>
<g id="a_Node000174"><a xlink:href="tropVMF3_8cpp.html#a5d110a6f9820120ea75dce88891a17ef" target="_top" xlink:title="read vmf3 grid">
<path fill="#fff0f0" stroke="red" d="M577.67,-694C577.67,-694 526.33,-694 526.33,-694 523.17,-694 520,-690.83 520,-687.67 520,-687.67 520,-681.33 520,-681.33 520,-678.17 523.17,-675 526.33,-675 526.33,-675 577.67,-675 577.67,-675 580.83,-675 584,-678.17 584,-681.33 584,-681.33 584,-687.67 584,-687.67 584,-690.83 580.83,-694 577.67,-694"/>
<text text-anchor="middle" x="552" y="-682" font-family="Helvetica,sans-Serif" font-size="10.00">readvmf3</text>
</a>
</g>
</g>
<!-- Node1&#45;&gt;Node174 -->
<g id="edge44_Node000001_Node000174" class="edge">
<title>Node1&#45;&gt;Node174</title>
<g id="a_edge44_Node000001_Node000174"><a xlink:title=" ">
<path fill="none" stroke="#63b8ff" d="M719.26,-888.91C714.51,-847.83 697.56,-752.45 640,-703.5 624.69,-690.48 602.49,-685.78 584.35,-684.31"/>
<polygon fill="#63b8ff" stroke="#63b8ff" points="715.79,-889.38 720.3,-898.97 722.75,-888.67 715.79,-889.38"/>
</a>
</g>
</g>
<!-- Node175 -->
<g id="Node000175" class="node">
<title>Node175</title>
<g id="a_Node000175"><a xlink:href="ppp_8cpp.html#a3d11452be1ce2ea58117c7fd3ac9f981" target="_top" xlink:title="Remove ambiguity states from filter when they deemed old or bad This effectively reinitialises them o...">
<path fill="#fff0f0" stroke="red" d="M611.67,-657C611.67,-657 492.33,-657 492.33,-657 489.17,-657 486,-653.83 486,-650.67 486,-650.67 486,-644.33 486,-644.33 486,-641.17 489.17,-638 492.33,-638 492.33,-638 611.67,-638 611.67,-638 614.83,-638 618,-641.17 618,-644.33 618,-644.33 618,-650.67 618,-650.67 618,-653.83 614.83,-657 611.67,-657"/>
<text text-anchor="middle" x="552" y="-645" font-family="Helvetica,sans-Serif" font-size="10.00">removeBadIonospheres</text>
</a>
</g>
</g>
<!-- Node1&#45;&gt;Node175 -->
<g id="edge45_Node000001_Node000175" class="edge">
<title>Node1&#45;&gt;Node175</title>
<g id="a_edge45_Node000001_Node000175"><a xlink:title=" ">
<path fill="none" stroke="#63b8ff" d="M720.6,-888.64C718.52,-842.27 706.57,-726.24 640,-666.5 633.79,-660.92 626.32,-656.85 618.41,-653.91"/>
<polygon fill="#63b8ff" stroke="#63b8ff" points="717.1,-888.98 720.94,-898.86 724.1,-888.75 717.1,-888.98"/>
</a>
</g>
</g>
<!-- Node176 -->
<g id="Node000176" class="node">
<title>Node176</title>
<g id="a_Node000176"><a xlink:href="structRtcmDecoder.html#af4dcc94b23423696a4e8025d8235a1b1" target="_top" xlink:title=" ">
<path fill="#fff0f0" stroke="red" d="M613.67,-620C613.67,-620 490.33,-620 490.33,-620 487.17,-620 484,-616.83 484,-613.67 484,-613.67 484,-607.33 484,-607.33 484,-604.17 487.17,-601 490.33,-601 490.33,-601 613.67,-601 613.67,-601 616.83,-601 620,-604.17 620,-607.33 620,-607.33 620,-613.67 620,-613.67 620,-616.83 616.83,-620 613.67,-620"/>
<text text-anchor="middle" x="552" y="-608" font-family="Helvetica,sans-Serif" font-size="10.00">RtcmDecoder::rtcmTime</text>
</a>
</g>
</g>
<!-- Node1&#45;&gt;Node176 -->
<g id="edge46_Node000001_Node000176" class="edge">
<title>Node1&#45;&gt;Node176</title>
<g id="a_edge46_Node000001_Node000176"><a xlink:title=" ">
<path fill="none" stroke="#63b8ff" d="M721.62,-888.79C722.1,-837.77 715.88,-700.42 640,-629.5 634.35,-624.22 627.59,-620.28 620.37,-617.36"/>
<polygon fill="#63b8ff" stroke="#63b8ff" points="718.12,-888.75 721.43,-898.82 725.12,-888.89 718.12,-888.75"/>
</a>
</g>
</g>
<!-- Node124 -->
<g id="Node000124" class="node">
<title>Node124</title>
<g id="a_Node000124"><a xlink:href="ephKalman_8cpp.html#ae1697dd19411f771300532be63d186c2" target="_top" xlink:title=" ">
<path fill="#fff0f0" stroke="red" d="M588.67,-583C588.67,-583 515.33,-583 515.33,-583 512.17,-583 509,-579.83 509,-576.67 509,-576.67 509,-570.33 509,-570.33 509,-567.17 512.17,-564 515.33,-564 515.33,-564 588.67,-564 588.67,-564 591.83,-564 595,-567.17 595,-570.33 595,-570.33 595,-576.67 595,-576.67 595,-579.83 591.83,-583 588.67,-583"/>
<text text-anchor="middle" x="552" y="-571" font-family="Helvetica,sans-Serif" font-size="10.00">satPosKalman</text>
</a>
</g>
</g>
<!-- Node1&#45;&gt;Node124 -->
<g id="edge47_Node000001_Node000124" class="edge">
<title>Node1&#45;&gt;Node124</title>
<g id="a_edge47_Node000001_Node000124"><a xlink:title=" ">
<path fill="none" stroke="#63b8ff" d="M718.66,-888.91C710.84,-826.58 683.55,-634.51 640,-592.5 628.09,-581.01 610.94,-575.81 595.01,-573.64"/>
<polygon fill="#63b8ff" stroke="#63b8ff" points="715.21,-889.47 719.9,-898.97 722.15,-888.62 715.21,-889.47"/>
</a>
</g>
</g>
<!-- Node183 -->
<g id="Node000183" class="node">
<title>Node183</title>
<g id="a_Node000183"><a xlink:href="attitude_8cpp.html#a72b1b0bdafc8daa3b75faa96049b514f" target="_top" xlink:title="Yaw model for BDS&#45;3I/3M satellites Ref: https://doi.org/10.1007/s10291&#45;018&#45;0783&#45;1 https://doi....">
<path fill="#fff0f0" stroke="red" d="M582.67,-507C582.67,-507 521.33,-507 521.33,-507 518.17,-507 515,-503.83 515,-500.67 515,-500.67 515,-494.33 515,-494.33 515,-491.17 518.17,-488 521.33,-488 521.33,-488 582.67,-488 582.67,-488 585.83,-488 589,-491.17 589,-494.33 589,-494.33 589,-500.67 589,-500.67 589,-503.83 585.83,-507 582.67,-507"/>
<text text-anchor="middle" x="552" y="-495" font-family="Helvetica,sans-Serif" font-size="10.00">satYawBds3</text>
</a>
</g>
</g>
<!-- Node1&#45;&gt;Node183 -->
<g id="edge49_Node000001_Node000183" class="edge">
<title>Node1&#45;&gt;Node183</title>
<g id="a_edge49_Node000001_Node000183"><a xlink:title=" ">
<path fill="none" stroke="#63b8ff" d="M719.51,-888.47C713.82,-816.99 691.08,-575.89 640,-521.5 627.02,-507.68 606.88,-501.56 589.24,-498.95"/>
<polygon fill="#63b8ff" stroke="#63b8ff" points="716.05,-889.06 720.31,-898.76 723.03,-888.52 716.05,-889.06"/>
</a>
</g>
</g>
<!-- Node184 -->
<g id="Node000184" class="node">
<title>Node184</title>
<g id="a_Node000184"><a xlink:href="attitude_8cpp.html#abdce260d1dd40f5c15f4003e87bafd3b" target="_top" xlink:title="Yaw model for GAL FOC sats.">
<path fill="#fff0f0" stroke="red" d="M587.17,-470C587.17,-470 516.83,-470 516.83,-470 513.67,-470 510.5,-466.83 510.5,-463.67 510.5,-463.67 510.5,-457.33 510.5,-457.33 510.5,-454.17 513.67,-451 516.83,-451 516.83,-451 587.17,-451 587.17,-451 590.33,-451 593.5,-454.17 593.5,-457.33 593.5,-457.33 593.5,-463.67 593.5,-463.67 593.5,-466.83 590.33,-470 587.17,-470"/>
<text text-anchor="middle" x="552" y="-458" font-family="Helvetica,sans-Serif" font-size="10.00">satYawGalFoc</text>
</a>
</g>
</g>
<!-- Node1&#45;&gt;Node184 -->
<g id="edge51_Node000001_Node000184" class="edge">
<title>Node1&#45;&gt;Node184</title>
<g id="a_edge51_Node000001_Node000184"><a xlink:title=" ">
<path fill="none" stroke="#63b8ff" d="M720.08,-888.69C716.12,-812.45 698.04,-539.21 640,-479.5 628.04,-467.19 610.09,-461.99 593.6,-460.04"/>
<polygon fill="#63b8ff" stroke="#63b8ff" points="716.59,-889.01 720.58,-898.82 723.58,-888.66 716.59,-889.01"/>
</a>
</g>
</g>
<!-- Node185 -->
<g id="Node000185" class="node">
<title>Node185</title>
<g id="a_Node000185"><a xlink:href="attitude_8cpp.html#a18338f781fea251d0f8b03666fde5b9e" target="_top" xlink:title="Yaw model for GAL IOV sats.">
<path fill="#fff0f0" stroke="red" d="M586.67,-433C586.67,-433 517.33,-433 517.33,-433 514.17,-433 511,-429.83 511,-426.67 511,-426.67 511,-420.33 511,-420.33 511,-417.17 514.17,-414 517.33,-414 517.33,-414 586.67,-414 586.67,-414 589.83,-414 593,-417.17 593,-420.33 593,-420.33 593,-426.67 593,-426.67 593,-429.83 589.83,-433 586.67,-433"/>
<text text-anchor="middle" x="552" y="-421" font-family="Helvetica,sans-Serif" font-size="10.00">satYawGalIov</text>
</a>
</g>
</g>
<!-- Node1&#45;&gt;Node185 -->
<g id="edge52_Node000001_Node000185" class="edge">
<title>Node1&#45;&gt;Node185</title>
<g id="a_edge52_Node000001_Node000185"><a xlink:title=" ">
<path fill="none" stroke="#63b8ff" d="M720.4,-888.56C717.55,-808.04 702.81,-508.06 640,-442.5 628.02,-430 609.87,-424.8 593.24,-422.9"/>
<polygon fill="#63b8ff" stroke="#63b8ff" points="716.91,-888.92 720.74,-898.79 723.9,-888.68 716.91,-888.92"/>
</a>
</g>
</g>
<!-- Node109 -->
<g id="Node000109" class="node">
<title>Node109</title>
<g id="a_Node000109"><a xlink:href="attitude_8cpp.html#af64a8516da71e0d4f37682b1935fdca3" target="_top" xlink:title="Yaw model for GLONASS sats Returns false if no modelled yaw available Ref: https://igsac&#45;cnes....">
<path fill="#fff0f0" stroke="red" d="M579.17,-396C579.17,-396 524.83,-396 524.83,-396 521.67,-396 518.5,-392.83 518.5,-389.67 518.5,-389.67 518.5,-383.33 518.5,-383.33 518.5,-380.17 521.67,-377 524.83,-377 524.83,-377 579.17,-377 579.17,-377 582.33,-377 585.5,-380.17 585.5,-383.33 585.5,-383.33 585.5,-389.67 585.5,-389.67 585.5,-392.83 582.33,-396 579.17,-396"/>
<text text-anchor="middle" x="552" y="-384" font-family="Helvetica,sans-Serif" font-size="10.00">satYawGlo</text>
</a>
</g>
</g>
<!-- Node1&#45;&gt;Node109 -->
<g id="edge53_Node000001_Node000109" class="edge">
<title>Node1&#45;&gt;Node109</title>
<g id="a_edge53_Node000001_Node000109"><a xlink:title=" ">
<path fill="none" stroke="#63b8ff" d="M720.68,-888.62C718.89,-804.27 707.64,-476.99 640,-405.5 626.29,-391.01 604.31,-386.3 585.87,-385.19"/>
<polygon fill="#63b8ff" stroke="#63b8ff" points="717.18,-888.93 720.87,-898.86 724.18,-888.8 717.18,-888.93"/>
</a>
</g>
</g>
<!-- Node113 -->
<g id="Node000113" class="node">
<title>Node113</title>
<g id="a_Node000113"><a xlink:href="attitude_8cpp.html#a46cec52b21a1c337c0ca23eba28f5bca" target="_top" xlink:title="Yaw model for GPS&#45;IIA sats Ref: http://acc.igs.org/orbits/EclipseReadMe.pdf Ref: https://igsac&#45;cnes....">
<path fill="#fff0f0" stroke="red" d="M382.17,-412C382.17,-412 312.83,-412 312.83,-412 309.67,-412 306.5,-408.83 306.5,-405.67 306.5,-405.67 306.5,-399.33 306.5,-399.33 306.5,-396.17 309.67,-393 312.83,-393 312.83,-393 382.17,-393 382.17,-393 385.33,-393 388.5,-396.17 388.5,-399.33 388.5,-399.33 388.5,-405.67 388.5,-405.67 388.5,-408.83 385.33,-412 382.17,-412"/>
<text text-anchor="middle" x="347.5" y="-400" font-family="Helvetica,sans-Serif" font-size="10.00">satYawGpsIIA</text>
</a>
</g>
</g>
<!-- Node1&#45;&gt;Node113 -->
<g id="edge54_Node000001_Node000113" class="edge">
<title>Node1&#45;&gt;Node113</title>
<g id="a_edge54_Node000001_Node000113"><a xlink:title=" ">
<path fill="none" stroke="#63b8ff" d="M721.29,-888.75C722.13,-799.82 720.52,-437.84 640,-368.5 580.73,-317.46 540.52,-352.26 464,-368.5 446.87,-372.13 444.62,-378.98 428,-384.5 415.37,-388.69 401.3,-392.23 388.55,-395.03"/>
<polygon fill="#63b8ff" stroke="#63b8ff" points="717.79,-888.78 721.17,-898.82 724.79,-888.87 717.79,-888.78"/>
</a>
</g>
</g>
<!-- Node114 -->
<g id="Node000114" class="node">
<title>Node114</title>
<g id="a_Node000114"><a xlink:href="attitude_8cpp.html#af06aa2920ea6c715fd8973e86ab0822f" target="_top" xlink:title="Yaw model for GPS&#45;IIF sats Ref: https://www.researchgate.net/publication/306924379_Observed_features_...">
<path fill="#fff0f0" stroke="red" d="M381.67,-301C381.67,-301 313.33,-301 313.33,-301 310.17,-301 307,-297.83 307,-294.67 307,-294.67 307,-288.33 307,-288.33 307,-285.17 310.17,-282 313.33,-282 313.33,-282 381.67,-282 381.67,-282 384.83,-282 388,-285.17 388,-288.33 388,-288.33 388,-294.67 388,-294.67 388,-297.83 384.83,-301 381.67,-301"/>
<text text-anchor="middle" x="347.5" y="-289" font-family="Helvetica,sans-Serif" font-size="10.00">satYawGpsIIF</text>
</a>
</g>
</g>
<!-- Node1&#45;&gt;Node114 -->
<g id="edge55_Node000001_Node000114" class="edge">
<title>Node1&#45;&gt;Node114</title>
<g id="a_edge55_Node000001_Node000114"><a xlink:title=" ">
<path fill="none" stroke="#63b8ff" d="M721.2,-888.8C721.71,-797.62 718.98,-417.73 640,-337.5 605.58,-302.54 459.54,-294.14 388.13,-292.13"/>
<polygon fill="#63b8ff" stroke="#63b8ff" points="717.7,-888.84 721.12,-898.86 724.7,-888.89 717.7,-888.84"/>
</a>
</g>
</g>
<!-- Node186 -->
<g id="Node000186" class="node">
<title>Node186</title>
<g id="a_Node000186"><a xlink:href="attitude_8cpp.html#a43e7b17b62853da813d5289667b3284e" target="_top" xlink:title="Yaw model for GPS&#45;IIR sats Ref: http://acc.igs.org/orbits/EclipseReadMe.pdf Ref: https://igsac&#45;cnes....">
<path fill="#fff0f0" stroke="red" d="M586.67,-282C586.67,-282 517.33,-282 517.33,-282 514.17,-282 511,-278.83 511,-275.67 511,-275.67 511,-269.33 511,-269.33 511,-266.17 514.17,-263 517.33,-263 517.33,-263 586.67,-263 586.67,-263 589.83,-263 593,-266.17 593,-269.33 593,-269.33 593,-275.67 593,-275.67 593,-278.83 589.83,-282 586.67,-282"/>
<text text-anchor="middle" x="552" y="-270" font-family="Helvetica,sans-Serif" font-size="10.00">satYawGpsIIR</text>
</a>
</g>
</g>
<!-- Node1&#45;&gt;Node186 -->
<g id="edge56_Node000001_Node000186" class="edge">
<title>Node1&#45;&gt;Node186</title>
<g id="a_edge56_Node000001_Node000186"><a xlink:title=" ">
<path fill="none" stroke="#63b8ff" d="M721.2,-888.5C721.76,-793.4 719.4,-387.66 640,-296.5 628.37,-283.15 610.06,-276.91 593.23,-274.1"/>
<polygon fill="#63b8ff" stroke="#63b8ff" points="717.7,-888.71 721.12,-898.74 724.7,-888.77 717.7,-888.71"/>
</a>
</g>
</g>
<!-- Node139 -->
<g id="Node000139" class="node">
<title>Node139</title>
<g id="a_Node000139"><a xlink:href="attitude_8cpp.html#ae895bad3e9b1c1ce5b6ccadab478b787" target="_top" xlink:title="Yaw model for QZSS&#45;2I &amp; QZSS&#45;2A satellites Requires qzss_yaw_modes.snx &#45; generated by scripts/qzss_oh...">
<path fill="#fff0f0" stroke="red" d="M584.17,-245C584.17,-245 519.83,-245 519.83,-245 516.67,-245 513.5,-241.83 513.5,-238.67 513.5,-238.67 513.5,-232.33 513.5,-232.33 513.5,-229.17 516.67,-226 519.83,-226 519.83,-226 584.17,-226 584.17,-226 587.33,-226 590.5,-229.17 590.5,-232.33 590.5,-232.33 590.5,-238.67 590.5,-238.67 590.5,-241.83 587.33,-245 584.17,-245"/>
<text text-anchor="middle" x="552" y="-233" font-family="Helvetica,sans-Serif" font-size="10.00">satYawQzs2I</text>
</a>
</g>
</g>
<!-- Node1&#45;&gt;Node139 -->
<g id="edge59_Node000001_Node000139" class="edge">
<title>Node1&#45;&gt;Node139</title>
<g id="a_edge59_Node000001_Node000139"><a xlink:title=" ">
<path fill="none" stroke="#63b8ff" d="M719.89,-888.37C713.92,-783.37 684.27,-301.5 640,-253.5 627.66,-240.12 608.21,-235.25 590.83,-233.89"/>
<polygon fill="#63b8ff" stroke="#63b8ff" points="716.41,-888.76 720.46,-898.54 723.4,-888.36 716.41,-888.76"/>
</a>
</g>
</g>
<!-- Node187 -->
<g id="Node000187" class="node">
<title>Node187</title>
<g id="a_Node000187"><a xlink:href="structInteractiveTerminal.html#a1673a1bc7c18472e291aa3b1ed1bb1b7" target="_top" xlink:title=" ">
<path fill="#fff0f0" stroke="red" d="M393,-263.5C393,-263.5 302,-263.5 302,-263.5 297,-263.5 292,-258.5 292,-253.5 292,-253.5 292,-243.5 292,-243.5 292,-238.5 297,-233.5 302,-233.5 302,-233.5 393,-233.5 393,-233.5 398,-233.5 403,-238.5 403,-243.5 403,-243.5 403,-253.5 403,-253.5 403,-258.5 398,-263.5 393,-263.5"/>
<text text-anchor="start" x="300" y="-251.5" font-family="Helvetica,sans-Serif" font-size="10.00">InteractiveTerminal</text>
<text text-anchor="middle" x="347.5" y="-240.5" font-family="Helvetica,sans-Serif" font-size="10.00">::setMode</text>
</a>
</g>
</g>
<!-- Node1&#45;&gt;Node187 -->
<g id="edge60_Node000001_Node000187" class="edge">
<title>Node1&#45;&gt;Node187</title>
<g id="a_edge60_Node000001_Node000187"><a xlink:title=" ">
<path fill="none" stroke="#63b8ff" d="M720.22,-888.78C715.76,-780.62 691.77,-262.56 640,-216.5 565.26,-150 433.51,-204.44 376.31,-233.34"/>
<polygon fill="#63b8ff" stroke="#63b8ff" points="716.73,-889.08 720.63,-898.93 723.73,-888.8 716.73,-889.08"/>
</a>
</g>
</g>
<!-- Node190 -->
<g id="Node000190" class="node">
<title>Node190</title>
<g id="a_Node000190"><a xlink:href="biases_8cpp.html#a498a9e57eece625ada36154eb3745803" target="_top" xlink:title=" ">
<path fill="#fff0f0" stroke="red" d="M609.17,-169C609.17,-169 494.83,-169 494.83,-169 491.67,-169 488.5,-165.83 488.5,-162.67 488.5,-162.67 488.5,-156.33 488.5,-156.33 488.5,-153.17 491.67,-150 494.83,-150 494.83,-150 609.17,-150 609.17,-150 612.33,-150 615.5,-153.17 615.5,-156.33 615.5,-156.33 615.5,-162.67 615.5,-162.67 615.5,-165.83 612.33,-169 609.17,-169"/>
<text text-anchor="middle" x="552" y="-157" font-family="Helvetica,sans-Serif" font-size="10.00">setRestrictiveEndTime</text>
</a>
</g>
</g>
<!-- Node1&#45;&gt;Node190 -->
<g id="edge64_Node000001_Node000190" class="edge">
<title>Node1&#45;&gt;Node190</title>
<g id="a_edge64_Node000001_Node000190"><a xlink:title=" ">
<path fill="none" stroke="#63b8ff" d="M720.1,-888.76C714.89,-778.2 687.2,-238.81 640,-183.5 633.59,-175.99 625.07,-170.72 615.86,-167.05"/>
<polygon fill="#63b8ff" stroke="#63b8ff" points="716.61,-889.02 720.57,-898.84 723.6,-888.69 716.61,-889.02"/>
</a>
</g>
</g>
<!-- Node191 -->
<g id="Node000191" class="node">
<title>Node191</title>
<g id="a_Node000191"><a xlink:href="pea__snx_8cpp.html#a92a02d9dc16f06646c5c668b81caaa1f" target="_top" xlink:title=" ">
<path fill="#fff0f0" stroke="red" d="M614.67,-132C614.67,-132 489.33,-132 489.33,-132 486.17,-132 483,-128.83 483,-125.67 483,-125.67 483,-119.33 483,-119.33 483,-116.17 486.17,-113 489.33,-113 489.33,-113 614.67,-113 614.67,-113 617.83,-113 621,-116.17 621,-119.33 621,-119.33 621,-125.67 621,-125.67 621,-128.83 617.83,-132 614.67,-132"/>
<text text-anchor="middle" x="552" y="-120" font-family="Helvetica,sans-Serif" font-size="10.00">sinexPerEpochPerStation</text>
</a>
</g>
</g>
<!-- Node1&#45;&gt;Node191 -->
<g id="edge65_Node000001_Node000191" class="edge">
<title>Node1&#45;&gt;Node191</title>
<g id="a_edge65_Node000001_Node000191"><a xlink:title=" ">
<path fill="none" stroke="#63b8ff" d="M720.28,-888.62C715.97,-773.72 691.83,-197.73 640,-140.5 634.82,-134.78 628.35,-130.61 621.28,-127.6"/>
<polygon fill="#63b8ff" stroke="#63b8ff" points="716.79,-888.93 720.66,-898.79 723.79,-888.67 716.79,-888.93"/>
</a>
</g>
</g>
<!-- Node192 -->
<g id="Node000192" class="node">
<title>Node192</title>
<g id="a_Node000192"><a xlink:href="structKFState.html#a7f8e4b9291361c063cef8d9178f07707" target="_top" xlink:title="Add process noise and dynamics to filter object according to time gap.">
<path fill="#fff0f0" stroke="red" d="M611.67,-95C611.67,-95 492.33,-95 492.33,-95 489.17,-95 486,-91.83 486,-88.67 486,-88.67 486,-82.33 486,-82.33 486,-79.17 489.17,-76 492.33,-76 492.33,-76 611.67,-76 611.67,-76 614.83,-76 618,-79.17 618,-82.33 618,-82.33 618,-88.67 618,-88.67 618,-91.83 614.83,-95 611.67,-95"/>
<text text-anchor="middle" x="552" y="-83" font-family="Helvetica,sans-Serif" font-size="10.00">KFState::stateTransition</text>
</a>
</g>
</g>
<!-- Node1&#45;&gt;Node192 -->
<g id="edge67_Node000001_Node000192" class="edge">
<title>Node1&#45;&gt;Node192</title>
<g id="a_edge67_Node000001_Node000192"><a xlink:title=" ">
<path fill="none" stroke="#63b8ff" d="M720.39,-888.78C716.57,-771.01 694.32,-163.77 640,-103.5 634.11,-96.97 626.54,-92.45 618.31,-89.38"/>
<polygon fill="#63b8ff" stroke="#63b8ff" points="716.89,-888.99 720.71,-898.88 723.89,-888.77 716.89,-888.99"/>
</a>
</g>
</g>
<!-- Node193 -->
<g id="Node000193" class="node">
<title>Node193</title>
<g id="a_Node000193"><a xlink:href="erp_8cpp.html#ab3d1603dc3b9792fd8a9116558ba1d49" target="_top" xlink:title=" ">
<path fill="#fff0f0" stroke="red" d="M402.67,-127C402.67,-127 292.33,-127 292.33,-127 289.17,-127 286,-123.83 286,-120.67 286,-120.67 286,-114.33 286,-114.33 286,-111.17 289.17,-108 292.33,-108 292.33,-108 402.67,-108 402.67,-108 405.83,-108 409,-111.17 409,-114.33 409,-114.33 409,-120.67 409,-120.67 409,-123.83 405.83,-127 402.67,-127"/>
<text text-anchor="middle" x="347.5" y="-115" font-family="Helvetica,sans-Serif" font-size="10.00">writeErpFromNetwork</text>
</a>
</g>
</g>
<!-- Node1&#45;&gt;Node193 -->
<g id="edge69_Node000001_Node000193" class="edge">
<title>Node1&#45;&gt;Node193</title>
<g id="a_edge69_Node000001_Node000193"><a xlink:title=" ">
<path fill="none" stroke="#63b8ff" d="M720.65,-888.84C718.32,-767.5 702.98,-123.72 640,-66.5 558.62,7.43 409.6,-77.88 362.89,-107.86"/>
<polygon fill="#63b8ff" stroke="#63b8ff" points="717.16,-888.98 720.84,-898.92 724.15,-888.85 717.16,-888.98"/>
</a>
</g>
</g>
<!-- Node194 -->
<g id="Node000194" class="node">
<title>Node194</title>
<g id="a_Node000194"><a xlink:href="gTime_8cpp.html#a25abbda5263c0b29ab3479dd35b140e3" target="_top" xlink:title=" ">
<path fill="#fff0f0" stroke="red" d="M576.67,-19C576.67,-19 527.33,-19 527.33,-19 524.17,-19 521,-15.83 521,-12.67 521,-12.67 521,-6.33 521,-6.33 521,-3.17 524.17,0 527.33,0 527.33,0 576.67,0 576.67,0 579.83,0 583,-3.17 583,-6.33 583,-6.33 583,-12.67 583,-12.67 583,-15.83 579.83,-19 576.67,-19"/>
<text text-anchor="middle" x="552" y="-7" font-family="Helvetica,sans-Serif" font-size="10.00">yds2time</text>
</a>
</g>
</g>
<!-- Node1&#45;&gt;Node194 -->
<g id="edge71_Node000001_Node000194" class="edge">
<title>Node1&#45;&gt;Node194</title>
<g id="a_edge71_Node000001_Node000194"><a xlink:title=" ">
<path fill="none" stroke="#63b8ff" d="M720.5,-888.68C717.18,-764.94 696.8,-101.35 640,-33.5 626.32,-17.16 602.62,-11.41 583.41,-9.61"/>
<polygon fill="#63b8ff" stroke="#63b8ff" points="717,-889.03 720.76,-898.94 724,-888.85 717,-889.03"/>
</a>
</g>
</g>
<!-- Node53&#45;&gt;Node9 -->
<g id="edge5_Node000053_Node000009" class="edge">
<title>Node53&#45;&gt;Node9</title>
<g id="a_edge5_Node000053_Node000009"><a xlink:title=" ">
<path fill="none" stroke="#63b8ff" d="M144.15,-1481.38C118.53,-1426.06 44.98,-1267.21 26.01,-1226.23"/>
<polygon fill="#63b8ff" stroke="#63b8ff" points="141.1,-1483.12 148.47,-1490.72 147.45,-1480.18 141.1,-1483.12"/>
</a>
</g>
</g>
<!-- Node82&#45;&gt;Node89 -->
<g id="edge10_Node000082_Node000089" class="edge">
<title>Node82&#45;&gt;Node89</title>
<g id="a_edge10_Node000082_Node000089"><a xlink:title=" ">
<path fill="none" stroke="#63b8ff" d="M482.2,-1567.38C475.46,-1564.51 469.2,-1560.65 464,-1555.5 385.34,-1477.55 354.08,-1097.54 349.2,-1031.34"/>
<polygon fill="#63b8ff" stroke="#63b8ff" points="481.06,-1570.69 491.65,-1570.71 483.39,-1564.09 481.06,-1570.69"/>
</a>
</g>
</g>
<!-- Node89&#45;&gt;Node19 -->
<g id="edge11_Node000089_Node000019" class="edge">
<title>Node89&#45;&gt;Node19</title>
<g id="a_edge11_Node000089_Node000019"><a xlink:title=" ">
<path fill="none" stroke="#63b8ff" d="M317.38,-1035.64C277.92,-1054.81 208.51,-1088.51 174.67,-1104.95"/>
<polygon fill="#63b8ff" stroke="#63b8ff" points="319.26,-1038.62 326.73,-1031.1 316.2,-1032.32 319.26,-1038.62"/>
</a>
</g>
</g>
<!-- Node89&#45;&gt;Node17 -->
<g id="edge13_Node000089_Node000017" class="edge">
<title>Node89&#45;&gt;Node17</title>
<g id="a_edge13_Node000089_Node000017"><a xlink:title=" ">
<path fill="none" stroke="#63b8ff" d="M323.8,-1005.85C286.65,-980.25 213.37,-929.74 176.81,-904.54"/>
<polygon fill="#63b8ff" stroke="#63b8ff" points="322.2,-1009 332.42,-1011.79 326.17,-1003.24 322.2,-1009"/>
</a>
</g>
</g>
<!-- Node19&#45;&gt;Node9 -->
<g id="edge12_Node000019_Node000009" class="edge">
<title>Node19&#45;&gt;Node9</title>
<g id="a_edge12_Node000019_Node000009"><a xlink:title=" ">
<path fill="none" stroke="#63b8ff" d="M123.17,-1128.7C108.6,-1136.3 91.19,-1146.37 77,-1157.5 57.75,-1172.61 39.03,-1194.43 29.01,-1206.87"/>
<polygon fill="#63b8ff" stroke="#63b8ff" points="124.94,-1131.73 132.28,-1124.09 121.78,-1125.49 124.94,-1131.73"/>
</a>
</g>
</g>
<!-- Node99&#45;&gt;Node89 -->
<g id="edge17_Node000099_Node000089" class="edge">
<title>Node99&#45;&gt;Node89</title>
<g id="a_edge17_Node000099_Node000089"><a xlink:title=" ">
<path fill="none" stroke="#63b8ff" d="M517.79,-1500.72C499.68,-1499.6 478.15,-1495.06 464,-1481.5 446.65,-1464.87 364.86,-1095.88 350.62,-1031.15"/>
<polygon fill="#63b8ff" stroke="#63b8ff" points="517.87,-1504.23 527.97,-1501.04 518.08,-1497.23 517.87,-1504.23"/>
</a>
</g>
</g>
<!-- Node99&#45;&gt;Node19 -->
<g id="edge16_Node000099_Node000019" class="edge">
<title>Node99&#45;&gt;Node19</title>
<g id="a_edge16_Node000099_Node000019"><a xlink:title=" ">
<path fill="none" stroke="#63b8ff" d="M517.62,-1497.77C500.59,-1495.65 480.13,-1491.11 464,-1481.5 301.95,-1384.91 184.76,-1171.95 159.91,-1124.15"/>
<polygon fill="#63b8ff" stroke="#63b8ff" points="517.4,-1501.27 527.71,-1498.8 518.11,-1494.31 517.4,-1501.27"/>
</a>
</g>
</g>
<!-- Node136&#45;&gt;Node137 -->
<g id="edge21_Node000136_Node000137" class="edge">
<title>Node136&#45;&gt;Node137</title>
<g id="a_edge21_Node000136_Node000137"><a xlink:title=" ">
<path fill="none" stroke="#63b8ff" d="M488.51,-1385.8C479.16,-1382.72 470.5,-1377.9 464,-1370.5 428.7,-1330.32 435.86,-943.4 428,-890.5 407.34,-751.5 362.54,-585.95 351.17,-545.01"/>
<polygon fill="#63b8ff" stroke="#63b8ff" points="487.88,-1389.25 498.44,-1388.41 489.66,-1382.48 487.88,-1389.25"/>
</a>
</g>
</g>
<!-- Node154&#45;&gt;Node154 -->
<g id="edge30_Node000154_Node000154" class="edge">
<title>Node154&#45;&gt;Node154</title>
<g id="a_edge30_Node000154_Node000154"><a xlink:title=" ">
<path fill="none" stroke="#63b8ff" d="M581.76,-1090.1C577.69,-1094.47 567.77,-1097.5 552,-1097.5 525.44,-1097.5 515.48,-1088.91 522.12,-1079.78"/>
<polygon fill="#63b8ff" stroke="#63b8ff" points="585.26,-1089.82 581.88,-1079.78 578.26,-1089.73 585.26,-1089.82"/>
</a>
</g>
</g>
<!-- Node158&#45;&gt;Node89 -->
<g id="edge35_Node000158_Node000089" class="edge">
<title>Node158&#45;&gt;Node89</title>
<g id="a_edge35_Node000158_Node000089"><a xlink:title=" ">
<path fill="none" stroke="#63b8ff" d="M501.69,-955.15C489.23,-957.91 475.99,-961.35 464,-965.5 427.36,-978.18 387.17,-999.5 365.18,-1011.85"/>
<polygon fill="#63b8ff" stroke="#63b8ff" points="502.42,-958.57 511.48,-953.08 500.97,-951.72 502.42,-958.57"/>
</a>
</g>
</g>
<!-- Node158&#45;&gt;Node19 -->
<g id="edge34_Node000158_Node000019" class="edge">
<title>Node158&#45;&gt;Node19</title>
<g id="a_edge34_Node000158_Node000019"><a xlink:title=" ">
<path fill="none" stroke="#63b8ff" d="M501.4,-949.44C488.18,-952.22 474.63,-957.09 464,-965.5 435,-988.44 456.42,-1016.85 428,-1040.5 366.19,-1091.93 271.75,-1107.84 211.72,-1112.63"/>
<polygon fill="#63b8ff" stroke="#63b8ff" points="502.15,-952.86 511.4,-947.7 500.95,-945.96 502.15,-952.86"/>
</a>
</g>
</g>
<!-- Node158&#45;&gt;Node17 -->
<g id="edge36_Node000158_Node000017" class="edge">
<title>Node158&#45;&gt;Node17</title>
<g id="a_edge36_Node000158_Node000017"><a xlink:title=" ">
<path fill="none" stroke="#63b8ff" d="M500.85,-947.06C443.7,-946.8 347.75,-943.61 267,-927.5 241.12,-922.34 213.01,-912.78 191.42,-904.55"/>
<polygon fill="#63b8ff" stroke="#63b8ff" points="501.06,-950.56 511.06,-947.08 501.07,-943.56 501.06,-950.56"/>
</a>
</g>
</g>
<!-- Node167&#45;&gt;Node17 -->
<g id="edge38_Node000167_Node000017" class="edge">
<title>Node167&#45;&gt;Node17</title>
<g id="a_edge38_Node000167_Node000017"><a xlink:title=" ">
<path fill="none" stroke="#63b8ff" d="M285.92,-902.49C268.53,-900.76 249.33,-898.86 231.13,-897.05"/>
<polygon fill="#63b8ff" stroke="#63b8ff" points="285.64,-905.98 295.94,-903.48 286.33,-899.01 285.64,-905.98"/>
</a>
</g>
</g>
<!-- Node183&#45;&gt;Node137 -->
<g id="edge50_Node000183_Node000137" class="edge">
<title>Node183&#45;&gt;Node137</title>
<g id="a_edge50_Node000183_Node000137"><a xlink:title=" ">
<path fill="none" stroke="#63b8ff" d="M504.91,-506.15C468.48,-512.99 418.33,-522.4 384.73,-528.7"/>
<polygon fill="#63b8ff" stroke="#63b8ff" points="505.61,-509.58 514.8,-504.29 504.32,-502.7 505.61,-509.58"/>
</a>
</g>
</g>
<!-- Node186&#45;&gt;Node113 -->
<g id="edge57_Node000186_Node000113" class="edge">
<title>Node186&#45;&gt;Node113</title>
<g id="a_edge57_Node000186_Node000113"><a xlink:title=" ">
<path fill="none" stroke="#63b8ff" d="M525.72,-287.38C507.4,-298.88 482.67,-315.92 464,-334.5 444.59,-353.82 450.83,-369.39 428,-384.5 416.44,-392.15 402.07,-396.59 388.75,-399.14"/>
<polygon fill="#63b8ff" stroke="#63b8ff" points="527.71,-290.27 534.39,-282.05 524.04,-284.3 527.71,-290.27"/>
</a>
</g>
</g>
<!-- Node186&#45;&gt;Node114 -->
<g id="edge58_Node000186_Node000114" class="edge">
<title>Node186&#45;&gt;Node114</title>
<g id="a_edge58_Node000186_Node000114"><a xlink:title=" ">
<path fill="none" stroke="#63b8ff" d="M501.02,-277.19C466.2,-280.46 420.38,-284.76 388.08,-287.79"/>
<polygon fill="#63b8ff" stroke="#63b8ff" points="501.36,-280.67 510.99,-276.25 500.71,-273.7 501.36,-280.67"/>
</a>
</g>
</g>
<!-- Node187&#45;&gt;Node9 -->
<g id="edge61_Node000187_Node000009" class="edge">
<title>Node187&#45;&gt;Node9</title>
<g id="a_edge61_Node000187_Node000009"><a xlink:title=" ">
<path fill="none" stroke="#63b8ff" d="M282.62,-259.52C276.62,-262.82 271.22,-267.07 267,-272.5 208.32,-348.16 286.45,-1055.44 231,-1133.5 185.8,-1197.13 83.82,-1211.99 41,-1215.45"/>
<polygon fill="#63b8ff" stroke="#63b8ff" points="284.15,-262.67 291.78,-255.31 281.23,-256.3 284.15,-262.67"/>
</a>
</g>
</g>
<!-- Node187&#45;&gt;Node19 -->
<g id="edge62_Node000187_Node000019" class="edge">
<title>Node187&#45;&gt;Node19</title>
<g id="a_edge62_Node000187_Node000019"><a xlink:title=" ">
<path fill="none" stroke="#63b8ff" d="M282.7,-259.58C276.68,-262.87 271.25,-267.1 267,-272.5 222.88,-328.55 245.79,-843.71 231,-913.5 214.76,-990.14 174.02,-1076.3 159.91,-1104.79"/>
<polygon fill="#63b8ff" stroke="#63b8ff" points="284.23,-262.73 291.87,-255.38 281.32,-256.36 284.23,-262.73"/>
</a>
</g>
</g>
<!-- Node187&#45;&gt;Node17 -->
<g id="edge63_Node000187_Node000017" class="edge">
<title>Node187&#45;&gt;Node17</title>
<g id="a_edge63_Node000187_Node000017"><a xlink:title=" ">
<path fill="none" stroke="#63b8ff" d="M282.42,-260.61C276.64,-263.73 271.35,-267.63 267,-272.5 183.73,-365.81 159.71,-788.59 155.66,-874.31"/>
<polygon fill="#63b8ff" stroke="#63b8ff" points="284.17,-263.66 291.82,-256.33 281.26,-257.29 284.17,-263.66"/>
</a>
</g>
</g>
<!-- Node191&#45;&gt;Node26 -->
<g id="edge66_Node000191_Node000026" class="edge">
<title>Node191&#45;&gt;Node26</title>
<g id="a_edge66_Node000191_Node000026"><a xlink:title=" ">
<path fill="none" stroke="#63b8ff" d="M473.7,-132.94C470.2,-135.08 466.93,-137.58 464,-140.5 409.26,-194.98 482.23,-255.51 428,-310.5 424.72,-313.83 420.97,-316.59 416.91,-318.89"/>
<polygon fill="#63b8ff" stroke="#63b8ff" points="475.5,-135.95 482.85,-128.32 472.35,-129.7 475.5,-135.95"/>
</a>
</g>
</g>
<!-- Node192&#45;&gt;Node89 -->
<g id="edge68_Node000192_Node000089" class="edge">
<title>Node192&#45;&gt;Node89</title>
<g id="a_edge68_Node000192_Node000089"><a xlink:title=" ">
<path fill="none" stroke="#63b8ff" d="M476.39,-93.31C471.75,-96 467.53,-99.35 464,-103.5 404.6,-173.28 461.38,-842.15 428,-927.5 413.75,-963.93 379.25,-996.31 360.73,-1011.81"/>
<polygon fill="#63b8ff" stroke="#63b8ff" points="478.21,-96.33 485.78,-88.92 475.24,-89.99 478.21,-96.33"/>
</a>
</g>
</g>
<!-- Node193&#45;&gt;Node17 -->
<g id="edge70_Node000193_Node000017" class="edge">
<title>Node193&#45;&gt;Node17</title>
<g id="a_edge70_Node000193_Node000017"><a xlink:title=" ">
<path fill="none" stroke="#63b8ff" d="M329.85,-134.42C311.37,-154.25 282.15,-188.95 267,-224.5 163.25,-467.91 155.4,-799.82 154.98,-874.27"/>
<polygon fill="#63b8ff" stroke="#63b8ff" points="332.45,-136.76 336.81,-127.1 327.38,-131.93 332.45,-136.76"/>
</a>
</g>
</g>
<!-- Node194&#45;&gt;Node60 -->
<g id="edge72_Node000194_Node000060" class="edge">
<title>Node194&#45;&gt;Node60</title>
<g id="a_edge72_Node000194_Node000060"><a xlink:title=" ">
<path fill="none" stroke="#63b8ff" d="M516.46,-23.42C497.83,-32.78 476.21,-46.99 464,-66.5 397.21,-173.24 512.69,-254.33 428,-347.5 417.15,-359.44 400.2,-364.31 384.73,-366.05"/>
<polygon fill="#63b8ff" stroke="#63b8ff" points="518.05,-26.54 525.59,-19.1 515.05,-20.22 518.05,-26.54"/>
</a>
</g>
</g>
</g>
</svg>
