<?xml version="1.0" encoding="UTF-8" standalone="no"?>
<!DOCTYPE svg PUBLIC "-//W3C//DTD SVG 1.1//EN"
 "http://www.w3.org/Graphics/SVG/1.1/DTD/svg11.dtd">
<!-- Generated by graphviz version 2.43.0 (0)
 -->
<!-- Title: VectorPos::lonDeg Pages: 1 -->
<svg width="407pt" height="970pt"
 viewBox="0.00 0.00 407.00 969.50" xmlns="http://www.w3.org/2000/svg" xmlns:xlink="http://www.w3.org/1999/xlink">
<g id="graph0" class="graph" transform="scale(1 1) rotate(0) translate(4 965.5)">
<title>VectorPos::lonDeg</title>
<!-- Node1 -->
<g id="Node000001" class="node">
<title>Node1</title>
<g id="a_Node000001"><a xlink:href="structVectorPos.html#aa693d5a52133cfb55040b768c6175bae" target="_top" xlink:title=" ">
<path fill="#fff0f0" stroke="red" stroke-width="2" d="M392.67,-485C392.67,-485 300.33,-485 300.33,-485 297.17,-485 294,-481.83 294,-478.67 294,-478.67 294,-472.33 294,-472.33 294,-469.17 297.17,-466 300.33,-466 300.33,-466 392.67,-466 392.67,-466 395.83,-466 399,-469.17 399,-472.33 399,-472.33 399,-478.67 399,-478.67 399,-481.83 395.83,-485 392.67,-485"/>
<text text-anchor="middle" x="346.5" y="-473" font-family="Helvetica,sans-Serif" font-size="10.00">VectorPos::lonDeg</text>
</a>
</g>
</g>
<!-- Node2 -->
<g id="Node000002" class="node">
<title>Node2</title>
<g id="a_Node000002"><a xlink:href="structOrbitIntegrator.html#a3ed19521cfc21cdaa2d7c8fa4f385499" target="_top" xlink:title=" ">
<path fill="#fff0f0" stroke="red" d="M248,-961.5C248,-961.5 131,-961.5 131,-961.5 126,-961.5 121,-956.5 121,-951.5 121,-951.5 121,-941.5 121,-941.5 121,-936.5 126,-931.5 131,-931.5 131,-931.5 248,-931.5 248,-931.5 253,-931.5 258,-936.5 258,-941.5 258,-941.5 258,-951.5 258,-951.5 258,-956.5 253,-961.5 248,-961.5"/>
<text text-anchor="start" x="129" y="-949.5" font-family="Helvetica,sans-Serif" font-size="10.00">OrbitIntegrator::compute</text>
<text text-anchor="middle" x="189.5" y="-938.5" font-family="Helvetica,sans-Serif" font-size="10.00">Acceleration</text>
</a>
</g>
</g>
<!-- Node1&#45;&gt;Node2 -->
<g id="edge1_Node000001_Node000002" class="edge">
<title>Node1&#45;&gt;Node2</title>
<g id="a_edge1_Node000001_Node000002"><a xlink:title=" ">
<path fill="none" stroke="#63b8ff" d="M344.18,-495.41C338.63,-573.34 314.83,-856.55 258,-922.5 255.08,-925.89 251.64,-928.8 247.9,-931.31"/>
<polygon fill="#63b8ff" stroke="#63b8ff" points="347.69,-495.31 344.89,-485.09 340.71,-494.83 347.69,-495.31"/>
</a>
</g>
</g>
<!-- Node4 -->
<g id="Node000004" class="node">
<title>Node4</title>
<g id="a_Node000004"><a xlink:href="ionoLocalSTEC_8cpp.html#a4ac0ae5657ac53a7056034344425230a" target="_top" xlink:title=" ">
<path fill="#fff0f0" stroke="red" d="M230.67,-913C230.67,-913 148.33,-913 148.33,-913 145.17,-913 142,-909.83 142,-906.67 142,-906.67 142,-900.33 142,-900.33 142,-897.17 145.17,-894 148.33,-894 148.33,-894 230.67,-894 230.67,-894 233.83,-894 237,-897.17 237,-900.33 237,-900.33 237,-906.67 237,-906.67 237,-909.83 233.83,-913 230.67,-913"/>
<text text-anchor="middle" x="189.5" y="-901" font-family="Helvetica,sans-Serif" font-size="10.00">getCmpSSRIono</text>
</a>
</g>
</g>
<!-- Node1&#45;&gt;Node4 -->
<g id="edge2_Node000001_Node000004" class="edge">
<title>Node1&#45;&gt;Node4</title>
<g id="a_edge2_Node000001_Node000004"><a xlink:title=" ">
<path fill="none" stroke="#63b8ff" d="M343.97,-495.31C337.86,-569.24 312.87,-827.8 258,-885.5 252.32,-891.48 244.89,-895.55 237.05,-898.31"/>
<polygon fill="#63b8ff" stroke="#63b8ff" points="347.48,-495.33 344.79,-485.08 340.5,-494.77 347.48,-495.33"/>
</a>
</g>
</g>
<!-- Node11 -->
<g id="Node000011" class="node">
<title>Node11</title>
<g id="a_Node000011"><a xlink:href="ionoSpherical_8cpp.html#ad01dd353d17b69b39684a5bb3169fea5" target="_top" xlink:title=" ">
<path fill="#fff0f0" stroke="red" d="M226.17,-876C226.17,-876 152.83,-876 152.83,-876 149.67,-876 146.5,-872.83 146.5,-869.67 146.5,-869.67 146.5,-863.33 146.5,-863.33 146.5,-860.17 149.67,-857 152.83,-857 152.83,-857 226.17,-857 226.17,-857 229.33,-857 232.5,-860.17 232.5,-863.33 232.5,-863.33 232.5,-869.67 232.5,-869.67 232.5,-872.83 229.33,-876 226.17,-876"/>
<text text-anchor="middle" x="189.5" y="-864" font-family="Helvetica,sans-Serif" font-size="10.00">getEpcSsrIono</text>
</a>
</g>
</g>
<!-- Node1&#45;&gt;Node11 -->
<g id="edge3_Node000001_Node000011" class="edge">
<title>Node1&#45;&gt;Node11</title>
<g id="a_edge3_Node000001_Node000011"><a xlink:title=" ">
<path fill="none" stroke="#63b8ff" d="M343.52,-495.3C336.16,-564.87 308.24,-796.72 258,-848.5 251.24,-855.46 242.12,-859.83 232.76,-862.55"/>
<polygon fill="#63b8ff" stroke="#63b8ff" points="347.01,-495.55 344.56,-485.25 340.05,-494.84 347.01,-495.55"/>
</a>
</g>
</g>
<!-- Node13 -->
<g id="Node000013" class="node">
<title>Node13</title>
<g id="a_Node000013"><a xlink:href="ionModels_8cpp.html#a01fb4b3a1115f1db6ec700ecf9892e92" target="_top" xlink:title="interpolate tec grid data">
<path fill="#fff0f0" stroke="red" d="M213.67,-839C213.67,-839 165.33,-839 165.33,-839 162.17,-839 159,-835.83 159,-832.67 159,-832.67 159,-826.33 159,-826.33 159,-823.17 162.17,-820 165.33,-820 165.33,-820 213.67,-820 213.67,-820 216.83,-820 220,-823.17 220,-826.33 220,-826.33 220,-832.67 220,-832.67 220,-835.83 216.83,-839 213.67,-839"/>
<text text-anchor="middle" x="189.5" y="-827" font-family="Helvetica,sans-Serif" font-size="10.00">interpTec</text>
</a>
</g>
</g>
<!-- Node1&#45;&gt;Node13 -->
<g id="edge4_Node000001_Node000013" class="edge">
<title>Node1&#45;&gt;Node13</title>
<g id="a_edge4_Node000001_Node000013"><a xlink:title=" ">
<path fill="none" stroke="#63b8ff" d="M346.21,-495.12C347.16,-551.21 342.14,-714.13 258,-805.5 248.23,-816.11 233.45,-822.04 220.21,-825.34"/>
<polygon fill="#63b8ff" stroke="#63b8ff" points="349.71,-495.01 345.96,-485.1 342.71,-495.19 349.71,-495.01"/>
</a>
</g>
</g>
<!-- Node24 -->
<g id="Node000024" class="node">
<title>Node24</title>
<g id="a_Node000024"><a xlink:href="ionoBSplines_8cpp.html#a62f02324c802a59df6b26dad28135cc3" target="_top" xlink:title="Estimate Ionosphere VTEC using Ionospheric gridmaps Ion_pp I Ionosphere Piercing Point layer I Layer ...">
<path fill="#fff0f0" stroke="red" d="M77.67,-745C77.67,-745 7.33,-745 7.33,-745 4.17,-745 1,-741.83 1,-738.67 1,-738.67 1,-732.33 1,-732.33 1,-729.17 4.17,-726 7.33,-726 7.33,-726 77.67,-726 77.67,-726 80.83,-726 84,-729.17 84,-732.33 84,-732.33 84,-738.67 84,-738.67 84,-741.83 80.83,-745 77.67,-745"/>
<text text-anchor="middle" x="42.5" y="-733" font-family="Helvetica,sans-Serif" font-size="10.00">ionVtecBsplin</text>
</a>
</g>
</g>
<!-- Node1&#45;&gt;Node24 -->
<g id="edge5_Node000001_Node000024" class="edge">
<title>Node1&#45;&gt;Node24</title>
<g id="a_edge5_Node000001_Node000024"><a xlink:title=" ">
<path fill="none" stroke="#63b8ff" d="M342.72,-495.51C333.78,-556.55 303.7,-738.32 258,-772.5 196.11,-818.78 96.22,-767.51 58.54,-745.01"/>
<polygon fill="#63b8ff" stroke="#63b8ff" points="346.23,-495.68 344.18,-485.28 339.3,-494.68 346.23,-495.68"/>
</a>
</g>
</g>
<!-- Node30 -->
<g id="Node000030" class="node">
<title>Node30</title>
<g id="a_Node000030"><a xlink:href="ionoSphericalCaps_8cpp.html#afe703da748ff3caca1693fac631c7f51" target="_top" xlink:title="Estimate Ionosphere VTEC using Spherical Cap Harmonic models gtime_t time I time of solutions (not us...">
<path fill="#fff0f0" stroke="red" d="M227.67,-763C227.67,-763 151.33,-763 151.33,-763 148.17,-763 145,-759.83 145,-756.67 145,-756.67 145,-750.33 145,-750.33 145,-747.17 148.17,-744 151.33,-744 151.33,-744 227.67,-744 227.67,-744 230.83,-744 234,-747.17 234,-750.33 234,-750.33 234,-756.67 234,-756.67 234,-759.83 230.83,-763 227.67,-763"/>
<text text-anchor="middle" x="189.5" y="-751" font-family="Helvetica,sans-Serif" font-size="10.00">ionVtecSphcap</text>
</a>
</g>
</g>
<!-- Node1&#45;&gt;Node30 -->
<g id="edge6_Node000001_Node000030" class="edge">
<title>Node1&#45;&gt;Node30</title>
<g id="a_edge6_Node000001_Node000030"><a xlink:title=" ">
<path fill="none" stroke="#63b8ff" d="M344.9,-495.33C342.31,-543.8 328.75,-669.14 258,-735.5 251.37,-741.72 242.82,-745.84 234.06,-748.56"/>
<polygon fill="#63b8ff" stroke="#63b8ff" points="348.4,-495.37 345.33,-485.23 341.4,-495.07 348.4,-495.37"/>
</a>
</g>
</g>
<!-- Node31 -->
<g id="Node000031" class="node">
<title>Node31</title>
<g id="a_Node000031"><a xlink:href="ionoSpherical_8cpp.html#a1b1dbb6c22bf410390abb588c45f310f" target="_top" xlink:title="Estimate Ionosphere VTEC using Spherical Cap Harmonic models gtime_t time I time of solutions (not us...">
<path fill="#fff0f0" stroke="red" d="M226.67,-726C226.67,-726 152.33,-726 152.33,-726 149.17,-726 146,-722.83 146,-719.67 146,-719.67 146,-713.33 146,-713.33 146,-710.17 149.17,-707 152.33,-707 152.33,-707 226.67,-707 226.67,-707 229.83,-707 233,-710.17 233,-713.33 233,-713.33 233,-719.67 233,-719.67 233,-722.83 229.83,-726 226.67,-726"/>
<text text-anchor="middle" x="189.5" y="-714" font-family="Helvetica,sans-Serif" font-size="10.00">ionVtecSphhar</text>
</a>
</g>
</g>
<!-- Node1&#45;&gt;Node31 -->
<g id="edge7_Node000001_Node000031" class="edge">
<title>Node1&#45;&gt;Node31</title>
<g id="a_edge7_Node000001_Node000031"><a xlink:title=" ">
<path fill="none" stroke="#63b8ff" d="M343.62,-495.42C338.4,-539 319.8,-643.33 258,-698.5 251.03,-704.72 242.15,-708.83 233.14,-711.53"/>
<polygon fill="#63b8ff" stroke="#63b8ff" points="347.12,-495.58 344.71,-485.27 340.16,-494.83 347.12,-495.58"/>
</a>
</g>
</g>
<!-- Node32 -->
<g id="Node000032" class="node">
<title>Node32</title>
<g id="a_Node000032"><a xlink:href="ionoBSplines_8cpp.html#a7002ebc4f104e21e0a2a24917ac32098" target="_top" xlink:title="checks if the Ionosphere Piercing Point falls in area of coverage time: I time of observations (not u...">
<path fill="#fff0f0" stroke="red" d="M229.17,-689C229.17,-689 149.83,-689 149.83,-689 146.67,-689 143.5,-685.83 143.5,-682.67 143.5,-682.67 143.5,-676.33 143.5,-676.33 143.5,-673.17 146.67,-670 149.83,-670 149.83,-670 229.17,-670 229.17,-670 232.33,-670 235.5,-673.17 235.5,-676.33 235.5,-676.33 235.5,-682.67 235.5,-682.67 235.5,-685.83 232.33,-689 229.17,-689"/>
<text text-anchor="middle" x="189.5" y="-677" font-family="Helvetica,sans-Serif" font-size="10.00">ippCheckBsplin</text>
</a>
</g>
</g>
<!-- Node1&#45;&gt;Node32 -->
<g id="edge8_Node000001_Node000032" class="edge">
<title>Node1&#45;&gt;Node32</title>
<g id="a_edge8_Node000001_Node000032"><a xlink:title=" ">
<path fill="none" stroke="#63b8ff" d="M341.92,-495.22C333.96,-533.31 311.1,-617.15 258,-661.5 251.58,-666.86 243.71,-670.64 235.65,-673.31"/>
<polygon fill="#63b8ff" stroke="#63b8ff" points="345.37,-495.84 343.86,-485.36 338.5,-494.49 345.37,-495.84"/>
</a>
</g>
</g>
<!-- Node36 -->
<g id="Node000036" class="node">
<title>Node36</title>
<g id="a_Node000036"><a xlink:href="ionoLocalSTEC_8cpp.html#aa36d9057a5ea9032b2f639ebc49099cb" target="_top" xlink:title="Checks if the Ionosphere Piercing Point falls in area of coverage.">
<path fill="#fff0f0" stroke="red" d="M226.67,-652C226.67,-652 152.33,-652 152.33,-652 149.17,-652 146,-648.83 146,-645.67 146,-645.67 146,-639.33 146,-639.33 146,-636.17 149.17,-633 152.33,-633 152.33,-633 226.67,-633 226.67,-633 229.83,-633 233,-636.17 233,-639.33 233,-639.33 233,-645.67 233,-645.67 233,-648.83 229.83,-652 226.67,-652"/>
<text text-anchor="middle" x="189.5" y="-640" font-family="Helvetica,sans-Serif" font-size="10.00">ippCheckLocal</text>
</a>
</g>
</g>
<!-- Node1&#45;&gt;Node36 -->
<g id="edge10_Node000001_Node000036" class="edge">
<title>Node1&#45;&gt;Node36</title>
<g id="a_edge10_Node000001_Node000036"><a xlink:title=" ">
<path fill="none" stroke="#63b8ff" d="M339.57,-494.8C328.72,-526.78 302.62,-590.56 258,-624.5 250.76,-630.01 241.97,-633.83 233.16,-636.49"/>
<polygon fill="#63b8ff" stroke="#63b8ff" points="342.9,-495.86 342.66,-485.27 336.25,-493.7 342.9,-495.86"/>
</a>
</g>
</g>
<!-- Node37 -->
<g id="Node000037" class="node">
<title>Node37</title>
<g id="a_Node000037"><a xlink:href="minimumConstraints_8cpp.html#ad6ae3cccdb74463ea328f08da634a458" target="_top" xlink:title=" ">
<path fill="#fff0f0" stroke="red" d="M224.67,-615C224.67,-615 154.33,-615 154.33,-615 151.17,-615 148,-611.83 148,-608.67 148,-608.67 148,-602.33 148,-602.33 148,-599.17 151.17,-596 154.33,-596 154.33,-596 224.67,-596 224.67,-596 227.83,-596 231,-599.17 231,-602.33 231,-602.33 231,-608.67 231,-608.67 231,-611.83 227.83,-615 224.67,-615"/>
<text text-anchor="middle" x="189.5" y="-603" font-family="Helvetica,sans-Serif" font-size="10.00">minOrbitData</text>
</a>
</g>
</g>
<!-- Node1&#45;&gt;Node37 -->
<g id="edge11_Node000001_Node000037" class="edge">
<title>Node1&#45;&gt;Node37</title>
<g id="a_edge11_Node000001_Node000037"><a xlink:title=" ">
<path fill="none" stroke="#63b8ff" d="M336.16,-493.85C322.46,-518.87 294.53,-563.36 258,-587.5 250.01,-592.78 240.52,-596.52 231.22,-599.16"/>
<polygon fill="#63b8ff" stroke="#63b8ff" points="339.25,-495.47 340.85,-485 333.07,-492.19 339.25,-495.47"/>
</a>
</g>
</g>
<!-- Node45 -->
<g id="Node000045" class="node">
<title>Node45</title>
<g id="a_Node000045"><a xlink:href="minimumConstraints_8cpp.html#abb849f43f8ddc113a68e426f98df6b22" target="_top" xlink:title=" ">
<path fill="#fff0f0" stroke="red" d="M221.67,-578C221.67,-578 157.33,-578 157.33,-578 154.17,-578 151,-574.83 151,-571.67 151,-571.67 151,-565.33 151,-565.33 151,-562.17 154.17,-559 157.33,-559 157.33,-559 221.67,-559 221.67,-559 224.83,-559 228,-562.17 228,-565.33 228,-565.33 228,-571.67 228,-571.67 228,-574.83 224.83,-578 221.67,-578"/>
<text text-anchor="middle" x="189.5" y="-566" font-family="Helvetica,sans-Serif" font-size="10.00">minSiteData</text>
</a>
</g>
</g>
<!-- Node1&#45;&gt;Node45 -->
<g id="edge12_Node000001_Node000045" class="edge">
<title>Node1&#45;&gt;Node45</title>
<g id="a_edge12_Node000001_Node000045"><a xlink:title=" ">
<path fill="none" stroke="#63b8ff" d="M329.98,-492.71C313.66,-509.79 286.45,-535.52 258,-550.5 248.77,-555.36 238.12,-558.98 228.06,-561.66"/>
<polygon fill="#63b8ff" stroke="#63b8ff" points="332.81,-494.81 337.07,-485.11 327.69,-490.04 332.81,-494.81"/>
</a>
</g>
</g>
<!-- Node34 -->
<g id="Node000034" class="node">
<title>Node34</title>
<g id="a_Node000034"><a xlink:href="ionoMeas_8cpp.html#ab3f111d5e6d66de4751fbce467a29372" target="_top" xlink:title=" ">
<path fill="#fff0f0" stroke="red" d="M222.17,-541C222.17,-541 156.83,-541 156.83,-541 153.67,-541 150.5,-537.83 150.5,-534.67 150.5,-534.67 150.5,-528.33 150.5,-528.33 150.5,-525.17 153.67,-522 156.83,-522 156.83,-522 222.17,-522 222.17,-522 225.33,-522 228.5,-525.17 228.5,-528.33 228.5,-528.33 228.5,-534.67 228.5,-534.67 228.5,-537.83 225.33,-541 222.17,-541"/>
<text text-anchor="middle" x="189.5" y="-529" font-family="Helvetica,sans-Serif" font-size="10.00">obsIonoData</text>
</a>
</g>
</g>
<!-- Node1&#45;&gt;Node34 -->
<g id="edge13_Node000001_Node000034" class="edge">
<title>Node1&#45;&gt;Node34</title>
<g id="a_edge13_Node000001_Node000034"><a xlink:title=" ">
<path fill="none" stroke="#63b8ff" d="M316.39,-489.44C299.57,-497.17 277.87,-506.58 258,-513.5 248.61,-516.77 238.31,-519.79 228.64,-522.39"/>
<polygon fill="#63b8ff" stroke="#63b8ff" points="318.09,-492.51 325.68,-485.12 315.14,-486.16 318.09,-492.51"/>
</a>
</g>
</g>
<!-- Node46 -->
<g id="Node000046" class="node">
<title>Node46</title>
<g id="a_Node000046"><a xlink:href="cost_8cpp.html#abc021ac32635abe4cf6daef44cabb888" target="_top" xlink:title="Outputs troposphere COST file.">
<path fill="#fff0f0" stroke="red" d="M218.17,-504C218.17,-504 160.83,-504 160.83,-504 157.67,-504 154.5,-500.83 154.5,-497.67 154.5,-497.67 154.5,-491.33 154.5,-491.33 154.5,-488.17 157.67,-485 160.83,-485 160.83,-485 218.17,-485 218.17,-485 221.33,-485 224.5,-488.17 224.5,-491.33 224.5,-491.33 224.5,-497.67 224.5,-497.67 224.5,-500.83 221.33,-504 218.17,-504"/>
<text text-anchor="middle" x="189.5" y="-492" font-family="Helvetica,sans-Serif" font-size="10.00">outputCost</text>
</a>
</g>
</g>
<!-- Node1&#45;&gt;Node46 -->
<g id="edge14_Node000001_Node000046" class="edge">
<title>Node1&#45;&gt;Node46</title>
<g id="a_edge14_Node000001_Node000046"><a xlink:title=" ">
<path fill="none" stroke="#63b8ff" d="M283.85,-483.06C263.75,-485.52 242.16,-488.17 224.81,-490.29"/>
<polygon fill="#63b8ff" stroke="#63b8ff" points="284.39,-486.52 293.89,-481.83 283.54,-479.57 284.39,-486.52"/>
</a>
</g>
</g>
<!-- Node47 -->
<g id="Node000047" class="node">
<title>Node47</title>
<g id="a_Node000047"><a xlink:href="ppp__obs_8cpp.html#a61988497e1e1f150671891c08653b156" target="_top" xlink:title=" ">
<path fill="#fff0f0" stroke="red" d="M223.17,-467C223.17,-467 155.83,-467 155.83,-467 152.67,-467 149.5,-463.83 149.5,-460.67 149.5,-460.67 149.5,-454.33 149.5,-454.33 149.5,-451.17 152.67,-448 155.83,-448 155.83,-448 223.17,-448 223.17,-448 226.33,-448 229.5,-451.17 229.5,-454.33 229.5,-454.33 229.5,-460.67 229.5,-460.67 229.5,-463.83 226.33,-467 223.17,-467"/>
<text text-anchor="middle" x="189.5" y="-455" font-family="Helvetica,sans-Serif" font-size="10.00">pppIonModel</text>
</a>
</g>
</g>
<!-- Node1&#45;&gt;Node47 -->
<g id="edge15_Node000001_Node000047" class="edge">
<title>Node1&#45;&gt;Node47</title>
<g id="a_edge15_Node000001_Node000047"><a xlink:title=" ">
<path fill="none" stroke="#63b8ff" d="M283.88,-468.34C265.59,-466.22 246.07,-463.95 229.63,-462.04"/>
<polygon fill="#63b8ff" stroke="#63b8ff" points="283.55,-471.83 293.89,-469.51 284.36,-464.88 283.55,-471.83"/>
</a>
</g>
</g>
<!-- Node48 -->
<g id="Node000048" class="node">
<title>Node48</title>
<g id="a_Node000048"><a xlink:href="tides_8cpp.html#a722bd4420312b4c5c8f36aa0d905e0c3" target="_top" xlink:title="Displacement by ocean pole tide See ref [1] 7.1.5.">
<path fill="#fff0f0" stroke="red" d="M226.67,-430C226.67,-430 152.33,-430 152.33,-430 149.17,-430 146,-426.83 146,-423.67 146,-423.67 146,-417.33 146,-417.33 146,-414.17 149.17,-411 152.33,-411 152.33,-411 226.67,-411 226.67,-411 229.83,-411 233,-414.17 233,-417.33 233,-417.33 233,-423.67 233,-423.67 233,-426.83 229.83,-430 226.67,-430"/>
<text text-anchor="middle" x="189.5" y="-418" font-family="Helvetica,sans-Serif" font-size="10.00">tideOceanPole</text>
</a>
</g>
</g>
<!-- Node1&#45;&gt;Node48 -->
<g id="edge16_Node000001_Node000048" class="edge">
<title>Node1&#45;&gt;Node48</title>
<g id="a_edge16_Node000001_Node000048"><a xlink:title=" ">
<path fill="none" stroke="#63b8ff" d="M314.94,-461.91C298.29,-454.76 277.21,-446.13 258,-439.5 248.22,-436.12 237.49,-432.89 227.52,-430.09"/>
<polygon fill="#63b8ff" stroke="#63b8ff" points="313.62,-465.15 324.19,-465.92 316.41,-458.73 313.62,-465.15"/>
</a>
</g>
</g>
<!-- Node55 -->
<g id="Node000055" class="node">
<title>Node55</title>
<g id="a_Node000055"><a xlink:href="tides_8cpp.html#ab9e903f458c0264cff4b22d87c78c477" target="_top" xlink:title="Displacement by solid Earth tide See ref [1] 7.1.1 Note: permanent deformation not removed,...">
<path fill="#fff0f0" stroke="red" d="M78.67,-354C78.67,-354 6.33,-354 6.33,-354 3.17,-354 0,-350.83 0,-347.67 0,-347.67 0,-341.33 0,-341.33 0,-338.17 3.17,-335 6.33,-335 6.33,-335 78.67,-335 78.67,-335 81.83,-335 85,-338.17 85,-341.33 85,-341.33 85,-347.67 85,-347.67 85,-350.83 81.83,-354 78.67,-354"/>
<text text-anchor="middle" x="42.5" y="-342" font-family="Helvetica,sans-Serif" font-size="10.00">tideSolidEarth</text>
</a>
</g>
</g>
<!-- Node1&#45;&gt;Node55 -->
<g id="edge17_Node000001_Node000055" class="edge">
<title>Node1&#45;&gt;Node55</title>
<g id="a_edge17_Node000001_Node000055"><a xlink:title=" ">
<path fill="none" stroke="#63b8ff" d="M329.61,-458.52C313.19,-441.92 286.05,-417.09 258,-402.5 242.39,-394.38 140.02,-368.36 82.53,-354.09"/>
<polygon fill="#63b8ff" stroke="#63b8ff" points="327.31,-461.17 336.77,-465.92 332.34,-456.3 327.31,-461.17"/>
</a>
</g>
</g>
<!-- Node56 -->
<g id="Node000056" class="node">
<title>Node56</title>
<g id="a_Node000056"><a xlink:href="tides_8cpp.html#aeae22242d3396386a1b71e573226478d" target="_top" xlink:title="Displacement by solid Earth pole tide See ref [1] 7.1.4.">
<path fill="#fff0f0" stroke="red" d="M223.17,-354C223.17,-354 155.83,-354 155.83,-354 152.67,-354 149.5,-350.83 149.5,-347.67 149.5,-347.67 149.5,-341.33 149.5,-341.33 149.5,-338.17 152.67,-335 155.83,-335 155.83,-335 223.17,-335 223.17,-335 226.33,-335 229.5,-338.17 229.5,-341.33 229.5,-341.33 229.5,-347.67 229.5,-347.67 229.5,-350.83 226.33,-354 223.17,-354"/>
<text text-anchor="middle" x="189.5" y="-342" font-family="Helvetica,sans-Serif" font-size="10.00">tideSolidPole</text>
</a>
</g>
</g>
<!-- Node1&#45;&gt;Node56 -->
<g id="edge18_Node000001_Node000056" class="edge">
<title>Node1&#45;&gt;Node56</title>
<g id="a_edge18_Node000001_Node000056"><a xlink:title=" ">
<path fill="none" stroke="#63b8ff" d="M334.83,-457.01C320.3,-433.34 292.15,-392.54 258,-368.5 249.25,-362.34 238.77,-357.61 228.69,-354.05"/>
<polygon fill="#63b8ff" stroke="#63b8ff" points="331.91,-458.94 340.04,-465.72 337.92,-455.34 331.91,-458.94"/>
</a>
</g>
</g>
<!-- Node58 -->
<g id="Node000058" class="node">
<title>Node58</title>
<g id="a_Node000058"><a xlink:href="tides_8cpp.html#ab44d5c92785ffe1d1628108425405b23" target="_top" xlink:title="Step 1 of solid Earth tide computation: Corrections to be computed in the time domain (solar/lunar ti...">
<path fill="#fff0f0" stroke="red" d="M232.17,-317C232.17,-317 146.83,-317 146.83,-317 143.67,-317 140.5,-313.83 140.5,-310.67 140.5,-310.67 140.5,-304.33 140.5,-304.33 140.5,-301.17 143.67,-298 146.83,-298 146.83,-298 232.17,-298 232.17,-298 235.33,-298 238.5,-301.17 238.5,-304.33 238.5,-304.33 238.5,-310.67 238.5,-310.67 238.5,-313.83 235.33,-317 232.17,-317"/>
<text text-anchor="middle" x="189.5" y="-305" font-family="Helvetica,sans-Serif" font-size="10.00">tideTimeDomain</text>
</a>
</g>
</g>
<!-- Node1&#45;&gt;Node58 -->
<g id="edge19_Node000001_Node000058" class="edge">
<title>Node1&#45;&gt;Node58</title>
<g id="a_edge19_Node000001_Node000058"><a xlink:title=" ">
<path fill="none" stroke="#63b8ff" d="M339.52,-456.27C328.6,-424.39 302.39,-360.74 258,-326.5 252.31,-322.11 245.66,-318.74 238.79,-316.14"/>
<polygon fill="#63b8ff" stroke="#63b8ff" points="336.19,-457.36 342.64,-465.77 342.84,-455.18 336.19,-457.36"/>
</a>
</g>
</g>
<!-- Node59 -->
<g id="Node000059" class="node">
<title>Node59</title>
<g id="a_Node000059"><a xlink:href="tropCSSR_8cpp.html#a00162918c37e119307c3c670a6eeebb8" target="_top" xlink:title="SSR Troposphere model compute tropospheric delay using compact SSR contents Neill Mapping functions i...">
<path fill="#fff0f0" stroke="red" d="M214.17,-280C214.17,-280 164.83,-280 164.83,-280 161.67,-280 158.5,-276.83 158.5,-273.67 158.5,-273.67 158.5,-267.33 158.5,-267.33 158.5,-264.17 161.67,-261 164.83,-261 164.83,-261 214.17,-261 214.17,-261 217.33,-261 220.5,-264.17 220.5,-267.33 220.5,-267.33 220.5,-273.67 220.5,-273.67 220.5,-276.83 217.33,-280 214.17,-280"/>
<text text-anchor="middle" x="189.5" y="-268" font-family="Helvetica,sans-Serif" font-size="10.00">tropCSSR</text>
</a>
</g>
</g>
<!-- Node1&#45;&gt;Node59 -->
<g id="edge21_Node000001_Node000059" class="edge">
<title>Node1&#45;&gt;Node59</title>
<g id="a_edge21_Node000001_Node000059"><a xlink:title=" ">
<path fill="none" stroke="#63b8ff" d="M341.87,-455.85C333.81,-417.87 310.79,-334.21 258,-289.5 247.6,-280.69 233.37,-275.95 220.67,-273.41"/>
<polygon fill="#63b8ff" stroke="#63b8ff" points="338.44,-456.56 343.83,-465.68 345.3,-455.19 338.44,-456.56"/>
</a>
</g>
</g>
<!-- Node60 -->
<g id="Node000060" class="node">
<title>Node60</title>
<g id="a_Node000060"><a xlink:href="tropModels_8cpp.html#a4e0e7ea77b35161d438a4bc48e02c6d7" target="_top" xlink:title=" ">
<path fill="#fff0f0" stroke="red" d="M69.17,-242C69.17,-242 15.83,-242 15.83,-242 12.67,-242 9.5,-238.83 9.5,-235.67 9.5,-235.67 9.5,-229.33 9.5,-229.33 9.5,-226.17 12.67,-223 15.83,-223 15.83,-223 69.17,-223 69.17,-223 72.33,-223 75.5,-226.17 75.5,-229.33 75.5,-229.33 75.5,-235.67 75.5,-235.67 75.5,-238.83 72.33,-242 69.17,-242"/>
<text text-anchor="middle" x="42.5" y="-230" font-family="Helvetica,sans-Serif" font-size="10.00">tropModel</text>
</a>
</g>
</g>
<!-- Node1&#45;&gt;Node60 -->
<g id="edge23_Node000001_Node000060" class="edge">
<title>Node1&#45;&gt;Node60</title>
<g id="a_edge23_Node000001_Node000060"><a xlink:title=" ">
<path fill="none" stroke="#63b8ff" d="M344.34,-455.7C340.57,-411.07 324.65,-302.64 258,-252.5 204.5,-212.25 120.95,-218.51 75.52,-225.92"/>
<polygon fill="#63b8ff" stroke="#63b8ff" points="340.86,-456.1 345.08,-465.82 347.85,-455.59 340.86,-456.1"/>
</a>
</g>
</g>
<!-- Node64 -->
<g id="Node000064" class="node">
<title>Node64</title>
<g id="a_Node000064"><a xlink:href="tropModels_8cpp.html#ae2e859a3c8b8d21b5d2de98286079474" target="_top" xlink:title=" ">
<path fill="#fff0f0" stroke="red" d="M227.67,-204C227.67,-204 151.33,-204 151.33,-204 148.17,-204 145,-200.83 145,-197.67 145,-197.67 145,-191.33 145,-191.33 145,-188.17 148.17,-185 151.33,-185 151.33,-185 227.67,-185 227.67,-185 230.83,-185 234,-188.17 234,-191.33 234,-191.33 234,-197.67 234,-197.67 234,-200.83 230.83,-204 227.67,-204"/>
<text text-anchor="middle" x="189.5" y="-192" font-family="Helvetica,sans-Serif" font-size="10.00">tropModelCoef</text>
</a>
</g>
</g>
<!-- Node1&#45;&gt;Node64 -->
<g id="edge24_Node000001_Node000064" class="edge">
<title>Node1&#45;&gt;Node64</title>
<g id="a_edge24_Node000001_Node000064"><a xlink:title=" ">
<path fill="none" stroke="#63b8ff" d="M344.43,-455.62C340.81,-408.04 325.13,-286.54 258,-218.5 251.45,-211.86 242.94,-207.05 234.19,-203.57"/>
<polygon fill="#63b8ff" stroke="#63b8ff" points="340.95,-456.06 345.1,-465.81 347.94,-455.6 340.95,-456.06"/>
</a>
</g>
</g>
<!-- Node65 -->
<g id="Node000065" class="node">
<title>Node65</title>
<g id="a_Node000065"><a xlink:href="tropVMF3_8cpp.html#a2253022b9954448bf810631603e70454" target="_top" xlink:title="vmf3">
<path fill="#fff0f0" stroke="red" d="M215.17,-167C215.17,-167 163.83,-167 163.83,-167 160.67,-167 157.5,-163.83 157.5,-160.67 157.5,-160.67 157.5,-154.33 157.5,-154.33 157.5,-151.17 160.67,-148 163.83,-148 163.83,-148 215.17,-148 215.17,-148 218.33,-148 221.5,-151.17 221.5,-154.33 221.5,-154.33 221.5,-160.67 221.5,-160.67 221.5,-163.83 218.33,-167 215.17,-167"/>
<text text-anchor="middle" x="189.5" y="-155" font-family="Helvetica,sans-Serif" font-size="10.00">tropVMF3</text>
</a>
</g>
</g>
<!-- Node1&#45;&gt;Node65 -->
<g id="edge25_Node000001_Node000065" class="edge">
<title>Node1&#45;&gt;Node65</title>
<g id="a_edge25_Node000001_Node000065"><a xlink:title=" ">
<path fill="none" stroke="#63b8ff" d="M345.94,-455.59C345.98,-402.11 338.44,-254.1 258,-175.5 248.37,-166.09 234.4,-161.46 221.67,-159.23"/>
<polygon fill="#63b8ff" stroke="#63b8ff" points="342.44,-455.73 345.83,-465.77 349.44,-455.8 342.44,-455.73"/>
</a>
</g>
</g>
<!-- Node70 -->
<g id="Node000070" class="node">
<title>Node70</title>
<g id="a_Node000070"><a xlink:href="gpx_8cpp.html#af9cdc05b3e40dc1ffa48b4ff09d108c8" target="_top" xlink:title=" ">
<path fill="#fff0f0" stroke="red" d="M226.67,-130C226.67,-130 152.33,-130 152.33,-130 149.17,-130 146,-126.83 146,-123.67 146,-123.67 146,-117.33 146,-117.33 146,-114.17 149.17,-111 152.33,-111 152.33,-111 226.67,-111 226.67,-111 229.83,-111 233,-114.17 233,-117.33 233,-117.33 233,-123.67 233,-123.67 233,-126.83 229.83,-130 226.67,-130"/>
<text text-anchor="middle" x="189.5" y="-118" font-family="Helvetica,sans-Serif" font-size="10.00">writeGPXEntry</text>
</a>
</g>
</g>
<!-- Node1&#45;&gt;Node70 -->
<g id="edge27_Node000001_Node000070" class="edge">
<title>Node1&#45;&gt;Node70</title>
<g id="a_edge27_Node000001_Node000070"><a xlink:title=" ">
<path fill="none" stroke="#63b8ff" d="M342.96,-455.53C334.28,-390.22 303.71,-184.52 258,-138.5 251.33,-131.79 242.46,-127.5 233.35,-124.77"/>
<polygon fill="#63b8ff" stroke="#63b8ff" points="339.53,-456.25 344.29,-465.71 346.47,-455.34 339.53,-456.25"/>
</a>
</g>
</g>
<!-- Node72 -->
<g id="Node000072" class="node">
<title>Node72</title>
<g id="a_Node000072"><a xlink:href="pos_8cpp.html#afbd1387aa03f2c5caca0ef70fda36795" target="_top" xlink:title=" ">
<path fill="#fff0f0" stroke="red" d="M226.17,-93C226.17,-93 152.83,-93 152.83,-93 149.67,-93 146.5,-89.83 146.5,-86.67 146.5,-86.67 146.5,-80.33 146.5,-80.33 146.5,-77.17 149.67,-74 152.83,-74 152.83,-74 226.17,-74 226.17,-74 229.33,-74 232.5,-77.17 232.5,-80.33 232.5,-80.33 232.5,-86.67 232.5,-86.67 232.5,-89.83 229.33,-93 226.17,-93"/>
<text text-anchor="middle" x="189.5" y="-81" font-family="Helvetica,sans-Serif" font-size="10.00">writePOSEntry</text>
</a>
</g>
</g>
<!-- Node1&#45;&gt;Node72 -->
<g id="edge28_Node000001_Node000072" class="edge">
<title>Node1&#45;&gt;Node72</title>
<g id="a_edge28_Node000001_Node000072"><a xlink:title=" ">
<path fill="none" stroke="#63b8ff" d="M343.53,-455.65C336.2,-385.89 308.35,-153.42 258,-101.5 251.25,-94.53 242.12,-90.16 232.77,-87.45"/>
<polygon fill="#63b8ff" stroke="#63b8ff" points="340.06,-456.14 344.56,-465.73 347.02,-455.42 340.06,-456.14"/>
</a>
</g>
</g>
<!-- Node74 -->
<g id="Node000074" class="node">
<title>Node74</title>
<g id="a_Node000074"><a xlink:href="pos_8cpp.html#a4b91c67a13824995cf263e892c6e1ab3" target="_top" xlink:title=" ">
<path fill="#fff0f0" stroke="red" d="M231.17,-56C231.17,-56 147.83,-56 147.83,-56 144.67,-56 141.5,-52.83 141.5,-49.67 141.5,-49.67 141.5,-43.33 141.5,-43.33 141.5,-40.17 144.67,-37 147.83,-37 147.83,-37 231.17,-37 231.17,-37 234.33,-37 237.5,-40.17 237.5,-43.33 237.5,-43.33 237.5,-49.67 237.5,-49.67 237.5,-52.83 234.33,-56 231.17,-56"/>
<text text-anchor="middle" x="189.5" y="-44" font-family="Helvetica,sans-Serif" font-size="10.00">writePOSHeader</text>
</a>
</g>
</g>
<!-- Node1&#45;&gt;Node74 -->
<g id="edge29_Node000001_Node000074" class="edge">
<title>Node1&#45;&gt;Node74</title>
<g id="a_edge29_Node000001_Node000074"><a xlink:title=" ">
<path fill="none" stroke="#63b8ff" d="M343.98,-455.65C337.9,-381.53 312.98,-122.35 258,-64.5 252.49,-58.7 245.33,-54.69 237.74,-51.94"/>
<polygon fill="#63b8ff" stroke="#63b8ff" points="340.51,-456.2 344.79,-465.89 347.49,-455.65 340.51,-456.2"/>
</a>
</g>
</g>
<!-- Node75 -->
<g id="Node000075" class="node">
<title>Node75</title>
<g id="a_Node000075"><a xlink:href="tropSinex_8cpp.html#a1faee2ac53f3a75f110a3d3fadd79354" target="_top" xlink:title="Write SITE/ID block.">
<path fill="#fff0f0" stroke="red" d="M227.67,-19C227.67,-19 151.33,-19 151.33,-19 148.17,-19 145,-15.83 145,-12.67 145,-12.67 145,-6.33 145,-6.33 145,-3.17 148.17,0 151.33,0 151.33,0 227.67,0 227.67,0 230.83,0 234,-3.17 234,-6.33 234,-6.33 234,-12.67 234,-12.67 234,-15.83 230.83,-19 227.67,-19"/>
<text text-anchor="middle" x="189.5" y="-7" font-family="Helvetica,sans-Serif" font-size="10.00">writeTropSiteId</text>
</a>
</g>
</g>
<!-- Node1&#45;&gt;Node75 -->
<g id="edge30_Node000001_Node000075" class="edge">
<title>Node1&#45;&gt;Node75</title>
<g id="a_edge30_Node000001_Node000075"><a xlink:title=" ">
<path fill="none" stroke="#63b8ff" d="M344.34,-455.4C339.4,-376.78 317.57,-91.25 258,-27.5 251.62,-20.68 242.98,-16.33 234,-13.59"/>
<polygon fill="#63b8ff" stroke="#63b8ff" points="340.87,-456.05 344.97,-465.82 347.86,-455.62 340.87,-456.05"/>
</a>
</g>
</g>
<!-- Node32&#45;&gt;Node24 -->
<g id="edge9_Node000032_Node000024" class="edge">
<title>Node32&#45;&gt;Node24</title>
<g id="a_edge9_Node000032_Node000024"><a xlink:title=" ">
<path fill="none" stroke="#63b8ff" d="M140.63,-691.87C133.98,-693.91 127.28,-696.14 121,-698.5 99.93,-706.43 76.75,-717.88 61.28,-725.93"/>
<polygon fill="#63b8ff" stroke="#63b8ff" points="141.69,-695.21 150.29,-689.03 139.71,-688.5 141.69,-695.21"/>
</a>
</g>
</g>
<!-- Node58&#45;&gt;Node55 -->
<g id="edge20_Node000058_Node000055" class="edge">
<title>Node58&#45;&gt;Node55</title>
<g id="a_edge20_Node000058_Node000055"><a xlink:title=" ">
<path fill="none" stroke="#63b8ff" d="M141.23,-319.56C121.69,-324.55 99.35,-330.25 80.97,-334.94"/>
<polygon fill="#63b8ff" stroke="#63b8ff" points="142.33,-322.89 151.16,-317.03 140.6,-316.11 142.33,-322.89"/>
</a>
</g>
</g>
<!-- Node59&#45;&gt;Node60 -->
<g id="edge22_Node000059_Node000060" class="edge">
<title>Node59&#45;&gt;Node60</title>
<g id="a_edge22_Node000059_Node000060"><a xlink:title=" ">
<path fill="none" stroke="#63b8ff" d="M148.64,-260.05C125.63,-254.02 97.06,-246.54 75.52,-240.89"/>
<polygon fill="#63b8ff" stroke="#63b8ff" points="147.9,-263.48 158.46,-262.63 149.67,-256.71 147.9,-263.48"/>
</a>
</g>
</g>
<!-- Node65&#45;&gt;Node60 -->
<g id="edge26_Node000065_Node000060" class="edge">
<title>Node65&#45;&gt;Node60</title>
<g id="a_edge26_Node000065_Node000060"><a xlink:title=" ">
<path fill="none" stroke="#63b8ff" d="M147.49,-165.81C138.53,-168.34 129.26,-171.54 121,-175.5 94.8,-188.07 68.41,-209.89 54.2,-222.57"/>
<polygon fill="#63b8ff" stroke="#63b8ff" points="148.6,-169.14 157.4,-163.23 146.84,-162.36 148.6,-169.14"/>
</a>
</g>
</g>
</g>
</svg>
