<?xml version="1.0" encoding="UTF-8" standalone="no"?>
<!DOCTYPE svg PUBLIC "-//W3C//DTD SVG 1.1//EN"
 "http://www.w3.org/Graphics/SVG/1.1/DTD/svg11.dtd">
<!-- Generated by graphviz version 2.43.0 (0)
 -->
<!-- Title: SppOptions Pages: 1 -->
<svg width="612pt" height="458pt"
 viewBox="0.00 0.00 611.50 458.00" xmlns="http://www.w3.org/2000/svg" xmlns:xlink="http://www.w3.org/1999/xlink">
<g id="graph0" class="graph" transform="scale(1 1) rotate(0) translate(4 454)">
<title>SppOptions</title>
<!-- Node1 -->
<g id="Node000001" class="node">
<title>Node1</title>
<g id="a_Node000001"><a xlink:href="structSppOptions.html" target="_top" xlink:title=" ">
<path fill="white" stroke="#666666" stroke-width="2" d="M359.5,-132C359.5,-132 252.5,-132 252.5,-132 246.5,-132 240.5,-126 240.5,-120 240.5,-120 240.5,-12 240.5,-12 240.5,-6 246.5,0 252.5,0 252.5,0 359.5,0 359.5,0 365.5,0 371.5,-6 371.5,-12 371.5,-12 371.5,-120 371.5,-120 371.5,-126 365.5,-132 359.5,-132"/>
<text text-anchor="start" x="278.5" y="-116" font-family="Helvetica,sans-Serif" font-size="10.00">SppOptions</text>
<text text-anchor="start" x="253" y="-101" font-family="Helvetica,sans-Serif" font-size="10.00">+</text>
<text text-anchor="start" x="266" y="-101" font-family="Helvetica,sans-Serif" font-size="10.00">always_reinitialise</text>
<text text-anchor="start" x="253" y="-86" font-family="Helvetica,sans-Serif" font-size="10.00">+</text>
<text text-anchor="start" x="266" y="-86" font-family="Helvetica,sans-Serif" font-size="10.00">max_lsq_iterations</text>
<text text-anchor="start" x="253" y="-71" font-family="Helvetica,sans-Serif" font-size="10.00">+</text>
<text text-anchor="start" x="266" y="-71" font-family="Helvetica,sans-Serif" font-size="10.00">max_gdop</text>
<text text-anchor="start" x="253" y="-56" font-family="Helvetica,sans-Serif" font-size="10.00">+</text>
<text text-anchor="start" x="266" y="-56" font-family="Helvetica,sans-Serif" font-size="10.00">sigma_scaling</text>
<text text-anchor="start" x="253" y="-41" font-family="Helvetica,sans-Serif" font-size="10.00">+</text>
<text text-anchor="start" x="266" y="-41" font-family="Helvetica,sans-Serif" font-size="10.00">raim</text>
<text text-anchor="start" x="253" y="-26" font-family="Helvetica,sans-Serif" font-size="10.00">+</text>
<text text-anchor="start" x="266" y="-26" font-family="Helvetica,sans-Serif" font-size="10.00">iono_mode</text>
<text text-anchor="start" x="304.5" y="-11" font-family="Helvetica,sans-Serif" font-size="10.00"> </text>
<polygon fill="#666666" stroke="#666666" points="249,-111 249,-111 364,-111 364,-111 249,-111"/>
<polygon fill="#666666" stroke="#666666" points="249,-21 249,-21 264,-21 264,-21 249,-21"/>
<polygon fill="#666666" stroke="#666666" points="264,-21 264,-21 364,-21 364,-21 264,-21"/>
<polygon fill="none" stroke="#666666" points="248.5,-4 248.5,-128 363.5,-128 363.5,-4 248.5,-4"/>
</a>
</g>
</g>
<!-- Node2 -->
<g id="Node000002" class="node">
<title>Node2</title>
<g id="a_Node000002"><a xlink:href="structFilterOptions.html" target="_top" xlink:title=" ">
<path fill="white" stroke="#666666" d="M361.5,-286C361.5,-286 250.5,-286 250.5,-286 244.5,-286 238.5,-280 238.5,-274 238.5,-274 238.5,-181 238.5,-181 238.5,-175 244.5,-169 250.5,-169 250.5,-169 361.5,-169 361.5,-169 367.5,-169 373.5,-175 373.5,-181 373.5,-181 373.5,-274 373.5,-274 373.5,-280 367.5,-286 361.5,-286"/>
<text text-anchor="start" x="275" y="-269.5" font-family="Helvetica,sans-Serif" font-size="10.00">FilterOptions</text>
<text text-anchor="start" x="251" y="-254.5" font-family="Helvetica,sans-Serif" font-size="10.00">+</text>
<text text-anchor="start" x="264" y="-254.5" font-family="Helvetica,sans-Serif" font-size="10.00">simulate_filter_only</text>
<text text-anchor="start" x="251" y="-239.5" font-family="Helvetica,sans-Serif" font-size="10.00">+</text>
<text text-anchor="start" x="264" y="-239.5" font-family="Helvetica,sans-Serif" font-size="10.00">assume_linearity</text>
<text text-anchor="start" x="251" y="-224.5" font-family="Helvetica,sans-Serif" font-size="10.00">+</text>
<text text-anchor="start" x="264" y="-224.5" font-family="Helvetica,sans-Serif" font-size="10.00">advanced_postfits</text>
<text text-anchor="start" x="251" y="-209.5" font-family="Helvetica,sans-Serif" font-size="10.00">+</text>
<text text-anchor="start" x="264" y="-209.5" font-family="Helvetica,sans-Serif" font-size="10.00">joseph_stabilisation</text>
<text text-anchor="start" x="251" y="-194.5" font-family="Helvetica,sans-Serif" font-size="10.00">+</text>
<text text-anchor="start" x="264" y="-194.5" font-family="Helvetica,sans-Serif" font-size="10.00">inverter</text>
<text text-anchor="start" x="304.5" y="-179.5" font-family="Helvetica,sans-Serif" font-size="10.00"> </text>
<polygon fill="#666666" stroke="#666666" points="247,-264.5 247,-264.5 366,-264.5 366,-264.5 247,-264.5"/>
<polygon fill="#666666" stroke="#666666" points="247,-189.5 247,-189.5 262,-189.5 262,-189.5 247,-189.5"/>
<polygon fill="#666666" stroke="#666666" points="262,-189.5 262,-189.5 366,-189.5 366,-189.5 262,-189.5"/>
<polygon fill="none" stroke="#666666" points="246.5,-173 246.5,-282 365.5,-282 365.5,-173 246.5,-173"/>
</a>
</g>
</g>
<!-- Node2&#45;&gt;Node1 -->
<g id="edge1_Node000001_Node000002" class="edge">
<title>Node2&#45;&gt;Node1</title>
<g id="a_edge1_Node000001_Node000002"><a xlink:title=" ">
<path fill="none" stroke="#63b8ff" d="M306,-158.68C306,-149.87 306,-140.85 306,-132.08"/>
<polygon fill="none" stroke="#63b8ff" points="302.5,-158.92 306,-168.92 309.5,-158.92 302.5,-158.92"/>
</a>
</g>
</g>
<!-- Node3 -->
<g id="Node000003" class="node">
<title>Node3</title>
<g id="a_Node000003"><a xlink:href="structRtsOptions.html" target="_top" xlink:title=" ">
<path fill="#fff0f0" stroke="red" d="M116,-442.5C116,-442.5 12,-442.5 12,-442.5 6,-442.5 0,-436.5 0,-430.5 0,-430.5 0,-352.5 0,-352.5 0,-346.5 6,-340.5 12,-340.5 12,-340.5 116,-340.5 116,-340.5 122,-340.5 128,-346.5 128,-352.5 128,-352.5 128,-430.5 128,-430.5 128,-436.5 122,-442.5 116,-442.5"/>
<text text-anchor="start" x="37" y="-426.5" font-family="Helvetica,sans-Serif" font-size="10.00">RtsOptions</text>
<text text-anchor="start" x="12" y="-411.5" font-family="Helvetica,sans-Serif" font-size="10.00">+</text>
<text text-anchor="start" x="25" y="-411.5" font-family="Helvetica,sans-Serif" font-size="10.00">rts_lag</text>
<text text-anchor="start" x="12" y="-396.5" font-family="Helvetica,sans-Serif" font-size="10.00">+</text>
<text text-anchor="start" x="25" y="-396.5" font-family="Helvetica,sans-Serif" font-size="10.00">rts_interval</text>
<text text-anchor="start" x="12" y="-381.5" font-family="Helvetica,sans-Serif" font-size="10.00">+</text>
<text text-anchor="start" x="25" y="-381.5" font-family="Helvetica,sans-Serif" font-size="10.00">queue_rts_outputs</text>
<text text-anchor="start" x="12" y="-366.5" font-family="Helvetica,sans-Serif" font-size="10.00">+</text>
<text text-anchor="start" x="25" y="-366.5" font-family="Helvetica,sans-Serif" font-size="10.00">rts_inverter</text>
<text text-anchor="start" x="62" y="-351.5" font-family="Helvetica,sans-Serif" font-size="10.00"> </text>
<polygon fill="red" stroke="red" points="8,-421.5 8,-421.5 120,-421.5 120,-421.5 8,-421.5"/>
<polygon fill="red" stroke="red" points="8,-361.5 8,-361.5 23,-361.5 23,-361.5 8,-361.5"/>
<polygon fill="red" stroke="red" points="23,-361.5 23,-361.5 120,-361.5 120,-361.5 23,-361.5"/>
<polygon fill="none" stroke="red" points="8,-344.5 8,-438.5 120,-438.5 120,-344.5 8,-344.5"/>
</a>
</g>
</g>
<!-- Node3&#45;&gt;Node2 -->
<g id="edge2_Node000002_Node000003" class="edge">
<title>Node3&#45;&gt;Node2</title>
<g id="a_edge2_Node000002_Node000003"><a xlink:title=" ">
<path fill="none" stroke="#63b8ff" d="M134.74,-334.59C135.49,-334.06 136.25,-333.53 137,-333 169.5,-310.26 206.91,-286.86 238.25,-267.99"/>
<polygon fill="none" stroke="#63b8ff" points="132.63,-331.79 126.57,-340.48 136.73,-337.47 132.63,-331.79"/>
</a>
</g>
</g>
<!-- Node5 -->
<g id="Node000005" class="node">
<title>Node5</title>
<g id="a_Node000005"><a xlink:href="structPrefitOptions.html" target="_top" xlink:title=" ">
<path fill="white" stroke="#666666" d="M285.5,-450C285.5,-450 158.5,-450 158.5,-450 152.5,-450 146.5,-444 146.5,-438 146.5,-438 146.5,-345 146.5,-345 146.5,-339 152.5,-333 158.5,-333 158.5,-333 285.5,-333 285.5,-333 291.5,-333 297.5,-339 297.5,-345 297.5,-345 297.5,-438 297.5,-438 297.5,-444 291.5,-450 285.5,-450"/>
<text text-anchor="start" x="190.5" y="-433.5" font-family="Helvetica,sans-Serif" font-size="10.00">PrefitOptions</text>
<text text-anchor="start" x="159" y="-418.5" font-family="Helvetica,sans-Serif" font-size="10.00">+</text>
<text text-anchor="start" x="172" y="-418.5" font-family="Helvetica,sans-Serif" font-size="10.00">max_iterations</text>
<text text-anchor="start" x="159" y="-403.5" font-family="Helvetica,sans-Serif" font-size="10.00">+</text>
<text text-anchor="start" x="172" y="-403.5" font-family="Helvetica,sans-Serif" font-size="10.00">sigma_check</text>
<text text-anchor="start" x="159" y="-388.5" font-family="Helvetica,sans-Serif" font-size="10.00">+</text>
<text text-anchor="start" x="172" y="-388.5" font-family="Helvetica,sans-Serif" font-size="10.00">state_sigma_threshold</text>
<text text-anchor="start" x="159" y="-373.5" font-family="Helvetica,sans-Serif" font-size="10.00">+</text>
<text text-anchor="start" x="172" y="-373.5" font-family="Helvetica,sans-Serif" font-size="10.00">meas_sigma_threshold</text>
<text text-anchor="start" x="159" y="-358.5" font-family="Helvetica,sans-Serif" font-size="10.00">+</text>
<text text-anchor="start" x="172" y="-358.5" font-family="Helvetica,sans-Serif" font-size="10.00">omega_test</text>
<text text-anchor="start" x="220.5" y="-343.5" font-family="Helvetica,sans-Serif" font-size="10.00"> </text>
<polygon fill="#666666" stroke="#666666" points="155,-428.5 155,-428.5 290,-428.5 290,-428.5 155,-428.5"/>
<polygon fill="#666666" stroke="#666666" points="155,-353.5 155,-353.5 170,-353.5 170,-353.5 155,-353.5"/>
<polygon fill="#666666" stroke="#666666" points="170,-353.5 170,-353.5 290,-353.5 290,-353.5 170,-353.5"/>
<polygon fill="none" stroke="#666666" points="154.5,-337 154.5,-446 289.5,-446 289.5,-337 154.5,-337"/>
</a>
</g>
</g>
<!-- Node5&#45;&gt;Node2 -->
<g id="edge3_Node000002_Node000005" class="edge">
<title>Node5&#45;&gt;Node2</title>
<g id="a_edge3_Node000002_Node000005"><a xlink:title=" ">
<path fill="none" stroke="#63b8ff" d="M251.85,-332.93C257.88,-321.3 264.28,-308.97 270.48,-297.01"/>
<polygon fill="none" stroke="#63b8ff" points="270.58,-296.81 269.79,-289.64 276.1,-286.16 276.89,-293.33 270.58,-296.81"/>
</a>
</g>
<text text-anchor="middle" x="297" y="-307" font-family="Helvetica,sans-Serif" font-size="10.00" fill="grey"> +prefitOpts</text>
</g>
<!-- Node6 -->
<g id="Node000006" class="node">
<title>Node6</title>
<g id="a_Node000006"><a xlink:href="structPostfitOptions.html" target="_top" xlink:title=" ">
<path fill="white" stroke="#666666" d="M454.5,-442.5C454.5,-442.5 327.5,-442.5 327.5,-442.5 321.5,-442.5 315.5,-436.5 315.5,-430.5 315.5,-430.5 315.5,-352.5 315.5,-352.5 315.5,-346.5 321.5,-340.5 327.5,-340.5 327.5,-340.5 454.5,-340.5 454.5,-340.5 460.5,-340.5 466.5,-346.5 466.5,-352.5 466.5,-352.5 466.5,-430.5 466.5,-430.5 466.5,-436.5 460.5,-442.5 454.5,-442.5"/>
<text text-anchor="start" x="357" y="-426.5" font-family="Helvetica,sans-Serif" font-size="10.00">PostfitOptions</text>
<text text-anchor="start" x="328" y="-411.5" font-family="Helvetica,sans-Serif" font-size="10.00">+</text>
<text text-anchor="start" x="341" y="-411.5" font-family="Helvetica,sans-Serif" font-size="10.00">max_iterations</text>
<text text-anchor="start" x="328" y="-396.5" font-family="Helvetica,sans-Serif" font-size="10.00">+</text>
<text text-anchor="start" x="341" y="-396.5" font-family="Helvetica,sans-Serif" font-size="10.00">sigma_check</text>
<text text-anchor="start" x="328" y="-381.5" font-family="Helvetica,sans-Serif" font-size="10.00">+</text>
<text text-anchor="start" x="341" y="-381.5" font-family="Helvetica,sans-Serif" font-size="10.00">state_sigma_threshold</text>
<text text-anchor="start" x="328" y="-366.5" font-family="Helvetica,sans-Serif" font-size="10.00">+</text>
<text text-anchor="start" x="341" y="-366.5" font-family="Helvetica,sans-Serif" font-size="10.00">meas_sigma_threshold</text>
<text text-anchor="start" x="389.5" y="-351.5" font-family="Helvetica,sans-Serif" font-size="10.00"> </text>
<polygon fill="#666666" stroke="#666666" points="324,-421.5 324,-421.5 459,-421.5 459,-421.5 324,-421.5"/>
<polygon fill="#666666" stroke="#666666" points="324,-361.5 324,-361.5 339,-361.5 339,-361.5 324,-361.5"/>
<polygon fill="#666666" stroke="#666666" points="339,-361.5 339,-361.5 459,-361.5 459,-361.5 339,-361.5"/>
<polygon fill="none" stroke="#666666" points="323.5,-344.5 323.5,-438.5 458.5,-438.5 458.5,-344.5 323.5,-344.5"/>
</a>
</g>
</g>
<!-- Node6&#45;&gt;Node2 -->
<g id="edge4_Node000002_Node000006" class="edge">
<title>Node6&#45;&gt;Node2</title>
<g id="a_edge4_Node000002_Node000006"><a xlink:title=" ">
<path fill="none" stroke="#63b8ff" d="M364.57,-340.13C357.43,-326.51 349.57,-311.54 342,-297.1"/>
<polygon fill="none" stroke="#63b8ff" points="341.85,-296.83 335.52,-293.37 336.27,-286.2 342.6,-289.65 341.85,-296.83"/>
</a>
</g>
<text text-anchor="middle" x="383.5" y="-307" font-family="Helvetica,sans-Serif" font-size="10.00" fill="grey"> +postfitOpts</text>
</g>
<!-- Node7 -->
<g id="Node000007" class="node">
<title>Node7</title>
<g id="a_Node000007"><a xlink:href="structChiSquareOptions.html" target="_top" xlink:title=" ">
<path fill="white" stroke="#666666" d="M591.5,-435C591.5,-435 496.5,-435 496.5,-435 490.5,-435 484.5,-429 484.5,-423 484.5,-423 484.5,-360 484.5,-360 484.5,-354 490.5,-348 496.5,-348 496.5,-348 591.5,-348 591.5,-348 597.5,-348 603.5,-354 603.5,-360 603.5,-360 603.5,-423 603.5,-423 603.5,-429 597.5,-435 591.5,-435"/>
<text text-anchor="start" x="500.5" y="-418.5" font-family="Helvetica,sans-Serif" font-size="10.00">ChiSquareOptions</text>
<text text-anchor="start" x="497" y="-403.5" font-family="Helvetica,sans-Serif" font-size="10.00">+</text>
<text text-anchor="start" x="510" y="-403.5" font-family="Helvetica,sans-Serif" font-size="10.00">enable</text>
<text text-anchor="start" x="497" y="-388.5" font-family="Helvetica,sans-Serif" font-size="10.00">+</text>
<text text-anchor="start" x="510" y="-388.5" font-family="Helvetica,sans-Serif" font-size="10.00">mode</text>
<text text-anchor="start" x="497" y="-373.5" font-family="Helvetica,sans-Serif" font-size="10.00">+</text>
<text text-anchor="start" x="510" y="-373.5" font-family="Helvetica,sans-Serif" font-size="10.00">sigma_threshold</text>
<text text-anchor="start" x="542.5" y="-358.5" font-family="Helvetica,sans-Serif" font-size="10.00"> </text>
<polygon fill="#666666" stroke="#666666" points="493,-413.5 493,-413.5 596,-413.5 596,-413.5 493,-413.5"/>
<polygon fill="#666666" stroke="#666666" points="493,-368.5 493,-368.5 508,-368.5 508,-368.5 493,-368.5"/>
<polygon fill="#666666" stroke="#666666" points="508,-368.5 508,-368.5 596,-368.5 596,-368.5 508,-368.5"/>
<polygon fill="none" stroke="#666666" points="492.5,-352 492.5,-431 595.5,-431 595.5,-352 492.5,-352"/>
</a>
</g>
</g>
<!-- Node7&#45;&gt;Node2 -->
<g id="edge5_Node000002_Node000007" class="edge">
<title>Node7&#45;&gt;Node2</title>
<g id="a_edge5_Node000002_Node000007"><a xlink:title=" ">
<path fill="none" stroke="#63b8ff" d="M495.31,-347.83C488.93,-342.69 482.39,-337.62 476,-333 447.01,-312.01 413.73,-290.95 384.34,-273.28"/>
<polygon fill="none" stroke="#63b8ff" points="384.01,-273.08 376.81,-273.44 373.71,-266.93 380.91,-266.58 384.01,-273.08"/>
</a>
</g>
<text text-anchor="middle" x="488.5" y="-307" font-family="Helvetica,sans-Serif" font-size="10.00" fill="grey"> +chiSquareTest</text>
</g>
</g>
</svg>
