<?xml version="1.0" encoding="UTF-8" standalone="no"?>
<!DOCTYPE svg PUBLIC "-//W3C//DTD SVG 1.1//EN"
 "http://www.w3.org/Graphics/SVG/1.1/DTD/svg11.dtd">
<!-- Generated by graphviz version 2.43.0 (0)
 -->
<!-- Title: Network Pages: 1 -->
<svg width="530pt" height="1070pt"
 viewBox="0.00 0.00 530.20 1070.00" xmlns="http://www.w3.org/2000/svg" xmlns:xlink="http://www.w3.org/1999/xlink">
<g id="graph0" class="graph" transform="scale(1 1) rotate(0) translate(4 1066)">
<title>Network</title>
<!-- Node1 -->
<g id="Node000001" class="node">
<title>Node1</title>
<g id="a_Node000001"><a xlink:href="structNetwork.html" target="_top" xlink:title=" ">
<path fill="white" stroke="#666666" stroke-width="2" d="M95.2,-57C95.2,-57 51.2,-57 51.2,-57 45.2,-57 39.2,-51 39.2,-45 39.2,-45 39.2,-12 39.2,-12 39.2,-6 45.2,0 51.2,0 51.2,0 95.2,0 95.2,0 101.2,0 107.2,-6 107.2,-12 107.2,-12 107.2,-45 107.2,-45 107.2,-51 101.2,-57 95.2,-57"/>
<text text-anchor="start" x="52.2" y="-40.5" font-family="Helvetica,sans-Serif" font-size="10.00">Network</text>
<text text-anchor="start" x="71.2" y="-25.5" font-family="Helvetica,sans-Serif" font-size="10.00"> </text>
<text text-anchor="start" x="71.2" y="-10.5" font-family="Helvetica,sans-Serif" font-size="10.00"> </text>
<polygon fill="#666666" stroke="#666666" points="47.2,-35.5 47.2,-35.5 99.2,-35.5 99.2,-35.5 47.2,-35.5"/>
<polygon fill="#666666" stroke="#666666" points="47.2,-20.5 47.2,-20.5 99.2,-20.5 99.2,-20.5 47.2,-20.5"/>
<polygon fill="none" stroke="#666666" points="47.2,-4 47.2,-53 99.2,-53 99.2,-4 47.2,-4"/>
</a>
</g>
</g>
<!-- Node2 -->
<g id="Node000002" class="node">
<title>Node2</title>
<g id="a_Node000002"><a xlink:title=" ">
<path fill="white" stroke="#666666" d="M188.2,-1062C188.2,-1062 158.2,-1062 158.2,-1062 152.2,-1062 146.2,-1056 146.2,-1050 146.2,-1050 146.2,-1017 146.2,-1017 146.2,-1011 152.2,-1005 158.2,-1005 158.2,-1005 188.2,-1005 188.2,-1005 194.2,-1005 200.2,-1011 200.2,-1017 200.2,-1017 200.2,-1050 200.2,-1050 200.2,-1056 194.2,-1062 188.2,-1062"/>
<text text-anchor="start" x="159.2" y="-1045.5" font-family="Helvetica,sans-Serif" font-size="10.00">string</text>
<text text-anchor="start" x="171.2" y="-1030.5" font-family="Helvetica,sans-Serif" font-size="10.00"> </text>
<text text-anchor="start" x="171.2" y="-1015.5" font-family="Helvetica,sans-Serif" font-size="10.00"> </text>
<polygon fill="#666666" stroke="#666666" points="154.2,-1040.5 154.2,-1040.5 192.2,-1040.5 192.2,-1040.5 154.2,-1040.5"/>
<polygon fill="#666666" stroke="#666666" points="154.2,-1025.5 154.2,-1025.5 192.2,-1025.5 192.2,-1025.5 154.2,-1025.5"/>
<polygon fill="none" stroke="#666666" points="154.2,-1009 154.2,-1058 192.2,-1058 192.2,-1009 154.2,-1009"/>
</a>
</g>
</g>
<!-- Node2&#45;&gt;Node1 -->
<g id="edge1_Node000001_Node000002" class="edge">
<title>Node2&#45;&gt;Node1</title>
<g id="a_edge1_Node000001_Node000002"><a xlink:title=" ">
<path fill="none" stroke="#63b8ff" d="M146.07,-1017.59C122.68,-1003.03 90.48,-978.48 76.2,-947 -65.14,-635.37 28.61,-200.68 62.43,-68.89"/>
<polygon fill="none" stroke="#63b8ff" points="62.48,-68.71 60.12,-61.9 65.51,-57.1 67.87,-63.92 62.48,-68.71"/>
</a>
</g>
<text text-anchor="middle" x="71.2" y="-759" font-family="Helvetica,sans-Serif" font-size="10.00" fill="grey"> +id</text>
<text text-anchor="middle" x="71.2" y="-748" font-family="Helvetica,sans-Serif" font-size="10.00" fill="grey">+jsonTraceFilename</text>
<text text-anchor="middle" x="71.2" y="-737" font-family="Helvetica,sans-Serif" font-size="10.00" fill="grey">+traceFilename</text>
</g>
<!-- Node4 -->
<g id="Node000004" class="node">
<title>Node4</title>
<g id="a_Node000004"><a xlink:href="structKFState__.html" target="_top" xlink:title="Kalman filter object.">
<path fill="#fff0f0" stroke="red" d="M248.7,-932C248.7,-932 97.7,-932 97.7,-932 91.7,-932 85.7,-926 85.7,-920 85.7,-920 85.7,-812 85.7,-812 85.7,-806 91.7,-800 97.7,-800 97.7,-800 248.7,-800 248.7,-800 254.7,-800 260.7,-806 260.7,-812 260.7,-812 260.7,-920 260.7,-920 260.7,-926 254.7,-932 248.7,-932"/>
<text text-anchor="start" x="152.2" y="-916" font-family="Helvetica,sans-Serif" font-size="10.00">KFState_</text>
<text text-anchor="start" x="98.2" y="-901" font-family="Helvetica,sans-Serif" font-size="10.00">+</text>
<text text-anchor="start" x="111.2" y="-901" font-family="Helvetica,sans-Serif" font-size="10.00">lsqRequired</text>
<text text-anchor="start" x="98.2" y="-886" font-family="Helvetica,sans-Serif" font-size="10.00">+</text>
<text text-anchor="start" x="111.2" y="-886" font-family="Helvetica,sans-Serif" font-size="10.00">chiQCPass</text>
<text text-anchor="start" x="98.2" y="-871" font-family="Helvetica,sans-Serif" font-size="10.00">+</text>
<text text-anchor="start" x="111.2" y="-871" font-family="Helvetica,sans-Serif" font-size="10.00">chi</text>
<text text-anchor="start" x="98.2" y="-856" font-family="Helvetica,sans-Serif" font-size="10.00">+</text>
<text text-anchor="start" x="111.2" y="-856" font-family="Helvetica,sans-Serif" font-size="10.00">dof</text>
<text text-anchor="start" x="98.2" y="-841" font-family="Helvetica,sans-Serif" font-size="10.00">+</text>
<text text-anchor="start" x="111.2" y="-841" font-family="Helvetica,sans-Serif" font-size="10.00">output_residuals</text>
<text text-anchor="start" x="98.2" y="-826" font-family="Helvetica,sans-Serif" font-size="10.00">+</text>
<text text-anchor="start" x="111.2" y="-826" font-family="Helvetica,sans-Serif" font-size="10.00">outputMongoMeasurements</text>
<text text-anchor="start" x="171.7" y="-811" font-family="Helvetica,sans-Serif" font-size="10.00"> </text>
<polygon fill="red" stroke="red" points="94.2,-911 94.2,-911 253.2,-911 253.2,-911 94.2,-911"/>
<polygon fill="red" stroke="red" points="94.2,-821 94.2,-821 109.2,-821 109.2,-821 94.2,-821"/>
<polygon fill="red" stroke="red" points="109.2,-821 109.2,-821 253.2,-821 253.2,-821 109.2,-821"/>
<polygon fill="none" stroke="red" points="93.7,-804 93.7,-928 252.7,-928 252.7,-804 93.7,-804"/>
</a>
</g>
</g>
<!-- Node2&#45;&gt;Node4 -->
<g id="edge4_Node000004_Node000002" class="edge">
<title>Node2&#45;&gt;Node4</title>
<g id="a_edge4_Node000004_Node000002"><a xlink:title=" ">
<path fill="none" stroke="#63b8ff" d="M173.2,-1004.8C173.2,-988.18 173.2,-966.15 173.2,-944.58"/>
<polygon fill="none" stroke="#63b8ff" points="173.2,-944.34 169.2,-938.34 173.2,-932.34 177.2,-938.34 173.2,-944.34"/>
</a>
</g>
<text text-anchor="middle" x="212.2" y="-979" font-family="Helvetica,sans-Serif" font-size="10.00" fill="grey"> +id</text>
<text text-anchor="middle" x="212.2" y="-968" font-family="Helvetica,sans-Serif" font-size="10.00" fill="grey">+rts_basename</text>
</g>
<!-- Node27 -->
<g id="Node000027" class="node">
<title>Node27</title>
<g id="a_Node000027"><a xlink:href="structKFKey.html" target="_top" xlink:title="Keys used to interface with Kalman filter objects.">
<path fill="#fff0f0" stroke="red" d="M383.7,-947C383.7,-947 290.7,-947 290.7,-947 284.7,-947 278.7,-941 278.7,-935 278.7,-935 278.7,-797 278.7,-797 278.7,-791 284.7,-785 290.7,-785 290.7,-785 383.7,-785 383.7,-785 389.7,-785 395.7,-791 395.7,-797 395.7,-797 395.7,-935 395.7,-935 395.7,-941 389.7,-947 383.7,-947"/>
<text text-anchor="start" x="322.2" y="-931" font-family="Helvetica,sans-Serif" font-size="10.00">KFKey</text>
<text text-anchor="start" x="291.2" y="-916" font-family="Helvetica,sans-Serif" font-size="10.00">+</text>
<text text-anchor="start" x="304.2" y="-916" font-family="Helvetica,sans-Serif" font-size="10.00">type</text>
<text text-anchor="start" x="291.2" y="-901" font-family="Helvetica,sans-Serif" font-size="10.00">+</text>
<text text-anchor="start" x="304.2" y="-901" font-family="Helvetica,sans-Serif" font-size="10.00">num</text>
<text text-anchor="start" x="291.2" y="-886" font-family="Helvetica,sans-Serif" font-size="10.00">+</text>
<text text-anchor="start" x="304.2" y="-886" font-family="Helvetica,sans-Serif" font-size="10.00">operator!=()</text>
<text text-anchor="start" x="291.2" y="-871" font-family="Helvetica,sans-Serif" font-size="10.00">+</text>
<text text-anchor="start" x="304.2" y="-871" font-family="Helvetica,sans-Serif" font-size="10.00">operator==()</text>
<text text-anchor="start" x="291.2" y="-856" font-family="Helvetica,sans-Serif" font-size="10.00">+</text>
<text text-anchor="start" x="304.2" y="-856" font-family="Helvetica,sans-Serif" font-size="10.00">operator&lt;()</text>
<text text-anchor="start" x="291.2" y="-841" font-family="Helvetica,sans-Serif" font-size="10.00">+</text>
<text text-anchor="start" x="304.2" y="-841" font-family="Helvetica,sans-Serif" font-size="10.00">operator string()</text>
<text text-anchor="start" x="291.2" y="-826" font-family="Helvetica,sans-Serif" font-size="10.00">+</text>
<text text-anchor="start" x="304.2" y="-826" font-family="Helvetica,sans-Serif" font-size="10.00">commaString()</text>
<text text-anchor="start" x="291.2" y="-811" font-family="Helvetica,sans-Serif" font-size="10.00">+</text>
<text text-anchor="start" x="304.2" y="-811" font-family="Helvetica,sans-Serif" font-size="10.00">serialize()</text>
<text text-anchor="start" x="291.2" y="-796" font-family="Helvetica,sans-Serif" font-size="10.00">+</text>
<text text-anchor="start" x="304.2" y="-796" font-family="Helvetica,sans-Serif" font-size="10.00">emptyString()</text>
<polygon fill="red" stroke="red" points="287.2,-926 287.2,-926 388.2,-926 388.2,-926 287.2,-926"/>
<polygon fill="red" stroke="red" points="287.2,-896 287.2,-896 302.2,-896 302.2,-896 287.2,-896"/>
<polygon fill="red" stroke="red" points="302.2,-896 302.2,-896 388.2,-896 388.2,-896 302.2,-896"/>
<polygon fill="none" stroke="red" points="286.7,-789 286.7,-943 387.7,-943 387.7,-789 286.7,-789"/>
</a>
</g>
</g>
<!-- Node2&#45;&gt;Node27 -->
<g id="edge8_Node000027_Node000002" class="edge">
<title>Node2&#45;&gt;Node27</title>
<g id="a_edge8_Node000027_Node000002"><a xlink:title=" ">
<path fill="none" stroke="#63b8ff" d="M200.33,-1021.36C217.36,-1013.47 239.07,-1001.69 255.2,-987 265.08,-978 274.38,-967.58 282.92,-956.72"/>
<polygon fill="none" stroke="#63b8ff" points="282.98,-956.65 283.42,-949.45 290.23,-947.09 289.79,-954.29 282.98,-956.65"/>
</a>
</g>
<text text-anchor="middle" x="304.2" y="-979" font-family="Helvetica,sans-Serif" font-size="10.00" fill="grey"> +comment</text>
<text text-anchor="middle" x="304.2" y="-968" font-family="Helvetica,sans-Serif" font-size="10.00" fill="grey">+str</text>
</g>
<!-- Node3 -->
<g id="Node000003" class="node">
<title>Node3</title>
<g id="a_Node000003"><a xlink:href="structKFState.html" target="_top" xlink:title="Wrapper to simplify copying with default copy but overriding slightly.">
<path fill="white" stroke="#666666" d="M275.2,-716C275.2,-716 137.2,-716 137.2,-716 131.2,-716 125.2,-710 125.2,-704 125.2,-704 125.2,-116 125.2,-116 125.2,-110 131.2,-104 137.2,-104 137.2,-104 275.2,-104 275.2,-104 281.2,-104 287.2,-110 287.2,-116 287.2,-116 287.2,-704 287.2,-704 287.2,-710 281.2,-716 275.2,-716"/>
<text text-anchor="start" x="187.2" y="-700" font-family="Helvetica,sans-Serif" font-size="10.00">KFState</text>
<text text-anchor="start" x="204.2" y="-685" font-family="Helvetica,sans-Serif" font-size="10.00"> </text>
<text text-anchor="start" x="137.2" y="-670" font-family="Helvetica,sans-Serif" font-size="10.00">+</text>
<text text-anchor="start" x="150.2" y="-670" font-family="Helvetica,sans-Serif" font-size="10.00">KFState()</text>
<text text-anchor="start" x="137.2" y="-655" font-family="Helvetica,sans-Serif" font-size="10.00">+</text>
<text text-anchor="start" x="150.2" y="-655" font-family="Helvetica,sans-Serif" font-size="10.00">KFState()</text>
<text text-anchor="start" x="137.2" y="-640" font-family="Helvetica,sans-Serif" font-size="10.00">+</text>
<text text-anchor="start" x="150.2" y="-640" font-family="Helvetica,sans-Serif" font-size="10.00">operator=()</text>
<text text-anchor="start" x="137.2" y="-625" font-family="Helvetica,sans-Serif" font-size="10.00">+</text>
<text text-anchor="start" x="150.2" y="-625" font-family="Helvetica,sans-Serif" font-size="10.00">serialize()</text>
<text text-anchor="start" x="137.2" y="-610" font-family="Helvetica,sans-Serif" font-size="10.00">+</text>
<text text-anchor="start" x="150.2" y="-610" font-family="Helvetica,sans-Serif" font-size="10.00">initFilterEpoch()</text>
<text text-anchor="start" x="137.2" y="-595" font-family="Helvetica,sans-Serif" font-size="10.00">+</text>
<text text-anchor="start" x="150.2" y="-595" font-family="Helvetica,sans-Serif" font-size="10.00">getKFIndex()</text>
<text text-anchor="start" x="137.2" y="-580" font-family="Helvetica,sans-Serif" font-size="10.00">+</text>
<text text-anchor="start" x="150.2" y="-580" font-family="Helvetica,sans-Serif" font-size="10.00">getKFValue()</text>
<text text-anchor="start" x="137.2" y="-565" font-family="Helvetica,sans-Serif" font-size="10.00">+</text>
<text text-anchor="start" x="150.2" y="-565" font-family="Helvetica,sans-Serif" font-size="10.00">getPseudoValue()</text>
<text text-anchor="start" x="137.2" y="-550" font-family="Helvetica,sans-Serif" font-size="10.00">+</text>
<text text-anchor="start" x="150.2" y="-550" font-family="Helvetica,sans-Serif" font-size="10.00">getKFSigma()</text>
<text text-anchor="start" x="137.2" y="-535" font-family="Helvetica,sans-Serif" font-size="10.00">+</text>
<text text-anchor="start" x="150.2" y="-535" font-family="Helvetica,sans-Serif" font-size="10.00">addKFState()</text>
<text text-anchor="start" x="137.2" y="-520" font-family="Helvetica,sans-Serif" font-size="10.00">+</text>
<text text-anchor="start" x="150.2" y="-520" font-family="Helvetica,sans-Serif" font-size="10.00">addPseudoState()</text>
<text text-anchor="start" x="137.2" y="-505" font-family="Helvetica,sans-Serif" font-size="10.00">+</text>
<text text-anchor="start" x="150.2" y="-505" font-family="Helvetica,sans-Serif" font-size="10.00">setExponentialNoise()</text>
<text text-anchor="start" x="137.2" y="-490" font-family="Helvetica,sans-Serif" font-size="10.00">+</text>
<text text-anchor="start" x="150.2" y="-490" font-family="Helvetica,sans-Serif" font-size="10.00">setAccelerator()</text>
<text text-anchor="start" x="137.2" y="-475" font-family="Helvetica,sans-Serif" font-size="10.00">+</text>
<text text-anchor="start" x="150.2" y="-475" font-family="Helvetica,sans-Serif" font-size="10.00">setKFTrans()</text>
<text text-anchor="start" x="137.2" y="-460" font-family="Helvetica,sans-Serif" font-size="10.00">+</text>
<text text-anchor="start" x="150.2" y="-460" font-family="Helvetica,sans-Serif" font-size="10.00">setKFTransRate()</text>
<text text-anchor="start" x="137.2" y="-445" font-family="Helvetica,sans-Serif" font-size="10.00">+</text>
<text text-anchor="start" x="150.2" y="-445" font-family="Helvetica,sans-Serif" font-size="10.00">addNoiseElement()</text>
<text text-anchor="start" x="137.2" y="-430" font-family="Helvetica,sans-Serif" font-size="10.00">+</text>
<text text-anchor="start" x="150.2" y="-430" font-family="Helvetica,sans-Serif" font-size="10.00">removeState()</text>
<text text-anchor="start" x="137.2" y="-415" font-family="Helvetica,sans-Serif" font-size="10.00">+</text>
<text text-anchor="start" x="150.2" y="-415" font-family="Helvetica,sans-Serif" font-size="10.00">stateTransition()</text>
<text text-anchor="start" x="137.2" y="-400" font-family="Helvetica,sans-Serif" font-size="10.00">+</text>
<text text-anchor="start" x="150.2" y="-400" font-family="Helvetica,sans-Serif" font-size="10.00">manualStateTransition()</text>
<text text-anchor="start" x="137.2" y="-385" font-family="Helvetica,sans-Serif" font-size="10.00">+</text>
<text text-anchor="start" x="150.2" y="-385" font-family="Helvetica,sans-Serif" font-size="10.00">preFitSigmaCheck()</text>
<text text-anchor="start" x="137.2" y="-370" font-family="Helvetica,sans-Serif" font-size="10.00">+</text>
<text text-anchor="start" x="150.2" y="-370" font-family="Helvetica,sans-Serif" font-size="10.00">postFitSigmaChecks()</text>
<text text-anchor="start" x="137.2" y="-355" font-family="Helvetica,sans-Serif" font-size="10.00">+</text>
<text text-anchor="start" x="150.2" y="-355" font-family="Helvetica,sans-Serif" font-size="10.00">stateChiSquare()</text>
<text text-anchor="start" x="137.2" y="-340" font-family="Helvetica,sans-Serif" font-size="10.00">+</text>
<text text-anchor="start" x="150.2" y="-340" font-family="Helvetica,sans-Serif" font-size="10.00">measChiSquare()</text>
<text text-anchor="start" x="137.2" y="-325" font-family="Helvetica,sans-Serif" font-size="10.00">+</text>
<text text-anchor="start" x="150.2" y="-325" font-family="Helvetica,sans-Serif" font-size="10.00">innovChiSquare()</text>
<text text-anchor="start" x="137.2" y="-310" font-family="Helvetica,sans-Serif" font-size="10.00">+</text>
<text text-anchor="start" x="150.2" y="-310" font-family="Helvetica,sans-Serif" font-size="10.00">kFilter()</text>
<text text-anchor="start" x="137.2" y="-295" font-family="Helvetica,sans-Serif" font-size="10.00">+</text>
<text text-anchor="start" x="150.2" y="-295" font-family="Helvetica,sans-Serif" font-size="10.00">chiQC()</text>
<text text-anchor="start" x="137.2" y="-280" font-family="Helvetica,sans-Serif" font-size="10.00">+</text>
<text text-anchor="start" x="150.2" y="-280" font-family="Helvetica,sans-Serif" font-size="10.00">outputStates()</text>
<text text-anchor="start" x="137.2" y="-265" font-family="Helvetica,sans-Serif" font-size="10.00">+</text>
<text text-anchor="start" x="150.2" y="-265" font-family="Helvetica,sans-Serif" font-size="10.00">outputConditionNumber()</text>
<text text-anchor="start" x="137.2" y="-250" font-family="Helvetica,sans-Serif" font-size="10.00">+</text>
<text text-anchor="start" x="150.2" y="-250" font-family="Helvetica,sans-Serif" font-size="10.00">outputCorrelations()</text>
<text text-anchor="start" x="137.2" y="-235" font-family="Helvetica,sans-Serif" font-size="10.00">+</text>
<text text-anchor="start" x="150.2" y="-235" font-family="Helvetica,sans-Serif" font-size="10.00">outputMeasurements()</text>
<text text-anchor="start" x="137.2" y="-220" font-family="Helvetica,sans-Serif" font-size="10.00">+</text>
<text text-anchor="start" x="150.2" y="-220" font-family="Helvetica,sans-Serif" font-size="10.00">doStateRejectCallbacks()</text>
<text text-anchor="start" x="137.2" y="-205" font-family="Helvetica,sans-Serif" font-size="10.00">+</text>
<text text-anchor="start" x="150.2" y="-205" font-family="Helvetica,sans-Serif" font-size="10.00">doMeasRejectCallbacks()</text>
<text text-anchor="start" x="137.2" y="-190" font-family="Helvetica,sans-Serif" font-size="10.00">+</text>
<text text-anchor="start" x="150.2" y="-190" font-family="Helvetica,sans-Serif" font-size="10.00">filterKalman()</text>
<text text-anchor="start" x="137.2" y="-175" font-family="Helvetica,sans-Serif" font-size="10.00">+</text>
<text text-anchor="start" x="150.2" y="-175" font-family="Helvetica,sans-Serif" font-size="10.00">leastSquareInitStates()</text>
<text text-anchor="start" x="137.2" y="-160" font-family="Helvetica,sans-Serif" font-size="10.00">+</text>
<text text-anchor="start" x="150.2" y="-160" font-family="Helvetica,sans-Serif" font-size="10.00">getSubState()</text>
<text text-anchor="start" x="137.2" y="-145" font-family="Helvetica,sans-Serif" font-size="10.00">+</text>
<text text-anchor="start" x="150.2" y="-145" font-family="Helvetica,sans-Serif" font-size="10.00">getSubState()</text>
<text text-anchor="start" x="137.2" y="-130" font-family="Helvetica,sans-Serif" font-size="10.00">+</text>
<text text-anchor="start" x="150.2" y="-130" font-family="Helvetica,sans-Serif" font-size="10.00">getSubState()</text>
<text text-anchor="start" x="137.2" y="-115" font-family="Helvetica,sans-Serif" font-size="10.00">+</text>
<text text-anchor="start" x="150.2" y="-115" font-family="Helvetica,sans-Serif" font-size="10.00">decomposedStateKeys()</text>
<polygon fill="#666666" stroke="#666666" points="133.2,-695 133.2,-695 279.2,-695 279.2,-695 133.2,-695"/>
<polygon fill="#666666" stroke="#666666" points="133.2,-680 133.2,-680 279.2,-680 279.2,-680 133.2,-680"/>
<polygon fill="none" stroke="#666666" points="133.2,-108 133.2,-712 279.2,-712 279.2,-108 133.2,-108"/>
</a>
</g>
</g>
<!-- Node3&#45;&gt;Node1 -->
<g id="edge2_Node000001_Node000003" class="edge">
<title>Node3&#45;&gt;Node1</title>
<g id="a_edge2_Node000001_Node000003"><a xlink:title=" ">
<path fill="none" stroke="#63b8ff" d="M125.19,-177.86C110.35,-135.52 96.53,-96.08 86.87,-68.52"/>
<polygon fill="none" stroke="#63b8ff" points="86.84,-68.42 81.08,-64.08 82.87,-57.1 88.63,-61.44 86.84,-68.42"/>
</a>
</g>
<text text-anchor="middle" x="116.7" y="-78" font-family="Helvetica,sans-Serif" font-size="10.00" fill="grey"> +kfState</text>
</g>
<!-- Node3&#45;&gt;Node4 -->
<g id="edge5_Node000004_Node000003" class="edge">
<title>Node3&#45;&gt;Node4</title>
<g id="a_edge5_Node000004_Node000003"><a xlink:title=" ">
<path fill="none" stroke="#63b8ff" d="M188.32,-716.45C187.01,-733.56 185.63,-750.5 184.2,-767 183.61,-773.75 182.94,-780.75 182.23,-787.76"/>
<polygon fill="none" stroke="#63b8ff" points="182.21,-788.01 185.56,-794.39 180.96,-799.94 177.61,-793.56 182.21,-788.01"/>
</a>
</g>
<text text-anchor="middle" x="224.7" y="-748" font-family="Helvetica,sans-Serif" font-size="10.00" fill="grey"> +alternate_ptr</text>
</g>
<!-- Node4&#45;&gt;Node3 -->
<g id="edge3_Node000003_Node000004" class="edge">
<title>Node4&#45;&gt;Node3</title>
<g id="a_edge3_Node000003_Node000004"><a xlink:title=" ">
<path fill="none" stroke="#63b8ff" d="M178.66,-789.87C180.24,-768.1 182.07,-742.88 184.03,-716.01"/>
<polygon fill="none" stroke="#63b8ff" points="175.16,-789.73 177.93,-799.95 182.14,-790.23 175.16,-789.73"/>
</a>
</g>
</g>
<!-- Node26 -->
<g id="Node000026" class="node">
<title>Node26</title>
<g id="a_Node000026"><a xlink:title=" ">
<path fill="white" stroke="#666666" d="M510.2,-894.5C510.2,-894.5 426.2,-894.5 426.2,-894.5 420.2,-894.5 414.2,-888.5 414.2,-882.5 414.2,-882.5 414.2,-849.5 414.2,-849.5 414.2,-843.5 420.2,-837.5 426.2,-837.5 426.2,-837.5 510.2,-837.5 510.2,-837.5 516.2,-837.5 522.2,-843.5 522.2,-849.5 522.2,-849.5 522.2,-882.5 522.2,-882.5 522.2,-888.5 516.2,-894.5 510.2,-894.5"/>
<text text-anchor="start" x="427.2" y="-878" font-family="Helvetica,sans-Serif" font-size="10.00">recursive_mutex</text>
<text text-anchor="start" x="466.2" y="-863" font-family="Helvetica,sans-Serif" font-size="10.00"> </text>
<text text-anchor="start" x="466.2" y="-848" font-family="Helvetica,sans-Serif" font-size="10.00"> </text>
<polygon fill="#666666" stroke="#666666" points="422.2,-873 422.2,-873 514.2,-873 514.2,-873 422.2,-873"/>
<polygon fill="#666666" stroke="#666666" points="422.2,-858 422.2,-858 514.2,-858 514.2,-858 422.2,-858"/>
<polygon fill="none" stroke="#666666" points="422.2,-841.5 422.2,-890.5 514.2,-890.5 514.2,-841.5 422.2,-841.5"/>
</a>
</g>
</g>
<!-- Node26&#45;&gt;Node3 -->
<g id="edge6_Node000003_Node000026" class="edge">
<title>Node26&#45;&gt;Node3</title>
<g id="a_edge6_Node000003_Node000026"><a xlink:title=" ">
<path fill="none" stroke="#63b8ff" d="M452.2,-837.28C421.19,-783.55 350.88,-661.71 293.33,-561.99"/>
<polygon fill="none" stroke="#63b8ff" points="293.27,-561.89 286.81,-558.69 287.28,-551.49 293.74,-554.69 293.27,-561.89"/>
</a>
</g>
<text text-anchor="middle" x="451.2" y="-748" font-family="Helvetica,sans-Serif" font-size="10.00" fill="grey"> +kfStateMutex</text>
</g>
<!-- Node27&#45;&gt;Node3 -->
<g id="edge7_Node000003_Node000027" class="edge">
<title>Node27&#45;&gt;Node3</title>
<g id="a_edge7_Node000003_Node000027"><a xlink:title=" ">
<path fill="none" stroke="#63b8ff" d="M314.08,-784.88C307.17,-760.95 299.17,-733.19 290.69,-703.83"/>
<polygon fill="none" stroke="#63b8ff" points="290.62,-703.59 285.12,-698.94 287.3,-692.06 292.8,-696.72 290.62,-703.59"/>
</a>
</g>
<text text-anchor="middle" x="333.2" y="-748" font-family="Helvetica,sans-Serif" font-size="10.00" fill="grey"> +oneKey</text>
</g>
</g>
</svg>
