<?xml version="1.0" encoding="UTF-8" standalone="no"?>
<!DOCTYPE svg PUBLIC "-//W3C//DTD SVG 1.1//EN"
 "http://www.w3.org/Graphics/SVG/1.1/DTD/svg11.dtd">
<!-- Generated by graphviz version 2.43.0 (0)
 -->
<!-- Title: SerialStream Pages: 1 -->
<svg width="360pt" height="1139pt"
 viewBox="0.00 0.00 360.00 1139.00" xmlns="http://www.w3.org/2000/svg" xmlns:xlink="http://www.w3.org/1999/xlink">
<g id="graph0" class="graph" transform="scale(1 1) rotate(0) translate(4 1135)">
<title>SerialStream</title>
<!-- Node1 -->
<g id="Node000001" class="node">
<title>Node1</title>
<g id="a_Node000001"><a xlink:href="structSerialStream.html" target="_top" xlink:title=" ">
<path fill="white" stroke="#666666" stroke-width="2" d="M222.5,-993C222.5,-993 128.5,-993 128.5,-993 122.5,-993 116.5,-987 116.5,-981 116.5,-981 116.5,-843 116.5,-843 116.5,-837 122.5,-831 128.5,-831 128.5,-831 222.5,-831 222.5,-831 228.5,-831 234.5,-837 234.5,-843 234.5,-843 234.5,-981 234.5,-981 234.5,-987 228.5,-993 222.5,-993"/>
<text text-anchor="start" x="143.5" y="-977" font-family="Helvetica,sans-Serif" font-size="10.00">SerialStream</text>
<text text-anchor="start" x="128.5" y="-962" font-family="Helvetica,sans-Serif" font-size="10.00">+</text>
<text text-anchor="start" x="141.5" y="-962" font-family="Helvetica,sans-Serif" font-size="10.00">path</text>
<text text-anchor="start" x="128.5" y="-947" font-family="Helvetica,sans-Serif" font-size="10.00">+</text>
<text text-anchor="start" x="141.5" y="-947" font-family="Helvetica,sans-Serif" font-size="10.00">fileDescriptor</text>
<text text-anchor="start" x="128.5" y="-932" font-family="Helvetica,sans-Serif" font-size="10.00">+</text>
<text text-anchor="start" x="141.5" y="-932" font-family="Helvetica,sans-Serif" font-size="10.00">receivedData</text>
<text text-anchor="start" x="128.5" y="-917" font-family="Helvetica,sans-Serif" font-size="10.00">+</text>
<text text-anchor="start" x="141.5" y="-917" font-family="Helvetica,sans-Serif" font-size="10.00">SerialStream()</text>
<text text-anchor="start" x="128.5" y="-902" font-family="Helvetica,sans-Serif" font-size="10.00">+</text>
<text text-anchor="start" x="141.5" y="-902" font-family="Helvetica,sans-Serif" font-size="10.00">SerialStream()</text>
<text text-anchor="start" x="128.5" y="-887" font-family="Helvetica,sans-Serif" font-size="10.00">+</text>
<text text-anchor="start" x="141.5" y="-887" font-family="Helvetica,sans-Serif" font-size="10.00">openStream()</text>
<text text-anchor="start" x="128.5" y="-872" font-family="Helvetica,sans-Serif" font-size="10.00">+</text>
<text text-anchor="start" x="141.5" y="-872" font-family="Helvetica,sans-Serif" font-size="10.00">getData()</text>
<text text-anchor="start" x="128.5" y="-857" font-family="Helvetica,sans-Serif" font-size="10.00">+</text>
<text text-anchor="start" x="141.5" y="-857" font-family="Helvetica,sans-Serif" font-size="10.00">getIStream_ptr()</text>
<text text-anchor="start" x="128.5" y="-842" font-family="Helvetica,sans-Serif" font-size="10.00">+</text>
<text text-anchor="start" x="141.5" y="-842" font-family="Helvetica,sans-Serif" font-size="10.00">~SerialStream()</text>
<polygon fill="#666666" stroke="#666666" points="124.5,-972 124.5,-972 226.5,-972 226.5,-972 124.5,-972"/>
<polygon fill="#666666" stroke="#666666" points="124.5,-927 124.5,-927 139.5,-927 139.5,-927 124.5,-927"/>
<polygon fill="#666666" stroke="#666666" points="139.5,-927 139.5,-927 226.5,-927 226.5,-927 139.5,-927"/>
<polygon fill="none" stroke="#666666" points="124.5,-835 124.5,-989 226.5,-989 226.5,-835 124.5,-835"/>
</a>
</g>
</g>
<!-- Node3 -->
<g id="Node000003" class="node">
<title>Node3</title>
<g id="a_Node000003"><a xlink:href="structTcpSocket.html" target="_top" xlink:title=" ">
<path fill="white" stroke="#666666" d="M247,-795C247,-795 104,-795 104,-795 98,-795 92,-789 92,-783 92,-783 92,-180 92,-180 92,-174 98,-168 104,-168 104,-168 247,-168 247,-168 253,-168 259,-174 259,-180 259,-180 259,-783 259,-783 259,-789 253,-795 247,-795"/>
<text text-anchor="start" x="151.5" y="-778.5" font-family="Helvetica,sans-Serif" font-size="10.00">TcpSocket</text>
<text text-anchor="start" x="104.5" y="-763.5" font-family="Helvetica,sans-Serif" font-size="10.00">+</text>
<text text-anchor="start" x="117.5" y="-763.5" font-family="Helvetica,sans-Serif" font-size="10.00">url</text>
<text text-anchor="start" x="104.5" y="-748.5" font-family="Helvetica,sans-Serif" font-size="10.00">+</text>
<text text-anchor="start" x="117.5" y="-748.5" font-family="Helvetica,sans-Serif" font-size="10.00">reconnectDelay</text>
<text text-anchor="start" x="104.5" y="-733.5" font-family="Helvetica,sans-Serif" font-size="10.00">+</text>
<text text-anchor="start" x="117.5" y="-733.5" font-family="Helvetica,sans-Serif" font-size="10.00">disconnectionCount</text>
<text text-anchor="start" x="104.5" y="-718.5" font-family="Helvetica,sans-Serif" font-size="10.00">+</text>
<text text-anchor="start" x="117.5" y="-718.5" font-family="Helvetica,sans-Serif" font-size="10.00">isConnected</text>
<text text-anchor="start" x="104.5" y="-703.5" font-family="Helvetica,sans-Serif" font-size="10.00">+</text>
<text text-anchor="start" x="117.5" y="-703.5" font-family="Helvetica,sans-Serif" font-size="10.00">numberErroredChunks</text>
<text text-anchor="start" x="104.5" y="-688.5" font-family="Helvetica,sans-Serif" font-size="10.00">+</text>
<text text-anchor="start" x="117.5" y="-688.5" font-family="Helvetica,sans-Serif" font-size="10.00">logHttpSentReceived</text>
<text text-anchor="start" x="104.5" y="-673.5" font-family="Helvetica,sans-Serif" font-size="10.00">+</text>
<text text-anchor="start" x="117.5" y="-673.5" font-family="Helvetica,sans-Serif" font-size="10.00">content_length</text>
<text text-anchor="start" x="104.5" y="-658.5" font-family="Helvetica,sans-Serif" font-size="10.00">+</text>
<text text-anchor="start" x="117.5" y="-658.5" font-family="Helvetica,sans-Serif" font-size="10.00">sslContext</text>
<text text-anchor="start" x="104.5" y="-643.5" font-family="Helvetica,sans-Serif" font-size="10.00">+</text>
<text text-anchor="start" x="117.5" y="-643.5" font-family="Helvetica,sans-Serif" font-size="10.00">ioService</text>
<text text-anchor="start" x="104.5" y="-628.5" font-family="Helvetica,sans-Serif" font-size="10.00">#</text>
<text text-anchor="start" x="117.5" y="-628.5" font-family="Helvetica,sans-Serif" font-size="10.00">_socket</text>
<text text-anchor="start" x="104.5" y="-613.5" font-family="Helvetica,sans-Serif" font-size="10.00">#</text>
<text text-anchor="start" x="117.5" y="-613.5" font-family="Helvetica,sans-Serif" font-size="10.00">socket_ptr</text>
<text text-anchor="start" x="104.5" y="-598.5" font-family="Helvetica,sans-Serif" font-size="10.00">#</text>
<text text-anchor="start" x="117.5" y="-598.5" font-family="Helvetica,sans-Serif" font-size="10.00">_sslsocket</text>
<text text-anchor="start" x="104.5" y="-583.5" font-family="Helvetica,sans-Serif" font-size="10.00">#</text>
<text text-anchor="start" x="117.5" y="-583.5" font-family="Helvetica,sans-Serif" font-size="10.00">_resolver</text>
<text text-anchor="start" x="104.5" y="-568.5" font-family="Helvetica,sans-Serif" font-size="10.00">#</text>
<text text-anchor="start" x="117.5" y="-568.5" font-family="Helvetica,sans-Serif" font-size="10.00">timer</text>
<text text-anchor="start" x="104.5" y="-553.5" font-family="Helvetica,sans-Serif" font-size="10.00">#</text>
<text text-anchor="start" x="117.5" y="-553.5" font-family="Helvetica,sans-Serif" font-size="10.00">readUntilString</text>
<text text-anchor="start" x="104.5" y="-538.5" font-family="Helvetica,sans-Serif" font-size="10.00">#</text>
<text text-anchor="start" x="117.5" y="-538.5" font-family="Helvetica,sans-Serif" font-size="10.00">requestString</text>
<text text-anchor="start" x="104.5" y="-523.5" font-family="Helvetica,sans-Serif" font-size="10.00">#</text>
<text text-anchor="start" x="117.5" y="-523.5" font-family="Helvetica,sans-Serif" font-size="10.00">responseString</text>
<text text-anchor="start" x="104.5" y="-508.5" font-family="Helvetica,sans-Serif" font-size="10.00">#</text>
<text text-anchor="start" x="117.5" y="-508.5" font-family="Helvetica,sans-Serif" font-size="10.00">request</text>
<text text-anchor="start" x="104.5" y="-493.5" font-family="Helvetica,sans-Serif" font-size="10.00">#</text>
<text text-anchor="start" x="117.5" y="-493.5" font-family="Helvetica,sans-Serif" font-size="10.00">downloadBuf</text>
<text text-anchor="start" x="104.5" y="-478.5" font-family="Helvetica,sans-Serif" font-size="10.00">#</text>
<text text-anchor="start" x="117.5" y="-478.5" font-family="Helvetica,sans-Serif" font-size="10.00">receivedTcpData</text>
<text text-anchor="start" x="104.5" y="-463.5" font-family="Helvetica,sans-Serif" font-size="10.00">+</text>
<text text-anchor="start" x="117.5" y="-463.5" font-family="Helvetica,sans-Serif" font-size="10.00">TcpSocket()</text>
<text text-anchor="start" x="104.5" y="-448.5" font-family="Helvetica,sans-Serif" font-size="10.00">+</text>
<text text-anchor="start" x="117.5" y="-448.5" font-family="Helvetica,sans-Serif" font-size="10.00">setUrl()</text>
<text text-anchor="start" x="104.5" y="-433.5" font-family="Helvetica,sans-Serif" font-size="10.00">+</text>
<text text-anchor="start" x="117.5" y="-433.5" font-family="Helvetica,sans-Serif" font-size="10.00">connect()</text>
<text text-anchor="start" x="104.5" y="-418.5" font-family="Helvetica,sans-Serif" font-size="10.00">+</text>
<text text-anchor="start" x="117.5" y="-418.5" font-family="Helvetica,sans-Serif" font-size="10.00">disconnect()</text>
<text text-anchor="start" x="104.5" y="-403.5" font-family="Helvetica,sans-Serif" font-size="10.00">+</text>
<text text-anchor="start" x="117.5" y="-403.5" font-family="Helvetica,sans-Serif" font-size="10.00">startRead()</text>
<text text-anchor="start" x="104.5" y="-388.5" font-family="Helvetica,sans-Serif" font-size="10.00">+</text>
<text text-anchor="start" x="117.5" y="-388.5" font-family="Helvetica,sans-Serif" font-size="10.00">timeoutHandler()</text>
<text text-anchor="start" x="104.5" y="-373.5" font-family="Helvetica,sans-Serif" font-size="10.00">+</text>
<text text-anchor="start" x="117.5" y="-373.5" font-family="Helvetica,sans-Serif" font-size="10.00">delayedReconnect()</text>
<text text-anchor="start" x="104.5" y="-358.5" font-family="Helvetica,sans-Serif" font-size="10.00">+</text>
<text text-anchor="start" x="117.5" y="-358.5" font-family="Helvetica,sans-Serif" font-size="10.00">connectHandler()</text>
<text text-anchor="start" x="104.5" y="-343.5" font-family="Helvetica,sans-Serif" font-size="10.00">+</text>
<text text-anchor="start" x="117.5" y="-343.5" font-family="Helvetica,sans-Serif" font-size="10.00">requestResponseHandler()</text>
<text text-anchor="start" x="104.5" y="-328.5" font-family="Helvetica,sans-Serif" font-size="10.00">+</text>
<text text-anchor="start" x="117.5" y="-328.5" font-family="Helvetica,sans-Serif" font-size="10.00">logChunkError()</text>
<text text-anchor="start" x="104.5" y="-313.5" font-family="Helvetica,sans-Serif" font-size="10.00">+</text>
<text text-anchor="start" x="117.5" y="-313.5" font-family="Helvetica,sans-Serif" font-size="10.00">dataChunkDownloaded()</text>
<text text-anchor="start" x="104.5" y="-298.5" font-family="Helvetica,sans-Serif" font-size="10.00">+</text>
<text text-anchor="start" x="117.5" y="-298.5" font-family="Helvetica,sans-Serif" font-size="10.00">readContentDownloaded()</text>
<text text-anchor="start" x="104.5" y="-283.5" font-family="Helvetica,sans-Serif" font-size="10.00">+</text>
<text text-anchor="start" x="117.5" y="-283.5" font-family="Helvetica,sans-Serif" font-size="10.00">connected()</text>
<text text-anchor="start" x="104.5" y="-268.5" font-family="Helvetica,sans-Serif" font-size="10.00">+</text>
<text text-anchor="start" x="117.5" y="-268.5" font-family="Helvetica,sans-Serif" font-size="10.00">messageChunkLog()</text>
<text text-anchor="start" x="104.5" y="-253.5" font-family="Helvetica,sans-Serif" font-size="10.00">+</text>
<text text-anchor="start" x="117.5" y="-253.5" font-family="Helvetica,sans-Serif" font-size="10.00">networkLog()</text>
<text text-anchor="start" x="104.5" y="-238.5" font-family="Helvetica,sans-Serif" font-size="10.00">+</text>
<text text-anchor="start" x="117.5" y="-238.5" font-family="Helvetica,sans-Serif" font-size="10.00">getData()</text>
<text text-anchor="start" x="104.5" y="-223.5" font-family="Helvetica,sans-Serif" font-size="10.00">+</text>
<text text-anchor="start" x="117.5" y="-223.5" font-family="Helvetica,sans-Serif" font-size="10.00">connectionError()</text>
<text text-anchor="start" x="104.5" y="-208.5" font-family="Helvetica,sans-Serif" font-size="10.00">+</text>
<text text-anchor="start" x="117.5" y="-208.5" font-family="Helvetica,sans-Serif" font-size="10.00">~TcpSocket()</text>
<text text-anchor="start" x="104.5" y="-193.5" font-family="Helvetica,sans-Serif" font-size="10.00">+</text>
<text text-anchor="start" x="117.5" y="-193.5" font-family="Helvetica,sans-Serif" font-size="10.00">runService()</text>
<text text-anchor="start" x="104.5" y="-178.5" font-family="Helvetica,sans-Serif" font-size="10.00">+</text>
<text text-anchor="start" x="117.5" y="-178.5" font-family="Helvetica,sans-Serif" font-size="10.00">startClients()</text>
<polygon fill="#666666" stroke="#666666" points="100.5,-773.5 100.5,-773.5 251.5,-773.5 251.5,-773.5 100.5,-773.5"/>
<polygon fill="#666666" stroke="#666666" points="100.5,-473.5 100.5,-473.5 115.5,-473.5 115.5,-473.5 100.5,-473.5"/>
<polygon fill="#666666" stroke="#666666" points="115.5,-473.5 115.5,-473.5 251.5,-473.5 251.5,-473.5 115.5,-473.5"/>
<polygon fill="none" stroke="#666666" points="100,-172 100,-791 251,-791 251,-172 100,-172"/>
</a>
</g>
</g>
<!-- Node1&#45;&gt;Node3 -->
<g id="edge2_Node000001_Node000003" class="edge">
<title>Node1&#45;&gt;Node3</title>
<g id="a_edge2_Node000001_Node000003"><a xlink:title=" ">
<path fill="none" stroke="#63b8ff" d="M175.5,-820.77C175.5,-812.61 175.5,-804.09 175.5,-795.28"/>
<polygon fill="none" stroke="#63b8ff" points="172,-820.91 175.5,-830.91 179,-820.91 172,-820.91"/>
</a>
</g>
</g>
<!-- Node2 -->
<g id="Node000002" class="node">
<title>Node2</title>
<g id="a_Node000002"><a xlink:href="structStream.html" target="_top" xlink:title=" ">
<path fill="white" stroke="#666666" d="M222.5,-1131C222.5,-1131 128.5,-1131 128.5,-1131 122.5,-1131 116.5,-1125 116.5,-1119 116.5,-1119 116.5,-1041 116.5,-1041 116.5,-1035 122.5,-1029 128.5,-1029 128.5,-1029 222.5,-1029 222.5,-1029 228.5,-1029 234.5,-1035 234.5,-1041 234.5,-1041 234.5,-1119 234.5,-1119 234.5,-1125 228.5,-1131 222.5,-1131"/>
<text text-anchor="start" x="157.5" y="-1115" font-family="Helvetica,sans-Serif" font-size="10.00">Stream</text>
<text text-anchor="start" x="128.5" y="-1100" font-family="Helvetica,sans-Serif" font-size="10.00">+</text>
<text text-anchor="start" x="141.5" y="-1100" font-family="Helvetica,sans-Serif" font-size="10.00">sourceString</text>
<text text-anchor="start" x="128.5" y="-1085" font-family="Helvetica,sans-Serif" font-size="10.00">+</text>
<text text-anchor="start" x="141.5" y="-1085" font-family="Helvetica,sans-Serif" font-size="10.00">getIStream_ptr()</text>
<text text-anchor="start" x="128.5" y="-1070" font-family="Helvetica,sans-Serif" font-size="10.00">+</text>
<text text-anchor="start" x="141.5" y="-1070" font-family="Helvetica,sans-Serif" font-size="10.00">isDead()</text>
<text text-anchor="start" x="128.5" y="-1055" font-family="Helvetica,sans-Serif" font-size="10.00">+</text>
<text text-anchor="start" x="141.5" y="-1055" font-family="Helvetica,sans-Serif" font-size="10.00">isAvailable()</text>
<text text-anchor="start" x="128.5" y="-1040" font-family="Helvetica,sans-Serif" font-size="10.00">+</text>
<text text-anchor="start" x="141.5" y="-1040" font-family="Helvetica,sans-Serif" font-size="10.00">~Stream()</text>
<polygon fill="#666666" stroke="#666666" points="124.5,-1110 124.5,-1110 226.5,-1110 226.5,-1110 124.5,-1110"/>
<polygon fill="#666666" stroke="#666666" points="124.5,-1095 124.5,-1095 139.5,-1095 139.5,-1095 124.5,-1095"/>
<polygon fill="#666666" stroke="#666666" points="139.5,-1095 139.5,-1095 226.5,-1095 226.5,-1095 139.5,-1095"/>
<polygon fill="none" stroke="#666666" points="124.5,-1033 124.5,-1127 226.5,-1127 226.5,-1033 124.5,-1033"/>
</a>
</g>
</g>
<!-- Node2&#45;&gt;Node1 -->
<g id="edge1_Node000001_Node000002" class="edge">
<title>Node2&#45;&gt;Node1</title>
<g id="a_edge1_Node000001_Node000002"><a xlink:title=" ">
<path fill="none" stroke="#63b8ff" d="M175.5,-1018.49C175.5,-1010.24 175.5,-1001.66 175.5,-993.13"/>
<polygon fill="none" stroke="#63b8ff" points="172,-1018.74 175.5,-1028.74 179,-1018.74 172,-1018.74"/>
</a>
</g>
</g>
<!-- Node4 -->
<g id="Node000004" class="node">
<title>Node4</title>
<g id="a_Node000004"><a xlink:href="structNtripResponder.html" target="_top" xlink:title=" ">
<path fill="#fff0f0" stroke="red" d="M155,-109.5C155,-109.5 12,-109.5 12,-109.5 6,-109.5 0,-103.5 0,-97.5 0,-97.5 0,-34.5 0,-34.5 0,-28.5 6,-22.5 12,-22.5 12,-22.5 155,-22.5 155,-22.5 161,-22.5 167,-28.5 167,-34.5 167,-34.5 167,-97.5 167,-97.5 167,-103.5 161,-109.5 155,-109.5"/>
<text text-anchor="start" x="46" y="-93" font-family="Helvetica,sans-Serif" font-size="10.00">NtripResponder</text>
<text text-anchor="start" x="82" y="-78" font-family="Helvetica,sans-Serif" font-size="10.00"> </text>
<text text-anchor="start" x="12.5" y="-63" font-family="Helvetica,sans-Serif" font-size="10.00">+</text>
<text text-anchor="start" x="25.5" y="-63" font-family="Helvetica,sans-Serif" font-size="10.00">NtripResponder()</text>
<text text-anchor="start" x="12.5" y="-48" font-family="Helvetica,sans-Serif" font-size="10.00">+</text>
<text text-anchor="start" x="25.5" y="-48" font-family="Helvetica,sans-Serif" font-size="10.00">requestResponseHandler()</text>
<text text-anchor="start" x="12.5" y="-33" font-family="Helvetica,sans-Serif" font-size="10.00">+</text>
<text text-anchor="start" x="25.5" y="-33" font-family="Helvetica,sans-Serif" font-size="10.00">serverResponse()</text>
<polygon fill="red" stroke="red" points="8.5,-88 8.5,-88 159.5,-88 159.5,-88 8.5,-88"/>
<polygon fill="red" stroke="red" points="8.5,-73 8.5,-73 159.5,-73 159.5,-73 8.5,-73"/>
<polygon fill="none" stroke="red" points="8,-26.5 8,-105.5 159,-105.5 159,-26.5 8,-26.5"/>
</a>
</g>
</g>
<!-- Node3&#45;&gt;Node4 -->
<g id="edge3_Node000003_Node000004" class="edge">
<title>Node3&#45;&gt;Node4</title>
<g id="a_edge3_Node000003_Node000004"><a xlink:title=" ">
<path fill="none" stroke="#63b8ff" d="M103.74,-157.99C99.73,-139.93 96.1,-123.61 93.06,-109.95"/>
<polygon fill="none" stroke="#63b8ff" points="100.36,-158.89 105.95,-167.89 107.19,-157.37 100.36,-158.89"/>
</a>
</g>
</g>
<!-- Node7 -->
<g id="Node000007" class="node">
<title>Node7</title>
<g id="a_Node000007"><a xlink:href="structSisnetStream.html" target="_top" xlink:title=" ">
<path fill="white" stroke="#666666" d="M340,-132C340,-132 197,-132 197,-132 191,-132 185,-126 185,-120 185,-120 185,-12 185,-12 185,-6 191,0 197,0 197,0 340,0 340,0 346,0 352,-6 352,-12 352,-12 352,-120 352,-120 352,-126 346,-132 340,-132"/>
<text text-anchor="start" x="236" y="-116" font-family="Helvetica,sans-Serif" font-size="10.00">SisnetStream</text>
<text text-anchor="start" x="267" y="-101" font-family="Helvetica,sans-Serif" font-size="10.00"> </text>
<text text-anchor="start" x="197.5" y="-86" font-family="Helvetica,sans-Serif" font-size="10.00">+</text>
<text text-anchor="start" x="210.5" y="-86" font-family="Helvetica,sans-Serif" font-size="10.00">SisnetStream()</text>
<text text-anchor="start" x="197.5" y="-71" font-family="Helvetica,sans-Serif" font-size="10.00">+</text>
<text text-anchor="start" x="210.5" y="-71" font-family="Helvetica,sans-Serif" font-size="10.00">sisnetHandler()</text>
<text text-anchor="start" x="197.5" y="-56" font-family="Helvetica,sans-Serif" font-size="10.00">+</text>
<text text-anchor="start" x="210.5" y="-56" font-family="Helvetica,sans-Serif" font-size="10.00">sisnetResponseHandler()</text>
<text text-anchor="start" x="197.5" y="-41" font-family="Helvetica,sans-Serif" font-size="10.00">+</text>
<text text-anchor="start" x="210.5" y="-41" font-family="Helvetica,sans-Serif" font-size="10.00">sisnetStartHandler()</text>
<text text-anchor="start" x="197.5" y="-26" font-family="Helvetica,sans-Serif" font-size="10.00">+</text>
<text text-anchor="start" x="210.5" y="-26" font-family="Helvetica,sans-Serif" font-size="10.00">requestResponseHandler()</text>
<text text-anchor="start" x="197.5" y="-11" font-family="Helvetica,sans-Serif" font-size="10.00">+</text>
<text text-anchor="start" x="210.5" y="-11" font-family="Helvetica,sans-Serif" font-size="10.00">~SisnetStream()</text>
<polygon fill="#666666" stroke="#666666" points="193.5,-111 193.5,-111 344.5,-111 344.5,-111 193.5,-111"/>
<polygon fill="#666666" stroke="#666666" points="193.5,-96 193.5,-96 344.5,-96 344.5,-96 193.5,-96"/>
<polygon fill="none" stroke="#666666" points="193,-4 193,-128 344,-128 344,-4 193,-4"/>
</a>
</g>
</g>
<!-- Node3&#45;&gt;Node7 -->
<g id="edge4_Node000003_Node000007" class="edge">
<title>Node3&#45;&gt;Node7</title>
<g id="a_edge4_Node000003_Node000007"><a xlink:title=" ">
<path fill="none" stroke="#63b8ff" d="M248.05,-157.93C250.08,-148.9 252.01,-140.3 253.82,-132.26"/>
<polygon fill="none" stroke="#63b8ff" points="244.59,-157.36 245.81,-167.89 251.42,-158.9 244.59,-157.36"/>
</a>
</g>
</g>
</g>
</svg>
