<?xml version="1.0" encoding="UTF-8" standalone="no"?>
<!DOCTYPE svg PUBLIC "-//W3C//DTD SVG 1.1//EN"
 "http://www.w3.org/Graphics/SVG/1.1/DTD/svg11.dtd">
<!-- Generated by graphviz version 2.43.0 (0)
 -->
<!-- Title: SppOptions Pages: 1 -->
<svg width="145pt" height="521pt"
 viewBox="0.00 0.00 145.00 521.00" xmlns="http://www.w3.org/2000/svg" xmlns:xlink="http://www.w3.org/1999/xlink">
<g id="graph0" class="graph" transform="scale(1 1) rotate(0) translate(4 517)">
<title>SppOptions</title>
<!-- Node1 -->
<g id="Node000001" class="node">
<title>Node1</title>
<g id="a_Node000001"><a xlink:href="structSppOptions.html" target="_top" xlink:title=" ">
<path fill="white" stroke="#666666" stroke-width="2" d="M122,-132C122,-132 15,-132 15,-132 9,-132 3,-126 3,-120 3,-120 3,-12 3,-12 3,-6 9,0 15,0 15,0 122,0 122,0 128,0 134,-6 134,-12 134,-12 134,-120 134,-120 134,-126 128,-132 122,-132"/>
<text text-anchor="start" x="41" y="-116" font-family="Helvetica,sans-Serif" font-size="10.00">SppOptions</text>
<text text-anchor="start" x="15.5" y="-101" font-family="Helvetica,sans-Serif" font-size="10.00">+</text>
<text text-anchor="start" x="28.5" y="-101" font-family="Helvetica,sans-Serif" font-size="10.00">always_reinitialise</text>
<text text-anchor="start" x="15.5" y="-86" font-family="Helvetica,sans-Serif" font-size="10.00">+</text>
<text text-anchor="start" x="28.5" y="-86" font-family="Helvetica,sans-Serif" font-size="10.00">max_lsq_iterations</text>
<text text-anchor="start" x="15.5" y="-71" font-family="Helvetica,sans-Serif" font-size="10.00">+</text>
<text text-anchor="start" x="28.5" y="-71" font-family="Helvetica,sans-Serif" font-size="10.00">max_gdop</text>
<text text-anchor="start" x="15.5" y="-56" font-family="Helvetica,sans-Serif" font-size="10.00">+</text>
<text text-anchor="start" x="28.5" y="-56" font-family="Helvetica,sans-Serif" font-size="10.00">sigma_scaling</text>
<text text-anchor="start" x="15.5" y="-41" font-family="Helvetica,sans-Serif" font-size="10.00">+</text>
<text text-anchor="start" x="28.5" y="-41" font-family="Helvetica,sans-Serif" font-size="10.00">raim</text>
<text text-anchor="start" x="15.5" y="-26" font-family="Helvetica,sans-Serif" font-size="10.00">+</text>
<text text-anchor="start" x="28.5" y="-26" font-family="Helvetica,sans-Serif" font-size="10.00">iono_mode</text>
<text text-anchor="start" x="67" y="-11" font-family="Helvetica,sans-Serif" font-size="10.00"> </text>
<polygon fill="#666666" stroke="#666666" points="11.5,-111 11.5,-111 126.5,-111 126.5,-111 11.5,-111"/>
<polygon fill="#666666" stroke="#666666" points="11.5,-21 11.5,-21 26.5,-21 26.5,-21 11.5,-21"/>
<polygon fill="#666666" stroke="#666666" points="26.5,-21 26.5,-21 126.5,-21 126.5,-21 26.5,-21"/>
<polygon fill="none" stroke="#666666" points="11,-4 11,-128 126,-128 126,-4 11,-4"/>
</a>
</g>
</g>
<!-- Node2 -->
<g id="Node000002" class="node">
<title>Node2</title>
<g id="a_Node000002"><a xlink:href="structFilterOptions.html" target="_top" xlink:title=" ">
<path fill="white" stroke="#666666" d="M124,-330C124,-330 13,-330 13,-330 7,-330 1,-324 1,-318 1,-318 1,-180 1,-180 1,-174 7,-168 13,-168 13,-168 124,-168 124,-168 130,-168 136,-174 136,-180 136,-180 136,-318 136,-318 136,-324 130,-330 124,-330"/>
<text text-anchor="start" x="37.5" y="-314" font-family="Helvetica,sans-Serif" font-size="10.00">FilterOptions</text>
<text text-anchor="start" x="13.5" y="-299" font-family="Helvetica,sans-Serif" font-size="10.00">+</text>
<text text-anchor="start" x="26.5" y="-299" font-family="Helvetica,sans-Serif" font-size="10.00">simulate_filter_only</text>
<text text-anchor="start" x="13.5" y="-284" font-family="Helvetica,sans-Serif" font-size="10.00">+</text>
<text text-anchor="start" x="26.5" y="-284" font-family="Helvetica,sans-Serif" font-size="10.00">assume_linearity</text>
<text text-anchor="start" x="13.5" y="-269" font-family="Helvetica,sans-Serif" font-size="10.00">+</text>
<text text-anchor="start" x="26.5" y="-269" font-family="Helvetica,sans-Serif" font-size="10.00">advanced_postfits</text>
<text text-anchor="start" x="13.5" y="-254" font-family="Helvetica,sans-Serif" font-size="10.00">+</text>
<text text-anchor="start" x="26.5" y="-254" font-family="Helvetica,sans-Serif" font-size="10.00">joseph_stabilisation</text>
<text text-anchor="start" x="13.5" y="-239" font-family="Helvetica,sans-Serif" font-size="10.00">+</text>
<text text-anchor="start" x="26.5" y="-239" font-family="Helvetica,sans-Serif" font-size="10.00">inverter</text>
<text text-anchor="start" x="13.5" y="-224" font-family="Helvetica,sans-Serif" font-size="10.00">+</text>
<text text-anchor="start" x="26.5" y="-224" font-family="Helvetica,sans-Serif" font-size="10.00">prefitOpts</text>
<text text-anchor="start" x="13.5" y="-209" font-family="Helvetica,sans-Serif" font-size="10.00">+</text>
<text text-anchor="start" x="26.5" y="-209" font-family="Helvetica,sans-Serif" font-size="10.00">postfitOpts</text>
<text text-anchor="start" x="13.5" y="-194" font-family="Helvetica,sans-Serif" font-size="10.00">+</text>
<text text-anchor="start" x="26.5" y="-194" font-family="Helvetica,sans-Serif" font-size="10.00">chiSquareTest</text>
<text text-anchor="start" x="67" y="-179" font-family="Helvetica,sans-Serif" font-size="10.00"> </text>
<polygon fill="#666666" stroke="#666666" points="9.5,-309 9.5,-309 128.5,-309 128.5,-309 9.5,-309"/>
<polygon fill="#666666" stroke="#666666" points="9.5,-189 9.5,-189 24.5,-189 24.5,-189 9.5,-189"/>
<polygon fill="#666666" stroke="#666666" points="24.5,-189 24.5,-189 128.5,-189 128.5,-189 24.5,-189"/>
<polygon fill="none" stroke="#666666" points="9,-172 9,-326 128,-326 128,-172 9,-172"/>
</a>
</g>
</g>
<!-- Node2&#45;&gt;Node1 -->
<g id="edge1_Node000001_Node000002" class="edge">
<title>Node2&#45;&gt;Node1</title>
<g id="a_edge1_Node000001_Node000002"><a xlink:title=" ">
<path fill="none" stroke="#63b8ff" d="M68.5,-157.73C68.5,-149.12 68.5,-140.5 68.5,-132.19"/>
<polygon fill="none" stroke="#63b8ff" points="65,-157.82 68.5,-167.82 72,-157.82 65,-157.82"/>
</a>
</g>
</g>
<!-- Node3 -->
<g id="Node000003" class="node">
<title>Node3</title>
<g id="a_Node000003"><a xlink:href="structRtsOptions.html" target="_top" xlink:title=" ">
<path fill="white" stroke="#666666" d="M125,-513C125,-513 12,-513 12,-513 6,-513 0,-507 0,-501 0,-501 0,-378 0,-378 0,-372 6,-366 12,-366 12,-366 125,-366 125,-366 131,-366 137,-372 137,-378 137,-378 137,-501 137,-501 137,-507 131,-513 125,-513"/>
<text text-anchor="start" x="42" y="-496.5" font-family="Helvetica,sans-Serif" font-size="10.00">RtsOptions</text>
<text text-anchor="start" x="12.5" y="-481.5" font-family="Helvetica,sans-Serif" font-size="10.00">+</text>
<text text-anchor="start" x="25.5" y="-481.5" font-family="Helvetica,sans-Serif" font-size="10.00">rts_filename</text>
<text text-anchor="start" x="12.5" y="-466.5" font-family="Helvetica,sans-Serif" font-size="10.00">+</text>
<text text-anchor="start" x="25.5" y="-466.5" font-family="Helvetica,sans-Serif" font-size="10.00">rts_directory</text>
<text text-anchor="start" x="12.5" y="-451.5" font-family="Helvetica,sans-Serif" font-size="10.00">+</text>
<text text-anchor="start" x="25.5" y="-451.5" font-family="Helvetica,sans-Serif" font-size="10.00">rts_lag</text>
<text text-anchor="start" x="12.5" y="-436.5" font-family="Helvetica,sans-Serif" font-size="10.00">+</text>
<text text-anchor="start" x="25.5" y="-436.5" font-family="Helvetica,sans-Serif" font-size="10.00">rts_interval</text>
<text text-anchor="start" x="12.5" y="-421.5" font-family="Helvetica,sans-Serif" font-size="10.00">+</text>
<text text-anchor="start" x="25.5" y="-421.5" font-family="Helvetica,sans-Serif" font-size="10.00">rts_smoothed_suffix</text>
<text text-anchor="start" x="12.5" y="-406.5" font-family="Helvetica,sans-Serif" font-size="10.00">+</text>
<text text-anchor="start" x="25.5" y="-406.5" font-family="Helvetica,sans-Serif" font-size="10.00">queue_rts_outputs</text>
<text text-anchor="start" x="12.5" y="-391.5" font-family="Helvetica,sans-Serif" font-size="10.00">+</text>
<text text-anchor="start" x="25.5" y="-391.5" font-family="Helvetica,sans-Serif" font-size="10.00">rts_inverter</text>
<text text-anchor="start" x="67" y="-376.5" font-family="Helvetica,sans-Serif" font-size="10.00"> </text>
<polygon fill="#666666" stroke="#666666" points="8.5,-491.5 8.5,-491.5 129.5,-491.5 129.5,-491.5 8.5,-491.5"/>
<polygon fill="#666666" stroke="#666666" points="8.5,-386.5 8.5,-386.5 23.5,-386.5 23.5,-386.5 8.5,-386.5"/>
<polygon fill="#666666" stroke="#666666" points="23.5,-386.5 23.5,-386.5 129.5,-386.5 129.5,-386.5 23.5,-386.5"/>
<polygon fill="none" stroke="#666666" points="8,-370 8,-509 129,-509 129,-370 8,-370"/>
</a>
</g>
</g>
<!-- Node3&#45;&gt;Node2 -->
<g id="edge2_Node000002_Node000003" class="edge">
<title>Node3&#45;&gt;Node2</title>
<g id="a_edge2_Node000002_Node000003"><a xlink:title=" ">
<path fill="none" stroke="#63b8ff" d="M68.5,-355.63C68.5,-347.15 68.5,-338.54 68.5,-330.1"/>
<polygon fill="none" stroke="#63b8ff" points="65,-355.89 68.5,-365.89 72,-355.89 65,-355.89"/>
</a>
</g>
</g>
</g>
</svg>
