<?xml version="1.0" encoding="UTF-8" standalone="no"?>
<!DOCTYPE svg PUBLIC "-//W3C//DTD SVG 1.1//EN"
 "http://www.w3.org/Graphics/SVG/1.1/DTD/svg11.dtd">
<!-- Generated by graphviz version 2.43.0 (0)
 -->
<!-- Title: KFMeasEntry Pages: 1 -->
<svg width="799pt" height="1134pt"
 viewBox="0.00 0.00 799.00 1134.00" xmlns="http://www.w3.org/2000/svg" xmlns:xlink="http://www.w3.org/1999/xlink">
<g id="graph0" class="graph" transform="scale(1 1) rotate(0) translate(4 1130)">
<title>KFMeasEntry</title>
<!-- Node1 -->
<g id="Node000001" class="node">
<title>Node1</title>
<g id="a_Node000001"><a xlink:href="structKFMeasEntry.html" target="_top" xlink:title="Object to hold an individual measurement.">
<path fill="white" stroke="#666666" stroke-width="2" d="M432,-192C432,-192 340,-192 340,-192 334,-192 328,-186 328,-180 328,-180 328,-12 328,-12 328,-6 334,0 340,0 340,0 432,0 432,0 438,0 444,-6 444,-12 444,-12 444,-180 444,-180 444,-186 438,-192 432,-192"/>
<text text-anchor="start" x="353.5" y="-176" font-family="Helvetica,sans-Serif" font-size="10.00">KFMeasEntry</text>
<text text-anchor="start" x="340" y="-161" font-family="Helvetica,sans-Serif" font-size="10.00">+</text>
<text text-anchor="start" x="353" y="-161" font-family="Helvetica,sans-Serif" font-size="10.00">valid</text>
<text text-anchor="start" x="340" y="-146" font-family="Helvetica,sans-Serif" font-size="10.00">+</text>
<text text-anchor="start" x="353" y="-146" font-family="Helvetica,sans-Serif" font-size="10.00">value</text>
<text text-anchor="start" x="340" y="-131" font-family="Helvetica,sans-Serif" font-size="10.00">+</text>
<text text-anchor="start" x="353" y="-131" font-family="Helvetica,sans-Serif" font-size="10.00">noise</text>
<text text-anchor="start" x="340" y="-116" font-family="Helvetica,sans-Serif" font-size="10.00">+</text>
<text text-anchor="start" x="353" y="-116" font-family="Helvetica,sans-Serif" font-size="10.00">innov</text>
<text text-anchor="start" x="340" y="-101" font-family="Helvetica,sans-Serif" font-size="10.00">+</text>
<text text-anchor="start" x="353" y="-101" font-family="Helvetica,sans-Serif" font-size="10.00">KFMeasEntry()</text>
<text text-anchor="start" x="340" y="-86" font-family="Helvetica,sans-Serif" font-size="10.00">+</text>
<text text-anchor="start" x="353" y="-86" font-family="Helvetica,sans-Serif" font-size="10.00">KFMeasEntry()</text>
<text text-anchor="start" x="340" y="-71" font-family="Helvetica,sans-Serif" font-size="10.00">+</text>
<text text-anchor="start" x="353" y="-71" font-family="Helvetica,sans-Serif" font-size="10.00">addNoiseEntry()</text>
<text text-anchor="start" x="340" y="-56" font-family="Helvetica,sans-Serif" font-size="10.00">+</text>
<text text-anchor="start" x="353" y="-56" font-family="Helvetica,sans-Serif" font-size="10.00">addDsgnEntry()</text>
<text text-anchor="start" x="340" y="-41" font-family="Helvetica,sans-Serif" font-size="10.00">+</text>
<text text-anchor="start" x="353" y="-41" font-family="Helvetica,sans-Serif" font-size="10.00">setNoise()</text>
<text text-anchor="start" x="340" y="-26" font-family="Helvetica,sans-Serif" font-size="10.00">+</text>
<text text-anchor="start" x="353" y="-26" font-family="Helvetica,sans-Serif" font-size="10.00">setValue()</text>
<text text-anchor="start" x="340" y="-11" font-family="Helvetica,sans-Serif" font-size="10.00">+</text>
<text text-anchor="start" x="353" y="-11" font-family="Helvetica,sans-Serif" font-size="10.00">setInnov()</text>
<polygon fill="#666666" stroke="#666666" points="336,-171 336,-171 436,-171 436,-171 336,-171"/>
<polygon fill="#666666" stroke="#666666" points="336,-111 336,-111 351,-111 351,-111 336,-111"/>
<polygon fill="#666666" stroke="#666666" points="351,-111 351,-111 436,-111 436,-111 351,-111"/>
<polygon fill="none" stroke="#666666" points="336,-4 336,-188 436,-188 436,-4 336,-4"/>
</a>
</g>
</g>
<!-- Node2 -->
<g id="Node000002" class="node">
<title>Node2</title>
<g id="a_Node000002"><a xlink:href="structKFState.html" target="_top" xlink:title="Wrapper to simplify copying with default copy but overriding slightly.">
<path fill="white" stroke="#666666" d="M164,-906C164,-906 26,-906 26,-906 20,-906 14,-900 14,-894 14,-894 14,-306 14,-306 14,-300 20,-294 26,-294 26,-294 164,-294 164,-294 170,-294 176,-300 176,-306 176,-306 176,-894 176,-894 176,-900 170,-906 164,-906"/>
<text text-anchor="start" x="76" y="-890" font-family="Helvetica,sans-Serif" font-size="10.00">KFState</text>
<text text-anchor="start" x="93" y="-875" font-family="Helvetica,sans-Serif" font-size="10.00"> </text>
<text text-anchor="start" x="26" y="-860" font-family="Helvetica,sans-Serif" font-size="10.00">+</text>
<text text-anchor="start" x="39" y="-860" font-family="Helvetica,sans-Serif" font-size="10.00">KFState()</text>
<text text-anchor="start" x="26" y="-845" font-family="Helvetica,sans-Serif" font-size="10.00">+</text>
<text text-anchor="start" x="39" y="-845" font-family="Helvetica,sans-Serif" font-size="10.00">KFState()</text>
<text text-anchor="start" x="26" y="-830" font-family="Helvetica,sans-Serif" font-size="10.00">+</text>
<text text-anchor="start" x="39" y="-830" font-family="Helvetica,sans-Serif" font-size="10.00">operator=()</text>
<text text-anchor="start" x="26" y="-815" font-family="Helvetica,sans-Serif" font-size="10.00">+</text>
<text text-anchor="start" x="39" y="-815" font-family="Helvetica,sans-Serif" font-size="10.00">serialize()</text>
<text text-anchor="start" x="26" y="-800" font-family="Helvetica,sans-Serif" font-size="10.00">+</text>
<text text-anchor="start" x="39" y="-800" font-family="Helvetica,sans-Serif" font-size="10.00">initFilterEpoch()</text>
<text text-anchor="start" x="26" y="-785" font-family="Helvetica,sans-Serif" font-size="10.00">+</text>
<text text-anchor="start" x="39" y="-785" font-family="Helvetica,sans-Serif" font-size="10.00">getKFIndex()</text>
<text text-anchor="start" x="26" y="-770" font-family="Helvetica,sans-Serif" font-size="10.00">+</text>
<text text-anchor="start" x="39" y="-770" font-family="Helvetica,sans-Serif" font-size="10.00">getKFValue()</text>
<text text-anchor="start" x="26" y="-755" font-family="Helvetica,sans-Serif" font-size="10.00">+</text>
<text text-anchor="start" x="39" y="-755" font-family="Helvetica,sans-Serif" font-size="10.00">getPseudoValue()</text>
<text text-anchor="start" x="26" y="-740" font-family="Helvetica,sans-Serif" font-size="10.00">+</text>
<text text-anchor="start" x="39" y="-740" font-family="Helvetica,sans-Serif" font-size="10.00">getKFSigma()</text>
<text text-anchor="start" x="26" y="-725" font-family="Helvetica,sans-Serif" font-size="10.00">+</text>
<text text-anchor="start" x="39" y="-725" font-family="Helvetica,sans-Serif" font-size="10.00">addKFState()</text>
<text text-anchor="start" x="26" y="-710" font-family="Helvetica,sans-Serif" font-size="10.00">+</text>
<text text-anchor="start" x="39" y="-710" font-family="Helvetica,sans-Serif" font-size="10.00">addPseudoState()</text>
<text text-anchor="start" x="26" y="-695" font-family="Helvetica,sans-Serif" font-size="10.00">+</text>
<text text-anchor="start" x="39" y="-695" font-family="Helvetica,sans-Serif" font-size="10.00">setExponentialNoise()</text>
<text text-anchor="start" x="26" y="-680" font-family="Helvetica,sans-Serif" font-size="10.00">+</text>
<text text-anchor="start" x="39" y="-680" font-family="Helvetica,sans-Serif" font-size="10.00">setAccelerator()</text>
<text text-anchor="start" x="26" y="-665" font-family="Helvetica,sans-Serif" font-size="10.00">+</text>
<text text-anchor="start" x="39" y="-665" font-family="Helvetica,sans-Serif" font-size="10.00">setKFTrans()</text>
<text text-anchor="start" x="26" y="-650" font-family="Helvetica,sans-Serif" font-size="10.00">+</text>
<text text-anchor="start" x="39" y="-650" font-family="Helvetica,sans-Serif" font-size="10.00">setKFTransRate()</text>
<text text-anchor="start" x="26" y="-635" font-family="Helvetica,sans-Serif" font-size="10.00">+</text>
<text text-anchor="start" x="39" y="-635" font-family="Helvetica,sans-Serif" font-size="10.00">addNoiseElement()</text>
<text text-anchor="start" x="26" y="-620" font-family="Helvetica,sans-Serif" font-size="10.00">+</text>
<text text-anchor="start" x="39" y="-620" font-family="Helvetica,sans-Serif" font-size="10.00">removeState()</text>
<text text-anchor="start" x="26" y="-605" font-family="Helvetica,sans-Serif" font-size="10.00">+</text>
<text text-anchor="start" x="39" y="-605" font-family="Helvetica,sans-Serif" font-size="10.00">stateTransition()</text>
<text text-anchor="start" x="26" y="-590" font-family="Helvetica,sans-Serif" font-size="10.00">+</text>
<text text-anchor="start" x="39" y="-590" font-family="Helvetica,sans-Serif" font-size="10.00">manualStateTransition()</text>
<text text-anchor="start" x="26" y="-575" font-family="Helvetica,sans-Serif" font-size="10.00">+</text>
<text text-anchor="start" x="39" y="-575" font-family="Helvetica,sans-Serif" font-size="10.00">preFitSigmaCheck()</text>
<text text-anchor="start" x="26" y="-560" font-family="Helvetica,sans-Serif" font-size="10.00">+</text>
<text text-anchor="start" x="39" y="-560" font-family="Helvetica,sans-Serif" font-size="10.00">postFitSigmaChecks()</text>
<text text-anchor="start" x="26" y="-545" font-family="Helvetica,sans-Serif" font-size="10.00">+</text>
<text text-anchor="start" x="39" y="-545" font-family="Helvetica,sans-Serif" font-size="10.00">stateChiSquare()</text>
<text text-anchor="start" x="26" y="-530" font-family="Helvetica,sans-Serif" font-size="10.00">+</text>
<text text-anchor="start" x="39" y="-530" font-family="Helvetica,sans-Serif" font-size="10.00">measChiSquare()</text>
<text text-anchor="start" x="26" y="-515" font-family="Helvetica,sans-Serif" font-size="10.00">+</text>
<text text-anchor="start" x="39" y="-515" font-family="Helvetica,sans-Serif" font-size="10.00">innovChiSquare()</text>
<text text-anchor="start" x="26" y="-500" font-family="Helvetica,sans-Serif" font-size="10.00">+</text>
<text text-anchor="start" x="39" y="-500" font-family="Helvetica,sans-Serif" font-size="10.00">kFilter()</text>
<text text-anchor="start" x="26" y="-485" font-family="Helvetica,sans-Serif" font-size="10.00">+</text>
<text text-anchor="start" x="39" y="-485" font-family="Helvetica,sans-Serif" font-size="10.00">chiQC()</text>
<text text-anchor="start" x="26" y="-470" font-family="Helvetica,sans-Serif" font-size="10.00">+</text>
<text text-anchor="start" x="39" y="-470" font-family="Helvetica,sans-Serif" font-size="10.00">outputStates()</text>
<text text-anchor="start" x="26" y="-455" font-family="Helvetica,sans-Serif" font-size="10.00">+</text>
<text text-anchor="start" x="39" y="-455" font-family="Helvetica,sans-Serif" font-size="10.00">outputConditionNumber()</text>
<text text-anchor="start" x="26" y="-440" font-family="Helvetica,sans-Serif" font-size="10.00">+</text>
<text text-anchor="start" x="39" y="-440" font-family="Helvetica,sans-Serif" font-size="10.00">outputCorrelations()</text>
<text text-anchor="start" x="26" y="-425" font-family="Helvetica,sans-Serif" font-size="10.00">+</text>
<text text-anchor="start" x="39" y="-425" font-family="Helvetica,sans-Serif" font-size="10.00">outputMeasurements()</text>
<text text-anchor="start" x="26" y="-410" font-family="Helvetica,sans-Serif" font-size="10.00">+</text>
<text text-anchor="start" x="39" y="-410" font-family="Helvetica,sans-Serif" font-size="10.00">doStateRejectCallbacks()</text>
<text text-anchor="start" x="26" y="-395" font-family="Helvetica,sans-Serif" font-size="10.00">+</text>
<text text-anchor="start" x="39" y="-395" font-family="Helvetica,sans-Serif" font-size="10.00">doMeasRejectCallbacks()</text>
<text text-anchor="start" x="26" y="-380" font-family="Helvetica,sans-Serif" font-size="10.00">+</text>
<text text-anchor="start" x="39" y="-380" font-family="Helvetica,sans-Serif" font-size="10.00">filterKalman()</text>
<text text-anchor="start" x="26" y="-365" font-family="Helvetica,sans-Serif" font-size="10.00">+</text>
<text text-anchor="start" x="39" y="-365" font-family="Helvetica,sans-Serif" font-size="10.00">leastSquareInitStates()</text>
<text text-anchor="start" x="26" y="-350" font-family="Helvetica,sans-Serif" font-size="10.00">+</text>
<text text-anchor="start" x="39" y="-350" font-family="Helvetica,sans-Serif" font-size="10.00">getSubState()</text>
<text text-anchor="start" x="26" y="-335" font-family="Helvetica,sans-Serif" font-size="10.00">+</text>
<text text-anchor="start" x="39" y="-335" font-family="Helvetica,sans-Serif" font-size="10.00">getSubState()</text>
<text text-anchor="start" x="26" y="-320" font-family="Helvetica,sans-Serif" font-size="10.00">+</text>
<text text-anchor="start" x="39" y="-320" font-family="Helvetica,sans-Serif" font-size="10.00">getSubState()</text>
<text text-anchor="start" x="26" y="-305" font-family="Helvetica,sans-Serif" font-size="10.00">+</text>
<text text-anchor="start" x="39" y="-305" font-family="Helvetica,sans-Serif" font-size="10.00">decomposedStateKeys()</text>
<polygon fill="#666666" stroke="#666666" points="22,-885 22,-885 168,-885 168,-885 22,-885"/>
<polygon fill="#666666" stroke="#666666" points="22,-870 22,-870 168,-870 168,-870 22,-870"/>
<polygon fill="none" stroke="#666666" points="22,-298 22,-902 168,-902 168,-298 22,-298"/>
</a>
</g>
</g>
<!-- Node2&#45;&gt;Node1 -->
<g id="edge1_Node000001_Node000002" class="edge">
<title>Node2&#45;&gt;Node1</title>
<g id="a_edge1_Node000001_Node000002"><a xlink:title=" ">
<path fill="none" stroke="#63b8ff" d="M13.97,-405.21C-1.43,-336.01 -0.29,-262.31 47,-210 73.66,-180.51 187.22,-204.39 225,-192 257.27,-181.42 290.05,-163.61 317.54,-146.26"/>
<polygon fill="none" stroke="#63b8ff" points="317.72,-146.15 320.6,-139.54 327.81,-139.65 324.93,-146.26 317.72,-146.15"/>
</a>
</g>
<text text-anchor="middle" x="80" y="-240.5" font-family="Helvetica,sans-Serif" font-size="10.00" fill="grey"> +kfState_ptr</text>
</g>
<!-- Node3 -->
<g id="Node000003" class="node">
<title>Node3</title>
<g id="a_Node000003"><a xlink:href="structKFState__.html" target="_top" xlink:title="Kalman filter object.">
<path fill="#fff0f0" stroke="red" d="M203.5,-162C203.5,-162 52.5,-162 52.5,-162 46.5,-162 40.5,-156 40.5,-150 40.5,-150 40.5,-42 40.5,-42 40.5,-36 46.5,-30 52.5,-30 52.5,-30 203.5,-30 203.5,-30 209.5,-30 215.5,-36 215.5,-42 215.5,-42 215.5,-150 215.5,-150 215.5,-156 209.5,-162 203.5,-162"/>
<text text-anchor="start" x="107" y="-146" font-family="Helvetica,sans-Serif" font-size="10.00">KFState_</text>
<text text-anchor="start" x="53" y="-131" font-family="Helvetica,sans-Serif" font-size="10.00">+</text>
<text text-anchor="start" x="66" y="-131" font-family="Helvetica,sans-Serif" font-size="10.00">lsqRequired</text>
<text text-anchor="start" x="53" y="-116" font-family="Helvetica,sans-Serif" font-size="10.00">+</text>
<text text-anchor="start" x="66" y="-116" font-family="Helvetica,sans-Serif" font-size="10.00">chiQCPass</text>
<text text-anchor="start" x="53" y="-101" font-family="Helvetica,sans-Serif" font-size="10.00">+</text>
<text text-anchor="start" x="66" y="-101" font-family="Helvetica,sans-Serif" font-size="10.00">chi</text>
<text text-anchor="start" x="53" y="-86" font-family="Helvetica,sans-Serif" font-size="10.00">+</text>
<text text-anchor="start" x="66" y="-86" font-family="Helvetica,sans-Serif" font-size="10.00">dof</text>
<text text-anchor="start" x="53" y="-71" font-family="Helvetica,sans-Serif" font-size="10.00">+</text>
<text text-anchor="start" x="66" y="-71" font-family="Helvetica,sans-Serif" font-size="10.00">output_residuals</text>
<text text-anchor="start" x="53" y="-56" font-family="Helvetica,sans-Serif" font-size="10.00">+</text>
<text text-anchor="start" x="66" y="-56" font-family="Helvetica,sans-Serif" font-size="10.00">outputMongoMeasurements</text>
<text text-anchor="start" x="126.5" y="-41" font-family="Helvetica,sans-Serif" font-size="10.00"> </text>
<polygon fill="red" stroke="red" points="49,-141 49,-141 208,-141 208,-141 49,-141"/>
<polygon fill="red" stroke="red" points="49,-51 49,-51 64,-51 64,-51 49,-51"/>
<polygon fill="red" stroke="red" points="64,-51 64,-51 208,-51 208,-51 64,-51"/>
<polygon fill="none" stroke="red" points="48.5,-34 48.5,-158 207.5,-158 207.5,-34 48.5,-34"/>
</a>
</g>
</g>
<!-- Node2&#45;&gt;Node3 -->
<g id="edge5_Node000003_Node000002" class="edge">
<title>Node2&#45;&gt;Node3</title>
<g id="a_edge5_Node000003_Node000002"><a xlink:title=" ">
<path fill="none" stroke="#63b8ff" d="M115.05,-293.96C117.96,-249.71 120.72,-207.81 122.93,-174.13"/>
<polygon fill="none" stroke="#63b8ff" points="122.93,-174.08 119.34,-167.83 123.72,-162.1 127.32,-168.35 122.93,-174.08"/>
</a>
</g>
<text text-anchor="middle" x="158.5" y="-240.5" font-family="Helvetica,sans-Serif" font-size="10.00" fill="grey"> +alternate_ptr</text>
</g>
<!-- Node3&#45;&gt;Node2 -->
<g id="edge2_Node000002_Node000003" class="edge">
<title>Node3&#45;&gt;Node2</title>
<g id="a_edge2_Node000002_Node000003"><a xlink:title=" ">
<path fill="none" stroke="#63b8ff" d="M113.95,-172.22C112,-184.8 110.25,-197.74 109,-210 106.24,-237.14 104,-265.4 102.19,-293.75"/>
<polygon fill="none" stroke="#63b8ff" points="117.42,-172.66 115.54,-162.23 110.51,-171.56 117.42,-172.66"/>
</a>
</g>
</g>
<!-- Node16 -->
<g id="Node000016" class="node">
<title>Node16</title>
<g id="a_Node000016"><a xlink:title=" ">
<path fill="white" stroke="#666666" d="M412.5,-628.5C412.5,-628.5 295.5,-628.5 295.5,-628.5 289.5,-628.5 283.5,-622.5 283.5,-616.5 283.5,-616.5 283.5,-583.5 283.5,-583.5 283.5,-577.5 289.5,-571.5 295.5,-571.5 295.5,-571.5 412.5,-571.5 412.5,-571.5 418.5,-571.5 424.5,-577.5 424.5,-583.5 424.5,-583.5 424.5,-616.5 424.5,-616.5 424.5,-622.5 418.5,-628.5 412.5,-628.5"/>
<text text-anchor="start" x="297" y="-612" font-family="Helvetica,sans-Serif" font-size="10.00">map&lt; KFKey, double &gt;</text>
<text text-anchor="start" x="352.5" y="-597" font-family="Helvetica,sans-Serif" font-size="10.00"> </text>
<text text-anchor="start" x="352.5" y="-582" font-family="Helvetica,sans-Serif" font-size="10.00"> </text>
<polygon fill="#666666" stroke="#666666" points="292,-607 292,-607 417,-607 417,-607 292,-607"/>
<polygon fill="#666666" stroke="#666666" points="292,-592 292,-592 417,-592 417,-592 292,-592"/>
<polygon fill="none" stroke="#666666" points="291.5,-575.5 291.5,-624.5 416.5,-624.5 416.5,-575.5 291.5,-575.5"/>
</a>
</g>
</g>
<!-- Node16&#45;&gt;Node1 -->
<g id="edge11_Node000001_Node000016" class="edge">
<title>Node16&#45;&gt;Node1</title>
<g id="a_edge11_Node000001_Node000016"><a xlink:title=" ">
<path fill="none" stroke="#63b8ff" d="M355.77,-571.3C360.14,-502.66 371.67,-321.8 379.16,-204.3"/>
<polygon fill="none" stroke="#63b8ff" points="379.18,-204.04 375.57,-197.8 379.94,-192.07 383.55,-198.31 379.18,-204.04"/>
</a>
</g>
<text text-anchor="middle" x="426.5" y="-257" font-family="Helvetica,sans-Serif" font-size="10.00" fill="grey"> +designEntryMap</text>
<text text-anchor="middle" x="426.5" y="-246" font-family="Helvetica,sans-Serif" font-size="10.00" fill="grey">+noiseElementMap</text>
<text text-anchor="middle" x="426.5" y="-235" font-family="Helvetica,sans-Serif" font-size="10.00" fill="grey">+noiseEntryMap</text>
<text text-anchor="middle" x="426.5" y="-224" font-family="Helvetica,sans-Serif" font-size="10.00" fill="grey">+usedValueMap</text>
</g>
<!-- Node16&#45;&gt;Node3 -->
<g id="edge3_Node000003_Node000016" class="edge">
<title>Node16&#45;&gt;Node3</title>
<g id="a_edge3_Node000003_Node000016"><a xlink:title=" ">
<path fill="none" stroke="#63b8ff" d="M349.63,-571.35C340.25,-516.39 315.17,-390.43 269,-294 262.57,-280.57 220.14,-221.76 183.48,-171.85"/>
<polygon fill="none" stroke="#63b8ff" points="183.35,-171.68 176.58,-169.21 176.24,-162.01 183.02,-164.47 183.35,-171.68"/>
</a>
</g>
<text text-anchor="middle" x="313" y="-268" font-family="Helvetica,sans-Serif" font-size="10.00" fill="grey"> +gaussMarkovMuMap</text>
<text text-anchor="middle" x="313" y="-257" font-family="Helvetica,sans-Serif" font-size="10.00" fill="grey">+gaussMarkovTauMap</text>
<text text-anchor="middle" x="313" y="-246" font-family="Helvetica,sans-Serif" font-size="10.00" fill="grey">+initNoiseMap</text>
<text text-anchor="middle" x="313" y="-235" font-family="Helvetica,sans-Serif" font-size="10.00" fill="grey">+outageLimitMap</text>
<text text-anchor="middle" x="313" y="-224" font-family="Helvetica,sans-Serif" font-size="10.00" fill="grey">+procNoiseMap</text>
<text text-anchor="middle" x="313" y="-213" font-family="Helvetica,sans-Serif" font-size="10.00" fill="grey">+sigmaMaxMap</text>
</g>
<!-- Node14 -->
<g id="Node000014" class="node">
<title>Node14</title>
<g id="a_Node000014"><a xlink:title=" ">
<path fill="white" stroke="#666666" d="M552,-1073.5C552,-1073.5 528,-1073.5 528,-1073.5 522,-1073.5 516,-1067.5 516,-1061.5 516,-1061.5 516,-1028.5 516,-1028.5 516,-1022.5 522,-1016.5 528,-1016.5 528,-1016.5 552,-1016.5 552,-1016.5 558,-1016.5 564,-1022.5 564,-1028.5 564,-1028.5 564,-1061.5 564,-1061.5 564,-1067.5 558,-1073.5 552,-1073.5"/>
<text text-anchor="start" x="529" y="-1057" font-family="Helvetica,sans-Serif" font-size="10.00">map</text>
<text text-anchor="start" x="538" y="-1042" font-family="Helvetica,sans-Serif" font-size="10.00"> </text>
<text text-anchor="start" x="538" y="-1027" font-family="Helvetica,sans-Serif" font-size="10.00"> </text>
<polygon fill="#666666" stroke="#666666" points="524,-1052 524,-1052 556,-1052 556,-1052 524,-1052"/>
<polygon fill="#666666" stroke="#666666" points="524,-1037 524,-1037 556,-1037 556,-1037 524,-1037"/>
<polygon fill="none" stroke="#666666" points="524,-1020.5 524,-1069.5 556,-1069.5 556,-1020.5 524,-1020.5"/>
</a>
</g>
</g>
<!-- Node14&#45;&gt;Node16 -->
<g id="edge4_Node000016_Node000014" class="edge">
<title>Node14&#45;&gt;Node16</title>
<g id="a_edge4_Node000016_Node000014"><a xlink:title=" ">
<path fill="none" stroke="orange" d="M507.77,-1020.34C485.52,-1002.35 456.99,-975.69 440,-946 378.97,-839.39 360.86,-690.05 355.82,-628.84"/>
<polygon fill="orange" stroke="orange" points="505.63,-1023.11 515.64,-1026.57 509.97,-1017.62 505.63,-1023.11"/>
</a>
</g>
<text text-anchor="middle" x="488" y="-932.5" font-family="Helvetica,sans-Serif" font-size="10.00" fill="grey"> &lt; KFKey, double &gt;</text>
</g>
<!-- Node61 -->
<g id="Node000061" class="node">
<title>Node61</title>
<g id="a_Node000061"><a xlink:title=" ">
<path fill="white" stroke="#666666" d="M625.5,-634C625.5,-634 454.5,-634 454.5,-634 448.5,-634 442.5,-628 442.5,-622 442.5,-622 442.5,-578 442.5,-578 442.5,-572 448.5,-566 454.5,-566 454.5,-566 625.5,-566 625.5,-566 631.5,-566 637.5,-572 637.5,-578 637.5,-578 637.5,-622 637.5,-622 637.5,-628 631.5,-634 625.5,-634"/>
<text text-anchor="start" x="456" y="-618" font-family="Helvetica,sans-Serif" font-size="10.00">map&lt; E_Component, Components</text>
<text text-anchor="start" x="517.5" y="-607" font-family="Helvetica,sans-Serif" font-size="10.00">Details &gt;</text>
<text text-anchor="start" x="538.5" y="-592" font-family="Helvetica,sans-Serif" font-size="10.00"> </text>
<text text-anchor="start" x="538.5" y="-577" font-family="Helvetica,sans-Serif" font-size="10.00"> </text>
<polygon fill="#666666" stroke="#666666" points="451,-602 451,-602 630,-602 630,-602 451,-602"/>
<polygon fill="#666666" stroke="#666666" points="451,-587 451,-587 630,-587 630,-587 451,-587"/>
<polygon fill="none" stroke="#666666" points="450.5,-570 450.5,-630 629.5,-630 629.5,-570 450.5,-570"/>
</a>
</g>
</g>
<!-- Node14&#45;&gt;Node61 -->
<g id="edge10_Node000061_Node000014" class="edge">
<title>Node14&#45;&gt;Node61</title>
<g id="a_edge10_Node000061_Node000014"><a xlink:title=" ">
<path fill="none" stroke="orange" d="M540,-1006.27C540,-921 540,-714.61 540,-634.02"/>
<polygon fill="orange" stroke="orange" points="536.5,-1006.29 540,-1016.29 543.5,-1006.29 536.5,-1006.29"/>
</a>
</g>
<text text-anchor="start" x="540" y="-938" font-family="Helvetica,sans-Serif" font-size="10.00" fill="grey"> &lt; E_Component, Components</text>
<text text-anchor="middle" x="615" y="-927" font-family="Helvetica,sans-Serif" font-size="10.00" fill="grey">Details &gt;</text>
</g>
<!-- Node62 -->
<g id="Node000062" class="node">
<title>Node62</title>
<g id="a_Node000062"><a xlink:title=" ">
<path fill="white" stroke="#666666" d="M778,-628.5C778,-628.5 668,-628.5 668,-628.5 662,-628.5 656,-622.5 656,-616.5 656,-616.5 656,-583.5 656,-583.5 656,-577.5 662,-571.5 668,-571.5 668,-571.5 778,-571.5 778,-571.5 784,-571.5 790,-577.5 790,-583.5 790,-583.5 790,-616.5 790,-616.5 790,-622.5 784,-628.5 778,-628.5"/>
<text text-anchor="start" x="669" y="-612" font-family="Helvetica,sans-Serif" font-size="10.00">map&lt; string, void * &gt;</text>
<text text-anchor="start" x="721" y="-597" font-family="Helvetica,sans-Serif" font-size="10.00"> </text>
<text text-anchor="start" x="721" y="-582" font-family="Helvetica,sans-Serif" font-size="10.00"> </text>
<polygon fill="#666666" stroke="#666666" points="664,-607 664,-607 782,-607 782,-607 664,-607"/>
<polygon fill="#666666" stroke="#666666" points="664,-592 664,-592 782,-592 782,-592 664,-592"/>
<polygon fill="none" stroke="#666666" points="664,-575.5 664,-624.5 782,-624.5 782,-575.5 664,-575.5"/>
</a>
</g>
</g>
<!-- Node14&#45;&gt;Node62 -->
<g id="edge13_Node000062_Node000014" class="edge">
<title>Node14&#45;&gt;Node62</title>
<g id="a_edge13_Node000062_Node000014"><a xlink:title=" ">
<path fill="none" stroke="orange" d="M573.99,-1032.73C610.48,-1018.67 666.87,-990.86 694,-946 756.21,-843.14 738.92,-690.43 728.38,-628.54"/>
<polygon fill="orange" stroke="orange" points="572.43,-1029.58 564.27,-1036.33 574.86,-1036.14 572.43,-1029.58"/>
</a>
</g>
<text text-anchor="middle" x="746.5" y="-932.5" font-family="Helvetica,sans-Serif" font-size="10.00" fill="grey"> &lt; string, void * &gt;</text>
</g>
<!-- Node26 -->
<g id="Node000026" class="node">
<title>Node26</title>
<g id="a_Node000026"><a xlink:title=" ">
<path fill="white" stroke="#666666" d="M96,-1073.5C96,-1073.5 12,-1073.5 12,-1073.5 6,-1073.5 0,-1067.5 0,-1061.5 0,-1061.5 0,-1028.5 0,-1028.5 0,-1022.5 6,-1016.5 12,-1016.5 12,-1016.5 96,-1016.5 96,-1016.5 102,-1016.5 108,-1022.5 108,-1028.5 108,-1028.5 108,-1061.5 108,-1061.5 108,-1067.5 102,-1073.5 96,-1073.5"/>
<text text-anchor="start" x="13" y="-1057" font-family="Helvetica,sans-Serif" font-size="10.00">recursive_mutex</text>
<text text-anchor="start" x="52" y="-1042" font-family="Helvetica,sans-Serif" font-size="10.00"> </text>
<text text-anchor="start" x="52" y="-1027" font-family="Helvetica,sans-Serif" font-size="10.00"> </text>
<polygon fill="#666666" stroke="#666666" points="8,-1052 8,-1052 100,-1052 100,-1052 8,-1052"/>
<polygon fill="#666666" stroke="#666666" points="8,-1037 8,-1037 100,-1037 100,-1037 8,-1037"/>
<polygon fill="none" stroke="#666666" points="8,-1020.5 8,-1069.5 100,-1069.5 100,-1020.5 8,-1020.5"/>
</a>
</g>
</g>
<!-- Node26&#45;&gt;Node2 -->
<g id="edge6_Node000002_Node000026" class="edge">
<title>Node26&#45;&gt;Node2</title>
<g id="a_edge6_Node000002_Node000026"><a xlink:title=" ">
<path fill="none" stroke="#63b8ff" d="M53.33,-1016.32C52.96,-991.98 52.92,-955.6 55,-924 55.13,-922.06 55.26,-920.11 55.4,-918.15"/>
<polygon fill="none" stroke="#63b8ff" points="55.4,-918.05 51.85,-911.78 56.27,-906.08 59.83,-912.36 55.4,-918.05"/>
</a>
</g>
<text text-anchor="middle" x="94" y="-932.5" font-family="Helvetica,sans-Serif" font-size="10.00" fill="grey"> +kfStateMutex</text>
</g>
<!-- Node27 -->
<g id="Node000027" class="node">
<title>Node27</title>
<g id="a_Node000027"><a xlink:href="structKFKey.html" target="_top" xlink:title="Keys used to interface with Kalman filter objects.">
<path fill="#fff0f0" stroke="red" d="M248.5,-1126C248.5,-1126 155.5,-1126 155.5,-1126 149.5,-1126 143.5,-1120 143.5,-1114 143.5,-1114 143.5,-976 143.5,-976 143.5,-970 149.5,-964 155.5,-964 155.5,-964 248.5,-964 248.5,-964 254.5,-964 260.5,-970 260.5,-976 260.5,-976 260.5,-1114 260.5,-1114 260.5,-1120 254.5,-1126 248.5,-1126"/>
<text text-anchor="start" x="187" y="-1110" font-family="Helvetica,sans-Serif" font-size="10.00">KFKey</text>
<text text-anchor="start" x="156" y="-1095" font-family="Helvetica,sans-Serif" font-size="10.00">+</text>
<text text-anchor="start" x="169" y="-1095" font-family="Helvetica,sans-Serif" font-size="10.00">type</text>
<text text-anchor="start" x="156" y="-1080" font-family="Helvetica,sans-Serif" font-size="10.00">+</text>
<text text-anchor="start" x="169" y="-1080" font-family="Helvetica,sans-Serif" font-size="10.00">num</text>
<text text-anchor="start" x="156" y="-1065" font-family="Helvetica,sans-Serif" font-size="10.00">+</text>
<text text-anchor="start" x="169" y="-1065" font-family="Helvetica,sans-Serif" font-size="10.00">operator!=()</text>
<text text-anchor="start" x="156" y="-1050" font-family="Helvetica,sans-Serif" font-size="10.00">+</text>
<text text-anchor="start" x="169" y="-1050" font-family="Helvetica,sans-Serif" font-size="10.00">operator==()</text>
<text text-anchor="start" x="156" y="-1035" font-family="Helvetica,sans-Serif" font-size="10.00">+</text>
<text text-anchor="start" x="169" y="-1035" font-family="Helvetica,sans-Serif" font-size="10.00">operator&lt;()</text>
<text text-anchor="start" x="156" y="-1020" font-family="Helvetica,sans-Serif" font-size="10.00">+</text>
<text text-anchor="start" x="169" y="-1020" font-family="Helvetica,sans-Serif" font-size="10.00">operator string()</text>
<text text-anchor="start" x="156" y="-1005" font-family="Helvetica,sans-Serif" font-size="10.00">+</text>
<text text-anchor="start" x="169" y="-1005" font-family="Helvetica,sans-Serif" font-size="10.00">commaString()</text>
<text text-anchor="start" x="156" y="-990" font-family="Helvetica,sans-Serif" font-size="10.00">+</text>
<text text-anchor="start" x="169" y="-990" font-family="Helvetica,sans-Serif" font-size="10.00">serialize()</text>
<text text-anchor="start" x="156" y="-975" font-family="Helvetica,sans-Serif" font-size="10.00">+</text>
<text text-anchor="start" x="169" y="-975" font-family="Helvetica,sans-Serif" font-size="10.00">emptyString()</text>
<polygon fill="red" stroke="red" points="152,-1105 152,-1105 253,-1105 253,-1105 152,-1105"/>
<polygon fill="red" stroke="red" points="152,-1075 152,-1075 167,-1075 167,-1075 152,-1075"/>
<polygon fill="red" stroke="red" points="167,-1075 167,-1075 253,-1075 253,-1075 167,-1075"/>
<polygon fill="none" stroke="red" points="151.5,-968 151.5,-1122 252.5,-1122 252.5,-968 151.5,-968"/>
</a>
</g>
</g>
<!-- Node27&#45;&gt;Node1 -->
<g id="edge8_Node000001_Node000027" class="edge">
<title>Node27&#45;&gt;Node1</title>
<g id="a_edge8_Node000001_Node000027"><a xlink:title=" ">
<path fill="none" stroke="#63b8ff" d="M203.95,-963.99C209.08,-758.38 223.16,-226.47 232,-210 250.74,-175.09 285.54,-148.15 317.32,-129.34"/>
<polygon fill="none" stroke="#63b8ff" points="317.53,-129.22 320.76,-122.78 327.96,-123.28 324.73,-129.73 317.53,-129.22"/>
</a>
</g>
<text text-anchor="middle" x="248.5" y="-597.5" font-family="Helvetica,sans-Serif" font-size="10.00" fill="grey"> +obsKey</text>
</g>
<!-- Node27&#45;&gt;Node2 -->
<g id="edge7_Node000002_Node000027" class="edge">
<title>Node27&#45;&gt;Node2</title>
<g id="a_edge7_Node000002_Node000027"><a xlink:title=" ">
<path fill="none" stroke="#63b8ff" d="M162.36,-963.92C160.03,-957.93 157.87,-951.91 156,-946 153.09,-936.83 150.31,-927.47 147.65,-917.99"/>
<polygon fill="none" stroke="#63b8ff" points="147.64,-917.94 142.2,-913.21 144.47,-906.37 149.91,-911.1 147.64,-917.94"/>
</a>
</g>
<text text-anchor="middle" x="180" y="-932.5" font-family="Helvetica,sans-Serif" font-size="10.00" fill="grey"> +oneKey</text>
</g>
<!-- Node61&#45;&gt;Node1 -->
<g id="edge9_Node000001_Node000061" class="edge">
<title>Node61&#45;&gt;Node1</title>
<g id="a_edge9_Node000001_Node000061"><a xlink:title=" ">
<path fill="none" stroke="#63b8ff" d="M540.56,-565.85C540.54,-496.57 534.1,-332.69 479,-210 471.98,-194.37 462.21,-179.13 451.61,-165.17"/>
<polygon fill="none" stroke="#63b8ff" points="451.6,-165.14 444.74,-162.9 444.18,-155.71 451.03,-157.95 451.6,-165.14"/>
</a>
</g>
<text text-anchor="middle" x="547.5" y="-240.5" font-family="Helvetica,sans-Serif" font-size="10.00" fill="grey"> +componentsMap</text>
</g>
<!-- Node62&#45;&gt;Node1 -->
<g id="edge12_Node000001_Node000062" class="edge">
<title>Node62&#45;&gt;Node1</title>
<g id="a_edge12_Node000001_Node000062"><a xlink:title=" ">
<path fill="none" stroke="#63b8ff" d="M722.59,-571.36C719.99,-500.54 703.04,-311.08 598,-210 557.22,-170.76 500.11,-141.37 455.44,-122.41"/>
<polygon fill="none" stroke="#63b8ff" points="455.16,-122.3 448.09,-123.69 444.08,-117.7 451.15,-116.3 455.16,-122.3"/>
</a>
</g>
<text text-anchor="middle" x="686" y="-240.5" font-family="Helvetica,sans-Serif" font-size="10.00" fill="grey"> +metaDataMap</text>
</g>
</g>
</svg>
