<?xml version="1.0" encoding="UTF-8" standalone="no"?>
<!DOCTYPE svg PUBLIC "-//W3C//DTD SVG 1.1//EN"
 "http://www.w3.org/Graphics/SVG/1.1/DTD/svg11.dtd">
<!-- Generated by graphviz version 2.43.0 (0)
 -->
<!-- Title: ReceiverOptions Pages: 1 -->
<svg width="426pt" height="1851pt"
 viewBox="0.00 0.00 425.50 1851.00" xmlns="http://www.w3.org/2000/svg" xmlns:xlink="http://www.w3.org/1999/xlink">
<g id="graph0" class="graph" transform="scale(1 1) rotate(0) translate(4 1847)">
<title>ReceiverOptions</title>
<!-- Node1 -->
<g id="Node000001" class="node">
<title>Node1</title>
<g id="a_Node000001"><a xlink:href="structReceiverOptions.html" target="_top" xlink:title="Options to be applied to kalman filter states for individual receivers.">
<path fill="white" stroke="#666666" stroke-width="2" d="M344,-694C344,-694 204,-694 204,-694 198,-694 192,-688 192,-682 192,-682 192,-12 192,-12 192,-6 198,0 204,0 204,0 344,0 344,0 350,0 356,-6 356,-12 356,-12 356,-682 356,-682 356,-688 350,-694 344,-694"/>
<text text-anchor="start" x="233.5" y="-678" font-family="Helvetica,sans-Serif" font-size="10.00">ReceiverOptions</text>
<text text-anchor="start" x="204" y="-663" font-family="Helvetica,sans-Serif" font-size="10.00">+</text>
<text text-anchor="start" x="217" y="-663" font-family="Helvetica,sans-Serif" font-size="10.00">_initialised</text>
<text text-anchor="start" x="204" y="-648" font-family="Helvetica,sans-Serif" font-size="10.00">+</text>
<text text-anchor="start" x="217" y="-648" font-family="Helvetica,sans-Serif" font-size="10.00">id</text>
<text text-anchor="start" x="204" y="-633" font-family="Helvetica,sans-Serif" font-size="10.00">+</text>
<text text-anchor="start" x="217" y="-633" font-family="Helvetica,sans-Serif" font-size="10.00">rinex23Conv</text>
<text text-anchor="start" x="204" y="-618" font-family="Helvetica,sans-Serif" font-size="10.00">+</text>
<text text-anchor="start" x="217" y="-618" font-family="Helvetica,sans-Serif" font-size="10.00">kill</text>
<text text-anchor="start" x="204" y="-603" font-family="Helvetica,sans-Serif" font-size="10.00">+</text>
<text text-anchor="start" x="217" y="-603" font-family="Helvetica,sans-Serif" font-size="10.00">zero_dcb_codes</text>
<text text-anchor="start" x="204" y="-588" font-family="Helvetica,sans-Serif" font-size="10.00">+</text>
<text text-anchor="start" x="217" y="-588" font-family="Helvetica,sans-Serif" font-size="10.00">apriori_pos</text>
<text text-anchor="start" x="204" y="-573" font-family="Helvetica,sans-Serif" font-size="10.00">+</text>
<text text-anchor="start" x="217" y="-573" font-family="Helvetica,sans-Serif" font-size="10.00">antenna_type</text>
<text text-anchor="start" x="204" y="-558" font-family="Helvetica,sans-Serif" font-size="10.00">+</text>
<text text-anchor="start" x="217" y="-558" font-family="Helvetica,sans-Serif" font-size="10.00">receiver_type</text>
<text text-anchor="start" x="204" y="-543" font-family="Helvetica,sans-Serif" font-size="10.00">+</text>
<text text-anchor="start" x="217" y="-543" font-family="Helvetica,sans-Serif" font-size="10.00">sat_id</text>
<text text-anchor="start" x="204" y="-528" font-family="Helvetica,sans-Serif" font-size="10.00">+</text>
<text text-anchor="start" x="217" y="-528" font-family="Helvetica,sans-Serif" font-size="10.00">elevation_mask_deg</text>
<text text-anchor="start" x="204" y="-513" font-family="Helvetica,sans-Serif" font-size="10.00">+</text>
<text text-anchor="start" x="217" y="-513" font-family="Helvetica,sans-Serif" font-size="10.00">receiver_reference</text>
<text text-anchor="start" x="217" y="-502" font-family="Helvetica,sans-Serif" font-size="10.00">_system</text>
<text text-anchor="start" x="204" y="-487" font-family="Helvetica,sans-Serif" font-size="10.00">+</text>
<text text-anchor="start" x="217" y="-487" font-family="Helvetica,sans-Serif" font-size="10.00">enable</text>
<text text-anchor="start" x="204" y="-472" font-family="Helvetica,sans-Serif" font-size="10.00">+</text>
<text text-anchor="start" x="217" y="-472" font-family="Helvetica,sans-Serif" font-size="10.00">eccentricity</text>
<text text-anchor="start" x="204" y="-457" font-family="Helvetica,sans-Serif" font-size="10.00">+</text>
<text text-anchor="start" x="217" y="-457" font-family="Helvetica,sans-Serif" font-size="10.00">eccentricityModel</text>
<text text-anchor="start" x="204" y="-442" font-family="Helvetica,sans-Serif" font-size="10.00">+</text>
<text text-anchor="start" x="217" y="-442" font-family="Helvetica,sans-Serif" font-size="10.00">models</text>
<text text-anchor="start" x="204" y="-427" font-family="Helvetica,sans-Serif" font-size="10.00">+</text>
<text text-anchor="start" x="217" y="-427" font-family="Helvetica,sans-Serif" font-size="10.00">tropModel</text>
<text text-anchor="start" x="204" y="-412" font-family="Helvetica,sans-Serif" font-size="10.00">+</text>
<text text-anchor="start" x="217" y="-412" font-family="Helvetica,sans-Serif" font-size="10.00">solid</text>
<text text-anchor="start" x="204" y="-397" font-family="Helvetica,sans-Serif" font-size="10.00">+</text>
<text text-anchor="start" x="217" y="-397" font-family="Helvetica,sans-Serif" font-size="10.00">otl</text>
<text text-anchor="start" x="204" y="-382" font-family="Helvetica,sans-Serif" font-size="10.00">+</text>
<text text-anchor="start" x="217" y="-382" font-family="Helvetica,sans-Serif" font-size="10.00">atl</text>
<text text-anchor="start" x="204" y="-367" font-family="Helvetica,sans-Serif" font-size="10.00">+</text>
<text text-anchor="start" x="217" y="-367" font-family="Helvetica,sans-Serif" font-size="10.00">spole</text>
<text text-anchor="start" x="204" y="-352" font-family="Helvetica,sans-Serif" font-size="10.00">+</text>
<text text-anchor="start" x="217" y="-352" font-family="Helvetica,sans-Serif" font-size="10.00">opole</text>
<text text-anchor="start" x="204" y="-337" font-family="Helvetica,sans-Serif" font-size="10.00">+</text>
<text text-anchor="start" x="217" y="-337" font-family="Helvetica,sans-Serif" font-size="10.00">tideModels</text>
<text text-anchor="start" x="204" y="-322" font-family="Helvetica,sans-Serif" font-size="10.00">+</text>
<text text-anchor="start" x="217" y="-322" font-family="Helvetica,sans-Serif" font-size="10.00">range</text>
<text text-anchor="start" x="204" y="-307" font-family="Helvetica,sans-Serif" font-size="10.00">+</text>
<text text-anchor="start" x="217" y="-307" font-family="Helvetica,sans-Serif" font-size="10.00">relativity</text>
<text text-anchor="start" x="204" y="-292" font-family="Helvetica,sans-Serif" font-size="10.00">+</text>
<text text-anchor="start" x="217" y="-292" font-family="Helvetica,sans-Serif" font-size="10.00">relativity2</text>
<text text-anchor="start" x="204" y="-277" font-family="Helvetica,sans-Serif" font-size="10.00">+</text>
<text text-anchor="start" x="217" y="-277" font-family="Helvetica,sans-Serif" font-size="10.00">sagnac</text>
<text text-anchor="start" x="204" y="-262" font-family="Helvetica,sans-Serif" font-size="10.00">+</text>
<text text-anchor="start" x="217" y="-262" font-family="Helvetica,sans-Serif" font-size="10.00">integer_ambiguity</text>
<text text-anchor="start" x="204" y="-247" font-family="Helvetica,sans-Serif" font-size="10.00">+</text>
<text text-anchor="start" x="217" y="-247" font-family="Helvetica,sans-Serif" font-size="10.00">ionospheric_component</text>
<text text-anchor="start" x="204" y="-232" font-family="Helvetica,sans-Serif" font-size="10.00">+</text>
<text text-anchor="start" x="217" y="-232" font-family="Helvetica,sans-Serif" font-size="10.00">ionospheric_component2</text>
<text text-anchor="start" x="204" y="-217" font-family="Helvetica,sans-Serif" font-size="10.00">+</text>
<text text-anchor="start" x="217" y="-217" font-family="Helvetica,sans-Serif" font-size="10.00">ionospheric_component3</text>
<text text-anchor="start" x="204" y="-202" font-family="Helvetica,sans-Serif" font-size="10.00">+</text>
<text text-anchor="start" x="217" y="-202" font-family="Helvetica,sans-Serif" font-size="10.00">ionospheric_model</text>
<text text-anchor="start" x="204" y="-187" font-family="Helvetica,sans-Serif" font-size="10.00">+</text>
<text text-anchor="start" x="217" y="-187" font-family="Helvetica,sans-Serif" font-size="10.00">tropospheric_map</text>
<text text-anchor="start" x="204" y="-172" font-family="Helvetica,sans-Serif" font-size="10.00">+</text>
<text text-anchor="start" x="217" y="-172" font-family="Helvetica,sans-Serif" font-size="10.00">eop</text>
<text text-anchor="start" x="204" y="-157" font-family="Helvetica,sans-Serif" font-size="10.00">+</text>
<text text-anchor="start" x="217" y="-157" font-family="Helvetica,sans-Serif" font-size="10.00">mapping_function</text>
<text text-anchor="start" x="204" y="-142" font-family="Helvetica,sans-Serif" font-size="10.00">+</text>
<text text-anchor="start" x="217" y="-142" font-family="Helvetica,sans-Serif" font-size="10.00">geomagnetic_field_height</text>
<text text-anchor="start" x="204" y="-127" font-family="Helvetica,sans-Serif" font-size="10.00">+</text>
<text text-anchor="start" x="217" y="-127" font-family="Helvetica,sans-Serif" font-size="10.00">mapping_function_layer</text>
<text text-anchor="start" x="217" y="-116" font-family="Helvetica,sans-Serif" font-size="10.00">_height</text>
<text text-anchor="start" x="204" y="-101" font-family="Helvetica,sans-Serif" font-size="10.00">+</text>
<text text-anchor="start" x="217" y="-101" font-family="Helvetica,sans-Serif" font-size="10.00">error_model</text>
<text text-anchor="start" x="204" y="-86" font-family="Helvetica,sans-Serif" font-size="10.00">+</text>
<text text-anchor="start" x="217" y="-86" font-family="Helvetica,sans-Serif" font-size="10.00">code_sigma</text>
<text text-anchor="start" x="204" y="-71" font-family="Helvetica,sans-Serif" font-size="10.00">+</text>
<text text-anchor="start" x="217" y="-71" font-family="Helvetica,sans-Serif" font-size="10.00">phase_sigma</text>
<text text-anchor="start" x="204" y="-56" font-family="Helvetica,sans-Serif" font-size="10.00">+</text>
<text text-anchor="start" x="217" y="-56" font-family="Helvetica,sans-Serif" font-size="10.00">inheritors</text>
<text text-anchor="start" x="204" y="-41" font-family="Helvetica,sans-Serif" font-size="10.00">+</text>
<text text-anchor="start" x="217" y="-41" font-family="Helvetica,sans-Serif" font-size="10.00">inheritedFrom</text>
<text text-anchor="start" x="204" y="-26" font-family="Helvetica,sans-Serif" font-size="10.00">+</text>
<text text-anchor="start" x="217" y="-26" font-family="Helvetica,sans-Serif" font-size="10.00">initialisedMap</text>
<text text-anchor="start" x="204" y="-11" font-family="Helvetica,sans-Serif" font-size="10.00">+</text>
<text text-anchor="start" x="217" y="-11" font-family="Helvetica,sans-Serif" font-size="10.00">operator+=()</text>
<polygon fill="#666666" stroke="#666666" points="200,-673 200,-673 348,-673 348,-673 200,-673"/>
<polygon fill="#666666" stroke="#666666" points="200,-21 200,-21 215,-21 215,-21 200,-21"/>
<polygon fill="#666666" stroke="#666666" points="215,-21 215,-21 348,-21 348,-21 215,-21"/>
<polygon fill="none" stroke="#666666" points="200,-4 200,-690 348,-690 348,-4 200,-4"/>
</a>
</g>
</g>
<!-- Node2 -->
<g id="Node000002" class="node">
<title>Node2</title>
<g id="a_Node000002"><a xlink:href="structReceiverKalmans.html" target="_top" xlink:title=" ">
<path fill="white" stroke="#666666" d="M246,-1043.5C246,-1043.5 158,-1043.5 158,-1043.5 152,-1043.5 146,-1037.5 146,-1031.5 146,-1031.5 146,-863.5 146,-863.5 146,-857.5 152,-851.5 158,-851.5 158,-851.5 246,-851.5 246,-851.5 252,-851.5 258,-857.5 258,-863.5 258,-863.5 258,-1031.5 258,-1031.5 258,-1037.5 252,-1043.5 246,-1043.5"/>
<text text-anchor="start" x="159" y="-1027.5" font-family="Helvetica,sans-Serif" font-size="10.00">ReceiverKalmans</text>
<text text-anchor="start" x="159" y="-1012.5" font-family="Helvetica,sans-Serif" font-size="10.00">+</text>
<text text-anchor="start" x="173" y="-1012.5" font-family="Helvetica,sans-Serif" font-size="10.00">ambiguity</text>
<text text-anchor="start" x="159" y="-997.5" font-family="Helvetica,sans-Serif" font-size="10.00">+</text>
<text text-anchor="start" x="173" y="-997.5" font-family="Helvetica,sans-Serif" font-size="10.00">strain_rate</text>
<text text-anchor="start" x="159" y="-982.5" font-family="Helvetica,sans-Serif" font-size="10.00">+</text>
<text text-anchor="start" x="173" y="-982.5" font-family="Helvetica,sans-Serif" font-size="10.00">slr_range_bias</text>
<text text-anchor="start" x="159" y="-967.5" font-family="Helvetica,sans-Serif" font-size="10.00">+</text>
<text text-anchor="start" x="173" y="-967.5" font-family="Helvetica,sans-Serif" font-size="10.00">slr_time_bias</text>
<text text-anchor="start" x="159" y="-952.5" font-family="Helvetica,sans-Serif" font-size="10.00">+</text>
<text text-anchor="start" x="173" y="-952.5" font-family="Helvetica,sans-Serif" font-size="10.00">pcv</text>
<text text-anchor="start" x="159" y="-937.5" font-family="Helvetica,sans-Serif" font-size="10.00">+</text>
<text text-anchor="start" x="173" y="-937.5" font-family="Helvetica,sans-Serif" font-size="10.00">ion_stec</text>
<text text-anchor="start" x="159" y="-922.5" font-family="Helvetica,sans-Serif" font-size="10.00">+</text>
<text text-anchor="start" x="173" y="-922.5" font-family="Helvetica,sans-Serif" font-size="10.00">ion_model</text>
<text text-anchor="start" x="159" y="-907.5" font-family="Helvetica,sans-Serif" font-size="10.00">+</text>
<text text-anchor="start" x="173" y="-907.5" font-family="Helvetica,sans-Serif" font-size="10.00">trop</text>
<text text-anchor="start" x="159" y="-892.5" font-family="Helvetica,sans-Serif" font-size="10.00">+</text>
<text text-anchor="start" x="173" y="-892.5" font-family="Helvetica,sans-Serif" font-size="10.00">trop_grads</text>
<text text-anchor="start" x="159" y="-877.5" font-family="Helvetica,sans-Serif" font-size="10.00">+</text>
<text text-anchor="start" x="173" y="-877.5" font-family="Helvetica,sans-Serif" font-size="10.00">trop_maps</text>
<text text-anchor="start" x="159" y="-862.5" font-family="Helvetica,sans-Serif" font-size="10.00">+</text>
<text text-anchor="start" x="173" y="-862.5" font-family="Helvetica,sans-Serif" font-size="10.00">operator+=()</text>
<polygon fill="#666666" stroke="#666666" points="154,-1022.5 154,-1022.5 250,-1022.5 250,-1022.5 154,-1022.5"/>
<polygon fill="#666666" stroke="#666666" points="154,-872.5 154,-872.5 171,-872.5 171,-872.5 154,-872.5"/>
<polygon fill="#666666" stroke="#666666" points="171,-872.5 171,-872.5 250,-872.5 250,-872.5 171,-872.5"/>
<polygon fill="none" stroke="#666666" points="154,-855.5 154,-1039.5 250,-1039.5 250,-855.5 154,-855.5"/>
</a>
</g>
</g>
<!-- Node2&#45;&gt;Node1 -->
<g id="edge1_Node000001_Node000002" class="edge">
<title>Node2&#45;&gt;Node1</title>
<g id="a_edge1_Node000001_Node000002"><a xlink:title=" ">
<path fill="none" stroke="#63b8ff" d="M214.65,-841.33C219.75,-798.98 225.94,-747.52 232.38,-694.01"/>
<polygon fill="none" stroke="#63b8ff" points="211.17,-840.99 213.45,-851.34 218.12,-841.82 211.17,-840.99"/>
</a>
</g>
</g>
<!-- Node3 -->
<g id="Node000003" class="node">
<title>Node3</title>
<g id="a_Node000003"><a xlink:href="structCommonKalmans.html" target="_top" xlink:title=" ">
<path fill="white" stroke="#666666" d="M102,-1625.5C102,-1625.5 12,-1625.5 12,-1625.5 6,-1625.5 0,-1619.5 0,-1613.5 0,-1613.5 0,-1430.5 0,-1430.5 0,-1424.5 6,-1418.5 12,-1418.5 12,-1418.5 102,-1418.5 102,-1418.5 108,-1418.5 114,-1424.5 114,-1430.5 114,-1430.5 114,-1613.5 114,-1613.5 114,-1619.5 108,-1625.5 102,-1625.5"/>
<text text-anchor="start" x="13" y="-1609" font-family="Helvetica,sans-Serif" font-size="10.00">CommonKalmans</text>
<text text-anchor="start" x="14.5" y="-1594" font-family="Helvetica,sans-Serif" font-size="10.00">+</text>
<text text-anchor="start" x="30" y="-1594" font-family="Helvetica,sans-Serif" font-size="10.00">pos</text>
<text text-anchor="start" x="14.5" y="-1579" font-family="Helvetica,sans-Serif" font-size="10.00">+</text>
<text text-anchor="start" x="30" y="-1579" font-family="Helvetica,sans-Serif" font-size="10.00">pos_rate</text>
<text text-anchor="start" x="14.5" y="-1564" font-family="Helvetica,sans-Serif" font-size="10.00">+</text>
<text text-anchor="start" x="30" y="-1564" font-family="Helvetica,sans-Serif" font-size="10.00">orbit</text>
<text text-anchor="start" x="14.5" y="-1549" font-family="Helvetica,sans-Serif" font-size="10.00">+</text>
<text text-anchor="start" x="30" y="-1549" font-family="Helvetica,sans-Serif" font-size="10.00">clk</text>
<text text-anchor="start" x="14.5" y="-1534" font-family="Helvetica,sans-Serif" font-size="10.00">+</text>
<text text-anchor="start" x="30" y="-1534" font-family="Helvetica,sans-Serif" font-size="10.00">clk_rate</text>
<text text-anchor="start" x="14.5" y="-1519" font-family="Helvetica,sans-Serif" font-size="10.00">+</text>
<text text-anchor="start" x="30" y="-1519" font-family="Helvetica,sans-Serif" font-size="10.00">code_bias</text>
<text text-anchor="start" x="14.5" y="-1504" font-family="Helvetica,sans-Serif" font-size="10.00">+</text>
<text text-anchor="start" x="30" y="-1504" font-family="Helvetica,sans-Serif" font-size="10.00">phase_bias</text>
<text text-anchor="start" x="14.5" y="-1489" font-family="Helvetica,sans-Serif" font-size="10.00">+</text>
<text text-anchor="start" x="30" y="-1489" font-family="Helvetica,sans-Serif" font-size="10.00">pco</text>
<text text-anchor="start" x="14.5" y="-1474" font-family="Helvetica,sans-Serif" font-size="10.00">+</text>
<text text-anchor="start" x="30" y="-1474" font-family="Helvetica,sans-Serif" font-size="10.00">ant_delta</text>
<text text-anchor="start" x="14.5" y="-1459" font-family="Helvetica,sans-Serif" font-size="10.00">+</text>
<text text-anchor="start" x="30" y="-1459" font-family="Helvetica,sans-Serif" font-size="10.00">cr</text>
<text text-anchor="start" x="14.5" y="-1444" font-family="Helvetica,sans-Serif" font-size="10.00">+</text>
<text text-anchor="start" x="30" y="-1444" font-family="Helvetica,sans-Serif" font-size="10.00">cd</text>
<text text-anchor="start" x="14.5" y="-1429" font-family="Helvetica,sans-Serif" font-size="10.00">+</text>
<text text-anchor="start" x="30" y="-1429" font-family="Helvetica,sans-Serif" font-size="10.00">operator+=()</text>
<polygon fill="#666666" stroke="#666666" points="8,-1604 8,-1604 106,-1604 106,-1604 8,-1604"/>
<polygon fill="#666666" stroke="#666666" points="8,-1439 8,-1439 28,-1439 28,-1439 8,-1439"/>
<polygon fill="#666666" stroke="#666666" points="28,-1439 28,-1439 106,-1439 106,-1439 28,-1439"/>
<polygon fill="none" stroke="#666666" points="8,-1422.5 8,-1621.5 106,-1621.5 106,-1422.5 8,-1422.5"/>
</a>
</g>
</g>
<!-- Node3&#45;&gt;Node2 -->
<g id="edge2_Node000002_Node000003" class="edge">
<title>Node3&#45;&gt;Node2</title>
<g id="a_edge2_Node000002_Node000003"><a xlink:title=" ">
<path fill="none" stroke="#63b8ff" d="M77.39,-1408.3C89.25,-1346.71 105.33,-1269.27 123,-1201 136.58,-1148.53 154.43,-1090.78 169.72,-1043.77"/>
<polygon fill="none" stroke="#63b8ff" points="73.89,-1407.96 75.45,-1418.44 80.77,-1409.28 73.89,-1407.96"/>
</a>
</g>
</g>
<!-- Node4 -->
<g id="Node000004" class="node">
<title>Node4</title>
<g id="a_Node000004"><a xlink:href="structInertialKalmans.html" target="_top" xlink:title=" ">
<path fill="white" stroke="#666666" d="M259.5,-1588C259.5,-1588 144.5,-1588 144.5,-1588 138.5,-1588 132.5,-1582 132.5,-1576 132.5,-1576 132.5,-1468 132.5,-1468 132.5,-1462 138.5,-1456 144.5,-1456 144.5,-1456 259.5,-1456 259.5,-1456 265.5,-1456 271.5,-1462 271.5,-1468 271.5,-1468 271.5,-1576 271.5,-1576 271.5,-1582 265.5,-1588 259.5,-1588"/>
<text text-anchor="start" x="163.5" y="-1572" font-family="Helvetica,sans-Serif" font-size="10.00">InertialKalmans</text>
<text text-anchor="start" x="145" y="-1557" font-family="Helvetica,sans-Serif" font-size="10.00">+</text>
<text text-anchor="start" x="158" y="-1557" font-family="Helvetica,sans-Serif" font-size="10.00">accelerometer_scale</text>
<text text-anchor="start" x="145" y="-1542" font-family="Helvetica,sans-Serif" font-size="10.00">+</text>
<text text-anchor="start" x="158" y="-1542" font-family="Helvetica,sans-Serif" font-size="10.00">accelerometer_bias</text>
<text text-anchor="start" x="145" y="-1527" font-family="Helvetica,sans-Serif" font-size="10.00">+</text>
<text text-anchor="start" x="158" y="-1527" font-family="Helvetica,sans-Serif" font-size="10.00">orientation</text>
<text text-anchor="start" x="145" y="-1512" font-family="Helvetica,sans-Serif" font-size="10.00">+</text>
<text text-anchor="start" x="158" y="-1512" font-family="Helvetica,sans-Serif" font-size="10.00">imu_offset</text>
<text text-anchor="start" x="145" y="-1497" font-family="Helvetica,sans-Serif" font-size="10.00">+</text>
<text text-anchor="start" x="158" y="-1497" font-family="Helvetica,sans-Serif" font-size="10.00">gyro_scale</text>
<text text-anchor="start" x="145" y="-1482" font-family="Helvetica,sans-Serif" font-size="10.00">+</text>
<text text-anchor="start" x="158" y="-1482" font-family="Helvetica,sans-Serif" font-size="10.00">gyro_bias</text>
<text text-anchor="start" x="145" y="-1467" font-family="Helvetica,sans-Serif" font-size="10.00">+</text>
<text text-anchor="start" x="158" y="-1467" font-family="Helvetica,sans-Serif" font-size="10.00">operator+=()</text>
<polygon fill="#666666" stroke="#666666" points="141,-1567 141,-1567 264,-1567 264,-1567 141,-1567"/>
<polygon fill="#666666" stroke="#666666" points="141,-1477 141,-1477 156,-1477 156,-1477 141,-1477"/>
<polygon fill="#666666" stroke="#666666" points="156,-1477 156,-1477 264,-1477 264,-1477 156,-1477"/>
<polygon fill="none" stroke="#666666" points="140.5,-1460 140.5,-1584 263.5,-1584 263.5,-1460 140.5,-1460"/>
</a>
</g>
</g>
<!-- Node4&#45;&gt;Node2 -->
<g id="edge3_Node000002_Node000004" class="edge">
<title>Node4&#45;&gt;Node2</title>
<g id="a_edge3_Node000002_Node000004"><a xlink:title=" ">
<path fill="none" stroke="#63b8ff" d="M202,-1445.84C202,-1342.53 202,-1156.64 202,-1043.72"/>
<polygon fill="none" stroke="#63b8ff" points="198.5,-1445.88 202,-1455.88 205.5,-1445.88 198.5,-1445.88"/>
</a>
</g>
</g>
<!-- Node5 -->
<g id="Node000005" class="node">
<title>Node5</title>
<g id="a_Node000005"><a xlink:href="structEmpKalmans.html" target="_top" xlink:title=" ">
<path fill="white" stroke="#666666" d="M380.5,-1843C380.5,-1843 301.5,-1843 301.5,-1843 295.5,-1843 289.5,-1837 289.5,-1831 289.5,-1831 289.5,-1213 289.5,-1213 289.5,-1207 295.5,-1201 301.5,-1201 301.5,-1201 380.5,-1201 380.5,-1201 386.5,-1201 392.5,-1207 392.5,-1213 392.5,-1213 392.5,-1831 392.5,-1831 392.5,-1837 386.5,-1843 380.5,-1843"/>
<text text-anchor="start" x="309" y="-1827" font-family="Helvetica,sans-Serif" font-size="10.00">EmpKalmans</text>
<text text-anchor="start" x="302" y="-1812" font-family="Helvetica,sans-Serif" font-size="10.00">+</text>
<text text-anchor="start" x="315" y="-1812" font-family="Helvetica,sans-Serif" font-size="10.00">emp_d_0</text>
<text text-anchor="start" x="302" y="-1797" font-family="Helvetica,sans-Serif" font-size="10.00">+</text>
<text text-anchor="start" x="315" y="-1797" font-family="Helvetica,sans-Serif" font-size="10.00">emp_d_1</text>
<text text-anchor="start" x="302" y="-1782" font-family="Helvetica,sans-Serif" font-size="10.00">+</text>
<text text-anchor="start" x="315" y="-1782" font-family="Helvetica,sans-Serif" font-size="10.00">emp_d_2</text>
<text text-anchor="start" x="302" y="-1767" font-family="Helvetica,sans-Serif" font-size="10.00">+</text>
<text text-anchor="start" x="315" y="-1767" font-family="Helvetica,sans-Serif" font-size="10.00">emp_d_3</text>
<text text-anchor="start" x="302" y="-1752" font-family="Helvetica,sans-Serif" font-size="10.00">+</text>
<text text-anchor="start" x="315" y="-1752" font-family="Helvetica,sans-Serif" font-size="10.00">emp_d_4</text>
<text text-anchor="start" x="302" y="-1737" font-family="Helvetica,sans-Serif" font-size="10.00">+</text>
<text text-anchor="start" x="315" y="-1737" font-family="Helvetica,sans-Serif" font-size="10.00">emp_y_0</text>
<text text-anchor="start" x="302" y="-1722" font-family="Helvetica,sans-Serif" font-size="10.00">+</text>
<text text-anchor="start" x="315" y="-1722" font-family="Helvetica,sans-Serif" font-size="10.00">emp_y_1</text>
<text text-anchor="start" x="302" y="-1707" font-family="Helvetica,sans-Serif" font-size="10.00">+</text>
<text text-anchor="start" x="315" y="-1707" font-family="Helvetica,sans-Serif" font-size="10.00">emp_y_2</text>
<text text-anchor="start" x="302" y="-1692" font-family="Helvetica,sans-Serif" font-size="10.00">+</text>
<text text-anchor="start" x="315" y="-1692" font-family="Helvetica,sans-Serif" font-size="10.00">emp_y_3</text>
<text text-anchor="start" x="302" y="-1677" font-family="Helvetica,sans-Serif" font-size="10.00">+</text>
<text text-anchor="start" x="315" y="-1677" font-family="Helvetica,sans-Serif" font-size="10.00">emp_y_4</text>
<text text-anchor="start" x="302" y="-1662" font-family="Helvetica,sans-Serif" font-size="10.00">+</text>
<text text-anchor="start" x="315" y="-1662" font-family="Helvetica,sans-Serif" font-size="10.00">emp_b_0</text>
<text text-anchor="start" x="302" y="-1647" font-family="Helvetica,sans-Serif" font-size="10.00">+</text>
<text text-anchor="start" x="315" y="-1647" font-family="Helvetica,sans-Serif" font-size="10.00">emp_b_1</text>
<text text-anchor="start" x="302" y="-1632" font-family="Helvetica,sans-Serif" font-size="10.00">+</text>
<text text-anchor="start" x="315" y="-1632" font-family="Helvetica,sans-Serif" font-size="10.00">emp_b_2</text>
<text text-anchor="start" x="302" y="-1617" font-family="Helvetica,sans-Serif" font-size="10.00">+</text>
<text text-anchor="start" x="315" y="-1617" font-family="Helvetica,sans-Serif" font-size="10.00">emp_b_3</text>
<text text-anchor="start" x="302" y="-1602" font-family="Helvetica,sans-Serif" font-size="10.00">+</text>
<text text-anchor="start" x="315" y="-1602" font-family="Helvetica,sans-Serif" font-size="10.00">emp_b_4</text>
<text text-anchor="start" x="302" y="-1587" font-family="Helvetica,sans-Serif" font-size="10.00">+</text>
<text text-anchor="start" x="315" y="-1587" font-family="Helvetica,sans-Serif" font-size="10.00">emp_r_0</text>
<text text-anchor="start" x="302" y="-1572" font-family="Helvetica,sans-Serif" font-size="10.00">+</text>
<text text-anchor="start" x="315" y="-1572" font-family="Helvetica,sans-Serif" font-size="10.00">emp_r_1</text>
<text text-anchor="start" x="302" y="-1557" font-family="Helvetica,sans-Serif" font-size="10.00">+</text>
<text text-anchor="start" x="315" y="-1557" font-family="Helvetica,sans-Serif" font-size="10.00">emp_r_2</text>
<text text-anchor="start" x="302" y="-1542" font-family="Helvetica,sans-Serif" font-size="10.00">+</text>
<text text-anchor="start" x="315" y="-1542" font-family="Helvetica,sans-Serif" font-size="10.00">emp_r_3</text>
<text text-anchor="start" x="302" y="-1527" font-family="Helvetica,sans-Serif" font-size="10.00">+</text>
<text text-anchor="start" x="315" y="-1527" font-family="Helvetica,sans-Serif" font-size="10.00">emp_r_4</text>
<text text-anchor="start" x="302" y="-1512" font-family="Helvetica,sans-Serif" font-size="10.00">+</text>
<text text-anchor="start" x="315" y="-1512" font-family="Helvetica,sans-Serif" font-size="10.00">emp_t_0</text>
<text text-anchor="start" x="302" y="-1497" font-family="Helvetica,sans-Serif" font-size="10.00">+</text>
<text text-anchor="start" x="315" y="-1497" font-family="Helvetica,sans-Serif" font-size="10.00">emp_t_1</text>
<text text-anchor="start" x="302" y="-1482" font-family="Helvetica,sans-Serif" font-size="10.00">+</text>
<text text-anchor="start" x="315" y="-1482" font-family="Helvetica,sans-Serif" font-size="10.00">emp_t_2</text>
<text text-anchor="start" x="302" y="-1467" font-family="Helvetica,sans-Serif" font-size="10.00">+</text>
<text text-anchor="start" x="315" y="-1467" font-family="Helvetica,sans-Serif" font-size="10.00">emp_t_3</text>
<text text-anchor="start" x="302" y="-1452" font-family="Helvetica,sans-Serif" font-size="10.00">+</text>
<text text-anchor="start" x="315" y="-1452" font-family="Helvetica,sans-Serif" font-size="10.00">emp_t_4</text>
<text text-anchor="start" x="302" y="-1437" font-family="Helvetica,sans-Serif" font-size="10.00">+</text>
<text text-anchor="start" x="315" y="-1437" font-family="Helvetica,sans-Serif" font-size="10.00">emp_n_0</text>
<text text-anchor="start" x="302" y="-1422" font-family="Helvetica,sans-Serif" font-size="10.00">+</text>
<text text-anchor="start" x="315" y="-1422" font-family="Helvetica,sans-Serif" font-size="10.00">emp_n_1</text>
<text text-anchor="start" x="302" y="-1407" font-family="Helvetica,sans-Serif" font-size="10.00">+</text>
<text text-anchor="start" x="315" y="-1407" font-family="Helvetica,sans-Serif" font-size="10.00">emp_n_2</text>
<text text-anchor="start" x="302" y="-1392" font-family="Helvetica,sans-Serif" font-size="10.00">+</text>
<text text-anchor="start" x="315" y="-1392" font-family="Helvetica,sans-Serif" font-size="10.00">emp_n_3</text>
<text text-anchor="start" x="302" y="-1377" font-family="Helvetica,sans-Serif" font-size="10.00">+</text>
<text text-anchor="start" x="315" y="-1377" font-family="Helvetica,sans-Serif" font-size="10.00">emp_n_4</text>
<text text-anchor="start" x="302" y="-1362" font-family="Helvetica,sans-Serif" font-size="10.00">+</text>
<text text-anchor="start" x="315" y="-1362" font-family="Helvetica,sans-Serif" font-size="10.00">emp_p_0</text>
<text text-anchor="start" x="302" y="-1347" font-family="Helvetica,sans-Serif" font-size="10.00">+</text>
<text text-anchor="start" x="315" y="-1347" font-family="Helvetica,sans-Serif" font-size="10.00">emp_p_1</text>
<text text-anchor="start" x="302" y="-1332" font-family="Helvetica,sans-Serif" font-size="10.00">+</text>
<text text-anchor="start" x="315" y="-1332" font-family="Helvetica,sans-Serif" font-size="10.00">emp_p_2</text>
<text text-anchor="start" x="302" y="-1317" font-family="Helvetica,sans-Serif" font-size="10.00">+</text>
<text text-anchor="start" x="315" y="-1317" font-family="Helvetica,sans-Serif" font-size="10.00">emp_p_3</text>
<text text-anchor="start" x="302" y="-1302" font-family="Helvetica,sans-Serif" font-size="10.00">+</text>
<text text-anchor="start" x="315" y="-1302" font-family="Helvetica,sans-Serif" font-size="10.00">emp_p_4</text>
<text text-anchor="start" x="302" y="-1287" font-family="Helvetica,sans-Serif" font-size="10.00">+</text>
<text text-anchor="start" x="315" y="-1287" font-family="Helvetica,sans-Serif" font-size="10.00">emp_q_0</text>
<text text-anchor="start" x="302" y="-1272" font-family="Helvetica,sans-Serif" font-size="10.00">+</text>
<text text-anchor="start" x="315" y="-1272" font-family="Helvetica,sans-Serif" font-size="10.00">emp_q_1</text>
<text text-anchor="start" x="302" y="-1257" font-family="Helvetica,sans-Serif" font-size="10.00">+</text>
<text text-anchor="start" x="315" y="-1257" font-family="Helvetica,sans-Serif" font-size="10.00">emp_q_2</text>
<text text-anchor="start" x="302" y="-1242" font-family="Helvetica,sans-Serif" font-size="10.00">+</text>
<text text-anchor="start" x="315" y="-1242" font-family="Helvetica,sans-Serif" font-size="10.00">emp_q_3</text>
<text text-anchor="start" x="302" y="-1227" font-family="Helvetica,sans-Serif" font-size="10.00">+</text>
<text text-anchor="start" x="315" y="-1227" font-family="Helvetica,sans-Serif" font-size="10.00">emp_q_4</text>
<text text-anchor="start" x="302" y="-1212" font-family="Helvetica,sans-Serif" font-size="10.00">+</text>
<text text-anchor="start" x="315" y="-1212" font-family="Helvetica,sans-Serif" font-size="10.00">operator+=()</text>
<polygon fill="#666666" stroke="#666666" points="298,-1822 298,-1822 385,-1822 385,-1822 298,-1822"/>
<polygon fill="#666666" stroke="#666666" points="298,-1222 298,-1222 313,-1222 313,-1222 298,-1222"/>
<polygon fill="#666666" stroke="#666666" points="313,-1222 313,-1222 385,-1222 385,-1222 313,-1222"/>
<polygon fill="none" stroke="#666666" points="297.5,-1205 297.5,-1839 384.5,-1839 384.5,-1205 297.5,-1205"/>
</a>
</g>
</g>
<!-- Node5&#45;&gt;Node2 -->
<g id="edge4_Node000002_Node000005" class="edge">
<title>Node5&#45;&gt;Node2</title>
<g id="a_edge4_Node000002_Node000005"><a xlink:title=" ">
<path fill="none" stroke="#63b8ff" d="M286.85,-1222.31C284.95,-1215.12 283,-1208.01 281,-1201 276.29,-1184.49 272.58,-1181.23 267,-1165 253.44,-1125.57 239.94,-1081.58 228.78,-1043.6"/>
<polygon fill="none" stroke="#63b8ff" points="283.51,-1223.36 289.42,-1232.16 290.28,-1221.6 283.51,-1223.36"/>
</a>
</g>
</g>
<!-- Node6 -->
<g id="Node000006" class="node">
<title>Node6</title>
<g id="a_Node000006"><a xlink:href="structCommonOptions.html" target="_top" xlink:title=" ">
<path fill="white" stroke="#666666" d="M405.5,-1165C405.5,-1165 288.5,-1165 288.5,-1165 282.5,-1165 276.5,-1159 276.5,-1153 276.5,-1153 276.5,-742 276.5,-742 276.5,-736 282.5,-730 288.5,-730 288.5,-730 405.5,-730 405.5,-730 411.5,-730 417.5,-736 417.5,-742 417.5,-742 417.5,-1153 417.5,-1153 417.5,-1159 411.5,-1165 405.5,-1165"/>
<text text-anchor="start" x="306.5" y="-1148.5" font-family="Helvetica,sans-Serif" font-size="10.00">CommonOptions</text>
<text text-anchor="start" x="289" y="-1133.5" font-family="Helvetica,sans-Serif" font-size="10.00">+</text>
<text text-anchor="start" x="302" y="-1133.5" font-family="Helvetica,sans-Serif" font-size="10.00">exclude</text>
<text text-anchor="start" x="289" y="-1118.5" font-family="Helvetica,sans-Serif" font-size="10.00">+</text>
<text text-anchor="start" x="302" y="-1118.5" font-family="Helvetica,sans-Serif" font-size="10.00">pseudo_sigma</text>
<text text-anchor="start" x="289" y="-1103.5" font-family="Helvetica,sans-Serif" font-size="10.00">+</text>
<text text-anchor="start" x="302" y="-1103.5" font-family="Helvetica,sans-Serif" font-size="10.00">laser_sigma</text>
<text text-anchor="start" x="289" y="-1088.5" font-family="Helvetica,sans-Serif" font-size="10.00">+</text>
<text text-anchor="start" x="302" y="-1088.5" font-family="Helvetica,sans-Serif" font-size="10.00">clock_codes</text>
<text text-anchor="start" x="289" y="-1073.5" font-family="Helvetica,sans-Serif" font-size="10.00">+</text>
<text text-anchor="start" x="302" y="-1073.5" font-family="Helvetica,sans-Serif" font-size="10.00">apriori_sigma_enu</text>
<text text-anchor="start" x="289" y="-1058.5" font-family="Helvetica,sans-Serif" font-size="10.00">+</text>
<text text-anchor="start" x="302" y="-1058.5" font-family="Helvetica,sans-Serif" font-size="10.00">mincon_scale_apriori</text>
<text text-anchor="start" x="302" y="-1047.5" font-family="Helvetica,sans-Serif" font-size="10.00">_sigma</text>
<text text-anchor="start" x="289" y="-1032.5" font-family="Helvetica,sans-Serif" font-size="10.00">+</text>
<text text-anchor="start" x="302" y="-1032.5" font-family="Helvetica,sans-Serif" font-size="10.00">mincon_scale_filter</text>
<text text-anchor="start" x="302" y="-1021.5" font-family="Helvetica,sans-Serif" font-size="10.00">_sigma</text>
<text text-anchor="start" x="289" y="-1006.5" font-family="Helvetica,sans-Serif" font-size="10.00">+</text>
<text text-anchor="start" x="302" y="-1006.5" font-family="Helvetica,sans-Serif" font-size="10.00">antenna_boresight</text>
<text text-anchor="start" x="289" y="-991.5" font-family="Helvetica,sans-Serif" font-size="10.00">+</text>
<text text-anchor="start" x="302" y="-991.5" font-family="Helvetica,sans-Serif" font-size="10.00">antenna_azimuth</text>
<text text-anchor="start" x="289" y="-976.5" font-family="Helvetica,sans-Serif" font-size="10.00">+</text>
<text text-anchor="start" x="302" y="-976.5" font-family="Helvetica,sans-Serif" font-size="10.00">ellipse_propagation</text>
<text text-anchor="start" x="302" y="-965.5" font-family="Helvetica,sans-Serif" font-size="10.00">_time_tolerance</text>
<text text-anchor="start" x="289" y="-950.5" font-family="Helvetica,sans-Serif" font-size="10.00">+</text>
<text text-anchor="start" x="302" y="-950.5" font-family="Helvetica,sans-Serif" font-size="10.00">enable</text>
<text text-anchor="start" x="289" y="-935.5" font-family="Helvetica,sans-Serif" font-size="10.00">+</text>
<text text-anchor="start" x="302" y="-935.5" font-family="Helvetica,sans-Serif" font-size="10.00">sources</text>
<text text-anchor="start" x="289" y="-920.5" font-family="Helvetica,sans-Serif" font-size="10.00">+</text>
<text text-anchor="start" x="302" y="-920.5" font-family="Helvetica,sans-Serif" font-size="10.00">posModel</text>
<text text-anchor="start" x="289" y="-905.5" font-family="Helvetica,sans-Serif" font-size="10.00">+</text>
<text text-anchor="start" x="302" y="-905.5" font-family="Helvetica,sans-Serif" font-size="10.00">clockModel</text>
<text text-anchor="start" x="289" y="-890.5" font-family="Helvetica,sans-Serif" font-size="10.00">+</text>
<text text-anchor="start" x="302" y="-890.5" font-family="Helvetica,sans-Serif" font-size="10.00">model_dt</text>
<text text-anchor="start" x="289" y="-875.5" font-family="Helvetica,sans-Serif" font-size="10.00">+</text>
<text text-anchor="start" x="302" y="-875.5" font-family="Helvetica,sans-Serif" font-size="10.00">attitudeModel</text>
<text text-anchor="start" x="289" y="-860.5" font-family="Helvetica,sans-Serif" font-size="10.00">+</text>
<text text-anchor="start" x="302" y="-860.5" font-family="Helvetica,sans-Serif" font-size="10.00">default_bias</text>
<text text-anchor="start" x="289" y="-845.5" font-family="Helvetica,sans-Serif" font-size="10.00">+</text>
<text text-anchor="start" x="302" y="-845.5" font-family="Helvetica,sans-Serif" font-size="10.00">undefined_sigma</text>
<text text-anchor="start" x="289" y="-830.5" font-family="Helvetica,sans-Serif" font-size="10.00">+</text>
<text text-anchor="start" x="302" y="-830.5" font-family="Helvetica,sans-Serif" font-size="10.00">codeBiasModel</text>
<text text-anchor="start" x="289" y="-815.5" font-family="Helvetica,sans-Serif" font-size="10.00">+</text>
<text text-anchor="start" x="302" y="-815.5" font-family="Helvetica,sans-Serif" font-size="10.00">phaseBiasModel</text>
<text text-anchor="start" x="289" y="-800.5" font-family="Helvetica,sans-Serif" font-size="10.00">+</text>
<text text-anchor="start" x="302" y="-800.5" font-family="Helvetica,sans-Serif" font-size="10.00">pcoModel</text>
<text text-anchor="start" x="289" y="-785.5" font-family="Helvetica,sans-Serif" font-size="10.00">+</text>
<text text-anchor="start" x="302" y="-785.5" font-family="Helvetica,sans-Serif" font-size="10.00">pcvModel</text>
<text text-anchor="start" x="289" y="-770.5" font-family="Helvetica,sans-Serif" font-size="10.00">+</text>
<text text-anchor="start" x="302" y="-770.5" font-family="Helvetica,sans-Serif" font-size="10.00">phaseWindupModel</text>
<text text-anchor="start" x="289" y="-755.5" font-family="Helvetica,sans-Serif" font-size="10.00">+</text>
<text text-anchor="start" x="302" y="-755.5" font-family="Helvetica,sans-Serif" font-size="10.00">initialisedMap</text>
<text text-anchor="start" x="289" y="-740.5" font-family="Helvetica,sans-Serif" font-size="10.00">+</text>
<text text-anchor="start" x="302" y="-740.5" font-family="Helvetica,sans-Serif" font-size="10.00">operator+=()</text>
<polygon fill="#666666" stroke="#666666" points="285,-1143.5 285,-1143.5 410,-1143.5 410,-1143.5 285,-1143.5"/>
<polygon fill="#666666" stroke="#666666" points="285,-750.5 285,-750.5 300,-750.5 300,-750.5 285,-750.5"/>
<polygon fill="#666666" stroke="#666666" points="300,-750.5 300,-750.5 410,-750.5 410,-750.5 300,-750.5"/>
<polygon fill="none" stroke="#666666" points="284.5,-734 284.5,-1161 409.5,-1161 409.5,-734 284.5,-734"/>
</a>
</g>
</g>
<!-- Node6&#45;&gt;Node1 -->
<g id="edge5_Node000001_Node000006" class="edge">
<title>Node6&#45;&gt;Node1</title>
<g id="a_edge5_Node000001_Node000006"><a xlink:title=" ">
<path fill="none" stroke="#63b8ff" d="M319.31,-719.46C318.29,-711.12 317.26,-702.71 316.23,-694.25"/>
<polygon fill="none" stroke="#63b8ff" points="315.86,-720.08 320.54,-729.58 322.81,-719.23 315.86,-720.08"/>
</a>
</g>
</g>
</g>
</svg>
