<?xml version="1.0" encoding="UTF-8" standalone="no"?>
<!DOCTYPE svg PUBLIC "-//W3C//DTD SVG 1.1//EN"
 "http://www.w3.org/Graphics/SVG/1.1/DTD/svg11.dtd">
<!-- Generated by graphviz version 2.43.0 (0)
 -->
<!-- Title: InertialKalmans Pages: 1 -->
<svg width="507pt" height="394pt"
 viewBox="0.00 0.00 506.50 394.00" xmlns="http://www.w3.org/2000/svg" xmlns:xlink="http://www.w3.org/1999/xlink">
<g id="graph0" class="graph" transform="scale(1 1) rotate(0) translate(4 390)">
<title>InertialKalmans</title>
<!-- Node1 -->
<g id="Node000001" class="node">
<title>Node1</title>
<g id="a_Node000001"><a xlink:href="structInertialKalmans.html" target="_top" xlink:title=" ">
<path fill="white" stroke="#666666" stroke-width="2" d="M283.5,-57C283.5,-57 203.5,-57 203.5,-57 197.5,-57 191.5,-51 191.5,-45 191.5,-45 191.5,-12 191.5,-12 191.5,-6 197.5,0 203.5,0 203.5,0 283.5,0 283.5,0 289.5,0 295.5,-6 295.5,-12 295.5,-12 295.5,-45 295.5,-45 295.5,-51 289.5,-57 283.5,-57"/>
<text text-anchor="start" x="204.5" y="-40.5" font-family="Helvetica,sans-Serif" font-size="10.00">InertialKalmans</text>
<text text-anchor="start" x="241.5" y="-25.5" font-family="Helvetica,sans-Serif" font-size="10.00"> </text>
<text text-anchor="start" x="203.5" y="-10.5" font-family="Helvetica,sans-Serif" font-size="10.00">+</text>
<text text-anchor="start" x="216.5" y="-10.5" font-family="Helvetica,sans-Serif" font-size="10.00">operator+=()</text>
<polygon fill="#666666" stroke="#666666" points="199.5,-35.5 199.5,-35.5 287.5,-35.5 287.5,-35.5 199.5,-35.5"/>
<polygon fill="#666666" stroke="#666666" points="199.5,-20.5 199.5,-20.5 287.5,-20.5 287.5,-20.5 199.5,-20.5"/>
<polygon fill="none" stroke="#666666" points="199.5,-4 199.5,-53 287.5,-53 287.5,-4 199.5,-4"/>
</a>
</g>
</g>
<!-- Node2 -->
<g id="Node000002" class="node">
<title>Node2</title>
<g id="a_Node000002"><a xlink:href="structKalmanModel.html" target="_top" xlink:title="Options associated with kalman filter states.">
<path fill="white" stroke="#666666" d="M283,-216C283,-216 204,-216 204,-216 198,-216 192,-210 192,-204 192,-204 192,-171 192,-171 192,-165 198,-159 204,-159 204,-159 283,-159 283,-159 289,-159 295,-165 295,-171 295,-171 295,-204 295,-204 295,-210 289,-216 283,-216"/>
<text text-anchor="start" x="210" y="-199.5" font-family="Helvetica,sans-Serif" font-size="10.00">KalmanModel</text>
<text text-anchor="start" x="242" y="-184.5" font-family="Helvetica,sans-Serif" font-size="10.00"> </text>
<text text-anchor="start" x="204.5" y="-169.5" font-family="Helvetica,sans-Serif" font-size="10.00">+</text>
<text text-anchor="start" x="217.5" y="-169.5" font-family="Helvetica,sans-Serif" font-size="10.00">operator+=()</text>
<polygon fill="#666666" stroke="#666666" points="200.5,-194.5 200.5,-194.5 287.5,-194.5 287.5,-194.5 200.5,-194.5"/>
<polygon fill="#666666" stroke="#666666" points="200.5,-179.5 200.5,-179.5 287.5,-179.5 287.5,-179.5 200.5,-179.5"/>
<polygon fill="none" stroke="#666666" points="200,-163 200,-212 287,-212 287,-163 200,-163"/>
</a>
</g>
</g>
<!-- Node2&#45;&gt;Node1 -->
<g id="edge1_Node000001_Node000002" class="edge">
<title>Node2&#45;&gt;Node1</title>
<g id="a_edge1_Node000001_Node000002"><a xlink:title=" ">
<path fill="none" stroke="#63b8ff" d="M243.5,-158.79C243.5,-133.98 243.5,-97.31 243.5,-69.35"/>
<polygon fill="none" stroke="#63b8ff" points="243.5,-69.19 239.5,-63.19 243.5,-57.19 247.5,-63.19 243.5,-69.19"/>
</a>
</g>
<text text-anchor="middle" x="298.5" y="-133" font-family="Helvetica,sans-Serif" font-size="10.00" fill="grey"> +accelerometer_bias</text>
<text text-anchor="middle" x="298.5" y="-122" font-family="Helvetica,sans-Serif" font-size="10.00" fill="grey">+accelerometer_scale</text>
<text text-anchor="middle" x="298.5" y="-111" font-family="Helvetica,sans-Serif" font-size="10.00" fill="grey">+gyro_bias</text>
<text text-anchor="middle" x="298.5" y="-100" font-family="Helvetica,sans-Serif" font-size="10.00" fill="grey">+gyro_scale</text>
<text text-anchor="middle" x="298.5" y="-89" font-family="Helvetica,sans-Serif" font-size="10.00" fill="grey">+imu_offset</text>
<text text-anchor="middle" x="298.5" y="-78" font-family="Helvetica,sans-Serif" font-size="10.00" fill="grey">+orientation</text>
</g>
<!-- Node3 -->
<g id="Node000003" class="node">
<title>Node3</title>
<g id="a_Node000003"><a xlink:title=" ">
<path fill="#fff0f0" stroke="red" d="M101,-386C101,-386 12,-386 12,-386 6,-386 0,-380 0,-374 0,-374 0,-341 0,-341 0,-335 6,-329 12,-329 12,-329 101,-329 101,-329 107,-329 113,-335 113,-341 113,-341 113,-374 113,-374 113,-380 107,-386 101,-386"/>
<text text-anchor="start" x="13.5" y="-369.5" font-family="Helvetica,sans-Serif" font-size="10.00">vector&lt; double &gt;</text>
<text text-anchor="start" x="55" y="-354.5" font-family="Helvetica,sans-Serif" font-size="10.00"> </text>
<text text-anchor="start" x="55" y="-339.5" font-family="Helvetica,sans-Serif" font-size="10.00"> </text>
<polygon fill="red" stroke="red" points="8.5,-364.5 8.5,-364.5 105.5,-364.5 105.5,-364.5 8.5,-364.5"/>
<polygon fill="red" stroke="red" points="8.5,-349.5 8.5,-349.5 105.5,-349.5 105.5,-349.5 8.5,-349.5"/>
<polygon fill="none" stroke="red" points="8,-333 8,-382 105,-382 105,-333 8,-333"/>
</a>
</g>
</g>
<!-- Node3&#45;&gt;Node2 -->
<g id="edge2_Node000002_Node000003" class="edge">
<title>Node3&#45;&gt;Node2</title>
<g id="a_edge2_Node000002_Node000003"><a xlink:title=" ">
<path fill="none" stroke="#63b8ff" d="M56.27,-328.9C57.55,-301.3 63.85,-259.4 88.5,-234 112.21,-209.57 148.28,-198.08 179.67,-192.75"/>
<polygon fill="none" stroke="#63b8ff" points="180,-192.7 185.35,-187.86 191.87,-190.93 186.53,-195.77 180,-192.7"/>
</a>
</g>
<text text-anchor="middle" x="127.5" y="-303" font-family="Helvetica,sans-Serif" font-size="10.00" fill="grey"> +apriori_value</text>
<text text-anchor="middle" x="127.5" y="-292" font-family="Helvetica,sans-Serif" font-size="10.00" fill="grey">+mu</text>
<text text-anchor="middle" x="127.5" y="-281" font-family="Helvetica,sans-Serif" font-size="10.00" fill="grey">+outage_limit</text>
<text text-anchor="middle" x="127.5" y="-270" font-family="Helvetica,sans-Serif" font-size="10.00" fill="grey">+process_noise</text>
<text text-anchor="middle" x="127.5" y="-259" font-family="Helvetica,sans-Serif" font-size="10.00" fill="grey">+sigma</text>
<text text-anchor="middle" x="127.5" y="-248" font-family="Helvetica,sans-Serif" font-size="10.00" fill="grey">+sigma_limit</text>
<text text-anchor="middle" x="127.5" y="-237" font-family="Helvetica,sans-Serif" font-size="10.00" fill="grey">+tau</text>
</g>
<!-- Node5 -->
<g id="Node000005" class="node">
<title>Node5</title>
<g id="a_Node000005"><a xlink:title=" ">
<path fill="#fff0f0" stroke="red" d="M220,-386C220,-386 143,-386 143,-386 137,-386 131,-380 131,-374 131,-374 131,-341 131,-341 131,-335 137,-329 143,-329 143,-329 220,-329 220,-329 226,-329 232,-335 232,-341 232,-341 232,-374 232,-374 232,-380 226,-386 220,-386"/>
<text text-anchor="start" x="144.5" y="-369.5" font-family="Helvetica,sans-Serif" font-size="10.00">vector&lt; bool &gt;</text>
<text text-anchor="start" x="180" y="-354.5" font-family="Helvetica,sans-Serif" font-size="10.00"> </text>
<text text-anchor="start" x="180" y="-339.5" font-family="Helvetica,sans-Serif" font-size="10.00"> </text>
<polygon fill="red" stroke="red" points="139.5,-364.5 139.5,-364.5 224.5,-364.5 224.5,-364.5 139.5,-364.5"/>
<polygon fill="red" stroke="red" points="139.5,-349.5 139.5,-349.5 224.5,-349.5 224.5,-349.5 139.5,-349.5"/>
<polygon fill="none" stroke="red" points="139,-333 139,-382 224,-382 224,-333 139,-333"/>
</a>
</g>
</g>
<!-- Node5&#45;&gt;Node2 -->
<g id="edge3_Node000002_Node000005" class="edge">
<title>Node5&#45;&gt;Node2</title>
<g id="a_edge3_Node000002_Node000005"><a xlink:title=" ">
<path fill="none" stroke="#63b8ff" d="M174.97,-328.57C170.41,-302.61 167.5,-263.59 182.5,-234 184.1,-230.85 186.02,-227.86 188.19,-225.04"/>
<polygon fill="none" stroke="#63b8ff" points="188.3,-224.92 189.4,-217.79 196.4,-216.06 195.3,-223.19 188.3,-224.92"/>
</a>
</g>
<text text-anchor="middle" x="233.5" y="-275.5" font-family="Helvetica,sans-Serif" font-size="10.00" fill="grey"> +estimate</text>
<text text-anchor="middle" x="233.5" y="-264.5" font-family="Helvetica,sans-Serif" font-size="10.00" fill="grey">+use_remote_sigma</text>
</g>
<!-- Node6 -->
<g id="Node000006" class="node">
<title>Node6</title>
<g id="a_Node000006"><a xlink:title=" ">
<path fill="#fff0f0" stroke="red" d="M348.5,-386C348.5,-386 264.5,-386 264.5,-386 258.5,-386 252.5,-380 252.5,-374 252.5,-374 252.5,-341 252.5,-341 252.5,-335 258.5,-329 264.5,-329 264.5,-329 348.5,-329 348.5,-329 354.5,-329 360.5,-335 360.5,-341 360.5,-341 360.5,-374 360.5,-374 360.5,-380 354.5,-386 348.5,-386"/>
<text text-anchor="start" x="265.5" y="-369.5" font-family="Helvetica,sans-Serif" font-size="10.00">vector&lt; string &gt;</text>
<text text-anchor="start" x="304.5" y="-354.5" font-family="Helvetica,sans-Serif" font-size="10.00"> </text>
<text text-anchor="start" x="304.5" y="-339.5" font-family="Helvetica,sans-Serif" font-size="10.00"> </text>
<polygon fill="red" stroke="red" points="260.5,-364.5 260.5,-364.5 352.5,-364.5 352.5,-364.5 260.5,-364.5"/>
<polygon fill="red" stroke="red" points="260.5,-349.5 260.5,-349.5 352.5,-349.5 352.5,-349.5 260.5,-349.5"/>
<polygon fill="none" stroke="red" points="260.5,-333 260.5,-382 352.5,-382 352.5,-333 260.5,-333"/>
</a>
</g>
</g>
<!-- Node6&#45;&gt;Node2 -->
<g id="edge4_Node000002_Node000006" class="edge">
<title>Node6&#45;&gt;Node2</title>
<g id="a_edge4_Node000002_Node000006"><a xlink:title=" ">
<path fill="none" stroke="#63b8ff" d="M305.84,-328.88C304.26,-303.14 299.33,-264.27 284.5,-234 283.15,-231.24 281.58,-228.53 279.86,-225.88"/>
<polygon fill="none" stroke="#63b8ff" points="279.75,-225.73 272.97,-223.28 272.63,-216.07 279.41,-218.53 279.75,-225.73"/>
</a>
</g>
<text text-anchor="middle" x="332.5" y="-270" font-family="Helvetica,sans-Serif" font-size="10.00" fill="grey"> +comment</text>
</g>
<!-- Node7 -->
<g id="Node000007" class="node">
<title>Node7</title>
<g id="a_Node000007"><a xlink:title=" ">
<path fill="#fff0f0" stroke="red" d="M478,-386C478,-386 391,-386 391,-386 385,-386 379,-380 379,-374 379,-374 379,-341 379,-341 379,-335 385,-329 391,-329 391,-329 478,-329 478,-329 484,-329 490,-335 490,-341 490,-341 490,-374 490,-374 490,-380 484,-386 478,-386"/>
<text text-anchor="start" x="392.5" y="-369.5" font-family="Helvetica,sans-Serif" font-size="10.00">map&lt; int, bool &gt;</text>
<text text-anchor="start" x="433" y="-354.5" font-family="Helvetica,sans-Serif" font-size="10.00"> </text>
<text text-anchor="start" x="433" y="-339.5" font-family="Helvetica,sans-Serif" font-size="10.00"> </text>
<polygon fill="red" stroke="red" points="387.5,-364.5 387.5,-364.5 482.5,-364.5 482.5,-364.5 387.5,-364.5"/>
<polygon fill="red" stroke="red" points="387.5,-349.5 387.5,-349.5 482.5,-349.5 482.5,-349.5 387.5,-349.5"/>
<polygon fill="none" stroke="red" points="387,-333 387,-382 482,-382 482,-333 387,-333"/>
</a>
</g>
</g>
<!-- Node7&#45;&gt;Node2 -->
<g id="edge5_Node000002_Node000007" class="edge">
<title>Node7&#45;&gt;Node2</title>
<g id="a_edge5_Node000002_Node000007"><a xlink:title=" ">
<path fill="none" stroke="#63b8ff" d="M425.39,-328.96C414.96,-301.41 395.37,-259.54 365.5,-234 348.76,-219.69 327.09,-209.68 306.67,-202.77"/>
<polygon fill="none" stroke="#63b8ff" points="306.62,-202.75 299.69,-204.77 295.17,-199.15 302.1,-197.14 306.62,-202.75"/>
</a>
</g>
<text text-anchor="middle" x="458" y="-270" font-family="Helvetica,sans-Serif" font-size="10.00" fill="grey"> +initialisedMap</text>
</g>
</g>
</svg>
