<?xml version="1.0" encoding="UTF-8" standalone="no"?>
<!DOCTYPE svg PUBLIC "-//W3C//DTD SVG 1.1//EN"
 "http://www.w3.org/Graphics/SVG/1.1/DTD/svg11.dtd">
<!-- Generated by graphviz version 2.43.0 (0)
 -->
<!-- Title: ErrorAccumulationHandler Pages: 1 -->
<svg width="163pt" height="169pt"
 viewBox="0.00 0.00 163.00 169.00" xmlns="http://www.w3.org/2000/svg" xmlns:xlink="http://www.w3.org/1999/xlink">
<g id="graph0" class="graph" transform="scale(1 1) rotate(0) translate(4 165)">
<title>ErrorAccumulationHandler</title>
<!-- Node1 -->
<g id="Node000001" class="node">
<title>Node1</title>
<g id="a_Node000001"><a xlink:href="structErrorAccumulationHandler.html" target="_top" xlink:title=" ">
<path fill="white" stroke="#666666" stroke-width="2" d="M143,-161C143,-161 12,-161 12,-161 6,-161 0,-155 0,-149 0,-149 0,-12 0,-12 0,-6 6,0 12,0 12,0 143,0 143,0 149,0 155,-6 155,-12 155,-12 155,-149 155,-149 155,-155 149,-161 143,-161"/>
<text text-anchor="start" x="13.5" y="-144.5" font-family="Helvetica,sans-Serif" font-size="10.00">ErrorAccumulationHandler</text>
<text text-anchor="start" x="14.5" y="-129.5" font-family="Helvetica,sans-Serif" font-size="10.00">+</text>
<text text-anchor="start" x="29.5" y="-129.5" font-family="Helvetica,sans-Serif" font-size="10.00">enable</text>
<text text-anchor="start" x="14.5" y="-114.5" font-family="Helvetica,sans-Serif" font-size="10.00">+</text>
<text text-anchor="start" x="29.5" y="-114.5" font-family="Helvetica,sans-Serif" font-size="10.00">receiver_error_count</text>
<text text-anchor="start" x="29.5" y="-103.5" font-family="Helvetica,sans-Serif" font-size="10.00">_threshold</text>
<text text-anchor="start" x="14.5" y="-88.5" font-family="Helvetica,sans-Serif" font-size="10.00">+</text>
<text text-anchor="start" x="29.5" y="-88.5" font-family="Helvetica,sans-Serif" font-size="10.00">receiver_error_epochs</text>
<text text-anchor="start" x="29.5" y="-77.5" font-family="Helvetica,sans-Serif" font-size="10.00">_threshold</text>
<text text-anchor="start" x="14.5" y="-62.5" font-family="Helvetica,sans-Serif" font-size="10.00">+</text>
<text text-anchor="start" x="29.5" y="-62.5" font-family="Helvetica,sans-Serif" font-size="10.00">satellite_error_count</text>
<text text-anchor="start" x="29.5" y="-51.5" font-family="Helvetica,sans-Serif" font-size="10.00">_threshold</text>
<text text-anchor="start" x="14.5" y="-36.5" font-family="Helvetica,sans-Serif" font-size="10.00">+</text>
<text text-anchor="start" x="29.5" y="-36.5" font-family="Helvetica,sans-Serif" font-size="10.00">satellite_error_epochs</text>
<text text-anchor="start" x="29.5" y="-25.5" font-family="Helvetica,sans-Serif" font-size="10.00">_threshold</text>
<text text-anchor="start" x="76" y="-10.5" font-family="Helvetica,sans-Serif" font-size="10.00"> </text>
<polygon fill="#666666" stroke="#666666" points="8.5,-139.5 8.5,-139.5 147.5,-139.5 147.5,-139.5 8.5,-139.5"/>
<polygon fill="#666666" stroke="#666666" points="8.5,-20.5 8.5,-20.5 27.5,-20.5 27.5,-20.5 8.5,-20.5"/>
<polygon fill="#666666" stroke="#666666" points="27.5,-20.5 27.5,-20.5 147.5,-20.5 147.5,-20.5 27.5,-20.5"/>
<polygon fill="none" stroke="#666666" points="8,-4 8,-157 147,-157 147,-4 8,-4"/>
</a>
</g>
</g>
</g>
</svg>
