<?xml version="1.0" encoding="UTF-8" standalone="no"?>
<!DOCTYPE svg PUBLIC "-//W3C//DTD SVG 1.1//EN"
 "http://www.w3.org/Graphics/SVG/1.1/DTD/svg11.dtd">
<!-- Generated by graphviz version 2.43.0 (0)
 -->
<!-- Title: MinimumConstraintOptions Pages: 1 -->
<svg width="1124pt" height="552pt"
 viewBox="0.00 0.00 1124.00 552.00" xmlns="http://www.w3.org/2000/svg" xmlns:xlink="http://www.w3.org/1999/xlink">
<g id="graph0" class="graph" transform="scale(1 1) rotate(0) translate(4 548)">
<title>MinimumConstraintOptions</title>
<!-- Node1 -->
<g id="Node000001" class="node">
<title>Node1</title>
<g id="a_Node000001"><a xlink:href="structMinimumConstraintOptions.html" target="_top" xlink:title="Options associated with the minimum constraints mode of operation.">
<path fill="white" stroke="#666666" stroke-width="2" d="M663.5,-117C663.5,-117 526.5,-117 526.5,-117 520.5,-117 514.5,-111 514.5,-105 514.5,-105 514.5,-12 514.5,-12 514.5,-6 520.5,0 526.5,0 526.5,0 663.5,0 663.5,0 669.5,0 675.5,-6 675.5,-12 675.5,-12 675.5,-105 675.5,-105 675.5,-111 669.5,-117 663.5,-117"/>
<text text-anchor="start" x="528" y="-100.5" font-family="Helvetica,sans-Serif" font-size="10.00">MinimumConstraintOptions</text>
<text text-anchor="start" x="530" y="-85.5" font-family="Helvetica,sans-Serif" font-size="10.00">+</text>
<text text-anchor="start" x="546" y="-85.5" font-family="Helvetica,sans-Serif" font-size="10.00">once_per_epoch</text>
<text text-anchor="start" x="530" y="-70.5" font-family="Helvetica,sans-Serif" font-size="10.00">+</text>
<text text-anchor="start" x="546" y="-70.5" font-family="Helvetica,sans-Serif" font-size="10.00">full_vcv</text>
<text text-anchor="start" x="530" y="-55.5" font-family="Helvetica,sans-Serif" font-size="10.00">+</text>
<text text-anchor="start" x="546" y="-55.5" font-family="Helvetica,sans-Serif" font-size="10.00">constrain_orbits</text>
<text text-anchor="start" x="530" y="-40.5" font-family="Helvetica,sans-Serif" font-size="10.00">+</text>
<text text-anchor="start" x="546" y="-40.5" font-family="Helvetica,sans-Serif" font-size="10.00">transform_unweighted</text>
<text text-anchor="start" x="530" y="-25.5" font-family="Helvetica,sans-Serif" font-size="10.00">+</text>
<text text-anchor="start" x="546" y="-25.5" font-family="Helvetica,sans-Serif" font-size="10.00">application_mode</text>
<text text-anchor="start" x="593.5" y="-10.5" font-family="Helvetica,sans-Serif" font-size="10.00"> </text>
<polygon fill="#666666" stroke="#666666" points="523,-95.5 523,-95.5 668,-95.5 668,-95.5 523,-95.5"/>
<polygon fill="#666666" stroke="#666666" points="523,-20.5 523,-20.5 544,-20.5 544,-20.5 523,-20.5"/>
<polygon fill="#666666" stroke="#666666" points="544,-20.5 544,-20.5 668,-20.5 668,-20.5 544,-20.5"/>
<polygon fill="none" stroke="#666666" points="522.5,-4 522.5,-113 667.5,-113 667.5,-4 522.5,-4"/>
</a>
</g>
</g>
<!-- Node2 -->
<g id="Node000002" class="node">
<title>Node2</title>
<g id="a_Node000002"><a xlink:href="structFilterOptions.html" target="_top" xlink:title=" ">
<path fill="white" stroke="#666666" d="M446.5,-314C446.5,-314 335.5,-314 335.5,-314 329.5,-314 323.5,-308 323.5,-302 323.5,-302 323.5,-209 323.5,-209 323.5,-203 329.5,-197 335.5,-197 335.5,-197 446.5,-197 446.5,-197 452.5,-197 458.5,-203 458.5,-209 458.5,-209 458.5,-302 458.5,-302 458.5,-308 452.5,-314 446.5,-314"/>
<text text-anchor="start" x="360" y="-297.5" font-family="Helvetica,sans-Serif" font-size="10.00">FilterOptions</text>
<text text-anchor="start" x="336" y="-282.5" font-family="Helvetica,sans-Serif" font-size="10.00">+</text>
<text text-anchor="start" x="349" y="-282.5" font-family="Helvetica,sans-Serif" font-size="10.00">simulate_filter_only</text>
<text text-anchor="start" x="336" y="-267.5" font-family="Helvetica,sans-Serif" font-size="10.00">+</text>
<text text-anchor="start" x="349" y="-267.5" font-family="Helvetica,sans-Serif" font-size="10.00">assume_linearity</text>
<text text-anchor="start" x="336" y="-252.5" font-family="Helvetica,sans-Serif" font-size="10.00">+</text>
<text text-anchor="start" x="349" y="-252.5" font-family="Helvetica,sans-Serif" font-size="10.00">advanced_postfits</text>
<text text-anchor="start" x="336" y="-237.5" font-family="Helvetica,sans-Serif" font-size="10.00">+</text>
<text text-anchor="start" x="349" y="-237.5" font-family="Helvetica,sans-Serif" font-size="10.00">joseph_stabilisation</text>
<text text-anchor="start" x="336" y="-222.5" font-family="Helvetica,sans-Serif" font-size="10.00">+</text>
<text text-anchor="start" x="349" y="-222.5" font-family="Helvetica,sans-Serif" font-size="10.00">inverter</text>
<text text-anchor="start" x="389.5" y="-207.5" font-family="Helvetica,sans-Serif" font-size="10.00"> </text>
<polygon fill="#666666" stroke="#666666" points="332,-292.5 332,-292.5 451,-292.5 451,-292.5 332,-292.5"/>
<polygon fill="#666666" stroke="#666666" points="332,-217.5 332,-217.5 347,-217.5 347,-217.5 332,-217.5"/>
<polygon fill="#666666" stroke="#666666" points="347,-217.5 347,-217.5 451,-217.5 451,-217.5 347,-217.5"/>
<polygon fill="none" stroke="#666666" points="331.5,-201 331.5,-310 450.5,-310 450.5,-201 331.5,-201"/>
</a>
</g>
</g>
<!-- Node2&#45;&gt;Node1 -->
<g id="edge1_Node000001_Node000002" class="edge">
<title>Node2&#45;&gt;Node1</title>
<g id="a_edge1_Node000001_Node000002"><a xlink:title=" ">
<path fill="none" stroke="#63b8ff" d="M458.89,-189.6C483.43,-166.15 510.94,-139.85 534.78,-117.07"/>
<polygon fill="none" stroke="#63b8ff" points="456.19,-187.35 451.38,-196.79 461.03,-192.41 456.19,-187.35"/>
</a>
</g>
</g>
<!-- Node3 -->
<g id="Node000003" class="node">
<title>Node3</title>
<g id="a_Node000003"><a xlink:href="structRtsOptions.html" target="_top" xlink:title=" ">
<path fill="#fff0f0" stroke="red" d="M116,-536.5C116,-536.5 12,-536.5 12,-536.5 6,-536.5 0,-530.5 0,-524.5 0,-524.5 0,-446.5 0,-446.5 0,-440.5 6,-434.5 12,-434.5 12,-434.5 116,-434.5 116,-434.5 122,-434.5 128,-440.5 128,-446.5 128,-446.5 128,-524.5 128,-524.5 128,-530.5 122,-536.5 116,-536.5"/>
<text text-anchor="start" x="37" y="-520.5" font-family="Helvetica,sans-Serif" font-size="10.00">RtsOptions</text>
<text text-anchor="start" x="12" y="-505.5" font-family="Helvetica,sans-Serif" font-size="10.00">+</text>
<text text-anchor="start" x="25" y="-505.5" font-family="Helvetica,sans-Serif" font-size="10.00">rts_lag</text>
<text text-anchor="start" x="12" y="-490.5" font-family="Helvetica,sans-Serif" font-size="10.00">+</text>
<text text-anchor="start" x="25" y="-490.5" font-family="Helvetica,sans-Serif" font-size="10.00">rts_interval</text>
<text text-anchor="start" x="12" y="-475.5" font-family="Helvetica,sans-Serif" font-size="10.00">+</text>
<text text-anchor="start" x="25" y="-475.5" font-family="Helvetica,sans-Serif" font-size="10.00">queue_rts_outputs</text>
<text text-anchor="start" x="12" y="-460.5" font-family="Helvetica,sans-Serif" font-size="10.00">+</text>
<text text-anchor="start" x="25" y="-460.5" font-family="Helvetica,sans-Serif" font-size="10.00">rts_inverter</text>
<text text-anchor="start" x="62" y="-445.5" font-family="Helvetica,sans-Serif" font-size="10.00"> </text>
<polygon fill="red" stroke="red" points="8,-515.5 8,-515.5 120,-515.5 120,-515.5 8,-515.5"/>
<polygon fill="red" stroke="red" points="8,-455.5 8,-455.5 23,-455.5 23,-455.5 8,-455.5"/>
<polygon fill="red" stroke="red" points="23,-455.5 23,-455.5 120,-455.5 120,-455.5 23,-455.5"/>
<polygon fill="none" stroke="red" points="8,-438.5 8,-532.5 120,-532.5 120,-438.5 8,-438.5"/>
</a>
</g>
</g>
<!-- Node3&#45;&gt;Node2 -->
<g id="edge2_Node000002_Node000003" class="edge">
<title>Node3&#45;&gt;Node2</title>
<g id="a_edge2_Node000002_Node000003"><a xlink:title=" ">
<path fill="none" stroke="#63b8ff" d="M135.18,-428.37C135.79,-427.91 136.4,-427.45 137,-427 195.1,-383.4 209.6,-372.36 270,-332 287.09,-320.58 305.81,-308.63 323.32,-297.69"/>
<polygon fill="none" stroke="#63b8ff" points="133.02,-425.62 127.17,-434.45 137.25,-431.19 133.02,-425.62"/>
</a>
</g>
</g>
<!-- Node5 -->
<g id="Node000005" class="node">
<title>Node5</title>
<g id="a_Node000005"><a xlink:href="structPrefitOptions.html" target="_top" xlink:title=" ">
<path fill="white" stroke="#666666" d="M285.5,-544C285.5,-544 158.5,-544 158.5,-544 152.5,-544 146.5,-538 146.5,-532 146.5,-532 146.5,-439 146.5,-439 146.5,-433 152.5,-427 158.5,-427 158.5,-427 285.5,-427 285.5,-427 291.5,-427 297.5,-433 297.5,-439 297.5,-439 297.5,-532 297.5,-532 297.5,-538 291.5,-544 285.5,-544"/>
<text text-anchor="start" x="190.5" y="-527.5" font-family="Helvetica,sans-Serif" font-size="10.00">PrefitOptions</text>
<text text-anchor="start" x="159" y="-512.5" font-family="Helvetica,sans-Serif" font-size="10.00">+</text>
<text text-anchor="start" x="172" y="-512.5" font-family="Helvetica,sans-Serif" font-size="10.00">max_iterations</text>
<text text-anchor="start" x="159" y="-497.5" font-family="Helvetica,sans-Serif" font-size="10.00">+</text>
<text text-anchor="start" x="172" y="-497.5" font-family="Helvetica,sans-Serif" font-size="10.00">sigma_check</text>
<text text-anchor="start" x="159" y="-482.5" font-family="Helvetica,sans-Serif" font-size="10.00">+</text>
<text text-anchor="start" x="172" y="-482.5" font-family="Helvetica,sans-Serif" font-size="10.00">state_sigma_threshold</text>
<text text-anchor="start" x="159" y="-467.5" font-family="Helvetica,sans-Serif" font-size="10.00">+</text>
<text text-anchor="start" x="172" y="-467.5" font-family="Helvetica,sans-Serif" font-size="10.00">meas_sigma_threshold</text>
<text text-anchor="start" x="159" y="-452.5" font-family="Helvetica,sans-Serif" font-size="10.00">+</text>
<text text-anchor="start" x="172" y="-452.5" font-family="Helvetica,sans-Serif" font-size="10.00">omega_test</text>
<text text-anchor="start" x="220.5" y="-437.5" font-family="Helvetica,sans-Serif" font-size="10.00"> </text>
<polygon fill="#666666" stroke="#666666" points="155,-522.5 155,-522.5 290,-522.5 290,-522.5 155,-522.5"/>
<polygon fill="#666666" stroke="#666666" points="155,-447.5 155,-447.5 170,-447.5 170,-447.5 155,-447.5"/>
<polygon fill="#666666" stroke="#666666" points="170,-447.5 170,-447.5 290,-447.5 290,-447.5 170,-447.5"/>
<polygon fill="none" stroke="#666666" points="154.5,-431 154.5,-540 289.5,-540 289.5,-431 154.5,-431"/>
</a>
</g>
</g>
<!-- Node5&#45;&gt;Node2 -->
<g id="edge3_Node000002_Node000005" class="edge">
<title>Node5&#45;&gt;Node2</title>
<g id="a_edge3_Node000002_Node000005"><a xlink:title=" ">
<path fill="none" stroke="#63b8ff" d="M259.81,-426.69C279.23,-397.76 303.66,-362.51 327,-332 329.1,-329.25 331.27,-326.46 333.49,-323.67"/>
<polygon fill="none" stroke="#63b8ff" points="333.62,-323.5 334.26,-316.31 341.13,-314.14 340.5,-321.32 333.62,-323.5"/>
</a>
</g>
<text text-anchor="middle" x="357" y="-368" font-family="Helvetica,sans-Serif" font-size="10.00" fill="grey"> +prefitOpts</text>
</g>
<!-- Node6 -->
<g id="Node000006" class="node">
<title>Node6</title>
<g id="a_Node000006"><a xlink:href="structPostfitOptions.html" target="_top" xlink:title=" ">
<path fill="white" stroke="#666666" d="M454.5,-536.5C454.5,-536.5 327.5,-536.5 327.5,-536.5 321.5,-536.5 315.5,-530.5 315.5,-524.5 315.5,-524.5 315.5,-446.5 315.5,-446.5 315.5,-440.5 321.5,-434.5 327.5,-434.5 327.5,-434.5 454.5,-434.5 454.5,-434.5 460.5,-434.5 466.5,-440.5 466.5,-446.5 466.5,-446.5 466.5,-524.5 466.5,-524.5 466.5,-530.5 460.5,-536.5 454.5,-536.5"/>
<text text-anchor="start" x="357" y="-520.5" font-family="Helvetica,sans-Serif" font-size="10.00">PostfitOptions</text>
<text text-anchor="start" x="328" y="-505.5" font-family="Helvetica,sans-Serif" font-size="10.00">+</text>
<text text-anchor="start" x="341" y="-505.5" font-family="Helvetica,sans-Serif" font-size="10.00">max_iterations</text>
<text text-anchor="start" x="328" y="-490.5" font-family="Helvetica,sans-Serif" font-size="10.00">+</text>
<text text-anchor="start" x="341" y="-490.5" font-family="Helvetica,sans-Serif" font-size="10.00">sigma_check</text>
<text text-anchor="start" x="328" y="-475.5" font-family="Helvetica,sans-Serif" font-size="10.00">+</text>
<text text-anchor="start" x="341" y="-475.5" font-family="Helvetica,sans-Serif" font-size="10.00">state_sigma_threshold</text>
<text text-anchor="start" x="328" y="-460.5" font-family="Helvetica,sans-Serif" font-size="10.00">+</text>
<text text-anchor="start" x="341" y="-460.5" font-family="Helvetica,sans-Serif" font-size="10.00">meas_sigma_threshold</text>
<text text-anchor="start" x="389.5" y="-445.5" font-family="Helvetica,sans-Serif" font-size="10.00"> </text>
<polygon fill="#666666" stroke="#666666" points="324,-515.5 324,-515.5 459,-515.5 459,-515.5 324,-515.5"/>
<polygon fill="#666666" stroke="#666666" points="324,-455.5 324,-455.5 339,-455.5 339,-455.5 324,-455.5"/>
<polygon fill="#666666" stroke="#666666" points="339,-455.5 339,-455.5 459,-455.5 459,-455.5 339,-455.5"/>
<polygon fill="none" stroke="#666666" points="323.5,-438.5 323.5,-532.5 458.5,-532.5 458.5,-438.5 323.5,-438.5"/>
</a>
</g>
</g>
<!-- Node6&#45;&gt;Node2 -->
<g id="edge4_Node000002_Node000006" class="edge">
<title>Node6&#45;&gt;Node2</title>
<g id="a_edge4_Node000002_Node000006"><a xlink:title=" ">
<path fill="none" stroke="#63b8ff" d="M391,-434.46C391,-402.69 391,-361.11 391,-326.13"/>
<polygon fill="none" stroke="#63b8ff" points="391,-326.06 387,-320.06 391,-314.06 395,-320.06 391,-326.06"/>
</a>
</g>
<text text-anchor="middle" x="423.5" y="-368" font-family="Helvetica,sans-Serif" font-size="10.00" fill="grey"> +postfitOpts</text>
</g>
<!-- Node7 -->
<g id="Node000007" class="node">
<title>Node7</title>
<g id="a_Node000007"><a xlink:href="structChiSquareOptions.html" target="_top" xlink:title=" ">
<path fill="white" stroke="#666666" d="M591.5,-529C591.5,-529 496.5,-529 496.5,-529 490.5,-529 484.5,-523 484.5,-517 484.5,-517 484.5,-454 484.5,-454 484.5,-448 490.5,-442 496.5,-442 496.5,-442 591.5,-442 591.5,-442 597.5,-442 603.5,-448 603.5,-454 603.5,-454 603.5,-517 603.5,-517 603.5,-523 597.5,-529 591.5,-529"/>
<text text-anchor="start" x="500.5" y="-512.5" font-family="Helvetica,sans-Serif" font-size="10.00">ChiSquareOptions</text>
<text text-anchor="start" x="497" y="-497.5" font-family="Helvetica,sans-Serif" font-size="10.00">+</text>
<text text-anchor="start" x="510" y="-497.5" font-family="Helvetica,sans-Serif" font-size="10.00">enable</text>
<text text-anchor="start" x="497" y="-482.5" font-family="Helvetica,sans-Serif" font-size="10.00">+</text>
<text text-anchor="start" x="510" y="-482.5" font-family="Helvetica,sans-Serif" font-size="10.00">mode</text>
<text text-anchor="start" x="497" y="-467.5" font-family="Helvetica,sans-Serif" font-size="10.00">+</text>
<text text-anchor="start" x="510" y="-467.5" font-family="Helvetica,sans-Serif" font-size="10.00">sigma_threshold</text>
<text text-anchor="start" x="542.5" y="-452.5" font-family="Helvetica,sans-Serif" font-size="10.00"> </text>
<polygon fill="#666666" stroke="#666666" points="493,-507.5 493,-507.5 596,-507.5 596,-507.5 493,-507.5"/>
<polygon fill="#666666" stroke="#666666" points="493,-462.5 493,-462.5 508,-462.5 508,-462.5 493,-462.5"/>
<polygon fill="#666666" stroke="#666666" points="508,-462.5 508,-462.5 596,-462.5 596,-462.5 508,-462.5"/>
<polygon fill="none" stroke="#666666" points="492.5,-446 492.5,-525 595.5,-525 595.5,-446 492.5,-446"/>
</a>
</g>
</g>
<!-- Node7&#45;&gt;Node2 -->
<g id="edge5_Node000002_Node000007" class="edge">
<title>Node7&#45;&gt;Node2</title>
<g id="a_edge5_Node000002_Node000007"><a xlink:title=" ">
<path fill="none" stroke="#63b8ff" d="M523.9,-441.79C508.28,-410.29 485.1,-367.01 460,-332 458.01,-329.23 455.93,-326.44 453.79,-323.67"/>
<polygon fill="none" stroke="#63b8ff" points="453.78,-323.66 446.91,-321.47 446.28,-314.29 453.15,-316.47 453.78,-323.66"/>
</a>
</g>
<text text-anchor="middle" x="546.5" y="-368" font-family="Helvetica,sans-Serif" font-size="10.00" fill="grey"> +chiSquareTest</text>
</g>
<!-- Node8 -->
<g id="Node000008" class="node">
<title>Node8</title>
<g id="a_Node000008"><a xlink:href="structKalmanModel.html" target="_top" xlink:title="Options associated with kalman filter states.">
<path fill="white" stroke="#666666" d="M841.5,-284C841.5,-284 762.5,-284 762.5,-284 756.5,-284 750.5,-278 750.5,-272 750.5,-272 750.5,-239 750.5,-239 750.5,-233 756.5,-227 762.5,-227 762.5,-227 841.5,-227 841.5,-227 847.5,-227 853.5,-233 853.5,-239 853.5,-239 853.5,-272 853.5,-272 853.5,-278 847.5,-284 841.5,-284"/>
<text text-anchor="start" x="768.5" y="-267.5" font-family="Helvetica,sans-Serif" font-size="10.00">KalmanModel</text>
<text text-anchor="start" x="800.5" y="-252.5" font-family="Helvetica,sans-Serif" font-size="10.00"> </text>
<text text-anchor="start" x="763" y="-237.5" font-family="Helvetica,sans-Serif" font-size="10.00">+</text>
<text text-anchor="start" x="776" y="-237.5" font-family="Helvetica,sans-Serif" font-size="10.00">operator+=()</text>
<polygon fill="#666666" stroke="#666666" points="759,-262.5 759,-262.5 846,-262.5 846,-262.5 759,-262.5"/>
<polygon fill="#666666" stroke="#666666" points="759,-247.5 759,-247.5 846,-247.5 846,-247.5 759,-247.5"/>
<polygon fill="none" stroke="#666666" points="758.5,-231 758.5,-280 845.5,-280 845.5,-231 758.5,-231"/>
</a>
</g>
</g>
<!-- Node8&#45;&gt;Node1 -->
<g id="edge6_Node000001_Node000008" class="edge">
<title>Node8&#45;&gt;Node1</title>
<g id="a_edge6_Node000001_Node000008"><a xlink:title=" ">
<path fill="none" stroke="#63b8ff" d="M772.78,-226.97C745.04,-200.84 702.26,-160.54 665.61,-126.02"/>
<polygon fill="none" stroke="#63b8ff" points="665.17,-125.61 658.06,-124.4 656.44,-117.38 663.55,-118.58 665.17,-125.61"/>
</a>
</g>
<text text-anchor="middle" x="747.5" y="-171" font-family="Helvetica,sans-Serif" font-size="10.00" fill="grey"> +delay</text>
<text text-anchor="middle" x="747.5" y="-160" font-family="Helvetica,sans-Serif" font-size="10.00" fill="grey">+rotation</text>
<text text-anchor="middle" x="747.5" y="-149" font-family="Helvetica,sans-Serif" font-size="10.00" fill="grey">+scale</text>
<text text-anchor="middle" x="747.5" y="-138" font-family="Helvetica,sans-Serif" font-size="10.00" fill="grey">+translation</text>
</g>
<!-- Node9 -->
<g id="Node000009" class="node">
<title>Node9</title>
<g id="a_Node000009"><a xlink:title=" ">
<path fill="#fff0f0" stroke="red" d="M722.5,-514C722.5,-514 633.5,-514 633.5,-514 627.5,-514 621.5,-508 621.5,-502 621.5,-502 621.5,-469 621.5,-469 621.5,-463 627.5,-457 633.5,-457 633.5,-457 722.5,-457 722.5,-457 728.5,-457 734.5,-463 734.5,-469 734.5,-469 734.5,-502 734.5,-502 734.5,-508 728.5,-514 722.5,-514"/>
<text text-anchor="start" x="635" y="-497.5" font-family="Helvetica,sans-Serif" font-size="10.00">vector&lt; double &gt;</text>
<text text-anchor="start" x="676.5" y="-482.5" font-family="Helvetica,sans-Serif" font-size="10.00"> </text>
<text text-anchor="start" x="676.5" y="-467.5" font-family="Helvetica,sans-Serif" font-size="10.00"> </text>
<polygon fill="red" stroke="red" points="630,-492.5 630,-492.5 727,-492.5 727,-492.5 630,-492.5"/>
<polygon fill="red" stroke="red" points="630,-477.5 630,-477.5 727,-477.5 727,-477.5 630,-477.5"/>
<polygon fill="none" stroke="red" points="629.5,-461 629.5,-510 726.5,-510 726.5,-461 629.5,-461"/>
</a>
</g>
</g>
<!-- Node9&#45;&gt;Node8 -->
<g id="edge7_Node000008_Node000009" class="edge">
<title>Node9&#45;&gt;Node8</title>
<g id="a_edge7_Node000008_Node000009"><a xlink:title=" ">
<path fill="none" stroke="#63b8ff" d="M680.96,-456.79C685.4,-424.75 695.98,-371.39 720,-332 729,-317.24 741.7,-303.59 754.43,-292.07"/>
<polygon fill="none" stroke="#63b8ff" points="754.58,-291.94 756.49,-284.99 763.65,-284.08 761.73,-291.03 754.58,-291.94"/>
</a>
</g>
<text text-anchor="middle" x="759" y="-401" font-family="Helvetica,sans-Serif" font-size="10.00" fill="grey"> +apriori_value</text>
<text text-anchor="middle" x="759" y="-390" font-family="Helvetica,sans-Serif" font-size="10.00" fill="grey">+mu</text>
<text text-anchor="middle" x="759" y="-379" font-family="Helvetica,sans-Serif" font-size="10.00" fill="grey">+outage_limit</text>
<text text-anchor="middle" x="759" y="-368" font-family="Helvetica,sans-Serif" font-size="10.00" fill="grey">+process_noise</text>
<text text-anchor="middle" x="759" y="-357" font-family="Helvetica,sans-Serif" font-size="10.00" fill="grey">+sigma</text>
<text text-anchor="middle" x="759" y="-346" font-family="Helvetica,sans-Serif" font-size="10.00" fill="grey">+sigma_limit</text>
<text text-anchor="middle" x="759" y="-335" font-family="Helvetica,sans-Serif" font-size="10.00" fill="grey">+tau</text>
</g>
<!-- Node11 -->
<g id="Node000011" class="node">
<title>Node11</title>
<g id="a_Node000011"><a xlink:title=" ">
<path fill="#fff0f0" stroke="red" d="M841.5,-514C841.5,-514 764.5,-514 764.5,-514 758.5,-514 752.5,-508 752.5,-502 752.5,-502 752.5,-469 752.5,-469 752.5,-463 758.5,-457 764.5,-457 764.5,-457 841.5,-457 841.5,-457 847.5,-457 853.5,-463 853.5,-469 853.5,-469 853.5,-502 853.5,-502 853.5,-508 847.5,-514 841.5,-514"/>
<text text-anchor="start" x="766" y="-497.5" font-family="Helvetica,sans-Serif" font-size="10.00">vector&lt; bool &gt;</text>
<text text-anchor="start" x="801.5" y="-482.5" font-family="Helvetica,sans-Serif" font-size="10.00"> </text>
<text text-anchor="start" x="801.5" y="-467.5" font-family="Helvetica,sans-Serif" font-size="10.00"> </text>
<polygon fill="red" stroke="red" points="761,-492.5 761,-492.5 846,-492.5 846,-492.5 761,-492.5"/>
<polygon fill="red" stroke="red" points="761,-477.5 761,-477.5 846,-477.5 846,-477.5 761,-477.5"/>
<polygon fill="none" stroke="red" points="760.5,-461 760.5,-510 845.5,-510 845.5,-461 760.5,-461"/>
</a>
</g>
</g>
<!-- Node11&#45;&gt;Node8 -->
<g id="edge8_Node000008_Node000011" class="edge">
<title>Node11&#45;&gt;Node8</title>
<g id="a_edge8_Node000008_Node000011"><a xlink:title=" ">
<path fill="none" stroke="#63b8ff" d="M802.88,-457C802.7,-416.94 802.38,-342.32 802.17,-296.28"/>
<polygon fill="none" stroke="#63b8ff" points="802.17,-296.1 798.15,-290.12 802.12,-284.1 806.15,-290.08 802.17,-296.1"/>
</a>
</g>
<text text-anchor="middle" x="853" y="-373.5" font-family="Helvetica,sans-Serif" font-size="10.00" fill="grey"> +estimate</text>
<text text-anchor="middle" x="853" y="-362.5" font-family="Helvetica,sans-Serif" font-size="10.00" fill="grey">+use_remote_sigma</text>
</g>
<!-- Node12 -->
<g id="Node000012" class="node">
<title>Node12</title>
<g id="a_Node000012"><a xlink:title=" ">
<path fill="#fff0f0" stroke="red" d="M969,-514C969,-514 885,-514 885,-514 879,-514 873,-508 873,-502 873,-502 873,-469 873,-469 873,-463 879,-457 885,-457 885,-457 969,-457 969,-457 975,-457 981,-463 981,-469 981,-469 981,-502 981,-502 981,-508 975,-514 969,-514"/>
<text text-anchor="start" x="886" y="-497.5" font-family="Helvetica,sans-Serif" font-size="10.00">vector&lt; string &gt;</text>
<text text-anchor="start" x="925" y="-482.5" font-family="Helvetica,sans-Serif" font-size="10.00"> </text>
<text text-anchor="start" x="925" y="-467.5" font-family="Helvetica,sans-Serif" font-size="10.00"> </text>
<polygon fill="red" stroke="red" points="881,-492.5 881,-492.5 973,-492.5 973,-492.5 881,-492.5"/>
<polygon fill="red" stroke="red" points="881,-477.5 881,-477.5 973,-477.5 973,-477.5 881,-477.5"/>
<polygon fill="none" stroke="red" points="881,-461 881,-510 973,-510 973,-461 881,-461"/>
</a>
</g>
</g>
<!-- Node12&#45;&gt;Node8 -->
<g id="edge9_Node000008_Node000012" class="edge">
<title>Node12&#45;&gt;Node8</title>
<g id="a_edge9_Node000008_Node000012"><a xlink:title=" ">
<path fill="none" stroke="#63b8ff" d="M929.18,-456.77C930.39,-424.48 928.2,-370.64 905,-332 894.98,-315.32 879.73,-301.2 864,-289.85"/>
<polygon fill="none" stroke="#63b8ff" points="863.56,-289.55 856.35,-289.47 853.65,-282.79 860.86,-282.86 863.56,-289.55"/>
</a>
</g>
<text text-anchor="middle" x="956" y="-368" font-family="Helvetica,sans-Serif" font-size="10.00" fill="grey"> +comment</text>
</g>
<!-- Node13 -->
<g id="Node000013" class="node">
<title>Node13</title>
<g id="a_Node000013"><a xlink:title=" ">
<path fill="#fff0f0" stroke="red" d="M1098.5,-514C1098.5,-514 1011.5,-514 1011.5,-514 1005.5,-514 999.5,-508 999.5,-502 999.5,-502 999.5,-469 999.5,-469 999.5,-463 1005.5,-457 1011.5,-457 1011.5,-457 1098.5,-457 1098.5,-457 1104.5,-457 1110.5,-463 1110.5,-469 1110.5,-469 1110.5,-502 1110.5,-502 1110.5,-508 1104.5,-514 1098.5,-514"/>
<text text-anchor="start" x="1013" y="-497.5" font-family="Helvetica,sans-Serif" font-size="10.00">map&lt; int, bool &gt;</text>
<text text-anchor="start" x="1053.5" y="-482.5" font-family="Helvetica,sans-Serif" font-size="10.00"> </text>
<text text-anchor="start" x="1053.5" y="-467.5" font-family="Helvetica,sans-Serif" font-size="10.00"> </text>
<polygon fill="red" stroke="red" points="1008,-492.5 1008,-492.5 1103,-492.5 1103,-492.5 1008,-492.5"/>
<polygon fill="red" stroke="red" points="1008,-477.5 1008,-477.5 1103,-477.5 1103,-477.5 1008,-477.5"/>
<polygon fill="none" stroke="red" points="1007.5,-461 1007.5,-510 1102.5,-510 1102.5,-461 1007.5,-461"/>
</a>
</g>
</g>
<!-- Node13&#45;&gt;Node8 -->
<g id="edge10_Node000008_Node000013" class="edge">
<title>Node13&#45;&gt;Node8</title>
<g id="a_edge10_Node000008_Node000013"><a xlink:title=" ">
<path fill="none" stroke="#63b8ff" d="M1049.75,-456.92C1042,-423.25 1024.41,-366.55 989,-332 955.2,-299.03 905.11,-279.84 865.28,-269.07"/>
<polygon fill="none" stroke="#63b8ff" points="865.17,-269.04 858.36,-271.42 853.54,-266.05 860.35,-263.67 865.17,-269.04"/>
</a>
</g>
<text text-anchor="middle" x="1075.5" y="-368" font-family="Helvetica,sans-Serif" font-size="10.00" fill="grey"> +initialisedMap</text>
</g>
</g>
</svg>
