<?xml version="1.0" encoding="UTF-8" standalone="no"?>
<!DOCTYPE svg PUBLIC "-//W3C//DTD SVG 1.1//EN"
 "http://www.w3.org/Graphics/SVG/1.1/DTD/svg11.dtd">
<!-- Generated by graphviz version 2.43.0 (0)
 -->
<!-- Title: Pseudo Pages: 1 -->
<svg width="528pt" height="1145pt"
 viewBox="0.00 0.00 527.50 1145.00" xmlns="http://www.w3.org/2000/svg" xmlns:xlink="http://www.w3.org/1999/xlink">
<g id="graph0" class="graph" transform="scale(1 1) rotate(0) translate(4 1141)">
<title>Pseudo</title>
<!-- Node1 -->
<g id="Node000001" class="node">
<title>Node1</title>
<g id="a_Node000001"><a xlink:href="structPseudo.html" target="_top" xlink:title=" ">
<path fill="white" stroke="#666666" stroke-width="2" d="M86,-72C86,-72 42,-72 42,-72 36,-72 30,-66 30,-60 30,-60 30,-12 30,-12 30,-6 36,0 42,0 42,0 86,0 86,0 92,0 98,-6 98,-12 98,-12 98,-60 98,-60 98,-66 92,-72 86,-72"/>
<text text-anchor="start" x="46" y="-56" font-family="Helvetica,sans-Serif" font-size="10.00">Pseudo</text>
<text text-anchor="start" x="42" y="-41" font-family="Helvetica,sans-Serif" font-size="10.00">+</text>
<text text-anchor="start" x="55" y="-41" font-family="Helvetica,sans-Serif" font-size="10.00">value</text>
<text text-anchor="start" x="42" y="-26" font-family="Helvetica,sans-Serif" font-size="10.00">+</text>
<text text-anchor="start" x="55" y="-26" font-family="Helvetica,sans-Serif" font-size="10.00">sigma</text>
<text text-anchor="start" x="62" y="-11" font-family="Helvetica,sans-Serif" font-size="10.00"> </text>
<polygon fill="#666666" stroke="#666666" points="38,-51 38,-51 90,-51 90,-51 38,-51"/>
<polygon fill="#666666" stroke="#666666" points="38,-21 38,-21 53,-21 53,-21 38,-21"/>
<polygon fill="#666666" stroke="#666666" points="53,-21 53,-21 90,-21 90,-21 53,-21"/>
<polygon fill="none" stroke="#666666" points="38,-4 38,-68 90,-68 90,-4 38,-4"/>
</a>
</g>
</g>
<!-- Node2 -->
<g id="Node000002" class="node">
<title>Node2</title>
<g id="a_Node000002"><a xlink:href="structGTime.html" target="_top" xlink:title="Time structure used throughout this software.">
<path fill="white" stroke="#666666" d="M134,-1000C134,-1000 12,-1000 12,-1000 6,-1000 0,-994 0,-988 0,-988 0,-340 0,-340 0,-334 6,-328 12,-328 12,-328 134,-328 134,-328 140,-328 146,-334 146,-340 146,-340 146,-988 146,-988 146,-994 140,-1000 134,-1000"/>
<text text-anchor="start" x="56.5" y="-984" font-family="Helvetica,sans-Serif" font-size="10.00">GTime</text>
<text text-anchor="start" x="12" y="-969" font-family="Helvetica,sans-Serif" font-size="10.00">+</text>
<text text-anchor="start" x="25" y="-969" font-family="Helvetica,sans-Serif" font-size="10.00">cacheN</text>
<text text-anchor="start" x="12" y="-954" font-family="Helvetica,sans-Serif" font-size="10.00">+</text>
<text text-anchor="start" x="25" y="-954" font-family="Helvetica,sans-Serif" font-size="10.00">cacheTime</text>
<text text-anchor="start" x="12" y="-939" font-family="Helvetica,sans-Serif" font-size="10.00">+</text>
<text text-anchor="start" x="25" y="-939" font-family="Helvetica,sans-Serif" font-size="10.00">bigTime</text>
<text text-anchor="start" x="12" y="-924" font-family="Helvetica,sans-Serif" font-size="10.00">+</text>
<text text-anchor="start" x="25" y="-924" font-family="Helvetica,sans-Serif" font-size="10.00">GTime()</text>
<text text-anchor="start" x="12" y="-909" font-family="Helvetica,sans-Serif" font-size="10.00">+</text>
<text text-anchor="start" x="25" y="-909" font-family="Helvetica,sans-Serif" font-size="10.00">GTime()</text>
<text text-anchor="start" x="12" y="-894" font-family="Helvetica,sans-Serif" font-size="10.00">+</text>
<text text-anchor="start" x="25" y="-894" font-family="Helvetica,sans-Serif" font-size="10.00">GTime()</text>
<text text-anchor="start" x="12" y="-879" font-family="Helvetica,sans-Serif" font-size="10.00">+</text>
<text text-anchor="start" x="25" y="-879" font-family="Helvetica,sans-Serif" font-size="10.00">to_string()</text>
<text text-anchor="start" x="12" y="-864" font-family="Helvetica,sans-Serif" font-size="10.00">+</text>
<text text-anchor="start" x="25" y="-864" font-family="Helvetica,sans-Serif" font-size="10.00">to_ISOstring()</text>
<text text-anchor="start" x="12" y="-849" font-family="Helvetica,sans-Serif" font-size="10.00">+</text>
<text text-anchor="start" x="25" y="-849" font-family="Helvetica,sans-Serif" font-size="10.00">to_decYear()</text>
<text text-anchor="start" x="12" y="-834" font-family="Helvetica,sans-Serif" font-size="10.00">+</text>
<text text-anchor="start" x="25" y="-834" font-family="Helvetica,sans-Serif" font-size="10.00">operator==()</text>
<text text-anchor="start" x="12" y="-819" font-family="Helvetica,sans-Serif" font-size="10.00">+</text>
<text text-anchor="start" x="25" y="-819" font-family="Helvetica,sans-Serif" font-size="10.00">operator!=()</text>
<text text-anchor="start" x="12" y="-804" font-family="Helvetica,sans-Serif" font-size="10.00">+</text>
<text text-anchor="start" x="25" y="-804" font-family="Helvetica,sans-Serif" font-size="10.00">operator&lt;()</text>
<text text-anchor="start" x="12" y="-789" font-family="Helvetica,sans-Serif" font-size="10.00">+</text>
<text text-anchor="start" x="25" y="-789" font-family="Helvetica,sans-Serif" font-size="10.00">operator&gt;()</text>
<text text-anchor="start" x="12" y="-774" font-family="Helvetica,sans-Serif" font-size="10.00">+</text>
<text text-anchor="start" x="25" y="-774" font-family="Helvetica,sans-Serif" font-size="10.00">operator&gt;=()</text>
<text text-anchor="start" x="12" y="-759" font-family="Helvetica,sans-Serif" font-size="10.00">+</text>
<text text-anchor="start" x="25" y="-759" font-family="Helvetica,sans-Serif" font-size="10.00">operator+()</text>
<text text-anchor="start" x="12" y="-744" font-family="Helvetica,sans-Serif" font-size="10.00">+</text>
<text text-anchor="start" x="25" y="-744" font-family="Helvetica,sans-Serif" font-size="10.00">operator+()</text>
<text text-anchor="start" x="12" y="-729" font-family="Helvetica,sans-Serif" font-size="10.00">+</text>
<text text-anchor="start" x="25" y="-729" font-family="Helvetica,sans-Serif" font-size="10.00">operator+()</text>
<text text-anchor="start" x="12" y="-714" font-family="Helvetica,sans-Serif" font-size="10.00">+</text>
<text text-anchor="start" x="25" y="-714" font-family="Helvetica,sans-Serif" font-size="10.00">operator+=()</text>
<text text-anchor="start" x="12" y="-699" font-family="Helvetica,sans-Serif" font-size="10.00">+</text>
<text text-anchor="start" x="25" y="-699" font-family="Helvetica,sans-Serif" font-size="10.00">operator&#45;=()</text>
<text text-anchor="start" x="12" y="-684" font-family="Helvetica,sans-Serif" font-size="10.00">+</text>
<text text-anchor="start" x="25" y="-684" font-family="Helvetica,sans-Serif" font-size="10.00">operator&#45;()</text>
<text text-anchor="start" x="12" y="-669" font-family="Helvetica,sans-Serif" font-size="10.00">+</text>
<text text-anchor="start" x="25" y="-669" font-family="Helvetica,sans-Serif" font-size="10.00">operator&#45;()</text>
<text text-anchor="start" x="12" y="-654" font-family="Helvetica,sans-Serif" font-size="10.00">+</text>
<text text-anchor="start" x="25" y="-654" font-family="Helvetica,sans-Serif" font-size="10.00">operator&#45;()</text>
<text text-anchor="start" x="12" y="-639" font-family="Helvetica,sans-Serif" font-size="10.00">+</text>
<text text-anchor="start" x="25" y="-639" font-family="Helvetica,sans-Serif" font-size="10.00">operator++()</text>
<text text-anchor="start" x="12" y="-624" font-family="Helvetica,sans-Serif" font-size="10.00">+</text>
<text text-anchor="start" x="25" y="-624" font-family="Helvetica,sans-Serif" font-size="10.00">GTime()</text>
<text text-anchor="start" x="12" y="-609" font-family="Helvetica,sans-Serif" font-size="10.00">+</text>
<text text-anchor="start" x="25" y="-609" font-family="Helvetica,sans-Serif" font-size="10.00">GTime()</text>
<text text-anchor="start" x="12" y="-594" font-family="Helvetica,sans-Serif" font-size="10.00">+</text>
<text text-anchor="start" x="25" y="-594" font-family="Helvetica,sans-Serif" font-size="10.00">GTime()</text>
<text text-anchor="start" x="12" y="-579" font-family="Helvetica,sans-Serif" font-size="10.00">+</text>
<text text-anchor="start" x="25" y="-579" font-family="Helvetica,sans-Serif" font-size="10.00">GTime()</text>
<text text-anchor="start" x="12" y="-564" font-family="Helvetica,sans-Serif" font-size="10.00">+</text>
<text text-anchor="start" x="25" y="-564" font-family="Helvetica,sans-Serif" font-size="10.00">GTime()</text>
<text text-anchor="start" x="12" y="-549" font-family="Helvetica,sans-Serif" font-size="10.00">+</text>
<text text-anchor="start" x="25" y="-549" font-family="Helvetica,sans-Serif" font-size="10.00">serialize()</text>
<text text-anchor="start" x="12" y="-534" font-family="Helvetica,sans-Serif" font-size="10.00">+</text>
<text text-anchor="start" x="25" y="-534" font-family="Helvetica,sans-Serif" font-size="10.00">floorTime()</text>
<text text-anchor="start" x="12" y="-519" font-family="Helvetica,sans-Serif" font-size="10.00">+</text>
<text text-anchor="start" x="25" y="-519" font-family="Helvetica,sans-Serif" font-size="10.00">gregString()</text>
<text text-anchor="start" x="12" y="-504" font-family="Helvetica,sans-Serif" font-size="10.00">+</text>
<text text-anchor="start" x="25" y="-504" font-family="Helvetica,sans-Serif" font-size="10.00">operator long double()</text>
<text text-anchor="start" x="12" y="-489" font-family="Helvetica,sans-Serif" font-size="10.00">+</text>
<text text-anchor="start" x="25" y="-489" font-family="Helvetica,sans-Serif" font-size="10.00">operator MjDateTT()</text>
<text text-anchor="start" x="12" y="-474" font-family="Helvetica,sans-Serif" font-size="10.00">+</text>
<text text-anchor="start" x="25" y="-474" font-family="Helvetica,sans-Serif" font-size="10.00">operator GEpoch()</text>
<text text-anchor="start" x="12" y="-459" font-family="Helvetica,sans-Serif" font-size="10.00">+</text>
<text text-anchor="start" x="25" y="-459" font-family="Helvetica,sans-Serif" font-size="10.00">operator UtcTime()</text>
<text text-anchor="start" x="12" y="-444" font-family="Helvetica,sans-Serif" font-size="10.00">+</text>
<text text-anchor="start" x="25" y="-444" font-family="Helvetica,sans-Serif" font-size="10.00">operator GWeek()</text>
<text text-anchor="start" x="12" y="-429" font-family="Helvetica,sans-Serif" font-size="10.00">+</text>
<text text-anchor="start" x="25" y="-429" font-family="Helvetica,sans-Serif" font-size="10.00">operator BWeek()</text>
<text text-anchor="start" x="12" y="-414" font-family="Helvetica,sans-Serif" font-size="10.00">+</text>
<text text-anchor="start" x="25" y="-414" font-family="Helvetica,sans-Serif" font-size="10.00">operator GTow()</text>
<text text-anchor="start" x="12" y="-399" font-family="Helvetica,sans-Serif" font-size="10.00">+</text>
<text text-anchor="start" x="25" y="-399" font-family="Helvetica,sans-Serif" font-size="10.00">operator BTow()</text>
<text text-anchor="start" x="12" y="-384" font-family="Helvetica,sans-Serif" font-size="10.00">+</text>
<text text-anchor="start" x="25" y="-384" font-family="Helvetica,sans-Serif" font-size="10.00">operator PTime()</text>
<text text-anchor="start" x="12" y="-369" font-family="Helvetica,sans-Serif" font-size="10.00">+</text>
<text text-anchor="start" x="25" y="-369" font-family="Helvetica,sans-Serif" font-size="10.00">operator string()</text>
<text text-anchor="start" x="12" y="-354" font-family="Helvetica,sans-Serif" font-size="10.00">+</text>
<text text-anchor="start" x="25" y="-354" font-family="Helvetica,sans-Serif" font-size="10.00">operator RTod()</text>
<text text-anchor="start" x="12" y="-339" font-family="Helvetica,sans-Serif" font-size="10.00">+</text>
<text text-anchor="start" x="25" y="-339" font-family="Helvetica,sans-Serif" font-size="10.00">noTime()</text>
<polygon fill="#666666" stroke="#666666" points="8,-979 8,-979 138,-979 138,-979 8,-979"/>
<polygon fill="#666666" stroke="#666666" points="8,-934 8,-934 23,-934 23,-934 8,-934"/>
<polygon fill="#666666" stroke="#666666" points="23,-934 23,-934 138,-934 138,-934 23,-934"/>
<polygon fill="none" stroke="#666666" points="8,-332 8,-996 138,-996 138,-332 8,-332"/>
</a>
</g>
</g>
<!-- Node2&#45;&gt;Node1 -->
<g id="edge1_Node000001_Node000002" class="edge">
<title>Node2&#45;&gt;Node1</title>
<g id="a_edge1_Node000001_Node000002"><a xlink:title=" ">
<path fill="none" stroke="#63b8ff" d="M68.18,-327.55C66.8,-231.58 65.46,-138.44 64.68,-84.47"/>
<polygon fill="none" stroke="#63b8ff" points="64.68,-84.26 60.59,-78.32 64.51,-72.26 68.59,-78.2 64.68,-84.26"/>
</a>
</g>
<text text-anchor="middle" x="85" y="-197.5" font-family="Helvetica,sans-Serif" font-size="10.00" fill="grey"> +time</text>
</g>
<!-- Node4 -->
<g id="Node000004" class="node">
<title>Node4</title>
<g id="a_Node000004"><a xlink:href="structKFKey.html" target="_top" xlink:title="Keys used to interface with Kalman filter objects.">
<path fill="white" stroke="#666666" d="M228.5,-281C228.5,-281 135.5,-281 135.5,-281 129.5,-281 123.5,-275 123.5,-269 123.5,-269 123.5,-131 123.5,-131 123.5,-125 129.5,-119 135.5,-119 135.5,-119 228.5,-119 228.5,-119 234.5,-119 240.5,-125 240.5,-131 240.5,-131 240.5,-269 240.5,-269 240.5,-275 234.5,-281 228.5,-281"/>
<text text-anchor="start" x="167" y="-265" font-family="Helvetica,sans-Serif" font-size="10.00">KFKey</text>
<text text-anchor="start" x="136" y="-250" font-family="Helvetica,sans-Serif" font-size="10.00">+</text>
<text text-anchor="start" x="149" y="-250" font-family="Helvetica,sans-Serif" font-size="10.00">type</text>
<text text-anchor="start" x="136" y="-235" font-family="Helvetica,sans-Serif" font-size="10.00">+</text>
<text text-anchor="start" x="149" y="-235" font-family="Helvetica,sans-Serif" font-size="10.00">num</text>
<text text-anchor="start" x="136" y="-220" font-family="Helvetica,sans-Serif" font-size="10.00">+</text>
<text text-anchor="start" x="149" y="-220" font-family="Helvetica,sans-Serif" font-size="10.00">operator!=()</text>
<text text-anchor="start" x="136" y="-205" font-family="Helvetica,sans-Serif" font-size="10.00">+</text>
<text text-anchor="start" x="149" y="-205" font-family="Helvetica,sans-Serif" font-size="10.00">operator==()</text>
<text text-anchor="start" x="136" y="-190" font-family="Helvetica,sans-Serif" font-size="10.00">+</text>
<text text-anchor="start" x="149" y="-190" font-family="Helvetica,sans-Serif" font-size="10.00">operator&lt;()</text>
<text text-anchor="start" x="136" y="-175" font-family="Helvetica,sans-Serif" font-size="10.00">+</text>
<text text-anchor="start" x="149" y="-175" font-family="Helvetica,sans-Serif" font-size="10.00">operator string()</text>
<text text-anchor="start" x="136" y="-160" font-family="Helvetica,sans-Serif" font-size="10.00">+</text>
<text text-anchor="start" x="149" y="-160" font-family="Helvetica,sans-Serif" font-size="10.00">commaString()</text>
<text text-anchor="start" x="136" y="-145" font-family="Helvetica,sans-Serif" font-size="10.00">+</text>
<text text-anchor="start" x="149" y="-145" font-family="Helvetica,sans-Serif" font-size="10.00">serialize()</text>
<text text-anchor="start" x="136" y="-130" font-family="Helvetica,sans-Serif" font-size="10.00">+</text>
<text text-anchor="start" x="149" y="-130" font-family="Helvetica,sans-Serif" font-size="10.00">emptyString()</text>
<polygon fill="#666666" stroke="#666666" points="132,-260 132,-260 233,-260 233,-260 132,-260"/>
<polygon fill="#666666" stroke="#666666" points="132,-230 132,-230 147,-230 147,-230 132,-230"/>
<polygon fill="#666666" stroke="#666666" points="147,-230 147,-230 233,-230 233,-230 147,-230"/>
<polygon fill="none" stroke="#666666" points="131.5,-123 131.5,-277 232.5,-277 232.5,-123 131.5,-123"/>
</a>
</g>
</g>
<!-- Node2&#45;&gt;Node4 -->
<g id="edge8_Node000004_Node000002" class="edge">
<title>Node2&#45;&gt;Node4</title>
<g id="a_edge8_Node000004_Node000002"><a xlink:title=" ">
<path fill="none" stroke="#63b8ff" d="M71.27,-327.54C74.4,-317.81 77.97,-308.28 82,-299 89.47,-281.81 101.52,-266.09 114.7,-252.5"/>
<polygon fill="none" stroke="#63b8ff" points="114.92,-252.29 116.41,-245.23 123.49,-243.89 122,-250.95 114.92,-252.29"/>
</a>
</g>
<text text-anchor="middle" x="125" y="-302" font-family="Helvetica,sans-Serif" font-size="10.00" fill="grey"> +estimatedTime</text>
</g>
<!-- Node3 -->
<g id="Node000003" class="node">
<title>Node3</title>
<g id="a_Node000003"><a xlink:title=" ">
<path fill="white" stroke="#666666" d="M197,-1137C197,-1137 167,-1137 167,-1137 161,-1137 155,-1131 155,-1125 155,-1125 155,-1092 155,-1092 155,-1086 161,-1080 167,-1080 167,-1080 197,-1080 197,-1080 203,-1080 209,-1086 209,-1092 209,-1092 209,-1125 209,-1125 209,-1131 203,-1137 197,-1137"/>
<text text-anchor="start" x="168" y="-1120.5" font-family="Helvetica,sans-Serif" font-size="10.00">string</text>
<text text-anchor="start" x="180" y="-1105.5" font-family="Helvetica,sans-Serif" font-size="10.00"> </text>
<text text-anchor="start" x="180" y="-1090.5" font-family="Helvetica,sans-Serif" font-size="10.00"> </text>
<polygon fill="#666666" stroke="#666666" points="163,-1115.5 163,-1115.5 201,-1115.5 201,-1115.5 163,-1115.5"/>
<polygon fill="#666666" stroke="#666666" points="163,-1100.5 163,-1100.5 201,-1100.5 201,-1100.5 163,-1100.5"/>
<polygon fill="none" stroke="#666666" points="163,-1084 163,-1133 201,-1133 201,-1084 163,-1084"/>
</a>
</g>
</g>
<!-- Node3&#45;&gt;Node2 -->
<g id="edge2_Node000002_Node000003" class="edge">
<title>Node3&#45;&gt;Node2</title>
<g id="a_edge2_Node000002_Node000003"><a xlink:title=" ">
<path fill="none" stroke="#63b8ff" d="M154.74,-1100.17C135.71,-1093.53 111.54,-1081.68 99,-1062 88.9,-1046.16 80.66,-1029.2 73.99,-1011.54"/>
<polygon fill="none" stroke="#63b8ff" points="73.96,-1011.46 68.18,-1007.15 69.93,-1000.15 75.71,-1004.46 73.96,-1011.46"/>
</a>
</g>
<text text-anchor="middle" x="133.5" y="-1037.5" font-family="Helvetica,sans-Serif" font-size="10.00" fill="grey"> +cacheString</text>
</g>
<!-- Node3&#45;&gt;Node4 -->
<g id="edge5_Node000004_Node000003" class="edge">
<title>Node3&#45;&gt;Node4</title>
<g id="a_edge5_Node000004_Node000003"><a xlink:title=" ">
<path fill="none" stroke="#63b8ff" d="M182,-1079.88C182,-961.51 182,-494.11 182,-293.39"/>
<polygon fill="none" stroke="#63b8ff" points="182,-293.13 178,-287.13 182,-281.13 186,-287.13 182,-293.13"/>
</a>
</g>
<text text-anchor="middle" x="211" y="-667" font-family="Helvetica,sans-Serif" font-size="10.00" fill="grey"> +comment</text>
<text text-anchor="middle" x="211" y="-656" font-family="Helvetica,sans-Serif" font-size="10.00" fill="grey">+str</text>
</g>
<!-- Node8 -->
<g id="Node000008" class="node">
<title>Node8</title>
<g id="a_Node000008"><a xlink:href="structReceiver.html" target="_top" xlink:title="Object to maintain receiver station data.">
<path fill="#fff0f0" stroke="red" d="M372,-775C372,-775 270,-775 270,-775 264,-775 258,-769 258,-763 258,-763 258,-565 258,-565 258,-559 264,-553 270,-553 270,-553 372,-553 372,-553 378,-553 384,-559 384,-565 384,-565 384,-763 384,-763 384,-769 378,-775 372,-775"/>
<text text-anchor="start" x="299.5" y="-759" font-family="Helvetica,sans-Serif" font-size="10.00">Receiver</text>
<text text-anchor="start" x="270" y="-744" font-family="Helvetica,sans-Serif" font-size="10.00">+</text>
<text text-anchor="start" x="283" y="-744" font-family="Helvetica,sans-Serif" font-size="10.00">isPseudoRec</text>
<text text-anchor="start" x="270" y="-729" font-family="Helvetica,sans-Serif" font-size="10.00">+</text>
<text text-anchor="start" x="283" y="-729" font-family="Helvetica,sans-Serif" font-size="10.00">invalid</text>
<text text-anchor="start" x="270" y="-714" font-family="Helvetica,sans-Serif" font-size="10.00">+</text>
<text text-anchor="start" x="283" y="-714" font-family="Helvetica,sans-Serif" font-size="10.00">primaryApriori</text>
<text text-anchor="start" x="270" y="-699" font-family="Helvetica,sans-Serif" font-size="10.00">+</text>
<text text-anchor="start" x="283" y="-699" font-family="Helvetica,sans-Serif" font-size="10.00">aprioriClk</text>
<text text-anchor="start" x="270" y="-684" font-family="Helvetica,sans-Serif" font-size="10.00">+</text>
<text text-anchor="start" x="283" y="-684" font-family="Helvetica,sans-Serif" font-size="10.00">aprioriClkVar</text>
<text text-anchor="start" x="270" y="-669" font-family="Helvetica,sans-Serif" font-size="10.00">+</text>
<text text-anchor="start" x="283" y="-669" font-family="Helvetica,sans-Serif" font-size="10.00">ready</text>
<text text-anchor="start" x="270" y="-654" font-family="Helvetica,sans-Serif" font-size="10.00">+</text>
<text text-anchor="start" x="283" y="-654" font-family="Helvetica,sans-Serif" font-size="10.00">failure</text>
<text text-anchor="start" x="270" y="-639" font-family="Helvetica,sans-Serif" font-size="10.00">+</text>
<text text-anchor="start" x="283" y="-639" font-family="Helvetica,sans-Serif" font-size="10.00">failureSinex</text>
<text text-anchor="start" x="270" y="-624" font-family="Helvetica,sans-Serif" font-size="10.00">+</text>
<text text-anchor="start" x="283" y="-624" font-family="Helvetica,sans-Serif" font-size="10.00">failureAprioriPos</text>
<text text-anchor="start" x="270" y="-609" font-family="Helvetica,sans-Serif" font-size="10.00">+</text>
<text text-anchor="start" x="283" y="-609" font-family="Helvetica,sans-Serif" font-size="10.00">failureEccentricity</text>
<text text-anchor="start" x="270" y="-594" font-family="Helvetica,sans-Serif" font-size="10.00">+</text>
<text text-anchor="start" x="283" y="-594" font-family="Helvetica,sans-Serif" font-size="10.00">failureAntenna</text>
<text text-anchor="start" x="270" y="-579" font-family="Helvetica,sans-Serif" font-size="10.00">+</text>
<text text-anchor="start" x="283" y="-579" font-family="Helvetica,sans-Serif" font-size="10.00">@37</text>
<text text-anchor="start" x="319" y="-564" font-family="Helvetica,sans-Serif" font-size="10.00"> </text>
<polygon fill="red" stroke="red" points="266,-754 266,-754 376,-754 376,-754 266,-754"/>
<polygon fill="red" stroke="red" points="266,-574 266,-574 281,-574 281,-574 266,-574"/>
<polygon fill="red" stroke="red" points="281,-574 281,-574 376,-574 376,-574 281,-574"/>
<polygon fill="none" stroke="red" points="266,-557 266,-771 376,-771 376,-557 266,-557"/>
</a>
</g>
</g>
<!-- Node3&#45;&gt;Node8 -->
<g id="edge7_Node000008_Node000003" class="edge">
<title>Node3&#45;&gt;Node8</title>
<g id="a_edge7_Node000008_Node000003"><a xlink:title=" ">
<path fill="none" stroke="#63b8ff" d="M200.99,-1079.92C214.7,-1058.86 232.73,-1028.67 244,-1000 270.82,-931.77 289.63,-851.87 301.95,-787.22"/>
<polygon fill="none" stroke="#63b8ff" points="301.96,-787.13 299.13,-780.5 304.17,-775.34 307,-781.97 301.96,-787.13"/>
</a>
</g>
<text text-anchor="middle" x="286" y="-1054" font-family="Helvetica,sans-Serif" font-size="10.00" fill="grey"> +id</text>
<text text-anchor="middle" x="286" y="-1043" font-family="Helvetica,sans-Serif" font-size="10.00" fill="grey">+jsonTraceFilename</text>
<text text-anchor="middle" x="286" y="-1032" font-family="Helvetica,sans-Serif" font-size="10.00" fill="grey">+source</text>
<text text-anchor="middle" x="286" y="-1021" font-family="Helvetica,sans-Serif" font-size="10.00" fill="grey">+traceFilename</text>
</g>
<!-- Node4&#45;&gt;Node1 -->
<g id="edge3_Node000001_Node000004" class="edge">
<title>Node4&#45;&gt;Node1</title>
<g id="a_edge3_Node000001_Node000004"><a xlink:title=" ">
<path fill="none" stroke="#63b8ff" d="M123.69,-118.95C114.44,-106.25 105.17,-93.52 96.78,-82"/>
<polygon fill="none" stroke="#63b8ff" points="96.73,-81.93 89.96,-79.43 89.66,-72.23 96.43,-74.72 96.73,-81.93"/>
</a>
</g>
<text text-anchor="middle" x="129" y="-93" font-family="Helvetica,sans-Serif" font-size="10.00" fill="grey"> +kfKey</text>
</g>
<!-- Node5 -->
<g id="Node000005" class="node">
<title>Node5</title>
<g id="a_Node000005"><a xlink:href="structSatSys.html" target="_top" xlink:title="Object holding satellite id, and providing related functions.">
<path fill="#fff0f0" stroke="red" d="M507.5,-812.5C507.5,-812.5 414.5,-812.5 414.5,-812.5 408.5,-812.5 402.5,-806.5 402.5,-800.5 402.5,-800.5 402.5,-527.5 402.5,-527.5 402.5,-521.5 408.5,-515.5 414.5,-515.5 414.5,-515.5 507.5,-515.5 507.5,-515.5 513.5,-515.5 519.5,-521.5 519.5,-527.5 519.5,-527.5 519.5,-800.5 519.5,-800.5 519.5,-806.5 513.5,-812.5 507.5,-812.5"/>
<text text-anchor="start" x="444.5" y="-796" font-family="Helvetica,sans-Serif" font-size="10.00">SatSys</text>
<text text-anchor="start" x="415" y="-781" font-family="Helvetica,sans-Serif" font-size="10.00">+</text>
<text text-anchor="start" x="428" y="-781" font-family="Helvetica,sans-Serif" font-size="10.00">sys</text>
<text text-anchor="start" x="415" y="-766" font-family="Helvetica,sans-Serif" font-size="10.00">+</text>
<text text-anchor="start" x="428" y="-766" font-family="Helvetica,sans-Serif" font-size="10.00">prn</text>
<text text-anchor="start" x="415" y="-751" font-family="Helvetica,sans-Serif" font-size="10.00">+</text>
<text text-anchor="start" x="428" y="-751" font-family="Helvetica,sans-Serif" font-size="10.00">SatSys()</text>
<text text-anchor="start" x="415" y="-736" font-family="Helvetica,sans-Serif" font-size="10.00">+</text>
<text text-anchor="start" x="428" y="-736" font-family="Helvetica,sans-Serif" font-size="10.00">sysChar()</text>
<text text-anchor="start" x="415" y="-721" font-family="Helvetica,sans-Serif" font-size="10.00">+</text>
<text text-anchor="start" x="428" y="-721" font-family="Helvetica,sans-Serif" font-size="10.00">getId()</text>
<text text-anchor="start" x="415" y="-706" font-family="Helvetica,sans-Serif" font-size="10.00">+</text>
<text text-anchor="start" x="428" y="-706" font-family="Helvetica,sans-Serif" font-size="10.00">operator int()</text>
<text text-anchor="start" x="415" y="-691" font-family="Helvetica,sans-Serif" font-size="10.00">+</text>
<text text-anchor="start" x="428" y="-691" font-family="Helvetica,sans-Serif" font-size="10.00">setBlockType()</text>
<text text-anchor="start" x="415" y="-676" font-family="Helvetica,sans-Serif" font-size="10.00">+</text>
<text text-anchor="start" x="428" y="-676" font-family="Helvetica,sans-Serif" font-size="10.00">setSvn()</text>
<text text-anchor="start" x="415" y="-661" font-family="Helvetica,sans-Serif" font-size="10.00">+</text>
<text text-anchor="start" x="428" y="-661" font-family="Helvetica,sans-Serif" font-size="10.00">blockType()</text>
<text text-anchor="start" x="415" y="-646" font-family="Helvetica,sans-Serif" font-size="10.00">+</text>
<text text-anchor="start" x="428" y="-646" font-family="Helvetica,sans-Serif" font-size="10.00">svn()</text>
<text text-anchor="start" x="415" y="-631" font-family="Helvetica,sans-Serif" font-size="10.00">+</text>
<text text-anchor="start" x="428" y="-631" font-family="Helvetica,sans-Serif" font-size="10.00">fromHash()</text>
<text text-anchor="start" x="415" y="-616" font-family="Helvetica,sans-Serif" font-size="10.00">+</text>
<text text-anchor="start" x="428" y="-616" font-family="Helvetica,sans-Serif" font-size="10.00">id()</text>
<text text-anchor="start" x="415" y="-601" font-family="Helvetica,sans-Serif" font-size="10.00">+</text>
<text text-anchor="start" x="428" y="-601" font-family="Helvetica,sans-Serif" font-size="10.00">operator string()</text>
<text text-anchor="start" x="415" y="-586" font-family="Helvetica,sans-Serif" font-size="10.00">+</text>
<text text-anchor="start" x="428" y="-586" font-family="Helvetica,sans-Serif" font-size="10.00">SatSys()</text>
<text text-anchor="start" x="415" y="-571" font-family="Helvetica,sans-Serif" font-size="10.00">+</text>
<text text-anchor="start" x="428" y="-571" font-family="Helvetica,sans-Serif" font-size="10.00">sysName()</text>
<text text-anchor="start" x="415" y="-556" font-family="Helvetica,sans-Serif" font-size="10.00">+</text>
<text text-anchor="start" x="428" y="-556" font-family="Helvetica,sans-Serif" font-size="10.00">serialize()</text>
<text text-anchor="start" x="415" y="-541" font-family="Helvetica,sans-Serif" font-size="10.00">+</text>
<text text-anchor="start" x="428" y="-541" font-family="Helvetica,sans-Serif" font-size="10.00">noSat()</text>
<text text-anchor="start" x="415" y="-526" font-family="Helvetica,sans-Serif" font-size="10.00">+</text>
<text text-anchor="start" x="428" y="-526" font-family="Helvetica,sans-Serif" font-size="10.00">sysFromChar()</text>
<polygon fill="red" stroke="red" points="411,-791 411,-791 512,-791 512,-791 411,-791"/>
<polygon fill="red" stroke="red" points="411,-761 411,-761 426,-761 426,-761 411,-761"/>
<polygon fill="red" stroke="red" points="426,-761 426,-761 512,-761 512,-761 426,-761"/>
<polygon fill="none" stroke="red" points="410.5,-519.5 410.5,-808.5 511.5,-808.5 511.5,-519.5 410.5,-519.5"/>
</a>
</g>
</g>
<!-- Node5&#45;&gt;Node4 -->
<g id="edge4_Node000004_Node000005" class="edge">
<title>Node5&#45;&gt;Node4</title>
<g id="a_edge4_Node000004_Node000005"><a xlink:title=" ">
<path fill="none" stroke="#63b8ff" d="M456.99,-515.38C449.06,-452.9 431.24,-382.18 393,-328 358.61,-279.27 299.04,-245.94 251.95,-225.69"/>
<polygon fill="none" stroke="#63b8ff" points="251.66,-225.57 244.58,-226.95 240.58,-220.95 247.66,-219.57 251.66,-225.57"/>
</a>
</g>
<text text-anchor="middle" x="390" y="-302" font-family="Helvetica,sans-Serif" font-size="10.00" fill="grey"> +Sat</text>
</g>
<!-- Node8&#45;&gt;Node4 -->
<g id="edge6_Node000004_Node000008" class="edge">
<title>Node8&#45;&gt;Node4</title>
<g id="a_edge6_Node000004_Node000008"><a xlink:title=" ">
<path fill="none" stroke="#63b8ff" d="M302.28,-552.96C289.4,-486.71 269.92,-401.28 244,-328 239.85,-316.26 234.9,-304.17 229.64,-292.35"/>
<polygon fill="none" stroke="#63b8ff" points="229.5,-292.03 223.37,-288.23 224.52,-281.11 230.65,-284.91 229.5,-292.03"/>
</a>
</g>
<text text-anchor="middle" x="259" y="-302" font-family="Helvetica,sans-Serif" font-size="10.00" fill="grey"> +rec_ptr</text>
</g>
</g>
</svg>
