<?xml version="1.0" encoding="UTF-8" standalone="no"?>
<!DOCTYPE svg PUBLIC "-//W3C//DTD SVG 1.1//EN"
 "http://www.w3.org/Graphics/SVG/1.1/DTD/svg11.dtd">
<!-- Generated by graphviz version 2.43.0 (0)
 -->
<!-- Title: CommonKalmans Pages: 1 -->
<svg width="507pt" height="449pt"
 viewBox="0.00 0.00 506.50 449.00" xmlns="http://www.w3.org/2000/svg" xmlns:xlink="http://www.w3.org/1999/xlink">
<g id="graph0" class="graph" transform="scale(1 1) rotate(0) translate(4 445)">
<title>CommonKalmans</title>
<!-- Node1 -->
<g id="Node000001" class="node">
<title>Node1</title>
<g id="a_Node000001"><a xlink:href="structCommonKalmans.html" target="_top" xlink:title=" ">
<path fill="white" stroke="#666666" stroke-width="2" d="M288.5,-57C288.5,-57 198.5,-57 198.5,-57 192.5,-57 186.5,-51 186.5,-45 186.5,-45 186.5,-12 186.5,-12 186.5,-6 192.5,0 198.5,0 198.5,0 288.5,0 288.5,0 294.5,0 300.5,-6 300.5,-12 300.5,-12 300.5,-45 300.5,-45 300.5,-51 294.5,-57 288.5,-57"/>
<text text-anchor="start" x="199.5" y="-40.5" font-family="Helvetica,sans-Serif" font-size="10.00">CommonKalmans</text>
<text text-anchor="start" x="201" y="-25.5" font-family="Helvetica,sans-Serif" font-size="10.00">+</text>
<text text-anchor="start" x="216.5" y="-25.5" font-family="Helvetica,sans-Serif" font-size="10.00">pos_rate</text>
<text text-anchor="start" x="201" y="-10.5" font-family="Helvetica,sans-Serif" font-size="10.00">+</text>
<text text-anchor="start" x="216.5" y="-10.5" font-family="Helvetica,sans-Serif" font-size="10.00">operator+=()</text>
<polygon fill="#666666" stroke="#666666" points="194.5,-35.5 194.5,-35.5 292.5,-35.5 292.5,-35.5 194.5,-35.5"/>
<polygon fill="#666666" stroke="#666666" points="194.5,-20.5 194.5,-20.5 214.5,-20.5 214.5,-20.5 194.5,-20.5"/>
<polygon fill="#666666" stroke="#666666" points="214.5,-20.5 214.5,-20.5 292.5,-20.5 292.5,-20.5 214.5,-20.5"/>
<polygon fill="none" stroke="#666666" points="194.5,-4 194.5,-53 292.5,-53 292.5,-4 194.5,-4"/>
</a>
</g>
</g>
<!-- Node2 -->
<g id="Node000002" class="node">
<title>Node2</title>
<g id="a_Node000002"><a xlink:href="structKalmanModel.html" target="_top" xlink:title="Options associated with kalman filter states.">
<path fill="white" stroke="#666666" d="M283,-271C283,-271 204,-271 204,-271 198,-271 192,-265 192,-259 192,-259 192,-226 192,-226 192,-220 198,-214 204,-214 204,-214 283,-214 283,-214 289,-214 295,-220 295,-226 295,-226 295,-259 295,-259 295,-265 289,-271 283,-271"/>
<text text-anchor="start" x="210" y="-254.5" font-family="Helvetica,sans-Serif" font-size="10.00">KalmanModel</text>
<text text-anchor="start" x="242" y="-239.5" font-family="Helvetica,sans-Serif" font-size="10.00"> </text>
<text text-anchor="start" x="204.5" y="-224.5" font-family="Helvetica,sans-Serif" font-size="10.00">+</text>
<text text-anchor="start" x="217.5" y="-224.5" font-family="Helvetica,sans-Serif" font-size="10.00">operator+=()</text>
<polygon fill="#666666" stroke="#666666" points="200.5,-249.5 200.5,-249.5 287.5,-249.5 287.5,-249.5 200.5,-249.5"/>
<polygon fill="#666666" stroke="#666666" points="200.5,-234.5 200.5,-234.5 287.5,-234.5 287.5,-234.5 200.5,-234.5"/>
<polygon fill="none" stroke="#666666" points="200,-218 200,-267 287,-267 287,-218 200,-218"/>
</a>
</g>
</g>
<!-- Node2&#45;&gt;Node1 -->
<g id="edge1_Node000001_Node000002" class="edge">
<title>Node2&#45;&gt;Node1</title>
<g id="a_edge1_Node000001_Node000002"><a xlink:title=" ">
<path fill="none" stroke="#63b8ff" d="M243.5,-213.78C243.5,-176.88 243.5,-111.39 243.5,-69.23"/>
<polygon fill="none" stroke="#63b8ff" points="243.5,-69.22 239.5,-63.22 243.5,-57.22 247.5,-63.22 243.5,-69.22"/>
</a>
</g>
<text text-anchor="middle" x="275.5" y="-188" font-family="Helvetica,sans-Serif" font-size="10.00" fill="grey"> +ant_delta</text>
<text text-anchor="middle" x="275.5" y="-177" font-family="Helvetica,sans-Serif" font-size="10.00" fill="grey">+cd</text>
<text text-anchor="middle" x="275.5" y="-166" font-family="Helvetica,sans-Serif" font-size="10.00" fill="grey">+clk</text>
<text text-anchor="middle" x="275.5" y="-155" font-family="Helvetica,sans-Serif" font-size="10.00" fill="grey">+clk_rate</text>
<text text-anchor="middle" x="275.5" y="-144" font-family="Helvetica,sans-Serif" font-size="10.00" fill="grey">+code_bias</text>
<text text-anchor="middle" x="275.5" y="-133" font-family="Helvetica,sans-Serif" font-size="10.00" fill="grey">+cr</text>
<text text-anchor="middle" x="275.5" y="-122" font-family="Helvetica,sans-Serif" font-size="10.00" fill="grey">+orbit</text>
<text text-anchor="middle" x="275.5" y="-111" font-family="Helvetica,sans-Serif" font-size="10.00" fill="grey">+pco</text>
<text text-anchor="middle" x="275.5" y="-100" font-family="Helvetica,sans-Serif" font-size="10.00" fill="grey">+phase_bias</text>
<text text-anchor="middle" x="275.5" y="-89" font-family="Helvetica,sans-Serif" font-size="10.00" fill="grey">+pos</text>
<text text-anchor="middle" x="275.5" y="-78" font-family="Helvetica,sans-Serif" font-size="10.00" fill="grey">...</text>
</g>
<!-- Node3 -->
<g id="Node000003" class="node">
<title>Node3</title>
<g id="a_Node000003"><a xlink:title=" ">
<path fill="#fff0f0" stroke="red" d="M101,-441C101,-441 12,-441 12,-441 6,-441 0,-435 0,-429 0,-429 0,-396 0,-396 0,-390 6,-384 12,-384 12,-384 101,-384 101,-384 107,-384 113,-390 113,-396 113,-396 113,-429 113,-429 113,-435 107,-441 101,-441"/>
<text text-anchor="start" x="13.5" y="-424.5" font-family="Helvetica,sans-Serif" font-size="10.00">vector&lt; double &gt;</text>
<text text-anchor="start" x="55" y="-409.5" font-family="Helvetica,sans-Serif" font-size="10.00"> </text>
<text text-anchor="start" x="55" y="-394.5" font-family="Helvetica,sans-Serif" font-size="10.00"> </text>
<polygon fill="red" stroke="red" points="8.5,-419.5 8.5,-419.5 105.5,-419.5 105.5,-419.5 8.5,-419.5"/>
<polygon fill="red" stroke="red" points="8.5,-404.5 8.5,-404.5 105.5,-404.5 105.5,-404.5 8.5,-404.5"/>
<polygon fill="none" stroke="red" points="8,-388 8,-437 105,-437 105,-388 8,-388"/>
</a>
</g>
</g>
<!-- Node3&#45;&gt;Node2 -->
<g id="edge2_Node000002_Node000003" class="edge">
<title>Node3&#45;&gt;Node2</title>
<g id="a_edge2_Node000002_Node000003"><a xlink:title=" ">
<path fill="none" stroke="#63b8ff" d="M56.27,-383.9C57.55,-356.3 63.85,-314.4 88.5,-289 112.21,-264.57 148.28,-253.08 179.67,-247.75"/>
<polygon fill="none" stroke="#63b8ff" points="180,-247.7 185.35,-242.86 191.87,-245.93 186.53,-250.77 180,-247.7"/>
</a>
</g>
<text text-anchor="middle" x="127.5" y="-358" font-family="Helvetica,sans-Serif" font-size="10.00" fill="grey"> +apriori_value</text>
<text text-anchor="middle" x="127.5" y="-347" font-family="Helvetica,sans-Serif" font-size="10.00" fill="grey">+mu</text>
<text text-anchor="middle" x="127.5" y="-336" font-family="Helvetica,sans-Serif" font-size="10.00" fill="grey">+outage_limit</text>
<text text-anchor="middle" x="127.5" y="-325" font-family="Helvetica,sans-Serif" font-size="10.00" fill="grey">+process_noise</text>
<text text-anchor="middle" x="127.5" y="-314" font-family="Helvetica,sans-Serif" font-size="10.00" fill="grey">+sigma</text>
<text text-anchor="middle" x="127.5" y="-303" font-family="Helvetica,sans-Serif" font-size="10.00" fill="grey">+sigma_limit</text>
<text text-anchor="middle" x="127.5" y="-292" font-family="Helvetica,sans-Serif" font-size="10.00" fill="grey">+tau</text>
</g>
<!-- Node5 -->
<g id="Node000005" class="node">
<title>Node5</title>
<g id="a_Node000005"><a xlink:title=" ">
<path fill="#fff0f0" stroke="red" d="M220,-441C220,-441 143,-441 143,-441 137,-441 131,-435 131,-429 131,-429 131,-396 131,-396 131,-390 137,-384 143,-384 143,-384 220,-384 220,-384 226,-384 232,-390 232,-396 232,-396 232,-429 232,-429 232,-435 226,-441 220,-441"/>
<text text-anchor="start" x="144.5" y="-424.5" font-family="Helvetica,sans-Serif" font-size="10.00">vector&lt; bool &gt;</text>
<text text-anchor="start" x="180" y="-409.5" font-family="Helvetica,sans-Serif" font-size="10.00"> </text>
<text text-anchor="start" x="180" y="-394.5" font-family="Helvetica,sans-Serif" font-size="10.00"> </text>
<polygon fill="red" stroke="red" points="139.5,-419.5 139.5,-419.5 224.5,-419.5 224.5,-419.5 139.5,-419.5"/>
<polygon fill="red" stroke="red" points="139.5,-404.5 139.5,-404.5 224.5,-404.5 224.5,-404.5 139.5,-404.5"/>
<polygon fill="none" stroke="red" points="139,-388 139,-437 224,-437 224,-388 139,-388"/>
</a>
</g>
</g>
<!-- Node5&#45;&gt;Node2 -->
<g id="edge3_Node000002_Node000005" class="edge">
<title>Node5&#45;&gt;Node2</title>
<g id="a_edge3_Node000002_Node000005"><a xlink:title=" ">
<path fill="none" stroke="#63b8ff" d="M174.97,-383.57C170.41,-357.61 167.5,-318.59 182.5,-289 184.1,-285.85 186.02,-282.86 188.19,-280.04"/>
<polygon fill="none" stroke="#63b8ff" points="188.3,-279.92 189.4,-272.79 196.4,-271.06 195.3,-278.19 188.3,-279.92"/>
</a>
</g>
<text text-anchor="middle" x="233.5" y="-330.5" font-family="Helvetica,sans-Serif" font-size="10.00" fill="grey"> +estimate</text>
<text text-anchor="middle" x="233.5" y="-319.5" font-family="Helvetica,sans-Serif" font-size="10.00" fill="grey">+use_remote_sigma</text>
</g>
<!-- Node6 -->
<g id="Node000006" class="node">
<title>Node6</title>
<g id="a_Node000006"><a xlink:title=" ">
<path fill="#fff0f0" stroke="red" d="M348.5,-441C348.5,-441 264.5,-441 264.5,-441 258.5,-441 252.5,-435 252.5,-429 252.5,-429 252.5,-396 252.5,-396 252.5,-390 258.5,-384 264.5,-384 264.5,-384 348.5,-384 348.5,-384 354.5,-384 360.5,-390 360.5,-396 360.5,-396 360.5,-429 360.5,-429 360.5,-435 354.5,-441 348.5,-441"/>
<text text-anchor="start" x="265.5" y="-424.5" font-family="Helvetica,sans-Serif" font-size="10.00">vector&lt; string &gt;</text>
<text text-anchor="start" x="304.5" y="-409.5" font-family="Helvetica,sans-Serif" font-size="10.00"> </text>
<text text-anchor="start" x="304.5" y="-394.5" font-family="Helvetica,sans-Serif" font-size="10.00"> </text>
<polygon fill="red" stroke="red" points="260.5,-419.5 260.5,-419.5 352.5,-419.5 352.5,-419.5 260.5,-419.5"/>
<polygon fill="red" stroke="red" points="260.5,-404.5 260.5,-404.5 352.5,-404.5 352.5,-404.5 260.5,-404.5"/>
<polygon fill="none" stroke="red" points="260.5,-388 260.5,-437 352.5,-437 352.5,-388 260.5,-388"/>
</a>
</g>
</g>
<!-- Node6&#45;&gt;Node2 -->
<g id="edge4_Node000002_Node000006" class="edge">
<title>Node6&#45;&gt;Node2</title>
<g id="a_edge4_Node000002_Node000006"><a xlink:title=" ">
<path fill="none" stroke="#63b8ff" d="M305.84,-383.88C304.26,-358.14 299.33,-319.27 284.5,-289 283.15,-286.24 281.58,-283.53 279.86,-280.88"/>
<polygon fill="none" stroke="#63b8ff" points="279.75,-280.73 272.97,-278.28 272.63,-271.07 279.41,-273.53 279.75,-280.73"/>
</a>
</g>
<text text-anchor="middle" x="332.5" y="-325" font-family="Helvetica,sans-Serif" font-size="10.00" fill="grey"> +comment</text>
</g>
<!-- Node7 -->
<g id="Node000007" class="node">
<title>Node7</title>
<g id="a_Node000007"><a xlink:title=" ">
<path fill="#fff0f0" stroke="red" d="M478,-441C478,-441 391,-441 391,-441 385,-441 379,-435 379,-429 379,-429 379,-396 379,-396 379,-390 385,-384 391,-384 391,-384 478,-384 478,-384 484,-384 490,-390 490,-396 490,-396 490,-429 490,-429 490,-435 484,-441 478,-441"/>
<text text-anchor="start" x="392.5" y="-424.5" font-family="Helvetica,sans-Serif" font-size="10.00">map&lt; int, bool &gt;</text>
<text text-anchor="start" x="433" y="-409.5" font-family="Helvetica,sans-Serif" font-size="10.00"> </text>
<text text-anchor="start" x="433" y="-394.5" font-family="Helvetica,sans-Serif" font-size="10.00"> </text>
<polygon fill="red" stroke="red" points="387.5,-419.5 387.5,-419.5 482.5,-419.5 482.5,-419.5 387.5,-419.5"/>
<polygon fill="red" stroke="red" points="387.5,-404.5 387.5,-404.5 482.5,-404.5 482.5,-404.5 387.5,-404.5"/>
<polygon fill="none" stroke="red" points="387,-388 387,-437 482,-437 482,-388 387,-388"/>
</a>
</g>
</g>
<!-- Node7&#45;&gt;Node2 -->
<g id="edge5_Node000002_Node000007" class="edge">
<title>Node7&#45;&gt;Node2</title>
<g id="a_edge5_Node000002_Node000007"><a xlink:title=" ">
<path fill="none" stroke="#63b8ff" d="M425.39,-383.96C414.96,-356.41 395.37,-314.54 365.5,-289 348.76,-274.69 327.09,-264.68 306.67,-257.77"/>
<polygon fill="none" stroke="#63b8ff" points="306.62,-257.75 299.69,-259.77 295.17,-254.15 302.1,-252.14 306.62,-257.75"/>
</a>
</g>
<text text-anchor="middle" x="458" y="-325" font-family="Helvetica,sans-Serif" font-size="10.00" fill="grey"> +initialisedMap</text>
</g>
</g>
</svg>
