<?xml version="1.0" encoding="UTF-8" standalone="no"?>
<!DOCTYPE svg PUBLIC "-//W3C//DTD SVG 1.1//EN"
 "http://www.w3.org/Graphics/SVG/1.1/DTD/svg11.dtd">
<!-- Generated by graphviz version 2.43.0 (0)
 -->
<!-- Title: ACSConfig::getRecOpts Pages: 1 -->
<svg width="654pt" height="1413pt"
 viewBox="0.00 0.00 654.00 1413.00" xmlns="http://www.w3.org/2000/svg" xmlns:xlink="http://www.w3.org/1999/xlink">
<g id="graph0" class="graph" transform="scale(1 1) rotate(0) translate(4 1409)">
<title>ACSConfig::getRecOpts</title>
<!-- Node1 -->
<g id="Node000001" class="node">
<title>Node1</title>
<g id="a_Node000001"><a xlink:href="structACSConfig.html#acbb130e061ba4b7bf620e4fb68e1b794" target="_top" xlink:title="Set receiver options for a specific receiver using a hierarchy of sources.">
<path fill="#fff0f0" stroke="red" stroke-width="2" d="M639.67,-711C639.67,-711 523.33,-711 523.33,-711 520.17,-711 517,-707.83 517,-704.67 517,-704.67 517,-698.33 517,-698.33 517,-695.17 520.17,-692 523.33,-692 523.33,-692 639.67,-692 639.67,-692 642.83,-692 646,-695.17 646,-698.33 646,-698.33 646,-704.67 646,-704.67 646,-707.83 642.83,-711 639.67,-711"/>
<text text-anchor="middle" x="581.5" y="-699" font-family="Helvetica,sans-Serif" font-size="10.00">ACSConfig::getRecOpts</text>
</a>
</g>
</g>
<!-- Node2 -->
<g id="Node000002" class="node">
<title>Node2</title>
<g id="a_Node000002"><a xlink:href="inputs_8cpp.html#ab3449f085d46135293be1aa43f96915f" target="_top" xlink:title="Create a receiver object from an input.">
<path fill="#fff0f0" stroke="red" d="M456.17,-1405C456.17,-1405 367.83,-1405 367.83,-1405 364.67,-1405 361.5,-1401.83 361.5,-1398.67 361.5,-1398.67 361.5,-1392.33 361.5,-1392.33 361.5,-1389.17 364.67,-1386 367.83,-1386 367.83,-1386 456.17,-1386 456.17,-1386 459.33,-1386 462.5,-1389.17 462.5,-1392.33 462.5,-1392.33 462.5,-1398.67 462.5,-1398.67 462.5,-1401.83 459.33,-1405 456.17,-1405"/>
<text text-anchor="middle" x="412" y="-1393" font-family="Helvetica,sans-Serif" font-size="10.00">addReceiverData</text>
</a>
</g>
</g>
<!-- Node1&#45;&gt;Node2 -->
<g id="edge1_Node000001_Node000002" class="edge">
<title>Node1&#45;&gt;Node2</title>
<g id="a_edge1_Node000001_Node000002"><a xlink:title=" ">
<path fill="none" stroke="#63b8ff" d="M580.41,-721.37C579.57,-822.26 570.79,-1276.98 481,-1377.5 476.04,-1383.06 469.58,-1386.99 462.62,-1389.75"/>
<polygon fill="#63b8ff" stroke="#63b8ff" points="583.91,-721.34 580.48,-711.32 576.91,-721.3 583.91,-721.34"/>
</a>
</g>
</g>
<!-- Node6 -->
<g id="Node000006" class="node">
<title>Node6</title>
<g id="a_Node000006"><a xlink:href="main_8cpp.html#a85051f6840a4b64c19e25a4b461723e4" target="_top" xlink:title=" ">
<path fill="#fff0f0" stroke="red" d="M451.17,-1368C451.17,-1368 372.83,-1368 372.83,-1368 369.67,-1368 366.5,-1364.83 366.5,-1361.67 366.5,-1361.67 366.5,-1355.33 366.5,-1355.33 366.5,-1352.17 369.67,-1349 372.83,-1349 372.83,-1349 451.17,-1349 451.17,-1349 454.33,-1349 457.5,-1352.17 457.5,-1355.33 457.5,-1355.33 457.5,-1361.67 457.5,-1361.67 457.5,-1364.83 454.33,-1368 451.17,-1368"/>
<text text-anchor="middle" x="412" y="-1356" font-family="Helvetica,sans-Serif" font-size="10.00">avoidCollisions</text>
</a>
</g>
</g>
<!-- Node1&#45;&gt;Node6 -->
<g id="edge2_Node000001_Node000006" class="edge">
<title>Node1&#45;&gt;Node6</title>
<g id="a_edge2_Node000001_Node000006"><a xlink:title=" ">
<path fill="none" stroke="#63b8ff" d="M580.04,-721.17C577.43,-817.4 561.48,-1237.72 481,-1334.5 474.92,-1341.82 466.45,-1346.9 457.56,-1350.44"/>
<polygon fill="#63b8ff" stroke="#63b8ff" points="583.54,-721.18 580.3,-711.09 576.55,-721 583.54,-721.18"/>
</a>
</g>
</g>
<!-- Node7 -->
<g id="Node000007" class="node">
<title>Node7</title>
<g id="a_Node000007"><a xlink:href="localAtmosRegion_8cpp.html#a4f2c14c2994a3bb5761636e9196b34e8" target="_top" xlink:title=" ">
<path fill="#fff0f0" stroke="red" d="M278.17,-1311C278.17,-1311 174.83,-1311 174.83,-1311 171.67,-1311 168.5,-1307.83 168.5,-1304.67 168.5,-1304.67 168.5,-1298.33 168.5,-1298.33 168.5,-1295.17 171.67,-1292 174.83,-1292 174.83,-1292 278.17,-1292 278.17,-1292 281.33,-1292 284.5,-1295.17 284.5,-1298.33 284.5,-1298.33 284.5,-1304.67 284.5,-1304.67 284.5,-1307.83 281.33,-1311 278.17,-1311"/>
<text text-anchor="middle" x="226.5" y="-1299" font-family="Helvetica,sans-Serif" font-size="10.00">configAtmosRegions</text>
</a>
</g>
</g>
<!-- Node1&#45;&gt;Node7 -->
<g id="edge3_Node000001_Node000007" class="edge">
<title>Node1&#45;&gt;Node7</title>
<g id="a_edge3_Node000001_Node000007"><a xlink:title=" ">
<path fill="none" stroke="#63b8ff" d="M580.47,-721.34C579.86,-816.45 571.94,-1224.4 481,-1301.5 415.71,-1356.86 303.3,-1328.1 253.06,-1311.08"/>
<polygon fill="#63b8ff" stroke="#63b8ff" points="583.97,-721.35 580.51,-711.33 576.97,-721.32 583.97,-721.35"/>
</a>
</g>
</g>
<!-- Node4 -->
<g id="Node000004" class="node">
<title>Node4</title>
<g id="a_Node000004"><a xlink:href="main_8cpp.html#a3c04138a5bfe5d72780bb7e82a18e627" target="_top" xlink:title=" ">
<path fill="#fff0f0" stroke="red" d="M69.17,-862C69.17,-862 40.83,-862 40.83,-862 37.67,-862 34.5,-858.83 34.5,-855.67 34.5,-855.67 34.5,-849.33 34.5,-849.33 34.5,-846.17 37.67,-843 40.83,-843 40.83,-843 69.17,-843 69.17,-843 72.33,-843 75.5,-846.17 75.5,-849.33 75.5,-849.33 75.5,-855.67 75.5,-855.67 75.5,-858.83 72.33,-862 69.17,-862"/>
<text text-anchor="middle" x="55" y="-850" font-family="Helvetica,sans-Serif" font-size="10.00">main</text>
</a>
</g>
</g>
<!-- Node1&#45;&gt;Node4 -->
<g id="edge22_Node000001_Node000004" class="edge">
<title>Node1&#45;&gt;Node4</title>
<g id="a_edge22_Node000001_Node000004"><a xlink:title=" ">
<path fill="none" stroke="#63b8ff" d="M575.38,-720.96C564.62,-757.78 535.99,-837.42 481,-876.5 359.08,-963.14 289.81,-949.59 146,-908.5 114.33,-899.45 82.94,-875.68 66.93,-862.2"/>
<polygon fill="#63b8ff" stroke="#63b8ff" points="578.84,-721.58 578.16,-711 572.1,-719.7 578.84,-721.58"/>
</a>
</g>
</g>
<!-- Node8 -->
<g id="Node000008" class="node">
<title>Node8</title>
<g id="a_Node000008"><a xlink:href="acsQC_8cpp.html#a9a7675a515de2802ed917e9d32dd897d" target="_top" xlink:title="Cycle slip detection for dual&#45;frequency.">
<path fill="#fff0f0" stroke="red" d="M438.17,-1292C438.17,-1292 385.83,-1292 385.83,-1292 382.67,-1292 379.5,-1288.83 379.5,-1285.67 379.5,-1285.67 379.5,-1279.33 379.5,-1279.33 379.5,-1276.17 382.67,-1273 385.83,-1273 385.83,-1273 438.17,-1273 438.17,-1273 441.33,-1273 444.5,-1276.17 444.5,-1279.33 444.5,-1279.33 444.5,-1285.67 444.5,-1285.67 444.5,-1288.83 441.33,-1292 438.17,-1292"/>
<text text-anchor="middle" x="412" y="-1280" font-family="Helvetica,sans-Serif" font-size="10.00">cycleslip2</text>
</a>
</g>
</g>
<!-- Node1&#45;&gt;Node8 -->
<g id="edge5_Node000001_Node000008" class="edge">
<title>Node1&#45;&gt;Node8</title>
<g id="a_edge5_Node000001_Node000008"><a xlink:title=" ">
<path fill="none" stroke="#63b8ff" d="M579.77,-721.37C576.06,-811.67 556.38,-1182.52 481,-1264.5 471.74,-1274.57 457.57,-1279.27 444.55,-1281.38"/>
<polygon fill="#63b8ff" stroke="#63b8ff" points="583.27,-721.49 580.16,-711.37 576.27,-721.22 583.27,-721.49"/>
</a>
</g>
</g>
<!-- Node9 -->
<g id="Node000009" class="node">
<title>Node9</title>
<g id="a_Node000009"><a xlink:href="acsQC_8cpp.html#a7b37fc255c80330a5497de5bee8f2dbb" target="_top" xlink:title="Cycle slip detection and repair.">
<path fill="#fff0f0" stroke="red" d="M252.67,-1255C252.67,-1255 200.33,-1255 200.33,-1255 197.17,-1255 194,-1251.83 194,-1248.67 194,-1248.67 194,-1242.33 194,-1242.33 194,-1239.17 197.17,-1236 200.33,-1236 200.33,-1236 252.67,-1236 252.67,-1236 255.83,-1236 259,-1239.17 259,-1242.33 259,-1242.33 259,-1248.67 259,-1248.67 259,-1251.83 255.83,-1255 252.67,-1255"/>
<text text-anchor="middle" x="226.5" y="-1243" font-family="Helvetica,sans-Serif" font-size="10.00">detectslip</text>
</a>
</g>
</g>
<!-- Node1&#45;&gt;Node9 -->
<g id="edge12_Node000001_Node000009" class="edge">
<title>Node1&#45;&gt;Node9</title>
<g id="a_edge12_Node000001_Node000009"><a xlink:title=" ">
<path fill="none" stroke="#63b8ff" d="M578.35,-721.45C569.94,-795.92 536.93,-1056.35 481,-1114.5 436.82,-1160.44 399.71,-1124.41 343,-1153.5 298.75,-1176.2 255.24,-1217.33 236.76,-1235.92"/>
<polygon fill="#63b8ff" stroke="#63b8ff" points="581.87,-721.48 579.49,-711.15 574.91,-720.71 581.87,-721.48"/>
</a>
</g>
</g>
<!-- Node15 -->
<g id="Node000015" class="node">
<title>Node15</title>
<g id="a_Node000015"><a xlink:href="acsQC_8cpp.html#a5278f59e23c92b2a1912d5dde5e2f809" target="_top" xlink:title="Cycle slip detection and repair for triple&#45;frequency.">
<path fill="#fff0f0" stroke="red" d="M438.17,-1255C438.17,-1255 385.83,-1255 385.83,-1255 382.67,-1255 379.5,-1251.83 379.5,-1248.67 379.5,-1248.67 379.5,-1242.33 379.5,-1242.33 379.5,-1239.17 382.67,-1236 385.83,-1236 385.83,-1236 438.17,-1236 438.17,-1236 441.33,-1236 444.5,-1239.17 444.5,-1242.33 444.5,-1242.33 444.5,-1248.67 444.5,-1248.67 444.5,-1251.83 441.33,-1255 438.17,-1255"/>
<text text-anchor="middle" x="412" y="-1243" font-family="Helvetica,sans-Serif" font-size="10.00">cycleslip3</text>
</a>
</g>
</g>
<!-- Node1&#45;&gt;Node15 -->
<g id="edge7_Node000001_Node000015" class="edge">
<title>Node1&#45;&gt;Node15</title>
<g id="a_edge7_Node000001_Node000015"><a xlink:title=" ">
<path fill="none" stroke="#63b8ff" d="M579.52,-721.14C574.8,-807.38 551.75,-1151.48 481,-1227.5 471.77,-1237.42 457.75,-1242.13 444.85,-1244.27"/>
<polygon fill="#63b8ff" stroke="#63b8ff" points="583.01,-721.3 580.04,-711.13 576.02,-720.94 583.01,-721.3"/>
</a>
</g>
</g>
<!-- Node16 -->
<g id="Node000016" class="node">
<title>Node16</title>
<g id="a_Node000016"><a xlink:href="debug_8cpp.html#a9779f5f24c300e72581f3858ed638c9e" target="_top" xlink:title=" ">
<path fill="#fff0f0" stroke="red" d="M448.67,-1218C448.67,-1218 375.33,-1218 375.33,-1218 372.17,-1218 369,-1214.83 369,-1211.67 369,-1211.67 369,-1205.33 369,-1205.33 369,-1202.17 372.17,-1199 375.33,-1199 375.33,-1199 448.67,-1199 448.67,-1199 451.83,-1199 455,-1202.17 455,-1205.33 455,-1205.33 455,-1211.67 455,-1211.67 455,-1214.83 451.83,-1218 448.67,-1218"/>
<text text-anchor="middle" x="412" y="-1206" font-family="Helvetica,sans-Serif" font-size="10.00">debugAttitude</text>
</a>
</g>
</g>
<!-- Node1&#45;&gt;Node16 -->
<g id="edge9_Node000001_Node000016" class="edge">
<title>Node1&#45;&gt;Node16</title>
<g id="a_edge9_Node000001_Node000016"><a xlink:title=" ">
<path fill="none" stroke="#63b8ff" d="M579.2,-721.32C573.37,-804.03 547.01,-1120.54 481,-1190.5 474.13,-1197.78 464.68,-1202.25 455.01,-1204.95"/>
<polygon fill="#63b8ff" stroke="#63b8ff" points="582.7,-721.47 579.89,-711.25 575.71,-720.99 582.7,-721.47"/>
</a>
</g>
</g>
<!-- Node17 -->
<g id="Node000017" class="node">
<title>Node17</title>
<g id="a_Node000017"><a xlink:href="rinex_8cpp.html#a774458b36a7a13e1263568e05106dc83" target="_top" xlink:title="Decode obs header.">
<path fill="#fff0f0" stroke="red" d="M444.67,-1181C444.67,-1181 379.33,-1181 379.33,-1181 376.17,-1181 373,-1177.83 373,-1174.67 373,-1174.67 373,-1168.33 373,-1168.33 373,-1165.17 376.17,-1162 379.33,-1162 379.33,-1162 444.67,-1162 444.67,-1162 447.83,-1162 451,-1165.17 451,-1168.33 451,-1168.33 451,-1174.67 451,-1174.67 451,-1177.83 447.83,-1181 444.67,-1181"/>
<text text-anchor="middle" x="412" y="-1169" font-family="Helvetica,sans-Serif" font-size="10.00">decodeObsH</text>
</a>
</g>
</g>
<!-- Node1&#45;&gt;Node17 -->
<g id="edge10_Node000001_Node000017" class="edge">
<title>Node1&#45;&gt;Node17</title>
<g id="a_edge10_Node000001_Node000017"><a xlink:title=" ">
<path fill="none" stroke="#63b8ff" d="M578.61,-721.4C570.83,-799.25 538.95,-1082.15 481,-1147.5 473.27,-1156.21 462.19,-1161.76 451.2,-1165.3"/>
<polygon fill="#63b8ff" stroke="#63b8ff" points="582.12,-721.38 579.61,-711.09 575.16,-720.7 582.12,-721.38"/>
</a>
</g>
</g>
<!-- Node18 -->
<g id="Node000018" class="node">
<title>Node18</title>
<g id="a_Node000018"><a xlink:href="rinex_8cpp.html#a8751d1a1d98fb7862f17d0a3ebc22310" target="_top" xlink:title="Read rinex header.">
<path fill="#fff0f0" stroke="red" d="M252.67,-862C252.67,-862 200.33,-862 200.33,-862 197.17,-862 194,-858.83 194,-855.67 194,-855.67 194,-849.33 194,-849.33 194,-846.17 197.17,-843 200.33,-843 200.33,-843 252.67,-843 252.67,-843 255.83,-843 259,-846.17 259,-849.33 259,-849.33 259,-855.67 259,-855.67 259,-858.83 255.83,-862 252.67,-862"/>
<text text-anchor="middle" x="226.5" y="-850" font-family="Helvetica,sans-Serif" font-size="10.00">readRnxH</text>
</a>
</g>
</g>
<!-- Node1&#45;&gt;Node18 -->
<g id="edge40_Node000001_Node000018" class="edge">
<title>Node1&#45;&gt;Node18</title>
<g id="a_edge40_Node000001_Node000018"><a xlink:title=" ">
<path fill="none" stroke="#63b8ff" d="M574.33,-682.31C562.42,-648.92 532.78,-581.08 481,-553.5 426.87,-524.66 389.04,-512.98 343,-553.5 248.48,-636.68 391.69,-741.33 307,-834.5 295.1,-847.59 275.87,-852.19 259.3,-853.47"/>
<polygon fill="#63b8ff" stroke="#63b8ff" points="571.04,-683.51 577.58,-691.84 577.66,-681.25 571.04,-683.51"/>
</a>
</g>
</g>
<!-- Node21 -->
<g id="Node000021" class="node">
<title>Node21</title>
<g id="a_Node000021"><a xlink:href="spp_8cpp.html#ad923112e4e6dfdfc8b050b68851fe1d0" target="_top" xlink:title="Estimate receiver position and biases using code measurements.">
<path fill="#fff0f0" stroke="red" d="M430.17,-1105C430.17,-1105 393.83,-1105 393.83,-1105 390.67,-1105 387.5,-1101.83 387.5,-1098.67 387.5,-1098.67 387.5,-1092.33 387.5,-1092.33 387.5,-1089.17 390.67,-1086 393.83,-1086 393.83,-1086 430.17,-1086 430.17,-1086 433.33,-1086 436.5,-1089.17 436.5,-1092.33 436.5,-1092.33 436.5,-1098.67 436.5,-1098.67 436.5,-1101.83 433.33,-1105 430.17,-1105"/>
<text text-anchor="middle" x="412" y="-1093" font-family="Helvetica,sans-Serif" font-size="10.00">estpos</text>
</a>
</g>
</g>
<!-- Node1&#45;&gt;Node21 -->
<g id="edge13_Node000001_Node000021" class="edge">
<title>Node1&#45;&gt;Node21</title>
<g id="a_edge13_Node000001_Node000021"><a xlink:title=" ">
<path fill="none" stroke="#63b8ff" d="M577.87,-721.49C568.25,-791.72 532.79,-1025.71 481,-1077.5 469.43,-1089.07 451.34,-1093.46 436.73,-1095.02"/>
<polygon fill="#63b8ff" stroke="#63b8ff" points="581.37,-721.72 579.24,-711.34 574.44,-720.78 581.37,-721.72"/>
</a>
</g>
</g>
<!-- Node24 -->
<g id="Node000024" class="node">
<title>Node24</title>
<g id="a_Node000024"><a xlink:href="ionoModel_8cpp.html#ae7821a74f98f349d4508712aeced88e1" target="_top" xlink:title="Updating the ionosphere model parameters The ionosphere model should be initialized by calling &#39;confi...">
<path fill="#fff0f0" stroke="red" d="M452.17,-1068C452.17,-1068 371.83,-1068 371.83,-1068 368.67,-1068 365.5,-1064.83 365.5,-1061.67 365.5,-1061.67 365.5,-1055.33 365.5,-1055.33 365.5,-1052.17 368.67,-1049 371.83,-1049 371.83,-1049 452.17,-1049 452.17,-1049 455.33,-1049 458.5,-1052.17 458.5,-1055.33 458.5,-1055.33 458.5,-1061.67 458.5,-1061.67 458.5,-1064.83 455.33,-1068 452.17,-1068"/>
<text text-anchor="middle" x="412" y="-1056" font-family="Helvetica,sans-Serif" font-size="10.00">filterIonosphere</text>
</a>
</g>
</g>
<!-- Node1&#45;&gt;Node24 -->
<g id="edge14_Node000001_Node000024" class="edge">
<title>Node1&#45;&gt;Node24</title>
<g id="a_edge14_Node000001_Node000024"><a xlink:title=" ">
<path fill="none" stroke="#63b8ff" d="M580.95,-721.31C581.16,-779.33 573.5,-950.44 481,-1040.5 474.88,-1046.46 467.02,-1050.51 458.83,-1053.25"/>
<polygon fill="#63b8ff" stroke="#63b8ff" points="584.45,-721.23 580.83,-711.27 577.45,-721.31 584.45,-721.23"/>
</a>
</g>
</g>
<!-- Node27 -->
<g id="Node000027" class="node">
<title>Node27</title>
<g id="a_Node000027"><a xlink:href="erp_8cpp.html#afe3874cc58d609f4ccc2b03a5ef632b8" target="_top" xlink:title="Get earth rotation parameter values.">
<path fill="#fff0f0" stroke="red" d="M429.67,-1031C429.67,-1031 394.33,-1031 394.33,-1031 391.17,-1031 388,-1027.83 388,-1024.67 388,-1024.67 388,-1018.33 388,-1018.33 388,-1015.17 391.17,-1012 394.33,-1012 394.33,-1012 429.67,-1012 429.67,-1012 432.83,-1012 436,-1015.17 436,-1018.33 436,-1018.33 436,-1024.67 436,-1024.67 436,-1027.83 432.83,-1031 429.67,-1031"/>
<text text-anchor="middle" x="412" y="-1019" font-family="Helvetica,sans-Serif" font-size="10.00">getErp</text>
</a>
</g>
</g>
<!-- Node1&#45;&gt;Node27 -->
<g id="edge15_Node000001_Node000027" class="edge">
<title>Node1&#45;&gt;Node27</title>
<g id="a_edge15_Node000001_Node000027"><a xlink:title=" ">
<path fill="none" stroke="#63b8ff" d="M580.12,-721.25C577.99,-774.96 564.47,-924.85 481,-1003.5 469,-1014.81 450.75,-1019.19 436.17,-1020.81"/>
<polygon fill="#63b8ff" stroke="#63b8ff" points="583.63,-721.15 580.43,-711.05 576.63,-720.94 583.63,-721.15"/>
</a>
</g>
</g>
<!-- Node55 -->
<g id="Node000055" class="node">
<title>Node55</title>
<g id="a_Node000055"><a xlink:href="minimumConstraints_8cpp.html#aa40934b017f373d875c3470591eff52e" target="_top" xlink:title=" ">
<path fill="#fff0f0" stroke="red" d="M246.67,-899C246.67,-899 206.33,-899 206.33,-899 203.17,-899 200,-895.83 200,-892.67 200,-892.67 200,-886.33 200,-886.33 200,-883.17 203.17,-880 206.33,-880 206.33,-880 246.67,-880 246.67,-880 249.83,-880 253,-883.17 253,-886.33 253,-886.33 253,-892.67 253,-892.67 253,-895.83 249.83,-899 246.67,-899"/>
<text text-anchor="middle" x="226.5" y="-887" font-family="Helvetica,sans-Serif" font-size="10.00">mincon</text>
</a>
</g>
</g>
<!-- Node1&#45;&gt;Node55 -->
<g id="edge24_Node000001_Node000055" class="edge">
<title>Node1&#45;&gt;Node55</title>
<g id="a_edge24_Node000001_Node000055"><a xlink:title=" ">
<path fill="none" stroke="#63b8ff" d="M573.61,-721.07C560.92,-754 530.5,-819.99 481,-851.5 408.74,-897.51 301.81,-895.81 253.22,-892.14"/>
<polygon fill="#63b8ff" stroke="#63b8ff" points="577.05,-721.86 577.24,-711.26 570.49,-719.43 577.05,-721.86"/>
</a>
</g>
</g>
<!-- Node57 -->
<g id="Node000057" class="node">
<title>Node57</title>
<g id="a_Node000057"><a xlink:href="ppp__pseudoobs_8cpp.html#ab04e5f1ff741cf022a574560b93daddd" target="_top" xlink:title=" ">
<path fill="#fff0f0" stroke="red" d="M103.67,-731C103.67,-731 6.33,-731 6.33,-731 3.17,-731 0,-727.83 0,-724.67 0,-724.67 0,-718.33 0,-718.33 0,-715.17 3.17,-712 6.33,-712 6.33,-712 103.67,-712 103.67,-712 106.83,-712 110,-715.17 110,-718.33 110,-718.33 110,-724.67 110,-724.67 110,-727.83 106.83,-731 103.67,-731"/>
<text text-anchor="middle" x="55" y="-719" font-family="Helvetica,sans-Serif" font-size="10.00">receiverPseudoObs</text>
</a>
</g>
</g>
<!-- Node1&#45;&gt;Node57 -->
<g id="edge41_Node000001_Node000057" class="edge">
<title>Node1&#45;&gt;Node57</title>
<g id="a_edge41_Node000001_Node000057"><a xlink:title=" ">
<path fill="none" stroke="#63b8ff" d="M576.39,-681.71C567.15,-642.91 540.69,-557.61 481,-522.5 428.13,-491.4 403.86,-514.9 343,-522.5 253.37,-533.7 218.56,-518.7 146,-572.5 95.51,-609.94 67.65,-684.9 58.98,-711.7"/>
<polygon fill="#63b8ff" stroke="#63b8ff" points="573.04,-682.75 578.64,-691.74 579.87,-681.22 573.04,-682.75"/>
</a>
</g>
</g>
<!-- Node41 -->
<g id="Node000041" class="node">
<title>Node41</title>
<g id="a_Node000041"><a xlink:href="ppp__slr_8cpp.html#aa76f9747fdfc064d7ec64ae8d163fb86" target="_top" xlink:title=" ">
<path fill="#fff0f0" stroke="red" d="M254.67,-825C254.67,-825 198.33,-825 198.33,-825 195.17,-825 192,-821.83 192,-818.67 192,-818.67 192,-812.33 192,-812.33 192,-809.17 195.17,-806 198.33,-806 198.33,-806 254.67,-806 254.67,-806 257.83,-806 261,-809.17 261,-812.33 261,-812.33 261,-818.67 261,-818.67 261,-821.83 257.83,-825 254.67,-825"/>
<text text-anchor="middle" x="226.5" y="-813" font-family="Helvetica,sans-Serif" font-size="10.00">receiverSlr</text>
</a>
</g>
</g>
<!-- Node1&#45;&gt;Node41 -->
<g id="edge42_Node000001_Node000041" class="edge">
<title>Node1&#45;&gt;Node41</title>
<g id="a_edge42_Node000001_Node000041"><a xlink:title=" ">
<path fill="none" stroke="#63b8ff" d="M576.56,-681.64C567.57,-642.34 541.46,-555.35 481,-519.5 428.24,-488.22 389.07,-479.01 343,-519.5 249.42,-601.75 390.87,-705.37 307,-797.5 295.57,-810.06 277.39,-814.8 261.29,-816.29"/>
<polygon fill="#63b8ff" stroke="#63b8ff" points="573.17,-682.54 578.7,-691.58 580.02,-681.07 573.17,-682.54"/>
</a>
</g>
</g>
<!-- Node37 -->
<g id="Node000037" class="node">
<title>Node37</title>
<g id="a_Node000037"><a xlink:href="ppp__obs_8cpp.html#a2a01ea8204bc0ae172ffc50a28623f9e" target="_top" xlink:title=" ">
<path fill="#fff0f0" stroke="red" d="M272.67,-788C272.67,-788 180.33,-788 180.33,-788 177.17,-788 174,-784.83 174,-781.67 174,-781.67 174,-775.33 174,-775.33 174,-772.17 177.17,-769 180.33,-769 180.33,-769 272.67,-769 272.67,-769 275.83,-769 279,-772.17 279,-775.33 279,-775.33 279,-781.67 279,-781.67 279,-784.83 275.83,-788 272.67,-788"/>
<text text-anchor="middle" x="226.5" y="-776" font-family="Helvetica,sans-Serif" font-size="10.00">receiverUducGnss</text>
</a>
</g>
</g>
<!-- Node1&#45;&gt;Node37 -->
<g id="edge43_Node000001_Node000037" class="edge">
<title>Node1&#45;&gt;Node37</title>
<g id="a_edge43_Node000001_Node000037"><a xlink:title=" ">
<path fill="none" stroke="#63b8ff" d="M579.91,-681.85C577.21,-631.76 562.35,-499.31 481,-443.5 430.43,-408.8 389.07,-403.01 343,-443.5 296.21,-484.62 338.96,-668.03 307,-721.5 293.76,-743.66 268.21,-759.6 249.64,-768.89"/>
<polygon fill="#63b8ff" stroke="#63b8ff" points="576.42,-682.14 580.34,-691.98 583.41,-681.84 576.42,-682.14"/>
</a>
</g>
</g>
<!-- Node79 -->
<g id="Node000079" class="node">
<title>Node79</title>
<g id="a_Node000079"><a xlink:href="tides_8cpp.html#a8c1ecf974982e1054a68a0eb279a45d5" target="_top" xlink:title=" ">
<path fill="#fff0f0" stroke="red" d="M248.67,-600C248.67,-600 204.33,-600 204.33,-600 201.17,-600 198,-596.83 198,-593.67 198,-593.67 198,-587.33 198,-587.33 198,-584.17 201.17,-581 204.33,-581 204.33,-581 248.67,-581 248.67,-581 251.83,-581 255,-584.17 255,-587.33 255,-587.33 255,-593.67 255,-593.67 255,-596.83 251.83,-600 248.67,-600"/>
<text text-anchor="middle" x="226.5" y="-588" font-family="Helvetica,sans-Serif" font-size="10.00">tideDisp</text>
</a>
</g>
</g>
<!-- Node1&#45;&gt;Node79 -->
<g id="edge51_Node000001_Node000079" class="edge">
<title>Node1&#45;&gt;Node79</title>
<g id="a_edge51_Node000001_Node000079"><a xlink:title=" ">
<path fill="none" stroke="#63b8ff" d="M579.95,-681.46C577.07,-593.55 560.69,-243.48 481,-177.5 433.76,-138.38 391.86,-140.43 343,-177.5 274.49,-229.48 235.58,-523.93 228.63,-580.94"/>
<polygon fill="#63b8ff" stroke="#63b8ff" points="576.46,-681.78 580.26,-691.67 583.45,-681.56 576.46,-681.78"/>
</a>
</g>
</g>
<!-- Node85 -->
<g id="Node000085" class="node">
<title>Node85</title>
<g id="a_Node000085"><a xlink:href="ppp__pseudoobs_8cpp.html#ae73c509527efa6401eb80a02825fb7fd" target="_top" xlink:title=" ">
<path fill="#fff0f0" stroke="red" d="M451.67,-994C451.67,-994 372.33,-994 372.33,-994 369.17,-994 366,-990.83 366,-987.67 366,-987.67 366,-981.33 366,-981.33 366,-978.17 369.17,-975 372.33,-975 372.33,-975 451.67,-975 451.67,-975 454.83,-975 458,-978.17 458,-981.33 458,-981.33 458,-987.67 458,-987.67 458,-990.83 454.83,-994 451.67,-994"/>
<text text-anchor="middle" x="412" y="-982" font-family="Helvetica,sans-Serif" font-size="10.00">ionoPseudoObs</text>
</a>
</g>
</g>
<!-- Node1&#45;&gt;Node85 -->
<g id="edge21_Node000001_Node000085" class="edge">
<title>Node1&#45;&gt;Node85</title>
<g id="a_edge21_Node000001_Node000085"><a xlink:title=" ">
<path fill="none" stroke="#63b8ff" d="M578.5,-721.27C572.64,-769.11 551.17,-892.23 481,-960.5 474.54,-966.79 466.33,-971.43 457.88,-974.87"/>
<polygon fill="#63b8ff" stroke="#63b8ff" points="582.02,-721.37 579.66,-711.04 575.06,-720.59 582.02,-721.37"/>
</a>
</g>
</g>
<!-- Node12 -->
<g id="Node000012" class="node">
<title>Node12</title>
<g id="a_Node000012"><a xlink:href="main_8cpp.html#ae9a767ba206649ca2e395dd210c2218b" target="_top" xlink:title="Perform operations for each station This function occurs in parallel with other stations &#45; ensure tha...">
<path fill="#fff0f0" stroke="red" d="M300.67,-712C300.67,-712 152.33,-712 152.33,-712 149.17,-712 146,-708.83 146,-705.67 146,-705.67 146,-699.33 146,-699.33 146,-696.17 149.17,-693 152.33,-693 152.33,-693 300.67,-693 300.67,-693 303.83,-693 307,-696.17 307,-699.33 307,-699.33 307,-705.67 307,-705.67 307,-708.83 303.83,-712 300.67,-712"/>
<text text-anchor="middle" x="226.5" y="-700" font-family="Helvetica,sans-Serif" font-size="10.00">mainOncePerEpochPerStation</text>
</a>
</g>
</g>
<!-- Node1&#45;&gt;Node12 -->
<g id="edge23_Node000001_Node000012" class="edge">
<title>Node1&#45;&gt;Node12</title>
<g id="a_edge23_Node000001_Node000012"><a xlink:title=" ">
<path fill="none" stroke="#63b8ff" d="M574.41,-720.94C562.63,-754.77 533.18,-823.5 481,-851.5 426.96,-880.5 393.72,-885.98 343,-851.5 307.03,-827.05 333.62,-794.9 307,-760.5 290.48,-739.15 264.07,-722.06 246.27,-712.11"/>
<polygon fill="#63b8ff" stroke="#63b8ff" points="577.79,-721.88 577.62,-711.28 571.14,-719.67 577.79,-721.88"/>
</a>
</g>
</g>
<!-- Node87 -->
<g id="Node000087" class="node">
<title>Node87</title>
<g id="a_Node000087"><a xlink:href="ionoMeas_8cpp.html#ab3f111d5e6d66de4751fbce467a29372" target="_top" xlink:title=" ">
<path fill="#fff0f0" stroke="red" d="M444.67,-842C444.67,-842 379.33,-842 379.33,-842 376.17,-842 373,-838.83 373,-835.67 373,-835.67 373,-829.33 373,-829.33 373,-826.17 376.17,-823 379.33,-823 379.33,-823 444.67,-823 444.67,-823 447.83,-823 451,-826.17 451,-829.33 451,-829.33 451,-835.67 451,-835.67 451,-838.83 447.83,-842 444.67,-842"/>
<text text-anchor="middle" x="412" y="-830" font-family="Helvetica,sans-Serif" font-size="10.00">obsIonoData</text>
</a>
</g>
</g>
<!-- Node1&#45;&gt;Node87 -->
<g id="edge25_Node000001_Node000087" class="edge">
<title>Node1&#45;&gt;Node87</title>
<g id="a_edge25_Node000001_Node000087"><a xlink:title=" ">
<path fill="none" stroke="#63b8ff" d="M569.5,-719.67C553.3,-744.84 520.62,-790 481,-814.5 472.07,-820.02 461.46,-823.87 451.32,-826.54"/>
<polygon fill="#63b8ff" stroke="#63b8ff" points="572.54,-721.41 574.88,-711.08 566.61,-717.69 572.54,-721.41"/>
</a>
</g>
</g>
<!-- Node88 -->
<g id="Node000088" class="node">
<title>Node88</title>
<g id="a_Node000088"><a xlink:href="preprocessor_8cpp.html#a5bf581abef6389557c3fdd95086a5c42" target="_top" xlink:title=" ">
<path fill="#fff0f0" stroke="red" d="M446.17,-805C446.17,-805 377.83,-805 377.83,-805 374.67,-805 371.5,-801.83 371.5,-798.67 371.5,-798.67 371.5,-792.33 371.5,-792.33 371.5,-789.17 374.67,-786 377.83,-786 377.83,-786 446.17,-786 446.17,-786 449.33,-786 452.5,-789.17 452.5,-792.33 452.5,-792.33 452.5,-798.67 452.5,-798.67 452.5,-801.83 449.33,-805 446.17,-805"/>
<text text-anchor="middle" x="412" y="-793" font-family="Helvetica,sans-Serif" font-size="10.00">obsVariances</text>
</a>
</g>
</g>
<!-- Node1&#45;&gt;Node88 -->
<g id="edge27_Node000001_Node000088" class="edge">
<title>Node1&#45;&gt;Node88</title>
<g id="a_edge27_Node000001_Node000088"><a xlink:title=" ">
<path fill="none" stroke="#63b8ff" d="M563.21,-718.16C544.42,-735.4 512.8,-761.92 481,-777.5 472.23,-781.8 462.3,-785.17 452.79,-787.77"/>
<polygon fill="#63b8ff" stroke="#63b8ff" points="565.75,-720.58 570.67,-711.19 560.97,-715.46 565.75,-720.58"/>
</a>
</g>
</g>
<!-- Node89 -->
<g id="Node000089" class="node">
<title>Node89</title>
<g id="a_Node000089"><a xlink:href="cost_8cpp.html#abc021ac32635abe4cf6daef44cabb888" target="_top" xlink:title="Outputs troposphere COST file.">
<path fill="#fff0f0" stroke="red" d="M440.67,-768C440.67,-768 383.33,-768 383.33,-768 380.17,-768 377,-764.83 377,-761.67 377,-761.67 377,-755.33 377,-755.33 377,-752.17 380.17,-749 383.33,-749 383.33,-749 440.67,-749 440.67,-749 443.83,-749 447,-752.17 447,-755.33 447,-755.33 447,-761.67 447,-761.67 447,-764.83 443.83,-768 440.67,-768"/>
<text text-anchor="middle" x="412" y="-756" font-family="Helvetica,sans-Serif" font-size="10.00">outputCost</text>
</a>
</g>
</g>
<!-- Node1&#45;&gt;Node89 -->
<g id="edge29_Node000001_Node000089" class="edge">
<title>Node1&#45;&gt;Node89</title>
<g id="a_edge29_Node000001_Node000089"><a xlink:title=" ">
<path fill="none" stroke="#63b8ff" d="M542.91,-714.29C512.06,-724.79 469.06,-739.42 441.13,-748.93"/>
<polygon fill="#63b8ff" stroke="#63b8ff" points="544.12,-717.58 552.46,-711.04 541.87,-710.95 544.12,-717.58"/>
</a>
</g>
</g>
<!-- Node13 -->
<g id="Node000013" class="node">
<title>Node13</title>
<g id="a_Node000013"><a xlink:href="structACSConfig.html#acbe400e2cc2760cbebd28dda6413c4ad" target="_top" xlink:title="Parse options to set acsConfig values.">
<path fill="#fff0f0" stroke="red" d="M270.17,-675C270.17,-675 182.83,-675 182.83,-675 179.67,-675 176.5,-671.83 176.5,-668.67 176.5,-668.67 176.5,-662.33 176.5,-662.33 176.5,-659.17 179.67,-656 182.83,-656 182.83,-656 270.17,-656 270.17,-656 273.33,-656 276.5,-659.17 276.5,-662.33 276.5,-662.33 276.5,-668.67 276.5,-668.67 276.5,-671.83 273.33,-675 270.17,-675"/>
<text text-anchor="middle" x="226.5" y="-663" font-family="Helvetica,sans-Serif" font-size="10.00">ACSConfig::parse</text>
</a>
</g>
</g>
<!-- Node1&#45;&gt;Node13 -->
<g id="edge30_Node000001_Node000013" class="edge">
<title>Node1&#45;&gt;Node13</title>
<g id="a_edge30_Node000001_Node000013"><a xlink:title=" ">
<path fill="none" stroke="#63b8ff" d="M506.74,-709.74C459.39,-713.02 396.88,-713.58 343,-701.5 325.73,-697.63 323.69,-690.37 307,-684.5 296.69,-680.88 285.39,-677.72 274.63,-675.06"/>
<polygon fill="#63b8ff" stroke="#63b8ff" points="507.21,-713.22 516.92,-708.98 506.68,-706.24 507.21,-713.22"/>
</a>
</g>
</g>
<!-- Node90 -->
<g id="Node000090" class="node">
<title>Node90</title>
<g id="a_Node000090"><a xlink:href="ppp__obs_8cpp.html#a9b2ff8aad927c7fc5fd2303a9d473f3e" target="_top" xlink:title=" ">
<path fill="#fff0f0" stroke="red" d="M454.67,-692C454.67,-692 369.33,-692 369.33,-692 366.17,-692 363,-688.83 363,-685.67 363,-685.67 363,-679.33 363,-679.33 363,-676.17 366.17,-673 369.33,-673 369.33,-673 454.67,-673 454.67,-673 457.83,-673 461,-676.17 461,-679.33 461,-679.33 461,-685.67 461,-685.67 461,-688.83 457.83,-692 454.67,-692"/>
<text text-anchor="middle" x="412" y="-680" font-family="Helvetica,sans-Serif" font-size="10.00">pppRecCodeBias</text>
</a>
</g>
</g>
<!-- Node1&#45;&gt;Node90 -->
<g id="edge32_Node000001_Node000090" class="edge">
<title>Node1&#45;&gt;Node90</title>
<g id="a_edge32_Node000001_Node000090"><a xlink:title=" ">
<path fill="none" stroke="#63b8ff" d="M506.67,-693.13C491.28,-691.38 475.43,-689.58 461.25,-687.97"/>
<polygon fill="#63b8ff" stroke="#63b8ff" points="506.37,-696.61 516.7,-694.26 507.16,-689.66 506.37,-696.61"/>
</a>
</g>
</g>
<!-- Node11 -->
<g id="Node000011" class="node">
<title>Node11</title>
<g id="a_Node000011"><a xlink:href="preprocessor_8cpp.html#a4fe89d45413a11705ec5dc9999e6daac" target="_top" xlink:title=" ">
<path fill="#fff0f0" stroke="red" d="M445.67,-655C445.67,-655 378.33,-655 378.33,-655 375.17,-655 372,-651.83 372,-648.67 372,-648.67 372,-642.33 372,-642.33 372,-639.17 375.17,-636 378.33,-636 378.33,-636 445.67,-636 445.67,-636 448.83,-636 452,-639.17 452,-642.33 452,-642.33 452,-648.67 452,-648.67 452,-651.83 448.83,-655 445.67,-655"/>
<text text-anchor="middle" x="412" y="-643" font-family="Helvetica,sans-Serif" font-size="10.00">preprocessor</text>
</a>
</g>
</g>
<!-- Node1&#45;&gt;Node11 -->
<g id="edge34_Node000001_Node000011" class="edge">
<title>Node1&#45;&gt;Node11</title>
<g id="a_edge34_Node000001_Node000011"><a xlink:title=" ">
<path fill="none" stroke="#63b8ff" d="M547.07,-688.27C527.88,-680.88 503.24,-671.73 481,-664.5 470.74,-661.17 459.5,-657.88 449.16,-655"/>
<polygon fill="#63b8ff" stroke="#63b8ff" points="545.98,-691.61 556.57,-691.96 548.51,-685.08 545.98,-691.61"/>
</a>
</g>
</g>
<!-- Node91 -->
<g id="Node000091" class="node">
<title>Node91</title>
<g id="a_Node000091"><a xlink:href="ppp__pseudoobs_8cpp.html#accfefc993178e71db6783bbe525342a7" target="_top" xlink:title=" ">
<path fill="#fff0f0" stroke="red" d="M450.17,-618C450.17,-618 373.83,-618 373.83,-618 370.67,-618 367.5,-614.83 367.5,-611.67 367.5,-611.67 367.5,-605.33 367.5,-605.33 367.5,-602.17 370.67,-599 373.83,-599 373.83,-599 450.17,-599 450.17,-599 453.33,-599 456.5,-602.17 456.5,-605.33 456.5,-605.33 456.5,-611.67 456.5,-611.67 456.5,-614.83 453.33,-618 450.17,-618"/>
<text text-anchor="middle" x="412" y="-606" font-family="Helvetica,sans-Serif" font-size="10.00">pseudoRecDcb</text>
</a>
</g>
</g>
<!-- Node1&#45;&gt;Node91 -->
<g id="edge38_Node000001_Node000091" class="edge">
<title>Node1&#45;&gt;Node91</title>
<g id="a_edge38_Node000001_Node000091"><a xlink:title=" ">
<path fill="none" stroke="#63b8ff" d="M562.78,-685.11C543.85,-668.42 512.32,-642.86 481,-627.5 473.3,-623.72 464.72,-620.59 456.33,-618.03"/>
<polygon fill="#63b8ff" stroke="#63b8ff" points="560.54,-687.8 570.31,-691.88 565.21,-682.6 560.54,-687.8"/>
</a>
</g>
</g>
<!-- Node92 -->
<g id="Node000092" class="node">
<title>Node92</title>
<g id="a_Node000092"><a xlink:href="ppp__ambres_8cpp.html#a020b06329797411a2dc7746aadd19361" target="_top" xlink:title=" ">
<path fill="#fff0f0" stroke="red" d="M445.67,-581C445.67,-581 378.33,-581 378.33,-581 375.17,-581 372,-577.83 372,-574.67 372,-574.67 372,-568.33 372,-568.33 372,-565.17 375.17,-562 378.33,-562 378.33,-562 445.67,-562 445.67,-562 448.83,-562 452,-565.17 452,-568.33 452,-568.33 452,-574.67 452,-574.67 452,-577.83 448.83,-581 445.67,-581"/>
<text text-anchor="middle" x="412" y="-569" font-family="Helvetica,sans-Serif" font-size="10.00">queryBiasUC</text>
</a>
</g>
</g>
<!-- Node1&#45;&gt;Node92 -->
<g id="edge39_Node000001_Node000092" class="edge">
<title>Node1&#45;&gt;Node92</title>
<g id="a_edge39_Node000001_Node000092"><a xlink:title=" ">
<path fill="none" stroke="#63b8ff" d="M569.13,-683.37C552.7,-658.66 519.98,-614.73 481,-590.5 472.36,-585.13 462.17,-581.24 452.35,-578.44"/>
<polygon fill="#63b8ff" stroke="#63b8ff" points="566.23,-685.33 574.61,-691.81 572.1,-681.52 566.23,-685.33"/>
</a>
</g>
</g>
<!-- Node96 -->
<g id="Node000096" class="node">
<title>Node96</title>
<g id="a_Node000096"><a xlink:href="ppp_8cpp.html#a075655f5235940732703f2e6ca41421a" target="_top" xlink:title="Remove ambiguity states from filter when they deemed old or bad This effectively reinitialises them o...">
<path fill="#fff0f0" stroke="red" d="M471.17,-391C471.17,-391 352.83,-391 352.83,-391 349.67,-391 346.5,-387.83 346.5,-384.67 346.5,-384.67 346.5,-378.33 346.5,-378.33 346.5,-375.17 349.67,-372 352.83,-372 352.83,-372 471.17,-372 471.17,-372 474.33,-372 477.5,-375.17 477.5,-378.33 477.5,-378.33 477.5,-384.67 477.5,-384.67 477.5,-387.83 474.33,-391 471.17,-391"/>
<text text-anchor="middle" x="412" y="-379" font-family="Helvetica,sans-Serif" font-size="10.00">removeBadAmbiguities</text>
</a>
</g>
</g>
<!-- Node1&#45;&gt;Node96 -->
<g id="edge44_Node000001_Node000096" class="edge">
<title>Node1&#45;&gt;Node96</title>
<g id="a_edge44_Node000001_Node000096"><a xlink:title=" ">
<path fill="none" stroke="#63b8ff" d="M579.61,-681.77C576.18,-629.39 559.69,-485.38 481,-405.5 474.76,-399.17 466.75,-394.5 458.44,-391.07"/>
<polygon fill="#63b8ff" stroke="#63b8ff" points="576.11,-681.97 580.17,-691.76 583.1,-681.58 576.11,-681.97"/>
</a>
</g>
</g>
<!-- Node97 -->
<g id="Node000097" class="node">
<title>Node97</title>
<g id="a_Node000097"><a xlink:href="ppp_8cpp.html#a3d11452be1ce2ea58117c7fd3ac9f981" target="_top" xlink:title="Remove ambiguity states from filter when they deemed old or bad This effectively reinitialises them o...">
<path fill="#fff0f0" stroke="red" d="M471.67,-354C471.67,-354 352.33,-354 352.33,-354 349.17,-354 346,-350.83 346,-347.67 346,-347.67 346,-341.33 346,-341.33 346,-338.17 349.17,-335 352.33,-335 352.33,-335 471.67,-335 471.67,-335 474.83,-335 478,-338.17 478,-341.33 478,-341.33 478,-347.67 478,-347.67 478,-350.83 474.83,-354 471.67,-354"/>
<text text-anchor="middle" x="412" y="-342" font-family="Helvetica,sans-Serif" font-size="10.00">removeBadIonospheres</text>
</a>
</g>
</g>
<!-- Node1&#45;&gt;Node97 -->
<g id="edge45_Node000001_Node000097" class="edge">
<title>Node1&#45;&gt;Node97</title>
<g id="a_edge45_Node000001_Node000097"><a xlink:title=" ">
<path fill="none" stroke="#63b8ff" d="M580.88,-681.44C580.83,-623.41 572.47,-453.72 481,-363.5 477.07,-359.63 472.43,-356.53 467.43,-354.05"/>
<polygon fill="#63b8ff" stroke="#63b8ff" points="577.37,-681.76 580.79,-691.79 584.37,-681.82 577.37,-681.76"/>
</a>
</g>
</g>
<!-- Node98 -->
<g id="Node000098" class="node">
<title>Node98</title>
<g id="a_Node000098"><a xlink:href="ppp_8cpp.html#a147ea2bf0bd356bafdb785a868364b5f" target="_top" xlink:title=" ">
<path fill="#fff0f0" stroke="red" d="M461.17,-317C461.17,-317 362.83,-317 362.83,-317 359.67,-317 356.5,-313.83 356.5,-310.67 356.5,-310.67 356.5,-304.33 356.5,-304.33 356.5,-301.17 359.67,-298 362.83,-298 362.83,-298 461.17,-298 461.17,-298 464.33,-298 467.5,-301.17 467.5,-304.33 467.5,-304.33 467.5,-310.67 467.5,-310.67 467.5,-313.83 464.33,-317 461.17,-317"/>
<text text-anchor="middle" x="412" y="-305" font-family="Helvetica,sans-Serif" font-size="10.00">selectAprioriSource</text>
</a>
</g>
</g>
<!-- Node1&#45;&gt;Node98 -->
<g id="edge46_Node000001_Node000098" class="edge">
<title>Node1&#45;&gt;Node98</title>
<g id="a_edge46_Node000001_Node000098"><a xlink:title=" ">
<path fill="none" stroke="#63b8ff" d="M577.84,-681.59C568.11,-611.63 532.32,-378.5 481,-326.5 477.13,-322.57 472.51,-319.44 467.54,-316.94"/>
<polygon fill="#63b8ff" stroke="#63b8ff" points="574.4,-682.26 579.22,-691.7 581.33,-681.32 574.4,-682.26"/>
</a>
</g>
</g>
<!-- Node99 -->
<g id="Node000099" class="node">
<title>Node99</title>
<g id="a_Node000099"><a xlink:href="tropSinex_8cpp.html#a97e226ce7219f7e1f35c2fde83f435af" target="_top" xlink:title="Set data for trop description block.">
<path fill="#fff0f0" stroke="red" d="M449.17,-280C449.17,-280 374.83,-280 374.83,-280 371.67,-280 368.5,-276.83 368.5,-273.67 368.5,-273.67 368.5,-267.33 368.5,-267.33 368.5,-264.17 371.67,-261 374.83,-261 374.83,-261 449.17,-261 449.17,-261 452.33,-261 455.5,-264.17 455.5,-267.33 455.5,-267.33 455.5,-273.67 455.5,-273.67 455.5,-276.83 452.33,-280 449.17,-280"/>
<text text-anchor="middle" x="412" y="-268" font-family="Helvetica,sans-Serif" font-size="10.00">setDescription</text>
</a>
</g>
</g>
<!-- Node1&#45;&gt;Node99 -->
<g id="edge47_Node000001_Node000099" class="edge">
<title>Node1&#45;&gt;Node99</title>
<g id="a_edge47_Node000001_Node000099"><a xlink:title=" ">
<path fill="none" stroke="#63b8ff" d="M578.38,-681.52C570.08,-606.95 537.41,-346.19 481,-288.5 474.17,-281.51 464.97,-277.14 455.54,-274.42"/>
<polygon fill="#63b8ff" stroke="#63b8ff" points="574.94,-682.27 579.5,-691.83 581.9,-681.51 574.94,-682.27"/>
</a>
</g>
</g>
<!-- Node101 -->
<g id="Node000101" class="node">
<title>Node101</title>
<g id="a_Node000101"><a xlink:href="tropSinex_8cpp.html#ad57f3048f1df0be47d338e2a87bea7ae" target="_top" xlink:title="Set troposphere solution data from filter.">
<path fill="#fff0f0" stroke="red" d="M463.67,-243C463.67,-243 360.33,-243 360.33,-243 357.17,-243 354,-239.83 354,-236.67 354,-236.67 354,-230.33 354,-230.33 354,-227.17 357.17,-224 360.33,-224 360.33,-224 463.67,-224 463.67,-224 466.83,-224 470,-227.17 470,-230.33 470,-230.33 470,-236.67 470,-236.67 470,-239.83 466.83,-243 463.67,-243"/>
<text text-anchor="middle" x="412" y="-231" font-family="Helvetica,sans-Serif" font-size="10.00">setTropSolFromFilter</text>
</a>
</g>
</g>
<!-- Node1&#45;&gt;Node101 -->
<g id="edge48_Node000001_Node000101" class="edge">
<title>Node1&#45;&gt;Node101</title>
<g id="a_edge48_Node000001_Node000101"><a xlink:title=" ">
<path fill="none" stroke="#63b8ff" d="M578.83,-681.77C571.8,-603.39 542.12,-315.19 481,-251.5 477.79,-248.15 474.03,-245.4 469.96,-243.14"/>
<polygon fill="#63b8ff" stroke="#63b8ff" points="575.34,-682.1 579.7,-691.76 582.32,-681.49 575.34,-682.1"/>
</a>
</g>
</g>
<!-- Node103 -->
<g id="Node000103" class="node">
<title>Node103</title>
<g id="a_Node000103"><a xlink:href="pea__snx_8cpp.html#a92a02d9dc16f06646c5c668b81caaa1f" target="_top" xlink:title=" ">
<path fill="#fff0f0" stroke="red" d="M474.67,-206C474.67,-206 349.33,-206 349.33,-206 346.17,-206 343,-202.83 343,-199.67 343,-199.67 343,-193.33 343,-193.33 343,-190.17 346.17,-187 349.33,-187 349.33,-187 474.67,-187 474.67,-187 477.83,-187 481,-190.17 481,-193.33 481,-193.33 481,-199.67 481,-199.67 481,-202.83 477.83,-206 474.67,-206"/>
<text text-anchor="middle" x="412" y="-194" font-family="Helvetica,sans-Serif" font-size="10.00">sinexPerEpochPerStation</text>
</a>
</g>
</g>
<!-- Node1&#45;&gt;Node103 -->
<g id="edge49_Node000001_Node000103" class="edge">
<title>Node1&#45;&gt;Node103</title>
<g id="a_edge49_Node000001_Node000103"><a xlink:title=" ">
<path fill="none" stroke="#63b8ff" d="M579.19,-681.76C573.31,-599.39 546.78,-284.16 481,-214.5 477.81,-211.13 474.08,-208.36 470.02,-206.09"/>
<polygon fill="#63b8ff" stroke="#63b8ff" points="575.7,-682.05 579.88,-691.79 582.68,-681.57 575.7,-682.05"/>
</a>
</g>
</g>
<!-- Node104 -->
<g id="Node000104" class="node">
<title>Node104</title>
<g id="a_Node000104"><a xlink:href="ppp__pseudoobs_8cpp.html#a0df461e27bceaa75ec50285c2abf8f27" target="_top" xlink:title=" ">
<path fill="#fff0f0" stroke="red" d="M450.67,-130C450.67,-130 373.33,-130 373.33,-130 370.17,-130 367,-126.83 367,-123.67 367,-123.67 367,-117.33 367,-117.33 367,-114.17 370.17,-111 373.33,-111 373.33,-111 450.67,-111 450.67,-111 453.83,-111 457,-114.17 457,-117.33 457,-117.33 457,-123.67 457,-123.67 457,-126.83 453.83,-130 450.67,-130"/>
<text text-anchor="middle" x="412" y="-118" font-family="Helvetica,sans-Serif" font-size="10.00">tropPseudoObs</text>
</a>
</g>
</g>
<!-- Node1&#45;&gt;Node104 -->
<g id="edge52_Node000001_Node000104" class="edge">
<title>Node1&#45;&gt;Node104</title>
<g id="a_edge52_Node000001_Node000104"><a xlink:title=" ">
<path fill="none" stroke="#63b8ff" d="M579.57,-681.71C575.02,-592.48 552.28,-228.42 481,-144.5 474.76,-137.15 466.12,-132.05 457.09,-128.52"/>
<polygon fill="#63b8ff" stroke="#63b8ff" points="576.08,-681.99 580.07,-691.81 583.08,-681.65 576.08,-681.99"/>
</a>
</g>
</g>
<!-- Node105 -->
<g id="Node000105" class="node">
<title>Node105</title>
<g id="a_Node000105"><a xlink:href="ppppp_8cpp.html#a1a8f284c03d52ec377672f704c6f3504" target="_top" xlink:title="Prepare receiver clocks using spp values to minimise pre&#45;fit residuals.">
<path fill="#fff0f0" stroke="red" d="M456.17,-93C456.17,-93 367.83,-93 367.83,-93 364.67,-93 361.5,-89.83 361.5,-86.67 361.5,-86.67 361.5,-80.33 361.5,-80.33 361.5,-77.17 364.67,-74 367.83,-74 367.83,-74 456.17,-74 456.17,-74 459.33,-74 462.5,-77.17 462.5,-80.33 462.5,-80.33 462.5,-86.67 462.5,-86.67 462.5,-89.83 459.33,-93 456.17,-93"/>
<text text-anchor="middle" x="412" y="-81" font-family="Helvetica,sans-Serif" font-size="10.00">updateRecClocks</text>
</a>
</g>
</g>
<!-- Node1&#45;&gt;Node105 -->
<g id="edge53_Node000001_Node000105" class="edge">
<title>Node1&#45;&gt;Node105</title>
<g id="a_edge53_Node000001_Node000105"><a xlink:title=" ">
<path fill="none" stroke="#63b8ff" d="M580.01,-681.84C577.31,-588.35 561.15,-189.6 481,-101.5 475.99,-95.99 469.5,-92.08 462.53,-89.33"/>
<polygon fill="#63b8ff" stroke="#63b8ff" points="576.52,-682 580.29,-691.9 583.51,-681.81 576.52,-682"/>
</a>
</g>
</g>
<!-- Node106 -->
<g id="Node000106" class="node">
<title>Node106</title>
<g id="a_Node000106"><a xlink:href="biasSINEXwrite_8cpp.html#ab94f8678684d9733ffbe150e860a564a" target="_top" xlink:title="Write bias SINEX head for the first time.">
<path fill="#fff0f0" stroke="red" d="M462.17,-56C462.17,-56 361.83,-56 361.83,-56 358.67,-56 355.5,-52.83 355.5,-49.67 355.5,-49.67 355.5,-43.33 355.5,-43.33 355.5,-40.17 358.67,-37 361.83,-37 361.83,-37 462.17,-37 462.17,-37 465.33,-37 468.5,-40.17 468.5,-43.33 468.5,-43.33 468.5,-49.67 468.5,-49.67 468.5,-52.83 465.33,-56 462.17,-56"/>
<text text-anchor="middle" x="412" y="-44" font-family="Helvetica,sans-Serif" font-size="10.00">writeBSINEXHeader</text>
</a>
</g>
</g>
<!-- Node1&#45;&gt;Node106 -->
<g id="edge54_Node000001_Node000106" class="edge">
<title>Node1&#45;&gt;Node106</title>
<g id="a_edge54_Node000001_Node000106"><a xlink:title=" ">
<path fill="none" stroke="#63b8ff" d="M580.22,-681.57C578.43,-584.1 565.79,-158.58 481,-64.5 477.48,-60.6 473.23,-57.5 468.59,-55.05"/>
<polygon fill="#63b8ff" stroke="#63b8ff" points="576.72,-681.84 580.39,-691.78 583.72,-681.73 576.72,-681.84"/>
</a>
</g>
</g>
<!-- Node107 -->
<g id="Node000107" class="node">
<title>Node107</title>
<g id="a_Node000107"><a xlink:href="ionexWrite_8cpp.html#a210edc109068291059974a8a9622aa1a" target="_top" xlink:title=" ">
<path fill="#fff0f0" stroke="red" d="M452.67,-19C452.67,-19 371.33,-19 371.33,-19 368.17,-19 365,-15.83 365,-12.67 365,-12.67 365,-6.33 365,-6.33 365,-3.17 368.17,0 371.33,0 371.33,0 452.67,0 452.67,0 455.83,0 459,-3.17 459,-6.33 459,-6.33 459,-12.67 459,-12.67 459,-15.83 455.83,-19 452.67,-19"/>
<text text-anchor="middle" x="412" y="-7" font-family="Helvetica,sans-Serif" font-size="10.00">writeIonexHead</text>
</a>
</g>
</g>
<!-- Node1&#45;&gt;Node107 -->
<g id="edge55_Node000001_Node000107" class="edge">
<title>Node1&#45;&gt;Node107</title>
<g id="a_edge55_Node000001_Node000107"><a xlink:title=" ">
<path fill="none" stroke="#63b8ff" d="M580.41,-681.69C579.52,-581.09 570.55,-127.71 481,-27.5 475.22,-21.03 467.42,-16.77 459.16,-13.99"/>
<polygon fill="#63b8ff" stroke="#63b8ff" points="576.91,-681.73 580.48,-691.71 583.91,-681.68 576.91,-681.73"/>
</a>
</g>
</g>
<!-- Node7&#45;&gt;Node4 -->
<g id="edge4_Node000007_Node000004" class="edge">
<title>Node7&#45;&gt;Node4</title>
<g id="a_edge4_Node000007_Node000004"><a xlink:title=" ">
<path fill="none" stroke="#63b8ff" d="M178.04,-1287.89C166.06,-1282.39 154.26,-1274.81 146,-1264.5 93.38,-1198.77 62.66,-918.59 56.97,-862.35"/>
<polygon fill="#63b8ff" stroke="#63b8ff" points="177.06,-1291.27 187.63,-1291.88 179.74,-1284.81 177.06,-1291.27"/>
</a>
</g>
</g>
<!-- Node8&#45;&gt;Node9 -->
<g id="edge6_Node000008_Node000009" class="edge">
<title>Node8&#45;&gt;Node9</title>
<g id="a_edge6_Node000008_Node000009"><a xlink:title=" ">
<path fill="none" stroke="#63b8ff" d="M369.53,-1274.14C336.09,-1267.4 289.78,-1258.06 259.25,-1251.9"/>
<polygon fill="#63b8ff" stroke="#63b8ff" points="368.96,-1277.59 379.46,-1276.14 370.34,-1270.73 368.96,-1277.59"/>
</a>
</g>
</g>
<!-- Node15&#45;&gt;Node9 -->
<g id="edge8_Node000015_Node000009" class="edge">
<title>Node15&#45;&gt;Node9</title>
<g id="a_edge8_Node000015_Node000009"><a xlink:title=" ">
<path fill="none" stroke="#63b8ff" d="M369.09,-1245.5C335.69,-1245.5 289.65,-1245.5 259.25,-1245.5"/>
<polygon fill="#63b8ff" stroke="#63b8ff" points="369.46,-1249 379.46,-1245.5 369.46,-1242 369.46,-1249"/>
</a>
</g>
</g>
<!-- Node17&#45;&gt;Node18 -->
<g id="edge11_Node000017_Node000018" class="edge">
<title>Node17&#45;&gt;Node18</title>
<g id="a_edge11_Node000017_Node000018"><a xlink:title=" ">
<path fill="none" stroke="#63b8ff" d="M384.91,-1156.37C370.17,-1146.41 352.78,-1131.98 343,-1114.5 289.69,-1019.22 380.75,-952 307,-871.5 295.02,-858.42 275.78,-853.58 259.23,-852.06"/>
<polygon fill="#63b8ff" stroke="#63b8ff" points="383.35,-1159.53 393.66,-1161.99 387.13,-1153.64 383.35,-1159.53"/>
</a>
</g>
</g>
<!-- Node27&#45;&gt;Node55 -->
<g id="edge16_Node000027_Node000055" class="edge">
<title>Node27&#45;&gt;Node55</title>
<g id="a_edge16_Node000027_Node000055"><a xlink:title=" ">
<path fill="none" stroke="#63b8ff" d="M378.03,-1016.38C366.44,-1013.67 353.66,-1009.59 343,-1003.5 293.82,-975.42 250.67,-921.16 234.39,-899.14"/>
<polygon fill="#63b8ff" stroke="#63b8ff" points="377.31,-1019.81 387.82,-1018.43 378.74,-1012.96 377.31,-1019.81"/>
</a>
</g>
</g>
<!-- Node27&#45;&gt;Node41 -->
<g id="edge18_Node000027_Node000041" class="edge">
<title>Node27&#45;&gt;Node41</title>
<g id="a_edge18_Node000027_Node000041"><a xlink:title=" ">
<path fill="none" stroke="#63b8ff" d="M377.6,-1019.87C365.18,-1017.59 351.95,-1012.9 343,-1003.5 290.04,-947.89 360.63,-889.47 307,-834.5 295.21,-822.41 277.2,-817.46 261.3,-815.61"/>
<polygon fill="#63b8ff" stroke="#63b8ff" points="377.35,-1023.37 387.73,-1021.27 378.31,-1016.44 377.35,-1023.37"/>
</a>
</g>
</g>
<!-- Node27&#45;&gt;Node37 -->
<g id="edge19_Node000027_Node000037" class="edge">
<title>Node27&#45;&gt;Node37</title>
<g id="a_edge19_Node000027_Node000037"><a xlink:title=" ">
<path fill="none" stroke="#63b8ff" d="M377.7,-1020.09C365.17,-1017.85 351.84,-1013.13 343,-1003.5 280.16,-935.02 370.67,-865.21 307,-797.5 299.61,-789.64 289.6,-784.78 279.18,-781.82"/>
<polygon fill="#63b8ff" stroke="#63b8ff" points="377.54,-1023.6 387.91,-1021.44 378.46,-1016.66 377.54,-1023.6"/>
</a>
</g>
</g>
<!-- Node27&#45;&gt;Node79 -->
<g id="edge20_Node000027_Node000079" class="edge">
<title>Node27&#45;&gt;Node79</title>
<g id="a_edge20_Node000027_Node000079"><a xlink:title=" ">
<path fill="none" stroke="#63b8ff" d="M377.99,-1020.52C365.22,-1018.38 351.63,-1013.62 343,-1003.5 291.39,-943.01 346.84,-716.31 307,-647.5 294.07,-625.16 268.46,-609.25 249.8,-600.02"/>
<polygon fill="#63b8ff" stroke="#63b8ff" points="377.6,-1024 387.95,-1021.72 378.44,-1017.05 377.6,-1024"/>
</a>
</g>
</g>
<!-- Node55&#45;&gt;Node57 -->
<g id="edge17_Node000055_Node000057" class="edge">
<title>Node55&#45;&gt;Node57</title>
<g id="a_edge17_Node000055_Node000057"><a xlink:title=" ">
<path fill="none" stroke="#63b8ff" d="M189.5,-887.48C174.89,-885.19 158.55,-880.58 146,-871.5 119.8,-852.54 74.89,-761.29 60.55,-731.17"/>
<polygon fill="#63b8ff" stroke="#63b8ff" points="189.39,-891 199.75,-888.78 190.27,-884.05 189.39,-891"/>
</a>
</g>
</g>
<!-- Node87&#45;&gt;Node12 -->
<g id="edge26_Node000087_Node000012" class="edge">
<title>Node87&#45;&gt;Node12</title>
<g id="a_edge26_Node000087_Node000012"><a xlink:title=" ">
<path fill="none" stroke="#63b8ff" d="M363.11,-824.56C355.98,-822.07 349.01,-818.8 343,-814.5 319.54,-797.72 326.96,-781.32 307,-760.5 287.85,-740.52 261.1,-722.6 244.04,-712.14"/>
<polygon fill="#63b8ff" stroke="#63b8ff" points="362.29,-827.97 372.88,-827.49 364.31,-821.26 362.29,-827.97"/>
</a>
</g>
</g>
<!-- Node88&#45;&gt;Node12 -->
<g id="edge28_Node000088_Node000012" class="edge">
<title>Node88&#45;&gt;Node12</title>
<g id="a_edge28_Node000088_Node000012"><a xlink:title=" ">
<path fill="none" stroke="#63b8ff" d="M361.52,-784.39C355.18,-782.39 348.86,-780.1 343,-777.5 302.35,-759.47 259.8,-728.05 239.57,-712.21"/>
<polygon fill="#63b8ff" stroke="#63b8ff" points="360.86,-787.84 371.44,-787.29 362.82,-781.12 360.86,-787.84"/>
</a>
</g>
</g>
<!-- Node13&#45;&gt;Node4 -->
<g id="edge31_Node000013_Node000004" class="edge">
<title>Node13&#45;&gt;Node4</title>
<g id="a_edge31_Node000013_Node000004"><a xlink:title=" ">
<path fill="none" stroke="#63b8ff" d="M166.8,-673.46C159.34,-676.16 152.16,-679.75 146,-684.5 131.78,-695.46 77,-808.55 60.64,-842.75"/>
<polygon fill="#63b8ff" stroke="#63b8ff" points="167.85,-676.79 176.36,-670.48 165.77,-670.11 167.85,-676.79"/>
</a>
</g>
</g>
<!-- Node90&#45;&gt;Node37 -->
<g id="edge33_Node000090_Node000037" class="edge">
<title>Node90&#45;&gt;Node37</title>
<g id="a_edge33_Node000090_Node000037"><a xlink:title=" ">
<path fill="none" stroke="#63b8ff" d="M391.82,-698.54C371.77,-714.62 338.85,-739.14 307,-754.5 294.79,-760.39 280.83,-765.19 268.05,-768.9"/>
<polygon fill="#63b8ff" stroke="#63b8ff" points="394.04,-701.25 399.58,-692.22 389.62,-695.82 394.04,-701.25"/>
</a>
</g>
</g>
<!-- Node11&#45;&gt;Node4 -->
<g id="edge35_Node000011_Node000004" class="edge">
<title>Node11&#45;&gt;Node4</title>
<g id="a_edge35_Node000011_Node000004"><a xlink:title=" ">
<path fill="none" stroke="#63b8ff" d="M361.81,-654.52C355.11,-657.06 348.62,-660.32 343,-664.5 318.97,-682.39 331.34,-704.03 307,-721.5 247.19,-764.43 210,-724.11 146,-760.5 108.12,-782.04 75.73,-824.14 62.44,-842.99"/>
<polygon fill="#63b8ff" stroke="#63b8ff" points="363.28,-657.72 371.7,-651.28 361.11,-651.06 363.28,-657.72"/>
</a>
</g>
</g>
<!-- Node11&#45;&gt;Node12 -->
<g id="edge36_Node000011_Node000012" class="edge">
<title>Node11&#45;&gt;Node12</title>
<g id="a_edge36_Node000011_Node000012"><a xlink:title=" ">
<path fill="none" stroke="#63b8ff" d="M362.39,-657.57C355.79,-659.65 349.17,-661.97 343,-664.5 326.07,-671.46 324.1,-677.97 307,-684.5 298.27,-687.83 288.76,-690.64 279.45,-692.98"/>
<polygon fill="#63b8ff" stroke="#63b8ff" points="363.41,-660.92 371.99,-654.71 361.41,-654.22 363.41,-660.92"/>
</a>
</g>
</g>
<!-- Node11&#45;&gt;Node13 -->
<g id="edge37_Node000011_Node000013" class="edge">
<title>Node11&#45;&gt;Node13</title>
<g id="a_edge37_Node000011_Node000013"><a xlink:title=" ">
<path fill="none" stroke="#63b8ff" d="M361.49,-650.9C335.16,-653.77 302.89,-657.28 276.62,-660.15"/>
<polygon fill="#63b8ff" stroke="#63b8ff" points="362.07,-654.35 371.63,-649.79 361.31,-647.39 362.07,-654.35"/>
</a>
</g>
</g>
<!-- Node103&#45;&gt;Node12 -->
<g id="edge50_Node000103_Node000012" class="edge">
<title>Node103&#45;&gt;Node12</title>
<g id="a_edge50_Node000103_Node000012"><a xlink:title=" ">
<path fill="none" stroke="#63b8ff" d="M344.92,-212.37C344.26,-213.05 343.62,-213.76 343,-214.5 275.98,-295.01 375.46,-605.22 307,-684.5 304.13,-687.82 300.79,-690.6 297.14,-692.92"/>
<polygon fill="#63b8ff" stroke="#63b8ff" points="347.23,-215 352.89,-206.05 342.88,-209.52 347.23,-215"/>
</a>
</g>
</g>
</g>
</svg>
