<?xml version="1.0" encoding="UTF-8" standalone="no"?>
<!DOCTYPE svg PUBLIC "-//W3C//DTD SVG 1.1//EN"
 "http://www.w3.org/Graphics/SVG/1.1/DTD/svg11.dtd">
<!-- Generated by graphviz version 2.43.0 (0)
 -->
<!-- Title: SpaceWeather::read Pages: 1 -->
<svg width="253pt" height="27pt"
 viewBox="0.00 0.00 253.00 27.00" xmlns="http://www.w3.org/2000/svg" xmlns:xlink="http://www.w3.org/1999/xlink">
<g id="graph0" class="graph" transform="scale(1 1) rotate(0) translate(4 23)">
<title>SpaceWeather::read</title>
<!-- Node1 -->
<g id="Node000001" class="node">
<title>Node1</title>
<g id="a_Node000001"><a xlink:href="structSpaceWeather.html#a068f9af36b8f22118c80ba9c05be4b32" target="_top" xlink:title="Read Space Weather file into the data struct.">
<path fill="#fff0f0" stroke="red" stroke-width="2" d="M238.67,-19C238.67,-19 137.33,-19 137.33,-19 134.17,-19 131,-15.83 131,-12.67 131,-12.67 131,-6.33 131,-6.33 131,-3.17 134.17,0 137.33,0 137.33,0 238.67,0 238.67,0 241.83,0 245,-3.17 245,-6.33 245,-6.33 245,-12.67 245,-12.67 245,-15.83 241.83,-19 238.67,-19"/>
<text text-anchor="middle" x="188" y="-7" font-family="Helvetica,sans-Serif" font-size="10.00">SpaceWeather::read</text>
</a>
</g>
</g>
<!-- Node2 -->
<g id="Node000002" class="node">
<title>Node2</title>
<g id="a_Node000002"><a xlink:href="inputs_8cpp.html#a414f34e8bd65aa4d83398bab54236157" target="_top" xlink:title=" ">
<path fill="#fff0f0" stroke="red" d="M88.67,-19C88.67,-19 6.33,-19 6.33,-19 3.17,-19 0,-15.83 0,-12.67 0,-12.67 0,-6.33 0,-6.33 0,-3.17 3.17,0 6.33,0 6.33,0 88.67,0 88.67,0 91.83,0 95,-3.17 95,-6.33 95,-6.33 95,-12.67 95,-12.67 95,-15.83 91.83,-19 88.67,-19"/>
<text text-anchor="middle" x="47.5" y="-7" font-family="Helvetica,sans-Serif" font-size="10.00">reloadInputFiles</text>
</a>
</g>
</g>
<!-- Node1&#45;&gt;Node2 -->
<g id="edge1_Node000001_Node000002" class="edge">
<title>Node1&#45;&gt;Node2</title>
<g id="a_edge1_Node000001_Node000002"><a xlink:title=" ">
<path fill="none" stroke="#63b8ff" d="M120.59,-9.5C111.96,-9.5 103.27,-9.5 95.05,-9.5"/>
<polygon fill="#63b8ff" stroke="#63b8ff" points="120.67,-13 130.67,-9.5 120.67,-6 120.67,-13"/>
</a>
</g>
</g>
</g>
</svg>
