<?xml version="1.0" encoding="UTF-8" standalone="no"?>
<!DOCTYPE svg PUBLIC "-//W3C//DTD SVG 1.1//EN"
 "http://www.w3.org/Graphics/SVG/1.1/DTD/svg11.dtd">
<!-- Generated by graphviz version 2.43.0 (0)
 -->
<!-- Title: ArbitraryKVP Pages: 1 -->
<svg width="115pt" height="315pt"
 viewBox="0.00 0.00 115.00 315.00" xmlns="http://www.w3.org/2000/svg" xmlns:xlink="http://www.w3.org/1999/xlink">
<g id="graph0" class="graph" transform="scale(1 1) rotate(0) translate(4 311)">
<title>ArbitraryKVP</title>
<!-- Node1 -->
<g id="Node000001" class="node">
<title>Node1</title>
<g id="a_Node000001"><a xlink:href="structArbitraryKVP.html" target="_top" xlink:title=" ">
<path fill="white" stroke="#666666" stroke-width="2" d="M95,-192C95,-192 12,-192 12,-192 6,-192 0,-186 0,-180 0,-180 0,-12 0,-12 0,-6 6,0 12,0 12,0 95,0 95,0 101,0 107,-6 107,-12 107,-12 107,-180 107,-180 107,-186 101,-192 95,-192"/>
<text text-anchor="start" x="22.5" y="-176" font-family="Helvetica,sans-Serif" font-size="10.00">ArbitraryKVP</text>
<text text-anchor="start" x="12.5" y="-161" font-family="Helvetica,sans-Serif" font-size="10.00">+</text>
<text text-anchor="start" x="25.5" y="-161" font-family="Helvetica,sans-Serif" font-size="10.00">num</text>
<text text-anchor="start" x="12.5" y="-146" font-family="Helvetica,sans-Serif" font-size="10.00">+</text>
<text text-anchor="start" x="25.5" y="-146" font-family="Helvetica,sans-Serif" font-size="10.00">integer</text>
<text text-anchor="start" x="12.5" y="-131" font-family="Helvetica,sans-Serif" font-size="10.00">+</text>
<text text-anchor="start" x="25.5" y="-131" font-family="Helvetica,sans-Serif" font-size="10.00">type</text>
<text text-anchor="start" x="12.5" y="-116" font-family="Helvetica,sans-Serif" font-size="10.00">+</text>
<text text-anchor="start" x="25.5" y="-116" font-family="Helvetica,sans-Serif" font-size="10.00">ArbitraryKVP()</text>
<text text-anchor="start" x="12.5" y="-101" font-family="Helvetica,sans-Serif" font-size="10.00">+</text>
<text text-anchor="start" x="25.5" y="-101" font-family="Helvetica,sans-Serif" font-size="10.00">ArbitraryKVP()</text>
<text text-anchor="start" x="12.5" y="-86" font-family="Helvetica,sans-Serif" font-size="10.00">+</text>
<text text-anchor="start" x="25.5" y="-86" font-family="Helvetica,sans-Serif" font-size="10.00">ArbitraryKVP()</text>
<text text-anchor="start" x="12.5" y="-71" font-family="Helvetica,sans-Serif" font-size="10.00">+</text>
<text text-anchor="start" x="25.5" y="-71" font-family="Helvetica,sans-Serif" font-size="10.00">ArbitraryKVP()</text>
<text text-anchor="start" x="12.5" y="-56" font-family="Helvetica,sans-Serif" font-size="10.00">+</text>
<text text-anchor="start" x="25.5" y="-56" font-family="Helvetica,sans-Serif" font-size="10.00">ArbitraryKVP()</text>
<text text-anchor="start" x="12.5" y="-41" font-family="Helvetica,sans-Serif" font-size="10.00">+</text>
<text text-anchor="start" x="25.5" y="-41" font-family="Helvetica,sans-Serif" font-size="10.00">ArbitraryKVP()</text>
<text text-anchor="start" x="12.5" y="-26" font-family="Helvetica,sans-Serif" font-size="10.00">+</text>
<text text-anchor="start" x="25.5" y="-26" font-family="Helvetica,sans-Serif" font-size="10.00">isBool()</text>
<text text-anchor="start" x="12.5" y="-11" font-family="Helvetica,sans-Serif" font-size="10.00">+</text>
<text text-anchor="start" x="25.5" y="-11" font-family="Helvetica,sans-Serif" font-size="10.00">value()</text>
<polygon fill="#666666" stroke="#666666" points="8.5,-171 8.5,-171 99.5,-171 99.5,-171 8.5,-171"/>
<polygon fill="#666666" stroke="#666666" points="8.5,-126 8.5,-126 23.5,-126 23.5,-126 8.5,-126"/>
<polygon fill="#666666" stroke="#666666" points="23.5,-126 23.5,-126 99.5,-126 99.5,-126 23.5,-126"/>
<polygon fill="none" stroke="#666666" points="8,-4 8,-188 99,-188 99,-4 8,-4"/>
</a>
</g>
</g>
<!-- Node2 -->
<g id="Node000002" class="node">
<title>Node2</title>
<g id="a_Node000002"><a xlink:title=" ">
<path fill="white" stroke="#666666" d="M68.5,-307C68.5,-307 38.5,-307 38.5,-307 32.5,-307 26.5,-301 26.5,-295 26.5,-295 26.5,-262 26.5,-262 26.5,-256 32.5,-250 38.5,-250 38.5,-250 68.5,-250 68.5,-250 74.5,-250 80.5,-256 80.5,-262 80.5,-262 80.5,-295 80.5,-295 80.5,-301 74.5,-307 68.5,-307"/>
<text text-anchor="start" x="39.5" y="-290.5" font-family="Helvetica,sans-Serif" font-size="10.00">string</text>
<text text-anchor="start" x="51.5" y="-275.5" font-family="Helvetica,sans-Serif" font-size="10.00"> </text>
<text text-anchor="start" x="51.5" y="-260.5" font-family="Helvetica,sans-Serif" font-size="10.00"> </text>
<polygon fill="#666666" stroke="#666666" points="34.5,-285.5 34.5,-285.5 72.5,-285.5 72.5,-285.5 34.5,-285.5"/>
<polygon fill="#666666" stroke="#666666" points="34.5,-270.5 34.5,-270.5 72.5,-270.5 72.5,-270.5 34.5,-270.5"/>
<polygon fill="none" stroke="#666666" points="34.5,-254 34.5,-303 72.5,-303 72.5,-254 34.5,-254"/>
</a>
</g>
</g>
<!-- Node2&#45;&gt;Node1 -->
<g id="edge1_Node000001_Node000002" class="edge">
<title>Node2&#45;&gt;Node1</title>
<g id="a_edge1_Node000001_Node000002"><a xlink:title=" ">
<path fill="none" stroke="#63b8ff" d="M53.5,-249.69C53.5,-237.04 53.5,-221.18 53.5,-204.5"/>
<polygon fill="none" stroke="#63b8ff" points="53.5,-204.24 49.5,-198.24 53.5,-192.24 57.5,-198.24 53.5,-204.24"/>
</a>
</g>
<text text-anchor="middle" x="73.5" y="-224" font-family="Helvetica,sans-Serif" font-size="10.00" fill="grey"> +name</text>
<text text-anchor="middle" x="73.5" y="-213" font-family="Helvetica,sans-Serif" font-size="10.00" fill="grey">+str</text>
</g>
</g>
</svg>
