<?xml version="1.0" encoding="UTF-8" standalone="no"?>
<!DOCTYPE svg PUBLIC "-//W3C//DTD SVG 1.1//EN"
 "http://www.w3.org/Graphics/SVG/1.1/DTD/svg11.dtd">
<!-- Generated by graphviz version 2.43.0 (0)
 -->
<!-- Title: OrbexEntry Pages: 1 -->
<svg width="325pt" height="602pt"
 viewBox="0.00 0.00 324.50 602.00" xmlns="http://www.w3.org/2000/svg" xmlns:xlink="http://www.w3.org/1999/xlink">
<g id="graph0" class="graph" transform="scale(1 1) rotate(0) translate(4 598)">
<title>OrbexEntry</title>
<!-- Node1 -->
<g id="Node000001" class="node">
<title>Node1</title>
<g id="a_Node000001"><a xlink:href="structOrbexEntry.html" target="_top" xlink:title="ORBEX entry to write out.">
<path fill="white" stroke="#666666" stroke-width="2" d="M206.5,-102C206.5,-102 147.5,-102 147.5,-102 141.5,-102 135.5,-96 135.5,-90 135.5,-90 135.5,-12 135.5,-12 135.5,-6 141.5,0 147.5,0 147.5,0 206.5,0 206.5,0 212.5,0 218.5,-6 218.5,-12 218.5,-12 218.5,-90 218.5,-90 218.5,-96 212.5,-102 206.5,-102"/>
<text text-anchor="start" x="150" y="-86" font-family="Helvetica,sans-Serif" font-size="10.00">OrbexEntry</text>
<text text-anchor="start" x="148" y="-71" font-family="Helvetica,sans-Serif" font-size="10.00">+</text>
<text text-anchor="start" x="161" y="-71" font-family="Helvetica,sans-Serif" font-size="10.00">clk</text>
<text text-anchor="start" x="148" y="-56" font-family="Helvetica,sans-Serif" font-size="10.00">+</text>
<text text-anchor="start" x="161" y="-56" font-family="Helvetica,sans-Serif" font-size="10.00">clkVel</text>
<text text-anchor="start" x="148" y="-41" font-family="Helvetica,sans-Serif" font-size="10.00">+</text>
<text text-anchor="start" x="161" y="-41" font-family="Helvetica,sans-Serif" font-size="10.00">clkStd</text>
<text text-anchor="start" x="148" y="-26" font-family="Helvetica,sans-Serif" font-size="10.00">+</text>
<text text-anchor="start" x="161" y="-26" font-family="Helvetica,sans-Serif" font-size="10.00">clkVelStd</text>
<text text-anchor="start" x="175.5" y="-11" font-family="Helvetica,sans-Serif" font-size="10.00"> </text>
<polygon fill="#666666" stroke="#666666" points="144,-81 144,-81 211,-81 211,-81 144,-81"/>
<polygon fill="#666666" stroke="#666666" points="144,-21 144,-21 159,-21 159,-21 144,-21"/>
<polygon fill="#666666" stroke="#666666" points="159,-21 159,-21 211,-21 211,-21 159,-21"/>
<polygon fill="none" stroke="#666666" points="143.5,-4 143.5,-98 210.5,-98 210.5,-4 143.5,-4"/>
</a>
</g>
</g>
<!-- Node2 -->
<g id="Node000002" class="node">
<title>Node2</title>
<g id="a_Node000002"><a xlink:href="structSatSys.html" target="_top" xlink:title="Object holding satellite id, and providing related functions.">
<path fill="white" stroke="#666666" d="M112.5,-479C112.5,-479 19.5,-479 19.5,-479 13.5,-479 7.5,-473 7.5,-467 7.5,-467 7.5,-194 7.5,-194 7.5,-188 13.5,-182 19.5,-182 19.5,-182 112.5,-182 112.5,-182 118.5,-182 124.5,-188 124.5,-194 124.5,-194 124.5,-467 124.5,-467 124.5,-473 118.5,-479 112.5,-479"/>
<text text-anchor="start" x="49.5" y="-462.5" font-family="Helvetica,sans-Serif" font-size="10.00">SatSys</text>
<text text-anchor="start" x="20" y="-447.5" font-family="Helvetica,sans-Serif" font-size="10.00">+</text>
<text text-anchor="start" x="33" y="-447.5" font-family="Helvetica,sans-Serif" font-size="10.00">sys</text>
<text text-anchor="start" x="20" y="-432.5" font-family="Helvetica,sans-Serif" font-size="10.00">+</text>
<text text-anchor="start" x="33" y="-432.5" font-family="Helvetica,sans-Serif" font-size="10.00">prn</text>
<text text-anchor="start" x="20" y="-417.5" font-family="Helvetica,sans-Serif" font-size="10.00">+</text>
<text text-anchor="start" x="33" y="-417.5" font-family="Helvetica,sans-Serif" font-size="10.00">SatSys()</text>
<text text-anchor="start" x="20" y="-402.5" font-family="Helvetica,sans-Serif" font-size="10.00">+</text>
<text text-anchor="start" x="33" y="-402.5" font-family="Helvetica,sans-Serif" font-size="10.00">sysChar()</text>
<text text-anchor="start" x="20" y="-387.5" font-family="Helvetica,sans-Serif" font-size="10.00">+</text>
<text text-anchor="start" x="33" y="-387.5" font-family="Helvetica,sans-Serif" font-size="10.00">getId()</text>
<text text-anchor="start" x="20" y="-372.5" font-family="Helvetica,sans-Serif" font-size="10.00">+</text>
<text text-anchor="start" x="33" y="-372.5" font-family="Helvetica,sans-Serif" font-size="10.00">operator int()</text>
<text text-anchor="start" x="20" y="-357.5" font-family="Helvetica,sans-Serif" font-size="10.00">+</text>
<text text-anchor="start" x="33" y="-357.5" font-family="Helvetica,sans-Serif" font-size="10.00">setBlockType()</text>
<text text-anchor="start" x="20" y="-342.5" font-family="Helvetica,sans-Serif" font-size="10.00">+</text>
<text text-anchor="start" x="33" y="-342.5" font-family="Helvetica,sans-Serif" font-size="10.00">setSvn()</text>
<text text-anchor="start" x="20" y="-327.5" font-family="Helvetica,sans-Serif" font-size="10.00">+</text>
<text text-anchor="start" x="33" y="-327.5" font-family="Helvetica,sans-Serif" font-size="10.00">blockType()</text>
<text text-anchor="start" x="20" y="-312.5" font-family="Helvetica,sans-Serif" font-size="10.00">+</text>
<text text-anchor="start" x="33" y="-312.5" font-family="Helvetica,sans-Serif" font-size="10.00">svn()</text>
<text text-anchor="start" x="20" y="-297.5" font-family="Helvetica,sans-Serif" font-size="10.00">+</text>
<text text-anchor="start" x="33" y="-297.5" font-family="Helvetica,sans-Serif" font-size="10.00">fromHash()</text>
<text text-anchor="start" x="20" y="-282.5" font-family="Helvetica,sans-Serif" font-size="10.00">+</text>
<text text-anchor="start" x="33" y="-282.5" font-family="Helvetica,sans-Serif" font-size="10.00">id()</text>
<text text-anchor="start" x="20" y="-267.5" font-family="Helvetica,sans-Serif" font-size="10.00">+</text>
<text text-anchor="start" x="33" y="-267.5" font-family="Helvetica,sans-Serif" font-size="10.00">operator string()</text>
<text text-anchor="start" x="20" y="-252.5" font-family="Helvetica,sans-Serif" font-size="10.00">+</text>
<text text-anchor="start" x="33" y="-252.5" font-family="Helvetica,sans-Serif" font-size="10.00">SatSys()</text>
<text text-anchor="start" x="20" y="-237.5" font-family="Helvetica,sans-Serif" font-size="10.00">+</text>
<text text-anchor="start" x="33" y="-237.5" font-family="Helvetica,sans-Serif" font-size="10.00">sysName()</text>
<text text-anchor="start" x="20" y="-222.5" font-family="Helvetica,sans-Serif" font-size="10.00">+</text>
<text text-anchor="start" x="33" y="-222.5" font-family="Helvetica,sans-Serif" font-size="10.00">serialize()</text>
<text text-anchor="start" x="20" y="-207.5" font-family="Helvetica,sans-Serif" font-size="10.00">+</text>
<text text-anchor="start" x="33" y="-207.5" font-family="Helvetica,sans-Serif" font-size="10.00">noSat()</text>
<text text-anchor="start" x="20" y="-192.5" font-family="Helvetica,sans-Serif" font-size="10.00">+</text>
<text text-anchor="start" x="33" y="-192.5" font-family="Helvetica,sans-Serif" font-size="10.00">sysFromChar()</text>
<polygon fill="#666666" stroke="#666666" points="16,-457.5 16,-457.5 117,-457.5 117,-457.5 16,-457.5"/>
<polygon fill="#666666" stroke="#666666" points="16,-427.5 16,-427.5 31,-427.5 31,-427.5 16,-427.5"/>
<polygon fill="#666666" stroke="#666666" points="31,-427.5 31,-427.5 117,-427.5 117,-427.5 31,-427.5"/>
<polygon fill="none" stroke="#666666" points="15.5,-186 15.5,-475 116.5,-475 116.5,-186 15.5,-186"/>
</a>
</g>
</g>
<!-- Node2&#45;&gt;Node1 -->
<g id="edge1_Node000001_Node000002" class="edge">
<title>Node2&#45;&gt;Node1</title>
<g id="a_edge1_Node000001_Node000002"><a xlink:title=" ">
<path fill="none" stroke="#63b8ff" d="M120,-181.83C128.12,-160.97 136.59,-139.87 145,-120 145.92,-117.84 146.86,-115.64 147.83,-113.43"/>
<polygon fill="none" stroke="#63b8ff" points="147.9,-113.26 146.69,-106.15 152.79,-102.3 154,-109.41 147.9,-113.26"/>
</a>
</g>
<text text-anchor="middle" x="159" y="-139.5" font-family="Helvetica,sans-Serif" font-size="10.00" fill="grey"> +Sat</text>
</g>
<!-- Node3 -->
<g id="Node000003" class="node">
<title>Node3</title>
<g id="a_Node000003"><a xlink:title=" ">
<path fill="#fff0f0" stroke="red" d="M120,-594C120,-594 12,-594 12,-594 6,-594 0,-588 0,-582 0,-582 0,-538 0,-538 0,-532 6,-526 12,-526 12,-526 120,-526 120,-526 126,-526 132,-532 132,-538 132,-538 132,-582 132,-582 132,-588 126,-594 120,-594"/>
<text text-anchor="start" x="13" y="-578" font-family="Helvetica,sans-Serif" font-size="10.00">map&lt; SatSys, SatSys</text>
<text text-anchor="start" x="37.5" y="-567" font-family="Helvetica,sans-Serif" font-size="10.00">::SatData &gt;</text>
<text text-anchor="start" x="64" y="-552" font-family="Helvetica,sans-Serif" font-size="10.00"> </text>
<text text-anchor="start" x="64" y="-537" font-family="Helvetica,sans-Serif" font-size="10.00"> </text>
<polygon fill="red" stroke="red" points="8,-562 8,-562 124,-562 124,-562 8,-562"/>
<polygon fill="red" stroke="red" points="8,-547 8,-547 124,-547 124,-547 8,-547"/>
<polygon fill="none" stroke="red" points="8,-530 8,-590 124,-590 124,-530 8,-530"/>
</a>
</g>
</g>
<!-- Node3&#45;&gt;Node2 -->
<g id="edge2_Node000002_Node000003" class="edge">
<title>Node3&#45;&gt;Node2</title>
<g id="a_edge2_Node000002_Node000003"><a xlink:title=" ">
<path fill="none" stroke="#63b8ff" d="M66,-525.92C66,-515.93 66,-504.22 66,-491.6"/>
<polygon fill="none" stroke="#63b8ff" points="66,-491.24 62,-485.24 66,-479.24 70,-485.24 66,-491.24"/>
</a>
</g>
<text text-anchor="middle" x="101.5" y="-500" font-family="Helvetica,sans-Serif" font-size="10.00" fill="grey"> +satDataMap</text>
</g>
<!-- Node5 -->
<g id="Node000005" class="node">
<title>Node5</title>
<g id="a_Node000005"><a xlink:title=" ">
<path fill="white" stroke="#666666" d="M199.5,-359C199.5,-359 154.5,-359 154.5,-359 148.5,-359 142.5,-353 142.5,-347 142.5,-347 142.5,-314 142.5,-314 142.5,-308 148.5,-302 154.5,-302 154.5,-302 199.5,-302 199.5,-302 205.5,-302 211.5,-308 211.5,-314 211.5,-314 211.5,-347 211.5,-347 211.5,-353 205.5,-359 199.5,-359"/>
<text text-anchor="start" x="156" y="-342.5" font-family="Helvetica,sans-Serif" font-size="10.00">Vector3d</text>
<text text-anchor="start" x="175.5" y="-327.5" font-family="Helvetica,sans-Serif" font-size="10.00"> </text>
<text text-anchor="start" x="175.5" y="-312.5" font-family="Helvetica,sans-Serif" font-size="10.00"> </text>
<polygon fill="#666666" stroke="#666666" points="151,-337.5 151,-337.5 204,-337.5 204,-337.5 151,-337.5"/>
<polygon fill="#666666" stroke="#666666" points="151,-322.5 151,-322.5 204,-322.5 204,-322.5 151,-322.5"/>
<polygon fill="none" stroke="#666666" points="150.5,-306 150.5,-355 203.5,-355 203.5,-306 150.5,-306"/>
</a>
</g>
</g>
<!-- Node5&#45;&gt;Node1 -->
<g id="edge3_Node000001_Node000005" class="edge">
<title>Node5&#45;&gt;Node1</title>
<g id="a_edge3_Node000001_Node000005"><a xlink:title=" ">
<path fill="none" stroke="#63b8ff" d="M177,-301.88C177,-258.43 177,-173.01 177,-114.24"/>
<polygon fill="none" stroke="#63b8ff" points="177,-114.13 173,-108.13 177,-102.13 181,-108.13 177,-114.13"/>
</a>
</g>
<text text-anchor="middle" x="198" y="-156" font-family="Helvetica,sans-Serif" font-size="10.00" fill="grey"> +pos</text>
<text text-anchor="middle" x="198" y="-145" font-family="Helvetica,sans-Serif" font-size="10.00" fill="grey">+posStd</text>
<text text-anchor="middle" x="198" y="-134" font-family="Helvetica,sans-Serif" font-size="10.00" fill="grey">+vel</text>
<text text-anchor="middle" x="198" y="-123" font-family="Helvetica,sans-Serif" font-size="10.00" fill="grey">+velStd</text>
</g>
<!-- Node6 -->
<g id="Node000006" class="node">
<title>Node6</title>
<g id="a_Node000006"><a xlink:title=" ">
<path fill="white" stroke="#666666" d="M304.5,-359C304.5,-359 241.5,-359 241.5,-359 235.5,-359 229.5,-353 229.5,-347 229.5,-347 229.5,-314 229.5,-314 229.5,-308 235.5,-302 241.5,-302 241.5,-302 304.5,-302 304.5,-302 310.5,-302 316.5,-308 316.5,-314 316.5,-314 316.5,-347 316.5,-347 316.5,-353 310.5,-359 304.5,-359"/>
<text text-anchor="start" x="243" y="-342.5" font-family="Helvetica,sans-Serif" font-size="10.00">Quaterniond</text>
<text text-anchor="start" x="271.5" y="-327.5" font-family="Helvetica,sans-Serif" font-size="10.00"> </text>
<text text-anchor="start" x="271.5" y="-312.5" font-family="Helvetica,sans-Serif" font-size="10.00"> </text>
<polygon fill="#666666" stroke="#666666" points="238,-337.5 238,-337.5 309,-337.5 309,-337.5 238,-337.5"/>
<polygon fill="#666666" stroke="#666666" points="238,-322.5 238,-322.5 309,-322.5 309,-322.5 238,-322.5"/>
<polygon fill="none" stroke="#666666" points="237.5,-306 237.5,-355 308.5,-355 308.5,-306 237.5,-306"/>
</a>
</g>
</g>
<!-- Node6&#45;&gt;Node1 -->
<g id="edge4_Node000001_Node000006" class="edge">
<title>Node6&#45;&gt;Node1</title>
<g id="a_edge4_Node000001_Node000006"><a xlink:title=" ">
<path fill="none" stroke="#63b8ff" d="M269.61,-301.7C263.89,-260.59 250.18,-181.78 223,-120 221.93,-117.56 220.77,-115.12 219.53,-112.68"/>
<polygon fill="none" stroke="#63b8ff" points="219.5,-112.62 213.11,-109.27 213.75,-102.09 220.13,-105.44 219.5,-112.62"/>
</a>
</g>
<text text-anchor="middle" x="246" y="-139.5" font-family="Helvetica,sans-Serif" font-size="10.00" fill="grey"> +q</text>
</g>
</g>
</svg>
