<?xml version="1.0" encoding="UTF-8" standalone="no"?>
<!DOCTYPE svg PUBLIC "-//W3C//DTD SVG 1.1//EN"
 "http://www.w3.org/Graphics/SVG/1.1/DTD/svg11.dtd">
<!-- Generated by graphviz version 2.43.0 (0)
 -->
<!-- Title: URL::sanitised Pages: 1 -->
<svg width="312pt" height="113pt"
 viewBox="0.00 0.00 312.00 113.00" xmlns="http://www.w3.org/2000/svg" xmlns:xlink="http://www.w3.org/1999/xlink">
<g id="graph0" class="graph" transform="scale(1 1) rotate(0) translate(4 109)">
<title>URL::sanitised</title>
<!-- Node1 -->
<g id="Node000001" class="node">
<title>Node1</title>
<g id="a_Node000001"><a xlink:href="structURL.html#ab0ccd3714f16e338f40eb008b2a25cf2" target="_top" xlink:title=" ">
<path fill="#fff0f0" stroke="red" stroke-width="2" d="M297.67,-62C297.67,-62 224.33,-62 224.33,-62 221.17,-62 218,-58.83 218,-55.67 218,-55.67 218,-49.33 218,-49.33 218,-46.17 221.17,-43 224.33,-43 224.33,-43 297.67,-43 297.67,-43 300.83,-43 304,-46.17 304,-49.33 304,-49.33 304,-55.67 304,-55.67 304,-58.83 300.83,-62 297.67,-62"/>
<text text-anchor="middle" x="261" y="-50" font-family="Helvetica,sans-Serif" font-size="10.00">URL::sanitised</text>
</a>
</g>
</g>
<!-- Node2 -->
<g id="Node000002" class="node">
<title>Node2</title>
<g id="a_Node000002"><a xlink:href="structTcpSocket.html#a4c09b381dbd56fa09e6187d833994db6" target="_top" xlink:title=" ">
<path fill="#fff0f0" stroke="red" d="M139.17,-105C139.17,-105 42.83,-105 42.83,-105 39.67,-105 36.5,-101.83 36.5,-98.67 36.5,-98.67 36.5,-92.33 36.5,-92.33 36.5,-89.17 39.67,-86 42.83,-86 42.83,-86 139.17,-86 139.17,-86 142.33,-86 145.5,-89.17 145.5,-92.33 145.5,-92.33 145.5,-98.67 145.5,-98.67 145.5,-101.83 142.33,-105 139.17,-105"/>
<text text-anchor="middle" x="91" y="-93" font-family="Helvetica,sans-Serif" font-size="10.00">TcpSocket::connect</text>
</a>
</g>
</g>
<!-- Node1&#45;&gt;Node2 -->
<g id="edge1_Node000001_Node000002" class="edge">
<title>Node1&#45;&gt;Node2</title>
<g id="a_edge1_Node000001_Node000002"><a xlink:title=" ">
<path fill="none" stroke="#63b8ff" d="M221.59,-65.07C209.04,-68.98 194.99,-73.14 182,-76.5 168.86,-79.9 154.52,-83.14 141.23,-85.95"/>
<polygon fill="#63b8ff" stroke="#63b8ff" points="222.8,-68.36 231.28,-62.02 220.69,-61.69 222.8,-68.36"/>
</a>
</g>
</g>
<!-- Node6 -->
<g id="Node000006" class="node">
<title>Node6</title>
<g id="a_Node000006"><a xlink:href="structNtripResponder.html#a874ea233cd0c2b2139c68b6d9009112a" target="_top" xlink:title=" ">
<path fill="#fff0f0" stroke="red" d="M172,-67.5C172,-67.5 10,-67.5 10,-67.5 5,-67.5 0,-62.5 0,-57.5 0,-57.5 0,-47.5 0,-47.5 0,-42.5 5,-37.5 10,-37.5 10,-37.5 172,-37.5 172,-37.5 177,-37.5 182,-42.5 182,-47.5 182,-47.5 182,-57.5 182,-57.5 182,-62.5 177,-67.5 172,-67.5"/>
<text text-anchor="start" x="8" y="-55.5" font-family="Helvetica,sans-Serif" font-size="10.00">NtripResponder::requestResponse</text>
<text text-anchor="middle" x="91" y="-44.5" font-family="Helvetica,sans-Serif" font-size="10.00">Handler</text>
</a>
</g>
</g>
<!-- Node1&#45;&gt;Node6 -->
<g id="edge2_Node000001_Node000006" class="edge">
<title>Node1&#45;&gt;Node6</title>
<g id="a_edge2_Node000001_Node000006"><a xlink:title=" ">
<path fill="none" stroke="#63b8ff" d="M207.34,-52.5C199.31,-52.5 190.83,-52.5 182.27,-52.5"/>
<polygon fill="#63b8ff" stroke="#63b8ff" points="207.61,-56 217.61,-52.5 207.61,-49 207.61,-56"/>
</a>
</g>
</g>
<!-- Node7 -->
<g id="Node000007" class="node">
<title>Node7</title>
<g id="a_Node000007"><a xlink:href="structTcpSocket.html#af0d4224df8c4ae9c3ca8227bfd10a701" target="_top" xlink:title=" ">
<path fill="#fff0f0" stroke="red" d="M158.17,-19C158.17,-19 23.83,-19 23.83,-19 20.67,-19 17.5,-15.83 17.5,-12.67 17.5,-12.67 17.5,-6.33 17.5,-6.33 17.5,-3.17 20.67,0 23.83,0 23.83,0 158.17,0 158.17,0 161.33,0 164.5,-3.17 164.5,-6.33 164.5,-6.33 164.5,-12.67 164.5,-12.67 164.5,-15.83 161.33,-19 158.17,-19"/>
<text text-anchor="middle" x="91" y="-7" font-family="Helvetica,sans-Serif" font-size="10.00">TcpSocket::timeoutHandler</text>
</a>
</g>
</g>
<!-- Node1&#45;&gt;Node7 -->
<g id="edge3_Node000001_Node000007" class="edge">
<title>Node1&#45;&gt;Node7</title>
<g id="a_edge3_Node000001_Node000007"><a xlink:title=" ">
<path fill="none" stroke="#63b8ff" d="M221.59,-39.93C209.04,-36.02 194.99,-31.86 182,-28.5 168.86,-25.1 154.52,-21.86 141.23,-19.05"/>
<polygon fill="#63b8ff" stroke="#63b8ff" points="220.69,-43.31 231.28,-42.98 222.8,-36.64 220.69,-43.31"/>
</a>
</g>
</g>
</g>
</svg>
