<?xml version="1.0" encoding="UTF-8" standalone="no"?>
<!DOCTYPE svg PUBLIC "-//W3C//DTD SVG 1.1//EN"
 "http://www.w3.org/Graphics/SVG/1.1/DTD/svg11.dtd">
<!-- Generated by graphviz version 2.43.0 (0)
 -->
<!-- Title: EMP Pages: 1 -->
<svg width="528pt" height="1190pt"
 viewBox="0.00 0.00 527.50 1190.00" xmlns="http://www.w3.org/2000/svg" xmlns:xlink="http://www.w3.org/1999/xlink">
<g id="graph0" class="graph" transform="scale(1 1) rotate(0) translate(4 1186)">
<title>EMP</title>
<!-- Node1 -->
<g id="Node000001" class="node">
<title>Node1</title>
<g id="a_Node000001"><a xlink:href="structEMP.html" target="_top" xlink:title=" ">
<path fill="white" stroke="#666666" stroke-width="2" d="M233.5,-117C233.5,-117 159.5,-117 159.5,-117 153.5,-117 147.5,-111 147.5,-105 147.5,-105 147.5,-12 147.5,-12 147.5,-6 153.5,0 159.5,0 159.5,0 233.5,0 233.5,0 239.5,0 245.5,-6 245.5,-12 245.5,-12 245.5,-105 245.5,-105 245.5,-111 239.5,-117 233.5,-117"/>
<text text-anchor="start" x="185.5" y="-100.5" font-family="Helvetica,sans-Serif" font-size="10.00">EMP</text>
<text text-anchor="start" x="159.5" y="-85.5" font-family="Helvetica,sans-Serif" font-size="10.00">+</text>
<text text-anchor="start" x="172.5" y="-85.5" font-family="Helvetica,sans-Serif" font-size="10.00">scaleEclipse</text>
<text text-anchor="start" x="159.5" y="-70.5" font-family="Helvetica,sans-Serif" font-size="10.00">+</text>
<text text-anchor="start" x="172.5" y="-70.5" font-family="Helvetica,sans-Serif" font-size="10.00">deg</text>
<text text-anchor="start" x="159.5" y="-55.5" font-family="Helvetica,sans-Serif" font-size="10.00">+</text>
<text text-anchor="start" x="172.5" y="-55.5" font-family="Helvetica,sans-Serif" font-size="10.00">axisId</text>
<text text-anchor="start" x="159.5" y="-40.5" font-family="Helvetica,sans-Serif" font-size="10.00">+</text>
<text text-anchor="start" x="172.5" y="-40.5" font-family="Helvetica,sans-Serif" font-size="10.00">type</text>
<text text-anchor="start" x="159.5" y="-25.5" font-family="Helvetica,sans-Serif" font-size="10.00">+</text>
<text text-anchor="start" x="172.5" y="-25.5" font-family="Helvetica,sans-Serif" font-size="10.00">value</text>
<text text-anchor="start" x="194.5" y="-10.5" font-family="Helvetica,sans-Serif" font-size="10.00"> </text>
<polygon fill="#666666" stroke="#666666" points="155.5,-95.5 155.5,-95.5 237.5,-95.5 237.5,-95.5 155.5,-95.5"/>
<polygon fill="#666666" stroke="#666666" points="155.5,-20.5 155.5,-20.5 170.5,-20.5 170.5,-20.5 155.5,-20.5"/>
<polygon fill="#666666" stroke="#666666" points="170.5,-20.5 170.5,-20.5 237.5,-20.5 237.5,-20.5 170.5,-20.5"/>
<polygon fill="none" stroke="#666666" points="155.5,-4 155.5,-113 237.5,-113 237.5,-4 155.5,-4"/>
</a>
</g>
</g>
<!-- Node2 -->
<g id="Node000002" class="node">
<title>Node2</title>
<g id="a_Node000002"><a xlink:href="structKFKey.html" target="_top" xlink:title="Keys used to interface with Kalman filter objects.">
<path fill="white" stroke="#666666" d="M243,-326C243,-326 150,-326 150,-326 144,-326 138,-320 138,-314 138,-314 138,-176 138,-176 138,-170 144,-164 150,-164 150,-164 243,-164 243,-164 249,-164 255,-170 255,-176 255,-176 255,-314 255,-314 255,-320 249,-326 243,-326"/>
<text text-anchor="start" x="181.5" y="-310" font-family="Helvetica,sans-Serif" font-size="10.00">KFKey</text>
<text text-anchor="start" x="150.5" y="-295" font-family="Helvetica,sans-Serif" font-size="10.00">+</text>
<text text-anchor="start" x="163.5" y="-295" font-family="Helvetica,sans-Serif" font-size="10.00">type</text>
<text text-anchor="start" x="150.5" y="-280" font-family="Helvetica,sans-Serif" font-size="10.00">+</text>
<text text-anchor="start" x="163.5" y="-280" font-family="Helvetica,sans-Serif" font-size="10.00">num</text>
<text text-anchor="start" x="150.5" y="-265" font-family="Helvetica,sans-Serif" font-size="10.00">+</text>
<text text-anchor="start" x="163.5" y="-265" font-family="Helvetica,sans-Serif" font-size="10.00">operator!=()</text>
<text text-anchor="start" x="150.5" y="-250" font-family="Helvetica,sans-Serif" font-size="10.00">+</text>
<text text-anchor="start" x="163.5" y="-250" font-family="Helvetica,sans-Serif" font-size="10.00">operator==()</text>
<text text-anchor="start" x="150.5" y="-235" font-family="Helvetica,sans-Serif" font-size="10.00">+</text>
<text text-anchor="start" x="163.5" y="-235" font-family="Helvetica,sans-Serif" font-size="10.00">operator&lt;()</text>
<text text-anchor="start" x="150.5" y="-220" font-family="Helvetica,sans-Serif" font-size="10.00">+</text>
<text text-anchor="start" x="163.5" y="-220" font-family="Helvetica,sans-Serif" font-size="10.00">operator string()</text>
<text text-anchor="start" x="150.5" y="-205" font-family="Helvetica,sans-Serif" font-size="10.00">+</text>
<text text-anchor="start" x="163.5" y="-205" font-family="Helvetica,sans-Serif" font-size="10.00">commaString()</text>
<text text-anchor="start" x="150.5" y="-190" font-family="Helvetica,sans-Serif" font-size="10.00">+</text>
<text text-anchor="start" x="163.5" y="-190" font-family="Helvetica,sans-Serif" font-size="10.00">serialize()</text>
<text text-anchor="start" x="150.5" y="-175" font-family="Helvetica,sans-Serif" font-size="10.00">+</text>
<text text-anchor="start" x="163.5" y="-175" font-family="Helvetica,sans-Serif" font-size="10.00">emptyString()</text>
<polygon fill="#666666" stroke="#666666" points="146.5,-305 146.5,-305 247.5,-305 247.5,-305 146.5,-305"/>
<polygon fill="#666666" stroke="#666666" points="146.5,-275 146.5,-275 161.5,-275 161.5,-275 146.5,-275"/>
<polygon fill="#666666" stroke="#666666" points="161.5,-275 161.5,-275 247.5,-275 247.5,-275 161.5,-275"/>
<polygon fill="none" stroke="#666666" points="146,-168 146,-322 247,-322 247,-168 146,-168"/>
</a>
</g>
</g>
<!-- Node2&#45;&gt;Node1 -->
<g id="edge1_Node000001_Node000002" class="edge">
<title>Node2&#45;&gt;Node1</title>
<g id="a_edge1_Node000001_Node000002"><a xlink:title=" ">
<path fill="none" stroke="#63b8ff" d="M196.5,-163.88C196.5,-152.31 196.5,-140.48 196.5,-129.14"/>
<polygon fill="none" stroke="#63b8ff" points="196.5,-129.06 192.5,-123.06 196.5,-117.06 200.5,-123.06 196.5,-129.06"/>
</a>
</g>
<text text-anchor="middle" x="211" y="-138" font-family="Helvetica,sans-Serif" font-size="10.00" fill="grey"> +key</text>
</g>
<!-- Node3 -->
<g id="Node000003" class="node">
<title>Node3</title>
<g id="a_Node000003"><a xlink:href="structSatSys.html" target="_top" xlink:title="Object holding satellite id, and providing related functions.">
<path fill="#fff0f0" stroke="red" d="M105,-857.5C105,-857.5 12,-857.5 12,-857.5 6,-857.5 0,-851.5 0,-845.5 0,-845.5 0,-572.5 0,-572.5 0,-566.5 6,-560.5 12,-560.5 12,-560.5 105,-560.5 105,-560.5 111,-560.5 117,-566.5 117,-572.5 117,-572.5 117,-845.5 117,-845.5 117,-851.5 111,-857.5 105,-857.5"/>
<text text-anchor="start" x="42" y="-841" font-family="Helvetica,sans-Serif" font-size="10.00">SatSys</text>
<text text-anchor="start" x="12.5" y="-826" font-family="Helvetica,sans-Serif" font-size="10.00">+</text>
<text text-anchor="start" x="25.5" y="-826" font-family="Helvetica,sans-Serif" font-size="10.00">sys</text>
<text text-anchor="start" x="12.5" y="-811" font-family="Helvetica,sans-Serif" font-size="10.00">+</text>
<text text-anchor="start" x="25.5" y="-811" font-family="Helvetica,sans-Serif" font-size="10.00">prn</text>
<text text-anchor="start" x="12.5" y="-796" font-family="Helvetica,sans-Serif" font-size="10.00">+</text>
<text text-anchor="start" x="25.5" y="-796" font-family="Helvetica,sans-Serif" font-size="10.00">SatSys()</text>
<text text-anchor="start" x="12.5" y="-781" font-family="Helvetica,sans-Serif" font-size="10.00">+</text>
<text text-anchor="start" x="25.5" y="-781" font-family="Helvetica,sans-Serif" font-size="10.00">sysChar()</text>
<text text-anchor="start" x="12.5" y="-766" font-family="Helvetica,sans-Serif" font-size="10.00">+</text>
<text text-anchor="start" x="25.5" y="-766" font-family="Helvetica,sans-Serif" font-size="10.00">getId()</text>
<text text-anchor="start" x="12.5" y="-751" font-family="Helvetica,sans-Serif" font-size="10.00">+</text>
<text text-anchor="start" x="25.5" y="-751" font-family="Helvetica,sans-Serif" font-size="10.00">operator int()</text>
<text text-anchor="start" x="12.5" y="-736" font-family="Helvetica,sans-Serif" font-size="10.00">+</text>
<text text-anchor="start" x="25.5" y="-736" font-family="Helvetica,sans-Serif" font-size="10.00">setBlockType()</text>
<text text-anchor="start" x="12.5" y="-721" font-family="Helvetica,sans-Serif" font-size="10.00">+</text>
<text text-anchor="start" x="25.5" y="-721" font-family="Helvetica,sans-Serif" font-size="10.00">setSvn()</text>
<text text-anchor="start" x="12.5" y="-706" font-family="Helvetica,sans-Serif" font-size="10.00">+</text>
<text text-anchor="start" x="25.5" y="-706" font-family="Helvetica,sans-Serif" font-size="10.00">blockType()</text>
<text text-anchor="start" x="12.5" y="-691" font-family="Helvetica,sans-Serif" font-size="10.00">+</text>
<text text-anchor="start" x="25.5" y="-691" font-family="Helvetica,sans-Serif" font-size="10.00">svn()</text>
<text text-anchor="start" x="12.5" y="-676" font-family="Helvetica,sans-Serif" font-size="10.00">+</text>
<text text-anchor="start" x="25.5" y="-676" font-family="Helvetica,sans-Serif" font-size="10.00">fromHash()</text>
<text text-anchor="start" x="12.5" y="-661" font-family="Helvetica,sans-Serif" font-size="10.00">+</text>
<text text-anchor="start" x="25.5" y="-661" font-family="Helvetica,sans-Serif" font-size="10.00">id()</text>
<text text-anchor="start" x="12.5" y="-646" font-family="Helvetica,sans-Serif" font-size="10.00">+</text>
<text text-anchor="start" x="25.5" y="-646" font-family="Helvetica,sans-Serif" font-size="10.00">operator string()</text>
<text text-anchor="start" x="12.5" y="-631" font-family="Helvetica,sans-Serif" font-size="10.00">+</text>
<text text-anchor="start" x="25.5" y="-631" font-family="Helvetica,sans-Serif" font-size="10.00">SatSys()</text>
<text text-anchor="start" x="12.5" y="-616" font-family="Helvetica,sans-Serif" font-size="10.00">+</text>
<text text-anchor="start" x="25.5" y="-616" font-family="Helvetica,sans-Serif" font-size="10.00">sysName()</text>
<text text-anchor="start" x="12.5" y="-601" font-family="Helvetica,sans-Serif" font-size="10.00">+</text>
<text text-anchor="start" x="25.5" y="-601" font-family="Helvetica,sans-Serif" font-size="10.00">serialize()</text>
<text text-anchor="start" x="12.5" y="-586" font-family="Helvetica,sans-Serif" font-size="10.00">+</text>
<text text-anchor="start" x="25.5" y="-586" font-family="Helvetica,sans-Serif" font-size="10.00">noSat()</text>
<text text-anchor="start" x="12.5" y="-571" font-family="Helvetica,sans-Serif" font-size="10.00">+</text>
<text text-anchor="start" x="25.5" y="-571" font-family="Helvetica,sans-Serif" font-size="10.00">sysFromChar()</text>
<polygon fill="red" stroke="red" points="8.5,-836 8.5,-836 109.5,-836 109.5,-836 8.5,-836"/>
<polygon fill="red" stroke="red" points="8.5,-806 8.5,-806 23.5,-806 23.5,-806 8.5,-806"/>
<polygon fill="red" stroke="red" points="23.5,-806 23.5,-806 109.5,-806 109.5,-806 23.5,-806"/>
<polygon fill="none" stroke="red" points="8,-564.5 8,-853.5 109,-853.5 109,-564.5 8,-564.5"/>
</a>
</g>
</g>
<!-- Node3&#45;&gt;Node2 -->
<g id="edge2_Node000002_Node000003" class="edge">
<title>Node3&#45;&gt;Node2</title>
<g id="a_edge2_Node000002_Node000003"><a xlink:title=" ">
<path fill="none" stroke="#63b8ff" d="M61.07,-560.46C66.94,-492.05 80.72,-411.2 111.5,-344 116.49,-333.1 123.09,-322.49 130.4,-312.53"/>
<polygon fill="none" stroke="#63b8ff" points="130.59,-312.29 131.09,-305.09 137.92,-302.79 137.42,-309.98 130.59,-312.29"/>
</a>
</g>
<text text-anchor="middle" x="125.5" y="-347" font-family="Helvetica,sans-Serif" font-size="10.00" fill="grey"> +Sat</text>
</g>
<!-- Node6 -->
<g id="Node000006" class="node">
<title>Node6</title>
<g id="a_Node000006"><a xlink:title=" ">
<path fill="white" stroke="#666666" d="M307.5,-1182C307.5,-1182 277.5,-1182 277.5,-1182 271.5,-1182 265.5,-1176 265.5,-1170 265.5,-1170 265.5,-1137 265.5,-1137 265.5,-1131 271.5,-1125 277.5,-1125 277.5,-1125 307.5,-1125 307.5,-1125 313.5,-1125 319.5,-1131 319.5,-1137 319.5,-1137 319.5,-1170 319.5,-1170 319.5,-1176 313.5,-1182 307.5,-1182"/>
<text text-anchor="start" x="278.5" y="-1165.5" font-family="Helvetica,sans-Serif" font-size="10.00">string</text>
<text text-anchor="start" x="290.5" y="-1150.5" font-family="Helvetica,sans-Serif" font-size="10.00"> </text>
<text text-anchor="start" x="290.5" y="-1135.5" font-family="Helvetica,sans-Serif" font-size="10.00"> </text>
<polygon fill="#666666" stroke="#666666" points="273.5,-1160.5 273.5,-1160.5 311.5,-1160.5 311.5,-1160.5 273.5,-1160.5"/>
<polygon fill="#666666" stroke="#666666" points="273.5,-1145.5 273.5,-1145.5 311.5,-1145.5 311.5,-1145.5 273.5,-1145.5"/>
<polygon fill="none" stroke="#666666" points="273.5,-1129 273.5,-1178 311.5,-1178 311.5,-1129 273.5,-1129"/>
</a>
</g>
</g>
<!-- Node6&#45;&gt;Node2 -->
<g id="edge3_Node000002_Node000006" class="edge">
<title>Node6&#45;&gt;Node2</title>
<g id="a_edge3_Node000002_Node000006"><a xlink:title=" ">
<path fill="none" stroke="#63b8ff" d="M265.24,-1139.36C233.78,-1122.48 183.64,-1089.91 162.5,-1045 98.9,-909.89 143.02,-521.06 162.5,-373 163.99,-361.66 166.2,-349.9 168.79,-338.31"/>
<polygon fill="none" stroke="#63b8ff" points="168.86,-338 166.34,-331.25 171.61,-326.32 174.13,-333.08 168.86,-338"/>
</a>
</g>
<text text-anchor="middle" x="191.5" y="-712" font-family="Helvetica,sans-Serif" font-size="10.00" fill="grey"> +comment</text>
<text text-anchor="middle" x="191.5" y="-701" font-family="Helvetica,sans-Serif" font-size="10.00" fill="grey">+str</text>
</g>
<!-- Node7 -->
<g id="Node000007" class="node">
<title>Node7</title>
<g id="a_Node000007"><a xlink:href="structReceiver.html" target="_top" xlink:title="Object to maintain receiver station data.">
<path fill="#fff0f0" stroke="red" d="M343.5,-820C343.5,-820 241.5,-820 241.5,-820 235.5,-820 229.5,-814 229.5,-808 229.5,-808 229.5,-610 229.5,-610 229.5,-604 235.5,-598 241.5,-598 241.5,-598 343.5,-598 343.5,-598 349.5,-598 355.5,-604 355.5,-610 355.5,-610 355.5,-808 355.5,-808 355.5,-814 349.5,-820 343.5,-820"/>
<text text-anchor="start" x="271" y="-804" font-family="Helvetica,sans-Serif" font-size="10.00">Receiver</text>
<text text-anchor="start" x="241.5" y="-789" font-family="Helvetica,sans-Serif" font-size="10.00">+</text>
<text text-anchor="start" x="254.5" y="-789" font-family="Helvetica,sans-Serif" font-size="10.00">isPseudoRec</text>
<text text-anchor="start" x="241.5" y="-774" font-family="Helvetica,sans-Serif" font-size="10.00">+</text>
<text text-anchor="start" x="254.5" y="-774" font-family="Helvetica,sans-Serif" font-size="10.00">invalid</text>
<text text-anchor="start" x="241.5" y="-759" font-family="Helvetica,sans-Serif" font-size="10.00">+</text>
<text text-anchor="start" x="254.5" y="-759" font-family="Helvetica,sans-Serif" font-size="10.00">primaryApriori</text>
<text text-anchor="start" x="241.5" y="-744" font-family="Helvetica,sans-Serif" font-size="10.00">+</text>
<text text-anchor="start" x="254.5" y="-744" font-family="Helvetica,sans-Serif" font-size="10.00">aprioriClk</text>
<text text-anchor="start" x="241.5" y="-729" font-family="Helvetica,sans-Serif" font-size="10.00">+</text>
<text text-anchor="start" x="254.5" y="-729" font-family="Helvetica,sans-Serif" font-size="10.00">aprioriClkVar</text>
<text text-anchor="start" x="241.5" y="-714" font-family="Helvetica,sans-Serif" font-size="10.00">+</text>
<text text-anchor="start" x="254.5" y="-714" font-family="Helvetica,sans-Serif" font-size="10.00">ready</text>
<text text-anchor="start" x="241.5" y="-699" font-family="Helvetica,sans-Serif" font-size="10.00">+</text>
<text text-anchor="start" x="254.5" y="-699" font-family="Helvetica,sans-Serif" font-size="10.00">failure</text>
<text text-anchor="start" x="241.5" y="-684" font-family="Helvetica,sans-Serif" font-size="10.00">+</text>
<text text-anchor="start" x="254.5" y="-684" font-family="Helvetica,sans-Serif" font-size="10.00">failureSinex</text>
<text text-anchor="start" x="241.5" y="-669" font-family="Helvetica,sans-Serif" font-size="10.00">+</text>
<text text-anchor="start" x="254.5" y="-669" font-family="Helvetica,sans-Serif" font-size="10.00">failureAprioriPos</text>
<text text-anchor="start" x="241.5" y="-654" font-family="Helvetica,sans-Serif" font-size="10.00">+</text>
<text text-anchor="start" x="254.5" y="-654" font-family="Helvetica,sans-Serif" font-size="10.00">failureEccentricity</text>
<text text-anchor="start" x="241.5" y="-639" font-family="Helvetica,sans-Serif" font-size="10.00">+</text>
<text text-anchor="start" x="254.5" y="-639" font-family="Helvetica,sans-Serif" font-size="10.00">failureAntenna</text>
<text text-anchor="start" x="241.5" y="-624" font-family="Helvetica,sans-Serif" font-size="10.00">+</text>
<text text-anchor="start" x="254.5" y="-624" font-family="Helvetica,sans-Serif" font-size="10.00">@37</text>
<text text-anchor="start" x="290.5" y="-609" font-family="Helvetica,sans-Serif" font-size="10.00"> </text>
<polygon fill="red" stroke="red" points="237.5,-799 237.5,-799 347.5,-799 347.5,-799 237.5,-799"/>
<polygon fill="red" stroke="red" points="237.5,-619 237.5,-619 252.5,-619 252.5,-619 237.5,-619"/>
<polygon fill="red" stroke="red" points="252.5,-619 252.5,-619 347.5,-619 347.5,-619 252.5,-619"/>
<polygon fill="none" stroke="red" points="237.5,-602 237.5,-816 347.5,-816 347.5,-602 237.5,-602"/>
</a>
</g>
</g>
<!-- Node6&#45;&gt;Node7 -->
<g id="edge5_Node000007_Node000006" class="edge">
<title>Node6&#45;&gt;Node7</title>
<g id="a_edge5_Node000007_Node000006"><a xlink:title=" ">
<path fill="none" stroke="#63b8ff" d="M292.5,-1124.82C292.5,-1067.46 292.5,-932.58 292.5,-832.1"/>
<polygon fill="none" stroke="#63b8ff" points="292.5,-832.02 288.5,-826.02 292.5,-820.02 296.5,-826.02 292.5,-832.02"/>
</a>
</g>
<text text-anchor="middle" x="342.5" y="-1099" font-family="Helvetica,sans-Serif" font-size="10.00" fill="grey"> +id</text>
<text text-anchor="middle" x="342.5" y="-1088" font-family="Helvetica,sans-Serif" font-size="10.00" fill="grey">+jsonTraceFilename</text>
<text text-anchor="middle" x="342.5" y="-1077" font-family="Helvetica,sans-Serif" font-size="10.00" fill="grey">+source</text>
<text text-anchor="middle" x="342.5" y="-1066" font-family="Helvetica,sans-Serif" font-size="10.00" fill="grey">+traceFilename</text>
</g>
<!-- Node14 -->
<g id="Node000014" class="node">
<title>Node14</title>
<g id="a_Node000014"><a xlink:href="structGTime.html" target="_top" xlink:title="Time structure used throughout this software.">
<path fill="white" stroke="#666666" d="M507.5,-1045C507.5,-1045 385.5,-1045 385.5,-1045 379.5,-1045 373.5,-1039 373.5,-1033 373.5,-1033 373.5,-385 373.5,-385 373.5,-379 379.5,-373 385.5,-373 385.5,-373 507.5,-373 507.5,-373 513.5,-373 519.5,-379 519.5,-385 519.5,-385 519.5,-1033 519.5,-1033 519.5,-1039 513.5,-1045 507.5,-1045"/>
<text text-anchor="start" x="430" y="-1029" font-family="Helvetica,sans-Serif" font-size="10.00">GTime</text>
<text text-anchor="start" x="385.5" y="-1014" font-family="Helvetica,sans-Serif" font-size="10.00">+</text>
<text text-anchor="start" x="398.5" y="-1014" font-family="Helvetica,sans-Serif" font-size="10.00">cacheN</text>
<text text-anchor="start" x="385.5" y="-999" font-family="Helvetica,sans-Serif" font-size="10.00">+</text>
<text text-anchor="start" x="398.5" y="-999" font-family="Helvetica,sans-Serif" font-size="10.00">cacheTime</text>
<text text-anchor="start" x="385.5" y="-984" font-family="Helvetica,sans-Serif" font-size="10.00">+</text>
<text text-anchor="start" x="398.5" y="-984" font-family="Helvetica,sans-Serif" font-size="10.00">bigTime</text>
<text text-anchor="start" x="385.5" y="-969" font-family="Helvetica,sans-Serif" font-size="10.00">+</text>
<text text-anchor="start" x="398.5" y="-969" font-family="Helvetica,sans-Serif" font-size="10.00">GTime()</text>
<text text-anchor="start" x="385.5" y="-954" font-family="Helvetica,sans-Serif" font-size="10.00">+</text>
<text text-anchor="start" x="398.5" y="-954" font-family="Helvetica,sans-Serif" font-size="10.00">GTime()</text>
<text text-anchor="start" x="385.5" y="-939" font-family="Helvetica,sans-Serif" font-size="10.00">+</text>
<text text-anchor="start" x="398.5" y="-939" font-family="Helvetica,sans-Serif" font-size="10.00">GTime()</text>
<text text-anchor="start" x="385.5" y="-924" font-family="Helvetica,sans-Serif" font-size="10.00">+</text>
<text text-anchor="start" x="398.5" y="-924" font-family="Helvetica,sans-Serif" font-size="10.00">to_string()</text>
<text text-anchor="start" x="385.5" y="-909" font-family="Helvetica,sans-Serif" font-size="10.00">+</text>
<text text-anchor="start" x="398.5" y="-909" font-family="Helvetica,sans-Serif" font-size="10.00">to_ISOstring()</text>
<text text-anchor="start" x="385.5" y="-894" font-family="Helvetica,sans-Serif" font-size="10.00">+</text>
<text text-anchor="start" x="398.5" y="-894" font-family="Helvetica,sans-Serif" font-size="10.00">to_decYear()</text>
<text text-anchor="start" x="385.5" y="-879" font-family="Helvetica,sans-Serif" font-size="10.00">+</text>
<text text-anchor="start" x="398.5" y="-879" font-family="Helvetica,sans-Serif" font-size="10.00">operator==()</text>
<text text-anchor="start" x="385.5" y="-864" font-family="Helvetica,sans-Serif" font-size="10.00">+</text>
<text text-anchor="start" x="398.5" y="-864" font-family="Helvetica,sans-Serif" font-size="10.00">operator!=()</text>
<text text-anchor="start" x="385.5" y="-849" font-family="Helvetica,sans-Serif" font-size="10.00">+</text>
<text text-anchor="start" x="398.5" y="-849" font-family="Helvetica,sans-Serif" font-size="10.00">operator&lt;()</text>
<text text-anchor="start" x="385.5" y="-834" font-family="Helvetica,sans-Serif" font-size="10.00">+</text>
<text text-anchor="start" x="398.5" y="-834" font-family="Helvetica,sans-Serif" font-size="10.00">operator&gt;()</text>
<text text-anchor="start" x="385.5" y="-819" font-family="Helvetica,sans-Serif" font-size="10.00">+</text>
<text text-anchor="start" x="398.5" y="-819" font-family="Helvetica,sans-Serif" font-size="10.00">operator&gt;=()</text>
<text text-anchor="start" x="385.5" y="-804" font-family="Helvetica,sans-Serif" font-size="10.00">+</text>
<text text-anchor="start" x="398.5" y="-804" font-family="Helvetica,sans-Serif" font-size="10.00">operator+()</text>
<text text-anchor="start" x="385.5" y="-789" font-family="Helvetica,sans-Serif" font-size="10.00">+</text>
<text text-anchor="start" x="398.5" y="-789" font-family="Helvetica,sans-Serif" font-size="10.00">operator+()</text>
<text text-anchor="start" x="385.5" y="-774" font-family="Helvetica,sans-Serif" font-size="10.00">+</text>
<text text-anchor="start" x="398.5" y="-774" font-family="Helvetica,sans-Serif" font-size="10.00">operator+()</text>
<text text-anchor="start" x="385.5" y="-759" font-family="Helvetica,sans-Serif" font-size="10.00">+</text>
<text text-anchor="start" x="398.5" y="-759" font-family="Helvetica,sans-Serif" font-size="10.00">operator+=()</text>
<text text-anchor="start" x="385.5" y="-744" font-family="Helvetica,sans-Serif" font-size="10.00">+</text>
<text text-anchor="start" x="398.5" y="-744" font-family="Helvetica,sans-Serif" font-size="10.00">operator&#45;=()</text>
<text text-anchor="start" x="385.5" y="-729" font-family="Helvetica,sans-Serif" font-size="10.00">+</text>
<text text-anchor="start" x="398.5" y="-729" font-family="Helvetica,sans-Serif" font-size="10.00">operator&#45;()</text>
<text text-anchor="start" x="385.5" y="-714" font-family="Helvetica,sans-Serif" font-size="10.00">+</text>
<text text-anchor="start" x="398.5" y="-714" font-family="Helvetica,sans-Serif" font-size="10.00">operator&#45;()</text>
<text text-anchor="start" x="385.5" y="-699" font-family="Helvetica,sans-Serif" font-size="10.00">+</text>
<text text-anchor="start" x="398.5" y="-699" font-family="Helvetica,sans-Serif" font-size="10.00">operator&#45;()</text>
<text text-anchor="start" x="385.5" y="-684" font-family="Helvetica,sans-Serif" font-size="10.00">+</text>
<text text-anchor="start" x="398.5" y="-684" font-family="Helvetica,sans-Serif" font-size="10.00">operator++()</text>
<text text-anchor="start" x="385.5" y="-669" font-family="Helvetica,sans-Serif" font-size="10.00">+</text>
<text text-anchor="start" x="398.5" y="-669" font-family="Helvetica,sans-Serif" font-size="10.00">GTime()</text>
<text text-anchor="start" x="385.5" y="-654" font-family="Helvetica,sans-Serif" font-size="10.00">+</text>
<text text-anchor="start" x="398.5" y="-654" font-family="Helvetica,sans-Serif" font-size="10.00">GTime()</text>
<text text-anchor="start" x="385.5" y="-639" font-family="Helvetica,sans-Serif" font-size="10.00">+</text>
<text text-anchor="start" x="398.5" y="-639" font-family="Helvetica,sans-Serif" font-size="10.00">GTime()</text>
<text text-anchor="start" x="385.5" y="-624" font-family="Helvetica,sans-Serif" font-size="10.00">+</text>
<text text-anchor="start" x="398.5" y="-624" font-family="Helvetica,sans-Serif" font-size="10.00">GTime()</text>
<text text-anchor="start" x="385.5" y="-609" font-family="Helvetica,sans-Serif" font-size="10.00">+</text>
<text text-anchor="start" x="398.5" y="-609" font-family="Helvetica,sans-Serif" font-size="10.00">GTime()</text>
<text text-anchor="start" x="385.5" y="-594" font-family="Helvetica,sans-Serif" font-size="10.00">+</text>
<text text-anchor="start" x="398.5" y="-594" font-family="Helvetica,sans-Serif" font-size="10.00">serialize()</text>
<text text-anchor="start" x="385.5" y="-579" font-family="Helvetica,sans-Serif" font-size="10.00">+</text>
<text text-anchor="start" x="398.5" y="-579" font-family="Helvetica,sans-Serif" font-size="10.00">floorTime()</text>
<text text-anchor="start" x="385.5" y="-564" font-family="Helvetica,sans-Serif" font-size="10.00">+</text>
<text text-anchor="start" x="398.5" y="-564" font-family="Helvetica,sans-Serif" font-size="10.00">gregString()</text>
<text text-anchor="start" x="385.5" y="-549" font-family="Helvetica,sans-Serif" font-size="10.00">+</text>
<text text-anchor="start" x="398.5" y="-549" font-family="Helvetica,sans-Serif" font-size="10.00">operator long double()</text>
<text text-anchor="start" x="385.5" y="-534" font-family="Helvetica,sans-Serif" font-size="10.00">+</text>
<text text-anchor="start" x="398.5" y="-534" font-family="Helvetica,sans-Serif" font-size="10.00">operator MjDateTT()</text>
<text text-anchor="start" x="385.5" y="-519" font-family="Helvetica,sans-Serif" font-size="10.00">+</text>
<text text-anchor="start" x="398.5" y="-519" font-family="Helvetica,sans-Serif" font-size="10.00">operator GEpoch()</text>
<text text-anchor="start" x="385.5" y="-504" font-family="Helvetica,sans-Serif" font-size="10.00">+</text>
<text text-anchor="start" x="398.5" y="-504" font-family="Helvetica,sans-Serif" font-size="10.00">operator UtcTime()</text>
<text text-anchor="start" x="385.5" y="-489" font-family="Helvetica,sans-Serif" font-size="10.00">+</text>
<text text-anchor="start" x="398.5" y="-489" font-family="Helvetica,sans-Serif" font-size="10.00">operator GWeek()</text>
<text text-anchor="start" x="385.5" y="-474" font-family="Helvetica,sans-Serif" font-size="10.00">+</text>
<text text-anchor="start" x="398.5" y="-474" font-family="Helvetica,sans-Serif" font-size="10.00">operator BWeek()</text>
<text text-anchor="start" x="385.5" y="-459" font-family="Helvetica,sans-Serif" font-size="10.00">+</text>
<text text-anchor="start" x="398.5" y="-459" font-family="Helvetica,sans-Serif" font-size="10.00">operator GTow()</text>
<text text-anchor="start" x="385.5" y="-444" font-family="Helvetica,sans-Serif" font-size="10.00">+</text>
<text text-anchor="start" x="398.5" y="-444" font-family="Helvetica,sans-Serif" font-size="10.00">operator BTow()</text>
<text text-anchor="start" x="385.5" y="-429" font-family="Helvetica,sans-Serif" font-size="10.00">+</text>
<text text-anchor="start" x="398.5" y="-429" font-family="Helvetica,sans-Serif" font-size="10.00">operator PTime()</text>
<text text-anchor="start" x="385.5" y="-414" font-family="Helvetica,sans-Serif" font-size="10.00">+</text>
<text text-anchor="start" x="398.5" y="-414" font-family="Helvetica,sans-Serif" font-size="10.00">operator string()</text>
<text text-anchor="start" x="385.5" y="-399" font-family="Helvetica,sans-Serif" font-size="10.00">+</text>
<text text-anchor="start" x="398.5" y="-399" font-family="Helvetica,sans-Serif" font-size="10.00">operator RTod()</text>
<text text-anchor="start" x="385.5" y="-384" font-family="Helvetica,sans-Serif" font-size="10.00">+</text>
<text text-anchor="start" x="398.5" y="-384" font-family="Helvetica,sans-Serif" font-size="10.00">noTime()</text>
<polygon fill="#666666" stroke="#666666" points="381.5,-1024 381.5,-1024 511.5,-1024 511.5,-1024 381.5,-1024"/>
<polygon fill="#666666" stroke="#666666" points="381.5,-979 381.5,-979 396.5,-979 396.5,-979 381.5,-979"/>
<polygon fill="#666666" stroke="#666666" points="396.5,-979 396.5,-979 511.5,-979 511.5,-979 396.5,-979"/>
<polygon fill="none" stroke="#666666" points="381.5,-377 381.5,-1041 511.5,-1041 511.5,-377 381.5,-377"/>
</a>
</g>
</g>
<!-- Node6&#45;&gt;Node14 -->
<g id="edge7_Node000014_Node000006" class="edge">
<title>Node6&#45;&gt;Node14</title>
<g id="a_edge7_Node000014_Node000006"><a xlink:title=" ">
<path fill="none" stroke="#63b8ff" d="M319.75,-1148.27C343.94,-1142.99 378.21,-1131.47 396.5,-1107 408.21,-1091.33 417.95,-1074.31 426.01,-1056.42"/>
<polygon fill="none" stroke="#63b8ff" points="426.1,-1056.21 424.78,-1049.12 430.81,-1045.17 432.13,-1052.26 426.1,-1056.21"/>
</a>
</g>
<text text-anchor="middle" x="453" y="-1082.5" font-family="Helvetica,sans-Serif" font-size="10.00" fill="grey"> +cacheString</text>
</g>
<!-- Node7&#45;&gt;Node2 -->
<g id="edge4_Node000002_Node000007" class="edge">
<title>Node7&#45;&gt;Node2</title>
<g id="a_edge4_Node000002_Node000007"><a xlink:title=" ">
<path fill="none" stroke="#63b8ff" d="M269.63,-597.93C253.18,-518.79 231.26,-413.29 215.72,-338.5"/>
<polygon fill="none" stroke="#63b8ff" points="215.63,-338.06 210.49,-332.99 213.19,-326.31 218.32,-331.37 215.63,-338.06"/>
</a>
</g>
<text text-anchor="middle" x="240.5" y="-347" font-family="Helvetica,sans-Serif" font-size="10.00" fill="grey"> +rec_ptr</text>
</g>
<!-- Node14&#45;&gt;Node2 -->
<g id="edge6_Node000002_Node000014" class="edge">
<title>Node14&#45;&gt;Node2</title>
<g id="a_edge6_Node000002_Node000014"><a xlink:title=" ">
<path fill="none" stroke="#63b8ff" d="M373.3,-387.18C370.47,-382.36 367.54,-377.63 364.5,-373 339.83,-335.49 300.17,-304.74 265.58,-282.9"/>
<polygon fill="none" stroke="#63b8ff" points="265.25,-282.7 258.04,-282.96 255.03,-276.41 262.24,-276.15 265.25,-282.7"/>
</a>
</g>
<text text-anchor="middle" x="393.5" y="-347" font-family="Helvetica,sans-Serif" font-size="10.00" fill="grey"> +estimatedTime</text>
</g>
</g>
</svg>
