<?xml version="1.0" encoding="UTF-8" standalone="no"?>
<!DOCTYPE svg PUBLIC "-//W3C//DTD SVG 1.1//EN"
 "http://www.w3.org/Graphics/SVG/1.1/DTD/svg11.dtd">
<!-- Generated by graphviz version 2.43.0 (0)
 -->
<!-- Title: EmpKalmans Pages: 1 -->
<svg width="507pt" height="884pt"
 viewBox="0.00 0.00 506.50 884.00" xmlns="http://www.w3.org/2000/svg" xmlns:xlink="http://www.w3.org/1999/xlink">
<g id="graph0" class="graph" transform="scale(1 1) rotate(0) translate(4 880)">
<title>EmpKalmans</title>
<!-- Node1 -->
<g id="Node000001" class="node">
<title>Node1</title>
<g id="a_Node000001"><a xlink:href="structEmpKalmans.html" target="_top" xlink:title=" ">
<path fill="white" stroke="#666666" stroke-width="2" d="M283,-492C283,-492 204,-492 204,-492 198,-492 192,-486 192,-480 192,-480 192,-12 192,-12 192,-6 198,0 204,0 204,0 283,0 283,0 289,0 295,-6 295,-12 295,-12 295,-480 295,-480 295,-486 289,-492 283,-492"/>
<text text-anchor="start" x="211.5" y="-476" font-family="Helvetica,sans-Serif" font-size="10.00">EmpKalmans</text>
<text text-anchor="start" x="204.5" y="-461" font-family="Helvetica,sans-Serif" font-size="10.00">+</text>
<text text-anchor="start" x="217.5" y="-461" font-family="Helvetica,sans-Serif" font-size="10.00">emp_y_0</text>
<text text-anchor="start" x="204.5" y="-446" font-family="Helvetica,sans-Serif" font-size="10.00">+</text>
<text text-anchor="start" x="217.5" y="-446" font-family="Helvetica,sans-Serif" font-size="10.00">emp_y_1</text>
<text text-anchor="start" x="204.5" y="-431" font-family="Helvetica,sans-Serif" font-size="10.00">+</text>
<text text-anchor="start" x="217.5" y="-431" font-family="Helvetica,sans-Serif" font-size="10.00">emp_y_2</text>
<text text-anchor="start" x="204.5" y="-416" font-family="Helvetica,sans-Serif" font-size="10.00">+</text>
<text text-anchor="start" x="217.5" y="-416" font-family="Helvetica,sans-Serif" font-size="10.00">emp_y_3</text>
<text text-anchor="start" x="204.5" y="-401" font-family="Helvetica,sans-Serif" font-size="10.00">+</text>
<text text-anchor="start" x="217.5" y="-401" font-family="Helvetica,sans-Serif" font-size="10.00">emp_y_4</text>
<text text-anchor="start" x="204.5" y="-386" font-family="Helvetica,sans-Serif" font-size="10.00">+</text>
<text text-anchor="start" x="217.5" y="-386" font-family="Helvetica,sans-Serif" font-size="10.00">emp_r_0</text>
<text text-anchor="start" x="204.5" y="-371" font-family="Helvetica,sans-Serif" font-size="10.00">+</text>
<text text-anchor="start" x="217.5" y="-371" font-family="Helvetica,sans-Serif" font-size="10.00">emp_r_1</text>
<text text-anchor="start" x="204.5" y="-356" font-family="Helvetica,sans-Serif" font-size="10.00">+</text>
<text text-anchor="start" x="217.5" y="-356" font-family="Helvetica,sans-Serif" font-size="10.00">emp_r_2</text>
<text text-anchor="start" x="204.5" y="-341" font-family="Helvetica,sans-Serif" font-size="10.00">+</text>
<text text-anchor="start" x="217.5" y="-341" font-family="Helvetica,sans-Serif" font-size="10.00">emp_r_3</text>
<text text-anchor="start" x="204.5" y="-326" font-family="Helvetica,sans-Serif" font-size="10.00">+</text>
<text text-anchor="start" x="217.5" y="-326" font-family="Helvetica,sans-Serif" font-size="10.00">emp_r_4</text>
<text text-anchor="start" x="204.5" y="-311" font-family="Helvetica,sans-Serif" font-size="10.00">+</text>
<text text-anchor="start" x="217.5" y="-311" font-family="Helvetica,sans-Serif" font-size="10.00">emp_t_0</text>
<text text-anchor="start" x="204.5" y="-296" font-family="Helvetica,sans-Serif" font-size="10.00">+</text>
<text text-anchor="start" x="217.5" y="-296" font-family="Helvetica,sans-Serif" font-size="10.00">emp_t_1</text>
<text text-anchor="start" x="204.5" y="-281" font-family="Helvetica,sans-Serif" font-size="10.00">+</text>
<text text-anchor="start" x="217.5" y="-281" font-family="Helvetica,sans-Serif" font-size="10.00">emp_t_2</text>
<text text-anchor="start" x="204.5" y="-266" font-family="Helvetica,sans-Serif" font-size="10.00">+</text>
<text text-anchor="start" x="217.5" y="-266" font-family="Helvetica,sans-Serif" font-size="10.00">emp_t_3</text>
<text text-anchor="start" x="204.5" y="-251" font-family="Helvetica,sans-Serif" font-size="10.00">+</text>
<text text-anchor="start" x="217.5" y="-251" font-family="Helvetica,sans-Serif" font-size="10.00">emp_t_4</text>
<text text-anchor="start" x="204.5" y="-236" font-family="Helvetica,sans-Serif" font-size="10.00">+</text>
<text text-anchor="start" x="217.5" y="-236" font-family="Helvetica,sans-Serif" font-size="10.00">emp_n_0</text>
<text text-anchor="start" x="204.5" y="-221" font-family="Helvetica,sans-Serif" font-size="10.00">+</text>
<text text-anchor="start" x="217.5" y="-221" font-family="Helvetica,sans-Serif" font-size="10.00">emp_n_1</text>
<text text-anchor="start" x="204.5" y="-206" font-family="Helvetica,sans-Serif" font-size="10.00">+</text>
<text text-anchor="start" x="217.5" y="-206" font-family="Helvetica,sans-Serif" font-size="10.00">emp_n_2</text>
<text text-anchor="start" x="204.5" y="-191" font-family="Helvetica,sans-Serif" font-size="10.00">+</text>
<text text-anchor="start" x="217.5" y="-191" font-family="Helvetica,sans-Serif" font-size="10.00">emp_n_3</text>
<text text-anchor="start" x="204.5" y="-176" font-family="Helvetica,sans-Serif" font-size="10.00">+</text>
<text text-anchor="start" x="217.5" y="-176" font-family="Helvetica,sans-Serif" font-size="10.00">emp_n_4</text>
<text text-anchor="start" x="204.5" y="-161" font-family="Helvetica,sans-Serif" font-size="10.00">+</text>
<text text-anchor="start" x="217.5" y="-161" font-family="Helvetica,sans-Serif" font-size="10.00">emp_p_0</text>
<text text-anchor="start" x="204.5" y="-146" font-family="Helvetica,sans-Serif" font-size="10.00">+</text>
<text text-anchor="start" x="217.5" y="-146" font-family="Helvetica,sans-Serif" font-size="10.00">emp_p_1</text>
<text text-anchor="start" x="204.5" y="-131" font-family="Helvetica,sans-Serif" font-size="10.00">+</text>
<text text-anchor="start" x="217.5" y="-131" font-family="Helvetica,sans-Serif" font-size="10.00">emp_p_2</text>
<text text-anchor="start" x="204.5" y="-116" font-family="Helvetica,sans-Serif" font-size="10.00">+</text>
<text text-anchor="start" x="217.5" y="-116" font-family="Helvetica,sans-Serif" font-size="10.00">emp_p_3</text>
<text text-anchor="start" x="204.5" y="-101" font-family="Helvetica,sans-Serif" font-size="10.00">+</text>
<text text-anchor="start" x="217.5" y="-101" font-family="Helvetica,sans-Serif" font-size="10.00">emp_p_4</text>
<text text-anchor="start" x="204.5" y="-86" font-family="Helvetica,sans-Serif" font-size="10.00">+</text>
<text text-anchor="start" x="217.5" y="-86" font-family="Helvetica,sans-Serif" font-size="10.00">emp_q_0</text>
<text text-anchor="start" x="204.5" y="-71" font-family="Helvetica,sans-Serif" font-size="10.00">+</text>
<text text-anchor="start" x="217.5" y="-71" font-family="Helvetica,sans-Serif" font-size="10.00">emp_q_1</text>
<text text-anchor="start" x="204.5" y="-56" font-family="Helvetica,sans-Serif" font-size="10.00">+</text>
<text text-anchor="start" x="217.5" y="-56" font-family="Helvetica,sans-Serif" font-size="10.00">emp_q_2</text>
<text text-anchor="start" x="204.5" y="-41" font-family="Helvetica,sans-Serif" font-size="10.00">+</text>
<text text-anchor="start" x="217.5" y="-41" font-family="Helvetica,sans-Serif" font-size="10.00">emp_q_3</text>
<text text-anchor="start" x="204.5" y="-26" font-family="Helvetica,sans-Serif" font-size="10.00">+</text>
<text text-anchor="start" x="217.5" y="-26" font-family="Helvetica,sans-Serif" font-size="10.00">emp_q_4</text>
<text text-anchor="start" x="204.5" y="-11" font-family="Helvetica,sans-Serif" font-size="10.00">+</text>
<text text-anchor="start" x="217.5" y="-11" font-family="Helvetica,sans-Serif" font-size="10.00">operator+=()</text>
<polygon fill="#666666" stroke="#666666" points="200.5,-471 200.5,-471 287.5,-471 287.5,-471 200.5,-471"/>
<polygon fill="#666666" stroke="#666666" points="200.5,-21 200.5,-21 215.5,-21 215.5,-21 200.5,-21"/>
<polygon fill="#666666" stroke="#666666" points="215.5,-21 215.5,-21 287.5,-21 287.5,-21 215.5,-21"/>
<polygon fill="none" stroke="#666666" points="200,-4 200,-488 287,-488 287,-4 200,-4"/>
</a>
</g>
</g>
<!-- Node2 -->
<g id="Node000002" class="node">
<title>Node2</title>
<g id="a_Node000002"><a xlink:href="structKalmanModel.html" target="_top" xlink:title="Options associated with kalman filter states.">
<path fill="white" stroke="#666666" d="M283,-706C283,-706 204,-706 204,-706 198,-706 192,-700 192,-694 192,-694 192,-661 192,-661 192,-655 198,-649 204,-649 204,-649 283,-649 283,-649 289,-649 295,-655 295,-661 295,-661 295,-694 295,-694 295,-700 289,-706 283,-706"/>
<text text-anchor="start" x="210" y="-689.5" font-family="Helvetica,sans-Serif" font-size="10.00">KalmanModel</text>
<text text-anchor="start" x="242" y="-674.5" font-family="Helvetica,sans-Serif" font-size="10.00"> </text>
<text text-anchor="start" x="204.5" y="-659.5" font-family="Helvetica,sans-Serif" font-size="10.00">+</text>
<text text-anchor="start" x="217.5" y="-659.5" font-family="Helvetica,sans-Serif" font-size="10.00">operator+=()</text>
<polygon fill="#666666" stroke="#666666" points="200.5,-684.5 200.5,-684.5 287.5,-684.5 287.5,-684.5 200.5,-684.5"/>
<polygon fill="#666666" stroke="#666666" points="200.5,-669.5 200.5,-669.5 287.5,-669.5 287.5,-669.5 200.5,-669.5"/>
<polygon fill="none" stroke="#666666" points="200,-653 200,-702 287,-702 287,-653 200,-653"/>
</a>
</g>
</g>
<!-- Node2&#45;&gt;Node1 -->
<g id="edge1_Node000001_Node000002" class="edge">
<title>Node2&#45;&gt;Node1</title>
<g id="a_edge1_Node000001_Node000002"><a xlink:title=" ">
<path fill="none" stroke="#63b8ff" d="M243.5,-648.98C243.5,-617.67 243.5,-563.2 243.5,-504.27"/>
<polygon fill="none" stroke="#63b8ff" points="243.5,-504.03 239.5,-498.03 243.5,-492.03 247.5,-498.03 243.5,-504.03"/>
</a>
</g>
<text text-anchor="middle" x="271.5" y="-623" font-family="Helvetica,sans-Serif" font-size="10.00" fill="grey"> +emp_b_0</text>
<text text-anchor="middle" x="271.5" y="-612" font-family="Helvetica,sans-Serif" font-size="10.00" fill="grey">+emp_b_1</text>
<text text-anchor="middle" x="271.5" y="-601" font-family="Helvetica,sans-Serif" font-size="10.00" fill="grey">+emp_b_2</text>
<text text-anchor="middle" x="271.5" y="-590" font-family="Helvetica,sans-Serif" font-size="10.00" fill="grey">+emp_b_3</text>
<text text-anchor="middle" x="271.5" y="-579" font-family="Helvetica,sans-Serif" font-size="10.00" fill="grey">+emp_b_4</text>
<text text-anchor="middle" x="271.5" y="-568" font-family="Helvetica,sans-Serif" font-size="10.00" fill="grey">+emp_d_0</text>
<text text-anchor="middle" x="271.5" y="-557" font-family="Helvetica,sans-Serif" font-size="10.00" fill="grey">+emp_d_1</text>
<text text-anchor="middle" x="271.5" y="-546" font-family="Helvetica,sans-Serif" font-size="10.00" fill="grey">+emp_d_2</text>
<text text-anchor="middle" x="271.5" y="-535" font-family="Helvetica,sans-Serif" font-size="10.00" fill="grey">+emp_d_3</text>
<text text-anchor="middle" x="271.5" y="-524" font-family="Helvetica,sans-Serif" font-size="10.00" fill="grey">+emp_d_4</text>
<text text-anchor="middle" x="271.5" y="-513" font-family="Helvetica,sans-Serif" font-size="10.00" fill="grey">...</text>
</g>
<!-- Node3 -->
<g id="Node000003" class="node">
<title>Node3</title>
<g id="a_Node000003"><a xlink:title=" ">
<path fill="#fff0f0" stroke="red" d="M101,-876C101,-876 12,-876 12,-876 6,-876 0,-870 0,-864 0,-864 0,-831 0,-831 0,-825 6,-819 12,-819 12,-819 101,-819 101,-819 107,-819 113,-825 113,-831 113,-831 113,-864 113,-864 113,-870 107,-876 101,-876"/>
<text text-anchor="start" x="13.5" y="-859.5" font-family="Helvetica,sans-Serif" font-size="10.00">vector&lt; double &gt;</text>
<text text-anchor="start" x="55" y="-844.5" font-family="Helvetica,sans-Serif" font-size="10.00"> </text>
<text text-anchor="start" x="55" y="-829.5" font-family="Helvetica,sans-Serif" font-size="10.00"> </text>
<polygon fill="red" stroke="red" points="8.5,-854.5 8.5,-854.5 105.5,-854.5 105.5,-854.5 8.5,-854.5"/>
<polygon fill="red" stroke="red" points="8.5,-839.5 8.5,-839.5 105.5,-839.5 105.5,-839.5 8.5,-839.5"/>
<polygon fill="none" stroke="red" points="8,-823 8,-872 105,-872 105,-823 8,-823"/>
</a>
</g>
</g>
<!-- Node3&#45;&gt;Node2 -->
<g id="edge2_Node000002_Node000003" class="edge">
<title>Node3&#45;&gt;Node2</title>
<g id="a_edge2_Node000002_Node000003"><a xlink:title=" ">
<path fill="none" stroke="#63b8ff" d="M56.27,-818.9C57.55,-791.3 63.85,-749.4 88.5,-724 112.21,-699.57 148.28,-688.08 179.67,-682.75"/>
<polygon fill="none" stroke="#63b8ff" points="180,-682.7 185.35,-677.86 191.87,-680.93 186.53,-685.77 180,-682.7"/>
</a>
</g>
<text text-anchor="middle" x="127.5" y="-793" font-family="Helvetica,sans-Serif" font-size="10.00" fill="grey"> +apriori_value</text>
<text text-anchor="middle" x="127.5" y="-782" font-family="Helvetica,sans-Serif" font-size="10.00" fill="grey">+mu</text>
<text text-anchor="middle" x="127.5" y="-771" font-family="Helvetica,sans-Serif" font-size="10.00" fill="grey">+outage_limit</text>
<text text-anchor="middle" x="127.5" y="-760" font-family="Helvetica,sans-Serif" font-size="10.00" fill="grey">+process_noise</text>
<text text-anchor="middle" x="127.5" y="-749" font-family="Helvetica,sans-Serif" font-size="10.00" fill="grey">+sigma</text>
<text text-anchor="middle" x="127.5" y="-738" font-family="Helvetica,sans-Serif" font-size="10.00" fill="grey">+sigma_limit</text>
<text text-anchor="middle" x="127.5" y="-727" font-family="Helvetica,sans-Serif" font-size="10.00" fill="grey">+tau</text>
</g>
<!-- Node5 -->
<g id="Node000005" class="node">
<title>Node5</title>
<g id="a_Node000005"><a xlink:title=" ">
<path fill="#fff0f0" stroke="red" d="M220,-876C220,-876 143,-876 143,-876 137,-876 131,-870 131,-864 131,-864 131,-831 131,-831 131,-825 137,-819 143,-819 143,-819 220,-819 220,-819 226,-819 232,-825 232,-831 232,-831 232,-864 232,-864 232,-870 226,-876 220,-876"/>
<text text-anchor="start" x="144.5" y="-859.5" font-family="Helvetica,sans-Serif" font-size="10.00">vector&lt; bool &gt;</text>
<text text-anchor="start" x="180" y="-844.5" font-family="Helvetica,sans-Serif" font-size="10.00"> </text>
<text text-anchor="start" x="180" y="-829.5" font-family="Helvetica,sans-Serif" font-size="10.00"> </text>
<polygon fill="red" stroke="red" points="139.5,-854.5 139.5,-854.5 224.5,-854.5 224.5,-854.5 139.5,-854.5"/>
<polygon fill="red" stroke="red" points="139.5,-839.5 139.5,-839.5 224.5,-839.5 224.5,-839.5 139.5,-839.5"/>
<polygon fill="none" stroke="red" points="139,-823 139,-872 224,-872 224,-823 139,-823"/>
</a>
</g>
</g>
<!-- Node5&#45;&gt;Node2 -->
<g id="edge3_Node000002_Node000005" class="edge">
<title>Node5&#45;&gt;Node2</title>
<g id="a_edge3_Node000002_Node000005"><a xlink:title=" ">
<path fill="none" stroke="#63b8ff" d="M174.97,-818.57C170.41,-792.61 167.5,-753.59 182.5,-724 184.1,-720.85 186.02,-717.86 188.19,-715.04"/>
<polygon fill="none" stroke="#63b8ff" points="188.3,-714.92 189.4,-707.79 196.4,-706.06 195.3,-713.19 188.3,-714.92"/>
</a>
</g>
<text text-anchor="middle" x="233.5" y="-765.5" font-family="Helvetica,sans-Serif" font-size="10.00" fill="grey"> +estimate</text>
<text text-anchor="middle" x="233.5" y="-754.5" font-family="Helvetica,sans-Serif" font-size="10.00" fill="grey">+use_remote_sigma</text>
</g>
<!-- Node6 -->
<g id="Node000006" class="node">
<title>Node6</title>
<g id="a_Node000006"><a xlink:title=" ">
<path fill="#fff0f0" stroke="red" d="M348.5,-876C348.5,-876 264.5,-876 264.5,-876 258.5,-876 252.5,-870 252.5,-864 252.5,-864 252.5,-831 252.5,-831 252.5,-825 258.5,-819 264.5,-819 264.5,-819 348.5,-819 348.5,-819 354.5,-819 360.5,-825 360.5,-831 360.5,-831 360.5,-864 360.5,-864 360.5,-870 354.5,-876 348.5,-876"/>
<text text-anchor="start" x="265.5" y="-859.5" font-family="Helvetica,sans-Serif" font-size="10.00">vector&lt; string &gt;</text>
<text text-anchor="start" x="304.5" y="-844.5" font-family="Helvetica,sans-Serif" font-size="10.00"> </text>
<text text-anchor="start" x="304.5" y="-829.5" font-family="Helvetica,sans-Serif" font-size="10.00"> </text>
<polygon fill="red" stroke="red" points="260.5,-854.5 260.5,-854.5 352.5,-854.5 352.5,-854.5 260.5,-854.5"/>
<polygon fill="red" stroke="red" points="260.5,-839.5 260.5,-839.5 352.5,-839.5 352.5,-839.5 260.5,-839.5"/>
<polygon fill="none" stroke="red" points="260.5,-823 260.5,-872 352.5,-872 352.5,-823 260.5,-823"/>
</a>
</g>
</g>
<!-- Node6&#45;&gt;Node2 -->
<g id="edge4_Node000002_Node000006" class="edge">
<title>Node6&#45;&gt;Node2</title>
<g id="a_edge4_Node000002_Node000006"><a xlink:title=" ">
<path fill="none" stroke="#63b8ff" d="M305.84,-818.88C304.26,-793.14 299.33,-754.27 284.5,-724 283.15,-721.24 281.58,-718.53 279.86,-715.88"/>
<polygon fill="none" stroke="#63b8ff" points="279.75,-715.73 272.97,-713.28 272.63,-706.07 279.41,-708.53 279.75,-715.73"/>
</a>
</g>
<text text-anchor="middle" x="332.5" y="-760" font-family="Helvetica,sans-Serif" font-size="10.00" fill="grey"> +comment</text>
</g>
<!-- Node7 -->
<g id="Node000007" class="node">
<title>Node7</title>
<g id="a_Node000007"><a xlink:title=" ">
<path fill="#fff0f0" stroke="red" d="M478,-876C478,-876 391,-876 391,-876 385,-876 379,-870 379,-864 379,-864 379,-831 379,-831 379,-825 385,-819 391,-819 391,-819 478,-819 478,-819 484,-819 490,-825 490,-831 490,-831 490,-864 490,-864 490,-870 484,-876 478,-876"/>
<text text-anchor="start" x="392.5" y="-859.5" font-family="Helvetica,sans-Serif" font-size="10.00">map&lt; int, bool &gt;</text>
<text text-anchor="start" x="433" y="-844.5" font-family="Helvetica,sans-Serif" font-size="10.00"> </text>
<text text-anchor="start" x="433" y="-829.5" font-family="Helvetica,sans-Serif" font-size="10.00"> </text>
<polygon fill="red" stroke="red" points="387.5,-854.5 387.5,-854.5 482.5,-854.5 482.5,-854.5 387.5,-854.5"/>
<polygon fill="red" stroke="red" points="387.5,-839.5 387.5,-839.5 482.5,-839.5 482.5,-839.5 387.5,-839.5"/>
<polygon fill="none" stroke="red" points="387,-823 387,-872 482,-872 482,-823 387,-823"/>
</a>
</g>
</g>
<!-- Node7&#45;&gt;Node2 -->
<g id="edge5_Node000002_Node000007" class="edge">
<title>Node7&#45;&gt;Node2</title>
<g id="a_edge5_Node000002_Node000007"><a xlink:title=" ">
<path fill="none" stroke="#63b8ff" d="M425.39,-818.96C414.96,-791.41 395.37,-749.54 365.5,-724 348.76,-709.69 327.09,-699.68 306.67,-692.77"/>
<polygon fill="none" stroke="#63b8ff" points="306.62,-692.75 299.69,-694.77 295.17,-689.15 302.1,-687.14 306.62,-692.75"/>
</a>
</g>
<text text-anchor="middle" x="458" y="-760" font-family="Helvetica,sans-Serif" font-size="10.00" fill="grey"> +initialisedMap</text>
</g>
</g>
</svg>
