<?xml version="1.0" encoding="UTF-8" standalone="no"?>
<!DOCTYPE svg PUBLIC "-//W3C//DTD SVG 1.1//EN"
 "http://www.w3.org/Graphics/SVG/1.1/DTD/svg11.dtd">
<!-- Generated by graphviz version 2.43.0 (0)
 -->
<!-- Title: KFState::initFilterEpoch Pages: 1 -->
<svg width="297pt" height="64pt"
 viewBox="0.00 0.00 297.00 64.00" xmlns="http://www.w3.org/2000/svg" xmlns:xlink="http://www.w3.org/1999/xlink">
<g id="graph0" class="graph" transform="scale(1 1) rotate(0) translate(4 60)">
<title>KFState::initFilterEpoch</title>
<!-- Node1 -->
<g id="Node000001" class="node">
<title>Node1</title>
<g id="a_Node000001"><a xlink:href="structKFState.html#a1ad6c6d147c0a3d7cc8a6c4f1eca3de2" target="_top" xlink:title="Clears and initialises the state transition matrix to identity at the beginning of an epoch.">
<path fill="#fff0f0" stroke="red" stroke-width="2" d="M123.67,-19C123.67,-19 6.33,-19 6.33,-19 3.17,-19 0,-15.83 0,-12.67 0,-12.67 0,-6.33 0,-6.33 0,-3.17 3.17,0 6.33,0 6.33,0 123.67,0 123.67,0 126.83,0 130,-3.17 130,-6.33 130,-6.33 130,-12.67 130,-12.67 130,-15.83 126.83,-19 123.67,-19"/>
<text text-anchor="middle" x="65" y="-7" font-family="Helvetica,sans-Serif" font-size="10.00">KFState::initFilterEpoch</text>
</a>
</g>
</g>
<!-- Node2 -->
<g id="Node000002" class="node">
<title>Node2</title>
<g id="a_Node000002"><a xlink:href="structKFState.html#a2a21ab8300f2940c03ef6f6cc4273f03" target="_top" xlink:title="Returns the standard deviation of a state within the kalman filter object.">
<path fill="#fff0f0" stroke="red" d="M280.67,-56C280.67,-56 174.33,-56 174.33,-56 171.17,-56 168,-52.83 168,-49.67 168,-49.67 168,-43.33 168,-43.33 168,-40.17 171.17,-37 174.33,-37 174.33,-37 280.67,-37 280.67,-37 283.83,-37 287,-40.17 287,-43.33 287,-43.33 287,-49.67 287,-49.67 287,-52.83 283.83,-56 280.67,-56"/>
<text text-anchor="middle" x="227.5" y="-44" font-family="Helvetica,sans-Serif" font-size="10.00">KFState::getKFSigma</text>
</a>
</g>
</g>
<!-- Node1&#45;&gt;Node2 -->
<g id="edge1_Node000001_Node000002" class="edge">
<title>Node1&#45;&gt;Node2</title>
<g id="a_edge1_Node000001_Node000002"><a xlink:title=" ">
<path fill="none" stroke="#63b8ff" d="M107.33,-19.03C128.03,-23.8 153.29,-29.62 175.22,-34.68"/>
<polygon fill="#63b8ff" stroke="#63b8ff" points="174.5,-38.1 185.03,-36.94 176.07,-31.28 174.5,-38.1"/>
</a>
</g>
</g>
<!-- Node3 -->
<g id="Node000003" class="node">
<title>Node3</title>
<g id="a_Node000003"><a xlink:href="structKFState.html#a043f0e3fd99610dfad8e650a1514c395" target="_top" xlink:title="Remove a state from a kalman filter object.">
<path fill="#fff0f0" stroke="red" d="M282.67,-19C282.67,-19 172.33,-19 172.33,-19 169.17,-19 166,-15.83 166,-12.67 166,-12.67 166,-6.33 166,-6.33 166,-3.17 169.17,0 172.33,0 172.33,0 282.67,0 282.67,0 285.83,0 289,-3.17 289,-6.33 289,-6.33 289,-12.67 289,-12.67 289,-15.83 285.83,-19 282.67,-19"/>
<text text-anchor="middle" x="227.5" y="-7" font-family="Helvetica,sans-Serif" font-size="10.00">KFState::removeState</text>
</a>
</g>
</g>
<!-- Node1&#45;&gt;Node3 -->
<g id="edge2_Node000001_Node000003" class="edge">
<title>Node1&#45;&gt;Node3</title>
<g id="a_edge2_Node000001_Node000003"><a xlink:title=" ">
<path fill="none" stroke="#63b8ff" d="M130.36,-2.87C138.66,-2.74 147.21,-2.72 155.62,-2.79"/>
<polygon fill="#63b8ff" stroke="#63b8ff" points="155.73,-6.29 165.78,-2.93 155.82,0.71 155.73,-6.29"/>
</a>
</g>
</g>
<!-- Node1&#45;&gt;Node3 -->
<g id="edge3_Node000001_Node000003" class="edge">
<title>Node1&#45;&gt;Node3</title>
<g id="a_edge3_Node000001_Node000003"><a xlink:title=" ">
<path fill="none" stroke="#63b8ff" d="M130.36,-16.13C138.66,-16.26 147.21,-16.28 155.62,-16.21"/>
<polygon fill="#63b8ff" stroke="#63b8ff" points="155.82,-19.71 165.78,-16.07 155.73,-12.71 155.82,-19.71"/>
</a>
</g>
</g>
</g>
</svg>
