<?xml version="1.0" encoding="UTF-8" standalone="no"?>
<!DOCTYPE svg PUBLIC "-//W3C//DTD SVG 1.1//EN"
 "http://www.w3.org/Graphics/SVG/1.1/DTD/svg11.dtd">
<!-- Generated by graphviz version 2.43.0 (0)
 -->
<!-- Title: TcpSocket::networkLog Pages: 1 -->
<svg width="551pt" height="52pt"
 viewBox="0.00 0.00 551.00 51.50" xmlns="http://www.w3.org/2000/svg" xmlns:xlink="http://www.w3.org/1999/xlink">
<g id="graph0" class="graph" transform="scale(1 1) rotate(0) translate(4 47.5)">
<title>TcpSocket::networkLog</title>
<!-- Node1 -->
<g id="Node000001" class="node">
<title>Node1</title>
<g id="a_Node000001"><a xlink:href="structTcpSocket.html#ae3b75807774e6b4d266e3a1e0073a42e" target="_top" xlink:title=" ">
<path fill="#fff0f0" stroke="red" stroke-width="2" d="M536.67,-24.5C536.67,-24.5 421.33,-24.5 421.33,-24.5 418.17,-24.5 415,-21.33 415,-18.17 415,-18.17 415,-11.83 415,-11.83 415,-8.67 418.17,-5.5 421.33,-5.5 421.33,-5.5 536.67,-5.5 536.67,-5.5 539.83,-5.5 543,-8.67 543,-11.83 543,-11.83 543,-18.17 543,-18.17 543,-21.33 539.83,-24.5 536.67,-24.5"/>
<text text-anchor="middle" x="479" y="-12.5" font-family="Helvetica,sans-Serif" font-size="10.00">TcpSocket::networkLog</text>
</a>
</g>
</g>
<!-- Node2 -->
<g id="Node000002" class="node">
<title>Node2</title>
<g id="a_Node000002"><a xlink:href="structTcpSocket.html#ae4050e3ed6adf0dbe575ca992234f798" target="_top" xlink:title=" ">
<path fill="#fff0f0" stroke="red" d="M372.67,-43.5C372.67,-43.5 224.33,-43.5 224.33,-43.5 221.17,-43.5 218,-40.33 218,-37.17 218,-37.17 218,-30.83 218,-30.83 218,-27.67 221.17,-24.5 224.33,-24.5 224.33,-24.5 372.67,-24.5 372.67,-24.5 375.83,-24.5 379,-27.67 379,-30.83 379,-30.83 379,-37.17 379,-37.17 379,-40.33 375.83,-43.5 372.67,-43.5"/>
<text text-anchor="middle" x="298.5" y="-31.5" font-family="Helvetica,sans-Serif" font-size="10.00">TcpSocket::delayedReconnect</text>
</a>
</g>
</g>
<!-- Node1&#45;&gt;Node2 -->
<g id="edge1_Node000001_Node000002" class="edge">
<title>Node1&#45;&gt;Node2</title>
<g id="a_edge1_Node000001_Node000002"><a xlink:title=" ">
<path fill="none" stroke="#63b8ff" d="M404.68,-22.8C396.27,-23.7 387.66,-24.62 379.17,-25.52"/>
<polygon fill="#63b8ff" stroke="#63b8ff" points="405.24,-26.26 414.82,-21.73 404.5,-19.3 405.24,-26.26"/>
</a>
</g>
</g>
<!-- Node3 -->
<g id="Node000003" class="node">
<title>Node3</title>
<g id="a_Node000003"><a xlink:href="structNtripResponder.html#a874ea233cd0c2b2139c68b6d9009112a" target="_top" xlink:title=" ">
<path fill="#fff0f0" stroke="red" d="M172,-30C172,-30 10,-30 10,-30 5,-30 0,-25 0,-20 0,-20 0,-10 0,-10 0,-5 5,0 10,0 10,0 172,0 172,0 177,0 182,-5 182,-10 182,-10 182,-20 182,-20 182,-25 177,-30 172,-30"/>
<text text-anchor="start" x="8" y="-18" font-family="Helvetica,sans-Serif" font-size="10.00">NtripResponder::requestResponse</text>
<text text-anchor="middle" x="91" y="-7" font-family="Helvetica,sans-Serif" font-size="10.00">Handler</text>
</a>
</g>
</g>
<!-- Node1&#45;&gt;Node3 -->
<g id="edge3_Node000001_Node000003" class="edge">
<title>Node1&#45;&gt;Node3</title>
<g id="a_edge3_Node000001_Node000003"><a xlink:title=" ">
<path fill="none" stroke="#63b8ff" d="M404.4,-15C341.13,-15 249.66,-15 182.04,-15"/>
<polygon fill="#63b8ff" stroke="#63b8ff" points="404.69,-18.5 414.69,-15 404.69,-11.5 404.69,-18.5"/>
</a>
</g>
</g>
<!-- Node2&#45;&gt;Node3 -->
<g id="edge2_Node000002_Node000003" class="edge">
<title>Node2&#45;&gt;Node3</title>
<g id="a_edge2_Node000002_Node000003"><a xlink:title=" ">
<path fill="none" stroke="#63b8ff" d="M207.59,-25.69C199.19,-24.91 190.68,-24.12 182.29,-23.35"/>
<polygon fill="#63b8ff" stroke="#63b8ff" points="207.47,-29.19 217.75,-26.63 208.12,-22.22 207.47,-29.19"/>
</a>
</g>
</g>
</g>
</svg>
