<?xml version="1.0" encoding="UTF-8" standalone="no"?>
<!DOCTYPE svg PUBLIC "-//W3C//DTD SVG 1.1//EN"
 "http://www.w3.org/Graphics/SVG/1.1/DTD/svg11.dtd">
<!-- Generated by graphviz version 2.43.0 (0)
 -->
<!-- Title: KFState::setExponentialNoise Pages: 1 -->
<svg width="322pt" height="27pt"
 viewBox="0.00 0.00 322.00 27.00" xmlns="http://www.w3.org/2000/svg" xmlns:xlink="http://www.w3.org/1999/xlink">
<g id="graph0" class="graph" transform="scale(1 1) rotate(0) translate(4 23)">
<title>KFState::setExponentialNoise</title>
<!-- Node1 -->
<g id="Node000001" class="node">
<title>Node1</title>
<g id="a_Node000001"><a xlink:href="structKFState.html#aece25f1cafe5d3b85dc07f6ec1f57196" target="_top" xlink:title=" ">
<path fill="#fff0f0" stroke="red" stroke-width="2" d="M307.67,-19C307.67,-19 159.33,-19 159.33,-19 156.17,-19 153,-15.83 153,-12.67 153,-12.67 153,-6.33 153,-6.33 153,-3.17 156.17,0 159.33,0 159.33,0 307.67,0 307.67,0 310.83,0 314,-3.17 314,-6.33 314,-6.33 314,-12.67 314,-12.67 314,-15.83 310.83,-19 307.67,-19"/>
<text text-anchor="middle" x="233.5" y="-7" font-family="Helvetica,sans-Serif" font-size="10.00">KFState::setExponentialNoise</text>
</a>
</g>
</g>
<!-- Node2 -->
<g id="Node000002" class="node">
<title>Node2</title>
<g id="a_Node000002"><a xlink:href="ppppp_8cpp.html#a0c7e9127b8ac6b4b5f865d1220efe547" target="_top" xlink:title=" ">
<path fill="#fff0f0" stroke="red" d="M110.67,-19C110.67,-19 6.33,-19 6.33,-19 3.17,-19 0,-15.83 0,-12.67 0,-12.67 0,-6.33 0,-6.33 0,-3.17 3.17,0 6.33,0 6.33,0 110.67,0 110.67,0 113.83,0 117,-3.17 117,-6.33 117,-6.33 117,-12.67 117,-12.67 117,-15.83 113.83,-19 110.67,-19"/>
<text text-anchor="middle" x="58.5" y="-7" font-family="Helvetica,sans-Serif" font-size="10.00">updatePseudoPulses</text>
</a>
</g>
</g>
<!-- Node1&#45;&gt;Node2 -->
<g id="edge1_Node000001_Node000002" class="edge">
<title>Node1&#45;&gt;Node2</title>
<g id="a_edge1_Node000001_Node000002"><a xlink:title=" ">
<path fill="none" stroke="#63b8ff" d="M142.64,-9.5C133.95,-9.5 125.31,-9.5 117.07,-9.5"/>
<polygon fill="#63b8ff" stroke="#63b8ff" points="142.84,-13 152.84,-9.5 142.84,-6 142.84,-13"/>
</a>
</g>
</g>
</g>
</svg>
