<?xml version="1.0" encoding="UTF-8" standalone="no"?>
<!DOCTYPE svg PUBLIC "-//W3C//DTD SVG 1.1//EN"
 "http://www.w3.org/Graphics/SVG/1.1/DTD/svg11.dtd">
<!-- Generated by graphviz version 2.43.0 (0)
 -->
<!-- Title: InertialState Pages: 1 -->
<svg width="705pt" height="1709pt"
 viewBox="0.00 0.00 704.50 1709.00" xmlns="http://www.w3.org/2000/svg" xmlns:xlink="http://www.w3.org/1999/xlink">
<g id="graph0" class="graph" transform="scale(1 1) rotate(0) translate(4 1705)">
<title>InertialState</title>
<!-- Node1 -->
<g id="Node000001" class="node">
<title>Node1</title>
<g id="a_Node000001"><a xlink:href="structInertialState.html" target="_top" xlink:title=" ">
<path fill="white" stroke="#666666" stroke-width="2" d="M473,-147C473,-147 394,-147 394,-147 388,-147 382,-141 382,-135 382,-135 382,-12 382,-12 382,-6 388,0 394,0 394,0 473,0 473,0 479,0 485,-6 485,-12 485,-12 485,-135 485,-135 485,-141 479,-147 473,-147"/>
<text text-anchor="start" x="403.5" y="-130.5" font-family="Helvetica,sans-Serif" font-size="10.00">InertialState</text>
<text text-anchor="start" x="394.5" y="-115.5" font-family="Helvetica,sans-Serif" font-size="10.00">+</text>
<text text-anchor="start" x="407.5" y="-115.5" font-family="Helvetica,sans-Serif" font-size="10.00">exclude</text>
<text text-anchor="start" x="394.5" y="-100.5" font-family="Helvetica,sans-Serif" font-size="10.00">+</text>
<text text-anchor="start" x="407.5" y="-100.5" font-family="Helvetica,sans-Serif" font-size="10.00">numParams</text>
<text text-anchor="start" x="394.5" y="-85.5" font-family="Helvetica,sans-Serif" font-size="10.00">+</text>
<text text-anchor="start" x="407.5" y="-85.5" font-family="Helvetica,sans-Serif" font-size="10.00">posVar</text>
<text text-anchor="start" x="394.5" y="-70.5" font-family="Helvetica,sans-Serif" font-size="10.00">+</text>
<text text-anchor="start" x="407.5" y="-70.5" font-family="Helvetica,sans-Serif" font-size="10.00">operator+=()</text>
<text text-anchor="start" x="394.5" y="-55.5" font-family="Helvetica,sans-Serif" font-size="10.00">+</text>
<text text-anchor="start" x="407.5" y="-55.5" font-family="Helvetica,sans-Serif" font-size="10.00">operator*=()</text>
<text text-anchor="start" x="394.5" y="-40.5" font-family="Helvetica,sans-Serif" font-size="10.00">+</text>
<text text-anchor="start" x="407.5" y="-40.5" font-family="Helvetica,sans-Serif" font-size="10.00">operator+()</text>
<text text-anchor="start" x="394.5" y="-25.5" font-family="Helvetica,sans-Serif" font-size="10.00">+</text>
<text text-anchor="start" x="407.5" y="-25.5" font-family="Helvetica,sans-Serif" font-size="10.00">operator+()</text>
<text text-anchor="start" x="394.5" y="-10.5" font-family="Helvetica,sans-Serif" font-size="10.00">+</text>
<text text-anchor="start" x="407.5" y="-10.5" font-family="Helvetica,sans-Serif" font-size="10.00">operator*()</text>
<polygon fill="#666666" stroke="#666666" points="390.5,-125.5 390.5,-125.5 477.5,-125.5 477.5,-125.5 390.5,-125.5"/>
<polygon fill="#666666" stroke="#666666" points="390.5,-80.5 390.5,-80.5 405.5,-80.5 405.5,-80.5 390.5,-80.5"/>
<polygon fill="#666666" stroke="#666666" points="405.5,-80.5 405.5,-80.5 477.5,-80.5 477.5,-80.5 405.5,-80.5"/>
<polygon fill="none" stroke="#666666" points="390,-4 390,-143 477,-143 477,-4 390,-4"/>
</a>
</g>
</g>
<!-- Node2 -->
<g id="Node000002" class="node">
<title>Node2</title>
<g id="a_Node000002"><a xlink:href="structSatSys.html" target="_top" xlink:title="Object holding satellite id, and providing related functions.">
<path fill="white" stroke="#666666" d="M501,-1436C501,-1436 408,-1436 408,-1436 402,-1436 396,-1430 396,-1424 396,-1424 396,-1151 396,-1151 396,-1145 402,-1139 408,-1139 408,-1139 501,-1139 501,-1139 507,-1139 513,-1145 513,-1151 513,-1151 513,-1424 513,-1424 513,-1430 507,-1436 501,-1436"/>
<text text-anchor="start" x="438" y="-1419.5" font-family="Helvetica,sans-Serif" font-size="10.00">SatSys</text>
<text text-anchor="start" x="408.5" y="-1404.5" font-family="Helvetica,sans-Serif" font-size="10.00">+</text>
<text text-anchor="start" x="421.5" y="-1404.5" font-family="Helvetica,sans-Serif" font-size="10.00">sys</text>
<text text-anchor="start" x="408.5" y="-1389.5" font-family="Helvetica,sans-Serif" font-size="10.00">+</text>
<text text-anchor="start" x="421.5" y="-1389.5" font-family="Helvetica,sans-Serif" font-size="10.00">prn</text>
<text text-anchor="start" x="408.5" y="-1374.5" font-family="Helvetica,sans-Serif" font-size="10.00">+</text>
<text text-anchor="start" x="421.5" y="-1374.5" font-family="Helvetica,sans-Serif" font-size="10.00">SatSys()</text>
<text text-anchor="start" x="408.5" y="-1359.5" font-family="Helvetica,sans-Serif" font-size="10.00">+</text>
<text text-anchor="start" x="421.5" y="-1359.5" font-family="Helvetica,sans-Serif" font-size="10.00">sysChar()</text>
<text text-anchor="start" x="408.5" y="-1344.5" font-family="Helvetica,sans-Serif" font-size="10.00">+</text>
<text text-anchor="start" x="421.5" y="-1344.5" font-family="Helvetica,sans-Serif" font-size="10.00">getId()</text>
<text text-anchor="start" x="408.5" y="-1329.5" font-family="Helvetica,sans-Serif" font-size="10.00">+</text>
<text text-anchor="start" x="421.5" y="-1329.5" font-family="Helvetica,sans-Serif" font-size="10.00">operator int()</text>
<text text-anchor="start" x="408.5" y="-1314.5" font-family="Helvetica,sans-Serif" font-size="10.00">+</text>
<text text-anchor="start" x="421.5" y="-1314.5" font-family="Helvetica,sans-Serif" font-size="10.00">setBlockType()</text>
<text text-anchor="start" x="408.5" y="-1299.5" font-family="Helvetica,sans-Serif" font-size="10.00">+</text>
<text text-anchor="start" x="421.5" y="-1299.5" font-family="Helvetica,sans-Serif" font-size="10.00">setSvn()</text>
<text text-anchor="start" x="408.5" y="-1284.5" font-family="Helvetica,sans-Serif" font-size="10.00">+</text>
<text text-anchor="start" x="421.5" y="-1284.5" font-family="Helvetica,sans-Serif" font-size="10.00">blockType()</text>
<text text-anchor="start" x="408.5" y="-1269.5" font-family="Helvetica,sans-Serif" font-size="10.00">+</text>
<text text-anchor="start" x="421.5" y="-1269.5" font-family="Helvetica,sans-Serif" font-size="10.00">svn()</text>
<text text-anchor="start" x="408.5" y="-1254.5" font-family="Helvetica,sans-Serif" font-size="10.00">+</text>
<text text-anchor="start" x="421.5" y="-1254.5" font-family="Helvetica,sans-Serif" font-size="10.00">fromHash()</text>
<text text-anchor="start" x="408.5" y="-1239.5" font-family="Helvetica,sans-Serif" font-size="10.00">+</text>
<text text-anchor="start" x="421.5" y="-1239.5" font-family="Helvetica,sans-Serif" font-size="10.00">id()</text>
<text text-anchor="start" x="408.5" y="-1224.5" font-family="Helvetica,sans-Serif" font-size="10.00">+</text>
<text text-anchor="start" x="421.5" y="-1224.5" font-family="Helvetica,sans-Serif" font-size="10.00">operator string()</text>
<text text-anchor="start" x="408.5" y="-1209.5" font-family="Helvetica,sans-Serif" font-size="10.00">+</text>
<text text-anchor="start" x="421.5" y="-1209.5" font-family="Helvetica,sans-Serif" font-size="10.00">SatSys()</text>
<text text-anchor="start" x="408.5" y="-1194.5" font-family="Helvetica,sans-Serif" font-size="10.00">+</text>
<text text-anchor="start" x="421.5" y="-1194.5" font-family="Helvetica,sans-Serif" font-size="10.00">sysName()</text>
<text text-anchor="start" x="408.5" y="-1179.5" font-family="Helvetica,sans-Serif" font-size="10.00">+</text>
<text text-anchor="start" x="421.5" y="-1179.5" font-family="Helvetica,sans-Serif" font-size="10.00">serialize()</text>
<text text-anchor="start" x="408.5" y="-1164.5" font-family="Helvetica,sans-Serif" font-size="10.00">+</text>
<text text-anchor="start" x="421.5" y="-1164.5" font-family="Helvetica,sans-Serif" font-size="10.00">noSat()</text>
<text text-anchor="start" x="408.5" y="-1149.5" font-family="Helvetica,sans-Serif" font-size="10.00">+</text>
<text text-anchor="start" x="421.5" y="-1149.5" font-family="Helvetica,sans-Serif" font-size="10.00">sysFromChar()</text>
<polygon fill="#666666" stroke="#666666" points="404.5,-1414.5 404.5,-1414.5 505.5,-1414.5 505.5,-1414.5 404.5,-1414.5"/>
<polygon fill="#666666" stroke="#666666" points="404.5,-1384.5 404.5,-1384.5 419.5,-1384.5 419.5,-1384.5 404.5,-1384.5"/>
<polygon fill="#666666" stroke="#666666" points="419.5,-1384.5 419.5,-1384.5 505.5,-1384.5 505.5,-1384.5 419.5,-1384.5"/>
<polygon fill="none" stroke="#666666" points="404,-1143 404,-1432 505,-1432 505,-1143 404,-1143"/>
</a>
</g>
</g>
<!-- Node2&#45;&gt;Node1 -->
<g id="edge1_Node000001_Node000002" class="edge">
<title>Node2&#45;&gt;Node1</title>
<g id="a_edge1_Node000001_Node000002"><a xlink:title=" ">
<path fill="none" stroke="#63b8ff" d="M459.8,-1138.83C466.07,-924.1 472.64,-513.28 446.5,-165 446.36,-163.08 446.2,-161.14 446.02,-159.18"/>
<polygon fill="none" stroke="#63b8ff" points="446,-158.96 441.42,-153.39 444.8,-147.02 449.38,-152.59 446,-158.96"/>
</a>
</g>
<text text-anchor="middle" x="478.5" y="-887.5" font-family="Helvetica,sans-Serif" font-size="10.00" fill="grey"> +Sat</text>
</g>
<!-- Node29 -->
<g id="Node000029" class="node">
<title>Node29</title>
<g id="a_Node000029"><a xlink:href="structKFKey.html" target="_top" xlink:title="Keys used to interface with Kalman filter objects.">
<path fill="#fff0f0" stroke="red" d="M404,-1081C404,-1081 311,-1081 311,-1081 305,-1081 299,-1075 299,-1069 299,-1069 299,-931 299,-931 299,-925 305,-919 311,-919 311,-919 404,-919 404,-919 410,-919 416,-925 416,-931 416,-931 416,-1069 416,-1069 416,-1075 410,-1081 404,-1081"/>
<text text-anchor="start" x="342.5" y="-1065" font-family="Helvetica,sans-Serif" font-size="10.00">KFKey</text>
<text text-anchor="start" x="311.5" y="-1050" font-family="Helvetica,sans-Serif" font-size="10.00">+</text>
<text text-anchor="start" x="324.5" y="-1050" font-family="Helvetica,sans-Serif" font-size="10.00">type</text>
<text text-anchor="start" x="311.5" y="-1035" font-family="Helvetica,sans-Serif" font-size="10.00">+</text>
<text text-anchor="start" x="324.5" y="-1035" font-family="Helvetica,sans-Serif" font-size="10.00">num</text>
<text text-anchor="start" x="311.5" y="-1020" font-family="Helvetica,sans-Serif" font-size="10.00">+</text>
<text text-anchor="start" x="324.5" y="-1020" font-family="Helvetica,sans-Serif" font-size="10.00">operator!=()</text>
<text text-anchor="start" x="311.5" y="-1005" font-family="Helvetica,sans-Serif" font-size="10.00">+</text>
<text text-anchor="start" x="324.5" y="-1005" font-family="Helvetica,sans-Serif" font-size="10.00">operator==()</text>
<text text-anchor="start" x="311.5" y="-990" font-family="Helvetica,sans-Serif" font-size="10.00">+</text>
<text text-anchor="start" x="324.5" y="-990" font-family="Helvetica,sans-Serif" font-size="10.00">operator&lt;()</text>
<text text-anchor="start" x="311.5" y="-975" font-family="Helvetica,sans-Serif" font-size="10.00">+</text>
<text text-anchor="start" x="324.5" y="-975" font-family="Helvetica,sans-Serif" font-size="10.00">operator string()</text>
<text text-anchor="start" x="311.5" y="-960" font-family="Helvetica,sans-Serif" font-size="10.00">+</text>
<text text-anchor="start" x="324.5" y="-960" font-family="Helvetica,sans-Serif" font-size="10.00">commaString()</text>
<text text-anchor="start" x="311.5" y="-945" font-family="Helvetica,sans-Serif" font-size="10.00">+</text>
<text text-anchor="start" x="324.5" y="-945" font-family="Helvetica,sans-Serif" font-size="10.00">serialize()</text>
<text text-anchor="start" x="311.5" y="-930" font-family="Helvetica,sans-Serif" font-size="10.00">+</text>
<text text-anchor="start" x="324.5" y="-930" font-family="Helvetica,sans-Serif" font-size="10.00">emptyString()</text>
<polygon fill="red" stroke="red" points="307.5,-1060 307.5,-1060 408.5,-1060 408.5,-1060 307.5,-1060"/>
<polygon fill="red" stroke="red" points="307.5,-1030 307.5,-1030 322.5,-1030 322.5,-1030 307.5,-1030"/>
<polygon fill="red" stroke="red" points="322.5,-1030 322.5,-1030 408.5,-1030 408.5,-1030 322.5,-1030"/>
<polygon fill="none" stroke="red" points="307,-923 307,-1077 408,-1077 408,-923 307,-923"/>
</a>
</g>
</g>
<!-- Node2&#45;&gt;Node29 -->
<g id="edge12_Node000029_Node000002" class="edge">
<title>Node2&#45;&gt;Node29</title>
<g id="a_edge12_Node000029_Node000002"><a xlink:title=" ">
<path fill="none" stroke="#63b8ff" d="M411.05,-1138.94C406.64,-1125.39 402.08,-1111.9 397.5,-1099 396.76,-1096.92 396,-1094.81 395.23,-1092.69"/>
<polygon fill="none" stroke="#63b8ff" points="395.15,-1092.5 389.31,-1088.28 390.95,-1081.26 396.8,-1085.48 395.15,-1092.5"/>
</a>
</g>
<text text-anchor="middle" x="417.5" y="-1107.5" font-family="Helvetica,sans-Serif" font-size="10.00" fill="grey"> +Sat</text>
</g>
<!-- Node3 -->
<g id="Node000003" class="node">
<title>Node3</title>
<g id="a_Node000003"><a xlink:title=" ">
<path fill="white" stroke="#666666" d="M469.5,-1597C469.5,-1597 361.5,-1597 361.5,-1597 355.5,-1597 349.5,-1591 349.5,-1585 349.5,-1585 349.5,-1541 349.5,-1541 349.5,-1535 355.5,-1529 361.5,-1529 361.5,-1529 469.5,-1529 469.5,-1529 475.5,-1529 481.5,-1535 481.5,-1541 481.5,-1541 481.5,-1585 481.5,-1585 481.5,-1591 475.5,-1597 469.5,-1597"/>
<text text-anchor="start" x="362.5" y="-1581" font-family="Helvetica,sans-Serif" font-size="10.00">map&lt; SatSys, SatSys</text>
<text text-anchor="start" x="387" y="-1570" font-family="Helvetica,sans-Serif" font-size="10.00">::SatData &gt;</text>
<text text-anchor="start" x="413.5" y="-1555" font-family="Helvetica,sans-Serif" font-size="10.00"> </text>
<text text-anchor="start" x="413.5" y="-1540" font-family="Helvetica,sans-Serif" font-size="10.00"> </text>
<polygon fill="#666666" stroke="#666666" points="357.5,-1565 357.5,-1565 473.5,-1565 473.5,-1565 357.5,-1565"/>
<polygon fill="#666666" stroke="#666666" points="357.5,-1550 357.5,-1550 473.5,-1550 473.5,-1550 357.5,-1550"/>
<polygon fill="none" stroke="#666666" points="357.5,-1533 357.5,-1593 473.5,-1593 473.5,-1533 357.5,-1533"/>
</a>
</g>
</g>
<!-- Node3&#45;&gt;Node2 -->
<g id="edge2_Node000002_Node000003" class="edge">
<title>Node3&#45;&gt;Node2</title>
<g id="a_edge2_Node000002_Node000003"><a xlink:title=" ">
<path fill="none" stroke="#63b8ff" d="M413.26,-1528.82C412.95,-1522.89 412.67,-1516.76 412.5,-1511 411.76,-1485.68 409.36,-1479.14 412.5,-1454 412.74,-1452.07 413,-1450.13 413.27,-1448.18"/>
<polygon fill="none" stroke="#63b8ff" points="413.3,-1447.99 410.25,-1441.46 415.1,-1436.13 418.15,-1442.66 413.3,-1447.99"/>
</a>
</g>
<text text-anchor="middle" x="448" y="-1480" font-family="Helvetica,sans-Serif" font-size="10.00" fill="grey"> +satDataMap</text>
</g>
<!-- Node4 -->
<g id="Node000004" class="node">
<title>Node4</title>
<g id="a_Node000004"><a xlink:title=" ">
<path fill="white" stroke="#666666" d="M509.5,-1701C509.5,-1701 485.5,-1701 485.5,-1701 479.5,-1701 473.5,-1695 473.5,-1689 473.5,-1689 473.5,-1656 473.5,-1656 473.5,-1650 479.5,-1644 485.5,-1644 485.5,-1644 509.5,-1644 509.5,-1644 515.5,-1644 521.5,-1650 521.5,-1656 521.5,-1656 521.5,-1689 521.5,-1689 521.5,-1695 515.5,-1701 509.5,-1701"/>
<text text-anchor="start" x="486.5" y="-1684.5" font-family="Helvetica,sans-Serif" font-size="10.00">map</text>
<text text-anchor="start" x="495.5" y="-1669.5" font-family="Helvetica,sans-Serif" font-size="10.00"> </text>
<text text-anchor="start" x="495.5" y="-1654.5" font-family="Helvetica,sans-Serif" font-size="10.00"> </text>
<polygon fill="#666666" stroke="#666666" points="481.5,-1679.5 481.5,-1679.5 513.5,-1679.5 513.5,-1679.5 481.5,-1679.5"/>
<polygon fill="#666666" stroke="#666666" points="481.5,-1664.5 481.5,-1664.5 513.5,-1664.5 513.5,-1664.5 481.5,-1664.5"/>
<polygon fill="none" stroke="#666666" points="481.5,-1648 481.5,-1697 513.5,-1697 513.5,-1648 481.5,-1648"/>
</a>
</g>
</g>
<!-- Node4&#45;&gt;Node3 -->
<g id="edge3_Node000003_Node000004" class="edge">
<title>Node4&#45;&gt;Node3</title>
<g id="a_edge3_Node000003_Node000004"><a xlink:title=" ">
<path fill="none" stroke="orange" d="M463.83,-1661.98C446.11,-1655.08 425.95,-1643.76 415.5,-1626 410.48,-1617.47 409.06,-1607.06 409.31,-1597.23"/>
<polygon fill="orange" stroke="orange" points="462.74,-1665.31 473.34,-1665.38 465.1,-1658.72 462.74,-1665.31"/>
</a>
</g>
<text text-anchor="middle" x="487" y="-1618" font-family="Helvetica,sans-Serif" font-size="10.00" fill="grey"> &lt; SatSys, SatSys::SatData &gt;</text>
</g>
<!-- Node61 -->
<g id="Node000061" class="node">
<title>Node61</title>
<g id="a_Node000061"><a xlink:title=" ">
<path fill="white" stroke="#666666" d="M657,-1511C657,-1511 504,-1511 504,-1511 498,-1511 492,-1505 492,-1499 492,-1499 492,-1466 492,-1466 492,-1460 498,-1454 504,-1454 504,-1454 657,-1454 657,-1454 663,-1454 669,-1460 669,-1466 669,-1466 669,-1499 669,-1499 669,-1505 663,-1511 657,-1511"/>
<text text-anchor="start" x="505.5" y="-1494.5" font-family="Helvetica,sans-Serif" font-size="10.00">map&lt; E_Component, double &gt;</text>
<text text-anchor="start" x="579" y="-1479.5" font-family="Helvetica,sans-Serif" font-size="10.00"> </text>
<text text-anchor="start" x="579" y="-1464.5" font-family="Helvetica,sans-Serif" font-size="10.00"> </text>
<polygon fill="#666666" stroke="#666666" points="500.5,-1489.5 500.5,-1489.5 661.5,-1489.5 661.5,-1489.5 500.5,-1489.5"/>
<polygon fill="#666666" stroke="#666666" points="500.5,-1474.5 500.5,-1474.5 661.5,-1474.5 661.5,-1474.5 500.5,-1474.5"/>
<polygon fill="none" stroke="#666666" points="500,-1458 500,-1507 661,-1507 661,-1458 500,-1458"/>
</a>
</g>
</g>
<!-- Node4&#45;&gt;Node61 -->
<g id="edge15_Node000061_Node000004" class="edge">
<title>Node4&#45;&gt;Node61</title>
<g id="a_edge15_Node000061_Node000004"><a xlink:title=" ">
<path fill="none" stroke="orange" d="M530.51,-1653.85C541.06,-1646.59 551.74,-1637.23 558.5,-1626 579.86,-1590.5 582.79,-1541.34 582.2,-1511.02"/>
<polygon fill="orange" stroke="orange" points="528.31,-1651.1 521.77,-1659.44 532.08,-1657 528.31,-1651.1"/>
</a>
</g>
<text text-anchor="middle" x="630" y="-1618" font-family="Helvetica,sans-Serif" font-size="10.00" fill="grey"> &lt; E_Component, double &gt;</text>
</g>
<!-- Node5 -->
<g id="Node000005" class="node">
<title>Node5</title>
<g id="a_Node000005"><a xlink:title=" ">
<path fill="white" stroke="#666666" d="M310.5,-1316C310.5,-1316 280.5,-1316 280.5,-1316 274.5,-1316 268.5,-1310 268.5,-1304 268.5,-1304 268.5,-1271 268.5,-1271 268.5,-1265 274.5,-1259 280.5,-1259 280.5,-1259 310.5,-1259 310.5,-1259 316.5,-1259 322.5,-1265 322.5,-1271 322.5,-1271 322.5,-1304 322.5,-1304 322.5,-1310 316.5,-1316 310.5,-1316"/>
<text text-anchor="start" x="281.5" y="-1299.5" font-family="Helvetica,sans-Serif" font-size="10.00">string</text>
<text text-anchor="start" x="293.5" y="-1284.5" font-family="Helvetica,sans-Serif" font-size="10.00"> </text>
<text text-anchor="start" x="293.5" y="-1269.5" font-family="Helvetica,sans-Serif" font-size="10.00"> </text>
<polygon fill="#666666" stroke="#666666" points="276.5,-1294.5 276.5,-1294.5 314.5,-1294.5 314.5,-1294.5 276.5,-1294.5"/>
<polygon fill="#666666" stroke="#666666" points="276.5,-1279.5 276.5,-1279.5 314.5,-1279.5 314.5,-1279.5 276.5,-1279.5"/>
<polygon fill="none" stroke="#666666" points="276.5,-1263 276.5,-1312 314.5,-1312 314.5,-1263 276.5,-1263"/>
</a>
</g>
</g>
<!-- Node5&#45;&gt;Node1 -->
<g id="edge4_Node000001_Node000005" class="edge">
<title>Node5&#45;&gt;Node1</title>
<g id="a_edge4_Node000001_Node000005"><a xlink:title=" ">
<path fill="none" stroke="#63b8ff" d="M285.8,-1258.54C265.06,-1193.4 223.48,-1028.73 290.5,-919 319.92,-870.82 373.16,-908.61 403.5,-861 440.42,-803.07 437.85,-350.88 435.05,-159.55"/>
<polygon fill="none" stroke="#63b8ff" points="435.04,-159.33 430.95,-153.39 434.86,-147.33 438.95,-153.27 435.04,-159.33"/>
</a>
</g>
<text text-anchor="middle" x="398" y="-887.5" font-family="Helvetica,sans-Serif" font-size="10.00" fill="grey"> +str</text>
</g>
<!-- Node7 -->
<g id="Node000007" class="node">
<title>Node7</title>
<g id="a_Node000007"><a xlink:href="structKFState__.html" target="_top" xlink:title="Kalman filter object.">
<path fill="#fff0f0" stroke="red" d="M163,-139.5C163,-139.5 12,-139.5 12,-139.5 6,-139.5 0,-133.5 0,-127.5 0,-127.5 0,-19.5 0,-19.5 0,-13.5 6,-7.5 12,-7.5 12,-7.5 163,-7.5 163,-7.5 169,-7.5 175,-13.5 175,-19.5 175,-19.5 175,-127.5 175,-127.5 175,-133.5 169,-139.5 163,-139.5"/>
<text text-anchor="start" x="66.5" y="-123.5" font-family="Helvetica,sans-Serif" font-size="10.00">KFState_</text>
<text text-anchor="start" x="12.5" y="-108.5" font-family="Helvetica,sans-Serif" font-size="10.00">+</text>
<text text-anchor="start" x="25.5" y="-108.5" font-family="Helvetica,sans-Serif" font-size="10.00">lsqRequired</text>
<text text-anchor="start" x="12.5" y="-93.5" font-family="Helvetica,sans-Serif" font-size="10.00">+</text>
<text text-anchor="start" x="25.5" y="-93.5" font-family="Helvetica,sans-Serif" font-size="10.00">chiQCPass</text>
<text text-anchor="start" x="12.5" y="-78.5" font-family="Helvetica,sans-Serif" font-size="10.00">+</text>
<text text-anchor="start" x="25.5" y="-78.5" font-family="Helvetica,sans-Serif" font-size="10.00">chi</text>
<text text-anchor="start" x="12.5" y="-63.5" font-family="Helvetica,sans-Serif" font-size="10.00">+</text>
<text text-anchor="start" x="25.5" y="-63.5" font-family="Helvetica,sans-Serif" font-size="10.00">dof</text>
<text text-anchor="start" x="12.5" y="-48.5" font-family="Helvetica,sans-Serif" font-size="10.00">+</text>
<text text-anchor="start" x="25.5" y="-48.5" font-family="Helvetica,sans-Serif" font-size="10.00">output_residuals</text>
<text text-anchor="start" x="12.5" y="-33.5" font-family="Helvetica,sans-Serif" font-size="10.00">+</text>
<text text-anchor="start" x="25.5" y="-33.5" font-family="Helvetica,sans-Serif" font-size="10.00">outputMongoMeasurements</text>
<text text-anchor="start" x="86" y="-18.5" font-family="Helvetica,sans-Serif" font-size="10.00"> </text>
<polygon fill="red" stroke="red" points="8.5,-118.5 8.5,-118.5 167.5,-118.5 167.5,-118.5 8.5,-118.5"/>
<polygon fill="red" stroke="red" points="8.5,-28.5 8.5,-28.5 23.5,-28.5 23.5,-28.5 8.5,-28.5"/>
<polygon fill="red" stroke="red" points="23.5,-28.5 23.5,-28.5 167.5,-28.5 167.5,-28.5 23.5,-28.5"/>
<polygon fill="none" stroke="red" points="8,-11.5 8,-135.5 167,-135.5 167,-11.5 8,-11.5"/>
</a>
</g>
</g>
<!-- Node5&#45;&gt;Node7 -->
<g id="edge8_Node000007_Node000005" class="edge">
<title>Node5&#45;&gt;Node7</title>
<g id="a_edge8_Node000007_Node000005"><a xlink:title=" ">
<path fill="none" stroke="#63b8ff" d="M268.29,-1270.52C219.76,-1240.37 119.08,-1170.06 73.5,-1081 23.1,-982.53 25.53,-638.97 15.5,-231 14.78,-201.68 5.83,-192.69 15.5,-165 17.21,-160.1 19.32,-155.26 21.71,-150.52"/>
<polygon fill="none" stroke="#63b8ff" points="21.92,-150.15 21.36,-142.96 27.79,-139.68 28.34,-146.87 21.92,-150.15"/>
</a>
</g>
<text text-anchor="middle" x="76.5" y="-893" font-family="Helvetica,sans-Serif" font-size="10.00" fill="grey"> +id</text>
<text text-anchor="middle" x="76.5" y="-882" font-family="Helvetica,sans-Serif" font-size="10.00" fill="grey">+rts_basename</text>
</g>
<!-- Node5&#45;&gt;Node29 -->
<g id="edge13_Node000029_Node000005" class="edge">
<title>Node5&#45;&gt;Node29</title>
<g id="a_edge13_Node000029_Node000005"><a xlink:title=" ">
<path fill="none" stroke="#63b8ff" d="M301.5,-1258.87C309.74,-1220.91 324.97,-1150.81 337.46,-1093.27"/>
<polygon fill="none" stroke="#63b8ff" points="337.54,-1092.93 334.9,-1086.22 340.08,-1081.2 342.72,-1087.91 337.54,-1092.93"/>
</a>
</g>
<text text-anchor="middle" x="364.5" y="-1113" font-family="Helvetica,sans-Serif" font-size="10.00" fill="grey"> +comment</text>
<text text-anchor="middle" x="364.5" y="-1102" font-family="Helvetica,sans-Serif" font-size="10.00" fill="grey">+str</text>
</g>
<!-- Node6 -->
<g id="Node000006" class="node">
<title>Node6</title>
<g id="a_Node000006"><a xlink:href="structKFState.html" target="_top" xlink:title="Wrapper to simplify copying with default copy but overriding slightly.">
<path fill="white" stroke="#666666" d="M205.5,-861C205.5,-861 67.5,-861 67.5,-861 61.5,-861 55.5,-855 55.5,-849 55.5,-849 55.5,-261 55.5,-261 55.5,-255 61.5,-249 67.5,-249 67.5,-249 205.5,-249 205.5,-249 211.5,-249 217.5,-255 217.5,-261 217.5,-261 217.5,-849 217.5,-849 217.5,-855 211.5,-861 205.5,-861"/>
<text text-anchor="start" x="117.5" y="-845" font-family="Helvetica,sans-Serif" font-size="10.00">KFState</text>
<text text-anchor="start" x="134.5" y="-830" font-family="Helvetica,sans-Serif" font-size="10.00"> </text>
<text text-anchor="start" x="67.5" y="-815" font-family="Helvetica,sans-Serif" font-size="10.00">+</text>
<text text-anchor="start" x="80.5" y="-815" font-family="Helvetica,sans-Serif" font-size="10.00">KFState()</text>
<text text-anchor="start" x="67.5" y="-800" font-family="Helvetica,sans-Serif" font-size="10.00">+</text>
<text text-anchor="start" x="80.5" y="-800" font-family="Helvetica,sans-Serif" font-size="10.00">KFState()</text>
<text text-anchor="start" x="67.5" y="-785" font-family="Helvetica,sans-Serif" font-size="10.00">+</text>
<text text-anchor="start" x="80.5" y="-785" font-family="Helvetica,sans-Serif" font-size="10.00">operator=()</text>
<text text-anchor="start" x="67.5" y="-770" font-family="Helvetica,sans-Serif" font-size="10.00">+</text>
<text text-anchor="start" x="80.5" y="-770" font-family="Helvetica,sans-Serif" font-size="10.00">serialize()</text>
<text text-anchor="start" x="67.5" y="-755" font-family="Helvetica,sans-Serif" font-size="10.00">+</text>
<text text-anchor="start" x="80.5" y="-755" font-family="Helvetica,sans-Serif" font-size="10.00">initFilterEpoch()</text>
<text text-anchor="start" x="67.5" y="-740" font-family="Helvetica,sans-Serif" font-size="10.00">+</text>
<text text-anchor="start" x="80.5" y="-740" font-family="Helvetica,sans-Serif" font-size="10.00">getKFIndex()</text>
<text text-anchor="start" x="67.5" y="-725" font-family="Helvetica,sans-Serif" font-size="10.00">+</text>
<text text-anchor="start" x="80.5" y="-725" font-family="Helvetica,sans-Serif" font-size="10.00">getKFValue()</text>
<text text-anchor="start" x="67.5" y="-710" font-family="Helvetica,sans-Serif" font-size="10.00">+</text>
<text text-anchor="start" x="80.5" y="-710" font-family="Helvetica,sans-Serif" font-size="10.00">getPseudoValue()</text>
<text text-anchor="start" x="67.5" y="-695" font-family="Helvetica,sans-Serif" font-size="10.00">+</text>
<text text-anchor="start" x="80.5" y="-695" font-family="Helvetica,sans-Serif" font-size="10.00">getKFSigma()</text>
<text text-anchor="start" x="67.5" y="-680" font-family="Helvetica,sans-Serif" font-size="10.00">+</text>
<text text-anchor="start" x="80.5" y="-680" font-family="Helvetica,sans-Serif" font-size="10.00">addKFState()</text>
<text text-anchor="start" x="67.5" y="-665" font-family="Helvetica,sans-Serif" font-size="10.00">+</text>
<text text-anchor="start" x="80.5" y="-665" font-family="Helvetica,sans-Serif" font-size="10.00">addPseudoState()</text>
<text text-anchor="start" x="67.5" y="-650" font-family="Helvetica,sans-Serif" font-size="10.00">+</text>
<text text-anchor="start" x="80.5" y="-650" font-family="Helvetica,sans-Serif" font-size="10.00">setExponentialNoise()</text>
<text text-anchor="start" x="67.5" y="-635" font-family="Helvetica,sans-Serif" font-size="10.00">+</text>
<text text-anchor="start" x="80.5" y="-635" font-family="Helvetica,sans-Serif" font-size="10.00">setAccelerator()</text>
<text text-anchor="start" x="67.5" y="-620" font-family="Helvetica,sans-Serif" font-size="10.00">+</text>
<text text-anchor="start" x="80.5" y="-620" font-family="Helvetica,sans-Serif" font-size="10.00">setKFTrans()</text>
<text text-anchor="start" x="67.5" y="-605" font-family="Helvetica,sans-Serif" font-size="10.00">+</text>
<text text-anchor="start" x="80.5" y="-605" font-family="Helvetica,sans-Serif" font-size="10.00">setKFTransRate()</text>
<text text-anchor="start" x="67.5" y="-590" font-family="Helvetica,sans-Serif" font-size="10.00">+</text>
<text text-anchor="start" x="80.5" y="-590" font-family="Helvetica,sans-Serif" font-size="10.00">addNoiseElement()</text>
<text text-anchor="start" x="67.5" y="-575" font-family="Helvetica,sans-Serif" font-size="10.00">+</text>
<text text-anchor="start" x="80.5" y="-575" font-family="Helvetica,sans-Serif" font-size="10.00">removeState()</text>
<text text-anchor="start" x="67.5" y="-560" font-family="Helvetica,sans-Serif" font-size="10.00">+</text>
<text text-anchor="start" x="80.5" y="-560" font-family="Helvetica,sans-Serif" font-size="10.00">stateTransition()</text>
<text text-anchor="start" x="67.5" y="-545" font-family="Helvetica,sans-Serif" font-size="10.00">+</text>
<text text-anchor="start" x="80.5" y="-545" font-family="Helvetica,sans-Serif" font-size="10.00">manualStateTransition()</text>
<text text-anchor="start" x="67.5" y="-530" font-family="Helvetica,sans-Serif" font-size="10.00">+</text>
<text text-anchor="start" x="80.5" y="-530" font-family="Helvetica,sans-Serif" font-size="10.00">preFitSigmaCheck()</text>
<text text-anchor="start" x="67.5" y="-515" font-family="Helvetica,sans-Serif" font-size="10.00">+</text>
<text text-anchor="start" x="80.5" y="-515" font-family="Helvetica,sans-Serif" font-size="10.00">postFitSigmaChecks()</text>
<text text-anchor="start" x="67.5" y="-500" font-family="Helvetica,sans-Serif" font-size="10.00">+</text>
<text text-anchor="start" x="80.5" y="-500" font-family="Helvetica,sans-Serif" font-size="10.00">stateChiSquare()</text>
<text text-anchor="start" x="67.5" y="-485" font-family="Helvetica,sans-Serif" font-size="10.00">+</text>
<text text-anchor="start" x="80.5" y="-485" font-family="Helvetica,sans-Serif" font-size="10.00">measChiSquare()</text>
<text text-anchor="start" x="67.5" y="-470" font-family="Helvetica,sans-Serif" font-size="10.00">+</text>
<text text-anchor="start" x="80.5" y="-470" font-family="Helvetica,sans-Serif" font-size="10.00">innovChiSquare()</text>
<text text-anchor="start" x="67.5" y="-455" font-family="Helvetica,sans-Serif" font-size="10.00">+</text>
<text text-anchor="start" x="80.5" y="-455" font-family="Helvetica,sans-Serif" font-size="10.00">kFilter()</text>
<text text-anchor="start" x="67.5" y="-440" font-family="Helvetica,sans-Serif" font-size="10.00">+</text>
<text text-anchor="start" x="80.5" y="-440" font-family="Helvetica,sans-Serif" font-size="10.00">chiQC()</text>
<text text-anchor="start" x="67.5" y="-425" font-family="Helvetica,sans-Serif" font-size="10.00">+</text>
<text text-anchor="start" x="80.5" y="-425" font-family="Helvetica,sans-Serif" font-size="10.00">outputStates()</text>
<text text-anchor="start" x="67.5" y="-410" font-family="Helvetica,sans-Serif" font-size="10.00">+</text>
<text text-anchor="start" x="80.5" y="-410" font-family="Helvetica,sans-Serif" font-size="10.00">outputConditionNumber()</text>
<text text-anchor="start" x="67.5" y="-395" font-family="Helvetica,sans-Serif" font-size="10.00">+</text>
<text text-anchor="start" x="80.5" y="-395" font-family="Helvetica,sans-Serif" font-size="10.00">outputCorrelations()</text>
<text text-anchor="start" x="67.5" y="-380" font-family="Helvetica,sans-Serif" font-size="10.00">+</text>
<text text-anchor="start" x="80.5" y="-380" font-family="Helvetica,sans-Serif" font-size="10.00">outputMeasurements()</text>
<text text-anchor="start" x="67.5" y="-365" font-family="Helvetica,sans-Serif" font-size="10.00">+</text>
<text text-anchor="start" x="80.5" y="-365" font-family="Helvetica,sans-Serif" font-size="10.00">doStateRejectCallbacks()</text>
<text text-anchor="start" x="67.5" y="-350" font-family="Helvetica,sans-Serif" font-size="10.00">+</text>
<text text-anchor="start" x="80.5" y="-350" font-family="Helvetica,sans-Serif" font-size="10.00">doMeasRejectCallbacks()</text>
<text text-anchor="start" x="67.5" y="-335" font-family="Helvetica,sans-Serif" font-size="10.00">+</text>
<text text-anchor="start" x="80.5" y="-335" font-family="Helvetica,sans-Serif" font-size="10.00">filterKalman()</text>
<text text-anchor="start" x="67.5" y="-320" font-family="Helvetica,sans-Serif" font-size="10.00">+</text>
<text text-anchor="start" x="80.5" y="-320" font-family="Helvetica,sans-Serif" font-size="10.00">leastSquareInitStates()</text>
<text text-anchor="start" x="67.5" y="-305" font-family="Helvetica,sans-Serif" font-size="10.00">+</text>
<text text-anchor="start" x="80.5" y="-305" font-family="Helvetica,sans-Serif" font-size="10.00">getSubState()</text>
<text text-anchor="start" x="67.5" y="-290" font-family="Helvetica,sans-Serif" font-size="10.00">+</text>
<text text-anchor="start" x="80.5" y="-290" font-family="Helvetica,sans-Serif" font-size="10.00">getSubState()</text>
<text text-anchor="start" x="67.5" y="-275" font-family="Helvetica,sans-Serif" font-size="10.00">+</text>
<text text-anchor="start" x="80.5" y="-275" font-family="Helvetica,sans-Serif" font-size="10.00">getSubState()</text>
<text text-anchor="start" x="67.5" y="-260" font-family="Helvetica,sans-Serif" font-size="10.00">+</text>
<text text-anchor="start" x="80.5" y="-260" font-family="Helvetica,sans-Serif" font-size="10.00">decomposedStateKeys()</text>
<polygon fill="#666666" stroke="#666666" points="63.5,-840 63.5,-840 209.5,-840 209.5,-840 63.5,-840"/>
<polygon fill="#666666" stroke="#666666" points="63.5,-825 63.5,-825 209.5,-825 209.5,-825 63.5,-825"/>
<polygon fill="none" stroke="#666666" points="63.5,-253 63.5,-857 209.5,-857 209.5,-253 63.5,-253"/>
</a>
</g>
</g>
<!-- Node6&#45;&gt;Node1 -->
<g id="edge5_Node000001_Node000006" class="edge">
<title>Node6&#45;&gt;Node1</title>
<g id="a_edge5_Node000001_Node000006"><a xlink:title=" ">
<path fill="none" stroke="#63b8ff" d="M55.46,-346.51C44.06,-282.22 47.95,-215.16 89.5,-165 116.91,-131.91 142.71,-157.02 184.5,-147 248.34,-131.7 320.24,-110.3 370.3,-94.73"/>
<polygon fill="none" stroke="#63b8ff" points="370.45,-94.68 374.98,-89.07 381.91,-91.1 377.37,-96.71 370.45,-94.68"/>
</a>
</g>
<text text-anchor="middle" x="117" y="-195.5" font-family="Helvetica,sans-Serif" font-size="10.00" fill="grey"> +subState</text>
</g>
<!-- Node6&#45;&gt;Node7 -->
<g id="edge9_Node000007_Node000006" class="edge">
<title>Node6&#45;&gt;Node7</title>
<g id="a_edge9_Node000007_Node000006"><a xlink:title=" ">
<path fill="none" stroke="#63b8ff" d="M164.91,-248.83C161.92,-220.16 156.69,-191.82 148.5,-165 147.02,-160.16 145.19,-155.34 143.09,-150.6"/>
<polygon fill="none" stroke="#63b8ff" points="143.02,-150.46 136.79,-146.83 137.75,-139.68 143.97,-143.31 143.02,-150.46"/>
</a>
</g>
<text text-anchor="middle" x="200" y="-195.5" font-family="Helvetica,sans-Serif" font-size="10.00" fill="grey"> +alternate_ptr</text>
</g>
<!-- Node7&#45;&gt;Node6 -->
<g id="edge6_Node000006_Node000007" class="edge">
<title>Node7&#45;&gt;Node6</title>
<g id="a_edge6_Node000006_Node000007"><a xlink:title=" ">
<path fill="none" stroke="#63b8ff" d="M124.06,-149.13C125.8,-154.42 127.31,-159.74 128.5,-165 134.62,-192.01 138.99,-220.35 142.01,-248.89"/>
<polygon fill="none" stroke="#63b8ff" points="127.34,-147.92 120.71,-139.65 120.74,-150.25 127.34,-147.92"/>
</a>
</g>
</g>
<!-- Node15 -->
<g id="Node000015" class="node">
<title>Node15</title>
<g id="a_Node000015"><a xlink:title=" ">
<path fill="white" stroke="#666666" d="M295,-583.5C295,-583.5 248,-583.5 248,-583.5 242,-583.5 236,-577.5 236,-571.5 236,-571.5 236,-538.5 236,-538.5 236,-532.5 242,-526.5 248,-526.5 248,-526.5 295,-526.5 295,-526.5 301,-526.5 307,-532.5 307,-538.5 307,-538.5 307,-571.5 307,-571.5 307,-577.5 301,-583.5 295,-583.5"/>
<text text-anchor="start" x="249.5" y="-567" font-family="Helvetica,sans-Serif" font-size="10.00">MatrixXd</text>
<text text-anchor="start" x="270" y="-552" font-family="Helvetica,sans-Serif" font-size="10.00"> </text>
<text text-anchor="start" x="270" y="-537" font-family="Helvetica,sans-Serif" font-size="10.00"> </text>
<polygon fill="#666666" stroke="#666666" points="244.5,-562 244.5,-562 299.5,-562 299.5,-562 244.5,-562"/>
<polygon fill="#666666" stroke="#666666" points="244.5,-547 244.5,-547 299.5,-547 299.5,-547 244.5,-547"/>
<polygon fill="none" stroke="#666666" points="244,-530.5 244,-579.5 299,-579.5 299,-530.5 244,-530.5"/>
</a>
</g>
</g>
<!-- Node15&#45;&gt;Node1 -->
<g id="edge18_Node000001_Node000015" class="edge">
<title>Node15&#45;&gt;Node1</title>
<g id="a_edge18_Node000001_Node000015"><a xlink:title=" ">
<path fill="none" stroke="#63b8ff" d="M263.36,-526.09C245.39,-458.58 209.16,-283.3 278.5,-165 298.6,-130.7 337.16,-108.11 370.79,-94.08"/>
<polygon fill="none" stroke="#63b8ff" points="370.82,-94.07 374.92,-88.14 381.98,-89.65 377.87,-95.58 370.82,-94.07"/>
</a>
</g>
<text text-anchor="middle" x="322.5" y="-195.5" font-family="Helvetica,sans-Serif" font-size="10.00" fill="grey"> +posVelQuatSTM</text>
</g>
<!-- Node15&#45;&gt;Node7 -->
<g id="edge7_Node000007_Node000015" class="edge">
<title>Node15&#45;&gt;Node7</title>
<g id="a_edge7_Node000007_Node000015"><a xlink:title=" ">
<path fill="none" stroke="#63b8ff" d="M277.3,-526.27C288.12,-465.92 303.82,-322.26 226.5,-249 195.07,-219.22 61.67,-263 32.5,-231 12.11,-208.64 17.73,-178.26 31.44,-150.23"/>
<polygon fill="none" stroke="#63b8ff" points="31.44,-150.22 30.71,-143.05 37.05,-139.62 37.78,-146.79 31.44,-150.22"/>
</a>
</g>
<text text-anchor="middle" x="41.5" y="-195.5" font-family="Helvetica,sans-Serif" font-size="10.00" fill="grey"> +P</text>
</g>
<!-- Node28 -->
<g id="Node000028" class="node">
<title>Node28</title>
<g id="a_Node000028"><a xlink:title=" ">
<path fill="white" stroke="#666666" d="M178.5,-1028.5C178.5,-1028.5 94.5,-1028.5 94.5,-1028.5 88.5,-1028.5 82.5,-1022.5 82.5,-1016.5 82.5,-1016.5 82.5,-983.5 82.5,-983.5 82.5,-977.5 88.5,-971.5 94.5,-971.5 94.5,-971.5 178.5,-971.5 178.5,-971.5 184.5,-971.5 190.5,-977.5 190.5,-983.5 190.5,-983.5 190.5,-1016.5 190.5,-1016.5 190.5,-1022.5 184.5,-1028.5 178.5,-1028.5"/>
<text text-anchor="start" x="95.5" y="-1012" font-family="Helvetica,sans-Serif" font-size="10.00">recursive_mutex</text>
<text text-anchor="start" x="134.5" y="-997" font-family="Helvetica,sans-Serif" font-size="10.00"> </text>
<text text-anchor="start" x="134.5" y="-982" font-family="Helvetica,sans-Serif" font-size="10.00"> </text>
<polygon fill="#666666" stroke="#666666" points="90.5,-1007 90.5,-1007 182.5,-1007 182.5,-1007 90.5,-1007"/>
<polygon fill="#666666" stroke="#666666" points="90.5,-992 90.5,-992 182.5,-992 182.5,-992 90.5,-992"/>
<polygon fill="none" stroke="#666666" points="90.5,-975.5 90.5,-1024.5 182.5,-1024.5 182.5,-975.5 90.5,-975.5"/>
</a>
</g>
</g>
<!-- Node28&#45;&gt;Node6 -->
<g id="edge10_Node000006_Node000028" class="edge">
<title>Node28&#45;&gt;Node6</title>
<g id="a_edge10_Node000006_Node000028"><a xlink:title=" ">
<path fill="none" stroke="#63b8ff" d="M136.5,-971.29C136.5,-948.49 136.5,-913.46 136.5,-873.2"/>
<polygon fill="none" stroke="#63b8ff" points="136.5,-873.14 132.5,-867.14 136.5,-861.14 140.5,-867.14 136.5,-873.14"/>
</a>
</g>
<text text-anchor="middle" x="175.5" y="-887.5" font-family="Helvetica,sans-Serif" font-size="10.00" fill="grey"> +kfStateMutex</text>
</g>
<!-- Node29&#45;&gt;Node6 -->
<g id="edge11_Node000006_Node000029" class="edge">
<title>Node29&#45;&gt;Node6</title>
<g id="a_edge11_Node000006_Node000029"><a xlink:title=" ">
<path fill="none" stroke="#63b8ff" d="M298.84,-948.41C273.82,-924.16 246.15,-893.37 227.5,-861 226.05,-858.48 224.61,-855.92 223.2,-853.35"/>
<polygon fill="none" stroke="#63b8ff" points="223.14,-853.24 216.79,-849.82 217.51,-842.65 223.86,-846.07 223.14,-853.24"/>
</a>
</g>
<text text-anchor="middle" x="277.5" y="-887.5" font-family="Helvetica,sans-Serif" font-size="10.00" fill="grey"> +oneKey</text>
</g>
<!-- Node61&#45;&gt;Node1 -->
<g id="edge14_Node000001_Node000061" class="edge">
<title>Node61&#45;&gt;Node1</title>
<g id="a_edge14_Node000001_Node000061"><a xlink:title=" ">
<path fill="none" stroke="#63b8ff" d="M575.56,-1453.72C565.07,-1392.2 541.5,-1239.71 541.5,-1111 541.5,-1111 541.5,-1111 541.5,-554 541.5,-412.7 496.31,-253.57 464.39,-158.8"/>
<polygon fill="none" stroke="#63b8ff" points="464.34,-158.64 458.62,-154.25 460.47,-147.28 466.19,-151.67 464.34,-158.64"/>
</a>
</g>
<text text-anchor="middle" x="588" y="-997.5" font-family="Helvetica,sans-Serif" font-size="10.00" fill="grey"> +componentsMap</text>
</g>
<!-- Node39 -->
<g id="Node000039" class="node">
<title>Node39</title>
<g id="a_Node000039"><a xlink:title=" ">
<path fill="white" stroke="#666666" d="M627,-583.5C627,-583.5 582,-583.5 582,-583.5 576,-583.5 570,-577.5 570,-571.5 570,-571.5 570,-538.5 570,-538.5 570,-532.5 576,-526.5 582,-526.5 582,-526.5 627,-526.5 627,-526.5 633,-526.5 639,-532.5 639,-538.5 639,-538.5 639,-571.5 639,-571.5 639,-577.5 633,-583.5 627,-583.5"/>
<text text-anchor="start" x="583.5" y="-567" font-family="Helvetica,sans-Serif" font-size="10.00">Vector3d</text>
<text text-anchor="start" x="603" y="-552" font-family="Helvetica,sans-Serif" font-size="10.00"> </text>
<text text-anchor="start" x="603" y="-537" font-family="Helvetica,sans-Serif" font-size="10.00"> </text>
<polygon fill="#666666" stroke="#666666" points="578.5,-562 578.5,-562 631.5,-562 631.5,-562 578.5,-562"/>
<polygon fill="#666666" stroke="#666666" points="578.5,-547 578.5,-547 631.5,-547 631.5,-547 578.5,-547"/>
<polygon fill="none" stroke="#666666" points="578,-530.5 578,-579.5 631,-579.5 631,-530.5 578,-530.5"/>
</a>
</g>
</g>
<!-- Node39&#45;&gt;Node1 -->
<g id="edge16_Node000001_Node000039" class="edge">
<title>Node39&#45;&gt;Node1</title>
<g id="a_edge16_Node000001_Node000039"><a xlink:title=" ">
<path fill="none" stroke="#63b8ff" d="M608.03,-526.22C615.18,-459 625.23,-284.3 555.5,-165 541.36,-140.81 517.95,-121.12 495.4,-106.35"/>
<polygon fill="none" stroke="#63b8ff" points="495.3,-106.29 488.09,-106.49 485.13,-99.91 492.34,-99.71 495.3,-106.29"/>
</a>
</g>
<text text-anchor="middle" x="610" y="-223" font-family="Helvetica,sans-Serif" font-size="10.00" fill="grey"> +acclBias</text>
<text text-anchor="middle" x="610" y="-212" font-family="Helvetica,sans-Serif" font-size="10.00" fill="grey">+acclScale</text>
<text text-anchor="middle" x="610" y="-201" font-family="Helvetica,sans-Serif" font-size="10.00" fill="grey">+gyroBias</text>
<text text-anchor="middle" x="610" y="-190" font-family="Helvetica,sans-Serif" font-size="10.00" fill="grey">+gyroScale</text>
<text text-anchor="middle" x="610" y="-179" font-family="Helvetica,sans-Serif" font-size="10.00" fill="grey">+pos</text>
<text text-anchor="middle" x="610" y="-168" font-family="Helvetica,sans-Serif" font-size="10.00" fill="grey">+vel</text>
</g>
<!-- Node62 -->
<g id="Node000062" class="node">
<title>Node62</title>
<g id="a_Node000062"><a xlink:title=" ">
<path fill="white" stroke="#666666" d="M382,-583.5C382,-583.5 337,-583.5 337,-583.5 331,-583.5 325,-577.5 325,-571.5 325,-571.5 325,-538.5 325,-538.5 325,-532.5 331,-526.5 337,-526.5 337,-526.5 382,-526.5 382,-526.5 388,-526.5 394,-532.5 394,-538.5 394,-538.5 394,-571.5 394,-571.5 394,-577.5 388,-583.5 382,-583.5"/>
<text text-anchor="start" x="338.5" y="-567" font-family="Helvetica,sans-Serif" font-size="10.00">Vector4d</text>
<text text-anchor="start" x="358" y="-552" font-family="Helvetica,sans-Serif" font-size="10.00"> </text>
<text text-anchor="start" x="358" y="-537" font-family="Helvetica,sans-Serif" font-size="10.00"> </text>
<polygon fill="#666666" stroke="#666666" points="333.5,-562 333.5,-562 386.5,-562 386.5,-562 333.5,-562"/>
<polygon fill="#666666" stroke="#666666" points="333.5,-547 333.5,-547 386.5,-547 386.5,-547 333.5,-547"/>
<polygon fill="none" stroke="#666666" points="333,-530.5 333,-579.5 386,-579.5 386,-530.5 333,-530.5"/>
</a>
</g>
</g>
<!-- Node62&#45;&gt;Node1 -->
<g id="edge17_Node000001_Node000062" class="edge">
<title>Node62&#45;&gt;Node1</title>
<g id="a_edge17_Node000001_Node000062"><a xlink:title=" ">
<path fill="none" stroke="#63b8ff" d="M357.46,-526.45C353.5,-461.86 348.18,-296.18 385.5,-165 386.11,-162.85 386.78,-160.69 387.5,-158.53"/>
<polygon fill="none" stroke="#63b8ff" points="387.6,-158.26 385.92,-151.24 391.75,-147 393.43,-154.02 387.6,-158.26"/>
</a>
</g>
<text text-anchor="middle" x="402.5" y="-195.5" font-family="Helvetica,sans-Serif" font-size="10.00" fill="grey"> +quat</text>
</g>
</g>
</svg>
