<?xml version="1.0" encoding="UTF-8" standalone="no"?>
<!DOCTYPE svg PUBLIC "-//W3C//DTD SVG 1.1//EN"
 "http://www.w3.org/Graphics/SVG/1.1/DTD/svg11.dtd">
<!-- Generated by graphviz version 2.43.0 (0)
 -->
<!-- Title: Receiver Pages: 1 -->
<svg width="262pt" height="698pt"
 viewBox="0.00 0.00 261.50 698.00" xmlns="http://www.w3.org/2000/svg" xmlns:xlink="http://www.w3.org/1999/xlink">
<g id="graph0" class="graph" transform="scale(1 1) rotate(0) translate(4 694)">
<title>Receiver</title>
<!-- Node1 -->
<g id="Node000001" class="node">
<title>Node1</title>
<g id="a_Node000001"><a xlink:href="structReceiver.html" target="_top" xlink:title="Object to maintain receiver station data.">
<path fill="white" stroke="#666666" stroke-width="2" d="M187.5,-477C187.5,-477 83.5,-477 83.5,-477 77.5,-477 71.5,-471 71.5,-465 71.5,-465 71.5,-12 71.5,-12 71.5,-6 77.5,0 83.5,0 83.5,0 187.5,0 187.5,0 193.5,0 199.5,-6 199.5,-12 199.5,-12 199.5,-465 199.5,-465 199.5,-471 193.5,-477 187.5,-477"/>
<text text-anchor="start" x="114" y="-460.5" font-family="Helvetica,sans-Serif" font-size="10.00">Receiver</text>
<text text-anchor="start" x="83.5" y="-445.5" font-family="Helvetica,sans-Serif" font-size="10.00">+</text>
<text text-anchor="start" x="96.5" y="-445.5" font-family="Helvetica,sans-Serif" font-size="10.00">isPseudoRec</text>
<text text-anchor="start" x="83.5" y="-430.5" font-family="Helvetica,sans-Serif" font-size="10.00">+</text>
<text text-anchor="start" x="96.5" y="-430.5" font-family="Helvetica,sans-Serif" font-size="10.00">invalid</text>
<text text-anchor="start" x="83.5" y="-415.5" font-family="Helvetica,sans-Serif" font-size="10.00">+</text>
<text text-anchor="start" x="96.5" y="-415.5" font-family="Helvetica,sans-Serif" font-size="10.00">snx</text>
<text text-anchor="start" x="83.5" y="-400.5" font-family="Helvetica,sans-Serif" font-size="10.00">+</text>
<text text-anchor="start" x="96.5" y="-400.5" font-family="Helvetica,sans-Serif" font-size="10.00">metaDataMap</text>
<text text-anchor="start" x="83.5" y="-385.5" font-family="Helvetica,sans-Serif" font-size="10.00">+</text>
<text text-anchor="start" x="96.5" y="-385.5" font-family="Helvetica,sans-Serif" font-size="10.00">obsList</text>
<text text-anchor="start" x="83.5" y="-370.5" font-family="Helvetica,sans-Serif" font-size="10.00">+</text>
<text text-anchor="start" x="96.5" y="-370.5" font-family="Helvetica,sans-Serif" font-size="10.00">id</text>
<text text-anchor="start" x="83.5" y="-355.5" font-family="Helvetica,sans-Serif" font-size="10.00">+</text>
<text text-anchor="start" x="96.5" y="-355.5" font-family="Helvetica,sans-Serif" font-size="10.00">source</text>
<text text-anchor="start" x="83.5" y="-340.5" font-family="Helvetica,sans-Serif" font-size="10.00">+</text>
<text text-anchor="start" x="96.5" y="-340.5" font-family="Helvetica,sans-Serif" font-size="10.00">primaryApriori</text>
<text text-anchor="start" x="83.5" y="-325.5" font-family="Helvetica,sans-Serif" font-size="10.00">+</text>
<text text-anchor="start" x="96.5" y="-325.5" font-family="Helvetica,sans-Serif" font-size="10.00">aprioriTime</text>
<text text-anchor="start" x="83.5" y="-310.5" font-family="Helvetica,sans-Serif" font-size="10.00">+</text>
<text text-anchor="start" x="96.5" y="-310.5" font-family="Helvetica,sans-Serif" font-size="10.00">aprioriClk</text>
<text text-anchor="start" x="83.5" y="-295.5" font-family="Helvetica,sans-Serif" font-size="10.00">+</text>
<text text-anchor="start" x="96.5" y="-295.5" font-family="Helvetica,sans-Serif" font-size="10.00">aprioriClkVar</text>
<text text-anchor="start" x="83.5" y="-280.5" font-family="Helvetica,sans-Serif" font-size="10.00">+</text>
<text text-anchor="start" x="96.5" y="-280.5" font-family="Helvetica,sans-Serif" font-size="10.00">aprioriPos</text>
<text text-anchor="start" x="83.5" y="-265.5" font-family="Helvetica,sans-Serif" font-size="10.00">+</text>
<text text-anchor="start" x="96.5" y="-265.5" font-family="Helvetica,sans-Serif" font-size="10.00">aprioriVar</text>
<text text-anchor="start" x="83.5" y="-250.5" font-family="Helvetica,sans-Serif" font-size="10.00">+</text>
<text text-anchor="start" x="96.5" y="-250.5" font-family="Helvetica,sans-Serif" font-size="10.00">minconApriori</text>
<text text-anchor="start" x="83.5" y="-235.5" font-family="Helvetica,sans-Serif" font-size="10.00">+</text>
<text text-anchor="start" x="96.5" y="-235.5" font-family="Helvetica,sans-Serif" font-size="10.00">pos</text>
<text text-anchor="start" x="83.5" y="-220.5" font-family="Helvetica,sans-Serif" font-size="10.00">+</text>
<text text-anchor="start" x="96.5" y="-220.5" font-family="Helvetica,sans-Serif" font-size="10.00">ready</text>
<text text-anchor="start" x="83.5" y="-205.5" font-family="Helvetica,sans-Serif" font-size="10.00">+</text>
<text text-anchor="start" x="96.5" y="-205.5" font-family="Helvetica,sans-Serif" font-size="10.00">antBoresight</text>
<text text-anchor="start" x="83.5" y="-190.5" font-family="Helvetica,sans-Serif" font-size="10.00">+</text>
<text text-anchor="start" x="96.5" y="-190.5" font-family="Helvetica,sans-Serif" font-size="10.00">antAzimuth</text>
<text text-anchor="start" x="83.5" y="-175.5" font-family="Helvetica,sans-Serif" font-size="10.00">+</text>
<text text-anchor="start" x="96.5" y="-175.5" font-family="Helvetica,sans-Serif" font-size="10.00">traceFilename</text>
<text text-anchor="start" x="83.5" y="-160.5" font-family="Helvetica,sans-Serif" font-size="10.00">+</text>
<text text-anchor="start" x="96.5" y="-160.5" font-family="Helvetica,sans-Serif" font-size="10.00">jsonTraceFilename</text>
<text text-anchor="start" x="83.5" y="-145.5" font-family="Helvetica,sans-Serif" font-size="10.00">+</text>
<text text-anchor="start" x="96.5" y="-145.5" font-family="Helvetica,sans-Serif" font-size="10.00">savedSlips</text>
<text text-anchor="start" x="83.5" y="-130.5" font-family="Helvetica,sans-Serif" font-size="10.00">+</text>
<text text-anchor="start" x="96.5" y="-130.5" font-family="Helvetica,sans-Serif" font-size="10.00">failure</text>
<text text-anchor="start" x="83.5" y="-115.5" font-family="Helvetica,sans-Serif" font-size="10.00">+</text>
<text text-anchor="start" x="96.5" y="-115.5" font-family="Helvetica,sans-Serif" font-size="10.00">failureSinex</text>
<text text-anchor="start" x="83.5" y="-100.5" font-family="Helvetica,sans-Serif" font-size="10.00">+</text>
<text text-anchor="start" x="96.5" y="-100.5" font-family="Helvetica,sans-Serif" font-size="10.00">failureAprioriPos</text>
<text text-anchor="start" x="83.5" y="-85.5" font-family="Helvetica,sans-Serif" font-size="10.00">+</text>
<text text-anchor="start" x="96.5" y="-85.5" font-family="Helvetica,sans-Serif" font-size="10.00">failureEccentricity</text>
<text text-anchor="start" x="83.5" y="-70.5" font-family="Helvetica,sans-Serif" font-size="10.00">+</text>
<text text-anchor="start" x="96.5" y="-70.5" font-family="Helvetica,sans-Serif" font-size="10.00">failureAntenna</text>
<text text-anchor="start" x="83.5" y="-55.5" font-family="Helvetica,sans-Serif" font-size="10.00">+</text>
<text text-anchor="start" x="96.5" y="-55.5" font-family="Helvetica,sans-Serif" font-size="10.00">@37</text>
<text text-anchor="start" x="83.5" y="-40.5" font-family="Helvetica,sans-Serif" font-size="10.00">+</text>
<text text-anchor="start" x="96.5" y="-40.5" font-family="Helvetica,sans-Serif" font-size="10.00">pppTideCache</text>
<text text-anchor="start" x="83.5" y="-25.5" font-family="Helvetica,sans-Serif" font-size="10.00">+</text>
<text text-anchor="start" x="96.5" y="-25.5" font-family="Helvetica,sans-Serif" font-size="10.00">pppEopCache</text>
<text text-anchor="start" x="133.5" y="-10.5" font-family="Helvetica,sans-Serif" font-size="10.00"> </text>
<polygon fill="#666666" stroke="#666666" points="79.5,-455.5 79.5,-455.5 191.5,-455.5 191.5,-455.5 79.5,-455.5"/>
<polygon fill="#666666" stroke="#666666" points="79.5,-20.5 79.5,-20.5 94.5,-20.5 94.5,-20.5 79.5,-20.5"/>
<polygon fill="#666666" stroke="#666666" points="94.5,-20.5 94.5,-20.5 191.5,-20.5 191.5,-20.5 94.5,-20.5"/>
<polygon fill="none" stroke="#666666" points="79.5,-4 79.5,-473 191.5,-473 191.5,-4 79.5,-4"/>
</a>
</g>
</g>
<!-- Node2 -->
<g id="Node000002" class="node">
<title>Node2</title>
<g id="a_Node000002"><a xlink:href="structReceiverLogs.html" target="_top" xlink:title=" ">
<path fill="white" stroke="#666666" d="M123,-690C123,-690 12,-690 12,-690 6,-690 0,-684 0,-678 0,-678 0,-525 0,-525 0,-519 6,-513 12,-513 12,-513 123,-513 123,-513 129,-513 135,-519 135,-525 135,-525 135,-678 135,-678 135,-684 129,-690 123,-690"/>
<text text-anchor="start" x="35" y="-673.5" font-family="Helvetica,sans-Serif" font-size="10.00">ReceiverLogs</text>
<text text-anchor="start" x="12.5" y="-658.5" font-family="Helvetica,sans-Serif" font-size="10.00">+</text>
<text text-anchor="start" x="25.5" y="-658.5" font-family="Helvetica,sans-Serif" font-size="10.00">firstEpoch</text>
<text text-anchor="start" x="12.5" y="-643.5" font-family="Helvetica,sans-Serif" font-size="10.00">+</text>
<text text-anchor="start" x="25.5" y="-643.5" font-family="Helvetica,sans-Serif" font-size="10.00">lastEpoch</text>
<text text-anchor="start" x="12.5" y="-628.5" font-family="Helvetica,sans-Serif" font-size="10.00">+</text>
<text text-anchor="start" x="25.5" y="-628.5" font-family="Helvetica,sans-Serif" font-size="10.00">epochCount</text>
<text text-anchor="start" x="12.5" y="-613.5" font-family="Helvetica,sans-Serif" font-size="10.00">+</text>
<text text-anchor="start" x="25.5" y="-613.5" font-family="Helvetica,sans-Serif" font-size="10.00">obsCount</text>
<text text-anchor="start" x="12.5" y="-598.5" font-family="Helvetica,sans-Serif" font-size="10.00">+</text>
<text text-anchor="start" x="25.5" y="-598.5" font-family="Helvetica,sans-Serif" font-size="10.00">slipCount</text>
<text text-anchor="start" x="12.5" y="-583.5" font-family="Helvetica,sans-Serif" font-size="10.00">+</text>
<text text-anchor="start" x="25.5" y="-583.5" font-family="Helvetica,sans-Serif" font-size="10.00">codeCount</text>
<text text-anchor="start" x="12.5" y="-568.5" font-family="Helvetica,sans-Serif" font-size="10.00">+</text>
<text text-anchor="start" x="25.5" y="-568.5" font-family="Helvetica,sans-Serif" font-size="10.00">satCount</text>
<text text-anchor="start" x="12.5" y="-553.5" font-family="Helvetica,sans-Serif" font-size="10.00">+</text>
<text text-anchor="start" x="25.5" y="-553.5" font-family="Helvetica,sans-Serif" font-size="10.00">receiverErrorEpochs</text>
<text text-anchor="start" x="12.5" y="-538.5" font-family="Helvetica,sans-Serif" font-size="10.00">+</text>
<text text-anchor="start" x="25.5" y="-538.5" font-family="Helvetica,sans-Serif" font-size="10.00">receiverErrorCount</text>
<text text-anchor="start" x="66" y="-523.5" font-family="Helvetica,sans-Serif" font-size="10.00"> </text>
<polygon fill="#666666" stroke="#666666" points="8.5,-668.5 8.5,-668.5 127.5,-668.5 127.5,-668.5 8.5,-668.5"/>
<polygon fill="#666666" stroke="#666666" points="8.5,-533.5 8.5,-533.5 23.5,-533.5 23.5,-533.5 8.5,-533.5"/>
<polygon fill="#666666" stroke="#666666" points="23.5,-533.5 23.5,-533.5 127.5,-533.5 127.5,-533.5 23.5,-533.5"/>
<polygon fill="none" stroke="#666666" points="8,-517 8,-686 127,-686 127,-517 8,-517"/>
</a>
</g>
</g>
<!-- Node2&#45;&gt;Node1 -->
<g id="edge1_Node000001_Node000002" class="edge">
<title>Node2&#45;&gt;Node1</title>
<g id="a_edge1_Node000001_Node000002"><a xlink:title=" ">
<path fill="none" stroke="#63b8ff" d="M85.92,-502.72C87.48,-494.45 89.09,-485.89 90.74,-477.12"/>
<polygon fill="none" stroke="#63b8ff" points="82.46,-502.18 84.05,-512.65 89.34,-503.47 82.46,-502.18"/>
</a>
</g>
</g>
<!-- Node3 -->
<g id="Node000003" class="node">
<title>Node3</title>
<g id="a_Node000003"><a xlink:href="structRtk.html" target="_top" xlink:title=" ">
<path fill="white" stroke="#666666" d="M241.5,-675C241.5,-675 165.5,-675 165.5,-675 159.5,-675 153.5,-669 153.5,-663 153.5,-663 153.5,-540 153.5,-540 153.5,-534 159.5,-528 165.5,-528 165.5,-528 241.5,-528 241.5,-528 247.5,-528 253.5,-534 253.5,-540 253.5,-540 253.5,-663 253.5,-663 253.5,-669 247.5,-675 241.5,-675"/>
<text text-anchor="start" x="195" y="-658.5" font-family="Helvetica,sans-Serif" font-size="10.00">Rtk</text>
<text text-anchor="start" x="165.5" y="-643.5" font-family="Helvetica,sans-Serif" font-size="10.00">+</text>
<text text-anchor="start" x="178.5" y="-643.5" font-family="Helvetica,sans-Serif" font-size="10.00">sol</text>
<text text-anchor="start" x="165.5" y="-628.5" font-family="Helvetica,sans-Serif" font-size="10.00">+</text>
<text text-anchor="start" x="178.5" y="-628.5" font-family="Helvetica,sans-Serif" font-size="10.00">antennaType</text>
<text text-anchor="start" x="165.5" y="-613.5" font-family="Helvetica,sans-Serif" font-size="10.00">+</text>
<text text-anchor="start" x="178.5" y="-613.5" font-family="Helvetica,sans-Serif" font-size="10.00">receiverType</text>
<text text-anchor="start" x="165.5" y="-598.5" font-family="Helvetica,sans-Serif" font-size="10.00">+</text>
<text text-anchor="start" x="178.5" y="-598.5" font-family="Helvetica,sans-Serif" font-size="10.00">antennaId</text>
<text text-anchor="start" x="165.5" y="-583.5" font-family="Helvetica,sans-Serif" font-size="10.00">+</text>
<text text-anchor="start" x="178.5" y="-583.5" font-family="Helvetica,sans-Serif" font-size="10.00">satStatMap</text>
<text text-anchor="start" x="165.5" y="-568.5" font-family="Helvetica,sans-Serif" font-size="10.00">+</text>
<text text-anchor="start" x="178.5" y="-568.5" font-family="Helvetica,sans-Serif" font-size="10.00">antDelta</text>
<text text-anchor="start" x="165.5" y="-553.5" font-family="Helvetica,sans-Serif" font-size="10.00">+</text>
<text text-anchor="start" x="178.5" y="-553.5" font-family="Helvetica,sans-Serif" font-size="10.00">attStatus</text>
<text text-anchor="start" x="201.5" y="-538.5" font-family="Helvetica,sans-Serif" font-size="10.00"> </text>
<polygon fill="#666666" stroke="#666666" points="161.5,-653.5 161.5,-653.5 245.5,-653.5 245.5,-653.5 161.5,-653.5"/>
<polygon fill="#666666" stroke="#666666" points="161.5,-548.5 161.5,-548.5 176.5,-548.5 176.5,-548.5 161.5,-548.5"/>
<polygon fill="#666666" stroke="#666666" points="176.5,-548.5 176.5,-548.5 245.5,-548.5 245.5,-548.5 176.5,-548.5"/>
<polygon fill="none" stroke="#666666" points="161.5,-532 161.5,-671 245.5,-671 245.5,-532 161.5,-532"/>
</a>
</g>
</g>
<!-- Node3&#45;&gt;Node1 -->
<g id="edge2_Node000001_Node000003" class="edge">
<title>Node3&#45;&gt;Node1</title>
<g id="a_edge2_Node000001_Node000003"><a xlink:title=" ">
<path fill="none" stroke="#63b8ff" d="M187.93,-517.83C185.52,-505.03 182.93,-491.29 180.24,-477.02"/>
<polygon fill="none" stroke="#63b8ff" points="184.53,-518.7 189.82,-527.88 191.41,-517.41 184.53,-518.7"/>
</a>
</g>
</g>
</g>
</svg>
