<?xml version="1.0" encoding="UTF-8" standalone="no"?>
<!DOCTYPE svg PUBLIC "-//W3C//DTD SVG 1.1//EN"
 "http://www.w3.org/Graphics/SVG/1.1/DTD/svg11.dtd">
<!-- Generated by graphviz version 2.43.0 (0)
 -->
<!-- Title: NtripUploader Pages: 1 -->
<svg width="384pt" height="1256pt"
 viewBox="0.00 0.00 383.50 1256.00" xmlns="http://www.w3.org/2000/svg" xmlns:xlink="http://www.w3.org/1999/xlink">
<g id="graph0" class="graph" transform="scale(1 1) rotate(0) translate(4 1252)">
<title>NtripUploader</title>
<!-- Node1 -->
<g id="Node000001" class="node">
<title>Node1</title>
<g id="a_Node000001"><a xlink:href="structNtripUploader.html" target="_top" xlink:title=" ">
<path fill="white" stroke="#666666" stroke-width="2" d="M253.5,-267C253.5,-267 109.5,-267 109.5,-267 103.5,-267 97.5,-261 97.5,-255 97.5,-255 97.5,-12 97.5,-12 97.5,-6 103.5,0 109.5,0 109.5,0 253.5,0 253.5,0 259.5,0 265.5,-6 265.5,-12 265.5,-12 265.5,-255 265.5,-255 265.5,-261 259.5,-267 253.5,-267"/>
<text text-anchor="start" x="147" y="-250.5" font-family="Helvetica,sans-Serif" font-size="10.00">NtripUploader</text>
<text text-anchor="start" x="109.5" y="-235.5" font-family="Helvetica,sans-Serif" font-size="10.00">+</text>
<text text-anchor="start" x="122.5" y="-235.5" font-family="Helvetica,sans-Serif" font-size="10.00">timeNextMessage</text>
<text text-anchor="start" x="109.5" y="-220.5" font-family="Helvetica,sans-Serif" font-size="10.00">+</text>
<text text-anchor="start" x="122.5" y="-220.5" font-family="Helvetica,sans-Serif" font-size="10.00">outMessagesMtx</text>
<text text-anchor="start" x="109.5" y="-205.5" font-family="Helvetica,sans-Serif" font-size="10.00">+</text>
<text text-anchor="start" x="122.5" y="-205.5" font-family="Helvetica,sans-Serif" font-size="10.00">outMessages</text>
<text text-anchor="start" x="109.5" y="-190.5" font-family="Helvetica,sans-Serif" font-size="10.00">+</text>
<text text-anchor="start" x="122.5" y="-190.5" font-family="Helvetica,sans-Serif" font-size="10.00">sendTimer</text>
<text text-anchor="start" x="109.5" y="-175.5" font-family="Helvetica,sans-Serif" font-size="10.00">+</text>
<text text-anchor="start" x="122.5" y="-175.5" font-family="Helvetica,sans-Serif" font-size="10.00">numberChunksSent</text>
<text text-anchor="start" x="109.5" y="-160.5" font-family="Helvetica,sans-Serif" font-size="10.00">+</text>
<text text-anchor="start" x="122.5" y="-160.5" font-family="Helvetica,sans-Serif" font-size="10.00">previousTargetTime</text>
<text text-anchor="start" x="109.5" y="-145.5" font-family="Helvetica,sans-Serif" font-size="10.00">+</text>
<text text-anchor="start" x="122.5" y="-145.5" font-family="Helvetica,sans-Serif" font-size="10.00">ntripStr</text>
<text text-anchor="start" x="109.5" y="-130.5" font-family="Helvetica,sans-Serif" font-size="10.00">+</text>
<text text-anchor="start" x="122.5" y="-130.5" font-family="Helvetica,sans-Serif" font-size="10.00">id</text>
<text text-anchor="start" x="109.5" y="-115.5" font-family="Helvetica,sans-Serif" font-size="10.00">+</text>
<text text-anchor="start" x="122.5" y="-115.5" font-family="Helvetica,sans-Serif" font-size="10.00">streamConfig</text>
<text text-anchor="start" x="109.5" y="-100.5" font-family="Helvetica,sans-Serif" font-size="10.00">+</text>
<text text-anchor="start" x="122.5" y="-100.5" font-family="Helvetica,sans-Serif" font-size="10.00">NtripUploader()</text>
<text text-anchor="start" x="109.5" y="-85.5" font-family="Helvetica,sans-Serif" font-size="10.00">+</text>
<text text-anchor="start" x="122.5" y="-85.5" font-family="Helvetica,sans-Serif" font-size="10.00">startBroadcast()</text>
<text text-anchor="start" x="109.5" y="-70.5" font-family="Helvetica,sans-Serif" font-size="10.00">+</text>
<text text-anchor="start" x="122.5" y="-70.5" font-family="Helvetica,sans-Serif" font-size="10.00">connected()</text>
<text text-anchor="start" x="109.5" y="-55.5" font-family="Helvetica,sans-Serif" font-size="10.00">+</text>
<text text-anchor="start" x="122.5" y="-55.5" font-family="Helvetica,sans-Serif" font-size="10.00">messageTimeoutHandler()</text>
<text text-anchor="start" x="109.5" y="-40.5" font-family="Helvetica,sans-Serif" font-size="10.00">+</text>
<text text-anchor="start" x="122.5" y="-40.5" font-family="Helvetica,sans-Serif" font-size="10.00">writeHandler()</text>
<text text-anchor="start" x="109.5" y="-25.5" font-family="Helvetica,sans-Serif" font-size="10.00">+</text>
<text text-anchor="start" x="122.5" y="-25.5" font-family="Helvetica,sans-Serif" font-size="10.00">serverResponse()</text>
<text text-anchor="start" x="109.5" y="-10.5" font-family="Helvetica,sans-Serif" font-size="10.00">+</text>
<text text-anchor="start" x="122.5" y="-10.5" font-family="Helvetica,sans-Serif" font-size="10.00">getJsonNetworkStatistics()</text>
<polygon fill="#666666" stroke="#666666" points="105.5,-245.5 105.5,-245.5 257.5,-245.5 257.5,-245.5 105.5,-245.5"/>
<polygon fill="#666666" stroke="#666666" points="105.5,-110.5 105.5,-110.5 120.5,-110.5 120.5,-110.5 105.5,-110.5"/>
<polygon fill="#666666" stroke="#666666" points="120.5,-110.5 120.5,-110.5 257.5,-110.5 257.5,-110.5 120.5,-110.5"/>
<polygon fill="none" stroke="#666666" points="105.5,-4 105.5,-263 257.5,-263 257.5,-4 105.5,-4"/>
</a>
</g>
</g>
<!-- Node2 -->
<g id="Node000002" class="node">
<title>Node2</title>
<g id="a_Node000002"><a xlink:href="structNtripResponder.html" target="_top" xlink:title=" ">
<path fill="white" stroke="#666666" d="M155,-487.5C155,-487.5 12,-487.5 12,-487.5 6,-487.5 0,-481.5 0,-475.5 0,-475.5 0,-412.5 0,-412.5 0,-406.5 6,-400.5 12,-400.5 12,-400.5 155,-400.5 155,-400.5 161,-400.5 167,-406.5 167,-412.5 167,-412.5 167,-475.5 167,-475.5 167,-481.5 161,-487.5 155,-487.5"/>
<text text-anchor="start" x="46" y="-471" font-family="Helvetica,sans-Serif" font-size="10.00">NtripResponder</text>
<text text-anchor="start" x="82" y="-456" font-family="Helvetica,sans-Serif" font-size="10.00"> </text>
<text text-anchor="start" x="12.5" y="-441" font-family="Helvetica,sans-Serif" font-size="10.00">+</text>
<text text-anchor="start" x="25.5" y="-441" font-family="Helvetica,sans-Serif" font-size="10.00">NtripResponder()</text>
<text text-anchor="start" x="12.5" y="-426" font-family="Helvetica,sans-Serif" font-size="10.00">+</text>
<text text-anchor="start" x="25.5" y="-426" font-family="Helvetica,sans-Serif" font-size="10.00">requestResponseHandler()</text>
<text text-anchor="start" x="12.5" y="-411" font-family="Helvetica,sans-Serif" font-size="10.00">+</text>
<text text-anchor="start" x="25.5" y="-411" font-family="Helvetica,sans-Serif" font-size="10.00">serverResponse()</text>
<polygon fill="#666666" stroke="#666666" points="8.5,-466 8.5,-466 159.5,-466 159.5,-466 8.5,-466"/>
<polygon fill="#666666" stroke="#666666" points="8.5,-451 8.5,-451 159.5,-451 159.5,-451 8.5,-451"/>
<polygon fill="none" stroke="#666666" points="8,-404.5 8,-483.5 159,-483.5 159,-404.5 8,-404.5"/>
</a>
</g>
</g>
<!-- Node2&#45;&gt;Node1 -->
<g id="edge1_Node000001_Node000002" class="edge">
<title>Node2&#45;&gt;Node1</title>
<g id="a_edge1_Node000001_Node000002"><a xlink:title=" ">
<path fill="none" stroke="#63b8ff" d="M100.11,-390.72C110.92,-356.69 125.53,-310.68 139.4,-267.03"/>
<polygon fill="none" stroke="#63b8ff" points="96.72,-389.84 97.02,-400.43 103.39,-391.96 96.72,-389.84"/>
</a>
</g>
</g>
<!-- Node3 -->
<g id="Node000003" class="node">
<title>Node3</title>
<g id="a_Node000003"><a xlink:href="structTcpSocket.html" target="_top" xlink:title=" ">
<path fill="#fff0f0" stroke="red" d="M155,-1248C155,-1248 12,-1248 12,-1248 6,-1248 0,-1242 0,-1236 0,-1236 0,-633 0,-633 0,-627 6,-621 12,-621 12,-621 155,-621 155,-621 161,-621 167,-627 167,-633 167,-633 167,-1236 167,-1236 167,-1242 161,-1248 155,-1248"/>
<text text-anchor="start" x="59.5" y="-1231.5" font-family="Helvetica,sans-Serif" font-size="10.00">TcpSocket</text>
<text text-anchor="start" x="12.5" y="-1216.5" font-family="Helvetica,sans-Serif" font-size="10.00">+</text>
<text text-anchor="start" x="25.5" y="-1216.5" font-family="Helvetica,sans-Serif" font-size="10.00">url</text>
<text text-anchor="start" x="12.5" y="-1201.5" font-family="Helvetica,sans-Serif" font-size="10.00">+</text>
<text text-anchor="start" x="25.5" y="-1201.5" font-family="Helvetica,sans-Serif" font-size="10.00">reconnectDelay</text>
<text text-anchor="start" x="12.5" y="-1186.5" font-family="Helvetica,sans-Serif" font-size="10.00">+</text>
<text text-anchor="start" x="25.5" y="-1186.5" font-family="Helvetica,sans-Serif" font-size="10.00">disconnectionCount</text>
<text text-anchor="start" x="12.5" y="-1171.5" font-family="Helvetica,sans-Serif" font-size="10.00">+</text>
<text text-anchor="start" x="25.5" y="-1171.5" font-family="Helvetica,sans-Serif" font-size="10.00">isConnected</text>
<text text-anchor="start" x="12.5" y="-1156.5" font-family="Helvetica,sans-Serif" font-size="10.00">+</text>
<text text-anchor="start" x="25.5" y="-1156.5" font-family="Helvetica,sans-Serif" font-size="10.00">numberErroredChunks</text>
<text text-anchor="start" x="12.5" y="-1141.5" font-family="Helvetica,sans-Serif" font-size="10.00">+</text>
<text text-anchor="start" x="25.5" y="-1141.5" font-family="Helvetica,sans-Serif" font-size="10.00">logHttpSentReceived</text>
<text text-anchor="start" x="12.5" y="-1126.5" font-family="Helvetica,sans-Serif" font-size="10.00">+</text>
<text text-anchor="start" x="25.5" y="-1126.5" font-family="Helvetica,sans-Serif" font-size="10.00">content_length</text>
<text text-anchor="start" x="12.5" y="-1111.5" font-family="Helvetica,sans-Serif" font-size="10.00">+</text>
<text text-anchor="start" x="25.5" y="-1111.5" font-family="Helvetica,sans-Serif" font-size="10.00">sslContext</text>
<text text-anchor="start" x="12.5" y="-1096.5" font-family="Helvetica,sans-Serif" font-size="10.00">+</text>
<text text-anchor="start" x="25.5" y="-1096.5" font-family="Helvetica,sans-Serif" font-size="10.00">ioService</text>
<text text-anchor="start" x="12.5" y="-1081.5" font-family="Helvetica,sans-Serif" font-size="10.00">#</text>
<text text-anchor="start" x="25.5" y="-1081.5" font-family="Helvetica,sans-Serif" font-size="10.00">_socket</text>
<text text-anchor="start" x="12.5" y="-1066.5" font-family="Helvetica,sans-Serif" font-size="10.00">#</text>
<text text-anchor="start" x="25.5" y="-1066.5" font-family="Helvetica,sans-Serif" font-size="10.00">socket_ptr</text>
<text text-anchor="start" x="12.5" y="-1051.5" font-family="Helvetica,sans-Serif" font-size="10.00">#</text>
<text text-anchor="start" x="25.5" y="-1051.5" font-family="Helvetica,sans-Serif" font-size="10.00">_sslsocket</text>
<text text-anchor="start" x="12.5" y="-1036.5" font-family="Helvetica,sans-Serif" font-size="10.00">#</text>
<text text-anchor="start" x="25.5" y="-1036.5" font-family="Helvetica,sans-Serif" font-size="10.00">_resolver</text>
<text text-anchor="start" x="12.5" y="-1021.5" font-family="Helvetica,sans-Serif" font-size="10.00">#</text>
<text text-anchor="start" x="25.5" y="-1021.5" font-family="Helvetica,sans-Serif" font-size="10.00">timer</text>
<text text-anchor="start" x="12.5" y="-1006.5" font-family="Helvetica,sans-Serif" font-size="10.00">#</text>
<text text-anchor="start" x="25.5" y="-1006.5" font-family="Helvetica,sans-Serif" font-size="10.00">readUntilString</text>
<text text-anchor="start" x="12.5" y="-991.5" font-family="Helvetica,sans-Serif" font-size="10.00">#</text>
<text text-anchor="start" x="25.5" y="-991.5" font-family="Helvetica,sans-Serif" font-size="10.00">requestString</text>
<text text-anchor="start" x="12.5" y="-976.5" font-family="Helvetica,sans-Serif" font-size="10.00">#</text>
<text text-anchor="start" x="25.5" y="-976.5" font-family="Helvetica,sans-Serif" font-size="10.00">responseString</text>
<text text-anchor="start" x="12.5" y="-961.5" font-family="Helvetica,sans-Serif" font-size="10.00">#</text>
<text text-anchor="start" x="25.5" y="-961.5" font-family="Helvetica,sans-Serif" font-size="10.00">request</text>
<text text-anchor="start" x="12.5" y="-946.5" font-family="Helvetica,sans-Serif" font-size="10.00">#</text>
<text text-anchor="start" x="25.5" y="-946.5" font-family="Helvetica,sans-Serif" font-size="10.00">downloadBuf</text>
<text text-anchor="start" x="12.5" y="-931.5" font-family="Helvetica,sans-Serif" font-size="10.00">#</text>
<text text-anchor="start" x="25.5" y="-931.5" font-family="Helvetica,sans-Serif" font-size="10.00">receivedTcpData</text>
<text text-anchor="start" x="12.5" y="-916.5" font-family="Helvetica,sans-Serif" font-size="10.00">+</text>
<text text-anchor="start" x="25.5" y="-916.5" font-family="Helvetica,sans-Serif" font-size="10.00">TcpSocket()</text>
<text text-anchor="start" x="12.5" y="-901.5" font-family="Helvetica,sans-Serif" font-size="10.00">+</text>
<text text-anchor="start" x="25.5" y="-901.5" font-family="Helvetica,sans-Serif" font-size="10.00">setUrl()</text>
<text text-anchor="start" x="12.5" y="-886.5" font-family="Helvetica,sans-Serif" font-size="10.00">+</text>
<text text-anchor="start" x="25.5" y="-886.5" font-family="Helvetica,sans-Serif" font-size="10.00">connect()</text>
<text text-anchor="start" x="12.5" y="-871.5" font-family="Helvetica,sans-Serif" font-size="10.00">+</text>
<text text-anchor="start" x="25.5" y="-871.5" font-family="Helvetica,sans-Serif" font-size="10.00">disconnect()</text>
<text text-anchor="start" x="12.5" y="-856.5" font-family="Helvetica,sans-Serif" font-size="10.00">+</text>
<text text-anchor="start" x="25.5" y="-856.5" font-family="Helvetica,sans-Serif" font-size="10.00">startRead()</text>
<text text-anchor="start" x="12.5" y="-841.5" font-family="Helvetica,sans-Serif" font-size="10.00">+</text>
<text text-anchor="start" x="25.5" y="-841.5" font-family="Helvetica,sans-Serif" font-size="10.00">timeoutHandler()</text>
<text text-anchor="start" x="12.5" y="-826.5" font-family="Helvetica,sans-Serif" font-size="10.00">+</text>
<text text-anchor="start" x="25.5" y="-826.5" font-family="Helvetica,sans-Serif" font-size="10.00">delayedReconnect()</text>
<text text-anchor="start" x="12.5" y="-811.5" font-family="Helvetica,sans-Serif" font-size="10.00">+</text>
<text text-anchor="start" x="25.5" y="-811.5" font-family="Helvetica,sans-Serif" font-size="10.00">connectHandler()</text>
<text text-anchor="start" x="12.5" y="-796.5" font-family="Helvetica,sans-Serif" font-size="10.00">+</text>
<text text-anchor="start" x="25.5" y="-796.5" font-family="Helvetica,sans-Serif" font-size="10.00">requestResponseHandler()</text>
<text text-anchor="start" x="12.5" y="-781.5" font-family="Helvetica,sans-Serif" font-size="10.00">+</text>
<text text-anchor="start" x="25.5" y="-781.5" font-family="Helvetica,sans-Serif" font-size="10.00">logChunkError()</text>
<text text-anchor="start" x="12.5" y="-766.5" font-family="Helvetica,sans-Serif" font-size="10.00">+</text>
<text text-anchor="start" x="25.5" y="-766.5" font-family="Helvetica,sans-Serif" font-size="10.00">dataChunkDownloaded()</text>
<text text-anchor="start" x="12.5" y="-751.5" font-family="Helvetica,sans-Serif" font-size="10.00">+</text>
<text text-anchor="start" x="25.5" y="-751.5" font-family="Helvetica,sans-Serif" font-size="10.00">readContentDownloaded()</text>
<text text-anchor="start" x="12.5" y="-736.5" font-family="Helvetica,sans-Serif" font-size="10.00">+</text>
<text text-anchor="start" x="25.5" y="-736.5" font-family="Helvetica,sans-Serif" font-size="10.00">connected()</text>
<text text-anchor="start" x="12.5" y="-721.5" font-family="Helvetica,sans-Serif" font-size="10.00">+</text>
<text text-anchor="start" x="25.5" y="-721.5" font-family="Helvetica,sans-Serif" font-size="10.00">messageChunkLog()</text>
<text text-anchor="start" x="12.5" y="-706.5" font-family="Helvetica,sans-Serif" font-size="10.00">+</text>
<text text-anchor="start" x="25.5" y="-706.5" font-family="Helvetica,sans-Serif" font-size="10.00">networkLog()</text>
<text text-anchor="start" x="12.5" y="-691.5" font-family="Helvetica,sans-Serif" font-size="10.00">+</text>
<text text-anchor="start" x="25.5" y="-691.5" font-family="Helvetica,sans-Serif" font-size="10.00">getData()</text>
<text text-anchor="start" x="12.5" y="-676.5" font-family="Helvetica,sans-Serif" font-size="10.00">+</text>
<text text-anchor="start" x="25.5" y="-676.5" font-family="Helvetica,sans-Serif" font-size="10.00">connectionError()</text>
<text text-anchor="start" x="12.5" y="-661.5" font-family="Helvetica,sans-Serif" font-size="10.00">+</text>
<text text-anchor="start" x="25.5" y="-661.5" font-family="Helvetica,sans-Serif" font-size="10.00">~TcpSocket()</text>
<text text-anchor="start" x="12.5" y="-646.5" font-family="Helvetica,sans-Serif" font-size="10.00">+</text>
<text text-anchor="start" x="25.5" y="-646.5" font-family="Helvetica,sans-Serif" font-size="10.00">runService()</text>
<text text-anchor="start" x="12.5" y="-631.5" font-family="Helvetica,sans-Serif" font-size="10.00">+</text>
<text text-anchor="start" x="25.5" y="-631.5" font-family="Helvetica,sans-Serif" font-size="10.00">startClients()</text>
<polygon fill="red" stroke="red" points="8.5,-1226.5 8.5,-1226.5 159.5,-1226.5 159.5,-1226.5 8.5,-1226.5"/>
<polygon fill="red" stroke="red" points="8.5,-926.5 8.5,-926.5 23.5,-926.5 23.5,-926.5 8.5,-926.5"/>
<polygon fill="red" stroke="red" points="23.5,-926.5 23.5,-926.5 159.5,-926.5 159.5,-926.5 23.5,-926.5"/>
<polygon fill="none" stroke="red" points="8,-625 8,-1244 159,-1244 159,-625 8,-625"/>
</a>
</g>
</g>
<!-- Node3&#45;&gt;Node2 -->
<g id="edge2_Node000002_Node000003" class="edge">
<title>Node3&#45;&gt;Node2</title>
<g id="a_edge2_Node000002_Node000003"><a xlink:title=" ">
<path fill="none" stroke="#63b8ff" d="M83.5,-610.57C83.5,-561.99 83.5,-518.06 83.5,-487.68"/>
<polygon fill="none" stroke="#63b8ff" points="80,-610.67 83.5,-620.67 87,-610.67 80,-610.67"/>
</a>
</g>
</g>
<!-- Node7 -->
<g id="Node000007" class="node">
<title>Node7</title>
<g id="a_Node000007"><a xlink:href="structRtcmEncoder.html" target="_top" xlink:title=" ">
<path fill="white" stroke="#666666" d="M363.5,-585C363.5,-585 197.5,-585 197.5,-585 191.5,-585 185.5,-579 185.5,-573 185.5,-573 185.5,-315 185.5,-315 185.5,-309 191.5,-303 197.5,-303 197.5,-303 363.5,-303 363.5,-303 369.5,-303 375.5,-309 375.5,-315 375.5,-315 375.5,-573 375.5,-573 375.5,-579 369.5,-585 363.5,-585"/>
<text text-anchor="start" x="248" y="-569" font-family="Helvetica,sans-Serif" font-size="10.00">RtcmEncoder</text>
<text text-anchor="start" x="197.5" y="-554" font-family="Helvetica,sans-Serif" font-size="10.00">+</text>
<text text-anchor="start" x="210.5" y="-554" font-family="Helvetica,sans-Serif" font-size="10.00">data</text>
<text text-anchor="start" x="197.5" y="-539" font-family="Helvetica,sans-Serif" font-size="10.00">+</text>
<text text-anchor="start" x="210.5" y="-539" font-family="Helvetica,sans-Serif" font-size="10.00">masterIod</text>
<text text-anchor="start" x="197.5" y="-524" font-family="Helvetica,sans-Serif" font-size="10.00">+</text>
<text text-anchor="start" x="210.5" y="-524" font-family="Helvetica,sans-Serif" font-size="10.00">lastRegSsrEphMap</text>
<text text-anchor="start" x="197.5" y="-509" font-family="Helvetica,sans-Serif" font-size="10.00">+</text>
<text text-anchor="start" x="210.5" y="-509" font-family="Helvetica,sans-Serif" font-size="10.00">lastRegSsrClkMap</text>
<text text-anchor="start" x="197.5" y="-494" font-family="Helvetica,sans-Serif" font-size="10.00">+</text>
<text text-anchor="start" x="210.5" y="-494" font-family="Helvetica,sans-Serif" font-size="10.00">updateInterval</text>
<text text-anchor="start" x="197.5" y="-479" font-family="Helvetica,sans-Serif" font-size="10.00">+</text>
<text text-anchor="start" x="210.5" y="-479" font-family="Helvetica,sans-Serif" font-size="10.00">RtcmEncoder()</text>
<text text-anchor="start" x="197.5" y="-464" font-family="Helvetica,sans-Serif" font-size="10.00">+</text>
<text text-anchor="start" x="210.5" y="-464" font-family="Helvetica,sans-Serif" font-size="10.00">encodeWriteMessages()</text>
<text text-anchor="start" x="197.5" y="-449" font-family="Helvetica,sans-Serif" font-size="10.00">+</text>
<text text-anchor="start" x="210.5" y="-449" font-family="Helvetica,sans-Serif" font-size="10.00">encodeWriteMessageToBuffer()</text>
<text text-anchor="start" x="197.5" y="-434" font-family="Helvetica,sans-Serif" font-size="10.00">+</text>
<text text-anchor="start" x="210.5" y="-434" font-family="Helvetica,sans-Serif" font-size="10.00">encodeTimeStampRTCM()</text>
<text text-anchor="start" x="197.5" y="-419" font-family="Helvetica,sans-Serif" font-size="10.00">+</text>
<text text-anchor="start" x="210.5" y="-419" font-family="Helvetica,sans-Serif" font-size="10.00">encodeSsrHeader()</text>
<text text-anchor="start" x="197.5" y="-404" font-family="Helvetica,sans-Serif" font-size="10.00">+</text>
<text text-anchor="start" x="210.5" y="-404" font-family="Helvetica,sans-Serif" font-size="10.00">encodeSsrOrbClk()</text>
<text text-anchor="start" x="197.5" y="-389" font-family="Helvetica,sans-Serif" font-size="10.00">+</text>
<text text-anchor="start" x="210.5" y="-389" font-family="Helvetica,sans-Serif" font-size="10.00">encodeSsrUra()</text>
<text text-anchor="start" x="197.5" y="-374" font-family="Helvetica,sans-Serif" font-size="10.00">+</text>
<text text-anchor="start" x="210.5" y="-374" font-family="Helvetica,sans-Serif" font-size="10.00">encodeSsrCode()</text>
<text text-anchor="start" x="197.5" y="-359" font-family="Helvetica,sans-Serif" font-size="10.00">+</text>
<text text-anchor="start" x="210.5" y="-359" font-family="Helvetica,sans-Serif" font-size="10.00">encodeSsrPhase()</text>
<text text-anchor="start" x="197.5" y="-344" font-family="Helvetica,sans-Serif" font-size="10.00">+</text>
<text text-anchor="start" x="210.5" y="-344" font-family="Helvetica,sans-Serif" font-size="10.00">encodeEphemeris()</text>
<text text-anchor="start" x="197.5" y="-329" font-family="Helvetica,sans-Serif" font-size="10.00">+</text>
<text text-anchor="start" x="210.5" y="-329" font-family="Helvetica,sans-Serif" font-size="10.00">encodeEphemeris()</text>
<text text-anchor="start" x="197.5" y="-314" font-family="Helvetica,sans-Serif" font-size="10.00">+</text>
<text text-anchor="start" x="210.5" y="-314" font-family="Helvetica,sans-Serif" font-size="10.00">getUdiIndex()</text>
<polygon fill="#666666" stroke="#666666" points="193.5,-564 193.5,-564 367.5,-564 367.5,-564 193.5,-564"/>
<polygon fill="#666666" stroke="#666666" points="193.5,-489 193.5,-489 208.5,-489 208.5,-489 193.5,-489"/>
<polygon fill="#666666" stroke="#666666" points="208.5,-489 208.5,-489 367.5,-489 367.5,-489 208.5,-489"/>
<polygon fill="none" stroke="#666666" points="193.5,-307 193.5,-581 367.5,-581 367.5,-307 193.5,-307"/>
</a>
</g>
</g>
<!-- Node7&#45;&gt;Node1 -->
<g id="edge3_Node000001_Node000007" class="edge">
<title>Node7&#45;&gt;Node1</title>
<g id="a_edge3_Node000001_Node000007"><a xlink:title=" ">
<path fill="none" stroke="#63b8ff" d="M232.38,-293.06C229.63,-284.47 226.87,-275.87 224.13,-267.35"/>
<polygon fill="none" stroke="#63b8ff" points="229.1,-294.29 235.49,-302.74 235.77,-292.15 229.1,-294.29"/>
</a>
</g>
</g>
<!-- Node8 -->
<g id="Node000008" class="node">
<title>Node8</title>
<g id="a_Node000008"><a xlink:href="structRtcmTrace.html" target="_top" xlink:title=" ">
<path fill="white" stroke="#666666" d="M337,-1083C337,-1083 224,-1083 224,-1083 218,-1083 212,-1077 212,-1071 212,-1071 212,-798 212,-798 212,-792 218,-786 224,-786 224,-786 337,-786 337,-786 343,-786 349,-792 349,-798 349,-798 349,-1071 349,-1071 349,-1077 343,-1083 337,-1083"/>
<text text-anchor="start" x="255" y="-1066.5" font-family="Helvetica,sans-Serif" font-size="10.00">RtcmTrace</text>
<text text-anchor="start" x="224.5" y="-1051.5" font-family="Helvetica,sans-Serif" font-size="10.00">+</text>
<text text-anchor="start" x="237.5" y="-1051.5" font-family="Helvetica,sans-Serif" font-size="10.00">rtcmTraceFilename</text>
<text text-anchor="start" x="224.5" y="-1036.5" font-family="Helvetica,sans-Serif" font-size="10.00">+</text>
<text text-anchor="start" x="237.5" y="-1036.5" font-family="Helvetica,sans-Serif" font-size="10.00">rtcmMountpoint</text>
<text text-anchor="start" x="224.5" y="-1021.5" font-family="Helvetica,sans-Serif" font-size="10.00">+</text>
<text text-anchor="start" x="237.5" y="-1021.5" font-family="Helvetica,sans-Serif" font-size="10.00">qzssL6</text>
<text text-anchor="start" x="224.5" y="-1006.5" font-family="Helvetica,sans-Serif" font-size="10.00">+</text>
<text text-anchor="start" x="237.5" y="-1006.5" font-family="Helvetica,sans-Serif" font-size="10.00">RtcmTrace()</text>
<text text-anchor="start" x="224.5" y="-991.5" font-family="Helvetica,sans-Serif" font-size="10.00">+</text>
<text text-anchor="start" x="237.5" y="-991.5" font-family="Helvetica,sans-Serif" font-size="10.00">networkLog()</text>
<text text-anchor="start" x="224.5" y="-976.5" font-family="Helvetica,sans-Serif" font-size="10.00">+</text>
<text text-anchor="start" x="237.5" y="-976.5" font-family="Helvetica,sans-Serif" font-size="10.00">messageChunkLog()</text>
<text text-anchor="start" x="224.5" y="-961.5" font-family="Helvetica,sans-Serif" font-size="10.00">+</text>
<text text-anchor="start" x="237.5" y="-961.5" font-family="Helvetica,sans-Serif" font-size="10.00">messageRtcmLog()</text>
<text text-anchor="start" x="224.5" y="-946.5" font-family="Helvetica,sans-Serif" font-size="10.00">+</text>
<text text-anchor="start" x="237.5" y="-946.5" font-family="Helvetica,sans-Serif" font-size="10.00">traceSsrEph()</text>
<text text-anchor="start" x="224.5" y="-931.5" font-family="Helvetica,sans-Serif" font-size="10.00">+</text>
<text text-anchor="start" x="237.5" y="-931.5" font-family="Helvetica,sans-Serif" font-size="10.00">traceSsrClk()</text>
<text text-anchor="start" x="224.5" y="-916.5" font-family="Helvetica,sans-Serif" font-size="10.00">+</text>
<text text-anchor="start" x="237.5" y="-916.5" font-family="Helvetica,sans-Serif" font-size="10.00">traceSsrUra()</text>
<text text-anchor="start" x="224.5" y="-901.5" font-family="Helvetica,sans-Serif" font-size="10.00">+</text>
<text text-anchor="start" x="237.5" y="-901.5" font-family="Helvetica,sans-Serif" font-size="10.00">traceSsrHRClk()</text>
<text text-anchor="start" x="224.5" y="-886.5" font-family="Helvetica,sans-Serif" font-size="10.00">+</text>
<text text-anchor="start" x="237.5" y="-886.5" font-family="Helvetica,sans-Serif" font-size="10.00">traceSsrCodeBias()</text>
<text text-anchor="start" x="224.5" y="-871.5" font-family="Helvetica,sans-Serif" font-size="10.00">+</text>
<text text-anchor="start" x="237.5" y="-871.5" font-family="Helvetica,sans-Serif" font-size="10.00">traceSsrPhasBias()</text>
<text text-anchor="start" x="224.5" y="-856.5" font-family="Helvetica,sans-Serif" font-size="10.00">+</text>
<text text-anchor="start" x="237.5" y="-856.5" font-family="Helvetica,sans-Serif" font-size="10.00">traceTimestamp()</text>
<text text-anchor="start" x="224.5" y="-841.5" font-family="Helvetica,sans-Serif" font-size="10.00">+</text>
<text text-anchor="start" x="237.5" y="-841.5" font-family="Helvetica,sans-Serif" font-size="10.00">traceBrdcEph()</text>
<text text-anchor="start" x="224.5" y="-826.5" font-family="Helvetica,sans-Serif" font-size="10.00">+</text>
<text text-anchor="start" x="237.5" y="-826.5" font-family="Helvetica,sans-Serif" font-size="10.00">traceBrdcEph()</text>
<text text-anchor="start" x="224.5" y="-811.5" font-family="Helvetica,sans-Serif" font-size="10.00">+</text>
<text text-anchor="start" x="237.5" y="-811.5" font-family="Helvetica,sans-Serif" font-size="10.00">traceMSM()</text>
<text text-anchor="start" x="224.5" y="-796.5" font-family="Helvetica,sans-Serif" font-size="10.00">+</text>
<text text-anchor="start" x="237.5" y="-796.5" font-family="Helvetica,sans-Serif" font-size="10.00">traceUnknown()</text>
<polygon fill="#666666" stroke="#666666" points="220.5,-1061.5 220.5,-1061.5 341.5,-1061.5 341.5,-1061.5 220.5,-1061.5"/>
<polygon fill="#666666" stroke="#666666" points="220.5,-1016.5 220.5,-1016.5 235.5,-1016.5 235.5,-1016.5 220.5,-1016.5"/>
<polygon fill="#666666" stroke="#666666" points="235.5,-1016.5 235.5,-1016.5 341.5,-1016.5 341.5,-1016.5 235.5,-1016.5"/>
<polygon fill="none" stroke="#666666" points="220,-790 220,-1079 341,-1079 341,-790 220,-790"/>
</a>
</g>
</g>
<!-- Node8&#45;&gt;Node7 -->
<g id="edge4_Node000007_Node000008" class="edge">
<title>Node8&#45;&gt;Node7</title>
<g id="a_edge4_Node000007_Node000008"><a xlink:title=" ">
<path fill="none" stroke="#63b8ff" d="M280.5,-775.77C280.5,-714.38 280.5,-644.62 280.5,-585.05"/>
<polygon fill="none" stroke="#63b8ff" points="277,-775.94 280.5,-785.94 284,-775.94 277,-775.94"/>
</a>
</g>
</g>
</g>
</svg>
