<?xml version="1.0" encoding="UTF-8" standalone="no"?>
<!DOCTYPE svg PUBLIC "-//W3C//DTD SVG 1.1//EN"
 "http://www.w3.org/Graphics/SVG/1.1/DTD/svg11.dtd">
<!-- Generated by graphviz version 2.43.0 (0)
 -->
<!-- Title: InteractiveTerminal::setMode Pages: 1 -->
<svg width="694pt" height="345pt"
 viewBox="0.00 0.00 694.00 344.72" xmlns="http://www.w3.org/2000/svg" xmlns:xlink="http://www.w3.org/1999/xlink">
<g id="graph0" class="graph" transform="scale(1 1) rotate(0) translate(4 340.72)">
<title>InteractiveTerminal::setMode</title>
<!-- Node1 -->
<g id="Node000001" class="node">
<title>Node1</title>
<g id="a_Node000001"><a xlink:href="structInteractiveTerminal.html#a1673a1bc7c18472e291aa3b1ed1bb1b7" target="_top" xlink:title=" ">
<path fill="#fff0f0" stroke="red" stroke-width="2" d="M676,-179.72C676,-179.72 585,-179.72 585,-179.72 580,-179.72 575,-174.72 575,-169.72 575,-169.72 575,-159.72 575,-159.72 575,-154.72 580,-149.72 585,-149.72 585,-149.72 676,-149.72 676,-149.72 681,-149.72 686,-154.72 686,-159.72 686,-159.72 686,-169.72 686,-169.72 686,-174.72 681,-179.72 676,-179.72"/>
<text text-anchor="start" x="583" y="-167.72" font-family="Helvetica,sans-Serif" font-size="10.00">InteractiveTerminal</text>
<text text-anchor="middle" x="630.5" y="-156.72" font-family="Helvetica,sans-Serif" font-size="10.00">::setMode</text>
</a>
</g>
</g>
<!-- Node2 -->
<g id="Node000002" class="node">
<title>Node2</title>
<g id="a_Node000002"><a xlink:href="structInteractiveTerminal.html#a04b62545a1fb330ae6c383da4c8d7c09" target="_top" xlink:title=" ">
<path fill="#fff0f0" stroke="red" d="M346.5,-336.72C346.5,-336.72 255.5,-336.72 255.5,-336.72 250.5,-336.72 245.5,-331.72 245.5,-326.72 245.5,-326.72 245.5,-316.72 245.5,-316.72 245.5,-311.72 250.5,-306.72 255.5,-306.72 255.5,-306.72 346.5,-306.72 346.5,-306.72 351.5,-306.72 356.5,-311.72 356.5,-316.72 356.5,-316.72 356.5,-326.72 356.5,-326.72 356.5,-331.72 351.5,-336.72 346.5,-336.72"/>
<text text-anchor="start" x="253.5" y="-324.72" font-family="Helvetica,sans-Serif" font-size="10.00">InteractiveTerminal</text>
<text text-anchor="middle" x="301" y="-313.72" font-family="Helvetica,sans-Serif" font-size="10.00">::clearModes</text>
</a>
</g>
</g>
<!-- Node1&#45;&gt;Node2 -->
<g id="edge1_Node000001_Node000002" class="edge">
<title>Node1&#45;&gt;Node2</title>
<g id="a_edge1_Node000001_Node000002"><a xlink:title=" ">
<path fill="none" stroke="#63b8ff" d="M619.55,-189.47C606.1,-219.41 579.09,-268.76 539,-292.72 483.49,-325.88 407.62,-329.4 356.83,-327.08"/>
<polygon fill="#63b8ff" stroke="#63b8ff" points="622.83,-190.69 623.59,-180.13 616.41,-187.92 622.83,-190.69"/>
</a>
</g>
</g>
<!-- Node3 -->
<g id="Node000003" class="node">
<title>Node3</title>
<g id="a_Node000003"><a xlink:href="main_8cpp.html#a3c04138a5bfe5d72780bb7e82a18e627" target="_top" xlink:title=" ">
<path fill="#fff0f0" stroke="red" d="M34.67,-269.22C34.67,-269.22 6.33,-269.22 6.33,-269.22 3.17,-269.22 0,-266.05 0,-262.88 0,-262.88 0,-256.55 0,-256.55 0,-253.38 3.17,-250.22 6.33,-250.22 6.33,-250.22 34.67,-250.22 34.67,-250.22 37.83,-250.22 41,-253.38 41,-256.55 41,-256.55 41,-262.88 41,-262.88 41,-266.05 37.83,-269.22 34.67,-269.22"/>
<text text-anchor="middle" x="20.5" y="-257.22" font-family="Helvetica,sans-Serif" font-size="10.00">main</text>
</a>
</g>
</g>
<!-- Node1&#45;&gt;Node3 -->
<g id="edge3_Node000001_Node000003" class="edge">
<title>Node1&#45;&gt;Node3</title>
<g id="a_edge3_Node000001_Node000003"><a xlink:title=" ">
<path fill="none" stroke="#63b8ff" d="M608.28,-186.93C591.23,-203.22 565.79,-224.25 539,-234.72 357.2,-305.76 111.77,-274.33 41.21,-263.1"/>
<polygon fill="#63b8ff" stroke="#63b8ff" points="610.82,-189.35 615.49,-179.84 605.91,-184.35 610.82,-189.35"/>
</a>
</g>
</g>
<!-- Node4 -->
<g id="Node000004" class="node">
<title>Node4</title>
<g id="a_Node000004"><a xlink:href="main_8cpp.html#a479f892b35943104163405de9a93be14" target="_top" xlink:title=" ">
<path fill="#fff0f0" stroke="red" d="M181.67,-142.22C181.67,-142.22 83.33,-142.22 83.33,-142.22 80.17,-142.22 77,-139.05 77,-135.88 77,-135.88 77,-129.55 77,-129.55 77,-126.38 80.17,-123.22 83.33,-123.22 83.33,-123.22 181.67,-123.22 181.67,-123.22 184.83,-123.22 188,-126.38 188,-129.55 188,-129.55 188,-135.88 188,-135.88 188,-139.05 184.83,-142.22 181.67,-142.22"/>
<text text-anchor="middle" x="132.5" y="-130.22" font-family="Helvetica,sans-Serif" font-size="10.00">mainOncePerEpoch</text>
</a>
</g>
</g>
<!-- Node1&#45;&gt;Node4 -->
<g id="edge4_Node000001_Node000004" class="edge">
<title>Node1&#45;&gt;Node4</title>
<g id="a_edge4_Node000001_Node000004"><a xlink:title=" ">
<path fill="none" stroke="#63b8ff" d="M591.12,-184.24C575.35,-191.47 556.67,-199.03 539,-203.72 403.45,-239.65 353.78,-274.84 224,-221.72 184.03,-205.36 152.21,-161.88 139.5,-142.4"/>
<polygon fill="#63b8ff" stroke="#63b8ff" points="592.97,-187.24 600.53,-179.81 589.99,-180.9 592.97,-187.24"/>
</a>
</g>
</g>
<!-- Node5 -->
<g id="Node000005" class="node">
<title>Node5</title>
<g id="a_Node000005"><a xlink:href="main_8cpp.html#a2b0d1066eac1a878cf982adcdd550ce1" target="_top" xlink:title="Perform any post&#45;final epoch calculations and outputs, then begin reverse smoothing and tidy up.">
<path fill="#fff0f0" stroke="red" d="M352.17,-212.22C352.17,-212.22 249.83,-212.22 249.83,-212.22 246.67,-212.22 243.5,-209.05 243.5,-205.88 243.5,-205.88 243.5,-199.55 243.5,-199.55 243.5,-196.38 246.67,-193.22 249.83,-193.22 249.83,-193.22 352.17,-193.22 352.17,-193.22 355.33,-193.22 358.5,-196.38 358.5,-199.55 358.5,-199.55 358.5,-205.88 358.5,-205.88 358.5,-209.05 355.33,-212.22 352.17,-212.22"/>
<text text-anchor="middle" x="301" y="-200.22" font-family="Helvetica,sans-Serif" font-size="10.00">mainPostProcessing</text>
</a>
</g>
</g>
<!-- Node1&#45;&gt;Node5 -->
<g id="edge6_Node000001_Node000005" class="edge">
<title>Node1&#45;&gt;Node5</title>
<g id="a_edge6_Node000001_Node000005"><a xlink:title=" ">
<path fill="none" stroke="#63b8ff" d="M564.66,-179.37C556.06,-181 547.34,-182.51 539,-183.72 477.72,-192.57 406.88,-197.57 358.73,-200.2"/>
<polygon fill="#63b8ff" stroke="#63b8ff" points="565.53,-182.76 574.66,-177.39 564.17,-175.89 565.53,-182.76"/>
</a>
</g>
</g>
<!-- Node6 -->
<g id="Node000006" class="node">
<title>Node6</title>
<g id="a_Node000006"><a xlink:href="outputs_8cpp.html#a47923d108129a8e2dc5d741ac5202f3a" target="_top" xlink:title=" ">
<path fill="#fff0f0" stroke="red" d="M532.67,-174.22C532.67,-174.22 420.33,-174.22 420.33,-174.22 417.17,-174.22 414,-171.05 414,-167.88 414,-167.88 414,-161.55 414,-161.55 414,-158.38 417.17,-155.22 420.33,-155.22 420.33,-155.22 532.67,-155.22 532.67,-155.22 535.83,-155.22 539,-158.38 539,-161.55 539,-161.55 539,-167.88 539,-167.88 539,-171.05 535.83,-174.22 532.67,-174.22"/>
<text text-anchor="middle" x="476.5" y="-162.22" font-family="Helvetica,sans-Serif" font-size="10.00">outputPredictedStates</text>
</a>
</g>
</g>
<!-- Node1&#45;&gt;Node6 -->
<g id="edge8_Node000001_Node000006" class="edge">
<title>Node1&#45;&gt;Node6</title>
<g id="a_edge8_Node000001_Node000006"><a xlink:title=" ">
<path fill="none" stroke="#63b8ff" d="M564.52,-164.72C556.14,-164.72 547.58,-164.72 539.26,-164.72"/>
<polygon fill="#63b8ff" stroke="#63b8ff" points="564.62,-168.22 574.62,-164.72 564.62,-161.22 564.62,-168.22"/>
</a>
</g>
</g>
<!-- Node7 -->
<g id="Node000007" class="node">
<title>Node7</title>
<g id="a_Node000007"><a xlink:href="outputs_8cpp.html#abf277b1afcff7cb07fa2857b4a373100" target="_top" xlink:title=" ">
<path fill="#fff0f0" stroke="red" d="M368,-147.72C368,-147.72 234,-147.72 234,-147.72 229,-147.72 224,-142.72 224,-137.72 224,-137.72 224,-127.72 224,-127.72 224,-122.72 229,-117.72 234,-117.72 234,-117.72 368,-117.72 368,-117.72 373,-117.72 378,-122.72 378,-127.72 378,-127.72 378,-137.72 378,-137.72 378,-142.72 373,-147.72 368,-147.72"/>
<text text-anchor="start" x="232" y="-135.72" font-family="Helvetica,sans-Serif" font-size="10.00">perEpochPostProcessingAnd</text>
<text text-anchor="middle" x="301" y="-124.72" font-family="Helvetica,sans-Serif" font-size="10.00">Outputs</text>
</a>
</g>
</g>
<!-- Node1&#45;&gt;Node7 -->
<g id="edge13_Node000001_Node000007" class="edge">
<title>Node1&#45;&gt;Node7</title>
<g id="a_edge13_Node000001_Node000007"><a xlink:title=" ">
<path fill="none" stroke="#63b8ff" d="M564.66,-150.71C556.06,-149.18 547.34,-147.79 539,-146.72 485.44,-139.84 424.64,-136.34 378.03,-134.55"/>
<polygon fill="#63b8ff" stroke="#63b8ff" points="564.19,-154.18 574.66,-152.56 565.46,-147.3 564.19,-154.18"/>
</a>
</g>
</g>
<!-- Node8 -->
<g id="Node000008" class="node">
<title>Node8</title>
<g id="a_Node000008"><a xlink:href="rtsSmoothing_8cpp.html#af82d06646904f0d6b4ede3c573dead48" target="_top" xlink:title="Output filter states in chronological order from a reversed binary trace file.">
<path fill="#fff0f0" stroke="red" d="M157.17,-64.22C157.17,-64.22 107.83,-64.22 107.83,-64.22 104.67,-64.22 101.5,-61.05 101.5,-57.88 101.5,-57.88 101.5,-51.55 101.5,-51.55 101.5,-48.38 104.67,-45.22 107.83,-45.22 107.83,-45.22 157.17,-45.22 157.17,-45.22 160.33,-45.22 163.5,-48.38 163.5,-51.55 163.5,-51.55 163.5,-57.88 163.5,-57.88 163.5,-61.05 160.33,-64.22 157.17,-64.22"/>
<text text-anchor="middle" x="132.5" y="-52.22" font-family="Helvetica,sans-Serif" font-size="10.00">rtsOutput</text>
</a>
</g>
</g>
<!-- Node1&#45;&gt;Node8 -->
<g id="edge18_Node000001_Node000008" class="edge">
<title>Node1&#45;&gt;Node8</title>
<g id="a_edge18_Node000001_Node000008"><a xlink:title=" ">
<path fill="none" stroke="#63b8ff" d="M620.98,-140.27C608.53,-108.78 582.03,-55.39 539,-32.72 409.88,35.31 224.45,-21.06 158.19,-45.13"/>
<polygon fill="#63b8ff" stroke="#63b8ff" points="617.73,-141.55 624.54,-149.66 624.27,-139.07 617.73,-141.55"/>
</a>
</g>
</g>
<!-- Node9 -->
<g id="Node000009" class="node">
<title>Node9</title>
<g id="a_Node000009"><a xlink:href="ppppp_8cpp.html#a9997f03cab80cd8db895650860eb025e" target="_top" xlink:title=" ">
<path fill="#fff0f0" stroke="red" d="M487.67,-98.22C487.67,-98.22 465.33,-98.22 465.33,-98.22 462.17,-98.22 459,-95.05 459,-91.88 459,-91.88 459,-85.55 459,-85.55 459,-82.38 462.17,-79.22 465.33,-79.22 465.33,-79.22 487.67,-79.22 487.67,-79.22 490.83,-79.22 494,-82.38 494,-85.55 494,-85.55 494,-91.88 494,-91.88 494,-95.05 490.83,-98.22 487.67,-98.22"/>
<text text-anchor="middle" x="476.5" y="-86.22" font-family="Helvetica,sans-Serif" font-size="10.00">ppp</text>
</a>
</g>
</g>
<!-- Node1&#45;&gt;Node9 -->
<g id="edge14_Node000001_Node000009" class="edge">
<title>Node1&#45;&gt;Node9</title>
<g id="a_edge14_Node000001_Node000009"><a xlink:title=" ">
<path fill="none" stroke="#63b8ff" d="M596.54,-144.19C579.66,-134.09 558.58,-122.1 539,-112.72 524.22,-105.64 506.76,-98.98 494.23,-94.48"/>
<polygon fill="#63b8ff" stroke="#63b8ff" points="595.08,-147.4 605.45,-149.58 598.7,-141.41 595.08,-147.4"/>
</a>
</g>
</g>
<!-- Node10 -->
<g id="Node000010" class="node">
<title>Node10</title>
<g id="a_Node000010"><a xlink:href="orbitProp_8cpp.html#ac501cabce75c25f72ab22eee5231dac6" target="_top" xlink:title="Use models to predict orbital motion and prepare state transition equations to implement those predic...">
<path fill="#fff0f0" stroke="red" d="M510.17,-61.22C510.17,-61.22 442.83,-61.22 442.83,-61.22 439.67,-61.22 436.5,-58.05 436.5,-54.88 436.5,-54.88 436.5,-48.55 436.5,-48.55 436.5,-45.38 439.67,-42.22 442.83,-42.22 442.83,-42.22 510.17,-42.22 510.17,-42.22 513.33,-42.22 516.5,-45.38 516.5,-48.55 516.5,-48.55 516.5,-54.88 516.5,-54.88 516.5,-58.05 513.33,-61.22 510.17,-61.22"/>
<text text-anchor="middle" x="476.5" y="-49.22" font-family="Helvetica,sans-Serif" font-size="10.00">predictOrbits</text>
</a>
</g>
</g>
<!-- Node1&#45;&gt;Node10 -->
<g id="edge16_Node000001_Node000010" class="edge">
<title>Node1&#45;&gt;Node10</title>
<g id="a_edge16_Node000001_Node000010"><a xlink:title=" ">
<path fill="none" stroke="#63b8ff" d="M612.5,-141.2C595.96,-119.93 569.01,-89.2 539,-70.72 532.15,-66.5 524.29,-63.15 516.52,-60.52"/>
<polygon fill="#63b8ff" stroke="#63b8ff" points="609.88,-143.55 618.72,-149.39 615.46,-139.31 609.88,-143.55"/>
</a>
</g>
</g>
<!-- Node2&#45;&gt;Node3 -->
<g id="edge2_Node000002_Node000003" class="edge">
<title>Node2&#45;&gt;Node3</title>
<g id="a_edge2_Node000002_Node000003"><a xlink:title=" ">
<path fill="none" stroke="#63b8ff" d="M235.42,-320.22C190.02,-317.52 128.46,-310.51 77,-292.72 61.32,-287.3 45.22,-277.11 34.43,-269.49"/>
<polygon fill="#63b8ff" stroke="#63b8ff" points="235.26,-323.72 245.43,-320.76 235.63,-316.73 235.26,-323.72"/>
</a>
</g>
</g>
<!-- Node4&#45;&gt;Node3 -->
<g id="edge5_Node000004_Node000003" class="edge">
<title>Node4&#45;&gt;Node3</title>
<g id="a_edge5_Node000004_Node000003"><a xlink:title=" ">
<path fill="none" stroke="#63b8ff" d="M116.4,-150.15C92.9,-177.28 48.35,-228.72 29.86,-250.06"/>
<polygon fill="#63b8ff" stroke="#63b8ff" points="119.33,-152.11 123.23,-142.26 114.04,-147.53 119.33,-152.11"/>
</a>
</g>
</g>
<!-- Node5&#45;&gt;Node3 -->
<g id="edge7_Node000005_Node000003" class="edge">
<title>Node5&#45;&gt;Node3</title>
<g id="a_edge7_Node000005_Node000003"><a xlink:title=" ">
<path fill="none" stroke="#63b8ff" d="M243.23,-214.34C180.37,-227.2 82.45,-247.24 41.04,-255.72"/>
<polygon fill="#63b8ff" stroke="#63b8ff" points="244.29,-217.69 253.39,-212.26 242.89,-210.83 244.29,-217.69"/>
</a>
</g>
</g>
<!-- Node6&#45;&gt;Node5 -->
<g id="edge9_Node000006_Node000005" class="edge">
<title>Node6&#45;&gt;Node5</title>
<g id="a_edge9_Node000006_Node000005"><a xlink:title=" ">
<path fill="none" stroke="#63b8ff" d="M421.84,-176.47C397.31,-181.84 368.62,-188.13 345.47,-193.2"/>
<polygon fill="#63b8ff" stroke="#63b8ff" points="422.7,-179.87 431.72,-174.31 421.2,-173.03 422.7,-179.87"/>
</a>
</g>
</g>
<!-- Node6&#45;&gt;Node7 -->
<g id="edge10_Node000006_Node000007" class="edge">
<title>Node6&#45;&gt;Node7</title>
<g id="a_edge10_Node000006_Node000007"><a xlink:title=" ">
<path fill="none" stroke="#63b8ff" d="M413.92,-153.36C402.33,-151.22 390.09,-148.96 378.12,-146.76"/>
<polygon fill="#63b8ff" stroke="#63b8ff" points="413.45,-156.83 423.91,-155.2 414.71,-149.95 413.45,-156.83"/>
</a>
</g>
</g>
<!-- Node7&#45;&gt;Node4 -->
<g id="edge11_Node000007_Node000004" class="edge">
<title>Node7&#45;&gt;Node4</title>
<g id="a_edge11_Node000007_Node000004"><a xlink:title=" ">
<path fill="none" stroke="#63b8ff" d="M213.45,-132.72C204.83,-132.72 196.25,-132.72 188.1,-132.72"/>
<polygon fill="#63b8ff" stroke="#63b8ff" points="213.57,-136.22 223.57,-132.72 213.57,-129.22 213.57,-136.22"/>
</a>
</g>
</g>
<!-- Node7&#45;&gt;Node8 -->
<g id="edge12_Node000007_Node000008" class="edge">
<title>Node7&#45;&gt;Node8</title>
<g id="a_edge12_Node000007_Node000008"><a xlink:title=" ">
<path fill="none" stroke="#63b8ff" d="M258.42,-113.24C225.13,-97.64 179.86,-76.44 153.96,-64.3"/>
<polygon fill="#63b8ff" stroke="#63b8ff" points="257.36,-116.61 267.9,-117.68 260.33,-110.27 257.36,-116.61"/>
</a>
</g>
</g>
<!-- Node9&#45;&gt;Node4 -->
<g id="edge15_Node000009_Node000004" class="edge">
<title>Node9&#45;&gt;Node4</title>
<g id="a_edge15_Node000009_Node000004"><a xlink:title=" ">
<path fill="none" stroke="#63b8ff" d="M448.82,-89.27C402.69,-90.56 305.14,-94.85 224,-108.72 203.81,-112.17 181.57,-118.04 164.19,-123.11"/>
<polygon fill="#63b8ff" stroke="#63b8ff" points="448.99,-92.76 458.89,-89.01 448.81,-85.77 448.99,-92.76"/>
</a>
</g>
</g>
<!-- Node10&#45;&gt;Node4 -->
<g id="edge17_Node000010_Node000004" class="edge">
<title>Node10&#45;&gt;Node4</title>
<g id="a_edge17_Node000010_Node000004"><a xlink:title=" ">
<path fill="none" stroke="#63b8ff" d="M426.13,-54.13C374.66,-57.72 292.16,-66.5 224,-87.72 196.19,-96.38 166.39,-112.73 148.88,-123.15"/>
<polygon fill="#63b8ff" stroke="#63b8ff" points="426.56,-57.61 436.31,-53.46 426.1,-50.63 426.56,-57.61"/>
</a>
</g>
</g>
</g>
</svg>
