<?xml version="1.0" encoding="UTF-8" standalone="no"?>
<!DOCTYPE svg PUBLIC "-//W3C//DTD SVG 1.1//EN"
 "http://www.w3.org/Graphics/SVG/1.1/DTD/svg11.dtd">
<!-- Generated by graphviz version 2.43.0 (0)
 -->
<!-- Title: FileLog Pages: 1 -->
<svg width="158pt" height="206pt"
 viewBox="0.00 0.00 158.00 206.00" xmlns="http://www.w3.org/2000/svg" xmlns:xlink="http://www.w3.org/1999/xlink">
<g id="graph0" class="graph" transform="scale(1 1) rotate(0) translate(4 202)">
<title>FileLog</title>
<!-- Node1 -->
<g id="Node000001" class="node">
<title>Node1</title>
<g id="a_Node000001"><a xlink:href="structFileLog.html" target="_top" xlink:title=" ">
<path fill="white" stroke="#666666" stroke-width="2" d="M107.5,-72C107.5,-72 42.5,-72 42.5,-72 36.5,-72 30.5,-66 30.5,-60 30.5,-60 30.5,-12 30.5,-12 30.5,-6 36.5,0 42.5,0 42.5,0 107.5,0 107.5,0 113.5,0 119.5,-6 119.5,-12 119.5,-12 119.5,-60 119.5,-60 119.5,-66 113.5,-72 107.5,-72"/>
<text text-anchor="start" x="58" y="-56" font-family="Helvetica,sans-Serif" font-size="10.00">FileLog</text>
<text text-anchor="start" x="43" y="-41" font-family="Helvetica,sans-Serif" font-size="10.00">+</text>
<text text-anchor="start" x="56" y="-41" font-family="Helvetica,sans-Serif" font-size="10.00">json</text>
<text text-anchor="start" x="43" y="-26" font-family="Helvetica,sans-Serif" font-size="10.00">+</text>
<text text-anchor="start" x="56" y="-26" font-family="Helvetica,sans-Serif" font-size="10.00">path_log</text>
<text text-anchor="start" x="43" y="-11" font-family="Helvetica,sans-Serif" font-size="10.00">+</text>
<text text-anchor="start" x="56" y="-11" font-family="Helvetica,sans-Serif" font-size="10.00">consume()</text>
<polygon fill="#666666" stroke="#666666" points="39,-51 39,-51 112,-51 112,-51 39,-51"/>
<polygon fill="#666666" stroke="#666666" points="39,-21 39,-21 54,-21 54,-21 39,-21"/>
<polygon fill="#666666" stroke="#666666" points="54,-21 54,-21 112,-21 112,-21 54,-21"/>
<polygon fill="none" stroke="#666666" points="38.5,-4 38.5,-68 111.5,-68 111.5,-4 38.5,-4"/>
</a>
</g>
</g>
<!-- Node2 -->
<g id="Node000002" class="node">
<title>Node2</title>
<g id="a_Node000002"><a xlink:title=" ">
<path fill="white" stroke="#666666" d="M138,-198C138,-198 12,-198 12,-198 6,-198 0,-192 0,-186 0,-186 0,-120 0,-120 0,-114 6,-108 12,-108 12,-108 138,-108 138,-108 144,-108 150,-114 150,-120 150,-120 150,-186 150,-186 150,-192 144,-198 138,-198"/>
<text text-anchor="start" x="13" y="-182" font-family="Helvetica,sans-Serif" font-size="10.00">boost::log::sinks::</text>
<text text-anchor="start" x="13" y="-171" font-family="Helvetica,sans-Serif" font-size="10.00">basic_formatted_sink</text>
<text text-anchor="start" x="13" y="-160" font-family="Helvetica,sans-Serif" font-size="10.00">_backend&lt; char, sinks</text>
<text text-anchor="start" x="13" y="-149" font-family="Helvetica,sans-Serif" font-size="10.00">::synchronized_feeding &gt;</text>
<text text-anchor="start" x="73" y="-134" font-family="Helvetica,sans-Serif" font-size="10.00"> </text>
<text text-anchor="start" x="73" y="-119" font-family="Helvetica,sans-Serif" font-size="10.00"> </text>
<polygon fill="#666666" stroke="#666666" points="8,-144 8,-144 142,-144 142,-144 8,-144"/>
<polygon fill="#666666" stroke="#666666" points="8,-129 8,-129 142,-129 142,-129 8,-129"/>
<polygon fill="none" stroke="#666666" points="8,-112 8,-194 142,-194 142,-112 8,-112"/>
</a>
</g>
</g>
<!-- Node2&#45;&gt;Node1 -->
<g id="edge1_Node000001_Node000002" class="edge">
<title>Node2&#45;&gt;Node1</title>
<g id="a_edge1_Node000001_Node000002"><a xlink:title=" ">
<path fill="none" stroke="#63b8ff" d="M75,-97.79C75,-89.12 75,-80.35 75,-72.28"/>
<polygon fill="none" stroke="#63b8ff" points="71.5,-97.87 75,-107.87 78.5,-97.87 71.5,-97.87"/>
</a>
</g>
</g>
</g>
</svg>
