<?xml version="1.0" encoding="UTF-8" standalone="no"?>
<!DOCTYPE svg PUBLIC "-//W3C//DTD SVG 1.1//EN"
 "http://www.w3.org/Graphics/SVG/1.1/DTD/svg11.dtd">
<!-- Generated by graphviz version 2.43.0 (0)
 -->
<!-- Title: FilterOptions Pages: 1 -->
<svg width="612pt" height="415pt"
 viewBox="0.00 0.00 611.50 415.00" xmlns="http://www.w3.org/2000/svg" xmlns:xlink="http://www.w3.org/1999/xlink">
<g id="graph0" class="graph" transform="scale(1 1) rotate(0) translate(4 411)">
<title>FilterOptions</title>
<!-- Node1 -->
<g id="Node000001" class="node">
<title>Node1</title>
<g id="a_Node000001"><a xlink:href="structFilterOptions.html" target="_top" xlink:title=" ">
<path fill="white" stroke="#666666" stroke-width="2" d="M361.5,-117C361.5,-117 250.5,-117 250.5,-117 244.5,-117 238.5,-111 238.5,-105 238.5,-105 238.5,-12 238.5,-12 238.5,-6 244.5,0 250.5,0 250.5,0 361.5,0 361.5,0 367.5,0 373.5,-6 373.5,-12 373.5,-12 373.5,-105 373.5,-105 373.5,-111 367.5,-117 361.5,-117"/>
<text text-anchor="start" x="275" y="-100.5" font-family="Helvetica,sans-Serif" font-size="10.00">FilterOptions</text>
<text text-anchor="start" x="251" y="-85.5" font-family="Helvetica,sans-Serif" font-size="10.00">+</text>
<text text-anchor="start" x="264" y="-85.5" font-family="Helvetica,sans-Serif" font-size="10.00">simulate_filter_only</text>
<text text-anchor="start" x="251" y="-70.5" font-family="Helvetica,sans-Serif" font-size="10.00">+</text>
<text text-anchor="start" x="264" y="-70.5" font-family="Helvetica,sans-Serif" font-size="10.00">assume_linearity</text>
<text text-anchor="start" x="251" y="-55.5" font-family="Helvetica,sans-Serif" font-size="10.00">+</text>
<text text-anchor="start" x="264" y="-55.5" font-family="Helvetica,sans-Serif" font-size="10.00">advanced_postfits</text>
<text text-anchor="start" x="251" y="-40.5" font-family="Helvetica,sans-Serif" font-size="10.00">+</text>
<text text-anchor="start" x="264" y="-40.5" font-family="Helvetica,sans-Serif" font-size="10.00">joseph_stabilisation</text>
<text text-anchor="start" x="251" y="-25.5" font-family="Helvetica,sans-Serif" font-size="10.00">+</text>
<text text-anchor="start" x="264" y="-25.5" font-family="Helvetica,sans-Serif" font-size="10.00">inverter</text>
<text text-anchor="start" x="304.5" y="-10.5" font-family="Helvetica,sans-Serif" font-size="10.00"> </text>
<polygon fill="#666666" stroke="#666666" points="247,-95.5 247,-95.5 366,-95.5 366,-95.5 247,-95.5"/>
<polygon fill="#666666" stroke="#666666" points="247,-20.5 247,-20.5 262,-20.5 262,-20.5 247,-20.5"/>
<polygon fill="#666666" stroke="#666666" points="262,-20.5 262,-20.5 366,-20.5 366,-20.5 262,-20.5"/>
<polygon fill="none" stroke="#666666" points="246.5,-4 246.5,-113 365.5,-113 365.5,-4 246.5,-4"/>
</a>
</g>
</g>
<!-- Node2 -->
<g id="Node000002" class="node">
<title>Node2</title>
<g id="a_Node000002"><a xlink:href="structRtsOptions.html" target="_top" xlink:title=" ">
<path fill="white" stroke="#666666" d="M116,-273.5C116,-273.5 12,-273.5 12,-273.5 6,-273.5 0,-267.5 0,-261.5 0,-261.5 0,-183.5 0,-183.5 0,-177.5 6,-171.5 12,-171.5 12,-171.5 116,-171.5 116,-171.5 122,-171.5 128,-177.5 128,-183.5 128,-183.5 128,-261.5 128,-261.5 128,-267.5 122,-273.5 116,-273.5"/>
<text text-anchor="start" x="37" y="-257.5" font-family="Helvetica,sans-Serif" font-size="10.00">RtsOptions</text>
<text text-anchor="start" x="12" y="-242.5" font-family="Helvetica,sans-Serif" font-size="10.00">+</text>
<text text-anchor="start" x="25" y="-242.5" font-family="Helvetica,sans-Serif" font-size="10.00">rts_lag</text>
<text text-anchor="start" x="12" y="-227.5" font-family="Helvetica,sans-Serif" font-size="10.00">+</text>
<text text-anchor="start" x="25" y="-227.5" font-family="Helvetica,sans-Serif" font-size="10.00">rts_interval</text>
<text text-anchor="start" x="12" y="-212.5" font-family="Helvetica,sans-Serif" font-size="10.00">+</text>
<text text-anchor="start" x="25" y="-212.5" font-family="Helvetica,sans-Serif" font-size="10.00">queue_rts_outputs</text>
<text text-anchor="start" x="12" y="-197.5" font-family="Helvetica,sans-Serif" font-size="10.00">+</text>
<text text-anchor="start" x="25" y="-197.5" font-family="Helvetica,sans-Serif" font-size="10.00">rts_inverter</text>
<text text-anchor="start" x="62" y="-182.5" font-family="Helvetica,sans-Serif" font-size="10.00"> </text>
<polygon fill="#666666" stroke="#666666" points="8,-252.5 8,-252.5 120,-252.5 120,-252.5 8,-252.5"/>
<polygon fill="#666666" stroke="#666666" points="8,-192.5 8,-192.5 23,-192.5 23,-192.5 8,-192.5"/>
<polygon fill="#666666" stroke="#666666" points="23,-192.5 23,-192.5 120,-192.5 120,-192.5 23,-192.5"/>
<polygon fill="none" stroke="#666666" points="8,-175.5 8,-269.5 120,-269.5 120,-175.5 8,-175.5"/>
</a>
</g>
</g>
<!-- Node2&#45;&gt;Node1 -->
<g id="edge1_Node000001_Node000002" class="edge">
<title>Node2&#45;&gt;Node1</title>
<g id="a_edge1_Node000001_Node000002"><a xlink:title=" ">
<path fill="none" stroke="#63b8ff" d="M134.74,-165.59C135.49,-165.06 136.25,-164.53 137,-164 169.5,-141.26 206.91,-117.86 238.25,-98.99"/>
<polygon fill="none" stroke="#63b8ff" points="132.63,-162.79 126.57,-171.48 136.73,-168.47 132.63,-162.79"/>
</a>
</g>
</g>
<!-- Node3 -->
<g id="Node000003" class="node">
<title>Node3</title>
<g id="a_Node000003"><a xlink:title=" ">
<path fill="white" stroke="#666666" d="M79,-407C79,-407 49,-407 49,-407 43,-407 37,-401 37,-395 37,-395 37,-362 37,-362 37,-356 43,-350 49,-350 49,-350 79,-350 79,-350 85,-350 91,-356 91,-362 91,-362 91,-395 91,-395 91,-401 85,-407 79,-407"/>
<text text-anchor="start" x="50" y="-390.5" font-family="Helvetica,sans-Serif" font-size="10.00">string</text>
<text text-anchor="start" x="62" y="-375.5" font-family="Helvetica,sans-Serif" font-size="10.00"> </text>
<text text-anchor="start" x="62" y="-360.5" font-family="Helvetica,sans-Serif" font-size="10.00"> </text>
<polygon fill="#666666" stroke="#666666" points="45,-385.5 45,-385.5 83,-385.5 83,-385.5 45,-385.5"/>
<polygon fill="#666666" stroke="#666666" points="45,-370.5 45,-370.5 83,-370.5 83,-370.5 45,-370.5"/>
<polygon fill="none" stroke="#666666" points="45,-354 45,-403 83,-403 83,-354 45,-354"/>
</a>
</g>
</g>
<!-- Node3&#45;&gt;Node2 -->
<g id="edge2_Node000002_Node000003" class="edge">
<title>Node3&#45;&gt;Node2</title>
<g id="a_edge2_Node000002_Node000003"><a xlink:title=" ">
<path fill="none" stroke="#63b8ff" d="M64,-349.97C64,-332.08 64,-308.02 64,-285.69"/>
<polygon fill="none" stroke="#63b8ff" points="64,-285.51 60,-279.51 64,-273.51 68,-279.51 64,-285.51"/>
</a>
</g>
<text text-anchor="middle" x="118" y="-324" font-family="Helvetica,sans-Serif" font-size="10.00" fill="grey"> +rts_directory</text>
<text text-anchor="middle" x="118" y="-313" font-family="Helvetica,sans-Serif" font-size="10.00" fill="grey">+rts_filename</text>
<text text-anchor="middle" x="118" y="-302" font-family="Helvetica,sans-Serif" font-size="10.00" fill="grey">+rts_smoothed_suffix</text>
</g>
<!-- Node4 -->
<g id="Node000004" class="node">
<title>Node4</title>
<g id="a_Node000004"><a xlink:href="structPrefitOptions.html" target="_top" xlink:title=" ">
<path fill="white" stroke="#666666" d="M285.5,-281C285.5,-281 158.5,-281 158.5,-281 152.5,-281 146.5,-275 146.5,-269 146.5,-269 146.5,-176 146.5,-176 146.5,-170 152.5,-164 158.5,-164 158.5,-164 285.5,-164 285.5,-164 291.5,-164 297.5,-170 297.5,-176 297.5,-176 297.5,-269 297.5,-269 297.5,-275 291.5,-281 285.5,-281"/>
<text text-anchor="start" x="190.5" y="-264.5" font-family="Helvetica,sans-Serif" font-size="10.00">PrefitOptions</text>
<text text-anchor="start" x="159" y="-249.5" font-family="Helvetica,sans-Serif" font-size="10.00">+</text>
<text text-anchor="start" x="172" y="-249.5" font-family="Helvetica,sans-Serif" font-size="10.00">max_iterations</text>
<text text-anchor="start" x="159" y="-234.5" font-family="Helvetica,sans-Serif" font-size="10.00">+</text>
<text text-anchor="start" x="172" y="-234.5" font-family="Helvetica,sans-Serif" font-size="10.00">sigma_check</text>
<text text-anchor="start" x="159" y="-219.5" font-family="Helvetica,sans-Serif" font-size="10.00">+</text>
<text text-anchor="start" x="172" y="-219.5" font-family="Helvetica,sans-Serif" font-size="10.00">state_sigma_threshold</text>
<text text-anchor="start" x="159" y="-204.5" font-family="Helvetica,sans-Serif" font-size="10.00">+</text>
<text text-anchor="start" x="172" y="-204.5" font-family="Helvetica,sans-Serif" font-size="10.00">meas_sigma_threshold</text>
<text text-anchor="start" x="159" y="-189.5" font-family="Helvetica,sans-Serif" font-size="10.00">+</text>
<text text-anchor="start" x="172" y="-189.5" font-family="Helvetica,sans-Serif" font-size="10.00">omega_test</text>
<text text-anchor="start" x="220.5" y="-174.5" font-family="Helvetica,sans-Serif" font-size="10.00"> </text>
<polygon fill="#666666" stroke="#666666" points="155,-259.5 155,-259.5 290,-259.5 290,-259.5 155,-259.5"/>
<polygon fill="#666666" stroke="#666666" points="155,-184.5 155,-184.5 170,-184.5 170,-184.5 155,-184.5"/>
<polygon fill="#666666" stroke="#666666" points="170,-184.5 170,-184.5 290,-184.5 290,-184.5 170,-184.5"/>
<polygon fill="none" stroke="#666666" points="154.5,-168 154.5,-277 289.5,-277 289.5,-168 154.5,-168"/>
</a>
</g>
</g>
<!-- Node4&#45;&gt;Node1 -->
<g id="edge3_Node000001_Node000004" class="edge">
<title>Node4&#45;&gt;Node1</title>
<g id="a_edge3_Node000001_Node000004"><a xlink:title=" ">
<path fill="none" stroke="#63b8ff" d="M251.85,-163.93C257.88,-152.3 264.28,-139.97 270.48,-128.01"/>
<polygon fill="none" stroke="#63b8ff" points="270.58,-127.81 269.79,-120.64 276.1,-117.16 276.89,-124.33 270.58,-127.81"/>
</a>
</g>
<text text-anchor="middle" x="297" y="-138" font-family="Helvetica,sans-Serif" font-size="10.00" fill="grey"> +prefitOpts</text>
</g>
<!-- Node5 -->
<g id="Node000005" class="node">
<title>Node5</title>
<g id="a_Node000005"><a xlink:href="structPostfitOptions.html" target="_top" xlink:title=" ">
<path fill="white" stroke="#666666" d="M454.5,-273.5C454.5,-273.5 327.5,-273.5 327.5,-273.5 321.5,-273.5 315.5,-267.5 315.5,-261.5 315.5,-261.5 315.5,-183.5 315.5,-183.5 315.5,-177.5 321.5,-171.5 327.5,-171.5 327.5,-171.5 454.5,-171.5 454.5,-171.5 460.5,-171.5 466.5,-177.5 466.5,-183.5 466.5,-183.5 466.5,-261.5 466.5,-261.5 466.5,-267.5 460.5,-273.5 454.5,-273.5"/>
<text text-anchor="start" x="357" y="-257.5" font-family="Helvetica,sans-Serif" font-size="10.00">PostfitOptions</text>
<text text-anchor="start" x="328" y="-242.5" font-family="Helvetica,sans-Serif" font-size="10.00">+</text>
<text text-anchor="start" x="341" y="-242.5" font-family="Helvetica,sans-Serif" font-size="10.00">max_iterations</text>
<text text-anchor="start" x="328" y="-227.5" font-family="Helvetica,sans-Serif" font-size="10.00">+</text>
<text text-anchor="start" x="341" y="-227.5" font-family="Helvetica,sans-Serif" font-size="10.00">sigma_check</text>
<text text-anchor="start" x="328" y="-212.5" font-family="Helvetica,sans-Serif" font-size="10.00">+</text>
<text text-anchor="start" x="341" y="-212.5" font-family="Helvetica,sans-Serif" font-size="10.00">state_sigma_threshold</text>
<text text-anchor="start" x="328" y="-197.5" font-family="Helvetica,sans-Serif" font-size="10.00">+</text>
<text text-anchor="start" x="341" y="-197.5" font-family="Helvetica,sans-Serif" font-size="10.00">meas_sigma_threshold</text>
<text text-anchor="start" x="389.5" y="-182.5" font-family="Helvetica,sans-Serif" font-size="10.00"> </text>
<polygon fill="#666666" stroke="#666666" points="324,-252.5 324,-252.5 459,-252.5 459,-252.5 324,-252.5"/>
<polygon fill="#666666" stroke="#666666" points="324,-192.5 324,-192.5 339,-192.5 339,-192.5 324,-192.5"/>
<polygon fill="#666666" stroke="#666666" points="339,-192.5 339,-192.5 459,-192.5 459,-192.5 339,-192.5"/>
<polygon fill="none" stroke="#666666" points="323.5,-175.5 323.5,-269.5 458.5,-269.5 458.5,-175.5 323.5,-175.5"/>
</a>
</g>
</g>
<!-- Node5&#45;&gt;Node1 -->
<g id="edge4_Node000001_Node000005" class="edge">
<title>Node5&#45;&gt;Node1</title>
<g id="a_edge4_Node000001_Node000005"><a xlink:title=" ">
<path fill="none" stroke="#63b8ff" d="M364.57,-171.13C357.43,-157.51 349.57,-142.54 342,-128.1"/>
<polygon fill="none" stroke="#63b8ff" points="341.85,-127.83 335.52,-124.37 336.27,-117.2 342.6,-120.65 341.85,-127.83"/>
</a>
</g>
<text text-anchor="middle" x="383.5" y="-138" font-family="Helvetica,sans-Serif" font-size="10.00" fill="grey"> +postfitOpts</text>
</g>
<!-- Node6 -->
<g id="Node000006" class="node">
<title>Node6</title>
<g id="a_Node000006"><a xlink:href="structChiSquareOptions.html" target="_top" xlink:title=" ">
<path fill="white" stroke="#666666" d="M591.5,-266C591.5,-266 496.5,-266 496.5,-266 490.5,-266 484.5,-260 484.5,-254 484.5,-254 484.5,-191 484.5,-191 484.5,-185 490.5,-179 496.5,-179 496.5,-179 591.5,-179 591.5,-179 597.5,-179 603.5,-185 603.5,-191 603.5,-191 603.5,-254 603.5,-254 603.5,-260 597.5,-266 591.5,-266"/>
<text text-anchor="start" x="500.5" y="-249.5" font-family="Helvetica,sans-Serif" font-size="10.00">ChiSquareOptions</text>
<text text-anchor="start" x="497" y="-234.5" font-family="Helvetica,sans-Serif" font-size="10.00">+</text>
<text text-anchor="start" x="510" y="-234.5" font-family="Helvetica,sans-Serif" font-size="10.00">enable</text>
<text text-anchor="start" x="497" y="-219.5" font-family="Helvetica,sans-Serif" font-size="10.00">+</text>
<text text-anchor="start" x="510" y="-219.5" font-family="Helvetica,sans-Serif" font-size="10.00">mode</text>
<text text-anchor="start" x="497" y="-204.5" font-family="Helvetica,sans-Serif" font-size="10.00">+</text>
<text text-anchor="start" x="510" y="-204.5" font-family="Helvetica,sans-Serif" font-size="10.00">sigma_threshold</text>
<text text-anchor="start" x="542.5" y="-189.5" font-family="Helvetica,sans-Serif" font-size="10.00"> </text>
<polygon fill="#666666" stroke="#666666" points="493,-244.5 493,-244.5 596,-244.5 596,-244.5 493,-244.5"/>
<polygon fill="#666666" stroke="#666666" points="493,-199.5 493,-199.5 508,-199.5 508,-199.5 493,-199.5"/>
<polygon fill="#666666" stroke="#666666" points="508,-199.5 508,-199.5 596,-199.5 596,-199.5 508,-199.5"/>
<polygon fill="none" stroke="#666666" points="492.5,-183 492.5,-262 595.5,-262 595.5,-183 492.5,-183"/>
</a>
</g>
</g>
<!-- Node6&#45;&gt;Node1 -->
<g id="edge5_Node000001_Node000006" class="edge">
<title>Node6&#45;&gt;Node1</title>
<g id="a_edge5_Node000001_Node000006"><a xlink:title=" ">
<path fill="none" stroke="#63b8ff" d="M495.31,-178.83C488.93,-173.69 482.39,-168.62 476,-164 447.01,-143.01 413.73,-121.95 384.34,-104.28"/>
<polygon fill="none" stroke="#63b8ff" points="384.01,-104.08 376.81,-104.44 373.71,-97.93 380.91,-97.58 384.01,-104.08"/>
</a>
</g>
<text text-anchor="middle" x="488.5" y="-138" font-family="Helvetica,sans-Serif" font-size="10.00" fill="grey"> +chiSquareTest</text>
</g>
</g>
</svg>
