<?xml version="1.0" encoding="UTF-8" standalone="no"?>
<!DOCTYPE svg PUBLIC "-//W3C//DTD SVG 1.1//EN"
 "http://www.w3.org/Graphics/SVG/1.1/DTD/svg11.dtd">
<!-- Generated by graphviz version 2.43.0 (0)
 -->
<!-- Title: SpaceWeatherData Pages: 1 -->
<svg width="128pt" height="335pt"
 viewBox="0.00 0.00 128.00 335.00" xmlns="http://www.w3.org/2000/svg" xmlns:xlink="http://www.w3.org/1999/xlink">
<g id="graph0" class="graph" transform="scale(1 1) rotate(0) translate(4 331)">
<title>SpaceWeatherData</title>
<!-- Node1 -->
<g id="Node000001" class="node">
<title>Node1</title>
<g id="a_Node000001"><a xlink:href="structSpaceWeatherData.html" target="_top" xlink:title="Space Weather data struct.">
<path fill="white" stroke="#666666" stroke-width="2" d="M108,-327C108,-327 12,-327 12,-327 6,-327 0,-321 0,-315 0,-315 0,-12 0,-12 0,-6 6,0 12,0 12,0 108,0 108,0 114,0 120,-6 120,-12 120,-12 120,-315 120,-315 120,-321 114,-327 108,-327"/>
<text text-anchor="start" x="13" y="-310.5" font-family="Helvetica,sans-Serif" font-size="10.00">SpaceWeatherData</text>
<text text-anchor="start" x="20" y="-295.5" font-family="Helvetica,sans-Serif" font-size="10.00">+</text>
<text text-anchor="start" x="41" y="-295.5" font-family="Helvetica,sans-Serif" font-size="10.00">year</text>
<text text-anchor="start" x="20" y="-280.5" font-family="Helvetica,sans-Serif" font-size="10.00">+</text>
<text text-anchor="start" x="41" y="-280.5" font-family="Helvetica,sans-Serif" font-size="10.00">month</text>
<text text-anchor="start" x="20" y="-265.5" font-family="Helvetica,sans-Serif" font-size="10.00">+</text>
<text text-anchor="start" x="41" y="-265.5" font-family="Helvetica,sans-Serif" font-size="10.00">day</text>
<text text-anchor="start" x="20" y="-250.5" font-family="Helvetica,sans-Serif" font-size="10.00">+</text>
<text text-anchor="start" x="41" y="-250.5" font-family="Helvetica,sans-Serif" font-size="10.00">bsrn</text>
<text text-anchor="start" x="20" y="-235.5" font-family="Helvetica,sans-Serif" font-size="10.00">+</text>
<text text-anchor="start" x="41" y="-235.5" font-family="Helvetica,sans-Serif" font-size="10.00">nd</text>
<text text-anchor="start" x="20" y="-220.5" font-family="Helvetica,sans-Serif" font-size="10.00">+</text>
<text text-anchor="start" x="41" y="-220.5" font-family="Helvetica,sans-Serif" font-size="10.00">kp</text>
<text text-anchor="start" x="20" y="-205.5" font-family="Helvetica,sans-Serif" font-size="10.00">+</text>
<text text-anchor="start" x="41" y="-205.5" font-family="Helvetica,sans-Serif" font-size="10.00">sum</text>
<text text-anchor="start" x="20" y="-190.5" font-family="Helvetica,sans-Serif" font-size="10.00">+</text>
<text text-anchor="start" x="41" y="-190.5" font-family="Helvetica,sans-Serif" font-size="10.00">ap</text>
<text text-anchor="start" x="20" y="-175.5" font-family="Helvetica,sans-Serif" font-size="10.00">+</text>
<text text-anchor="start" x="41" y="-175.5" font-family="Helvetica,sans-Serif" font-size="10.00">avg</text>
<text text-anchor="start" x="20" y="-160.5" font-family="Helvetica,sans-Serif" font-size="10.00">+</text>
<text text-anchor="start" x="41" y="-160.5" font-family="Helvetica,sans-Serif" font-size="10.00">cp</text>
<text text-anchor="start" x="20" y="-145.5" font-family="Helvetica,sans-Serif" font-size="10.00">+</text>
<text text-anchor="start" x="41" y="-145.5" font-family="Helvetica,sans-Serif" font-size="10.00">c9</text>
<text text-anchor="start" x="20" y="-130.5" font-family="Helvetica,sans-Serif" font-size="10.00">+</text>
<text text-anchor="start" x="41" y="-130.5" font-family="Helvetica,sans-Serif" font-size="10.00">isn</text>
<text text-anchor="start" x="20" y="-115.5" font-family="Helvetica,sans-Serif" font-size="10.00">+</text>
<text text-anchor="start" x="41" y="-115.5" font-family="Helvetica,sans-Serif" font-size="10.00">adj_f10_7</text>
<text text-anchor="start" x="20" y="-100.5" font-family="Helvetica,sans-Serif" font-size="10.00">+</text>
<text text-anchor="start" x="41" y="-100.5" font-family="Helvetica,sans-Serif" font-size="10.00">q</text>
<text text-anchor="start" x="20" y="-85.5" font-family="Helvetica,sans-Serif" font-size="10.00">+</text>
<text text-anchor="start" x="41" y="-85.5" font-family="Helvetica,sans-Serif" font-size="10.00">adj_ctr81</text>
<text text-anchor="start" x="20" y="-70.5" font-family="Helvetica,sans-Serif" font-size="10.00">+</text>
<text text-anchor="start" x="41" y="-70.5" font-family="Helvetica,sans-Serif" font-size="10.00">adj_lst81</text>
<text text-anchor="start" x="20" y="-55.5" font-family="Helvetica,sans-Serif" font-size="10.00">+</text>
<text text-anchor="start" x="41" y="-55.5" font-family="Helvetica,sans-Serif" font-size="10.00">obs_f10_7</text>
<text text-anchor="start" x="20" y="-40.5" font-family="Helvetica,sans-Serif" font-size="10.00">+</text>
<text text-anchor="start" x="41" y="-40.5" font-family="Helvetica,sans-Serif" font-size="10.00">obs_ctr81</text>
<text text-anchor="start" x="20" y="-25.5" font-family="Helvetica,sans-Serif" font-size="10.00">+</text>
<text text-anchor="start" x="41" y="-25.5" font-family="Helvetica,sans-Serif" font-size="10.00">obs_lst81</text>
<text text-anchor="start" x="58" y="-10.5" font-family="Helvetica,sans-Serif" font-size="10.00"> </text>
<polygon fill="#666666" stroke="#666666" points="8,-305.5 8,-305.5 112,-305.5 112,-305.5 8,-305.5"/>
<polygon fill="#666666" stroke="#666666" points="8,-20.5 8,-20.5 39,-20.5 39,-20.5 8,-20.5"/>
<polygon fill="#666666" stroke="#666666" points="39,-20.5 39,-20.5 112,-20.5 112,-20.5 39,-20.5"/>
<polygon fill="none" stroke="#666666" points="8,-4 8,-323 112,-323 112,-4 8,-4"/>
</a>
</g>
</g>
</g>
</svg>
