<?xml version="1.0" encoding="UTF-8" standalone="no"?>
<!DOCTYPE svg PUBLIC "-//W3C//DTD SVG 1.1//EN"
 "http://www.w3.org/Graphics/SVG/1.1/DTD/svg11.dtd">
<!-- Generated by graphviz version 2.43.0 (0)
 -->
<!-- Title: KFState::removeState Pages: 1 -->
<svg width="314pt" height="471pt"
 viewBox="0.00 0.00 314.00 471.00" xmlns="http://www.w3.org/2000/svg" xmlns:xlink="http://www.w3.org/1999/xlink">
<g id="graph0" class="graph" transform="scale(1 1) rotate(0) translate(4 467)">
<title>KFState::removeState</title>
<!-- Node1 -->
<g id="Node000001" class="node">
<title>Node1</title>
<g id="a_Node000001"><a xlink:href="structKFState.html#a043f0e3fd99610dfad8e650a1514c395" target="_top" xlink:title="Remove a state from a kalman filter object.">
<path fill="#fff0f0" stroke="red" stroke-width="2" d="M299.67,-241C299.67,-241 189.33,-241 189.33,-241 186.17,-241 183,-237.83 183,-234.67 183,-234.67 183,-228.33 183,-228.33 183,-225.17 186.17,-222 189.33,-222 189.33,-222 299.67,-222 299.67,-222 302.83,-222 306,-225.17 306,-228.33 306,-228.33 306,-234.67 306,-234.67 306,-237.83 302.83,-241 299.67,-241"/>
<text text-anchor="middle" x="244.5" y="-229" font-family="Helvetica,sans-Serif" font-size="10.00">KFState::removeState</text>
</a>
</g>
</g>
<!-- Node2 -->
<g id="Node000002" class="node">
<title>Node2</title>
<g id="a_Node000002"><a xlink:href="debug_8cpp.html#ae4e8d5c9ae89428a527a780093a3d872" target="_top" xlink:title=" ">
<path fill="#fff0f0" stroke="red" d="M88.17,-463C88.17,-463 58.83,-463 58.83,-463 55.67,-463 52.5,-459.83 52.5,-456.67 52.5,-456.67 52.5,-450.33 52.5,-450.33 52.5,-447.17 55.67,-444 58.83,-444 58.83,-444 88.17,-444 88.17,-444 91.33,-444 94.5,-447.17 94.5,-450.33 94.5,-450.33 94.5,-456.67 94.5,-456.67 94.5,-459.83 91.33,-463 88.17,-463"/>
<text text-anchor="middle" x="73.5" y="-451" font-family="Helvetica,sans-Serif" font-size="10.00">accel</text>
</a>
</g>
</g>
<!-- Node1&#45;&gt;Node2 -->
<g id="edge1_Node000001_Node000002" class="edge">
<title>Node1&#45;&gt;Node2</title>
<g id="a_edge1_Node000001_Node000002"><a xlink:title=" ">
<path fill="none" stroke="#63b8ff" d="M239.99,-251.26C231.66,-292.21 206.7,-386.61 147,-435.5 132.25,-447.58 110.53,-451.72 94.72,-453.06"/>
<polygon fill="#63b8ff" stroke="#63b8ff" points="243.43,-251.9 241.88,-241.42 236.56,-250.58 243.43,-251.9"/>
</a>
</g>
</g>
<!-- Node3 -->
<g id="Node000003" class="node">
<title>Node3</title>
<g id="a_Node000003"><a xlink:href="structKFState.html#a8b46cc073d1447f0cfe189070b0f4846" target="_top" xlink:title="Create a pseudo state that represents the linear combination of two or more perfectly correlated stat...">
<path fill="#fff0f0" stroke="red" d="M136.67,-426C136.67,-426 10.33,-426 10.33,-426 7.17,-426 4,-422.83 4,-419.67 4,-419.67 4,-413.33 4,-413.33 4,-410.17 7.17,-407 10.33,-407 10.33,-407 136.67,-407 136.67,-407 139.83,-407 143,-410.17 143,-413.33 143,-413.33 143,-419.67 143,-419.67 143,-422.83 139.83,-426 136.67,-426"/>
<text text-anchor="middle" x="73.5" y="-414" font-family="Helvetica,sans-Serif" font-size="10.00">KFState::addPseudoState</text>
</a>
</g>
</g>
<!-- Node1&#45;&gt;Node3 -->
<g id="edge2_Node000001_Node000003" class="edge">
<title>Node1&#45;&gt;Node3</title>
<g id="a_edge2_Node000001_Node000003"><a xlink:title=" ">
<path fill="none" stroke="#63b8ff" d="M237.77,-251.23C226.49,-286.48 197.94,-360.17 147,-398.5 142.44,-401.93 137.31,-404.71 131.93,-406.97"/>
<polygon fill="#63b8ff" stroke="#63b8ff" points="241.25,-251.81 240.84,-241.23 234.56,-249.76 241.25,-251.81"/>
</a>
</g>
</g>
<!-- Node8 -->
<g id="Node000008" class="node">
<title>Node8</title>
<g id="a_Node000008"><a xlink:href="ionoModel_8cpp.html#ae7821a74f98f349d4508712aeced88e1" target="_top" xlink:title="Updating the ionosphere model parameters The ionosphere model should be initialized by calling &#39;confi...">
<path fill="#fff0f0" stroke="red" d="M113.67,-389C113.67,-389 33.33,-389 33.33,-389 30.17,-389 27,-385.83 27,-382.67 27,-382.67 27,-376.33 27,-376.33 27,-373.17 30.17,-370 33.33,-370 33.33,-370 113.67,-370 113.67,-370 116.83,-370 120,-373.17 120,-376.33 120,-376.33 120,-382.67 120,-382.67 120,-385.83 116.83,-389 113.67,-389"/>
<text text-anchor="middle" x="73.5" y="-377" font-family="Helvetica,sans-Serif" font-size="10.00">filterIonosphere</text>
</a>
</g>
</g>
<!-- Node1&#45;&gt;Node8 -->
<g id="edge3_Node000001_Node000008" class="edge">
<title>Node1&#45;&gt;Node8</title>
<g id="a_edge3_Node000001_Node000008"><a xlink:title=" ">
<path fill="none" stroke="#63b8ff" d="M234.78,-250.42C220.58,-279.05 189.71,-333.04 147,-361.5 139.01,-366.82 129.59,-370.57 120.22,-373.21"/>
<polygon fill="#63b8ff" stroke="#63b8ff" points="238.07,-251.65 239.25,-241.12 231.76,-248.62 238.07,-251.65"/>
</a>
</g>
</g>
<!-- Node11 -->
<g id="Node000011" class="node">
<title>Node11</title>
<g id="a_Node000011"><a xlink:href="structKFState.html#a1ad6c6d147c0a3d7cc8a6c4f1eca3de2" target="_top" xlink:title="Clears and initialises the state transition matrix to identity at the beginning of an epoch.">
<path fill="#fff0f0" stroke="red" d="M132.17,-352C132.17,-352 14.83,-352 14.83,-352 11.67,-352 8.5,-348.83 8.5,-345.67 8.5,-345.67 8.5,-339.33 8.5,-339.33 8.5,-336.17 11.67,-333 14.83,-333 14.83,-333 132.17,-333 132.17,-333 135.33,-333 138.5,-336.17 138.5,-339.33 138.5,-339.33 138.5,-345.67 138.5,-345.67 138.5,-348.83 135.33,-352 132.17,-352"/>
<text text-anchor="middle" x="73.5" y="-340" font-family="Helvetica,sans-Serif" font-size="10.00">KFState::initFilterEpoch</text>
</a>
</g>
</g>
<!-- Node1&#45;&gt;Node11 -->
<g id="edge4_Node000001_Node000011" class="edge">
<title>Node1&#45;&gt;Node11</title>
<g id="a_edge4_Node000001_Node000011"><a xlink:title=" ">
<path fill="none" stroke="#63b8ff" d="M230.05,-249.22C213.04,-270.37 181.74,-305.29 147,-324.5 140.87,-327.89 134.1,-330.65 127.24,-332.9"/>
<polygon fill="#63b8ff" stroke="#63b8ff" points="233.02,-251.11 236.44,-241.08 227.51,-246.79 233.02,-251.11"/>
</a>
</g>
</g>
<!-- Node7 -->
<g id="Node000007" class="node">
<title>Node7</title>
<g id="a_Node000007"><a xlink:href="main_8cpp.html#a3c04138a5bfe5d72780bb7e82a18e627" target="_top" xlink:title=" ">
<path fill="#fff0f0" stroke="red" d="M87.67,-315C87.67,-315 59.33,-315 59.33,-315 56.17,-315 53,-311.83 53,-308.67 53,-308.67 53,-302.33 53,-302.33 53,-299.17 56.17,-296 59.33,-296 59.33,-296 87.67,-296 87.67,-296 90.83,-296 94,-299.17 94,-302.33 94,-302.33 94,-308.67 94,-308.67 94,-311.83 90.83,-315 87.67,-315"/>
<text text-anchor="middle" x="73.5" y="-303" font-family="Helvetica,sans-Serif" font-size="10.00">main</text>
</a>
</g>
</g>
<!-- Node1&#45;&gt;Node7 -->
<g id="edge5_Node000001_Node000007" class="edge">
<title>Node1&#45;&gt;Node7</title>
<g id="a_edge5_Node000001_Node000007"><a xlink:title=" ">
<path fill="none" stroke="#63b8ff" d="M221.24,-246.86C202.26,-259.36 173.85,-276.63 147,-287.5 129.69,-294.51 108.91,-299.33 94.05,-302.2"/>
<polygon fill="#63b8ff" stroke="#63b8ff" points="223.39,-249.63 229.76,-241.16 219.5,-243.82 223.39,-249.63"/>
</a>
</g>
</g>
<!-- Node34 -->
<g id="Node000034" class="node">
<title>Node34</title>
<g id="a_Node000034"><a xlink:href="ppppp_8cpp.html#ab356026e58d33b55b94febc58011ea6f" target="_top" xlink:title=" ">
<path fill="#fff0f0" stroke="red" d="M102.17,-278C102.17,-278 44.83,-278 44.83,-278 41.67,-278 38.5,-274.83 38.5,-271.67 38.5,-271.67 38.5,-265.33 38.5,-265.33 38.5,-262.17 41.67,-259 44.83,-259 44.83,-259 102.17,-259 102.17,-259 105.33,-259 108.5,-262.17 108.5,-265.33 108.5,-265.33 108.5,-271.67 108.5,-271.67 108.5,-274.83 105.33,-278 102.17,-278"/>
<text text-anchor="middle" x="73.5" y="-266" font-family="Helvetica,sans-Serif" font-size="10.00">makeIFLCs</text>
</a>
</g>
</g>
<!-- Node1&#45;&gt;Node34 -->
<g id="edge6_Node000001_Node000034" class="edge">
<title>Node1&#45;&gt;Node34</title>
<g id="a_edge6_Node000001_Node000034"><a xlink:title=" ">
<path fill="none" stroke="#63b8ff" d="M190.02,-243.21C163.35,-249.05 131.89,-255.93 108.55,-261.05"/>
<polygon fill="#63b8ff" stroke="#63b8ff" points="190.96,-246.59 199.98,-241.03 189.46,-239.75 190.96,-246.59"/>
</a>
</g>
</g>
<!-- Node32 -->
<g id="Node000032" class="node">
<title>Node32</title>
<g id="a_Node000032"><a xlink:href="outputs_8cpp.html#a47923d108129a8e2dc5d741ac5202f3a" target="_top" xlink:title=" ">
<path fill="#fff0f0" stroke="red" d="M129.67,-241C129.67,-241 17.33,-241 17.33,-241 14.17,-241 11,-237.83 11,-234.67 11,-234.67 11,-228.33 11,-228.33 11,-225.17 14.17,-222 17.33,-222 17.33,-222 129.67,-222 129.67,-222 132.83,-222 136,-225.17 136,-228.33 136,-228.33 136,-234.67 136,-234.67 136,-237.83 132.83,-241 129.67,-241"/>
<text text-anchor="middle" x="73.5" y="-229" font-family="Helvetica,sans-Serif" font-size="10.00">outputPredictedStates</text>
</a>
</g>
</g>
<!-- Node1&#45;&gt;Node32 -->
<g id="edge7_Node000001_Node000032" class="edge">
<title>Node1&#45;&gt;Node32</title>
<g id="a_edge7_Node000001_Node000032"><a xlink:title=" ">
<path fill="none" stroke="#63b8ff" d="M172.82,-231.5C160.6,-231.5 147.99,-231.5 136.03,-231.5"/>
<polygon fill="#63b8ff" stroke="#63b8ff" points="172.96,-235 182.96,-231.5 172.96,-228 172.96,-235"/>
</a>
</g>
</g>
<!-- Node35 -->
<g id="Node000035" class="node">
<title>Node35</title>
<g id="a_Node000035"><a xlink:href="ppp_8cpp.html#a075655f5235940732703f2e6ca41421a" target="_top" xlink:title="Remove ambiguity states from filter when they deemed old or bad This effectively reinitialises them o...">
<path fill="#fff0f0" stroke="red" d="M132.67,-204C132.67,-204 14.33,-204 14.33,-204 11.17,-204 8,-200.83 8,-197.67 8,-197.67 8,-191.33 8,-191.33 8,-188.17 11.17,-185 14.33,-185 14.33,-185 132.67,-185 132.67,-185 135.83,-185 139,-188.17 139,-191.33 139,-191.33 139,-197.67 139,-197.67 139,-200.83 135.83,-204 132.67,-204"/>
<text text-anchor="middle" x="73.5" y="-192" font-family="Helvetica,sans-Serif" font-size="10.00">removeBadAmbiguities</text>
</a>
</g>
</g>
<!-- Node1&#45;&gt;Node35 -->
<g id="edge8_Node000001_Node000035" class="edge">
<title>Node1&#45;&gt;Node35</title>
<g id="a_edge8_Node000001_Node000035"><a xlink:title=" ">
<path fill="none" stroke="#63b8ff" d="M189.97,-219.78C166.82,-214.71 140.08,-208.86 118.17,-204.06"/>
<polygon fill="#63b8ff" stroke="#63b8ff" points="189.46,-223.25 199.98,-221.97 190.96,-216.41 189.46,-223.25"/>
</a>
</g>
</g>
<!-- Node37 -->
<g id="Node000037" class="node">
<title>Node37</title>
<g id="a_Node000037"><a xlink:href="ppp_8cpp.html#a3d11452be1ce2ea58117c7fd3ac9f981" target="_top" xlink:title="Remove ambiguity states from filter when they deemed old or bad This effectively reinitialises them o...">
<path fill="#fff0f0" stroke="red" d="M133.17,-167C133.17,-167 13.83,-167 13.83,-167 10.67,-167 7.5,-163.83 7.5,-160.67 7.5,-160.67 7.5,-154.33 7.5,-154.33 7.5,-151.17 10.67,-148 13.83,-148 13.83,-148 133.17,-148 133.17,-148 136.33,-148 139.5,-151.17 139.5,-154.33 139.5,-154.33 139.5,-160.67 139.5,-160.67 139.5,-163.83 136.33,-167 133.17,-167"/>
<text text-anchor="middle" x="73.5" y="-155" font-family="Helvetica,sans-Serif" font-size="10.00">removeBadIonospheres</text>
</a>
</g>
</g>
<!-- Node1&#45;&gt;Node37 -->
<g id="edge9_Node000001_Node000037" class="edge">
<title>Node1&#45;&gt;Node37</title>
<g id="a_edge9_Node000001_Node000037"><a xlink:title=" ">
<path fill="none" stroke="#63b8ff" d="M220.84,-216.31C201.81,-204.13 173.55,-187.32 147,-176.5 137.96,-172.82 128,-169.66 118.43,-167.04"/>
<polygon fill="#63b8ff" stroke="#63b8ff" points="219.1,-219.36 229.39,-221.88 222.91,-213.49 219.1,-219.36"/>
</a>
</g>
</g>
<!-- Node38 -->
<g id="Node000038" class="node">
<title>Node38</title>
<g id="a_Node000038"><a xlink:href="ppp_8cpp.html#af95304cdb8d8be30c4c5004efd3016ca" target="_top" xlink:title=" ">
<path fill="#fff0f0" stroke="red" d="M127.67,-130C127.67,-130 19.33,-130 19.33,-130 16.17,-130 13,-126.83 13,-123.67 13,-123.67 13,-117.33 13,-117.33 13,-114.17 16.17,-111 19.33,-111 19.33,-111 127.67,-111 127.67,-111 130.83,-111 134,-114.17 134,-117.33 134,-117.33 134,-123.67 134,-123.67 134,-126.83 130.83,-130 127.67,-130"/>
<text text-anchor="middle" x="73.5" y="-118" font-family="Helvetica,sans-Serif" font-size="10.00">removeBadReceivers</text>
</a>
</g>
</g>
<!-- Node1&#45;&gt;Node38 -->
<g id="edge10_Node000001_Node000038" class="edge">
<title>Node1&#45;&gt;Node38</title>
<g id="a_edge10_Node000001_Node000038"><a xlink:title=" ">
<path fill="none" stroke="#63b8ff" d="M229.7,-213.73C212.55,-192.85 181.31,-158.64 147,-139.5 140.07,-135.63 132.32,-132.53 124.55,-130.05"/>
<polygon fill="#63b8ff" stroke="#63b8ff" points="227.17,-216.17 236.16,-221.78 232.63,-211.78 227.17,-216.17"/>
</a>
</g>
</g>
<!-- Node39 -->
<g id="Node000039" class="node">
<title>Node39</title>
<g id="a_Node000039"><a xlink:href="spp_8cpp.html#a11e0f5d1100b933e76538398082c31d8" target="_top" xlink:title=" ">
<path fill="#fff0f0" stroke="red" d="M140.67,-93C140.67,-93 6.33,-93 6.33,-93 3.17,-93 0,-89.83 0,-86.67 0,-86.67 0,-80.33 0,-80.33 0,-77.17 3.17,-74 6.33,-74 6.33,-74 140.67,-74 140.67,-74 143.83,-74 147,-77.17 147,-80.33 147,-80.33 147,-86.67 147,-86.67 147,-89.83 143.83,-93 140.67,-93"/>
<text text-anchor="middle" x="73.5" y="-81" font-family="Helvetica,sans-Serif" font-size="10.00">removeUnmeasuredStates</text>
</a>
</g>
</g>
<!-- Node1&#45;&gt;Node39 -->
<g id="edge11_Node000001_Node000039" class="edge">
<title>Node1&#45;&gt;Node39</title>
<g id="a_edge11_Node000001_Node000039"><a xlink:title=" ">
<path fill="none" stroke="#63b8ff" d="M234.69,-212.79C220.38,-184.47 189.36,-131.01 147,-102.5 141.28,-98.65 134.82,-95.58 128.17,-93.13"/>
<polygon fill="#63b8ff" stroke="#63b8ff" points="231.66,-214.55 239.2,-221.99 237.95,-211.47 231.66,-214.55"/>
</a>
</g>
</g>
<!-- Node45 -->
<g id="Node000045" class="node">
<title>Node45</title>
<g id="a_Node000045"><a xlink:href="ppppp_8cpp.html#af26bfb58095a385cfef6b9777566213d" target="_top" xlink:title=" ">
<path fill="#fff0f0" stroke="red" d="M117.17,-56C117.17,-56 29.83,-56 29.83,-56 26.67,-56 23.5,-52.83 23.5,-49.67 23.5,-49.67 23.5,-43.33 23.5,-43.33 23.5,-40.17 26.67,-37 29.83,-37 29.83,-37 117.17,-37 117.17,-37 120.33,-37 123.5,-40.17 123.5,-43.33 123.5,-43.33 123.5,-49.67 123.5,-49.67 123.5,-52.83 120.33,-56 117.17,-56"/>
<text text-anchor="middle" x="73.5" y="-44" font-family="Helvetica,sans-Serif" font-size="10.00">updateNukeFilter</text>
</a>
</g>
</g>
<!-- Node1&#45;&gt;Node45 -->
<g id="edge12_Node000001_Node000045" class="edge">
<title>Node1&#45;&gt;Node45</title>
<g id="a_edge12_Node000001_Node000045"><a xlink:title=" ">
<path fill="none" stroke="#63b8ff" d="M237.69,-211.95C226.27,-177.01 197.52,-103.92 147,-65.5 140.16,-60.3 132.04,-56.52 123.73,-53.77"/>
<polygon fill="#63b8ff" stroke="#63b8ff" points="234.46,-213.37 240.79,-221.86 241.14,-211.27 234.46,-213.37"/>
</a>
</g>
</g>
<!-- Node27 -->
<g id="Node000027" class="node">
<title>Node27</title>
<g id="a_Node000027"><a xlink:href="walkthrough_8cpp.html#aff7ddc151473d418c066b30f06e6b42e" target="_top" xlink:title=" ">
<path fill="#fff0f0" stroke="red" d="M108.67,-19C108.67,-19 38.33,-19 38.33,-19 35.17,-19 32,-15.83 32,-12.67 32,-12.67 32,-6.33 32,-6.33 32,-3.17 35.17,0 38.33,0 38.33,0 108.67,0 108.67,0 111.83,0 115,-3.17 115,-6.33 115,-6.33 115,-12.67 115,-12.67 115,-15.83 111.83,-19 108.67,-19"/>
<text text-anchor="middle" x="73.5" y="-7" font-family="Helvetica,sans-Serif" font-size="10.00">walkthrough2</text>
</a>
</g>
</g>
<!-- Node1&#45;&gt;Node27 -->
<g id="edge13_Node000001_Node000027" class="edge">
<title>Node1&#45;&gt;Node27</title>
<g id="a_edge13_Node000001_Node000027"><a xlink:title=" ">
<path fill="none" stroke="#63b8ff" d="M239.86,-211.64C231.31,-170.86 206.06,-77.41 147,-28.5 137.98,-21.03 126.34,-16.46 115.04,-13.68"/>
<polygon fill="#63b8ff" stroke="#63b8ff" points="236.47,-212.53 241.84,-221.66 243.33,-211.18 236.47,-212.53"/>
</a>
</g>
</g>
</g>
</svg>
