<?xml version="1.0" encoding="UTF-8" standalone="no"?>
<!DOCTYPE svg PUBLIC "-//W3C//DTD SVG 1.1//EN"
 "http://www.w3.org/Graphics/SVG/1.1/DTD/svg11.dtd">
<!-- Generated by graphviz version 2.43.0 (0)
 -->
<!-- Title: KFState::getKFValue Pages: 1 -->
<svg width="298pt" height="45pt"
 viewBox="0.00 0.00 298.00 45.00" xmlns="http://www.w3.org/2000/svg" xmlns:xlink="http://www.w3.org/1999/xlink">
<g id="graph0" class="graph" transform="scale(1 1) rotate(0) translate(4 41)">
<title>KFState::getKFValue</title>
<!-- Node1 -->
<g id="Node000001" class="node">
<title>Node1</title>
<g id="a_Node000001"><a xlink:href="structKFState.html#aeca6e3874ad0c94607152d244016582f" target="_top" xlink:title="Returns the value and variance of a state within the kalman filter object.">
<path fill="#fff0f0" stroke="red" stroke-width="2" d="M109.67,-19C109.67,-19 6.33,-19 6.33,-19 3.17,-19 0,-15.83 0,-12.67 0,-12.67 0,-6.33 0,-6.33 0,-3.17 3.17,0 6.33,0 6.33,0 109.67,0 109.67,0 112.83,0 116,-3.17 116,-6.33 116,-6.33 116,-12.67 116,-12.67 116,-15.83 112.83,-19 109.67,-19"/>
<text text-anchor="middle" x="58" y="-7" font-family="Helvetica,sans-Serif" font-size="10.00">KFState::getKFValue</text>
</a>
</g>
</g>
<!-- Node1&#45;&gt;Node1 -->
<g id="edge3_Node000001_Node000001" class="edge">
<title>Node1&#45;&gt;Node1</title>
<g id="a_edge3_Node000001_Node000001"><a xlink:title=" ">
<path fill="none" stroke="#63b8ff" d="M33.03,-19.08C20.88,-27.73 29.21,-37 58,-37 76.9,-37 86.98,-33.01 88.24,-27.82"/>
<polygon fill="#63b8ff" stroke="#63b8ff" points="91.13,-25.84 82.97,-19.08 85.14,-29.45 91.13,-25.84"/>
</a>
</g>
</g>
<!-- Node2 -->
<g id="Node000002" class="node">
<title>Node2</title>
<g id="a_Node000002"><a xlink:href="structKFState.html#ae70734a65d2e98dd739040e671757437" target="_top" xlink:title="Retrieve values from pseudo&#45;states.">
<path fill="#fff0f0" stroke="red" d="M283.67,-19C283.67,-19 158.33,-19 158.33,-19 155.17,-19 152,-15.83 152,-12.67 152,-12.67 152,-6.33 152,-6.33 152,-3.17 155.17,0 158.33,0 158.33,0 283.67,0 283.67,0 286.83,0 290,-3.17 290,-6.33 290,-6.33 290,-12.67 290,-12.67 290,-15.83 286.83,-19 283.67,-19"/>
<text text-anchor="middle" x="221" y="-7" font-family="Helvetica,sans-Serif" font-size="10.00">KFState::getPseudoValue</text>
</a>
</g>
</g>
<!-- Node1&#45;&gt;Node2 -->
<g id="edge1_Node000001_Node000002" class="edge">
<title>Node1&#45;&gt;Node2</title>
<g id="a_edge1_Node000001_Node000002"><a xlink:title=" ">
<path fill="none" stroke="#63b8ff" d="M116.22,-3.01C124.53,-2.82 133.21,-2.73 141.85,-2.75"/>
<polygon fill="#63b8ff" stroke="#63b8ff" points="141.93,-6.25 151.95,-2.82 141.98,0.75 141.93,-6.25"/>
</a>
</g>
</g>
<!-- Node2&#45;&gt;Node1 -->
<g id="edge2_Node000002_Node000001" class="edge">
<title>Node2&#45;&gt;Node1</title>
<g id="a_edge2_Node000002_Node000001"><a xlink:title=" ">
<path fill="none" stroke="#63b8ff" d="M151.95,-16.18C143.5,-16.28 134.85,-16.27 126.4,-16.17"/>
<polygon fill="#63b8ff" stroke="#63b8ff" points="126.28,-12.67 116.22,-15.99 126.15,-19.67 126.28,-12.67"/>
</a>
</g>
</g>
</g>
</svg>
