<?xml version="1.0" encoding="UTF-8" standalone="no"?>
<!DOCTYPE svg PUBLIC "-//W3C//DTD SVG 1.1//EN"
 "http://www.w3.org/Graphics/SVG/1.1/DTD/svg11.dtd">
<!-- Generated by graphviz version 2.43.0 (0)
 -->
<!-- Title: SatSys Pages: 1 -->
<svg width="217pt" height="524pt"
 viewBox="0.00 0.00 217.00 524.00" xmlns="http://www.w3.org/2000/svg" xmlns:xlink="http://www.w3.org/1999/xlink">
<g id="graph0" class="graph" transform="scale(1 1) rotate(0) translate(4 520)">
<title>SatSys</title>
<!-- Node1 -->
<g id="Node000001" class="node">
<title>Node1</title>
<g id="a_Node000001"><a xlink:href="structSatSys.html" target="_top" xlink:title="Object holding satellite id, and providing related functions.">
<path fill="white" stroke="#666666" stroke-width="2" d="M112.5,-297C112.5,-297 19.5,-297 19.5,-297 13.5,-297 7.5,-291 7.5,-285 7.5,-285 7.5,-12 7.5,-12 7.5,-6 13.5,0 19.5,0 19.5,0 112.5,0 112.5,0 118.5,0 124.5,-6 124.5,-12 124.5,-12 124.5,-285 124.5,-285 124.5,-291 118.5,-297 112.5,-297"/>
<text text-anchor="start" x="49.5" y="-280.5" font-family="Helvetica,sans-Serif" font-size="10.00">SatSys</text>
<text text-anchor="start" x="20" y="-265.5" font-family="Helvetica,sans-Serif" font-size="10.00">+</text>
<text text-anchor="start" x="33" y="-265.5" font-family="Helvetica,sans-Serif" font-size="10.00">sys</text>
<text text-anchor="start" x="20" y="-250.5" font-family="Helvetica,sans-Serif" font-size="10.00">+</text>
<text text-anchor="start" x="33" y="-250.5" font-family="Helvetica,sans-Serif" font-size="10.00">prn</text>
<text text-anchor="start" x="20" y="-235.5" font-family="Helvetica,sans-Serif" font-size="10.00">+</text>
<text text-anchor="start" x="33" y="-235.5" font-family="Helvetica,sans-Serif" font-size="10.00">SatSys()</text>
<text text-anchor="start" x="20" y="-220.5" font-family="Helvetica,sans-Serif" font-size="10.00">+</text>
<text text-anchor="start" x="33" y="-220.5" font-family="Helvetica,sans-Serif" font-size="10.00">sysChar()</text>
<text text-anchor="start" x="20" y="-205.5" font-family="Helvetica,sans-Serif" font-size="10.00">+</text>
<text text-anchor="start" x="33" y="-205.5" font-family="Helvetica,sans-Serif" font-size="10.00">getId()</text>
<text text-anchor="start" x="20" y="-190.5" font-family="Helvetica,sans-Serif" font-size="10.00">+</text>
<text text-anchor="start" x="33" y="-190.5" font-family="Helvetica,sans-Serif" font-size="10.00">operator int()</text>
<text text-anchor="start" x="20" y="-175.5" font-family="Helvetica,sans-Serif" font-size="10.00">+</text>
<text text-anchor="start" x="33" y="-175.5" font-family="Helvetica,sans-Serif" font-size="10.00">setBlockType()</text>
<text text-anchor="start" x="20" y="-160.5" font-family="Helvetica,sans-Serif" font-size="10.00">+</text>
<text text-anchor="start" x="33" y="-160.5" font-family="Helvetica,sans-Serif" font-size="10.00">setSvn()</text>
<text text-anchor="start" x="20" y="-145.5" font-family="Helvetica,sans-Serif" font-size="10.00">+</text>
<text text-anchor="start" x="33" y="-145.5" font-family="Helvetica,sans-Serif" font-size="10.00">blockType()</text>
<text text-anchor="start" x="20" y="-130.5" font-family="Helvetica,sans-Serif" font-size="10.00">+</text>
<text text-anchor="start" x="33" y="-130.5" font-family="Helvetica,sans-Serif" font-size="10.00">svn()</text>
<text text-anchor="start" x="20" y="-115.5" font-family="Helvetica,sans-Serif" font-size="10.00">+</text>
<text text-anchor="start" x="33" y="-115.5" font-family="Helvetica,sans-Serif" font-size="10.00">fromHash()</text>
<text text-anchor="start" x="20" y="-100.5" font-family="Helvetica,sans-Serif" font-size="10.00">+</text>
<text text-anchor="start" x="33" y="-100.5" font-family="Helvetica,sans-Serif" font-size="10.00">id()</text>
<text text-anchor="start" x="20" y="-85.5" font-family="Helvetica,sans-Serif" font-size="10.00">+</text>
<text text-anchor="start" x="33" y="-85.5" font-family="Helvetica,sans-Serif" font-size="10.00">operator string()</text>
<text text-anchor="start" x="20" y="-70.5" font-family="Helvetica,sans-Serif" font-size="10.00">+</text>
<text text-anchor="start" x="33" y="-70.5" font-family="Helvetica,sans-Serif" font-size="10.00">SatSys()</text>
<text text-anchor="start" x="20" y="-55.5" font-family="Helvetica,sans-Serif" font-size="10.00">+</text>
<text text-anchor="start" x="33" y="-55.5" font-family="Helvetica,sans-Serif" font-size="10.00">sysName()</text>
<text text-anchor="start" x="20" y="-40.5" font-family="Helvetica,sans-Serif" font-size="10.00">+</text>
<text text-anchor="start" x="33" y="-40.5" font-family="Helvetica,sans-Serif" font-size="10.00">serialize()</text>
<text text-anchor="start" x="20" y="-25.5" font-family="Helvetica,sans-Serif" font-size="10.00">+</text>
<text text-anchor="start" x="33" y="-25.5" font-family="Helvetica,sans-Serif" font-size="10.00">noSat()</text>
<text text-anchor="start" x="20" y="-10.5" font-family="Helvetica,sans-Serif" font-size="10.00">+</text>
<text text-anchor="start" x="33" y="-10.5" font-family="Helvetica,sans-Serif" font-size="10.00">sysFromChar()</text>
<polygon fill="#666666" stroke="#666666" points="16,-275.5 16,-275.5 117,-275.5 117,-275.5 16,-275.5"/>
<polygon fill="#666666" stroke="#666666" points="16,-245.5 16,-245.5 31,-245.5 31,-245.5 16,-245.5"/>
<polygon fill="#666666" stroke="#666666" points="31,-245.5 31,-245.5 117,-245.5 117,-245.5 31,-245.5"/>
<polygon fill="none" stroke="#666666" points="15.5,-4 15.5,-293 116.5,-293 116.5,-4 15.5,-4"/>
</a>
</g>
</g>
<!-- Node2 -->
<g id="Node000002" class="node">
<title>Node2</title>
<g id="a_Node000002"><a xlink:title=" ">
<path fill="white" stroke="#666666" d="M120,-412C120,-412 12,-412 12,-412 6,-412 0,-406 0,-400 0,-400 0,-356 0,-356 0,-350 6,-344 12,-344 12,-344 120,-344 120,-344 126,-344 132,-350 132,-356 132,-356 132,-400 132,-400 132,-406 126,-412 120,-412"/>
<text text-anchor="start" x="13" y="-396" font-family="Helvetica,sans-Serif" font-size="10.00">map&lt; SatSys, SatSys</text>
<text text-anchor="start" x="37.5" y="-385" font-family="Helvetica,sans-Serif" font-size="10.00">::SatData &gt;</text>
<text text-anchor="start" x="64" y="-370" font-family="Helvetica,sans-Serif" font-size="10.00"> </text>
<text text-anchor="start" x="64" y="-355" font-family="Helvetica,sans-Serif" font-size="10.00"> </text>
<polygon fill="#666666" stroke="#666666" points="8,-380 8,-380 124,-380 124,-380 8,-380"/>
<polygon fill="#666666" stroke="#666666" points="8,-365 8,-365 124,-365 124,-365 8,-365"/>
<polygon fill="none" stroke="#666666" points="8,-348 8,-408 124,-408 124,-348 8,-348"/>
</a>
</g>
</g>
<!-- Node2&#45;&gt;Node1 -->
<g id="edge1_Node000001_Node000002" class="edge">
<title>Node2&#45;&gt;Node1</title>
<g id="a_edge1_Node000001_Node000002"><a xlink:title=" ">
<path fill="none" stroke="#63b8ff" d="M66,-343.92C66,-333.93 66,-322.22 66,-309.6"/>
<polygon fill="none" stroke="#63b8ff" points="66,-309.24 62,-303.24 66,-297.24 70,-303.24 66,-309.24"/>
</a>
</g>
<text text-anchor="middle" x="101.5" y="-318" font-family="Helvetica,sans-Serif" font-size="10.00" fill="grey"> +satDataMap</text>
</g>
<!-- Node3 -->
<g id="Node000003" class="node">
<title>Node3</title>
<g id="a_Node000003"><a xlink:title=" ">
<path fill="white" stroke="#666666" d="M78,-516C78,-516 54,-516 54,-516 48,-516 42,-510 42,-504 42,-504 42,-471 42,-471 42,-465 48,-459 54,-459 54,-459 78,-459 78,-459 84,-459 90,-465 90,-471 90,-471 90,-504 90,-504 90,-510 84,-516 78,-516"/>
<text text-anchor="start" x="55" y="-499.5" font-family="Helvetica,sans-Serif" font-size="10.00">map</text>
<text text-anchor="start" x="64" y="-484.5" font-family="Helvetica,sans-Serif" font-size="10.00"> </text>
<text text-anchor="start" x="64" y="-469.5" font-family="Helvetica,sans-Serif" font-size="10.00"> </text>
<polygon fill="#666666" stroke="#666666" points="50,-494.5 50,-494.5 82,-494.5 82,-494.5 50,-494.5"/>
<polygon fill="#666666" stroke="#666666" points="50,-479.5 50,-479.5 82,-479.5 82,-479.5 50,-479.5"/>
<polygon fill="none" stroke="#666666" points="50,-463 50,-512 82,-512 82,-463 50,-463"/>
</a>
</g>
</g>
<!-- Node3&#45;&gt;Node2 -->
<g id="edge2_Node000002_Node000003" class="edge">
<title>Node3&#45;&gt;Node2</title>
<g id="a_edge2_Node000002_Node000003"><a xlink:title=" ">
<path fill="none" stroke="orange" d="M66,-448.75C66,-436.88 66,-423.87 66,-412.34"/>
<polygon fill="orange" stroke="orange" points="62.5,-448.82 66,-458.82 69.5,-448.82 62.5,-448.82"/>
</a>
</g>
<text text-anchor="middle" x="137.5" y="-433" font-family="Helvetica,sans-Serif" font-size="10.00" fill="grey"> &lt; SatSys, SatSys::SatData &gt;</text>
</g>
</g>
</svg>
