<?xml version="1.0" encoding="UTF-8" standalone="no"?>
<!DOCTYPE svg PUBLIC "-//W3C//DTD SVG 1.1//EN"
 "http://www.w3.org/Graphics/SVG/1.1/DTD/svg11.dtd">
<!-- Generated by graphviz version 2.43.0 (0)
 -->
<!-- Title: KFMeasEntry::addDsgnEntry Pages: 1 -->
<svg width="495pt" height="826pt"
 viewBox="0.00 0.00 495.00 826.00" xmlns="http://www.w3.org/2000/svg" xmlns:xlink="http://www.w3.org/1999/xlink">
<g id="graph0" class="graph" transform="scale(1 1) rotate(0) translate(4 822)">
<title>KFMeasEntry::addDsgnEntry</title>
<!-- Node1 -->
<g id="Node000001" class="node">
<title>Node1</title>
<g id="a_Node000001"><a xlink:href="structKFMeasEntry.html#a358f854f4544c59fd129e46a1baf0e34" target="_top" xlink:title="Adds a design matrix entry for this measurement.">
<path fill="#fff0f0" stroke="red" stroke-width="2" d="M480.67,-411C480.67,-411 338.33,-411 338.33,-411 335.17,-411 332,-407.83 332,-404.67 332,-404.67 332,-398.33 332,-398.33 332,-395.17 335.17,-392 338.33,-392 338.33,-392 480.67,-392 480.67,-392 483.83,-392 487,-395.17 487,-398.33 487,-398.33 487,-404.67 487,-404.67 487,-407.83 483.83,-411 480.67,-411"/>
<text text-anchor="middle" x="409.5" y="-399" font-family="Helvetica,sans-Serif" font-size="10.00">KFMeasEntry::addDsgnEntry</text>
</a>
</g>
</g>
<!-- Node2 -->
<g id="Node000002" class="node">
<title>Node2</title>
<g id="a_Node000002"><a xlink:href="debug_8cpp.html#ae4e8d5c9ae89428a527a780093a3d872" target="_top" xlink:title=" ">
<path fill="#fff0f0" stroke="red" d="M235.67,-818C235.67,-818 206.33,-818 206.33,-818 203.17,-818 200,-814.83 200,-811.67 200,-811.67 200,-805.33 200,-805.33 200,-802.17 203.17,-799 206.33,-799 206.33,-799 235.67,-799 235.67,-799 238.83,-799 242,-802.17 242,-805.33 242,-805.33 242,-811.67 242,-811.67 242,-814.83 238.83,-818 235.67,-818"/>
<text text-anchor="middle" x="221" y="-806" font-family="Helvetica,sans-Serif" font-size="10.00">accel</text>
</a>
</g>
</g>
<!-- Node1&#45;&gt;Node2 -->
<g id="edge1_Node000001_Node000002" class="edge">
<title>Node1&#45;&gt;Node2</title>
<g id="a_edge1_Node000001_Node000002"><a xlink:title=" ">
<path fill="none" stroke="#63b8ff" d="M409.19,-421.34C410.25,-485.09 404.49,-686.57 296,-790.5 281.68,-804.22 258.73,-808.04 242.19,-808.85"/>
<polygon fill="#63b8ff" stroke="#63b8ff" points="412.68,-421 408.93,-411.09 405.68,-421.18 412.68,-421"/>
</a>
</g>
</g>
<!-- Node3 -->
<g id="Node000003" class="node">
<title>Node3</title>
<g id="a_Node000003"><a xlink:href="ppp__pseudoobs_8cpp.html#a02995a7f24f39419730eea3b664553cf" target="_top" xlink:title=" ">
<path fill="#fff0f0" stroke="red" d="M263.67,-781C263.67,-781 178.33,-781 178.33,-781 175.17,-781 172,-777.83 172,-774.67 172,-774.67 172,-768.33 172,-768.33 172,-765.17 175.17,-762 178.33,-762 178.33,-762 263.67,-762 263.67,-762 266.83,-762 270,-765.17 270,-768.33 270,-768.33 270,-774.67 270,-774.67 270,-777.83 266.83,-781 263.67,-781"/>
<text text-anchor="middle" x="221" y="-769" font-family="Helvetica,sans-Serif" font-size="10.00">ambgPseudoObs</text>
</a>
</g>
</g>
<!-- Node1&#45;&gt;Node3 -->
<g id="edge2_Node000001_Node000003" class="edge">
<title>Node1&#45;&gt;Node3</title>
<g id="a_edge2_Node000001_Node000003"><a xlink:title=" ">
<path fill="none" stroke="#63b8ff" d="M408.48,-421.41C407.29,-481.24 395.24,-661.05 296,-753.5 288.84,-760.17 279.64,-764.49 270.17,-767.26"/>
<polygon fill="#63b8ff" stroke="#63b8ff" points="411.99,-421.14 408.6,-411.1 404.99,-421.06 411.99,-421.14"/>
</a>
</g>
</g>
<!-- Node8 -->
<g id="Node000008" class="node">
<title>Node8</title>
<g id="a_Node000008"><a xlink:href="ppp__ambres_8cpp.html#ad41d635b049a650ddbe2f7e13d29e85b" target="_top" xlink:title=" ">
<path fill="#fff0f0" stroke="red" d="M289.67,-744C289.67,-744 152.33,-744 152.33,-744 149.17,-744 146,-740.83 146,-737.67 146,-737.67 146,-731.33 146,-731.33 146,-728.17 149.17,-725 152.33,-725 152.33,-725 289.67,-725 289.67,-725 292.83,-725 296,-728.17 296,-731.33 296,-731.33 296,-737.67 296,-737.67 296,-740.83 292.83,-744 289.67,-744"/>
<text text-anchor="middle" x="221" y="-732" font-family="Helvetica,sans-Serif" font-size="10.00">applyBestIntegerAmbiguity</text>
</a>
</g>
</g>
<!-- Node1&#45;&gt;Node8 -->
<g id="edge3_Node000001_Node000008" class="edge">
<title>Node1&#45;&gt;Node8</title>
<g id="a_edge3_Node000001_Node000008"><a xlink:title=" ">
<path fill="none" stroke="#63b8ff" d="M407.62,-421.51C404.04,-477.24 386.03,-635.41 296,-716.5 292.27,-719.86 288.01,-722.62 283.47,-724.89"/>
<polygon fill="#63b8ff" stroke="#63b8ff" points="411.13,-421.42 408.18,-411.24 404.14,-421.03 411.13,-421.42"/>
</a>
</g>
</g>
<!-- Node13 -->
<g id="Node000013" class="node">
<title>Node13</title>
<g id="a_Node000013"><a xlink:href="ppp__ambres_8cpp.html#a604fb46557eb8261b38abf76fb147433" target="_top" xlink:title=" ">
<path fill="#fff0f0" stroke="red" d="M272.67,-707C272.67,-707 169.33,-707 169.33,-707 166.17,-707 163,-703.83 163,-700.67 163,-700.67 163,-694.33 163,-694.33 163,-691.17 166.17,-688 169.33,-688 169.33,-688 272.67,-688 272.67,-688 275.83,-688 279,-691.17 279,-694.33 279,-694.33 279,-700.67 279,-700.67 279,-703.83 275.83,-707 272.67,-707"/>
<text text-anchor="middle" x="221" y="-695" font-family="Helvetica,sans-Serif" font-size="10.00">applyUCAmbiguities</text>
</a>
</g>
</g>
<!-- Node1&#45;&gt;Node13 -->
<g id="edge4_Node000001_Node000013" class="edge">
<title>Node1&#45;&gt;Node13</title>
<g id="a_edge4_Node000001_Node000013"><a xlink:title=" ">
<path fill="none" stroke="#63b8ff" d="M406.58,-421.2C400.54,-472.2 377.14,-609.41 296,-679.5 291.1,-683.73 285.36,-687.01 279.29,-689.53"/>
<polygon fill="#63b8ff" stroke="#63b8ff" points="410.07,-421.5 407.68,-411.18 403.11,-420.74 410.07,-421.5"/>
</a>
</g>
</g>
<!-- Node14 -->
<g id="Node000014" class="node">
<title>Node14</title>
<g id="a_Node000014"><a xlink:href="ppp__obs_8cpp.html#a1a7bb3f4b094800c45a7f1e5ae7d483e" target="_top" xlink:title=" ">
<path fill="#fff0f0" stroke="red" d="M260.17,-652C260.17,-652 181.83,-652 181.83,-652 178.67,-652 175.5,-648.83 175.5,-645.67 175.5,-645.67 175.5,-639.33 175.5,-639.33 175.5,-636.17 178.67,-633 181.83,-633 181.83,-633 260.17,-633 260.17,-633 263.33,-633 266.5,-636.17 266.5,-639.33 266.5,-639.33 266.5,-645.67 266.5,-645.67 266.5,-648.83 263.33,-652 260.17,-652"/>
<text text-anchor="middle" x="221" y="-640" font-family="Helvetica,sans-Serif" font-size="10.00">eopAdjustment</text>
</a>
</g>
</g>
<!-- Node1&#45;&gt;Node14 -->
<g id="edge5_Node000001_Node000014" class="edge">
<title>Node1&#45;&gt;Node14</title>
<g id="a_edge5_Node000001_Node000014"><a xlink:title=" ">
<path fill="none" stroke="#63b8ff" d="M404.4,-421.35C394.26,-465.2 363.79,-570.67 296,-624.5 287.61,-631.16 277.12,-635.41 266.7,-638.1"/>
<polygon fill="#63b8ff" stroke="#63b8ff" points="407.86,-421.89 406.59,-411.38 401.03,-420.39 407.86,-421.89"/>
</a>
</g>
</g>
<!-- Node20 -->
<g id="Node000020" class="node">
<title>Node20</title>
<g id="a_Node000020"><a xlink:href="spp_8cpp.html#ad923112e4e6dfdfc8b050b68851fe1d0" target="_top" xlink:title="Estimate receiver position and biases using code measurements.">
<path fill="#fff0f0" stroke="red" d="M239.17,-615C239.17,-615 202.83,-615 202.83,-615 199.67,-615 196.5,-611.83 196.5,-608.67 196.5,-608.67 196.5,-602.33 196.5,-602.33 196.5,-599.17 199.67,-596 202.83,-596 202.83,-596 239.17,-596 239.17,-596 242.33,-596 245.5,-599.17 245.5,-602.33 245.5,-602.33 245.5,-608.67 245.5,-608.67 245.5,-611.83 242.33,-615 239.17,-615"/>
<text text-anchor="middle" x="221" y="-603" font-family="Helvetica,sans-Serif" font-size="10.00">estpos</text>
</a>
</g>
</g>
<!-- Node1&#45;&gt;Node20 -->
<g id="edge7_Node000001_Node000020" class="edge">
<title>Node1&#45;&gt;Node20</title>
<g id="a_edge7_Node000001_Node000020"><a xlink:title=" ">
<path fill="none" stroke="#63b8ff" d="M402.44,-420.87C389.48,-459.04 355.28,-544.03 296,-587.5 281.39,-598.21 261.23,-602.61 245.63,-604.39"/>
<polygon fill="#63b8ff" stroke="#63b8ff" points="405.88,-421.61 405.67,-411.02 399.23,-419.44 405.88,-421.61"/>
</a>
</g>
</g>
<!-- Node26 -->
<g id="Node000026" class="node">
<title>Node26</title>
<g id="a_Node000026"><a xlink:href="ionoModel_8cpp.html#ae7821a74f98f349d4508712aeced88e1" target="_top" xlink:title="Updating the ionosphere model parameters The ionosphere model should be initialized by calling &#39;confi...">
<path fill="#fff0f0" stroke="red" d="M261.17,-578C261.17,-578 180.83,-578 180.83,-578 177.67,-578 174.5,-574.83 174.5,-571.67 174.5,-571.67 174.5,-565.33 174.5,-565.33 174.5,-562.17 177.67,-559 180.83,-559 180.83,-559 261.17,-559 261.17,-559 264.33,-559 267.5,-562.17 267.5,-565.33 267.5,-565.33 267.5,-571.67 267.5,-571.67 267.5,-574.83 264.33,-578 261.17,-578"/>
<text text-anchor="middle" x="221" y="-566" font-family="Helvetica,sans-Serif" font-size="10.00">filterIonosphere</text>
</a>
</g>
</g>
<!-- Node1&#45;&gt;Node26 -->
<g id="edge8_Node000001_Node000026" class="edge">
<title>Node1&#45;&gt;Node26</title>
<g id="a_edge8_Node000001_Node000026"><a xlink:title=" ">
<path fill="none" stroke="#63b8ff" d="M399.6,-420.53C383.6,-452.58 346.84,-517.09 296,-550.5 287.6,-556.02 277.67,-559.85 267.85,-562.5"/>
<polygon fill="#63b8ff" stroke="#63b8ff" points="402.84,-421.87 404.06,-411.35 396.55,-418.81 402.84,-421.87"/>
</a>
</g>
</g>
<!-- Node27 -->
<g id="Node000027" class="node">
<title>Node27</title>
<g id="a_Node000027"><a xlink:href="ppp__pseudoobs_8cpp.html#a2851c6a4dfd04eb338a17257bfc2b865" target="_top" xlink:title=" ">
<path fill="#fff0f0" stroke="red" d="M261.17,-541C261.17,-541 180.83,-541 180.83,-541 177.67,-541 174.5,-537.83 174.5,-534.67 174.5,-534.67 174.5,-528.33 174.5,-528.33 174.5,-525.17 177.67,-522 180.83,-522 180.83,-522 261.17,-522 261.17,-522 264.33,-522 267.5,-525.17 267.5,-528.33 267.5,-528.33 267.5,-534.67 267.5,-534.67 267.5,-537.83 264.33,-541 261.17,-541"/>
<text text-anchor="middle" x="221" y="-529" font-family="Helvetica,sans-Serif" font-size="10.00">filterPseudoObs</text>
</a>
</g>
</g>
<!-- Node1&#45;&gt;Node27 -->
<g id="edge9_Node000001_Node000027" class="edge">
<title>Node1&#45;&gt;Node27</title>
<g id="a_edge9_Node000001_Node000027"><a xlink:title=" ">
<path fill="none" stroke="#63b8ff" d="M395.77,-419.25C376.9,-444.22 339.04,-489.38 296,-513.5 287.35,-518.35 277.42,-521.9 267.69,-524.5"/>
<polygon fill="#63b8ff" stroke="#63b8ff" points="398.71,-421.16 401.84,-411.04 393.09,-417 398.71,-421.16"/>
</a>
</g>
</g>
<!-- Node28 -->
<g id="Node000028" class="node">
<title>Node28</title>
<g id="a_Node000028"><a xlink:href="debug_8cpp.html#a6b386ae3f1e24bab3a4c831fa043a400" target="_top" xlink:title=" ">
<path fill="#fff0f0" stroke="red" d="M249.67,-504C249.67,-504 192.33,-504 192.33,-504 189.17,-504 186,-500.83 186,-497.67 186,-497.67 186,-491.33 186,-491.33 186,-488.17 189.17,-485 192.33,-485 192.33,-485 249.67,-485 249.67,-485 252.83,-485 256,-488.17 256,-491.33 256,-491.33 256,-497.67 256,-497.67 256,-500.83 252.83,-504 249.67,-504"/>
<text text-anchor="middle" x="221" y="-492" font-family="Helvetica,sans-Serif" font-size="10.00">infiniteTest</text>
</a>
</g>
</g>
<!-- Node1&#45;&gt;Node28 -->
<g id="edge10_Node000001_Node000028" class="edge">
<title>Node1&#45;&gt;Node28</title>
<g id="a_edge10_Node000001_Node000028"><a xlink:title=" ">
<path fill="none" stroke="#63b8ff" d="M389.15,-417.5C367.67,-434.49 331.33,-461 296,-476.5 283.53,-481.97 269.11,-485.95 256.34,-488.76"/>
<polygon fill="#63b8ff" stroke="#63b8ff" points="391.55,-420.06 397.15,-411.07 387.16,-414.61 391.55,-420.06"/>
</a>
</g>
</g>
<!-- Node29 -->
<g id="Node000029" class="node">
<title>Node29</title>
<g id="a_Node000029"><a xlink:href="ppp__pseudoobs_8cpp.html#ae73c509527efa6401eb80a02825fb7fd" target="_top" xlink:title=" ">
<path fill="#fff0f0" stroke="red" d="M260.67,-467C260.67,-467 181.33,-467 181.33,-467 178.17,-467 175,-463.83 175,-460.67 175,-460.67 175,-454.33 175,-454.33 175,-451.17 178.17,-448 181.33,-448 181.33,-448 260.67,-448 260.67,-448 263.83,-448 267,-451.17 267,-454.33 267,-454.33 267,-460.67 267,-460.67 267,-463.83 263.83,-467 260.67,-467"/>
<text text-anchor="middle" x="221" y="-455" font-family="Helvetica,sans-Serif" font-size="10.00">ionoPseudoObs</text>
</a>
</g>
</g>
<!-- Node1&#45;&gt;Node29 -->
<g id="edge11_Node000001_Node000029" class="edge">
<title>Node1&#45;&gt;Node29</title>
<g id="a_edge11_Node000001_Node000029"><a xlink:title=" ">
<path fill="none" stroke="#63b8ff" d="M372.75,-414.46C350.76,-422.21 321.93,-431.98 296,-439.5 285.71,-442.48 274.53,-445.38 264.04,-447.95"/>
<polygon fill="#63b8ff" stroke="#63b8ff" points="374.08,-417.7 382.34,-411.06 371.74,-411.11 374.08,-417.7"/>
</a>
</g>
</g>
<!-- Node30 -->
<g id="Node000030" class="node">
<title>Node30</title>
<g id="a_Node000030"><a xlink:href="minimumConstraints_8cpp.html#aa40934b017f373d875c3470591eff52e" target="_top" xlink:title=" ">
<path fill="#fff0f0" stroke="red" d="M241.17,-430C241.17,-430 200.83,-430 200.83,-430 197.67,-430 194.5,-426.83 194.5,-423.67 194.5,-423.67 194.5,-417.33 194.5,-417.33 194.5,-414.17 197.67,-411 200.83,-411 200.83,-411 241.17,-411 241.17,-411 244.33,-411 247.5,-414.17 247.5,-417.33 247.5,-417.33 247.5,-423.67 247.5,-423.67 247.5,-426.83 244.33,-430 241.17,-430"/>
<text text-anchor="middle" x="221" y="-418" font-family="Helvetica,sans-Serif" font-size="10.00">mincon</text>
</a>
</g>
</g>
<!-- Node1&#45;&gt;Node30 -->
<g id="edge12_Node000001_Node000030" class="edge">
<title>Node1&#45;&gt;Node30</title>
<g id="a_edge12_Node000001_Node000030"><a xlink:title=" ">
<path fill="none" stroke="#63b8ff" d="M321.59,-410.35C294.71,-413.09 267.13,-415.9 247.83,-417.87"/>
<polygon fill="#63b8ff" stroke="#63b8ff" points="322.24,-413.81 331.84,-409.31 321.53,-406.84 322.24,-413.81"/>
</a>
</g>
</g>
<!-- Node33 -->
<g id="Node000033" class="node">
<title>Node33</title>
<g id="a_Node000033"><a xlink:href="debug_8cpp.html#a80d24c0bf09dad23394c5fcac25aa80b" target="_top" xlink:title=" ">
<path fill="#fff0f0" stroke="red" d="M90.17,-411C90.17,-411 19.83,-411 19.83,-411 16.67,-411 13.5,-407.83 13.5,-404.67 13.5,-404.67 13.5,-398.33 13.5,-398.33 13.5,-395.17 16.67,-392 19.83,-392 19.83,-392 90.17,-392 90.17,-392 93.33,-392 96.5,-395.17 96.5,-398.33 96.5,-398.33 96.5,-404.67 96.5,-404.67 96.5,-407.83 93.33,-411 90.17,-411"/>
<text text-anchor="middle" x="55" y="-399" font-family="Helvetica,sans-Serif" font-size="10.00">minimumTest</text>
</a>
</g>
</g>
<!-- Node1&#45;&gt;Node33 -->
<g id="edge15_Node000001_Node000033" class="edge">
<title>Node1&#45;&gt;Node33</title>
<g id="a_edge15_Node000001_Node000033"><a xlink:title=" ">
<path fill="none" stroke="#63b8ff" d="M321.2,-401.5C249.48,-401.5 151.13,-401.5 96.59,-401.5"/>
<polygon fill="#63b8ff" stroke="#63b8ff" points="321.58,-405 331.58,-401.5 321.58,-398 321.58,-405"/>
</a>
</g>
</g>
<!-- Node34 -->
<g id="Node000034" class="node">
<title>Node34</title>
<g id="a_Node000034"><a xlink:href="ppp__pseudoobs_8cpp.html#ab04e5f1ff741cf022a574560b93daddd" target="_top" xlink:title=" ">
<path fill="#fff0f0" stroke="red" d="M103.67,-318C103.67,-318 6.33,-318 6.33,-318 3.17,-318 0,-314.83 0,-311.67 0,-311.67 0,-305.33 0,-305.33 0,-302.17 3.17,-299 6.33,-299 6.33,-299 103.67,-299 103.67,-299 106.83,-299 110,-302.17 110,-305.33 110,-305.33 110,-311.67 110,-311.67 110,-314.83 106.83,-318 103.67,-318"/>
<text text-anchor="middle" x="55" y="-306" font-family="Helvetica,sans-Serif" font-size="10.00">receiverPseudoObs</text>
</a>
</g>
</g>
<!-- Node1&#45;&gt;Node34 -->
<g id="edge19_Node000001_Node000034" class="edge">
<title>Node1&#45;&gt;Node34</title>
<g id="a_edge19_Node000001_Node000034"><a xlink:title=" ">
<path fill="none" stroke="#63b8ff" d="M401.02,-382.41C386.61,-348.62 351.41,-279.21 296,-251.5 236.37,-221.69 210.03,-232.93 146,-251.5 114.03,-260.77 82.52,-285.19 66.63,-298.86"/>
<polygon fill="#63b8ff" stroke="#63b8ff" points="397.79,-383.75 404.83,-391.67 404.27,-381.09 397.79,-383.75"/>
</a>
</g>
</g>
<!-- Node35 -->
<g id="Node000035" class="node">
<title>Node35</title>
<g id="a_Node000035"><a xlink:href="ppp__pseudoobs_8cpp.html#aa5459ae2332731b13b89654f112950d1" target="_top" xlink:title=" ">
<path fill="#fff0f0" stroke="red" d="M261.17,-354C261.17,-354 180.83,-354 180.83,-354 177.67,-354 174.5,-350.83 174.5,-347.67 174.5,-347.67 174.5,-341.33 174.5,-341.33 174.5,-338.17 177.67,-335 180.83,-335 180.83,-335 261.17,-335 261.17,-335 264.33,-335 267.5,-338.17 267.5,-341.33 267.5,-341.33 267.5,-347.67 267.5,-347.67 267.5,-350.83 264.33,-354 261.17,-354"/>
<text text-anchor="middle" x="221" y="-342" font-family="Helvetica,sans-Serif" font-size="10.00">orbitPseudoObs</text>
</a>
</g>
</g>
<!-- Node1&#45;&gt;Node35 -->
<g id="edge16_Node000001_Node000035" class="edge">
<title>Node1&#45;&gt;Node35</title>
<g id="a_edge16_Node000001_Node000035"><a xlink:title=" ">
<path fill="none" stroke="#63b8ff" d="M367.53,-388.98C333.13,-378.46 284.69,-363.66 253.32,-354.07"/>
<polygon fill="#63b8ff" stroke="#63b8ff" points="366.7,-392.38 377.28,-391.96 368.74,-385.69 366.7,-392.38"/>
</a>
</g>
</g>
<!-- Node36 -->
<g id="Node000036" class="node">
<title>Node36</title>
<g id="a_Node000036"><a xlink:href="ppp__pseudoobs_8cpp.html#aebf2bf386a3911becb26a3bbeb0520ff" target="_top" xlink:title="Add pseudo&#45;observations to set one satellite&#39;s phase biases variances to zero.">
<path fill="#fff0f0" stroke="red" d="M264.67,-317C264.67,-317 177.33,-317 177.33,-317 174.17,-317 171,-313.83 171,-310.67 171,-310.67 171,-304.33 171,-304.33 171,-301.17 174.17,-298 177.33,-298 177.33,-298 264.67,-298 264.67,-298 267.83,-298 271,-301.17 271,-304.33 271,-304.33 271,-310.67 271,-310.67 271,-313.83 267.83,-317 264.67,-317"/>
<text text-anchor="middle" x="221" y="-305" font-family="Helvetica,sans-Serif" font-size="10.00">phasePseudoObs</text>
</a>
</g>
</g>
<!-- Node1&#45;&gt;Node36 -->
<g id="edge17_Node000001_Node000036" class="edge">
<title>Node1&#45;&gt;Node36</title>
<g id="a_edge17_Node000001_Node000036"><a xlink:title=" ">
<path fill="none" stroke="#63b8ff" d="M389.12,-385.59C367.6,-368.67 331.23,-342.22 296,-326.5 287.52,-322.72 278.15,-319.58 269,-317.02"/>
<polygon fill="#63b8ff" stroke="#63b8ff" points="387.13,-388.48 397.12,-391.99 391.5,-383.01 387.13,-388.48"/>
</a>
</g>
</g>
<!-- Node37 -->
<g id="Node000037" class="node">
<title>Node37</title>
<g id="a_Node000037"><a xlink:href="ppp__pseudoobs_8cpp.html#accfefc993178e71db6783bbe525342a7" target="_top" xlink:title=" ">
<path fill="#fff0f0" stroke="red" d="M259.17,-280C259.17,-280 182.83,-280 182.83,-280 179.67,-280 176.5,-276.83 176.5,-273.67 176.5,-273.67 176.5,-267.33 176.5,-267.33 176.5,-264.17 179.67,-261 182.83,-261 182.83,-261 259.17,-261 259.17,-261 262.33,-261 265.5,-264.17 265.5,-267.33 265.5,-267.33 265.5,-273.67 265.5,-273.67 265.5,-276.83 262.33,-280 259.17,-280"/>
<text text-anchor="middle" x="221" y="-268" font-family="Helvetica,sans-Serif" font-size="10.00">pseudoRecDcb</text>
</a>
</g>
</g>
<!-- Node1&#45;&gt;Node37 -->
<g id="edge18_Node000001_Node000037" class="edge">
<title>Node1&#45;&gt;Node37</title>
<g id="a_edge18_Node000001_Node000037"><a xlink:title=" ">
<path fill="none" stroke="#63b8ff" d="M395.45,-383.45C376.43,-358.49 338.67,-313.78 296,-289.5 286.78,-284.25 276.09,-280.43 265.76,-277.65"/>
<polygon fill="#63b8ff" stroke="#63b8ff" points="392.8,-385.76 401.58,-391.68 398.41,-381.57 392.8,-385.76"/>
</a>
</g>
</g>
<!-- Node19 -->
<g id="Node000019" class="node">
<title>Node19</title>
<g id="a_Node000019"><a xlink:href="ppp__slr_8cpp.html#aa76f9747fdfc064d7ec64ae8d163fb86" target="_top" xlink:title=" ">
<path fill="#fff0f0" stroke="red" d="M249.17,-204C249.17,-204 192.83,-204 192.83,-204 189.67,-204 186.5,-200.83 186.5,-197.67 186.5,-197.67 186.5,-191.33 186.5,-191.33 186.5,-188.17 189.67,-185 192.83,-185 192.83,-185 249.17,-185 249.17,-185 252.33,-185 255.5,-188.17 255.5,-191.33 255.5,-191.33 255.5,-197.67 255.5,-197.67 255.5,-200.83 252.33,-204 249.17,-204"/>
<text text-anchor="middle" x="221" y="-192" font-family="Helvetica,sans-Serif" font-size="10.00">receiverSlr</text>
</a>
</g>
</g>
<!-- Node1&#45;&gt;Node19 -->
<g id="edge20_Node000001_Node000019" class="edge">
<title>Node1&#45;&gt;Node19</title>
<g id="a_edge20_Node000001_Node000019"><a xlink:title=" ">
<path fill="none" stroke="#63b8ff" d="M401.88,-382.29C388.1,-345.15 352.82,-263.2 296,-218.5 284.43,-209.4 269.3,-203.7 255.73,-200.15"/>
<polygon fill="#63b8ff" stroke="#63b8ff" points="398.65,-383.67 405.33,-391.9 405.24,-381.31 398.65,-383.67"/>
</a>
</g>
</g>
<!-- Node16 -->
<g id="Node000016" class="node">
<title>Node16</title>
<g id="a_Node000016"><a xlink:href="ppp__obs_8cpp.html#a2a01ea8204bc0ae172ffc50a28623f9e" target="_top" xlink:title=" ">
<path fill="#fff0f0" stroke="red" d="M267.17,-167C267.17,-167 174.83,-167 174.83,-167 171.67,-167 168.5,-163.83 168.5,-160.67 168.5,-160.67 168.5,-154.33 168.5,-154.33 168.5,-151.17 171.67,-148 174.83,-148 174.83,-148 267.17,-148 267.17,-148 270.33,-148 273.5,-151.17 273.5,-154.33 273.5,-154.33 273.5,-160.67 273.5,-160.67 273.5,-163.83 270.33,-167 267.17,-167"/>
<text text-anchor="middle" x="221" y="-155" font-family="Helvetica,sans-Serif" font-size="10.00">receiverUducGnss</text>
</a>
</g>
</g>
<!-- Node1&#45;&gt;Node16 -->
<g id="edge21_Node000001_Node000016" class="edge">
<title>Node1&#45;&gt;Node16</title>
<g id="a_edge21_Node000001_Node000016"><a xlink:title=" ">
<path fill="none" stroke="#63b8ff" d="M404.62,-382C394.8,-337.95 364.69,-230.34 296,-175.5 289.49,-170.3 281.7,-166.57 273.66,-163.9"/>
<polygon fill="#63b8ff" stroke="#63b8ff" points="401.24,-382.92 406.74,-391.98 408.09,-381.47 401.24,-382.92"/>
</a>
</g>
</g>
<!-- Node38 -->
<g id="Node000038" class="node">
<title>Node38</title>
<g id="a_Node000038"><a xlink:href="ppp__pseudoobs_8cpp.html#a52383a80aee53c1d20ad7952dc63ce17" target="_top" xlink:title=" ">
<path fill="#fff0f0" stroke="red" d="M283.17,-130C283.17,-130 158.83,-130 158.83,-130 155.67,-130 152.5,-126.83 152.5,-123.67 152.5,-123.67 152.5,-117.33 152.5,-117.33 152.5,-114.17 155.67,-111 158.83,-111 158.83,-111 283.17,-111 283.17,-111 286.33,-111 289.5,-114.17 289.5,-117.33 289.5,-117.33 289.5,-123.67 289.5,-123.67 289.5,-126.83 286.33,-130 283.17,-130"/>
<text text-anchor="middle" x="221" y="-118" font-family="Helvetica,sans-Serif" font-size="10.00">satClockPivotPseudoObs</text>
</a>
</g>
</g>
<!-- Node1&#45;&gt;Node38 -->
<g id="edge22_Node000001_Node000038" class="edge">
<title>Node1&#45;&gt;Node38</title>
<g id="a_edge22_Node000001_Node000038"><a xlink:title=" ">
<path fill="none" stroke="#63b8ff" d="M406.09,-381.87C398.99,-332.81 373.53,-204.15 296,-138.5 291.96,-135.08 287.38,-132.29 282.52,-130.02"/>
<polygon fill="#63b8ff" stroke="#63b8ff" points="402.63,-382.37 407.43,-391.81 409.56,-381.43 402.63,-382.37"/>
</a>
</g>
</g>
<!-- Node39 -->
<g id="Node000039" class="node">
<title>Node39</title>
<g id="a_Node000039"><a xlink:href="ppp__pseudoobs_8cpp.html#a0df461e27bceaa75ec50285c2abf8f27" target="_top" xlink:title=" ">
<path fill="#fff0f0" stroke="red" d="M259.67,-93C259.67,-93 182.33,-93 182.33,-93 179.17,-93 176,-89.83 176,-86.67 176,-86.67 176,-80.33 176,-80.33 176,-77.17 179.17,-74 182.33,-74 182.33,-74 259.67,-74 259.67,-74 262.83,-74 266,-77.17 266,-80.33 266,-80.33 266,-86.67 266,-86.67 266,-89.83 262.83,-93 259.67,-93"/>
<text text-anchor="middle" x="221" y="-81" font-family="Helvetica,sans-Serif" font-size="10.00">tropPseudoObs</text>
</a>
</g>
</g>
<!-- Node1&#45;&gt;Node39 -->
<g id="edge23_Node000001_Node000039" class="edge">
<title>Node1&#45;&gt;Node39</title>
<g id="a_edge23_Node000001_Node000039"><a xlink:title=" ">
<path fill="none" stroke="#63b8ff" d="M407.23,-381.72C402.69,-327.98 382.48,-178.16 296,-101.5 287.69,-94.13 276.87,-89.66 266.07,-86.98"/>
<polygon fill="#63b8ff" stroke="#63b8ff" points="403.76,-382.22 408,-391.93 410.74,-381.7 403.76,-382.22"/>
</a>
</g>
</g>
<!-- Node40 -->
<g id="Node000040" class="node">
<title>Node40</title>
<g id="a_Node000040"><a xlink:href="walkthrough_8cpp.html#af3e41749378ce9de79e7bdb41df88419" target="_top" xlink:title="Ginan kalman filter basics The basic structure for kalman filtering in ginan is the KFState struct,...">
<path fill="#fff0f0" stroke="red" d="M256.17,-56C256.17,-56 185.83,-56 185.83,-56 182.67,-56 179.5,-52.83 179.5,-49.67 179.5,-49.67 179.5,-43.33 179.5,-43.33 179.5,-40.17 182.67,-37 185.83,-37 185.83,-37 256.17,-37 256.17,-37 259.33,-37 262.5,-40.17 262.5,-43.33 262.5,-43.33 262.5,-49.67 262.5,-49.67 262.5,-52.83 259.33,-56 256.17,-56"/>
<text text-anchor="middle" x="221" y="-44" font-family="Helvetica,sans-Serif" font-size="10.00">walkthrough1</text>
</a>
</g>
</g>
<!-- Node1&#45;&gt;Node40 -->
<g id="edge24_Node000001_Node000040" class="edge">
<title>Node1&#45;&gt;Node40</title>
<g id="a_edge24_Node000001_Node000040"><a xlink:title=" ">
<path fill="none" stroke="#63b8ff" d="M408.16,-381.65C406.03,-323.55 391.55,-152.38 296,-64.5 286.95,-56.18 274.71,-51.52 262.79,-48.98"/>
<polygon fill="#63b8ff" stroke="#63b8ff" points="404.66,-381.81 408.44,-391.71 411.66,-381.61 404.66,-381.81"/>
</a>
</g>
</g>
<!-- Node42 -->
<g id="Node000042" class="node">
<title>Node42</title>
<g id="a_Node000042"><a xlink:href="walkthrough_8cpp.html#aff7ddc151473d418c066b30f06e6b42e" target="_top" xlink:title=" ">
<path fill="#fff0f0" stroke="red" d="M256.17,-19C256.17,-19 185.83,-19 185.83,-19 182.67,-19 179.5,-15.83 179.5,-12.67 179.5,-12.67 179.5,-6.33 179.5,-6.33 179.5,-3.17 182.67,0 185.83,0 185.83,0 256.17,0 256.17,0 259.33,0 262.5,-3.17 262.5,-6.33 262.5,-6.33 262.5,-12.67 262.5,-12.67 262.5,-15.83 259.33,-19 256.17,-19"/>
<text text-anchor="middle" x="221" y="-7" font-family="Helvetica,sans-Serif" font-size="10.00">walkthrough2</text>
</a>
</g>
</g>
<!-- Node1&#45;&gt;Node42 -->
<g id="edge25_Node000001_Node000042" class="edge">
<title>Node1&#45;&gt;Node42</title>
<g id="a_edge25_Node000001_Node000042"><a xlink:title=" ">
<path fill="none" stroke="#63b8ff" d="M408.92,-381.61C409.08,-319.4 400.72,-126.75 296,-27.5 286.98,-18.95 274.61,-14.25 262.56,-11.73"/>
<polygon fill="#63b8ff" stroke="#63b8ff" points="405.41,-381.92 408.8,-391.95 412.41,-381.99 405.41,-381.92"/>
</a>
</g>
</g>
<!-- Node14&#45;&gt;Node14 -->
<g id="edge6_Node000014_Node000014" class="edge">
<title>Node14&#45;&gt;Node14</title>
<g id="a_edge6_Node000014_Node000014"><a xlink:title=" ">
<path fill="none" stroke="#63b8ff" d="M251.99,-660.82C250.69,-666.01 240.36,-670 221,-670 191.5,-670 182.97,-660.73 195.41,-652.08"/>
<polygon fill="#63b8ff" stroke="#63b8ff" points="254.82,-658.75 246.59,-652.08 248.87,-662.43 254.82,-658.75"/>
</a>
</g>
</g>
<!-- Node30&#45;&gt;Node33 -->
<g id="edge13_Node000030_Node000033" class="edge">
<title>Node30&#45;&gt;Node33</title>
<g id="a_edge13_Node000030_Node000033"><a xlink:title=" ">
<path fill="none" stroke="#63b8ff" d="M184.28,-416.36C158.49,-413.37 123.62,-409.33 96.75,-406.22"/>
<polygon fill="#63b8ff" stroke="#63b8ff" points="184.04,-419.86 194.38,-417.53 184.84,-412.9 184.04,-419.86"/>
</a>
</g>
</g>
<!-- Node30&#45;&gt;Node34 -->
<g id="edge14_Node000030_Node000034" class="edge">
<title>Node30&#45;&gt;Node34</title>
<g id="a_edge14_Node000030_Node000034"><a xlink:title=" ">
<path fill="none" stroke="#63b8ff" d="M197.57,-405.18C163.16,-381.68 98.36,-337.43 69.95,-318.02"/>
<polygon fill="#63b8ff" stroke="#63b8ff" points="195.79,-408.2 206.02,-410.95 199.73,-402.42 195.79,-408.2"/>
</a>
</g>
</g>
</g>
</svg>
