<?xml version="1.0" encoding="UTF-8" standalone="no"?>
<!DOCTYPE svg PUBLIC "-//W3C//DTD SVG 1.1//EN"
 "http://www.w3.org/Graphics/SVG/1.1/DTD/svg11.dtd">
<!-- Generated by graphviz version 2.43.0 (0)
 -->
<!-- Title: NtripResponder::serverResponse Pages: 1 -->
<svg width="402pt" height="38pt"
 viewBox="0.00 0.00 402.00 38.00" xmlns="http://www.w3.org/2000/svg" xmlns:xlink="http://www.w3.org/1999/xlink">
<g id="graph0" class="graph" transform="scale(1 1) rotate(0) translate(4 34)">
<title>NtripResponder::serverResponse</title>
<!-- Node1 -->
<g id="Node000001" class="node">
<title>Node1</title>
<g id="a_Node000001"><a xlink:href="structNtripResponder.html#a4c1f24d4ceae186ff3031dba4cd7e065" target="_top" xlink:title=" ">
<path fill="#fff0f0" stroke="red" stroke-width="2" d="M387.67,-24.5C387.67,-24.5 224.33,-24.5 224.33,-24.5 221.17,-24.5 218,-21.33 218,-18.17 218,-18.17 218,-11.83 218,-11.83 218,-8.67 221.17,-5.5 224.33,-5.5 224.33,-5.5 387.67,-5.5 387.67,-5.5 390.83,-5.5 394,-8.67 394,-11.83 394,-11.83 394,-18.17 394,-18.17 394,-21.33 390.83,-24.5 387.67,-24.5"/>
<text text-anchor="middle" x="306" y="-12.5" font-family="Helvetica,sans-Serif" font-size="10.00">NtripResponder::serverResponse</text>
</a>
</g>
</g>
<!-- Node2 -->
<g id="Node000002" class="node">
<title>Node2</title>
<g id="a_Node000002"><a xlink:href="structNtripResponder.html#a874ea233cd0c2b2139c68b6d9009112a" target="_top" xlink:title=" ">
<path fill="#fff0f0" stroke="red" d="M172,-30C172,-30 10,-30 10,-30 5,-30 0,-25 0,-20 0,-20 0,-10 0,-10 0,-5 5,0 10,0 10,0 172,0 172,0 177,0 182,-5 182,-10 182,-10 182,-20 182,-20 182,-25 177,-30 172,-30"/>
<text text-anchor="start" x="8" y="-18" font-family="Helvetica,sans-Serif" font-size="10.00">NtripResponder::requestResponse</text>
<text text-anchor="middle" x="91" y="-7" font-family="Helvetica,sans-Serif" font-size="10.00">Handler</text>
</a>
</g>
</g>
<!-- Node1&#45;&gt;Node2 -->
<g id="edge1_Node000001_Node000002" class="edge">
<title>Node1&#45;&gt;Node2</title>
<g id="a_edge1_Node000001_Node000002"><a xlink:title=" ">
<path fill="none" stroke="#63b8ff" d="M207.52,-15C199.09,-15 190.59,-15 182.22,-15"/>
<polygon fill="#63b8ff" stroke="#63b8ff" points="207.75,-18.5 217.75,-15 207.75,-11.5 207.75,-18.5"/>
</a>
</g>
</g>
</g>
</svg>
