<?xml version="1.0" encoding="UTF-8" standalone="no"?>
<!DOCTYPE svg PUBLIC "-//W3C//DTD SVG 1.1//EN"
 "http://www.w3.org/Graphics/SVG/1.1/DTD/svg11.dtd">
<!-- Generated by graphviz version 2.43.0 (0)
 -->
<!-- Title: NtripResponder Pages: 1 -->
<svg width="706pt" height="1078pt"
 viewBox="0.00 0.00 706.00 1078.00" xmlns="http://www.w3.org/2000/svg" xmlns:xlink="http://www.w3.org/1999/xlink">
<g id="graph0" class="graph" transform="scale(1 1) rotate(0) translate(4 1074)">
<title>NtripResponder</title>
<!-- Node1 -->
<g id="Node000001" class="node">
<title>Node1</title>
<g id="a_Node000001"><a xlink:href="structNtripResponder.html" target="_top" xlink:title=" ">
<path fill="white" stroke="#666666" stroke-width="2" d="M481.5,-87C481.5,-87 338.5,-87 338.5,-87 332.5,-87 326.5,-81 326.5,-75 326.5,-75 326.5,-12 326.5,-12 326.5,-6 332.5,0 338.5,0 338.5,0 481.5,0 481.5,0 487.5,0 493.5,-6 493.5,-12 493.5,-12 493.5,-75 493.5,-75 493.5,-81 487.5,-87 481.5,-87"/>
<text text-anchor="start" x="372.5" y="-70.5" font-family="Helvetica,sans-Serif" font-size="10.00">NtripResponder</text>
<text text-anchor="start" x="408.5" y="-55.5" font-family="Helvetica,sans-Serif" font-size="10.00"> </text>
<text text-anchor="start" x="339" y="-40.5" font-family="Helvetica,sans-Serif" font-size="10.00">+</text>
<text text-anchor="start" x="352" y="-40.5" font-family="Helvetica,sans-Serif" font-size="10.00">NtripResponder()</text>
<text text-anchor="start" x="339" y="-25.5" font-family="Helvetica,sans-Serif" font-size="10.00">+</text>
<text text-anchor="start" x="352" y="-25.5" font-family="Helvetica,sans-Serif" font-size="10.00">requestResponseHandler()</text>
<text text-anchor="start" x="339" y="-10.5" font-family="Helvetica,sans-Serif" font-size="10.00">+</text>
<text text-anchor="start" x="352" y="-10.5" font-family="Helvetica,sans-Serif" font-size="10.00">serverResponse()</text>
<polygon fill="#666666" stroke="#666666" points="335,-65.5 335,-65.5 486,-65.5 486,-65.5 335,-65.5"/>
<polygon fill="#666666" stroke="#666666" points="335,-50.5 335,-50.5 486,-50.5 486,-50.5 335,-50.5"/>
<polygon fill="none" stroke="#666666" points="334.5,-4 334.5,-83 485.5,-83 485.5,-4 334.5,-4"/>
</a>
</g>
</g>
<!-- Node2 -->
<g id="Node000002" class="node">
<title>Node2</title>
<g id="a_Node000002"><a xlink:href="structTcpSocket.html" target="_top" xlink:title=" ">
<path fill="white" stroke="#666666" d="M481.5,-676C481.5,-676 338.5,-676 338.5,-676 332.5,-676 326.5,-670 326.5,-664 326.5,-664 326.5,-136 326.5,-136 326.5,-130 332.5,-124 338.5,-124 338.5,-124 481.5,-124 481.5,-124 487.5,-124 493.5,-130 493.5,-136 493.5,-136 493.5,-664 493.5,-664 493.5,-670 487.5,-676 481.5,-676"/>
<text text-anchor="start" x="386" y="-660" font-family="Helvetica,sans-Serif" font-size="10.00">TcpSocket</text>
<text text-anchor="start" x="339" y="-645" font-family="Helvetica,sans-Serif" font-size="10.00">+</text>
<text text-anchor="start" x="352" y="-645" font-family="Helvetica,sans-Serif" font-size="10.00">reconnectDelay</text>
<text text-anchor="start" x="339" y="-630" font-family="Helvetica,sans-Serif" font-size="10.00">+</text>
<text text-anchor="start" x="352" y="-630" font-family="Helvetica,sans-Serif" font-size="10.00">disconnectionCount</text>
<text text-anchor="start" x="339" y="-615" font-family="Helvetica,sans-Serif" font-size="10.00">+</text>
<text text-anchor="start" x="352" y="-615" font-family="Helvetica,sans-Serif" font-size="10.00">isConnected</text>
<text text-anchor="start" x="339" y="-600" font-family="Helvetica,sans-Serif" font-size="10.00">+</text>
<text text-anchor="start" x="352" y="-600" font-family="Helvetica,sans-Serif" font-size="10.00">numberErroredChunks</text>
<text text-anchor="start" x="339" y="-585" font-family="Helvetica,sans-Serif" font-size="10.00">+</text>
<text text-anchor="start" x="352" y="-585" font-family="Helvetica,sans-Serif" font-size="10.00">logHttpSentReceived</text>
<text text-anchor="start" x="339" y="-570" font-family="Helvetica,sans-Serif" font-size="10.00">+</text>
<text text-anchor="start" x="352" y="-570" font-family="Helvetica,sans-Serif" font-size="10.00">content_length</text>
<text text-anchor="start" x="339" y="-555" font-family="Helvetica,sans-Serif" font-size="10.00">+</text>
<text text-anchor="start" x="352" y="-555" font-family="Helvetica,sans-Serif" font-size="10.00">sslContext</text>
<text text-anchor="start" x="339" y="-540" font-family="Helvetica,sans-Serif" font-size="10.00">+</text>
<text text-anchor="start" x="352" y="-540" font-family="Helvetica,sans-Serif" font-size="10.00">ioService</text>
<text text-anchor="start" x="339" y="-525" font-family="Helvetica,sans-Serif" font-size="10.00">#</text>
<text text-anchor="start" x="352" y="-525" font-family="Helvetica,sans-Serif" font-size="10.00">_socket</text>
<text text-anchor="start" x="339" y="-510" font-family="Helvetica,sans-Serif" font-size="10.00">#</text>
<text text-anchor="start" x="352" y="-510" font-family="Helvetica,sans-Serif" font-size="10.00">socket_ptr</text>
<text text-anchor="start" x="339" y="-495" font-family="Helvetica,sans-Serif" font-size="10.00">#</text>
<text text-anchor="start" x="352" y="-495" font-family="Helvetica,sans-Serif" font-size="10.00">_sslsocket</text>
<text text-anchor="start" x="339" y="-480" font-family="Helvetica,sans-Serif" font-size="10.00">#</text>
<text text-anchor="start" x="352" y="-480" font-family="Helvetica,sans-Serif" font-size="10.00">_resolver</text>
<text text-anchor="start" x="339" y="-465" font-family="Helvetica,sans-Serif" font-size="10.00">#</text>
<text text-anchor="start" x="352" y="-465" font-family="Helvetica,sans-Serif" font-size="10.00">timer</text>
<text text-anchor="start" x="339" y="-450" font-family="Helvetica,sans-Serif" font-size="10.00">#</text>
<text text-anchor="start" x="352" y="-450" font-family="Helvetica,sans-Serif" font-size="10.00">request</text>
<text text-anchor="start" x="339" y="-435" font-family="Helvetica,sans-Serif" font-size="10.00">#</text>
<text text-anchor="start" x="352" y="-435" font-family="Helvetica,sans-Serif" font-size="10.00">downloadBuf</text>
<text text-anchor="start" x="339" y="-420" font-family="Helvetica,sans-Serif" font-size="10.00">+</text>
<text text-anchor="start" x="352" y="-420" font-family="Helvetica,sans-Serif" font-size="10.00">TcpSocket()</text>
<text text-anchor="start" x="339" y="-405" font-family="Helvetica,sans-Serif" font-size="10.00">+</text>
<text text-anchor="start" x="352" y="-405" font-family="Helvetica,sans-Serif" font-size="10.00">setUrl()</text>
<text text-anchor="start" x="339" y="-390" font-family="Helvetica,sans-Serif" font-size="10.00">+</text>
<text text-anchor="start" x="352" y="-390" font-family="Helvetica,sans-Serif" font-size="10.00">connect()</text>
<text text-anchor="start" x="339" y="-375" font-family="Helvetica,sans-Serif" font-size="10.00">+</text>
<text text-anchor="start" x="352" y="-375" font-family="Helvetica,sans-Serif" font-size="10.00">disconnect()</text>
<text text-anchor="start" x="339" y="-360" font-family="Helvetica,sans-Serif" font-size="10.00">+</text>
<text text-anchor="start" x="352" y="-360" font-family="Helvetica,sans-Serif" font-size="10.00">startRead()</text>
<text text-anchor="start" x="339" y="-345" font-family="Helvetica,sans-Serif" font-size="10.00">+</text>
<text text-anchor="start" x="352" y="-345" font-family="Helvetica,sans-Serif" font-size="10.00">timeoutHandler()</text>
<text text-anchor="start" x="339" y="-330" font-family="Helvetica,sans-Serif" font-size="10.00">+</text>
<text text-anchor="start" x="352" y="-330" font-family="Helvetica,sans-Serif" font-size="10.00">delayedReconnect()</text>
<text text-anchor="start" x="339" y="-315" font-family="Helvetica,sans-Serif" font-size="10.00">+</text>
<text text-anchor="start" x="352" y="-315" font-family="Helvetica,sans-Serif" font-size="10.00">connectHandler()</text>
<text text-anchor="start" x="339" y="-300" font-family="Helvetica,sans-Serif" font-size="10.00">+</text>
<text text-anchor="start" x="352" y="-300" font-family="Helvetica,sans-Serif" font-size="10.00">requestResponseHandler()</text>
<text text-anchor="start" x="339" y="-285" font-family="Helvetica,sans-Serif" font-size="10.00">+</text>
<text text-anchor="start" x="352" y="-285" font-family="Helvetica,sans-Serif" font-size="10.00">logChunkError()</text>
<text text-anchor="start" x="339" y="-270" font-family="Helvetica,sans-Serif" font-size="10.00">+</text>
<text text-anchor="start" x="352" y="-270" font-family="Helvetica,sans-Serif" font-size="10.00">dataChunkDownloaded()</text>
<text text-anchor="start" x="339" y="-255" font-family="Helvetica,sans-Serif" font-size="10.00">+</text>
<text text-anchor="start" x="352" y="-255" font-family="Helvetica,sans-Serif" font-size="10.00">readContentDownloaded()</text>
<text text-anchor="start" x="339" y="-240" font-family="Helvetica,sans-Serif" font-size="10.00">+</text>
<text text-anchor="start" x="352" y="-240" font-family="Helvetica,sans-Serif" font-size="10.00">connected()</text>
<text text-anchor="start" x="339" y="-225" font-family="Helvetica,sans-Serif" font-size="10.00">+</text>
<text text-anchor="start" x="352" y="-225" font-family="Helvetica,sans-Serif" font-size="10.00">messageChunkLog()</text>
<text text-anchor="start" x="339" y="-210" font-family="Helvetica,sans-Serif" font-size="10.00">+</text>
<text text-anchor="start" x="352" y="-210" font-family="Helvetica,sans-Serif" font-size="10.00">networkLog()</text>
<text text-anchor="start" x="339" y="-195" font-family="Helvetica,sans-Serif" font-size="10.00">+</text>
<text text-anchor="start" x="352" y="-195" font-family="Helvetica,sans-Serif" font-size="10.00">getData()</text>
<text text-anchor="start" x="339" y="-180" font-family="Helvetica,sans-Serif" font-size="10.00">+</text>
<text text-anchor="start" x="352" y="-180" font-family="Helvetica,sans-Serif" font-size="10.00">connectionError()</text>
<text text-anchor="start" x="339" y="-165" font-family="Helvetica,sans-Serif" font-size="10.00">+</text>
<text text-anchor="start" x="352" y="-165" font-family="Helvetica,sans-Serif" font-size="10.00">~TcpSocket()</text>
<text text-anchor="start" x="339" y="-150" font-family="Helvetica,sans-Serif" font-size="10.00">+</text>
<text text-anchor="start" x="352" y="-150" font-family="Helvetica,sans-Serif" font-size="10.00">runService()</text>
<text text-anchor="start" x="339" y="-135" font-family="Helvetica,sans-Serif" font-size="10.00">+</text>
<text text-anchor="start" x="352" y="-135" font-family="Helvetica,sans-Serif" font-size="10.00">startClients()</text>
<polygon fill="#666666" stroke="#666666" points="335,-655 335,-655 486,-655 486,-655 335,-655"/>
<polygon fill="#666666" stroke="#666666" points="335,-430 335,-430 350,-430 350,-430 335,-430"/>
<polygon fill="#666666" stroke="#666666" points="350,-430 350,-430 486,-430 486,-430 350,-430"/>
<polygon fill="none" stroke="#666666" points="334.5,-128 334.5,-672 485.5,-672 485.5,-128 334.5,-128"/>
</a>
</g>
</g>
<!-- Node2&#45;&gt;Node1 -->
<g id="edge1_Node000001_Node000002" class="edge">
<title>Node2&#45;&gt;Node1</title>
<g id="a_edge1_Node000001_Node000002"><a xlink:title=" ">
<path fill="none" stroke="#63b8ff" d="M410,-113.42C410,-103.87 410,-95 410,-87.01"/>
<polygon fill="none" stroke="#63b8ff" points="406.5,-113.62 410,-123.62 413.5,-113.62 406.5,-113.62"/>
</a>
</g>
</g>
<!-- Node3 -->
<g id="Node000003" class="node">
<title>Node3</title>
<g id="a_Node000003"><a xlink:href="structNetworkStatistics.html" target="_top" xlink:title=" ">
<path fill="#fff0f0" stroke="red" d="M166,-900C166,-900 12,-900 12,-900 6,-900 0,-894 0,-888 0,-888 0,-735 0,-735 0,-729 6,-723 12,-723 12,-723 166,-723 166,-723 172,-723 178,-729 178,-735 178,-735 178,-888 178,-888 178,-894 172,-900 166,-900"/>
<text text-anchor="start" x="45.5" y="-883.5" font-family="Helvetica,sans-Serif" font-size="10.00">NetworkStatistics</text>
<text text-anchor="start" x="12" y="-868.5" font-family="Helvetica,sans-Serif" font-size="10.00">+</text>
<text text-anchor="start" x="25" y="-868.5" font-family="Helvetica,sans-Serif" font-size="10.00">connectCount</text>
<text text-anchor="start" x="12" y="-853.5" font-family="Helvetica,sans-Serif" font-size="10.00">+</text>
<text text-anchor="start" x="25" y="-853.5" font-family="Helvetica,sans-Serif" font-size="10.00">disconnectCount</text>
<text text-anchor="start" x="12" y="-838.5" font-family="Helvetica,sans-Serif" font-size="10.00">+</text>
<text text-anchor="start" x="25" y="-838.5" font-family="Helvetica,sans-Serif" font-size="10.00">chunksSent</text>
<text text-anchor="start" x="12" y="-823.5" font-family="Helvetica,sans-Serif" font-size="10.00">+</text>
<text text-anchor="start" x="25" y="-823.5" font-family="Helvetica,sans-Serif" font-size="10.00">chunksReceived</text>
<text text-anchor="start" x="12" y="-808.5" font-family="Helvetica,sans-Serif" font-size="10.00">+</text>
<text text-anchor="start" x="25" y="-808.5" font-family="Helvetica,sans-Serif" font-size="10.00">getNetworkStatistics()</text>
<text text-anchor="start" x="12" y="-793.5" font-family="Helvetica,sans-Serif" font-size="10.00">+</text>
<text text-anchor="start" x="25" y="-793.5" font-family="Helvetica,sans-Serif" font-size="10.00">onConnectedStatistics()</text>
<text text-anchor="start" x="12" y="-778.5" font-family="Helvetica,sans-Serif" font-size="10.00">+</text>
<text text-anchor="start" x="25" y="-778.5" font-family="Helvetica,sans-Serif" font-size="10.00">onDisconnectedStatistics()</text>
<text text-anchor="start" x="12" y="-763.5" font-family="Helvetica,sans-Serif" font-size="10.00">+</text>
<text text-anchor="start" x="25" y="-763.5" font-family="Helvetica,sans-Serif" font-size="10.00">onChunkSentStatistics()</text>
<text text-anchor="start" x="12" y="-748.5" font-family="Helvetica,sans-Serif" font-size="10.00">+</text>
<text text-anchor="start" x="25" y="-748.5" font-family="Helvetica,sans-Serif" font-size="10.00">onChunkReceivedStatistics()</text>
<text text-anchor="start" x="12" y="-733.5" font-family="Helvetica,sans-Serif" font-size="10.00">+</text>
<text text-anchor="start" x="25" y="-733.5" font-family="Helvetica,sans-Serif" font-size="10.00">onErrorStatistics()</text>
<polygon fill="red" stroke="red" points="8,-878.5 8,-878.5 170,-878.5 170,-878.5 8,-878.5"/>
<polygon fill="red" stroke="red" points="8,-818.5 8,-818.5 23,-818.5 23,-818.5 8,-818.5"/>
<polygon fill="red" stroke="red" points="23,-818.5 23,-818.5 170,-818.5 170,-818.5 23,-818.5"/>
<polygon fill="none" stroke="red" points="8,-727 8,-896 170,-896 170,-727 8,-727"/>
</a>
</g>
</g>
<!-- Node3&#45;&gt;Node2 -->
<g id="edge2_Node000002_Node000003" class="edge">
<title>Node3&#45;&gt;Node2</title>
<g id="a_edge2_Node000002_Node000003"><a xlink:title=" ">
<path fill="none" stroke="#63b8ff" d="M164.12,-714.67C212.74,-652.64 276.1,-571.81 326.33,-507.74"/>
<polygon fill="none" stroke="#63b8ff" points="161.08,-712.87 157.67,-722.9 166.59,-717.19 161.08,-712.87"/>
</a>
</g>
</g>
<!-- Node4 -->
<g id="Node000004" class="node">
<title>Node4</title>
<g id="a_Node000004"><a xlink:title=" ">
<path fill="white" stroke="#666666" d="M239,-1070C239,-1070 209,-1070 209,-1070 203,-1070 197,-1064 197,-1058 197,-1058 197,-1025 197,-1025 197,-1019 203,-1013 209,-1013 209,-1013 239,-1013 239,-1013 245,-1013 251,-1019 251,-1025 251,-1025 251,-1058 251,-1058 251,-1064 245,-1070 239,-1070"/>
<text text-anchor="start" x="210" y="-1053.5" font-family="Helvetica,sans-Serif" font-size="10.00">string</text>
<text text-anchor="start" x="222" y="-1038.5" font-family="Helvetica,sans-Serif" font-size="10.00"> </text>
<text text-anchor="start" x="222" y="-1023.5" font-family="Helvetica,sans-Serif" font-size="10.00"> </text>
<polygon fill="#666666" stroke="#666666" points="205,-1048.5 205,-1048.5 243,-1048.5 243,-1048.5 205,-1048.5"/>
<polygon fill="#666666" stroke="#666666" points="205,-1033.5 205,-1033.5 243,-1033.5 243,-1033.5 205,-1033.5"/>
<polygon fill="none" stroke="#666666" points="205,-1017 205,-1066 243,-1066 243,-1017 205,-1017"/>
</a>
</g>
</g>
<!-- Node4&#45;&gt;Node2 -->
<g id="edge7_Node000002_Node000004" class="edge">
<title>Node4&#45;&gt;Node2</title>
<g id="a_edge7_Node000002_Node000004"><a xlink:title=" ">
<path fill="none" stroke="#63b8ff" d="M230.72,-1012.7C231.96,-1006.88 233.13,-1000.76 234,-995 252.17,-875.05 225.35,-840.12 257,-723 271.97,-667.61 296.16,-610.12 320.93,-559.3"/>
<polygon fill="none" stroke="#63b8ff" points="321.08,-558.99 320.15,-551.84 326.39,-548.23 327.32,-555.38 321.08,-558.99"/>
</a>
</g>
<text text-anchor="middle" x="299.5" y="-820" font-family="Helvetica,sans-Serif" font-size="10.00" fill="grey"> #readUntilString</text>
<text text-anchor="middle" x="299.5" y="-809" font-family="Helvetica,sans-Serif" font-size="10.00" fill="grey">#requestString</text>
<text text-anchor="middle" x="299.5" y="-798" font-family="Helvetica,sans-Serif" font-size="10.00" fill="grey">#responseString</text>
</g>
<!-- Node4&#45;&gt;Node3 -->
<g id="edge3_Node000003_Node000004" class="edge">
<title>Node4&#45;&gt;Node3</title>
<g id="a_edge3_Node000003_Node000004"><a xlink:title=" ">
<path fill="none" stroke="#63b8ff" d="M196.86,-1037.19C153.61,-1031.28 72.19,-1017.43 55,-995 36.91,-971.39 36.28,-941.09 42.87,-911.99"/>
<polygon fill="none" stroke="#63b8ff" points="42.96,-911.66 40.6,-904.84 45.98,-900.05 48.34,-906.86 42.96,-911.66"/>
</a>
</g>
<text text-anchor="middle" x="116" y="-959.5" font-family="Helvetica,sans-Serif" font-size="10.00" fill="grey"> +networkTraceFilename</text>
<text text-anchor="middle" x="116" y="-948.5" font-family="Helvetica,sans-Serif" font-size="10.00" fill="grey">+streamName</text>
</g>
<!-- Node7 -->
<g id="Node000007" class="node">
<title>Node7</title>
<g id="a_Node000007"><a xlink:href="structSerialStream.html" target="_top" xlink:title=" ">
<path fill="#fff0f0" stroke="red" d="M457,-877.5C457,-877.5 363,-877.5 363,-877.5 357,-877.5 351,-871.5 351,-865.5 351,-865.5 351,-757.5 351,-757.5 351,-751.5 357,-745.5 363,-745.5 363,-745.5 457,-745.5 457,-745.5 463,-745.5 469,-751.5 469,-757.5 469,-757.5 469,-865.5 469,-865.5 469,-871.5 463,-877.5 457,-877.5"/>
<text text-anchor="start" x="378" y="-861.5" font-family="Helvetica,sans-Serif" font-size="10.00">SerialStream</text>
<text text-anchor="start" x="363" y="-846.5" font-family="Helvetica,sans-Serif" font-size="10.00">+</text>
<text text-anchor="start" x="376" y="-846.5" font-family="Helvetica,sans-Serif" font-size="10.00">fileDescriptor</text>
<text text-anchor="start" x="363" y="-831.5" font-family="Helvetica,sans-Serif" font-size="10.00">+</text>
<text text-anchor="start" x="376" y="-831.5" font-family="Helvetica,sans-Serif" font-size="10.00">SerialStream()</text>
<text text-anchor="start" x="363" y="-816.5" font-family="Helvetica,sans-Serif" font-size="10.00">+</text>
<text text-anchor="start" x="376" y="-816.5" font-family="Helvetica,sans-Serif" font-size="10.00">SerialStream()</text>
<text text-anchor="start" x="363" y="-801.5" font-family="Helvetica,sans-Serif" font-size="10.00">+</text>
<text text-anchor="start" x="376" y="-801.5" font-family="Helvetica,sans-Serif" font-size="10.00">openStream()</text>
<text text-anchor="start" x="363" y="-786.5" font-family="Helvetica,sans-Serif" font-size="10.00">+</text>
<text text-anchor="start" x="376" y="-786.5" font-family="Helvetica,sans-Serif" font-size="10.00">getData()</text>
<text text-anchor="start" x="363" y="-771.5" font-family="Helvetica,sans-Serif" font-size="10.00">+</text>
<text text-anchor="start" x="376" y="-771.5" font-family="Helvetica,sans-Serif" font-size="10.00">getIStream_ptr()</text>
<text text-anchor="start" x="363" y="-756.5" font-family="Helvetica,sans-Serif" font-size="10.00">+</text>
<text text-anchor="start" x="376" y="-756.5" font-family="Helvetica,sans-Serif" font-size="10.00">~SerialStream()</text>
<polygon fill="red" stroke="red" points="359,-856.5 359,-856.5 461,-856.5 461,-856.5 359,-856.5"/>
<polygon fill="red" stroke="red" points="359,-841.5 359,-841.5 374,-841.5 374,-841.5 359,-841.5"/>
<polygon fill="red" stroke="red" points="374,-841.5 374,-841.5 461,-841.5 461,-841.5 374,-841.5"/>
<polygon fill="none" stroke="red" points="359,-749.5 359,-873.5 461,-873.5 461,-749.5 359,-749.5"/>
</a>
</g>
</g>
<!-- Node4&#45;&gt;Node7 -->
<g id="edge5_Node000007_Node000004" class="edge">
<title>Node4&#45;&gt;Node7</title>
<g id="a_edge5_Node000007_Node000004"><a xlink:title=" ">
<path fill="none" stroke="#63b8ff" d="M229.96,-1012.99C237.35,-985.26 252.6,-943.07 281,-918 300.6,-900.7 315.32,-914.62 337,-900 342.88,-896.03 348.55,-891.46 353.95,-886.53"/>
<polygon fill="none" stroke="#63b8ff" points="354.18,-886.31 355.68,-879.25 362.77,-877.93 361.27,-884.98 354.18,-886.31"/>
</a>
</g>
<text text-anchor="middle" x="298" y="-954" font-family="Helvetica,sans-Serif" font-size="10.00" fill="grey"> +path</text>
</g>
<!-- Node11 -->
<g id="Node000011" class="node">
<title>Node11</title>
<g id="a_Node000011"><a xlink:href="structURL.html" target="_top" xlink:title=" ">
<path fill="#fff0f0" stroke="red" d="M564.5,-855C564.5,-855 499.5,-855 499.5,-855 493.5,-855 487.5,-849 487.5,-843 487.5,-843 487.5,-780 487.5,-780 487.5,-774 493.5,-768 499.5,-768 499.5,-768 564.5,-768 564.5,-768 570.5,-768 576.5,-774 576.5,-780 576.5,-780 576.5,-843 576.5,-843 576.5,-849 570.5,-855 564.5,-855"/>
<text text-anchor="start" x="522.5" y="-838.5" font-family="Helvetica,sans-Serif" font-size="10.00">URL</text>
<text text-anchor="start" x="500" y="-823.5" font-family="Helvetica,sans-Serif" font-size="10.00">+</text>
<text text-anchor="start" x="513" y="-823.5" font-family="Helvetica,sans-Serif" font-size="10.00">port</text>
<text text-anchor="start" x="500" y="-808.5" font-family="Helvetica,sans-Serif" font-size="10.00">+</text>
<text text-anchor="start" x="513" y="-808.5" font-family="Helvetica,sans-Serif" font-size="10.00">URL()</text>
<text text-anchor="start" x="500" y="-793.5" font-family="Helvetica,sans-Serif" font-size="10.00">+</text>
<text text-anchor="start" x="513" y="-793.5" font-family="Helvetica,sans-Serif" font-size="10.00">URL()</text>
<text text-anchor="start" x="500" y="-778.5" font-family="Helvetica,sans-Serif" font-size="10.00">+</text>
<text text-anchor="start" x="513" y="-778.5" font-family="Helvetica,sans-Serif" font-size="10.00">sanitised()</text>
<polygon fill="red" stroke="red" points="496,-833.5 496,-833.5 569,-833.5 569,-833.5 496,-833.5"/>
<polygon fill="red" stroke="red" points="496,-818.5 496,-818.5 511,-818.5 511,-818.5 496,-818.5"/>
<polygon fill="red" stroke="red" points="511,-818.5 511,-818.5 569,-818.5 569,-818.5 511,-818.5"/>
<polygon fill="none" stroke="red" points="495.5,-772 495.5,-851 568.5,-851 568.5,-772 495.5,-772"/>
</a>
</g>
</g>
<!-- Node4&#45;&gt;Node11 -->
<g id="edge10_Node000011_Node000004" class="edge">
<title>Node4&#45;&gt;Node11</title>
<g id="a_edge10_Node000011_Node000004"><a xlink:title=" ">
<path fill="none" stroke="#63b8ff" d="M251.23,-1019.92C287.58,-993.26 354.74,-946.81 418,-918 443.34,-906.46 455.92,-916.95 478,-900 489.84,-890.91 499.7,-878.43 507.62,-865.74"/>
<polygon fill="none" stroke="#63b8ff" points="507.78,-865.47 507.34,-858.27 513.81,-855.1 514.25,-862.3 507.78,-865.47"/>
</a>
</g>
<text text-anchor="middle" x="442.5" y="-987" font-family="Helvetica,sans-Serif" font-size="10.00" fill="grey"> +host</text>
<text text-anchor="middle" x="442.5" y="-976" font-family="Helvetica,sans-Serif" font-size="10.00" fill="grey">+pass</text>
<text text-anchor="middle" x="442.5" y="-965" font-family="Helvetica,sans-Serif" font-size="10.00" fill="grey">+path</text>
<text text-anchor="middle" x="442.5" y="-954" font-family="Helvetica,sans-Serif" font-size="10.00" fill="grey">+portStr</text>
<text text-anchor="middle" x="442.5" y="-943" font-family="Helvetica,sans-Serif" font-size="10.00" fill="grey">+protocol</text>
<text text-anchor="middle" x="442.5" y="-932" font-family="Helvetica,sans-Serif" font-size="10.00" fill="grey">+url</text>
<text text-anchor="middle" x="442.5" y="-921" font-family="Helvetica,sans-Serif" font-size="10.00" fill="grey">+user</text>
</g>
<!-- Node7&#45;&gt;Node2 -->
<g id="edge4_Node000002_Node000007" class="edge">
<title>Node7&#45;&gt;Node2</title>
<g id="a_edge4_Node000002_Node000007"><a xlink:title=" ">
<path fill="none" stroke="#63b8ff" d="M410,-734.94C410,-717.14 410,-697.14 410,-676"/>
<polygon fill="none" stroke="#63b8ff" points="406.5,-735.16 410,-745.16 413.5,-735.16 406.5,-735.16"/>
</a>
</g>
</g>
<!-- Node9 -->
<g id="Node000009" class="node">
<title>Node9</title>
<g id="a_Node000009"><a xlink:title=" ">
<path fill="#fff0f0" stroke="red" d="M577.5,-1070C577.5,-1070 500.5,-1070 500.5,-1070 494.5,-1070 488.5,-1064 488.5,-1058 488.5,-1058 488.5,-1025 488.5,-1025 488.5,-1019 494.5,-1013 500.5,-1013 500.5,-1013 577.5,-1013 577.5,-1013 583.5,-1013 589.5,-1019 589.5,-1025 589.5,-1025 589.5,-1058 589.5,-1058 589.5,-1064 583.5,-1070 577.5,-1070"/>
<text text-anchor="start" x="502" y="-1053.5" font-family="Helvetica,sans-Serif" font-size="10.00">vector&lt; char &gt;</text>
<text text-anchor="start" x="537.5" y="-1038.5" font-family="Helvetica,sans-Serif" font-size="10.00"> </text>
<text text-anchor="start" x="537.5" y="-1023.5" font-family="Helvetica,sans-Serif" font-size="10.00"> </text>
<polygon fill="red" stroke="red" points="497,-1048.5 497,-1048.5 582,-1048.5 582,-1048.5 497,-1048.5"/>
<polygon fill="red" stroke="red" points="497,-1033.5 497,-1033.5 582,-1033.5 582,-1033.5 497,-1033.5"/>
<polygon fill="none" stroke="red" points="496.5,-1017 496.5,-1066 581.5,-1066 581.5,-1017 496.5,-1017"/>
</a>
</g>
</g>
<!-- Node9&#45;&gt;Node2 -->
<g id="edge8_Node000002_Node000009" class="edge">
<title>Node9&#45;&gt;Node2</title>
<g id="a_edge8_Node000002_Node000009"><a xlink:title=" ">
<path fill="none" stroke="#63b8ff" d="M579.29,-1012.95C584.44,-1007.62 588.96,-1001.61 592,-995 606.76,-962.88 614.34,-827.22 586,-723 567.86,-656.3 533.49,-588.3 499.89,-532.08"/>
<polygon fill="none" stroke="#63b8ff" points="499.84,-531.99 493.31,-528.93 493.63,-521.72 500.16,-524.79 499.84,-531.99"/>
</a>
</g>
<text text-anchor="middle" x="651.5" y="-809" font-family="Helvetica,sans-Serif" font-size="10.00" fill="grey"> #receivedTcpData</text>
</g>
<!-- Node9&#45;&gt;Node7 -->
<g id="edge6_Node000007_Node000009" class="edge">
<title>Node9&#45;&gt;Node7</title>
<g id="a_edge6_Node000007_Node000009"><a xlink:title=" ">
<path fill="none" stroke="#63b8ff" d="M523.44,-1013C506.08,-982.32 477.25,-931.36 453,-888.49"/>
<polygon fill="none" stroke="#63b8ff" points="452.85,-888.23 446.41,-884.98 446.94,-877.79 453.37,-881.04 452.85,-888.23"/>
</a>
</g>
<text text-anchor="middle" x="549.5" y="-954" font-family="Helvetica,sans-Serif" font-size="10.00" fill="grey"> +receivedData</text>
</g>
<!-- Node11&#45;&gt;Node2 -->
<g id="edge9_Node000002_Node000011" class="edge">
<title>Node11&#45;&gt;Node2</title>
<g id="a_edge9_Node000002_Node000011"><a xlink:title=" ">
<path fill="none" stroke="#63b8ff" d="M519.29,-767.84C512.96,-746.58 504.7,-718.88 495.57,-688.22"/>
<polygon fill="none" stroke="#63b8ff" points="495.45,-687.83 489.91,-683.22 492.03,-676.33 497.57,-680.94 495.45,-687.83"/>
</a>
</g>
<text text-anchor="middle" x="511.5" y="-697" font-family="Helvetica,sans-Serif" font-size="10.00" fill="grey"> +url</text>
</g>
</g>
</svg>
