<?xml version="1.0" encoding="UTF-8" standalone="no"?>
<!DOCTYPE svg PUBLIC "-//W3C//DTD SVG 1.1//EN"
 "http://www.w3.org/Graphics/SVG/1.1/DTD/svg11.dtd">
<!-- Generated by graphviz version 2.43.0 (0)
 -->
<!-- Title: VectorPos::hgt Pages: 1 -->
<svg width="400pt" height="818pt"
 viewBox="0.00 0.00 400.00 818.07" xmlns="http://www.w3.org/2000/svg" xmlns:xlink="http://www.w3.org/1999/xlink">
<g id="graph0" class="graph" transform="scale(1 1) rotate(0) translate(4 814.07)">
<title>VectorPos::hgt</title>
<!-- Node1 -->
<g id="Node000001" class="node">
<title>Node1</title>
<g id="a_Node000001"><a xlink:href="structVectorPos.html#a9517f77c95322d34dc896a88db4a804f" target="_top" xlink:title=" ">
<path fill="#fff0f0" stroke="red" stroke-width="2" d="M385.67,-404.57C385.67,-404.57 312.33,-404.57 312.33,-404.57 309.17,-404.57 306,-401.41 306,-398.24 306,-398.24 306,-391.91 306,-391.91 306,-388.74 309.17,-385.57 312.33,-385.57 312.33,-385.57 385.67,-385.57 385.67,-385.57 388.83,-385.57 392,-388.74 392,-391.91 392,-391.91 392,-398.24 392,-398.24 392,-401.41 388.83,-404.57 385.67,-404.57"/>
<text text-anchor="middle" x="349" y="-392.57" font-family="Helvetica,sans-Serif" font-size="10.00">VectorPos::hgt</text>
</a>
</g>
</g>
<!-- Node2 -->
<g id="Node000002" class="node">
<title>Node2</title>
<g id="a_Node000002"><a xlink:href="structOrbitIntegrator.html#a3ed19521cfc21cdaa2d7c8fa4f385499" target="_top" xlink:title=" ">
<path fill="#fff0f0" stroke="red" d="M260,-810.07C260,-810.07 143,-810.07 143,-810.07 138,-810.07 133,-805.07 133,-800.07 133,-800.07 133,-790.07 133,-790.07 133,-785.07 138,-780.07 143,-780.07 143,-780.07 260,-780.07 260,-780.07 265,-780.07 270,-785.07 270,-790.07 270,-790.07 270,-800.07 270,-800.07 270,-805.07 265,-810.07 260,-810.07"/>
<text text-anchor="start" x="141" y="-798.07" font-family="Helvetica,sans-Serif" font-size="10.00">OrbitIntegrator::compute</text>
<text text-anchor="middle" x="201.5" y="-787.07" font-family="Helvetica,sans-Serif" font-size="10.00">Acceleration</text>
</a>
</g>
</g>
<!-- Node1&#45;&gt;Node2 -->
<g id="edge1_Node000001_Node000002" class="edge">
<title>Node1&#45;&gt;Node2</title>
<g id="a_edge1_Node000001_Node000002"><a xlink:title=" ">
<path fill="none" stroke="#63b8ff" d="M346.42,-414.87C340.51,-484.46 317.51,-716.56 270,-771.07 266.98,-774.54 263.42,-777.51 259.54,-780.05"/>
<polygon fill="#63b8ff" stroke="#63b8ff" points="349.92,-415.07 347.25,-404.82 342.94,-414.5 349.92,-415.07"/>
</a>
</g>
</g>
<!-- Node4 -->
<g id="Node000004" class="node">
<title>Node4</title>
<g id="a_Node000004"><a xlink:href="coordinates_8cpp.html#a7efa6307cb6b9c8bc318bc47d698fed2" target="_top" xlink:title="transform ecef to geodetic postion args : double *r I ecef position {x,y,z} (m) notes : WGS84,...">
<path fill="#fff0f0" stroke="red" d="M225.67,-761.57C225.67,-761.57 177.33,-761.57 177.33,-761.57 174.17,-761.57 171,-758.41 171,-755.24 171,-755.24 171,-748.91 171,-748.91 171,-745.74 174.17,-742.57 177.33,-742.57 177.33,-742.57 225.67,-742.57 225.67,-742.57 228.83,-742.57 232,-745.74 232,-748.91 232,-748.91 232,-755.24 232,-755.24 232,-758.41 228.83,-761.57 225.67,-761.57"/>
<text text-anchor="middle" x="201.5" y="-749.57" font-family="Helvetica,sans-Serif" font-size="10.00">ecef2pos</text>
</a>
</g>
</g>
<!-- Node1&#45;&gt;Node4 -->
<g id="edge2_Node000001_Node000004" class="edge">
<title>Node1&#45;&gt;Node4</title>
<g id="a_edge2_Node000001_Node000004"><a xlink:title=" ">
<path fill="none" stroke="#63b8ff" d="M345.87,-414.64C338.55,-478.68 312.47,-680.58 270,-728.07 260.3,-738.92 245.37,-744.87 232.01,-748.12"/>
<polygon fill="#63b8ff" stroke="#63b8ff" points="349.36,-414.99 346.99,-404.66 342.4,-414.21 349.36,-414.99"/>
</a>
</g>
</g>
<!-- Node5 -->
<g id="Node000005" class="node">
<title>Node5</title>
<g id="a_Node000005"><a xlink:href="spp_8cpp.html#ad923112e4e6dfdfc8b050b68851fe1d0" target="_top" xlink:title="Estimate receiver position and biases using code measurements.">
<path fill="#fff0f0" stroke="red" d="M66.67,-349.57C66.67,-349.57 30.33,-349.57 30.33,-349.57 27.17,-349.57 24,-346.41 24,-343.24 24,-343.24 24,-336.91 24,-336.91 24,-333.74 27.17,-330.57 30.33,-330.57 30.33,-330.57 66.67,-330.57 66.67,-330.57 69.83,-330.57 73,-333.74 73,-336.91 73,-336.91 73,-343.24 73,-343.24 73,-346.41 69.83,-349.57 66.67,-349.57"/>
<text text-anchor="middle" x="48.5" y="-337.57" font-family="Helvetica,sans-Serif" font-size="10.00">estpos</text>
</a>
</g>
</g>
<!-- Node1&#45;&gt;Node5 -->
<g id="edge3_Node000001_Node000005" class="edge">
<title>Node1&#45;&gt;Node5</title>
<g id="a_edge3_Node000001_Node000005"><a xlink:title=" ">
<path fill="none" stroke="#63b8ff" d="M345.95,-414.84C339.18,-475.98 315.29,-660.05 270,-695.07 221.83,-732.32 178.64,-735.38 133,-695.07 84.49,-652.23 120.64,-466.32 97,-406.07 88.23,-383.73 70.16,-361.96 59.01,-349.85"/>
<polygon fill="#63b8ff" stroke="#63b8ff" points="349.46,-414.94 347.05,-404.62 342.5,-414.19 349.46,-414.94"/>
</a>
</g>
</g>
<!-- Node13 -->
<g id="Node000013" class="node">
<title>Node13</title>
<g id="a_Node000013"><a xlink:href="ionModels_8cpp.html#a57191b4303a5b58e1a21fe08ab32538c" target="_top" xlink:title=" ">
<path fill="#fff0f0" stroke="red" d="M226.17,-685.57C226.17,-685.57 176.83,-685.57 176.83,-685.57 173.67,-685.57 170.5,-682.41 170.5,-679.24 170.5,-679.24 170.5,-672.91 170.5,-672.91 170.5,-669.74 173.67,-666.57 176.83,-666.57 176.83,-666.57 226.17,-666.57 226.17,-666.57 229.33,-666.57 232.5,-669.74 232.5,-672.91 232.5,-672.91 232.5,-679.24 232.5,-679.24 232.5,-682.41 229.33,-685.57 226.17,-685.57"/>
<text text-anchor="middle" x="201.5" y="-673.57" font-family="Helvetica,sans-Serif" font-size="10.00">ionmodel</text>
</a>
</g>
</g>
<!-- Node1&#45;&gt;Node13 -->
<g id="edge4_Node000001_Node000013" class="edge">
<title>Node1&#45;&gt;Node13</title>
<g id="a_edge4_Node000001_Node000013"><a xlink:title=" ">
<path fill="none" stroke="#63b8ff" d="M348.27,-414.74C347.83,-463.38 339.69,-590.29 270,-658.07 260.09,-667.71 245.62,-672.34 232.62,-674.5"/>
<polygon fill="#63b8ff" stroke="#63b8ff" points="351.77,-414.61 348.26,-404.62 344.77,-414.62 351.77,-414.61"/>
</a>
</g>
</g>
<!-- Node24 -->
<g id="Node000024" class="node">
<title>Node24</title>
<g id="a_Node000024"><a xlink:href="ionModels_8cpp.html#a888ec160331f90627c88439a333a879e" target="_top" xlink:title="ionosphere model by tec grid data Before calling the function, read tec grid data by calling readTec(...">
<path fill="#fff0f0" stroke="red" d="M218.67,-648.57C218.67,-648.57 184.33,-648.57 184.33,-648.57 181.17,-648.57 178,-645.41 178,-642.24 178,-642.24 178,-635.91 178,-635.91 178,-632.74 181.17,-629.57 184.33,-629.57 184.33,-629.57 218.67,-629.57 218.67,-629.57 221.83,-629.57 225,-632.74 225,-635.91 225,-635.91 225,-642.24 225,-642.24 225,-645.41 221.83,-648.57 218.67,-648.57"/>
<text text-anchor="middle" x="201.5" y="-636.57" font-family="Helvetica,sans-Serif" font-size="10.00">iontec</text>
</a>
</g>
</g>
<!-- Node1&#45;&gt;Node24 -->
<g id="edge5_Node000001_Node000024" class="edge">
<title>Node1&#45;&gt;Node24</title>
<g id="a_edge5_Node000001_Node000024"><a xlink:title=" ">
<path fill="none" stroke="#63b8ff" d="M346.53,-415.18C342.33,-457.89 326.67,-558.35 270,-615.07 258.04,-627.04 239.74,-633.06 225.21,-636.08"/>
<polygon fill="#63b8ff" stroke="#63b8ff" points="350.04,-415.24 347.41,-404.97 343.06,-414.63 350.04,-415.24"/>
</a>
</g>
</g>
<!-- Node25 -->
<g id="Node000025" class="node">
<title>Node25</title>
<g id="a_Node000025"><a xlink:href="ionoSphericalCaps_8cpp.html#af953ae8b4e5d94daecada20e21dd59a2" target="_top" xlink:title="transforms the Ionosphere Piercing Point and checks if it falls in area of coverage time: I time of o...">
<path fill="#fff0f0" stroke="red" d="M90.67,-563.57C90.67,-563.57 6.33,-563.57 6.33,-563.57 3.17,-563.57 0,-560.41 0,-557.24 0,-557.24 0,-550.91 0,-550.91 0,-547.74 3.17,-544.57 6.33,-544.57 6.33,-544.57 90.67,-544.57 90.67,-544.57 93.83,-544.57 97,-547.74 97,-550.91 97,-550.91 97,-557.24 97,-557.24 97,-560.41 93.83,-563.57 90.67,-563.57"/>
<text text-anchor="middle" x="48.5" y="-551.57" font-family="Helvetica,sans-Serif" font-size="10.00">ippCheckSphcap</text>
</a>
</g>
</g>
<!-- Node1&#45;&gt;Node25 -->
<g id="edge6_Node000001_Node000025" class="edge">
<title>Node1&#45;&gt;Node25</title>
<g id="a_edge6_Node000001_Node000025"><a xlink:title=" ">
<path fill="none" stroke="#63b8ff" d="M345.9,-415.17C340.73,-453.06 323.64,-534.34 270,-569.07 207.84,-609.33 114.08,-580.36 71.7,-563.66"/>
<polygon fill="#63b8ff" stroke="#63b8ff" points="349.41,-415.26 347.15,-404.91 342.47,-414.41 349.41,-415.26"/>
</a>
</g>
</g>
<!-- Node34 -->
<g id="Node000034" class="node">
<title>Node34</title>
<g id="a_Node000034"><a xlink:href="ionoSpherical_8cpp.html#a5b7bfe4a5b9c8c410133e7e6efbfc753" target="_top" xlink:title="rotates the Ionosphere piercing point time: I time of observations (to update the rotation matrix) IP...">
<path fill="#fff0f0" stroke="red" d="M89.67,-433.57C89.67,-433.57 7.33,-433.57 7.33,-433.57 4.17,-433.57 1,-430.41 1,-427.24 1,-427.24 1,-420.91 1,-420.91 1,-417.74 4.17,-414.57 7.33,-414.57 7.33,-414.57 89.67,-414.57 89.67,-414.57 92.83,-414.57 96,-417.74 96,-420.91 96,-420.91 96,-427.24 96,-427.24 96,-430.41 92.83,-433.57 89.67,-433.57"/>
<text text-anchor="middle" x="48.5" y="-421.57" font-family="Helvetica,sans-Serif" font-size="10.00">ippCheckSphhar</text>
</a>
</g>
</g>
<!-- Node1&#45;&gt;Node34 -->
<g id="edge7_Node000001_Node000034" class="edge">
<title>Node1&#45;&gt;Node34</title>
<g id="a_edge7_Node000001_Node000034"><a xlink:title=" ">
<path fill="none" stroke="#63b8ff" d="M344.43,-414.65C337.16,-448.14 317.13,-515.55 270,-544.07 217.91,-575.6 186.97,-572.27 133,-544.07 86.88,-519.98 61.08,-457.52 52.63,-433.59"/>
<polygon fill="#63b8ff" stroke="#63b8ff" points="347.89,-415.2 346.43,-404.7 341.03,-413.82 347.89,-415.2"/>
</a>
</g>
</g>
<!-- Node41 -->
<g id="Node000041" class="node">
<title>Node41</title>
<g id="a_Node000041"><a xlink:href="slrRec_8cpp.html#a5c3e74e626f1e4d9791cb3a6bcbf4888" target="_top" xlink:title="Calculate trop delay on SLR observation.">
<path fill="#fff0f0" stroke="red" d="M239.67,-534.57C239.67,-534.57 163.33,-534.57 163.33,-534.57 160.17,-534.57 157,-531.41 157,-528.24 157,-528.24 157,-521.91 157,-521.91 157,-518.74 160.17,-515.57 163.33,-515.57 163.33,-515.57 239.67,-515.57 239.67,-515.57 242.83,-515.57 246,-518.74 246,-521.91 246,-521.91 246,-528.24 246,-528.24 246,-531.41 242.83,-534.57 239.67,-534.57"/>
<text text-anchor="middle" x="201.5" y="-522.57" font-family="Helvetica,sans-Serif" font-size="10.00">laserTropDelay</text>
</a>
</g>
</g>
<!-- Node1&#45;&gt;Node41 -->
<g id="edge8_Node000001_Node000041" class="edge">
<title>Node1&#45;&gt;Node41</title>
<g id="a_edge8_Node000001_Node000041"><a xlink:title=" ">
<path fill="none" stroke="#63b8ff" d="M340.04,-413.75C328.39,-438.84 304.27,-483.04 270,-507.07 262.95,-512.02 254.62,-515.6 246.26,-518.2"/>
<polygon fill="#63b8ff" stroke="#63b8ff" points="343.26,-415.13 344.15,-404.57 336.87,-412.28 343.26,-415.13"/>
</a>
</g>
</g>
<!-- Node44 -->
<g id="Node000044" class="node">
<title>Node44</title>
<g id="a_Node000044"><a xlink:href="minimumConstraints_8cpp.html#ad6ae3cccdb74463ea328f08da634a458" target="_top" xlink:title=" ">
<path fill="#fff0f0" stroke="red" d="M236.67,-497.57C236.67,-497.57 166.33,-497.57 166.33,-497.57 163.17,-497.57 160,-494.41 160,-491.24 160,-491.24 160,-484.91 160,-484.91 160,-481.74 163.17,-478.57 166.33,-478.57 166.33,-478.57 236.67,-478.57 236.67,-478.57 239.83,-478.57 243,-481.74 243,-484.91 243,-484.91 243,-491.24 243,-491.24 243,-494.41 239.83,-497.57 236.67,-497.57"/>
<text text-anchor="middle" x="201.5" y="-485.57" font-family="Helvetica,sans-Serif" font-size="10.00">minOrbitData</text>
</a>
</g>
</g>
<!-- Node1&#45;&gt;Node44 -->
<g id="edge9_Node000001_Node000044" class="edge">
<title>Node1&#45;&gt;Node44</title>
<g id="a_edge9_Node000001_Node000044"><a xlink:title=" ">
<path fill="none" stroke="#63b8ff" d="M334.16,-412.82C319.88,-429.95 296.06,-455.39 270,-470.07 261.76,-474.72 252.27,-478.2 243.07,-480.8"/>
<polygon fill="#63b8ff" stroke="#63b8ff" points="337.15,-414.7 340.73,-404.72 331.71,-410.29 337.15,-414.7"/>
</a>
</g>
</g>
<!-- Node51 -->
<g id="Node000051" class="node">
<title>Node51</title>
<g id="a_Node000051"><a xlink:href="minimumConstraints_8cpp.html#abb849f43f8ddc113a68e426f98df6b22" target="_top" xlink:title=" ">
<path fill="#fff0f0" stroke="red" d="M233.67,-460.57C233.67,-460.57 169.33,-460.57 169.33,-460.57 166.17,-460.57 163,-457.41 163,-454.24 163,-454.24 163,-447.91 163,-447.91 163,-444.74 166.17,-441.57 169.33,-441.57 169.33,-441.57 233.67,-441.57 233.67,-441.57 236.83,-441.57 240,-444.74 240,-447.91 240,-447.91 240,-454.24 240,-454.24 240,-457.41 236.83,-460.57 233.67,-460.57"/>
<text text-anchor="middle" x="201.5" y="-448.57" font-family="Helvetica,sans-Serif" font-size="10.00">minSiteData</text>
</a>
</g>
</g>
<!-- Node1&#45;&gt;Node51 -->
<g id="edge10_Node000001_Node000051" class="edge">
<title>Node1&#45;&gt;Node51</title>
<g id="a_edge10_Node000001_Node000051"><a xlink:title=" ">
<path fill="none" stroke="#63b8ff" d="M321.67,-409.48C306.81,-417.2 287.71,-426.47 270,-433.07 260.45,-436.63 249.91,-439.79 240.04,-442.44"/>
<polygon fill="#63b8ff" stroke="#63b8ff" points="323.56,-412.44 330.77,-404.67 320.29,-406.25 323.56,-412.44"/>
</a>
</g>
</g>
<!-- Node52 -->
<g id="Node000052" class="node">
<title>Node52</title>
<g id="a_Node000052"><a xlink:href="cost_8cpp.html#abc021ac32635abe4cf6daef44cabb888" target="_top" xlink:title="Outputs troposphere COST file.">
<path fill="#fff0f0" stroke="red" d="M230.17,-423.57C230.17,-423.57 172.83,-423.57 172.83,-423.57 169.67,-423.57 166.5,-420.41 166.5,-417.24 166.5,-417.24 166.5,-410.91 166.5,-410.91 166.5,-407.74 169.67,-404.57 172.83,-404.57 172.83,-404.57 230.17,-404.57 230.17,-404.57 233.33,-404.57 236.5,-407.74 236.5,-410.91 236.5,-410.91 236.5,-417.24 236.5,-417.24 236.5,-420.41 233.33,-423.57 230.17,-423.57"/>
<text text-anchor="middle" x="201.5" y="-411.57" font-family="Helvetica,sans-Serif" font-size="10.00">outputCost</text>
</a>
</g>
</g>
<!-- Node1&#45;&gt;Node52 -->
<g id="edge11_Node000001_Node000052" class="edge">
<title>Node1&#45;&gt;Node52</title>
<g id="a_edge11_Node000001_Node000052"><a xlink:title=" ">
<path fill="none" stroke="#63b8ff" d="M295.85,-401.88C276.17,-404.45 254.29,-407.31 236.66,-409.61"/>
<polygon fill="#63b8ff" stroke="#63b8ff" points="296.45,-405.33 305.92,-400.57 295.55,-398.39 296.45,-405.33"/>
</a>
</g>
</g>
<!-- Node53 -->
<g id="Node000053" class="node">
<title>Node53</title>
<g id="a_Node000053"><a xlink:href="coordinates_8cpp.html#a726b77659a6e94017c3acc10bca86a29" target="_top" xlink:title="Transform geodetic postion to ecef.">
<path fill="#fff0f0" stroke="red" d="M225.67,-386.57C225.67,-386.57 177.33,-386.57 177.33,-386.57 174.17,-386.57 171,-383.41 171,-380.24 171,-380.24 171,-373.91 171,-373.91 171,-370.74 174.17,-367.57 177.33,-367.57 177.33,-367.57 225.67,-367.57 225.67,-367.57 228.83,-367.57 232,-370.74 232,-373.91 232,-373.91 232,-380.24 232,-380.24 232,-383.41 228.83,-386.57 225.67,-386.57"/>
<text text-anchor="middle" x="201.5" y="-374.57" font-family="Helvetica,sans-Serif" font-size="10.00">pos2ecef</text>
</a>
</g>
</g>
<!-- Node1&#45;&gt;Node53 -->
<g id="edge12_Node000001_Node000053" class="edge">
<title>Node1&#45;&gt;Node53</title>
<g id="a_edge12_Node000001_Node000053"><a xlink:title=" ">
<path fill="none" stroke="#63b8ff" d="M295.94,-388.63C274.47,-385.98 250.37,-383 232.03,-380.73"/>
<polygon fill="#63b8ff" stroke="#63b8ff" points="295.56,-392.11 305.92,-389.87 296.42,-385.17 295.56,-392.11"/>
</a>
</g>
</g>
<!-- Node54 -->
<g id="Node000054" class="node">
<title>Node54</title>
<g id="a_Node000054"><a xlink:href="tropSinex_8cpp.html#a1faee2ac53f3a75f110a3d3fadd79354" target="_top" xlink:title="Write SITE/ID block.">
<path fill="#fff0f0" stroke="red" d="M86.67,-106.57C86.67,-106.57 10.33,-106.57 10.33,-106.57 7.17,-106.57 4,-103.41 4,-100.24 4,-100.24 4,-93.91 4,-93.91 4,-90.74 7.17,-87.57 10.33,-87.57 10.33,-87.57 86.67,-87.57 86.67,-87.57 89.83,-87.57 93,-90.74 93,-93.91 93,-93.91 93,-100.24 93,-100.24 93,-103.41 89.83,-106.57 86.67,-106.57"/>
<text text-anchor="middle" x="48.5" y="-94.57" font-family="Helvetica,sans-Serif" font-size="10.00">writeTropSiteId</text>
</a>
</g>
</g>
<!-- Node1&#45;&gt;Node54 -->
<g id="edge31_Node000001_Node000054" class="edge">
<title>Node1&#45;&gt;Node54</title>
<g id="a_edge31_Node000001_Node000054"><a xlink:title=" ">
<path fill="none" stroke="#63b8ff" d="M347.01,-375.33C343.04,-304.98 325.68,-68.29 270,-23.07 222.73,15.31 189.93,-1.48 133,-23.07 98.59,-36.13 69.26,-70.57 56.43,-87.46"/>
<polygon fill="#63b8ff" stroke="#63b8ff" points="343.53,-375.68 347.56,-385.47 350.52,-375.3 343.53,-375.68"/>
</a>
</g>
</g>
<!-- Node57 -->
<g id="Node000057" class="node">
<title>Node57</title>
<g id="a_Node000057"><a xlink:href="rtkcmn_8cpp.html#a043d5d9da866bca2f19bf4a74ad8b2f5" target="_top" xlink:title="satellite azimuth/elevation angle">
<path fill="#fff0f0" stroke="red" d="M221.17,-349.57C221.17,-349.57 181.83,-349.57 181.83,-349.57 178.67,-349.57 175.5,-346.41 175.5,-343.24 175.5,-343.24 175.5,-336.91 175.5,-336.91 175.5,-333.74 178.67,-330.57 181.83,-330.57 181.83,-330.57 221.17,-330.57 221.17,-330.57 224.33,-330.57 227.5,-333.74 227.5,-336.91 227.5,-336.91 227.5,-343.24 227.5,-343.24 227.5,-346.41 224.33,-349.57 221.17,-349.57"/>
<text text-anchor="middle" x="201.5" y="-337.57" font-family="Helvetica,sans-Serif" font-size="10.00">satazel</text>
</a>
</g>
</g>
<!-- Node1&#45;&gt;Node57 -->
<g id="edge16_Node000001_Node000057" class="edge">
<title>Node1&#45;&gt;Node57</title>
<g id="a_edge16_Node000001_Node000057"><a xlink:title=" ">
<path fill="none" stroke="#63b8ff" d="M320.37,-381.02C305.65,-373.87 287.1,-365.38 270,-359.07 256.29,-354.02 240.61,-349.53 227.81,-346.18"/>
<polygon fill="#63b8ff" stroke="#63b8ff" points="318.92,-384.21 329.44,-385.49 322.02,-377.93 318.92,-384.21"/>
</a>
</g>
</g>
<!-- Node58 -->
<g id="Node000058" class="node">
<title>Node58</title>
<g id="a_Node000058"><a xlink:href="tropGPT2_8cpp.html#a5653656bdc62fbfcc53b5ea4ac625fa0" target="_top" xlink:title="Troposphere zenith hydrastatic delay and mapping function.">
<path fill="#fff0f0" stroke="red" d="M226.17,-312.57C226.17,-312.57 176.83,-312.57 176.83,-312.57 173.67,-312.57 170.5,-309.41 170.5,-306.24 170.5,-306.24 170.5,-299.91 170.5,-299.91 170.5,-296.74 173.67,-293.57 176.83,-293.57 176.83,-293.57 226.17,-293.57 226.17,-293.57 229.33,-293.57 232.5,-296.74 232.5,-299.91 232.5,-299.91 232.5,-306.24 232.5,-306.24 232.5,-309.41 229.33,-312.57 226.17,-312.57"/>
<text text-anchor="middle" x="201.5" y="-300.57" font-family="Helvetica,sans-Serif" font-size="10.00">tropGPT2</text>
</a>
</g>
</g>
<!-- Node1&#45;&gt;Node58 -->
<g id="edge18_Node000001_Node000058" class="edge">
<title>Node1&#45;&gt;Node58</title>
<g id="a_edge18_Node000001_Node000058"><a xlink:title=" ">
<path fill="none" stroke="#63b8ff" d="M333.79,-377.62C319.37,-361.02 295.59,-336.5 270,-322.07 258.55,-315.62 244.74,-311.23 232.61,-308.31"/>
<polygon fill="#63b8ff" stroke="#63b8ff" points="331.31,-380.1 340.43,-385.48 336.65,-375.59 331.31,-380.1"/>
</a>
</g>
</g>
<!-- Node63 -->
<g id="Node000063" class="node">
<title>Node63</title>
<g id="a_Node000063"><a xlink:href="tropModels_8cpp.html#a4e0e7ea77b35161d438a4bc48e02c6d7" target="_top" xlink:title=" ">
<path fill="#fff0f0" stroke="red" d="M75.17,-236.57C75.17,-236.57 21.83,-236.57 21.83,-236.57 18.67,-236.57 15.5,-233.41 15.5,-230.24 15.5,-230.24 15.5,-223.91 15.5,-223.91 15.5,-220.74 18.67,-217.57 21.83,-217.57 21.83,-217.57 75.17,-217.57 75.17,-217.57 78.33,-217.57 81.5,-220.74 81.5,-223.91 81.5,-223.91 81.5,-230.24 81.5,-230.24 81.5,-233.41 78.33,-236.57 75.17,-236.57"/>
<text text-anchor="middle" x="48.5" y="-224.57" font-family="Helvetica,sans-Serif" font-size="10.00">tropModel</text>
</a>
</g>
</g>
<!-- Node1&#45;&gt;Node63 -->
<g id="edge20_Node000001_Node000063" class="edge">
<title>Node1&#45;&gt;Node63</title>
<g id="a_edge20_Node000001_Node000063"><a xlink:title=" ">
<path fill="none" stroke="#63b8ff" d="M339.63,-376.01C327.76,-351.23 303.68,-308.4 270,-285.07 254.46,-274.31 139.37,-247.32 81.92,-234.31"/>
<polygon fill="#63b8ff" stroke="#63b8ff" points="336.6,-377.79 343.96,-385.41 342.96,-374.86 336.6,-377.79"/>
</a>
</g>
</g>
<!-- Node65 -->
<g id="Node000065" class="node">
<title>Node65</title>
<g id="a_Node000065"><a xlink:href="tropSAAS_8cpp.html#a1d3b00af7bf0b5ded35bb5efd1602f38" target="_top" xlink:title="compute tropospheric delay by standard atmosphere (relative humidity of 0.7 15 degrees of temperature...">
<path fill="#fff0f0" stroke="red" d="M226.17,-236.57C226.17,-236.57 176.83,-236.57 176.83,-236.57 173.67,-236.57 170.5,-233.41 170.5,-230.24 170.5,-230.24 170.5,-223.91 170.5,-223.91 170.5,-220.74 173.67,-217.57 176.83,-217.57 176.83,-217.57 226.17,-217.57 226.17,-217.57 229.33,-217.57 232.5,-220.74 232.5,-223.91 232.5,-223.91 232.5,-230.24 232.5,-230.24 232.5,-233.41 229.33,-236.57 226.17,-236.57"/>
<text text-anchor="middle" x="201.5" y="-224.57" font-family="Helvetica,sans-Serif" font-size="10.00">tropSAAS</text>
</a>
</g>
</g>
<!-- Node1&#45;&gt;Node65 -->
<g id="edge21_Node000001_Node000065" class="edge">
<title>Node1&#45;&gt;Node65</title>
<g id="a_edge21_Node000001_Node000065"><a xlink:title=" ">
<path fill="none" stroke="#63b8ff" d="M342.45,-375.56C332.74,-344.83 309.82,-285.16 270,-251.07 259.42,-242.01 245.18,-236.29 232.5,-232.71"/>
<polygon fill="#63b8ff" stroke="#63b8ff" points="339.2,-376.91 345.44,-385.47 345.9,-374.89 339.2,-376.91"/>
</a>
</g>
</g>
<!-- Node68 -->
<g id="Node000068" class="node">
<title>Node68</title>
<g id="a_Node000068"><a xlink:href="tropSBAS_8cpp.html#ad65c38914aa6333618890e8ad1aa3256" target="_top" xlink:title=" ">
<path fill="#fff0f0" stroke="red" d="M226.17,-199.57C226.17,-199.57 176.83,-199.57 176.83,-199.57 173.67,-199.57 170.5,-196.41 170.5,-193.24 170.5,-193.24 170.5,-186.91 170.5,-186.91 170.5,-183.74 173.67,-180.57 176.83,-180.57 176.83,-180.57 226.17,-180.57 226.17,-180.57 229.33,-180.57 232.5,-183.74 232.5,-186.91 232.5,-186.91 232.5,-193.24 232.5,-193.24 232.5,-196.41 229.33,-199.57 226.17,-199.57"/>
<text text-anchor="middle" x="201.5" y="-187.57" font-family="Helvetica,sans-Serif" font-size="10.00">tropSBAS</text>
</a>
</g>
</g>
<!-- Node1&#45;&gt;Node68 -->
<g id="edge24_Node000001_Node000068" class="edge">
<title>Node1&#45;&gt;Node68</title>
<g id="a_edge24_Node000001_Node000068"><a xlink:title=" ">
<path fill="none" stroke="#63b8ff" d="M345.35,-374.98C339.26,-336.85 320.64,-253.85 270,-209.07 259.69,-199.96 245.34,-195.19 232.51,-192.71"/>
<polygon fill="#63b8ff" stroke="#63b8ff" points="341.95,-375.89 346.87,-385.27 348.88,-374.87 341.95,-375.89"/>
</a>
</g>
</g>
<!-- Node69 -->
<g id="Node000069" class="node">
<title>Node69</title>
<g id="a_Node000069"><a xlink:href="tropVMF3_8cpp.html#a2253022b9954448bf810631603e70454" target="_top" xlink:title="vmf3">
<path fill="#fff0f0" stroke="red" d="M227.17,-162.57C227.17,-162.57 175.83,-162.57 175.83,-162.57 172.67,-162.57 169.5,-159.41 169.5,-156.24 169.5,-156.24 169.5,-149.91 169.5,-149.91 169.5,-146.74 172.67,-143.57 175.83,-143.57 175.83,-143.57 227.17,-143.57 227.17,-143.57 230.33,-143.57 233.5,-146.74 233.5,-149.91 233.5,-149.91 233.5,-156.24 233.5,-156.24 233.5,-159.41 230.33,-162.57 227.17,-162.57"/>
<text text-anchor="middle" x="201.5" y="-150.57" font-family="Helvetica,sans-Serif" font-size="10.00">tropVMF3</text>
</a>
</g>
</g>
<!-- Node1&#45;&gt;Node69 -->
<g id="edge26_Node000001_Node000069" class="edge">
<title>Node1&#45;&gt;Node69</title>
<g id="a_edge26_Node000001_Node000069"><a xlink:title=" ">
<path fill="none" stroke="#63b8ff" d="M346.98,-375.27C343.65,-331.92 329.54,-228.02 270,-172.07 260.24,-162.9 246.41,-158.1 233.8,-155.62"/>
<polygon fill="#63b8ff" stroke="#63b8ff" points="343.49,-375.62 347.64,-385.37 350.48,-375.16 343.49,-375.62"/>
</a>
</g>
</g>
<!-- Node70 -->
<g id="Node000070" class="node">
<title>Node70</title>
<g id="a_Node000070"><a xlink:href="gpx_8cpp.html#af9cdc05b3e40dc1ffa48b4ff09d108c8" target="_top" xlink:title=" ">
<path fill="#fff0f0" stroke="red" d="M238.67,-125.57C238.67,-125.57 164.33,-125.57 164.33,-125.57 161.17,-125.57 158,-122.41 158,-119.24 158,-119.24 158,-112.91 158,-112.91 158,-109.74 161.17,-106.57 164.33,-106.57 164.33,-106.57 238.67,-106.57 238.67,-106.57 241.83,-106.57 245,-109.74 245,-112.91 245,-112.91 245,-119.24 245,-119.24 245,-122.41 241.83,-125.57 238.67,-125.57"/>
<text text-anchor="middle" x="201.5" y="-113.57" font-family="Helvetica,sans-Serif" font-size="10.00">writeGPXEntry</text>
</a>
</g>
</g>
<!-- Node1&#45;&gt;Node70 -->
<g id="edge28_Node000001_Node000070" class="edge">
<title>Node1&#45;&gt;Node70</title>
<g id="a_edge28_Node000001_Node000070"><a xlink:title=" ">
<path fill="none" stroke="#63b8ff" d="M348.13,-375.36C347.35,-327.15 338.45,-202.36 270,-135.07 263.23,-128.42 254.32,-124.05 245.2,-121.2"/>
<polygon fill="#63b8ff" stroke="#63b8ff" points="344.64,-375.43 348.19,-385.41 351.64,-375.39 344.64,-375.43"/>
</a>
</g>
</g>
<!-- Node72 -->
<g id="Node000072" class="node">
<title>Node72</title>
<g id="a_Node000072"><a xlink:href="pos_8cpp.html#afbd1387aa03f2c5caca0ef70fda36795" target="_top" xlink:title=" ">
<path fill="#fff0f0" stroke="red" d="M238.17,-88.57C238.17,-88.57 164.83,-88.57 164.83,-88.57 161.67,-88.57 158.5,-85.41 158.5,-82.24 158.5,-82.24 158.5,-75.91 158.5,-75.91 158.5,-72.74 161.67,-69.57 164.83,-69.57 164.83,-69.57 238.17,-69.57 238.17,-69.57 241.33,-69.57 244.5,-72.74 244.5,-75.91 244.5,-75.91 244.5,-82.24 244.5,-82.24 244.5,-85.41 241.33,-88.57 238.17,-88.57"/>
<text text-anchor="middle" x="201.5" y="-76.57" font-family="Helvetica,sans-Serif" font-size="10.00">writePOSEntry</text>
</a>
</g>
</g>
<!-- Node1&#45;&gt;Node72 -->
<g id="edge29_Node000001_Node000072" class="edge">
<title>Node1&#45;&gt;Node72</title>
<g id="a_edge29_Node000001_Node000072"><a xlink:title=" ">
<path fill="none" stroke="#63b8ff" d="M345.46,-375.52C337.32,-315.78 310.05,-137.31 270,-97.07 263.16,-90.2 254,-85.86 244.64,-83.15"/>
<polygon fill="#63b8ff" stroke="#63b8ff" points="342,-376.07 346.79,-385.52 348.94,-375.14 342,-376.07"/>
</a>
</g>
</g>
<!-- Node74 -->
<g id="Node000074" class="node">
<title>Node74</title>
<g id="a_Node000074"><a xlink:href="pos_8cpp.html#a4b91c67a13824995cf263e892c6e1ab3" target="_top" xlink:title=" ">
<path fill="#fff0f0" stroke="red" d="M243.17,-51.57C243.17,-51.57 159.83,-51.57 159.83,-51.57 156.67,-51.57 153.5,-48.41 153.5,-45.24 153.5,-45.24 153.5,-38.91 153.5,-38.91 153.5,-35.74 156.67,-32.57 159.83,-32.57 159.83,-32.57 243.17,-32.57 243.17,-32.57 246.33,-32.57 249.5,-35.74 249.5,-38.91 249.5,-38.91 249.5,-45.24 249.5,-45.24 249.5,-48.41 246.33,-51.57 243.17,-51.57"/>
<text text-anchor="middle" x="201.5" y="-39.57" font-family="Helvetica,sans-Serif" font-size="10.00">writePOSHeader</text>
</a>
</g>
</g>
<!-- Node1&#45;&gt;Node74 -->
<g id="edge30_Node000001_Node000074" class="edge">
<title>Node1&#45;&gt;Node74</title>
<g id="a_edge30_Node000001_Node000074"><a xlink:title=" ">
<path fill="none" stroke="#63b8ff" d="M346.04,-375.25C339.23,-310.4 314.58,-106.1 270,-60.07 264.43,-54.32 257.25,-50.34 249.65,-47.6"/>
<polygon fill="#63b8ff" stroke="#63b8ff" points="342.57,-375.76 347.07,-385.36 349.54,-375.05 342.57,-375.76"/>
</a>
</g>
</g>
<!-- Node53&#45;&gt;Node25 -->
<g id="edge13_Node000053_Node000025" class="edge">
<title>Node53&#45;&gt;Node25</title>
<g id="a_edge13_Node000053_Node000025"><a xlink:title=" ">
<path fill="none" stroke="#63b8ff" d="M161.07,-382.5C151.14,-385.32 141.03,-389.59 133,-396.07 107.18,-416.93 66.18,-513.33 53.42,-544.39"/>
<polygon fill="#63b8ff" stroke="#63b8ff" points="161.96,-385.89 170.86,-380.14 160.32,-379.08 161.96,-385.89"/>
</a>
</g>
</g>
<!-- Node53&#45;&gt;Node34 -->
<g id="edge14_Node000053_Node000034" class="edge">
<title>Node53&#45;&gt;Node34</title>
<g id="a_edge14_Node000053_Node000034"><a xlink:title=" ">
<path fill="none" stroke="#63b8ff" d="M161.09,-387.82C151.85,-390.43 142.06,-393.28 133,-396.07 114.15,-401.88 93.1,-408.95 76.84,-414.53"/>
<polygon fill="#63b8ff" stroke="#63b8ff" points="162.15,-391.15 170.84,-385.08 160.26,-384.41 162.15,-391.15"/>
</a>
</g>
</g>
<!-- Node53&#45;&gt;Node54 -->
<g id="edge15_Node000053_Node000054" class="edge">
<title>Node53&#45;&gt;Node54</title>
<g id="a_edge15_Node000053_Node000054"><a xlink:title=" ">
<path fill="none" stroke="#63b8ff" d="M160.72,-373.77C150.52,-371.13 140.37,-366.63 133,-359.07 85.13,-309.99 118.46,-274.19 97,-209.07 84.18,-170.16 63.51,-125.9 54.25,-106.75"/>
<polygon fill="#63b8ff" stroke="#63b8ff" points="160.33,-377.27 170.83,-375.85 161.74,-370.41 160.33,-377.27"/>
</a>
</g>
</g>
<!-- Node57&#45;&gt;Node5 -->
<g id="edge17_Node000057_Node000005" class="edge">
<title>Node57&#45;&gt;Node5</title>
<g id="a_edge17_Node000057_Node000005"><a xlink:title=" ">
<path fill="none" stroke="#63b8ff" d="M164.97,-340.07C136.72,-340.07 98,-340.07 73.36,-340.07"/>
<polygon fill="#63b8ff" stroke="#63b8ff" points="165.23,-343.57 175.23,-340.07 165.23,-336.57 165.23,-343.57"/>
</a>
</g>
</g>
<!-- Node58&#45;&gt;Node63 -->
<g id="edge19_Node000058_Node000063" class="edge">
<title>Node58&#45;&gt;Node63</title>
<g id="a_edge19_Node000058_Node000063"><a xlink:title=" ">
<path fill="none" stroke="#63b8ff" d="M160.89,-290.6C151.58,-287.23 141.81,-283.32 133,-279.07 107,-266.54 78.94,-247.89 62.87,-236.66"/>
<polygon fill="#63b8ff" stroke="#63b8ff" points="159.77,-293.91 170.37,-293.91 162.08,-287.3 159.77,-293.91"/>
</a>
</g>
</g>
<!-- Node65&#45;&gt;Node5 -->
<g id="edge22_Node000065_Node000005" class="edge">
<title>Node65&#45;&gt;Node5</title>
<g id="a_edge22_Node000065_Node000005"><a xlink:title=" ">
<path fill="none" stroke="#63b8ff" d="M179.44,-242.83C147.66,-266.62 88.39,-310.97 62.34,-330.46"/>
<polygon fill="#63b8ff" stroke="#63b8ff" points="181.72,-245.5 187.63,-236.71 177.52,-239.9 181.72,-245.5"/>
</a>
</g>
</g>
<!-- Node65&#45;&gt;Node63 -->
<g id="edge23_Node000065_Node000063" class="edge">
<title>Node65&#45;&gt;Node63</title>
<g id="a_edge23_Node000065_Node000063"><a xlink:title=" ">
<path fill="none" stroke="#63b8ff" d="M160.21,-227.07C135.64,-227.07 104.67,-227.07 81.73,-227.07"/>
<polygon fill="#63b8ff" stroke="#63b8ff" points="160.31,-230.57 170.31,-227.07 160.31,-223.57 160.31,-230.57"/>
</a>
</g>
</g>
<!-- Node68&#45;&gt;Node63 -->
<g id="edge25_Node000068_Node000063" class="edge">
<title>Node68&#45;&gt;Node63</title>
<g id="a_edge25_Node000068_Node000063"><a xlink:title=" ">
<path fill="none" stroke="#63b8ff" d="M160.54,-199.86C135.92,-205.9 104.77,-213.53 81.73,-219.18"/>
<polygon fill="#63b8ff" stroke="#63b8ff" points="161.43,-203.25 170.31,-197.47 159.76,-196.45 161.43,-203.25"/>
</a>
</g>
</g>
<!-- Node69&#45;&gt;Node63 -->
<g id="edge27_Node000069_Node000063" class="edge">
<title>Node69&#45;&gt;Node63</title>
<g id="a_edge27_Node000069_Node000063"><a xlink:title=" ">
<path fill="none" stroke="#63b8ff" d="M159.38,-162.47C150.5,-165.09 141.29,-168.29 133,-172.07 105.68,-184.55 77.15,-205.28 61.53,-217.41"/>
<polygon fill="#63b8ff" stroke="#63b8ff" points="160.51,-165.78 169.21,-159.74 158.64,-159.04 160.51,-165.78"/>
</a>
</g>
</g>
</g>
</svg>
