<?xml version="1.0" encoding="UTF-8" standalone="no"?>
<!DOCTYPE svg PUBLIC "-//W3C//DTD SVG 1.1//EN"
 "http://www.w3.org/Graphics/SVG/1.1/DTD/svg11.dtd">
<!-- Generated by graphviz version 2.43.0 (0)
 -->
<!-- Title: VectorPos::latDeg Pages: 1 -->
<svg width="511pt" height="1123pt"
 viewBox="0.00 0.00 511.00 1122.50" xmlns="http://www.w3.org/2000/svg" xmlns:xlink="http://www.w3.org/1999/xlink">
<g id="graph0" class="graph" transform="scale(1 1) rotate(0) translate(4 1118.5)">
<title>VectorPos::latDeg</title>
<!-- Node1 -->
<g id="Node000001" class="node">
<title>Node1</title>
<g id="a_Node000001"><a xlink:href="structVectorPos.html#ae607eb1f43de3cf1aaa024c2fdabc514" target="_top" xlink:title=" ">
<path fill="#fff0f0" stroke="red" stroke-width="2" d="M496.67,-563C496.67,-563 406.33,-563 406.33,-563 403.17,-563 400,-559.83 400,-556.67 400,-556.67 400,-550.33 400,-550.33 400,-547.17 403.17,-544 406.33,-544 406.33,-544 496.67,-544 496.67,-544 499.83,-544 503,-547.17 503,-550.33 503,-550.33 503,-556.67 503,-556.67 503,-559.83 499.83,-563 496.67,-563"/>
<text text-anchor="middle" x="451.5" y="-551" font-family="Helvetica,sans-Serif" font-size="10.00">VectorPos::latDeg</text>
</a>
</g>
</g>
<!-- Node2 -->
<g id="Node000002" class="node">
<title>Node2</title>
<g id="a_Node000002"><a xlink:href="structOrbitIntegrator.html#a3ed19521cfc21cdaa2d7c8fa4f385499" target="_top" xlink:title=" ">
<path fill="#fff0f0" stroke="red" d="M354,-1114.5C354,-1114.5 237,-1114.5 237,-1114.5 232,-1114.5 227,-1109.5 227,-1104.5 227,-1104.5 227,-1094.5 227,-1094.5 227,-1089.5 232,-1084.5 237,-1084.5 237,-1084.5 354,-1084.5 354,-1084.5 359,-1084.5 364,-1089.5 364,-1094.5 364,-1094.5 364,-1104.5 364,-1104.5 364,-1109.5 359,-1114.5 354,-1114.5"/>
<text text-anchor="start" x="235" y="-1102.5" font-family="Helvetica,sans-Serif" font-size="10.00">OrbitIntegrator::compute</text>
<text text-anchor="middle" x="295.5" y="-1091.5" font-family="Helvetica,sans-Serif" font-size="10.00">Acceleration</text>
</a>
</g>
</g>
<!-- Node1&#45;&gt;Node2 -->
<g id="edge1_Node000001_Node000002" class="edge">
<title>Node1&#45;&gt;Node2</title>
<g id="a_edge1_Node000001_Node000002"><a xlink:title=" ">
<path fill="none" stroke="#63b8ff" d="M449.82,-573.65C446.55,-659.88 429.65,-997.03 364,-1075.5 361.13,-1078.93 357.73,-1081.88 354.01,-1084.4"/>
<polygon fill="#63b8ff" stroke="#63b8ff" points="453.33,-573.52 450.19,-563.4 446.34,-573.26 453.33,-573.52"/>
</a>
</g>
</g>
<!-- Node4 -->
<g id="Node000004" class="node">
<title>Node4</title>
<g id="a_Node000004"><a xlink:href="ionoLocalSTEC_8cpp.html#a4ac0ae5657ac53a7056034344425230a" target="_top" xlink:title=" ">
<path fill="#fff0f0" stroke="red" d="M336.67,-1066C336.67,-1066 254.33,-1066 254.33,-1066 251.17,-1066 248,-1062.83 248,-1059.67 248,-1059.67 248,-1053.33 248,-1053.33 248,-1050.17 251.17,-1047 254.33,-1047 254.33,-1047 336.67,-1047 336.67,-1047 339.83,-1047 343,-1050.17 343,-1053.33 343,-1053.33 343,-1059.67 343,-1059.67 343,-1062.83 339.83,-1066 336.67,-1066"/>
<text text-anchor="middle" x="295.5" y="-1054" font-family="Helvetica,sans-Serif" font-size="10.00">getCmpSSRIono</text>
</a>
</g>
</g>
<!-- Node1&#45;&gt;Node4 -->
<g id="edge2_Node000001_Node000004" class="edge">
<title>Node1&#45;&gt;Node4</title>
<g id="a_edge2_Node000001_Node000004"><a xlink:title=" ">
<path fill="none" stroke="#63b8ff" d="M449.71,-573.64C446.05,-656.33 428.13,-968.73 364,-1038.5 358.42,-1044.57 351.04,-1048.69 343.21,-1051.46"/>
<polygon fill="#63b8ff" stroke="#63b8ff" points="453.23,-573.3 450.15,-563.16 446.23,-573 453.23,-573.3"/>
</a>
</g>
</g>
<!-- Node11 -->
<g id="Node000011" class="node">
<title>Node11</title>
<g id="a_Node000011"><a xlink:href="ionoSpherical_8cpp.html#ad01dd353d17b69b39684a5bb3169fea5" target="_top" xlink:title=" ">
<path fill="#fff0f0" stroke="red" d="M332.17,-1029C332.17,-1029 258.83,-1029 258.83,-1029 255.67,-1029 252.5,-1025.83 252.5,-1022.67 252.5,-1022.67 252.5,-1016.33 252.5,-1016.33 252.5,-1013.17 255.67,-1010 258.83,-1010 258.83,-1010 332.17,-1010 332.17,-1010 335.33,-1010 338.5,-1013.17 338.5,-1016.33 338.5,-1016.33 338.5,-1022.67 338.5,-1022.67 338.5,-1025.83 335.33,-1029 332.17,-1029"/>
<text text-anchor="middle" x="295.5" y="-1017" font-family="Helvetica,sans-Serif" font-size="10.00">getEpcSsrIono</text>
</a>
</g>
</g>
<!-- Node1&#45;&gt;Node11 -->
<g id="edge3_Node000001_Node000011" class="edge">
<title>Node1&#45;&gt;Node11</title>
<g id="a_edge3_Node000001_Node000011"><a xlink:title=" ">
<path fill="none" stroke="#63b8ff" d="M449.39,-573.59C444.63,-652.21 423.48,-937.71 364,-1001.5 357.3,-1008.68 348.08,-1013.13 338.61,-1015.84"/>
<polygon fill="#63b8ff" stroke="#63b8ff" points="452.91,-573.37 449.99,-563.18 445.92,-572.96 452.91,-573.37"/>
</a>
</g>
</g>
<!-- Node13 -->
<g id="Node000013" class="node">
<title>Node13</title>
<g id="a_Node000013"><a xlink:href="ionModels_8cpp.html#a01fb4b3a1115f1db6ec700ecf9892e92" target="_top" xlink:title="interpolate tec grid data">
<path fill="#fff0f0" stroke="red" d="M319.67,-992C319.67,-992 271.33,-992 271.33,-992 268.17,-992 265,-988.83 265,-985.67 265,-985.67 265,-979.33 265,-979.33 265,-976.17 268.17,-973 271.33,-973 271.33,-973 319.67,-973 319.67,-973 322.83,-973 326,-976.17 326,-979.33 326,-979.33 326,-985.67 326,-985.67 326,-988.83 322.83,-992 319.67,-992"/>
<text text-anchor="middle" x="295.5" y="-980" font-family="Helvetica,sans-Serif" font-size="10.00">interpTec</text>
</a>
</g>
</g>
<!-- Node1&#45;&gt;Node13 -->
<g id="edge4_Node000001_Node000013" class="edge">
<title>Node1&#45;&gt;Node13</title>
<g id="a_edge4_Node000001_Node000013"><a xlink:title=" ">
<path fill="none" stroke="#63b8ff" d="M448.79,-573.4C442.14,-646.57 415.74,-899.48 364,-958.5 354.41,-969.44 339.48,-975.4 326.11,-978.63"/>
<polygon fill="#63b8ff" stroke="#63b8ff" points="452.29,-573.53 449.69,-563.26 445.32,-572.91 452.29,-573.53"/>
</a>
</g>
</g>
<!-- Node24 -->
<g id="Node000024" class="node">
<title>Node24</title>
<g id="a_Node000024"><a xlink:href="ionoBSplines_8cpp.html#a62f02324c802a59df6b26dad28135cc3" target="_top" xlink:title="Estimate Ionosphere VTEC using Ionospheric gridmaps Ion_pp I Ionosphere Piercing Point layer I Layer ...">
<path fill="#fff0f0" stroke="red" d="M181.67,-897C181.67,-897 111.33,-897 111.33,-897 108.17,-897 105,-893.83 105,-890.67 105,-890.67 105,-884.33 105,-884.33 105,-881.17 108.17,-878 111.33,-878 111.33,-878 181.67,-878 181.67,-878 184.83,-878 188,-881.17 188,-884.33 188,-884.33 188,-890.67 188,-890.67 188,-893.83 184.83,-897 181.67,-897"/>
<text text-anchor="middle" x="146.5" y="-885" font-family="Helvetica,sans-Serif" font-size="10.00">ionVtecBsplin</text>
</a>
</g>
</g>
<!-- Node1&#45;&gt;Node24 -->
<g id="edge5_Node000001_Node000024" class="edge">
<title>Node1&#45;&gt;Node24</title>
<g id="a_edge5_Node000001_Node000024"><a xlink:title=" ">
<path fill="none" stroke="#63b8ff" d="M448.85,-573.46C442.68,-642.54 418.51,-869.56 364,-912.5 304.4,-959.44 205.36,-917.52 165.21,-897.13"/>
<polygon fill="#63b8ff" stroke="#63b8ff" points="452.37,-573.39 449.74,-563.12 445.39,-572.78 452.37,-573.39"/>
</a>
</g>
</g>
<!-- Node30 -->
<g id="Node000030" class="node">
<title>Node30</title>
<g id="a_Node000030"><a xlink:href="ionoSphericalCaps_8cpp.html#afe703da748ff3caca1693fac631c7f51" target="_top" xlink:title="Estimate Ionosphere VTEC using Spherical Cap Harmonic models gtime_t time I time of solutions (not us...">
<path fill="#fff0f0" stroke="red" d="M184.67,-813C184.67,-813 108.33,-813 108.33,-813 105.17,-813 102,-809.83 102,-806.67 102,-806.67 102,-800.33 102,-800.33 102,-797.17 105.17,-794 108.33,-794 108.33,-794 184.67,-794 184.67,-794 187.83,-794 191,-797.17 191,-800.33 191,-800.33 191,-806.67 191,-806.67 191,-809.83 187.83,-813 184.67,-813"/>
<text text-anchor="middle" x="146.5" y="-801" font-family="Helvetica,sans-Serif" font-size="10.00">ionVtecSphcap</text>
</a>
</g>
</g>
<!-- Node1&#45;&gt;Node30 -->
<g id="edge6_Node000001_Node000030" class="edge">
<title>Node1&#45;&gt;Node30</title>
<g id="a_edge6_Node000001_Node000030"><a xlink:title=" ">
<path fill="none" stroke="#63b8ff" d="M448.48,-573.35C441.34,-639.13 414.94,-848.07 364,-887.5 315.85,-924.77 282.93,-911.57 227,-887.5 191.22,-872.1 164.01,-831.8 152.93,-813.18"/>
<polygon fill="#63b8ff" stroke="#63b8ff" points="451.99,-573.42 449.56,-563.11 445.03,-572.69 451.99,-573.42"/>
</a>
</g>
</g>
<!-- Node31 -->
<g id="Node000031" class="node">
<title>Node31</title>
<g id="a_Node000031"><a xlink:href="ionoSpherical_8cpp.html#a1b1dbb6c22bf410390abb588c45f310f" target="_top" xlink:title="Estimate Ionosphere VTEC using Spherical Cap Harmonic models gtime_t time I time of solutions (not us...">
<path fill="#fff0f0" stroke="red" d="M332.67,-878C332.67,-878 258.33,-878 258.33,-878 255.17,-878 252,-874.83 252,-871.67 252,-871.67 252,-865.33 252,-865.33 252,-862.17 255.17,-859 258.33,-859 258.33,-859 332.67,-859 332.67,-859 335.83,-859 339,-862.17 339,-865.33 339,-865.33 339,-871.67 339,-871.67 339,-874.83 335.83,-878 332.67,-878"/>
<text text-anchor="middle" x="295.5" y="-866" font-family="Helvetica,sans-Serif" font-size="10.00">ionVtecSphhar</text>
</a>
</g>
</g>
<!-- Node1&#45;&gt;Node31 -->
<g id="edge7_Node000001_Node000031" class="edge">
<title>Node1&#45;&gt;Node31</title>
<g id="a_edge7_Node000001_Node000031"><a xlink:title=" ">
<path fill="none" stroke="#63b8ff" d="M450.94,-573.21C451.01,-626.16 443.61,-772.68 364,-850.5 357.23,-857.11 348.33,-861.37 339.21,-864.09"/>
<polygon fill="#63b8ff" stroke="#63b8ff" points="454.44,-573.1 450.83,-563.14 447.44,-573.17 454.44,-573.1"/>
</a>
</g>
</g>
<!-- Node32 -->
<g id="Node000032" class="node">
<title>Node32</title>
<g id="a_Node000032"><a xlink:href="ionoBSplines_8cpp.html#a7002ebc4f104e21e0a2a24917ac32098" target="_top" xlink:title="checks if the Ionosphere Piercing Point falls in area of coverage time: I time of observations (not u...">
<path fill="#fff0f0" stroke="red" d="M335.17,-841C335.17,-841 255.83,-841 255.83,-841 252.67,-841 249.5,-837.83 249.5,-834.67 249.5,-834.67 249.5,-828.33 249.5,-828.33 249.5,-825.17 252.67,-822 255.83,-822 255.83,-822 335.17,-822 335.17,-822 338.33,-822 341.5,-825.17 341.5,-828.33 341.5,-828.33 341.5,-834.67 341.5,-834.67 341.5,-837.83 338.33,-841 335.17,-841"/>
<text text-anchor="middle" x="295.5" y="-829" font-family="Helvetica,sans-Serif" font-size="10.00">ippCheckBsplin</text>
</a>
</g>
</g>
<!-- Node1&#45;&gt;Node32 -->
<g id="edge8_Node000001_Node000032" class="edge">
<title>Node1&#45;&gt;Node32</title>
<g id="a_edge8_Node000001_Node000032"><a xlink:title=" ">
<path fill="none" stroke="#63b8ff" d="M449.98,-573.33C447.6,-621.78 434.55,-747.09 364,-813.5 357.82,-819.32 349.97,-823.3 341.83,-826.02"/>
<polygon fill="#63b8ff" stroke="#63b8ff" points="453.48,-573.35 450.37,-563.22 446.49,-573.08 453.48,-573.35"/>
</a>
</g>
</g>
<!-- Node36 -->
<g id="Node000036" class="node">
<title>Node36</title>
<g id="a_Node000036"><a xlink:href="ionoLocalSTEC_8cpp.html#aa36d9057a5ea9032b2f639ebc49099cb" target="_top" xlink:title="Checks if the Ionosphere Piercing Point falls in area of coverage.">
<path fill="#fff0f0" stroke="red" d="M332.67,-804C332.67,-804 258.33,-804 258.33,-804 255.17,-804 252,-800.83 252,-797.67 252,-797.67 252,-791.33 252,-791.33 252,-788.17 255.17,-785 258.33,-785 258.33,-785 332.67,-785 332.67,-785 335.83,-785 339,-788.17 339,-791.33 339,-791.33 339,-797.67 339,-797.67 339,-800.83 335.83,-804 332.67,-804"/>
<text text-anchor="middle" x="295.5" y="-792" font-family="Helvetica,sans-Serif" font-size="10.00">ippCheckLocal</text>
</a>
</g>
</g>
<!-- Node1&#45;&gt;Node36 -->
<g id="edge10_Node000001_Node000036" class="edge">
<title>Node1&#45;&gt;Node36</title>
<g id="a_edge10_Node000001_Node000036"><a xlink:title=" ">
<path fill="none" stroke="#63b8ff" d="M448.71,-573.41C443.71,-616.98 425.6,-721.29 364,-776.5 357.05,-782.73 348.17,-786.84 339.15,-789.55"/>
<polygon fill="#63b8ff" stroke="#63b8ff" points="452.21,-573.57 449.76,-563.26 445.25,-572.85 452.21,-573.57"/>
</a>
</g>
</g>
<!-- Node37 -->
<g id="Node000037" class="node">
<title>Node37</title>
<g id="a_Node000037"><a xlink:href="ionoSphericalCaps_8cpp.html#af953ae8b4e5d94daecada20e21dd59a2" target="_top" xlink:title="transforms the Ionosphere Piercing Point and checks if it falls in area of coverage time: I time of o...">
<path fill="#fff0f0" stroke="red" d="M337.67,-767C337.67,-767 253.33,-767 253.33,-767 250.17,-767 247,-763.83 247,-760.67 247,-760.67 247,-754.33 247,-754.33 247,-751.17 250.17,-748 253.33,-748 253.33,-748 337.67,-748 337.67,-748 340.83,-748 344,-751.17 344,-754.33 344,-754.33 344,-760.67 344,-760.67 344,-763.83 340.83,-767 337.67,-767"/>
<text text-anchor="middle" x="295.5" y="-755" font-family="Helvetica,sans-Serif" font-size="10.00">ippCheckSphcap</text>
</a>
</g>
</g>
<!-- Node1&#45;&gt;Node37 -->
<g id="edge11_Node000001_Node000037" class="edge">
<title>Node1&#45;&gt;Node37</title>
<g id="a_edge11_Node000001_Node000037"><a xlink:title=" ">
<path fill="none" stroke="#63b8ff" d="M447.03,-573.21C439.28,-611.29 416.89,-695.13 364,-739.5 358.24,-744.33 351.31,-747.88 344.12,-750.48"/>
<polygon fill="#63b8ff" stroke="#63b8ff" points="450.48,-573.83 448.92,-563.35 443.6,-572.52 450.48,-573.83"/>
</a>
</g>
</g>
<!-- Node38 -->
<g id="Node000038" class="node">
<title>Node38</title>
<g id="a_Node000038"><a xlink:href="slrRec_8cpp.html#a5c3e74e626f1e4d9791cb3a6bcbf4888" target="_top" xlink:title="Calculate trop delay on SLR observation.">
<path fill="#fff0f0" stroke="red" d="M333.67,-730C333.67,-730 257.33,-730 257.33,-730 254.17,-730 251,-726.83 251,-723.67 251,-723.67 251,-717.33 251,-717.33 251,-714.17 254.17,-711 257.33,-711 257.33,-711 333.67,-711 333.67,-711 336.83,-711 340,-714.17 340,-717.33 340,-717.33 340,-723.67 340,-723.67 340,-726.83 336.83,-730 333.67,-730"/>
<text text-anchor="middle" x="295.5" y="-718" font-family="Helvetica,sans-Serif" font-size="10.00">laserTropDelay</text>
</a>
</g>
</g>
<!-- Node1&#45;&gt;Node38 -->
<g id="edge13_Node000001_Node000038" class="edge">
<title>Node1&#45;&gt;Node38</title>
<g id="a_edge13_Node000001_Node000038"><a xlink:title=" ">
<path fill="none" stroke="#63b8ff" d="M444.7,-572.8C434.07,-604.77 408.41,-668.55 364,-702.5 357.06,-707.8 348.69,-711.55 340.23,-714.19"/>
<polygon fill="#63b8ff" stroke="#63b8ff" points="448.04,-573.86 447.73,-563.27 441.36,-571.73 448.04,-573.86"/>
</a>
</g>
</g>
<!-- Node41 -->
<g id="Node000041" class="node">
<title>Node41</title>
<g id="a_Node000041"><a xlink:href="minimumConstraints_8cpp.html#ad6ae3cccdb74463ea328f08da634a458" target="_top" xlink:title=" ">
<path fill="#fff0f0" stroke="red" d="M330.67,-693C330.67,-693 260.33,-693 260.33,-693 257.17,-693 254,-689.83 254,-686.67 254,-686.67 254,-680.33 254,-680.33 254,-677.17 257.17,-674 260.33,-674 260.33,-674 330.67,-674 330.67,-674 333.83,-674 337,-677.17 337,-680.33 337,-680.33 337,-686.67 337,-686.67 337,-689.83 333.83,-693 330.67,-693"/>
<text text-anchor="middle" x="295.5" y="-681" font-family="Helvetica,sans-Serif" font-size="10.00">minOrbitData</text>
</a>
</g>
</g>
<!-- Node1&#45;&gt;Node41 -->
<g id="edge14_Node000001_Node000041" class="edge">
<title>Node1&#45;&gt;Node41</title>
<g id="a_edge14_Node000001_Node000041"><a xlink:title=" ">
<path fill="none" stroke="#63b8ff" d="M441.14,-572.18C427.59,-597.27 400.14,-641.47 364,-665.5 356.02,-670.81 346.54,-674.55 337.24,-677.19"/>
<polygon fill="#63b8ff" stroke="#63b8ff" points="444.41,-573.49 445.93,-563 438.2,-570.24 444.41,-573.49"/>
</a>
</g>
</g>
<!-- Node49 -->
<g id="Node000049" class="node">
<title>Node49</title>
<g id="a_Node000049"><a xlink:href="minimumConstraints_8cpp.html#abb849f43f8ddc113a68e426f98df6b22" target="_top" xlink:title=" ">
<path fill="#fff0f0" stroke="red" d="M327.67,-656C327.67,-656 263.33,-656 263.33,-656 260.17,-656 257,-652.83 257,-649.67 257,-649.67 257,-643.33 257,-643.33 257,-640.17 260.17,-637 263.33,-637 263.33,-637 327.67,-637 327.67,-637 330.83,-637 334,-640.17 334,-643.33 334,-643.33 334,-649.67 334,-649.67 334,-652.83 330.83,-656 327.67,-656"/>
<text text-anchor="middle" x="295.5" y="-644" font-family="Helvetica,sans-Serif" font-size="10.00">minSiteData</text>
</a>
</g>
</g>
<!-- Node1&#45;&gt;Node49 -->
<g id="edge15_Node000001_Node000049" class="edge">
<title>Node1&#45;&gt;Node49</title>
<g id="a_edge15_Node000001_Node000049"><a xlink:title=" ">
<path fill="none" stroke="#63b8ff" d="M435.2,-570.72C419.1,-587.81 392.22,-613.54 364,-628.5 354.78,-633.39 344.14,-637.02 334.07,-639.69"/>
<polygon fill="#63b8ff" stroke="#63b8ff" points="438,-572.84 442.19,-563.11 432.85,-568.11 438,-572.84"/>
</a>
</g>
</g>
<!-- Node34 -->
<g id="Node000034" class="node">
<title>Node34</title>
<g id="a_Node000034"><a xlink:href="ionoMeas_8cpp.html#ab3f111d5e6d66de4751fbce467a29372" target="_top" xlink:title=" ">
<path fill="#fff0f0" stroke="red" d="M328.17,-619C328.17,-619 262.83,-619 262.83,-619 259.67,-619 256.5,-615.83 256.5,-612.67 256.5,-612.67 256.5,-606.33 256.5,-606.33 256.5,-603.17 259.67,-600 262.83,-600 262.83,-600 328.17,-600 328.17,-600 331.33,-600 334.5,-603.17 334.5,-606.33 334.5,-606.33 334.5,-612.67 334.5,-612.67 334.5,-615.83 331.33,-619 328.17,-619"/>
<text text-anchor="middle" x="295.5" y="-607" font-family="Helvetica,sans-Serif" font-size="10.00">obsIonoData</text>
</a>
</g>
</g>
<!-- Node1&#45;&gt;Node34 -->
<g id="edge16_Node000001_Node000034" class="edge">
<title>Node1&#45;&gt;Node34</title>
<g id="a_edge16_Node000001_Node000034"><a xlink:title=" ">
<path fill="none" stroke="#63b8ff" d="M421.74,-567.46C405.12,-575.19 383.67,-584.6 364,-591.5 354.62,-594.79 344.32,-597.82 334.65,-600.42"/>
<polygon fill="#63b8ff" stroke="#63b8ff" points="423.37,-570.56 430.92,-563.13 420.38,-564.23 423.37,-570.56"/>
</a>
</g>
</g>
<!-- Node50 -->
<g id="Node000050" class="node">
<title>Node50</title>
<g id="a_Node000050"><a xlink:href="cost_8cpp.html#abc021ac32635abe4cf6daef44cabb888" target="_top" xlink:title="Outputs troposphere COST file.">
<path fill="#fff0f0" stroke="red" d="M324.17,-582C324.17,-582 266.83,-582 266.83,-582 263.67,-582 260.5,-578.83 260.5,-575.67 260.5,-575.67 260.5,-569.33 260.5,-569.33 260.5,-566.17 263.67,-563 266.83,-563 266.83,-563 324.17,-563 324.17,-563 327.33,-563 330.5,-566.17 330.5,-569.33 330.5,-569.33 330.5,-575.67 330.5,-575.67 330.5,-578.83 327.33,-582 324.17,-582"/>
<text text-anchor="middle" x="295.5" y="-570" font-family="Helvetica,sans-Serif" font-size="10.00">outputCost</text>
</a>
</g>
</g>
<!-- Node1&#45;&gt;Node50 -->
<g id="edge17_Node000001_Node000050" class="edge">
<title>Node1&#45;&gt;Node50</title>
<g id="a_edge17_Node000001_Node000050"><a xlink:title=" ">
<path fill="none" stroke="#63b8ff" d="M389.66,-561.01C369.64,-563.48 348.1,-566.13 330.78,-568.27"/>
<polygon fill="#63b8ff" stroke="#63b8ff" points="390.15,-564.47 399.65,-559.77 389.29,-557.52 390.15,-564.47"/>
</a>
</g>
</g>
<!-- Node51 -->
<g id="Node000051" class="node">
<title>Node51</title>
<g id="a_Node000051"><a xlink:href="ppp__obs_8cpp.html#a61988497e1e1f150671891c08653b156" target="_top" xlink:title=" ">
<path fill="#fff0f0" stroke="red" d="M329.17,-545C329.17,-545 261.83,-545 261.83,-545 258.67,-545 255.5,-541.83 255.5,-538.67 255.5,-538.67 255.5,-532.33 255.5,-532.33 255.5,-529.17 258.67,-526 261.83,-526 261.83,-526 329.17,-526 329.17,-526 332.33,-526 335.5,-529.17 335.5,-532.33 335.5,-532.33 335.5,-538.67 335.5,-538.67 335.5,-541.83 332.33,-545 329.17,-545"/>
<text text-anchor="middle" x="295.5" y="-533" font-family="Helvetica,sans-Serif" font-size="10.00">pppIonModel</text>
</a>
</g>
</g>
<!-- Node1&#45;&gt;Node51 -->
<g id="edge18_Node000001_Node000051" class="edge">
<title>Node1&#45;&gt;Node51</title>
<g id="a_edge18_Node000001_Node000051"><a xlink:title=" ">
<path fill="none" stroke="#63b8ff" d="M389.69,-546.39C371.48,-544.26 352,-541.99 335.59,-540.07"/>
<polygon fill="#63b8ff" stroke="#63b8ff" points="389.31,-549.87 399.65,-547.56 390.12,-542.92 389.31,-549.87"/>
</a>
</g>
</g>
<!-- Node52 -->
<g id="Node000052" class="node">
<title>Node52</title>
<g id="a_Node000052"><a xlink:href="tides_8cpp.html#a722bd4420312b4c5c8f36aa0d905e0c3" target="_top" xlink:title="Displacement by ocean pole tide See ref [1] 7.1.5.">
<path fill="#fff0f0" stroke="red" d="M332.67,-508C332.67,-508 258.33,-508 258.33,-508 255.17,-508 252,-504.83 252,-501.67 252,-501.67 252,-495.33 252,-495.33 252,-492.17 255.17,-489 258.33,-489 258.33,-489 332.67,-489 332.67,-489 335.83,-489 339,-492.17 339,-495.33 339,-495.33 339,-501.67 339,-501.67 339,-504.83 335.83,-508 332.67,-508"/>
<text text-anchor="middle" x="295.5" y="-496" font-family="Helvetica,sans-Serif" font-size="10.00">tideOceanPole</text>
</a>
</g>
</g>
<!-- Node1&#45;&gt;Node52 -->
<g id="edge19_Node000001_Node000052" class="edge">
<title>Node1&#45;&gt;Node52</title>
<g id="a_edge19_Node000001_Node000052"><a xlink:title=" ">
<path fill="none" stroke="#63b8ff" d="M419.85,-539.69C403.46,-532.57 382.83,-524.04 364,-517.5 354.23,-514.1 343.5,-510.87 333.53,-508.06"/>
<polygon fill="#63b8ff" stroke="#63b8ff" points="418.88,-543.09 429.45,-543.9 421.7,-536.68 418.88,-543.09"/>
</a>
</g>
</g>
<!-- Node58 -->
<g id="Node000058" class="node">
<title>Node58</title>
<g id="a_Node000058"><a xlink:href="tides_8cpp.html#ab9e903f458c0264cff4b22d87c78c477" target="_top" xlink:title="Displacement by solid Earth tide See ref [1] 7.1.1 Note: permanent deformation not removed,...">
<path fill="#fff0f0" stroke="red" d="M182.67,-432C182.67,-432 110.33,-432 110.33,-432 107.17,-432 104,-428.83 104,-425.67 104,-425.67 104,-419.33 104,-419.33 104,-416.17 107.17,-413 110.33,-413 110.33,-413 182.67,-413 182.67,-413 185.83,-413 189,-416.17 189,-419.33 189,-419.33 189,-425.67 189,-425.67 189,-428.83 185.83,-432 182.67,-432"/>
<text text-anchor="middle" x="146.5" y="-420" font-family="Helvetica,sans-Serif" font-size="10.00">tideSolidEarth</text>
</a>
</g>
</g>
<!-- Node1&#45;&gt;Node58 -->
<g id="edge20_Node000001_Node000058" class="edge">
<title>Node1&#45;&gt;Node58</title>
<g id="a_edge20_Node000001_Node000058"><a xlink:title=" ">
<path fill="none" stroke="#63b8ff" d="M434.84,-536.49C418.64,-519.88 391.84,-495.04 364,-480.5 348.26,-472.28 244.94,-446.3 186.9,-432.07"/>
<polygon fill="#63b8ff" stroke="#63b8ff" points="432.47,-539.08 441.9,-543.91 437.54,-534.25 432.47,-539.08"/>
</a>
</g>
</g>
<!-- Node59 -->
<g id="Node000059" class="node">
<title>Node59</title>
<g id="a_Node000059"><a xlink:href="tides_8cpp.html#aeae22242d3396386a1b71e573226478d" target="_top" xlink:title="Displacement by solid Earth pole tide See ref [1] 7.1.4.">
<path fill="#fff0f0" stroke="red" d="M329.17,-432C329.17,-432 261.83,-432 261.83,-432 258.67,-432 255.5,-428.83 255.5,-425.67 255.5,-425.67 255.5,-419.33 255.5,-419.33 255.5,-416.17 258.67,-413 261.83,-413 261.83,-413 329.17,-413 329.17,-413 332.33,-413 335.5,-416.17 335.5,-419.33 335.5,-419.33 335.5,-425.67 335.5,-425.67 335.5,-428.83 332.33,-432 329.17,-432"/>
<text text-anchor="middle" x="295.5" y="-420" font-family="Helvetica,sans-Serif" font-size="10.00">tideSolidPole</text>
</a>
</g>
</g>
<!-- Node1&#45;&gt;Node59 -->
<g id="edge21_Node000001_Node000059" class="edge">
<title>Node1&#45;&gt;Node59</title>
<g id="a_edge21_Node000001_Node000059"><a xlink:title=" ">
<path fill="none" stroke="#63b8ff" d="M440.01,-535C425.7,-511.33 397.92,-470.53 364,-446.5 355.27,-440.32 344.79,-435.58 334.72,-432.02"/>
<polygon fill="#63b8ff" stroke="#63b8ff" points="437.05,-536.88 445.14,-543.72 443.08,-533.33 437.05,-536.88"/>
</a>
</g>
</g>
<!-- Node61 -->
<g id="Node000061" class="node">
<title>Node61</title>
<g id="a_Node000061"><a xlink:href="tides_8cpp.html#ab44d5c92785ffe1d1628108425405b23" target="_top" xlink:title="Step 1 of solid Earth tide computation: Corrections to be computed in the time domain (solar/lunar ti...">
<path fill="#fff0f0" stroke="red" d="M338.17,-395C338.17,-395 252.83,-395 252.83,-395 249.67,-395 246.5,-391.83 246.5,-388.67 246.5,-388.67 246.5,-382.33 246.5,-382.33 246.5,-379.17 249.67,-376 252.83,-376 252.83,-376 338.17,-376 338.17,-376 341.33,-376 344.5,-379.17 344.5,-382.33 344.5,-382.33 344.5,-388.67 344.5,-388.67 344.5,-391.83 341.33,-395 338.17,-395"/>
<text text-anchor="middle" x="295.5" y="-383" font-family="Helvetica,sans-Serif" font-size="10.00">tideTimeDomain</text>
</a>
</g>
</g>
<!-- Node1&#45;&gt;Node61 -->
<g id="edge22_Node000001_Node000061" class="edge">
<title>Node1&#45;&gt;Node61</title>
<g id="a_edge22_Node000001_Node000061"><a xlink:title=" ">
<path fill="none" stroke="#63b8ff" d="M444.51,-533.85C433.72,-501.84 407.98,-438.6 364,-404.5 358.32,-400.1 351.68,-396.72 344.81,-394.12"/>
<polygon fill="#63b8ff" stroke="#63b8ff" points="441.3,-535.33 447.7,-543.77 447.97,-533.18 441.3,-535.33"/>
</a>
</g>
</g>
<!-- Node62 -->
<g id="Node000062" class="node">
<title>Node62</title>
<g id="a_Node000062"><a xlink:href="tropCSSR_8cpp.html#a00162918c37e119307c3c670a6eeebb8" target="_top" xlink:title="SSR Troposphere model compute tropospheric delay using compact SSR contents Neill Mapping functions i...">
<path fill="#fff0f0" stroke="red" d="M171.17,-281C171.17,-281 121.83,-281 121.83,-281 118.67,-281 115.5,-277.83 115.5,-274.67 115.5,-274.67 115.5,-268.33 115.5,-268.33 115.5,-265.17 118.67,-262 121.83,-262 121.83,-262 171.17,-262 171.17,-262 174.33,-262 177.5,-265.17 177.5,-268.33 177.5,-268.33 177.5,-274.67 177.5,-274.67 177.5,-277.83 174.33,-281 171.17,-281"/>
<text text-anchor="middle" x="146.5" y="-269" font-family="Helvetica,sans-Serif" font-size="10.00">tropCSSR</text>
</a>
</g>
</g>
<!-- Node1&#45;&gt;Node62 -->
<g id="edge24_Node000001_Node000062" class="edge">
<title>Node1&#45;&gt;Node62</title>
<g id="a_edge24_Node000001_Node000062"><a xlink:title=" ">
<path fill="none" stroke="#63b8ff" d="M446.15,-533.49C437.08,-496.19 412.81,-415.45 364,-367.5 310.47,-314.92 223.23,-288.52 177.55,-277.69"/>
<polygon fill="#63b8ff" stroke="#63b8ff" points="442.82,-534.64 448.49,-543.59 449.64,-533.06 442.82,-534.64"/>
</a>
</g>
</g>
<!-- Node63 -->
<g id="Node000063" class="node">
<title>Node63</title>
<g id="a_Node000063"><a xlink:href="tropModels_8cpp.html#a4e0e7ea77b35161d438a4bc48e02c6d7" target="_top" xlink:title=" ">
<path fill="#fff0f0" stroke="red" d="M59.67,-243C59.67,-243 6.33,-243 6.33,-243 3.17,-243 0,-239.83 0,-236.67 0,-236.67 0,-230.33 0,-230.33 0,-227.17 3.17,-224 6.33,-224 6.33,-224 59.67,-224 59.67,-224 62.83,-224 66,-227.17 66,-230.33 66,-230.33 66,-236.67 66,-236.67 66,-239.83 62.83,-243 59.67,-243"/>
<text text-anchor="middle" x="33" y="-231" font-family="Helvetica,sans-Serif" font-size="10.00">tropModel</text>
</a>
</g>
</g>
<!-- Node1&#45;&gt;Node63 -->
<g id="edge26_Node000001_Node000063" class="edge">
<title>Node1&#45;&gt;Node63</title>
<g id="a_edge26_Node000001_Node000063"><a xlink:title=" ">
<path fill="none" stroke="#63b8ff" d="M446.83,-533.42C438.81,-495.31 416.1,-412.34 364,-367.5 272.01,-288.33 208.99,-347.81 102,-290.5 78.37,-277.84 55.45,-256.06 43.19,-243.4"/>
<polygon fill="#63b8ff" stroke="#63b8ff" points="443.49,-534.58 448.86,-543.71 450.36,-533.22 443.49,-534.58"/>
</a>
</g>
</g>
<!-- Node67 -->
<g id="Node000067" class="node">
<title>Node67</title>
<g id="a_Node000067"><a xlink:href="tropModels_8cpp.html#ae2e859a3c8b8d21b5d2de98286079474" target="_top" xlink:title=" ">
<path fill="#fff0f0" stroke="red" d="M333.67,-281C333.67,-281 257.33,-281 257.33,-281 254.17,-281 251,-277.83 251,-274.67 251,-274.67 251,-268.33 251,-268.33 251,-265.17 254.17,-262 257.33,-262 257.33,-262 333.67,-262 333.67,-262 336.83,-262 340,-265.17 340,-268.33 340,-268.33 340,-274.67 340,-274.67 340,-277.83 336.83,-281 333.67,-281"/>
<text text-anchor="middle" x="295.5" y="-269" font-family="Helvetica,sans-Serif" font-size="10.00">tropModelCoef</text>
</a>
</g>
</g>
<!-- Node1&#45;&gt;Node67 -->
<g id="edge27_Node000001_Node000067" class="edge">
<title>Node1&#45;&gt;Node67</title>
<g id="a_edge27_Node000001_Node000067"><a xlink:title=" ">
<path fill="none" stroke="#63b8ff" d="M449.54,-533.55C446.18,-485.8 431.12,-363.85 364,-295.5 357.46,-288.84 348.96,-284.03 340.21,-280.55"/>
<polygon fill="#63b8ff" stroke="#63b8ff" points="446.06,-534 450.16,-543.77 453.05,-533.58 446.06,-534"/>
</a>
</g>
</g>
<!-- Node68 -->
<g id="Node000068" class="node">
<title>Node68</title>
<g id="a_Node000068"><a xlink:href="tropSAAS_8cpp.html#a1d3b00af7bf0b5ded35bb5efd1602f38" target="_top" xlink:title="compute tropospheric delay by standard atmosphere (relative humidity of 0.7 15 degrees of temperature...">
<path fill="#fff0f0" stroke="red" d="M320.17,-244C320.17,-244 270.83,-244 270.83,-244 267.67,-244 264.5,-240.83 264.5,-237.67 264.5,-237.67 264.5,-231.33 264.5,-231.33 264.5,-228.17 267.67,-225 270.83,-225 270.83,-225 320.17,-225 320.17,-225 323.33,-225 326.5,-228.17 326.5,-231.33 326.5,-231.33 326.5,-237.67 326.5,-237.67 326.5,-240.83 323.33,-244 320.17,-244"/>
<text text-anchor="middle" x="295.5" y="-232" font-family="Helvetica,sans-Serif" font-size="10.00">tropSAAS</text>
</a>
</g>
</g>
<!-- Node1&#45;&gt;Node68 -->
<g id="edge28_Node000001_Node000068" class="edge">
<title>Node1&#45;&gt;Node68</title>
<g id="a_edge28_Node000001_Node000068"><a xlink:title=" ">
<path fill="none" stroke="#63b8ff" d="M450.95,-533.65C451.05,-480.34 443.7,-332.7 364,-253.5 354.16,-243.72 339.69,-238.88 326.68,-236.52"/>
<polygon fill="#63b8ff" stroke="#63b8ff" points="447.45,-533.76 450.84,-543.8 454.45,-533.84 447.45,-533.76"/>
</a>
</g>
</g>
<!-- Node77 -->
<g id="Node000077" class="node">
<title>Node77</title>
<g id="a_Node000077"><a xlink:href="tropSBAS_8cpp.html#ad65c38914aa6333618890e8ad1aa3256" target="_top" xlink:title=" ">
<path fill="#fff0f0" stroke="red" d="M171.17,-205C171.17,-205 121.83,-205 121.83,-205 118.67,-205 115.5,-201.83 115.5,-198.67 115.5,-198.67 115.5,-192.33 115.5,-192.33 115.5,-189.17 118.67,-186 121.83,-186 121.83,-186 171.17,-186 171.17,-186 174.33,-186 177.5,-189.17 177.5,-192.33 177.5,-192.33 177.5,-198.67 177.5,-198.67 177.5,-201.83 174.33,-205 171.17,-205"/>
<text text-anchor="middle" x="146.5" y="-193" font-family="Helvetica,sans-Serif" font-size="10.00">tropSBAS</text>
</a>
</g>
</g>
<!-- Node1&#45;&gt;Node77 -->
<g id="edge31_Node000001_Node000077" class="edge">
<title>Node1&#45;&gt;Node77</title>
<g id="a_edge31_Node000001_Node000077"><a xlink:title=" ">
<path fill="none" stroke="#63b8ff" d="M448.36,-533.67C440.83,-467.89 413.34,-258.75 364,-216.5 311.65,-171.68 223.91,-180.09 177.85,-188.61"/>
<polygon fill="#63b8ff" stroke="#63b8ff" points="444.91,-534.34 449.5,-543.89 451.87,-533.57 444.91,-534.34"/>
</a>
</g>
</g>
<!-- Node78 -->
<g id="Node000078" class="node">
<title>Node78</title>
<g id="a_Node000078"><a xlink:href="tropVMF3_8cpp.html#a2253022b9954448bf810631603e70454" target="_top" xlink:title="vmf3">
<path fill="#fff0f0" stroke="red" d="M172.17,-168C172.17,-168 120.83,-168 120.83,-168 117.67,-168 114.5,-164.83 114.5,-161.67 114.5,-161.67 114.5,-155.33 114.5,-155.33 114.5,-152.17 117.67,-149 120.83,-149 120.83,-149 172.17,-149 172.17,-149 175.33,-149 178.5,-152.17 178.5,-155.33 178.5,-155.33 178.5,-161.67 178.5,-161.67 178.5,-164.83 175.33,-168 172.17,-168"/>
<text text-anchor="middle" x="146.5" y="-156" font-family="Helvetica,sans-Serif" font-size="10.00">tropVMF3</text>
</a>
</g>
</g>
<!-- Node1&#45;&gt;Node78 -->
<g id="edge33_Node000001_Node000078" class="edge">
<title>Node1&#45;&gt;Node78</title>
<g id="a_edge33_Node000001_Node000078"><a xlink:title=" ">
<path fill="none" stroke="#63b8ff" d="M448.92,-533.75C442.87,-463.34 418.69,-226.28 364,-178.5 312.41,-133.42 225.15,-142.21 178.73,-151.14"/>
<polygon fill="#63b8ff" stroke="#63b8ff" points="445.45,-534.22 449.77,-543.9 452.43,-533.64 445.45,-534.22"/>
</a>
</g>
</g>
<!-- Node79 -->
<g id="Node000079" class="node">
<title>Node79</title>
<g id="a_Node000079"><a xlink:href="gpx_8cpp.html#af9cdc05b3e40dc1ffa48b4ff09d108c8" target="_top" xlink:title=" ">
<path fill="#fff0f0" stroke="red" d="M332.67,-130C332.67,-130 258.33,-130 258.33,-130 255.17,-130 252,-126.83 252,-123.67 252,-123.67 252,-117.33 252,-117.33 252,-114.17 255.17,-111 258.33,-111 258.33,-111 332.67,-111 332.67,-111 335.83,-111 339,-114.17 339,-117.33 339,-117.33 339,-123.67 339,-123.67 339,-126.83 335.83,-130 332.67,-130"/>
<text text-anchor="middle" x="295.5" y="-118" font-family="Helvetica,sans-Serif" font-size="10.00">writeGPXEntry</text>
</a>
</g>
</g>
<!-- Node1&#45;&gt;Node79 -->
<g id="edge35_Node000001_Node000079" class="edge">
<title>Node1&#45;&gt;Node79</title>
<g id="a_edge35_Node000001_Node000079"><a xlink:title=" ">
<path fill="none" stroke="#63b8ff" d="M448.82,-533.4C442.27,-459.51 416.17,-204.13 364,-144.5 357.45,-137.01 348.4,-131.86 339.05,-128.32"/>
<polygon fill="#63b8ff" stroke="#63b8ff" points="445.36,-533.98 449.71,-543.64 452.33,-533.38 445.36,-533.98"/>
</a>
</g>
</g>
<!-- Node81 -->
<g id="Node000081" class="node">
<title>Node81</title>
<g id="a_Node000081"><a xlink:href="pos_8cpp.html#afbd1387aa03f2c5caca0ef70fda36795" target="_top" xlink:title=" ">
<path fill="#fff0f0" stroke="red" d="M332.17,-93C332.17,-93 258.83,-93 258.83,-93 255.67,-93 252.5,-89.83 252.5,-86.67 252.5,-86.67 252.5,-80.33 252.5,-80.33 252.5,-77.17 255.67,-74 258.83,-74 258.83,-74 332.17,-74 332.17,-74 335.33,-74 338.5,-77.17 338.5,-80.33 338.5,-80.33 338.5,-86.67 338.5,-86.67 338.5,-89.83 335.33,-93 332.17,-93"/>
<text text-anchor="middle" x="295.5" y="-81" font-family="Helvetica,sans-Serif" font-size="10.00">writePOSEntry</text>
</a>
</g>
</g>
<!-- Node1&#45;&gt;Node81 -->
<g id="edge36_Node000001_Node000081" class="edge">
<title>Node1&#45;&gt;Node81</title>
<g id="a_edge36_Node000001_Node000081"><a xlink:title=" ">
<path fill="none" stroke="#63b8ff" d="M449.44,-533.71C444.85,-455.1 424.06,-166.02 364,-101.5 357.31,-94.31 348.09,-89.87 338.62,-87.15"/>
<polygon fill="#63b8ff" stroke="#63b8ff" points="445.95,-533.94 450.01,-543.73 452.94,-533.55 445.95,-533.94"/>
</a>
</g>
</g>
<!-- Node83 -->
<g id="Node000083" class="node">
<title>Node83</title>
<g id="a_Node000083"><a xlink:href="pos_8cpp.html#a4b91c67a13824995cf263e892c6e1ab3" target="_top" xlink:title=" ">
<path fill="#fff0f0" stroke="red" d="M337.17,-56C337.17,-56 253.83,-56 253.83,-56 250.67,-56 247.5,-52.83 247.5,-49.67 247.5,-49.67 247.5,-43.33 247.5,-43.33 247.5,-40.17 250.67,-37 253.83,-37 253.83,-37 337.17,-37 337.17,-37 340.33,-37 343.5,-40.17 343.5,-43.33 343.5,-43.33 343.5,-49.67 343.5,-49.67 343.5,-52.83 340.33,-56 337.17,-56"/>
<text text-anchor="middle" x="295.5" y="-44" font-family="Helvetica,sans-Serif" font-size="10.00">writePOSHeader</text>
</a>
</g>
</g>
<!-- Node1&#45;&gt;Node83 -->
<g id="edge37_Node000001_Node000083" class="edge">
<title>Node1&#45;&gt;Node83</title>
<g id="a_edge37_Node000001_Node000083"><a xlink:title=" ">
<path fill="none" stroke="#63b8ff" d="M449.76,-533.71C446.25,-451.12 428.73,-135.02 364,-64.5 358.5,-58.51 351.26,-54.43 343.56,-51.66"/>
<polygon fill="#63b8ff" stroke="#63b8ff" points="446.26,-533.91 450.16,-543.76 453.25,-533.63 446.26,-533.91"/>
</a>
</g>
</g>
<!-- Node84 -->
<g id="Node000084" class="node">
<title>Node84</title>
<g id="a_Node000084"><a xlink:href="tropSinex_8cpp.html#a1faee2ac53f3a75f110a3d3fadd79354" target="_top" xlink:title="Write SITE/ID block.">
<path fill="#fff0f0" stroke="red" d="M333.67,-19C333.67,-19 257.33,-19 257.33,-19 254.17,-19 251,-15.83 251,-12.67 251,-12.67 251,-6.33 251,-6.33 251,-3.17 254.17,0 257.33,0 257.33,0 333.67,0 333.67,0 336.83,0 340,-3.17 340,-6.33 340,-6.33 340,-12.67 340,-12.67 340,-15.83 336.83,-19 333.67,-19"/>
<text text-anchor="middle" x="295.5" y="-7" font-family="Helvetica,sans-Serif" font-size="10.00">writeTropSiteId</text>
</a>
</g>
</g>
<!-- Node1&#45;&gt;Node84 -->
<g id="edge38_Node000001_Node000084" class="edge">
<title>Node1&#45;&gt;Node84</title>
<g id="a_edge38_Node000001_Node000084"><a xlink:title=" ">
<path fill="none" stroke="#63b8ff" d="M450.02,-533.62C447.54,-447.07 433.39,-104.02 364,-27.5 357.73,-20.58 349.12,-16.2 340.15,-13.45"/>
<polygon fill="#63b8ff" stroke="#63b8ff" points="446.53,-533.98 450.29,-543.88 453.53,-533.79 446.53,-533.98"/>
</a>
</g>
</g>
<!-- Node32&#45;&gt;Node24 -->
<g id="edge9_Node000032_Node000024" class="edge">
<title>Node32&#45;&gt;Node24</title>
<g id="a_edge9_Node000032_Node000024"><a xlink:title=" ">
<path fill="none" stroke="#63b8ff" d="M246.65,-843.93C240,-845.96 233.29,-848.17 227,-850.5 205.45,-858.49 181.66,-869.93 165.77,-877.97"/>
<polygon fill="#63b8ff" stroke="#63b8ff" points="247.71,-847.27 256.31,-841.09 245.73,-840.55 247.71,-847.27"/>
</a>
</g>
</g>
<!-- Node37&#45;&gt;Node30 -->
<g id="edge12_Node000037_Node000030" class="edge">
<title>Node37&#45;&gt;Node30</title>
<g id="a_edge12_Node000037_Node000030"><a xlink:title=" ">
<path fill="none" stroke="#63b8ff" d="M249.59,-769.78C242.03,-771.95 234.28,-774.24 227,-776.5 209.46,-781.94 189.93,-788.57 174.61,-793.89"/>
<polygon fill="#63b8ff" stroke="#63b8ff" points="250.7,-773.11 259.36,-767.01 248.79,-766.37 250.7,-773.11"/>
</a>
</g>
</g>
<!-- Node61&#45;&gt;Node58 -->
<g id="edge23_Node000061_Node000058" class="edge">
<title>Node61&#45;&gt;Node58</title>
<g id="a_edge23_Node000061_Node000058"><a xlink:title=" ">
<path fill="none" stroke="#63b8ff" d="M246.85,-397.49C226.97,-402.5 204.2,-408.23 185.48,-412.94"/>
<polygon fill="#63b8ff" stroke="#63b8ff" points="247.8,-400.86 256.64,-395.03 246.09,-394.08 247.8,-400.86"/>
</a>
</g>
</g>
<!-- Node62&#45;&gt;Node63 -->
<g id="edge25_Node000062_Node000063" class="edge">
<title>Node62&#45;&gt;Node63</title>
<g id="a_edge25_Node000062_Node000063"><a xlink:title=" ">
<path fill="none" stroke="#63b8ff" d="M107.87,-258.67C92.91,-253.58 75.99,-247.81 62.13,-243.09"/>
<polygon fill="#63b8ff" stroke="#63b8ff" points="106.77,-262 117.36,-261.91 109.03,-255.37 106.77,-262"/>
</a>
</g>
</g>
<!-- Node68&#45;&gt;Node62 -->
<g id="edge29_Node000068_Node000062" class="edge">
<title>Node68&#45;&gt;Node62</title>
<g id="a_edge29_Node000068_Node000062"><a xlink:title=" ">
<path fill="none" stroke="#63b8ff" d="M254.42,-244.59C230.17,-250.69 199.75,-258.35 177.56,-263.93"/>
<polygon fill="#63b8ff" stroke="#63b8ff" points="255.55,-247.91 264.4,-242.08 253.85,-241.12 255.55,-247.91"/>
</a>
</g>
</g>
<!-- Node68&#45;&gt;Node63 -->
<g id="edge30_Node000068_Node000063" class="edge">
<title>Node68&#45;&gt;Node63</title>
<g id="a_edge30_Node000068_Node000063"><a xlink:title=" ">
<path fill="none" stroke="#63b8ff" d="M254.23,-234.35C202.53,-234.15 113.83,-233.81 66.31,-233.62"/>
<polygon fill="#63b8ff" stroke="#63b8ff" points="254.35,-237.85 264.36,-234.38 254.38,-230.85 254.35,-237.85"/>
</a>
</g>
</g>
<!-- Node77&#45;&gt;Node63 -->
<g id="edge32_Node000077_Node000063" class="edge">
<title>Node77&#45;&gt;Node63</title>
<g id="a_edge32_Node000077_Node000063"><a xlink:title=" ">
<path fill="none" stroke="#63b8ff" d="M107.87,-208.33C92.91,-213.42 75.99,-219.19 62.13,-223.91"/>
<polygon fill="#63b8ff" stroke="#63b8ff" points="109.03,-211.63 117.36,-205.09 106.77,-205 109.03,-211.63"/>
</a>
</g>
</g>
<!-- Node78&#45;&gt;Node63 -->
<g id="edge34_Node000078_Node000063" class="edge">
<title>Node78&#45;&gt;Node63</title>
<g id="a_edge34_Node000078_Node000063"><a xlink:title=" ">
<path fill="none" stroke="#63b8ff" d="M109.35,-172.44C106.82,-173.72 104.34,-175.08 102,-176.5 79.08,-190.4 55.9,-211.73 43.41,-223.98"/>
<polygon fill="#63b8ff" stroke="#63b8ff" points="111.06,-175.5 118.65,-168.1 108.1,-169.16 111.06,-175.5"/>
</a>
</g>
</g>
</g>
</svg>
