<?xml version="1.0" encoding="UTF-8" standalone="no"?>
<!DOCTYPE svg PUBLIC "-//W3C//DTD SVG 1.1//EN"
 "http://www.w3.org/Graphics/SVG/1.1/DTD/svg11.dtd">
<!-- Generated by graphviz version 2.43.0 (0)
 -->
<!-- Title: KFState::addPseudoState Pages: 1 -->
<svg width="306pt" height="64pt"
 viewBox="0.00 0.00 306.00 64.00" xmlns="http://www.w3.org/2000/svg" xmlns:xlink="http://www.w3.org/1999/xlink">
<g id="graph0" class="graph" transform="scale(1 1) rotate(0) translate(4 60)">
<title>KFState::addPseudoState</title>
<!-- Node1 -->
<g id="Node000001" class="node">
<title>Node1</title>
<g id="a_Node000001"><a xlink:href="structKFState.html#a8b46cc073d1447f0cfe189070b0f4846" target="_top" xlink:title="Create a pseudo state that represents the linear combination of two or more perfectly correlated stat...">
<path fill="#fff0f0" stroke="red" stroke-width="2" d="M132.67,-37C132.67,-37 6.33,-37 6.33,-37 3.17,-37 0,-33.83 0,-30.67 0,-30.67 0,-24.33 0,-24.33 0,-21.17 3.17,-18 6.33,-18 6.33,-18 132.67,-18 132.67,-18 135.83,-18 139,-21.17 139,-24.33 139,-24.33 139,-30.67 139,-30.67 139,-33.83 135.83,-37 132.67,-37"/>
<text text-anchor="middle" x="69.5" y="-25" font-family="Helvetica,sans-Serif" font-size="10.00">KFState::addPseudoState</text>
</a>
</g>
</g>
<!-- Node2 -->
<g id="Node000002" class="node">
<title>Node2</title>
<g id="a_Node000002"><a xlink:href="structKFState.html#a043f0e3fd99610dfad8e650a1514c395" target="_top" xlink:title="Remove a state from a kalman filter object.">
<path fill="#fff0f0" stroke="red" d="M291.67,-56C291.67,-56 181.33,-56 181.33,-56 178.17,-56 175,-52.83 175,-49.67 175,-49.67 175,-43.33 175,-43.33 175,-40.17 178.17,-37 181.33,-37 181.33,-37 291.67,-37 291.67,-37 294.83,-37 298,-40.17 298,-43.33 298,-43.33 298,-49.67 298,-49.67 298,-52.83 294.83,-56 291.67,-56"/>
<text text-anchor="middle" x="236.5" y="-44" font-family="Helvetica,sans-Serif" font-size="10.00">KFState::removeState</text>
</a>
</g>
</g>
<!-- Node1&#45;&gt;Node2 -->
<g id="edge1_Node000001_Node000002" class="edge">
<title>Node1&#45;&gt;Node2</title>
<g id="a_edge1_Node000001_Node000002"><a xlink:title=" ">
<path fill="none" stroke="#63b8ff" d="M139.04,-35.39C147.57,-36.37 156.3,-37.38 164.86,-38.37"/>
<polygon fill="#63b8ff" stroke="#63b8ff" points="164.47,-41.84 174.81,-39.51 165.27,-34.89 164.47,-41.84"/>
</a>
</g>
</g>
<!-- Node3 -->
<g id="Node000003" class="node">
<title>Node3</title>
<g id="a_Node000003"><a xlink:href="structKFState.html#a8f43fca242e78201e48996ebbb4fd69f" target="_top" xlink:title="Tries to add a state to the filter object.">
<path fill="#fff0f0" stroke="red" d="M288.17,-19C288.17,-19 184.83,-19 184.83,-19 181.67,-19 178.5,-15.83 178.5,-12.67 178.5,-12.67 178.5,-6.33 178.5,-6.33 178.5,-3.17 181.67,0 184.83,0 184.83,0 288.17,0 288.17,0 291.33,0 294.5,-3.17 294.5,-6.33 294.5,-6.33 294.5,-12.67 294.5,-12.67 294.5,-15.83 291.33,-19 288.17,-19"/>
<text text-anchor="middle" x="236.5" y="-7" font-family="Helvetica,sans-Serif" font-size="10.00">KFState::addKFState</text>
</a>
</g>
</g>
<!-- Node1&#45;&gt;Node3 -->
<g id="edge2_Node000001_Node000003" class="edge">
<title>Node1&#45;&gt;Node3</title>
<g id="a_edge2_Node000001_Node000003"><a xlink:title=" ">
<path fill="none" stroke="#63b8ff" d="M139.04,-20.02C148.77,-18.96 158.76,-17.87 168.46,-16.81"/>
<polygon fill="#63b8ff" stroke="#63b8ff" points="168.87,-20.29 178.43,-15.73 168.11,-13.33 168.87,-20.29"/>
</a>
</g>
</g>
</g>
</svg>
