<?xml version="1.0" encoding="UTF-8" standalone="no"?>
<!DOCTYPE svg PUBLIC "-//W3C//DTD SVG 1.1//EN"
 "http://www.w3.org/Graphics/SVG/1.1/DTD/svg11.dtd">
<!-- Generated by graphviz version 2.43.0 (0)
 -->
<!-- Title: KFState::outputStates Pages: 1 -->
<svg width="653pt" height="516pt"
 viewBox="0.00 0.00 653.00 516.00" xmlns="http://www.w3.org/2000/svg" xmlns:xlink="http://www.w3.org/1999/xlink">
<g id="graph0" class="graph" transform="scale(1 1) rotate(0) translate(4 512)">
<title>KFState::outputStates</title>
<!-- Node1 -->
<g id="Node000001" class="node">
<title>Node1</title>
<g id="a_Node000001"><a xlink:href="structKFState.html#a0c84e911a5ea760fe728baec661e33f0" target="_top" xlink:title="Output keys and states in human readable format.">
<path fill="#fff0f0" stroke="red" stroke-width="2" d="M638.67,-264C638.67,-264 529.33,-264 529.33,-264 526.17,-264 523,-260.83 523,-257.67 523,-257.67 523,-251.33 523,-251.33 523,-248.17 526.17,-245 529.33,-245 529.33,-245 638.67,-245 638.67,-245 641.83,-245 645,-248.17 645,-251.33 645,-251.33 645,-257.67 645,-257.67 645,-260.83 641.83,-264 638.67,-264"/>
<text text-anchor="middle" x="584" y="-252" font-family="Helvetica,sans-Serif" font-size="10.00">KFState::outputStates</text>
</a>
</g>
</g>
<!-- Node2 -->
<g id="Node000002" class="node">
<title>Node2</title>
<g id="a_Node000002"><a xlink:href="debug_8cpp.html#ae4e8d5c9ae89428a527a780093a3d872" target="_top" xlink:title=" ">
<path fill="#fff0f0" stroke="red" d="M426.67,-508C426.67,-508 397.33,-508 397.33,-508 394.17,-508 391,-504.83 391,-501.67 391,-501.67 391,-495.33 391,-495.33 391,-492.17 394.17,-489 397.33,-489 397.33,-489 426.67,-489 426.67,-489 429.83,-489 433,-492.17 433,-495.33 433,-495.33 433,-501.67 433,-501.67 433,-504.83 429.83,-508 426.67,-508"/>
<text text-anchor="middle" x="412" y="-496" font-family="Helvetica,sans-Serif" font-size="10.00">accel</text>
</a>
</g>
</g>
<!-- Node1&#45;&gt;Node2 -->
<g id="edge1_Node000001_Node000002" class="edge">
<title>Node1&#45;&gt;Node2</title>
<g id="a_edge1_Node000001_Node000002"><a xlink:title=" ">
<path fill="none" stroke="#63b8ff" d="M580.52,-274.54C573.95,-318.82 551.87,-425.43 487,-480.5 471.98,-493.25 449.38,-497.26 433.11,-498.38"/>
<polygon fill="#63b8ff" stroke="#63b8ff" points="584.01,-274.85 581.9,-264.47 577.08,-273.9 584.01,-274.85"/>
</a>
</g>
</g>
<!-- Node3 -->
<g id="Node000003" class="node">
<title>Node3</title>
<g id="a_Node000003"><a xlink:href="ppp__ambres_8cpp.html#ad41d635b049a650ddbe2f7e13d29e85b" target="_top" xlink:title=" ">
<path fill="#fff0f0" stroke="red" d="M480.67,-471C480.67,-471 343.33,-471 343.33,-471 340.17,-471 337,-467.83 337,-464.67 337,-464.67 337,-458.33 337,-458.33 337,-455.17 340.17,-452 343.33,-452 343.33,-452 480.67,-452 480.67,-452 483.83,-452 487,-455.17 487,-458.33 487,-458.33 487,-464.67 487,-464.67 487,-467.83 483.83,-471 480.67,-471"/>
<text text-anchor="middle" x="412" y="-459" font-family="Helvetica,sans-Serif" font-size="10.00">applyBestIntegerAmbiguity</text>
</a>
</g>
</g>
<!-- Node1&#45;&gt;Node3 -->
<g id="edge2_Node000001_Node000003" class="edge">
<title>Node1&#45;&gt;Node3</title>
<g id="a_edge2_Node000001_Node000003"><a xlink:title=" ">
<path fill="none" stroke="#63b8ff" d="M578.8,-274.13C569.45,-312.81 543.2,-399 487,-443.5 482.75,-446.87 477.96,-449.61 472.92,-451.86"/>
<polygon fill="#63b8ff" stroke="#63b8ff" points="582.26,-274.67 581.08,-264.14 575.44,-273.11 582.26,-274.67"/>
</a>
</g>
</g>
<!-- Node10 -->
<g id="Node000010" class="node">
<title>Node10</title>
<g id="a_Node000010"><a xlink:href="ionoModel_8cpp.html#ae7821a74f98f349d4508712aeced88e1" target="_top" xlink:title="Updating the ionosphere model parameters The ionosphere model should be initialized by calling &#39;confi...">
<path fill="#fff0f0" stroke="red" d="M452.17,-434C452.17,-434 371.83,-434 371.83,-434 368.67,-434 365.5,-430.83 365.5,-427.67 365.5,-427.67 365.5,-421.33 365.5,-421.33 365.5,-418.17 368.67,-415 371.83,-415 371.83,-415 452.17,-415 452.17,-415 455.33,-415 458.5,-418.17 458.5,-421.33 458.5,-421.33 458.5,-427.67 458.5,-427.67 458.5,-430.83 455.33,-434 452.17,-434"/>
<text text-anchor="middle" x="412" y="-422" font-family="Helvetica,sans-Serif" font-size="10.00">filterIonosphere</text>
</a>
</g>
</g>
<!-- Node1&#45;&gt;Node10 -->
<g id="edge3_Node000001_Node000010" class="edge">
<title>Node1&#45;&gt;Node10</title>
<g id="a_edge3_Node000001_Node000010"><a xlink:title=" ">
<path fill="none" stroke="#63b8ff" d="M576.32,-273.85C564.02,-306.49 534.59,-372.3 487,-406.5 478.73,-412.44 468.74,-416.44 458.82,-419.12"/>
<polygon fill="#63b8ff" stroke="#63b8ff" points="579.72,-274.73 579.84,-264.14 573.14,-272.35 579.72,-274.73"/>
</a>
</g>
</g>
<!-- Node7 -->
<g id="Node000007" class="node">
<title>Node7</title>
<g id="a_Node000007"><a xlink:href="outputs_8cpp.html#abf277b1afcff7cb07fa2857b4a373100" target="_top" xlink:title=" ">
<path fill="#fff0f0" stroke="red" d="M291,-208.5C291,-208.5 157,-208.5 157,-208.5 152,-208.5 147,-203.5 147,-198.5 147,-198.5 147,-188.5 147,-188.5 147,-183.5 152,-178.5 157,-178.5 157,-178.5 291,-178.5 291,-178.5 296,-178.5 301,-183.5 301,-188.5 301,-188.5 301,-198.5 301,-198.5 301,-203.5 296,-208.5 291,-208.5"/>
<text text-anchor="start" x="155" y="-196.5" font-family="Helvetica,sans-Serif" font-size="10.00">perEpochPostProcessingAnd</text>
<text text-anchor="middle" x="224" y="-185.5" font-family="Helvetica,sans-Serif" font-size="10.00">Outputs</text>
</a>
</g>
</g>
<!-- Node1&#45;&gt;Node7 -->
<g id="edge16_Node000001_Node000007" class="edge">
<title>Node1&#45;&gt;Node7</title>
<g id="a_edge16_Node000001_Node000007"><a xlink:title=" ">
<path fill="none" stroke="#63b8ff" d="M556.82,-240.14C537.99,-230.54 511.66,-218.6 487,-212.5 425.68,-197.34 354.03,-193.02 301.16,-192.25"/>
<polygon fill="#63b8ff" stroke="#63b8ff" points="555.45,-243.37 565.94,-244.9 558.69,-237.17 555.45,-243.37"/>
</a>
</g>
</g>
<!-- Node8 -->
<g id="Node000008" class="node">
<title>Node8</title>
<g id="a_Node000008"><a xlink:href="main_8cpp.html#a479f892b35943104163405de9a93be14" target="_top" xlink:title=" ">
<path fill="#fff0f0" stroke="red" d="M104.67,-203C104.67,-203 6.33,-203 6.33,-203 3.17,-203 0,-199.83 0,-196.67 0,-196.67 0,-190.33 0,-190.33 0,-187.17 3.17,-184 6.33,-184 6.33,-184 104.67,-184 104.67,-184 107.83,-184 111,-187.17 111,-190.33 111,-190.33 111,-196.67 111,-196.67 111,-199.83 107.83,-203 104.67,-203"/>
<text text-anchor="middle" x="55.5" y="-191" font-family="Helvetica,sans-Serif" font-size="10.00">mainOncePerEpoch</text>
</a>
</g>
</g>
<!-- Node1&#45;&gt;Node8 -->
<g id="edge7_Node000001_Node000008" class="edge">
<title>Node1&#45;&gt;Node8</title>
<g id="a_edge7_Node000001_Node000008"><a xlink:title=" ">
<path fill="none" stroke="#63b8ff" d="M563.71,-270.8C545.3,-285.32 516.12,-305.74 487,-315.5 343.58,-363.55 280.21,-402.15 147,-330.5 94.78,-302.41 67.67,-229.53 59.34,-203.18"/>
<polygon fill="#63b8ff" stroke="#63b8ff" points="566.27,-273.23 571.84,-264.22 561.86,-267.79 566.27,-273.23"/>
</a>
</g>
</g>
<!-- Node11 -->
<g id="Node000011" class="node">
<title>Node11</title>
<g id="a_Node000011"><a xlink:href="debug_8cpp.html#a6b386ae3f1e24bab3a4c831fa043a400" target="_top" xlink:title=" ">
<path fill="#fff0f0" stroke="red" d="M440.67,-397C440.67,-397 383.33,-397 383.33,-397 380.17,-397 377,-393.83 377,-390.67 377,-390.67 377,-384.33 377,-384.33 377,-381.17 380.17,-378 383.33,-378 383.33,-378 440.67,-378 440.67,-378 443.83,-378 447,-381.17 447,-384.33 447,-384.33 447,-390.67 447,-390.67 447,-393.83 443.83,-397 440.67,-397"/>
<text text-anchor="middle" x="412" y="-385" font-family="Helvetica,sans-Serif" font-size="10.00">infiniteTest</text>
</a>
</g>
</g>
<!-- Node1&#45;&gt;Node11 -->
<g id="edge6_Node000001_Node000011" class="edge">
<title>Node1&#45;&gt;Node11</title>
<g id="a_edge6_Node000001_Node000011"><a xlink:title=" ">
<path fill="none" stroke="#63b8ff" d="M571.51,-272.77C555.44,-296.91 524.03,-339.18 487,-363.5 475.03,-371.36 460.29,-376.83 447.12,-380.53"/>
<polygon fill="#63b8ff" stroke="#63b8ff" points="574.57,-274.5 577.08,-264.21 568.7,-270.69 574.57,-274.5"/>
</a>
</g>
</g>
<!-- Node5 -->
<g id="Node000005" class="node">
<title>Node5</title>
<g id="a_Node000005"><a xlink:href="main_8cpp.html#a2b0d1066eac1a878cf982adcdd550ce1" target="_top" xlink:title="Perform any post&#45;final epoch calculations and outputs, then begin reverse smoothing and tidy up.">
<path fill="#fff0f0" stroke="red" d="M275.17,-321C275.17,-321 172.83,-321 172.83,-321 169.67,-321 166.5,-317.83 166.5,-314.67 166.5,-314.67 166.5,-308.33 166.5,-308.33 166.5,-305.17 169.67,-302 172.83,-302 172.83,-302 275.17,-302 275.17,-302 278.33,-302 281.5,-305.17 281.5,-308.33 281.5,-308.33 281.5,-314.67 281.5,-314.67 281.5,-317.83 278.33,-321 275.17,-321"/>
<text text-anchor="middle" x="224" y="-309" font-family="Helvetica,sans-Serif" font-size="10.00">mainPostProcessing</text>
</a>
</g>
</g>
<!-- Node1&#45;&gt;Node5 -->
<g id="edge8_Node000001_Node000005" class="edge">
<title>Node1&#45;&gt;Node5</title>
<g id="a_edge8_Node000001_Node000005"><a xlink:title=" ">
<path fill="none" stroke="#63b8ff" d="M554.56,-268.42C535.83,-276.91 510.51,-287.13 487,-292.5 417.53,-308.37 335.26,-311.95 281.69,-312.32"/>
<polygon fill="#63b8ff" stroke="#63b8ff" points="556.11,-271.55 563.7,-264.17 553.16,-265.2 556.11,-271.55"/>
</a>
</g>
</g>
<!-- Node12 -->
<g id="Node000012" class="node">
<title>Node12</title>
<g id="a_Node000012"><a xlink:href="minimumConstraints_8cpp.html#aa40934b017f373d875c3470591eff52e" target="_top" xlink:title=" ">
<path fill="#fff0f0" stroke="red" d="M432.17,-283C432.17,-283 391.83,-283 391.83,-283 388.67,-283 385.5,-279.83 385.5,-276.67 385.5,-276.67 385.5,-270.33 385.5,-270.33 385.5,-267.17 388.67,-264 391.83,-264 391.83,-264 432.17,-264 432.17,-264 435.33,-264 438.5,-267.17 438.5,-270.33 438.5,-270.33 438.5,-276.67 438.5,-276.67 438.5,-279.83 435.33,-283 432.17,-283"/>
<text text-anchor="middle" x="412" y="-271" font-family="Helvetica,sans-Serif" font-size="10.00">mincon</text>
</a>
</g>
</g>
<!-- Node1&#45;&gt;Node12 -->
<g id="edge9_Node000001_Node000012" class="edge">
<title>Node1&#45;&gt;Node12</title>
<g id="a_edge9_Node000001_Node000012"><a xlink:title=" ">
<path fill="none" stroke="#63b8ff" d="M512.31,-262.4C486.19,-265.32 458.22,-268.45 438.64,-270.63"/>
<polygon fill="#63b8ff" stroke="#63b8ff" points="513.04,-265.84 522.59,-261.25 512.26,-258.88 513.04,-265.84"/>
</a>
</g>
</g>
<!-- Node15 -->
<g id="Node000015" class="node">
<title>Node15</title>
<g id="a_Node000015"><a xlink:href="minimumConstraints_8cpp.html#aeb8c374e79e38289a66b8b65d6574141" target="_top" xlink:title=" ">
<path fill="#fff0f0" stroke="red" d="M255.17,-283C255.17,-283 192.83,-283 192.83,-283 189.67,-283 186.5,-279.83 186.5,-276.67 186.5,-276.67 186.5,-270.33 186.5,-270.33 186.5,-267.17 189.67,-264 192.83,-264 192.83,-264 255.17,-264 255.17,-264 258.33,-264 261.5,-267.17 261.5,-270.33 261.5,-270.33 261.5,-276.67 261.5,-276.67 261.5,-279.83 258.33,-283 255.17,-283"/>
<text text-anchor="middle" x="224" y="-271" font-family="Helvetica,sans-Serif" font-size="10.00">minconOnly</text>
</a>
</g>
</g>
<!-- Node1&#45;&gt;Node15 -->
<g id="edge14_Node000001_Node000015" class="edge">
<title>Node1&#45;&gt;Node15</title>
<g id="a_edge14_Node000001_Node000015"><a xlink:title=" ">
<path fill="none" stroke="#63b8ff" d="M512.76,-251.9C463.48,-250.78 396.11,-250.66 337,-255.5 311.68,-257.57 283.44,-262.13 261.65,-266.14"/>
<polygon fill="#63b8ff" stroke="#63b8ff" points="512.9,-255.4 522.99,-252.15 513.08,-248.4 512.9,-255.4"/>
</a>
</g>
</g>
<!-- Node16 -->
<g id="Node000016" class="node">
<title>Node16</title>
<g id="a_Node000016"><a xlink:href="debug_8cpp.html#a80d24c0bf09dad23394c5fcac25aa80b" target="_top" xlink:title=" ">
<path fill="#fff0f0" stroke="red" d="M259.17,-246C259.17,-246 188.83,-246 188.83,-246 185.67,-246 182.5,-242.83 182.5,-239.67 182.5,-239.67 182.5,-233.33 182.5,-233.33 182.5,-230.17 185.67,-227 188.83,-227 188.83,-227 259.17,-227 259.17,-227 262.33,-227 265.5,-230.17 265.5,-233.33 265.5,-233.33 265.5,-239.67 265.5,-239.67 265.5,-242.83 262.33,-246 259.17,-246"/>
<text text-anchor="middle" x="224" y="-234" font-family="Helvetica,sans-Serif" font-size="10.00">minimumTest</text>
</a>
</g>
</g>
<!-- Node1&#45;&gt;Node16 -->
<g id="edge15_Node000001_Node000016" class="edge">
<title>Node1&#45;&gt;Node16</title>
<g id="a_edge15_Node000001_Node000016"><a xlink:title=" ">
<path fill="none" stroke="#63b8ff" d="M552.42,-241.08C533.88,-233.69 509.54,-225.27 487,-221.5 409.48,-208.55 317.47,-219.86 265.7,-228.62"/>
<polygon fill="#63b8ff" stroke="#63b8ff" points="551.22,-244.37 561.8,-244.93 553.88,-237.89 551.22,-244.37"/>
</a>
</g>
</g>
<!-- Node19 -->
<g id="Node000019" class="node">
<title>Node19</title>
<g id="a_Node000019"><a xlink:href="ppppp_8cpp.html#a9997f03cab80cd8db895650860eb025e" target="_top" xlink:title=" ">
<path fill="#fff0f0" stroke="red" d="M235.17,-146C235.17,-146 212.83,-146 212.83,-146 209.67,-146 206.5,-142.83 206.5,-139.67 206.5,-139.67 206.5,-133.33 206.5,-133.33 206.5,-130.17 209.67,-127 212.83,-127 212.83,-127 235.17,-127 235.17,-127 238.33,-127 241.5,-130.17 241.5,-133.33 241.5,-133.33 241.5,-139.67 241.5,-139.67 241.5,-142.83 238.33,-146 235.17,-146"/>
<text text-anchor="middle" x="224" y="-134" font-family="Helvetica,sans-Serif" font-size="10.00">ppp</text>
</a>
</g>
</g>
<!-- Node1&#45;&gt;Node19 -->
<g id="edge17_Node000001_Node000019" class="edge">
<title>Node1&#45;&gt;Node19</title>
<g id="a_edge17_Node000001_Node000019"><a xlink:title=" ">
<path fill="none" stroke="#63b8ff" d="M564.15,-238.38C545.69,-223.44 516.16,-201.74 487,-189.5 399.28,-152.68 284.04,-140.84 241.61,-137.59"/>
<polygon fill="#63b8ff" stroke="#63b8ff" points="562.1,-241.23 572.04,-244.9 566.56,-235.83 562.1,-241.23"/>
</a>
</g>
</g>
<!-- Node20 -->
<g id="Node000020" class="node">
<title>Node20</title>
<g id="a_Node000020"><a xlink:href="spp_8cpp.html#a2ec47af9ec762fa7586a8309d413cf84" target="_top" xlink:title="Compute receiver position, velocity, clock bias by single&#45;point positioning with pseudorange observab...">
<path fill="#fff0f0" stroke="red" d="M422.67,-93C422.67,-93 401.33,-93 401.33,-93 398.17,-93 395,-89.83 395,-86.67 395,-86.67 395,-80.33 395,-80.33 395,-77.17 398.17,-74 401.33,-74 401.33,-74 422.67,-74 422.67,-74 425.83,-74 429,-77.17 429,-80.33 429,-80.33 429,-86.67 429,-86.67 429,-89.83 425.83,-93 422.67,-93"/>
<text text-anchor="middle" x="412" y="-81" font-family="Helvetica,sans-Serif" font-size="10.00">spp</text>
</a>
</g>
</g>
<!-- Node1&#45;&gt;Node20 -->
<g id="edge19_Node000001_Node000020" class="edge">
<title>Node1&#45;&gt;Node20</title>
<g id="a_edge19_Node000001_Node000020"><a xlink:title=" ">
<path fill="none" stroke="#63b8ff" d="M575.68,-235.7C562.59,-204.52 532.24,-142.11 487,-107.5 469.84,-94.37 445.22,-88.28 429.17,-85.56"/>
<polygon fill="#63b8ff" stroke="#63b8ff" points="572.45,-237.05 579.45,-245 578.93,-234.41 572.45,-237.05"/>
</a>
</g>
</g>
<!-- Node23 -->
<g id="Node000023" class="node">
<title>Node23</title>
<g id="a_Node000023"><a xlink:href="walkthrough_8cpp.html#af3e41749378ce9de79e7bdb41df88419" target="_top" xlink:title="Ginan kalman filter basics The basic structure for kalman filtering in ginan is the KFState struct,...">
<path fill="#fff0f0" stroke="red" d="M447.17,-56C447.17,-56 376.83,-56 376.83,-56 373.67,-56 370.5,-52.83 370.5,-49.67 370.5,-49.67 370.5,-43.33 370.5,-43.33 370.5,-40.17 373.67,-37 376.83,-37 376.83,-37 447.17,-37 447.17,-37 450.33,-37 453.5,-40.17 453.5,-43.33 453.5,-43.33 453.5,-49.67 453.5,-49.67 453.5,-52.83 450.33,-56 447.17,-56"/>
<text text-anchor="middle" x="412" y="-44" font-family="Helvetica,sans-Serif" font-size="10.00">walkthrough1</text>
</a>
</g>
</g>
<!-- Node1&#45;&gt;Node23 -->
<g id="edge20_Node000001_Node000023" class="edge">
<title>Node1&#45;&gt;Node23</title>
<g id="a_edge20_Node000001_Node000023"><a xlink:title=" ">
<path fill="none" stroke="#63b8ff" d="M578.83,-234.77C569.54,-195.89 543.39,-109.24 487,-64.5 477.57,-57.02 465.5,-52.58 453.85,-49.97"/>
<polygon fill="#63b8ff" stroke="#63b8ff" points="575.48,-235.82 581.1,-244.81 582.31,-234.28 575.48,-235.82"/>
</a>
</g>
</g>
<!-- Node25 -->
<g id="Node000025" class="node">
<title>Node25</title>
<g id="a_Node000025"><a xlink:href="walkthrough_8cpp.html#aff7ddc151473d418c066b30f06e6b42e" target="_top" xlink:title=" ">
<path fill="#fff0f0" stroke="red" d="M447.17,-19C447.17,-19 376.83,-19 376.83,-19 373.67,-19 370.5,-15.83 370.5,-12.67 370.5,-12.67 370.5,-6.33 370.5,-6.33 370.5,-3.17 373.67,0 376.83,0 376.83,0 447.17,0 447.17,0 450.33,0 453.5,-3.17 453.5,-6.33 453.5,-6.33 453.5,-12.67 453.5,-12.67 453.5,-15.83 450.33,-19 447.17,-19"/>
<text text-anchor="middle" x="412" y="-7" font-family="Helvetica,sans-Serif" font-size="10.00">walkthrough2</text>
</a>
</g>
</g>
<!-- Node1&#45;&gt;Node25 -->
<g id="edge21_Node000001_Node000025" class="edge">
<title>Node1&#45;&gt;Node25</title>
<g id="a_edge21_Node000001_Node000025"><a xlink:title=" ">
<path fill="none" stroke="#63b8ff" d="M580.64,-234.98C574.24,-190.89 552.37,-83.09 487,-27.5 477.73,-19.62 465.57,-15.08 453.79,-12.5"/>
<polygon fill="#63b8ff" stroke="#63b8ff" points="577.18,-235.53 581.98,-244.97 584.12,-234.6 577.18,-235.53"/>
</a>
</g>
</g>
<!-- Node10&#45;&gt;Node7 -->
<g id="edge4_Node000010_Node000007" class="edge">
<title>Node10&#45;&gt;Node7</title>
<g id="a_edge4_Node000010_Node000007"><a xlink:title=" ">
<path fill="none" stroke="#63b8ff" d="M355.55,-418.59C348.6,-415.8 342.14,-411.9 337,-406.5 278.08,-344.53 357.81,-281.42 301,-217.5 297.97,-214.09 294.45,-211.16 290.63,-208.64"/>
<polygon fill="#63b8ff" stroke="#63b8ff" points="354.68,-421.98 365.27,-421.75 356.84,-415.33 354.68,-421.98"/>
</a>
</g>
</g>
<!-- Node7&#45;&gt;Node8 -->
<g id="edge5_Node000007_Node000008" class="edge">
<title>Node7&#45;&gt;Node8</title>
<g id="a_edge5_Node000007_Node000008"><a xlink:title=" ">
<path fill="none" stroke="#63b8ff" d="M136.45,-193.5C127.83,-193.5 119.25,-193.5 111.1,-193.5"/>
<polygon fill="#63b8ff" stroke="#63b8ff" points="136.57,-197 146.57,-193.5 136.57,-190 136.57,-197"/>
</a>
</g>
</g>
<!-- Node12&#45;&gt;Node7 -->
<g id="edge13_Node000012_Node000007" class="edge">
<title>Node12&#45;&gt;Node7</title>
<g id="a_edge13_Node000012_Node000007"><a xlink:title=" ">
<path fill="none" stroke="#63b8ff" d="M385.27,-258.87C363.33,-246.77 330.72,-229.66 301,-217.5 293.32,-214.36 285.06,-211.37 276.92,-208.63"/>
<polygon fill="#63b8ff" stroke="#63b8ff" points="383.82,-262.07 394.26,-263.88 387.23,-255.95 383.82,-262.07"/>
</a>
</g>
</g>
<!-- Node12&#45;&gt;Node5 -->
<g id="edge10_Node000012_Node000005" class="edge">
<title>Node12&#45;&gt;Node5</title>
<g id="a_edge10_Node000012_Node000005"><a xlink:title=" ">
<path fill="none" stroke="#63b8ff" d="M375.29,-280.8C345.86,-286.81 303.89,-295.38 271.78,-301.94"/>
<polygon fill="#63b8ff" stroke="#63b8ff" points="376.04,-284.21 385.14,-278.78 374.64,-277.36 376.04,-284.21"/>
</a>
</g>
</g>
<!-- Node12&#45;&gt;Node15 -->
<g id="edge11_Node000012_Node000015" class="edge">
<title>Node12&#45;&gt;Node15</title>
<g id="a_edge11_Node000012_Node000015"><a xlink:title=" ">
<path fill="none" stroke="#63b8ff" d="M375.1,-273.5C342.42,-273.5 294.39,-273.5 261.51,-273.5"/>
<polygon fill="#63b8ff" stroke="#63b8ff" points="375.14,-277 385.14,-273.5 375.14,-270 375.14,-277"/>
</a>
</g>
</g>
<!-- Node12&#45;&gt;Node16 -->
<g id="edge12_Node000012_Node000016" class="edge">
<title>Node12&#45;&gt;Node16</title>
<g id="a_edge12_Node000012_Node000016"><a xlink:title=" ">
<path fill="none" stroke="#63b8ff" d="M375.09,-266.36C343.76,-260.12 298.32,-251.09 265.66,-244.59"/>
<polygon fill="#63b8ff" stroke="#63b8ff" points="374.65,-269.84 385.14,-268.36 376.01,-262.97 374.65,-269.84"/>
</a>
</g>
</g>
<!-- Node19&#45;&gt;Node8 -->
<g id="edge18_Node000019_Node000008" class="edge">
<title>Node19&#45;&gt;Node8</title>
<g id="a_edge18_Node000019_Node000008"><a xlink:title=" ">
<path fill="none" stroke="#63b8ff" d="M196.85,-145.45C166.2,-155.94 115.62,-173.26 84.28,-183.99"/>
<polygon fill="#63b8ff" stroke="#63b8ff" points="198.1,-148.72 206.43,-142.17 195.83,-142.1 198.1,-148.72"/>
</a>
</g>
</g>
</g>
</svg>
