<?xml version="1.0" encoding="UTF-8" standalone="no"?>
<!DOCTYPE svg PUBLIC "-//W3C//DTD SVG 1.1//EN"
 "http://www.w3.org/Graphics/SVG/1.1/DTD/svg11.dtd">
<!-- Generated by graphviz version 2.43.0 (0)
 -->
<!-- Title: OrbitIntegrator::computeAcceleration Pages: 1 -->
<svg width="483pt" height="771pt"
 viewBox="0.00 0.00 483.00 771.00" xmlns="http://www.w3.org/2000/svg" xmlns:xlink="http://www.w3.org/1999/xlink">
<g id="graph0" class="graph" transform="scale(1 1) rotate(0) translate(4 767)">
<title>OrbitIntegrator::computeAcceleration</title>
<!-- Node1 -->
<g id="Node000001" class="node">
<title>Node1</title>
<g id="a_Node000001"><a xlink:href="structOrbitIntegrator.html#a3ed19521cfc21cdaa2d7c8fa4f385499" target="_top" xlink:title=" ">
<path fill="#fff0f0" stroke="red" stroke-width="2" d="M127,-433.5C127,-433.5 10,-433.5 10,-433.5 5,-433.5 0,-428.5 0,-423.5 0,-423.5 0,-413.5 0,-413.5 0,-408.5 5,-403.5 10,-403.5 10,-403.5 127,-403.5 127,-403.5 132,-403.5 137,-408.5 137,-413.5 137,-413.5 137,-423.5 137,-423.5 137,-428.5 132,-433.5 127,-433.5"/>
<text text-anchor="start" x="8" y="-421.5" font-family="Helvetica,sans-Serif" font-size="10.00">OrbitIntegrator::compute</text>
<text text-anchor="middle" x="68.5" y="-410.5" font-family="Helvetica,sans-Serif" font-size="10.00">Acceleration</text>
</a>
</g>
</g>
<!-- Node2 -->
<g id="Node000002" class="node">
<title>Node2</title>
<g id="a_Node000002"><a xlink:href="trace_8hpp.html#af5320371d0f15d74154b2b32d315684d" target="_top" xlink:title=" ">
<path fill="#fff0f0" stroke="red" d="M285.17,-763C285.17,-763 222.83,-763 222.83,-763 219.67,-763 216.5,-759.83 216.5,-756.67 216.5,-756.67 216.5,-750.33 216.5,-750.33 216.5,-747.17 219.67,-744 222.83,-744 222.83,-744 285.17,-744 285.17,-744 288.33,-744 291.5,-747.17 291.5,-750.33 291.5,-750.33 291.5,-756.67 291.5,-756.67 291.5,-759.83 288.33,-763 285.17,-763"/>
<text text-anchor="middle" x="254" y="-751" font-family="Helvetica,sans-Serif" font-size="10.00">getTraceFile</text>
</a>
</g>
</g>
<!-- Node1&#45;&gt;Node2 -->
<g id="edge1_Node000001_Node000002" class="edge">
<title>Node1&#45;&gt;Node2</title>
<g id="a_edge1_Node000001_Node000002"><a xlink:title=" ">
<path fill="none" stroke="#63b8ff" d="M69.87,-433.67C71.94,-483.6 85.41,-644.49 173,-729.5 182.02,-738.26 194.11,-743.84 206.16,-747.38"/>
<polygon fill="#63b8ff" stroke="#63b8ff" points="205.64,-750.86 216.19,-749.91 207.35,-744.08 205.64,-750.86"/>
</a>
</g>
</g>
<!-- Node3 -->
<g id="Node000003" class="node">
<title>Node3</title>
<g id="a_Node000003"><a xlink:href="acceleration_8cpp.html#a4b560ff1ca9df0d6b36daf2674ae37d3" target="_top" xlink:title="Central force acceleration.">
<path fill="#fff0f0" stroke="red" d="M468.67,-687C468.67,-687 377.33,-687 377.33,-687 374.17,-687 371,-683.83 371,-680.67 371,-680.67 371,-674.33 371,-674.33 371,-671.17 374.17,-668 377.33,-668 377.33,-668 468.67,-668 468.67,-668 471.83,-668 475,-671.17 475,-674.33 475,-674.33 475,-680.67 475,-680.67 475,-683.83 471.83,-687 468.67,-687"/>
<text text-anchor="middle" x="423" y="-675" font-family="Helvetica,sans-Serif" font-size="10.00">accelCentralForce</text>
</a>
</g>
</g>
<!-- Node1&#45;&gt;Node3 -->
<g id="edge2_Node000001_Node000003" class="edge">
<title>Node1&#45;&gt;Node3</title>
<g id="a_edge2_Node000001_Node000003"><a xlink:title=" ">
<path fill="none" stroke="#63b8ff" d="M69.64,-433.75C71.03,-482.31 82.7,-633.76 173,-696.5 239.59,-742.77 341.79,-711.29 392.02,-690.97"/>
<polygon fill="#63b8ff" stroke="#63b8ff" points="393.46,-694.16 401.35,-687.08 390.77,-687.7 393.46,-694.16"/>
</a>
</g>
</g>
<!-- Node4 -->
<g id="Node000004" class="node">
<title>Node4</title>
<g id="a_Node000004"><a xlink:href="acceleration_8cpp.html#aabb45560abe7b7e087899dca129ea165" target="_top" xlink:title="Source point acceleration from a planet acting on a satellite.">
<path fill="#fff0f0" stroke="red" d="M297.67,-687C297.67,-687 210.33,-687 210.33,-687 207.17,-687 204,-683.83 204,-680.67 204,-680.67 204,-674.33 204,-674.33 204,-671.17 207.17,-668 210.33,-668 210.33,-668 297.67,-668 297.67,-668 300.83,-668 304,-671.17 304,-674.33 304,-674.33 304,-680.67 304,-680.67 304,-683.83 300.83,-687 297.67,-687"/>
<text text-anchor="middle" x="254" y="-675" font-family="Helvetica,sans-Serif" font-size="10.00">accelSourcePoint</text>
</a>
</g>
</g>
<!-- Node1&#45;&gt;Node4 -->
<g id="edge3_Node000001_Node000004" class="edge">
<title>Node1&#45;&gt;Node4</title>
<g id="a_edge3_Node000001_Node000004"><a xlink:title=" ">
<path fill="none" stroke="#63b8ff" d="M71.28,-433.74C77.14,-476.54 99.8,-598.68 173,-659.5 179.16,-664.62 186.47,-668.35 194.14,-671.07"/>
<polygon fill="#63b8ff" stroke="#63b8ff" points="193.39,-674.5 203.98,-673.99 195.39,-667.79 193.39,-674.5"/>
</a>
</g>
</g>
<!-- Node5 -->
<g id="Node000005" class="node">
<title>Node5</title>
<g id="a_Node000005"><a xlink:href="acceleration_8cpp.html#a47f8bbad94d274d209b01cb9bb8949ef" target="_top" xlink:title="Compute the acceleration of due to a spherical harmonic field acting on the satellite.">
<path fill="#fff0f0" stroke="red" d="M278.67,-650C278.67,-650 229.33,-650 229.33,-650 226.17,-650 223,-646.83 223,-643.67 223,-643.67 223,-637.33 223,-637.33 223,-634.17 226.17,-631 229.33,-631 229.33,-631 278.67,-631 278.67,-631 281.83,-631 285,-634.17 285,-637.33 285,-637.33 285,-643.67 285,-643.67 285,-646.83 281.83,-650 278.67,-650"/>
<text text-anchor="middle" x="254" y="-638" font-family="Helvetica,sans-Serif" font-size="10.00">accelSPH</text>
</a>
</g>
</g>
<!-- Node1&#45;&gt;Node5 -->
<g id="edge6_Node000001_Node000005" class="edge">
<title>Node1&#45;&gt;Node5</title>
<g id="a_edge6_Node000001_Node000005"><a xlink:title=" ">
<path fill="none" stroke="#63b8ff" d="M73.69,-433.74C83.39,-471.03 111.41,-565.57 173,-613.5 184.19,-622.21 198.79,-626.87 212.44,-629.84"/>
<polygon fill="#63b8ff" stroke="#63b8ff" points="212.14,-633.34 222.63,-631.82 213.48,-626.47 212.14,-633.34"/>
</a>
</g>
</g>
<!-- Node1&#45;&gt;Node5 -->
<g id="edge7_Node000001_Node000005" class="edge">
<title>Node1&#45;&gt;Node5</title>
<g id="a_edge7_Node000001_Node000005"><a xlink:title=" ">
<path fill="none" stroke="#63b8ff" d="M71.68,-433.53C79.05,-473.32 106.4,-579.67 173,-631.5 184.19,-640.21 198.79,-644.87 212.44,-646.78"/>
<polygon fill="#63b8ff" stroke="#63b8ff" points="212.35,-650.28 222.63,-647.72 212.99,-643.31 212.35,-650.28"/>
</a>
</g>
</g>
<!-- Node7 -->
<g id="Node000007" class="node">
<title>Node7</title>
<g id="a_Node000007"><a xlink:href="acceleration_8cpp.html#a58ec4e57210d82626bf5605188a92a22" target="_top" xlink:title="&quot;The indirect J2 effect&quot;.">
<path fill="#fff0f0" stroke="red" d="M273.17,-613C273.17,-613 234.83,-613 234.83,-613 231.67,-613 228.5,-609.83 228.5,-606.67 228.5,-606.67 228.5,-600.33 228.5,-600.33 228.5,-597.17 231.67,-594 234.83,-594 234.83,-594 273.17,-594 273.17,-594 276.33,-594 279.5,-597.17 279.5,-600.33 279.5,-600.33 279.5,-606.67 279.5,-606.67 279.5,-609.83 276.33,-613 273.17,-613"/>
<text text-anchor="middle" x="254" y="-601" font-family="Helvetica,sans-Serif" font-size="10.00">accelJ2</text>
</a>
</g>
</g>
<!-- Node1&#45;&gt;Node7 -->
<g id="edge8_Node000001_Node000007" class="edge">
<title>Node1&#45;&gt;Node7</title>
<g id="a_edge8_Node000001_Node000007"><a xlink:title=" ">
<path fill="none" stroke="#63b8ff" d="M74.3,-433.55C85.67,-466.66 117.56,-546.04 173,-585.5 186.1,-594.82 203.21,-599.42 218.24,-601.65"/>
<polygon fill="#63b8ff" stroke="#63b8ff" points="217.9,-605.14 228.25,-602.85 218.73,-598.19 217.9,-605.14"/>
</a>
</g>
</g>
<!-- Node8 -->
<g id="Node000008" class="node">
<title>Node8</title>
<g id="a_Node000008"><a xlink:href="structIERS2010.html#ac0665555fbdfa4fced99082dc9963d79" target="_top" xlink:title=" ">
<path fill="#fff0f0" stroke="red" d="M304.17,-576C304.17,-576 203.83,-576 203.83,-576 200.67,-576 197.5,-572.83 197.5,-569.67 197.5,-569.67 197.5,-563.33 197.5,-563.33 197.5,-560.17 200.67,-557 203.83,-557 203.83,-557 304.17,-557 304.17,-557 307.33,-557 310.5,-560.17 310.5,-563.33 310.5,-563.33 310.5,-569.67 310.5,-569.67 310.5,-572.83 307.33,-576 304.17,-576"/>
<text text-anchor="middle" x="254" y="-564" font-family="Helvetica,sans-Serif" font-size="10.00">IERS2010::relativity</text>
</a>
</g>
</g>
<!-- Node1&#45;&gt;Node8 -->
<g id="edge9_Node000001_Node000008" class="edge">
<title>Node1&#45;&gt;Node8</title>
<g id="a_edge9_Node000001_Node000008"><a xlink:title=" ">
<path fill="none" stroke="#63b8ff" d="M80.35,-433.78C96.45,-460.03 129.49,-512.23 173,-539.5 185.52,-547.35 201.04,-551.79 215.07,-554.9"/>
<polygon fill="#63b8ff" stroke="#63b8ff" points="214.45,-558.35 224.96,-556.96 215.88,-551.49 214.45,-558.35"/>
</a>
</g>
</g>
<!-- Node1&#45;&gt;Node8 -->
<g id="edge10_Node000001_Node000008" class="edge">
<title>Node1&#45;&gt;Node8</title>
<g id="a_edge10_Node000001_Node000008"><a xlink:title=" ">
<path fill="none" stroke="#63b8ff" d="M74.78,-433.86C87.73,-463.5 123.62,-526.55 173,-557.5 177.48,-560.31 182.35,-562.68 187.4,-564.66"/>
<polygon fill="#63b8ff" stroke="#63b8ff" points="186.68,-568.11 197.27,-567.98 188.91,-561.48 186.68,-568.11"/>
</a>
</g>
</g>
<!-- Node9 -->
<g id="Node000009" class="node">
<title>Node9</title>
<g id="a_Node000009"><a xlink:href="attitude_8cpp.html#a543fde2ca3f11becceecfce52de34cd8" target="_top" xlink:title="Calculates fraction of Sun&#39;s disk visible by spacecraft 0 = full eclipse (umbra) 0 &lt; fraction &lt; 1 = p...">
<path fill="#fff0f0" stroke="red" d="M286.17,-539C286.17,-539 221.83,-539 221.83,-539 218.67,-539 215.5,-535.83 215.5,-532.67 215.5,-532.67 215.5,-526.33 215.5,-526.33 215.5,-523.17 218.67,-520 221.83,-520 221.83,-520 286.17,-520 286.17,-520 289.33,-520 292.5,-523.17 292.5,-526.33 292.5,-526.33 292.5,-532.67 292.5,-532.67 292.5,-535.83 289.33,-539 286.17,-539"/>
<text text-anchor="middle" x="254" y="-527" font-family="Helvetica,sans-Serif" font-size="10.00">sunVisibility</text>
</a>
</g>
</g>
<!-- Node1&#45;&gt;Node9 -->
<g id="edge11_Node000001_Node000009" class="edge">
<title>Node1&#45;&gt;Node9</title>
<g id="a_edge11_Node000001_Node000009"><a xlink:title=" ">
<path fill="none" stroke="#63b8ff" d="M87.76,-433.64C106.81,-452.87 138.66,-484.77 173,-502.5 187.49,-509.98 205.03,-514.37 219.99,-517.75"/>
<polygon fill="#63b8ff" stroke="#63b8ff" points="219.35,-521.19 229.87,-519.95 220.87,-514.36 219.35,-521.19"/>
</a>
</g>
</g>
<!-- Node1&#45;&gt;Node9 -->
<g id="edge15_Node000001_Node000009" class="edge">
<title>Node1&#45;&gt;Node9</title>
<g id="a_edge15_Node000001_Node000009"><a xlink:title=" ">
<path fill="none" stroke="#63b8ff" d="M77.44,-433.52C93.39,-456.68 131.36,-499 173,-520.5 182.98,-525.65 194.4,-529.34 205.43,-531.71"/>
<polygon fill="#63b8ff" stroke="#63b8ff" points="204.93,-535.17 215.39,-533.52 206.18,-528.29 204.93,-535.17"/>
</a>
</g>
</g>
<!-- Node11 -->
<g id="Node000011" class="node">
<title>Node11</title>
<g id="a_Node000011"><a xlink:href="algebra__old_8cpp.html#abaa5d4a31df361116a9b2be552624cf9" target="_top" xlink:title=" ">
<path fill="#fff0f0" stroke="red" d="M268.67,-502C268.67,-502 239.33,-502 239.33,-502 236.17,-502 233,-498.83 233,-495.67 233,-495.67 233,-489.33 233,-489.33 233,-486.17 236.17,-483 239.33,-483 239.33,-483 268.67,-483 268.67,-483 271.83,-483 275,-486.17 275,-489.33 275,-489.33 275,-495.67 275,-495.67 275,-498.83 271.83,-502 268.67,-502"/>
<text text-anchor="middle" x="254" y="-490" font-family="Helvetica,sans-Serif" font-size="10.00">norm</text>
</a>
</g>
</g>
<!-- Node1&#45;&gt;Node11 -->
<g id="edge12_Node000001_Node000011" class="edge">
<title>Node1&#45;&gt;Node11</title>
<g id="a_edge12_Node000001_Node000011"><a xlink:title=" ">
<path fill="none" stroke="#63b8ff" d="M92.87,-433.57C113.29,-446.13 144.11,-463.67 173,-474.5 189.03,-480.51 207.65,-484.84 222.89,-487.75"/>
<polygon fill="#63b8ff" stroke="#63b8ff" points="222.37,-491.21 232.83,-489.54 223.61,-484.33 222.37,-491.21"/>
</a>
</g>
</g>
<!-- Node13 -->
<g id="Node000013" class="node">
<title>Node13</title>
<g id="a_Node000013"><a xlink:href="attitude_8cpp.html#a0584e56d2ad0d93d89079e841a6dba28" target="_top" xlink:title="Update sat nominal/model yaws.">
<path fill="#fff0f0" stroke="red" d="M290.67,-465C290.67,-465 217.33,-465 217.33,-465 214.17,-465 211,-461.83 211,-458.67 211,-458.67 211,-452.33 211,-452.33 211,-449.17 214.17,-446 217.33,-446 217.33,-446 290.67,-446 290.67,-446 293.83,-446 297,-449.17 297,-452.33 297,-452.33 297,-458.67 297,-458.67 297,-461.83 293.83,-465 290.67,-465"/>
<text text-anchor="middle" x="254" y="-453" font-family="Helvetica,sans-Serif" font-size="10.00">updateSatAtts</text>
</a>
</g>
</g>
<!-- Node1&#45;&gt;Node13 -->
<g id="edge13_Node000001_Node000013" class="edge">
<title>Node1&#45;&gt;Node13</title>
<g id="a_edge13_Node000001_Node000013"><a xlink:title=" ">
<path fill="none" stroke="#63b8ff" d="M137.05,-425.58C165.05,-430.73 196.29,-437.41 219.29,-443.34"/>
<polygon fill="#63b8ff" stroke="#63b8ff" points="218.66,-446.79 229.23,-445.99 220.47,-440.03 218.66,-446.79"/>
</a>
</g>
</g>
<!-- Node1&#45;&gt;Node13 -->
<g id="edge16_Node000001_Node000013" class="edge">
<title>Node1&#45;&gt;Node13</title>
<g id="a_edge16_Node000001_Node000013"><a xlink:title=" ">
<path fill="none" stroke="#63b8ff" d="M114.86,-433.56C140.93,-439.84 173.78,-446.55 200.9,-451.15"/>
<polygon fill="#63b8ff" stroke="#63b8ff" points="200.55,-454.64 210.99,-452.81 201.69,-447.73 200.55,-454.64"/>
</a>
</g>
</g>
<!-- Node95 -->
<g id="Node000095" class="node">
<title>Node95</title>
<g id="a_Node000095"><a xlink:href="boxwing_8cpp.html#a0f2ed5ce271eca9d462328ef96a20804" target="_top" xlink:title=" ">
<path fill="#fff0f0" stroke="red" d="M298.17,-428C298.17,-428 209.83,-428 209.83,-428 206.67,-428 203.5,-424.83 203.5,-421.67 203.5,-421.67 203.5,-415.33 203.5,-415.33 203.5,-412.17 206.67,-409 209.83,-409 209.83,-409 298.17,-409 298.17,-409 301.33,-409 304.5,-412.17 304.5,-415.33 304.5,-415.33 304.5,-421.67 304.5,-421.67 304.5,-424.83 301.33,-428 298.17,-428"/>
<text text-anchor="middle" x="254" y="-416" font-family="Helvetica,sans-Serif" font-size="10.00">applyBoxwingSrp</text>
</a>
</g>
</g>
<!-- Node1&#45;&gt;Node95 -->
<g id="edge14_Node000001_Node000095" class="edge">
<title>Node1&#45;&gt;Node95</title>
<g id="a_edge14_Node000001_Node000095"><a xlink:title=" ">
<path fill="none" stroke="#63b8ff" d="M137.05,-418.5C155.5,-418.5 175.36,-418.5 193.34,-418.5"/>
<polygon fill="#63b8ff" stroke="#63b8ff" points="193.39,-422 203.39,-418.5 193.39,-415 193.39,-422"/>
</a>
</g>
</g>
<!-- Node98 -->
<g id="Node000098" class="node">
<title>Node98</title>
<g id="a_Node000098"><a xlink:href="boxwing_8cpp.html#a004235dcf1fb99c3adeb2be5839dc22a" target="_top" xlink:title=" ">
<path fill="#fff0f0" stroke="red" d="M307.17,-391C307.17,-391 200.83,-391 200.83,-391 197.67,-391 194.5,-387.83 194.5,-384.67 194.5,-384.67 194.5,-378.33 194.5,-378.33 194.5,-375.17 197.67,-372 200.83,-372 200.83,-372 307.17,-372 307.17,-372 310.33,-372 313.5,-375.17 313.5,-378.33 313.5,-378.33 313.5,-384.67 313.5,-384.67 313.5,-387.83 310.33,-391 307.17,-391"/>
<text text-anchor="middle" x="254" y="-379" font-family="Helvetica,sans-Serif" font-size="10.00">applyBoxwingAlbedo</text>
</a>
</g>
</g>
<!-- Node1&#45;&gt;Node98 -->
<g id="edge17_Node000001_Node000098" class="edge">
<title>Node1&#45;&gt;Node98</title>
<g id="a_edge17_Node000001_Node000098"><a xlink:title=" ">
<path fill="none" stroke="#63b8ff" d="M137.05,-404.88C156.36,-400.99 177.22,-396.78 195.85,-393.02"/>
<polygon fill="#63b8ff" stroke="#63b8ff" points="196.55,-396.45 205.66,-391.05 195.16,-389.59 196.55,-396.45"/>
</a>
</g>
</g>
<!-- Node99 -->
<g id="Node000099" class="node">
<title>Node99</title>
<g id="a_Node000099"><a xlink:href="structSpaceWeather.html#a75af64defa3378682153d5b0f73df63d" target="_top" xlink:title=" ">
<path fill="#fff0f0" stroke="red" d="M328.67,-354C328.67,-354 179.33,-354 179.33,-354 176.17,-354 173,-350.83 173,-347.67 173,-347.67 173,-341.33 173,-341.33 173,-338.17 176.17,-335 179.33,-335 179.33,-335 328.67,-335 328.67,-335 331.83,-335 335,-338.17 335,-341.33 335,-341.33 335,-347.67 335,-347.67 335,-350.83 331.83,-354 328.67,-354"/>
<text text-anchor="middle" x="254" y="-342" font-family="Helvetica,sans-Serif" font-size="10.00">SpaceWeather::SpaceWeather</text>
</a>
</g>
</g>
<!-- Node1&#45;&gt;Node99 -->
<g id="edge18_Node000001_Node000099" class="edge">
<title>Node1&#45;&gt;Node99</title>
<g id="a_edge18_Node000001_Node000099"><a xlink:title=" ">
<path fill="none" stroke="#63b8ff" d="M93.76,-403.32C114.23,-391.08 144.63,-374.2 173,-363.5 179.79,-360.94 187.05,-358.64 194.31,-356.61"/>
<polygon fill="#63b8ff" stroke="#63b8ff" points="195.4,-359.94 204.18,-354 193.61,-353.17 195.4,-359.94"/>
</a>
</g>
</g>
<!-- Node100 -->
<g id="Node000100" class="node">
<title>Node100</title>
<g id="a_Node000100"><a xlink:href="gTime_8cpp.html#a210bda8e07fa8a70ce6c79948e42efe0" target="_top" xlink:title=" ">
<path fill="#fff0f0" stroke="red" d="M453.67,-205C453.67,-205 392.33,-205 392.33,-205 389.17,-205 386,-201.83 386,-198.67 386,-198.67 386,-192.33 386,-192.33 386,-189.17 389.17,-186 392.33,-186 392.33,-186 453.67,-186 453.67,-186 456.83,-186 460,-189.17 460,-192.33 460,-192.33 460,-198.67 460,-198.67 460,-201.83 456.83,-205 453.67,-205"/>
<text text-anchor="middle" x="423" y="-193" font-family="Helvetica,sans-Serif" font-size="10.00">time2epoch</text>
</a>
</g>
</g>
<!-- Node1&#45;&gt;Node100 -->
<g id="edge19_Node000001_Node000100" class="edge">
<title>Node1&#45;&gt;Node100</title>
<g id="a_edge19_Node000001_Node000100"><a xlink:title=" ">
<path fill="none" stroke="#63b8ff" d="M82.21,-403.25C100.24,-382.64 135.28,-346.2 173,-326.5 238.64,-292.21 270.91,-324.6 335,-287.5 367.32,-268.79 395.05,-234.41 410.06,-213.38"/>
<polygon fill="#63b8ff" stroke="#63b8ff" points="413.03,-215.23 415.85,-205.02 407.28,-211.25 413.03,-215.23"/>
</a>
</g>
</g>
<!-- Node101 -->
<g id="Node000101" class="node">
<title>Node101</title>
<g id="a_Node000101"><a xlink:href="utils_8cpp.html#ae91d83cf693cdc7e1efacbe4d8d9656e" target="_top" xlink:title=" ">
<path fill="#fff0f0" stroke="red" d="M278.17,-278C278.17,-278 229.83,-278 229.83,-278 226.67,-278 223.5,-274.83 223.5,-271.67 223.5,-271.67 223.5,-265.33 223.5,-265.33 223.5,-262.17 226.67,-259 229.83,-259 229.83,-259 278.17,-259 278.17,-259 281.33,-259 284.5,-262.17 284.5,-265.33 284.5,-265.33 284.5,-271.67 284.5,-271.67 284.5,-274.83 281.33,-278 278.17,-278"/>
<text text-anchor="middle" x="254" y="-266" font-family="Helvetica,sans-Serif" font-size="10.00">ecef2pos</text>
</a>
</g>
</g>
<!-- Node1&#45;&gt;Node101 -->
<g id="edge20_Node000001_Node000101" class="edge">
<title>Node1&#45;&gt;Node101</title>
<g id="a_edge20_Node000001_Node000101"><a xlink:title=" ">
<path fill="none" stroke="#63b8ff" d="M77.91,-403.22C93.27,-376.7 128.46,-322.15 173,-292.5 185.02,-284.5 199.8,-279.09 213.37,-275.47"/>
<polygon fill="#63b8ff" stroke="#63b8ff" points="214.55,-278.78 223.45,-273.03 212.9,-271.98 214.55,-278.78"/>
</a>
</g>
</g>
<!-- Node102 -->
<g id="Node000102" class="node">
<title>Node102</title>
<g id="a_Node000102"><a xlink:href="structVectorPos.html#a9517f77c95322d34dc896a88db4a804f" target="_top" xlink:title=" ">
<path fill="#fff0f0" stroke="red" d="M290.67,-241C290.67,-241 217.33,-241 217.33,-241 214.17,-241 211,-237.83 211,-234.67 211,-234.67 211,-228.33 211,-228.33 211,-225.17 214.17,-222 217.33,-222 217.33,-222 290.67,-222 290.67,-222 293.83,-222 297,-225.17 297,-228.33 297,-228.33 297,-234.67 297,-234.67 297,-237.83 293.83,-241 290.67,-241"/>
<text text-anchor="middle" x="254" y="-229" font-family="Helvetica,sans-Serif" font-size="10.00">VectorPos::hgt</text>
</a>
</g>
</g>
<!-- Node1&#45;&gt;Node102 -->
<g id="edge21_Node000001_Node000102" class="edge">
<title>Node1&#45;&gt;Node102</title>
<g id="a_edge21_Node000001_Node000102"><a xlink:title=" ">
<path fill="none" stroke="#63b8ff" d="M74.31,-403.41C85.7,-370.2 117.61,-290.54 173,-250.5 181.24,-244.54 191.09,-240.43 201.02,-237.59"/>
<polygon fill="#63b8ff" stroke="#63b8ff" points="202.04,-240.95 210.92,-235.17 200.37,-234.15 202.04,-240.95"/>
</a>
</g>
</g>
<!-- Node103 -->
<g id="Node000103" class="node">
<title>Node103</title>
<g id="a_Node000103"><a xlink:href="structVectorPos.html#ae607eb1f43de3cf1aaa024c2fdabc514" target="_top" xlink:title=" ">
<path fill="#fff0f0" stroke="red" d="M299.17,-204C299.17,-204 208.83,-204 208.83,-204 205.67,-204 202.5,-200.83 202.5,-197.67 202.5,-197.67 202.5,-191.33 202.5,-191.33 202.5,-188.17 205.67,-185 208.83,-185 208.83,-185 299.17,-185 299.17,-185 302.33,-185 305.5,-188.17 305.5,-191.33 305.5,-191.33 305.5,-197.67 305.5,-197.67 305.5,-200.83 302.33,-204 299.17,-204"/>
<text text-anchor="middle" x="254" y="-192" font-family="Helvetica,sans-Serif" font-size="10.00">VectorPos::latDeg</text>
</a>
</g>
</g>
<!-- Node1&#45;&gt;Node103 -->
<g id="edge22_Node000001_Node000103" class="edge">
<title>Node1&#45;&gt;Node103</title>
<g id="a_edge22_Node000001_Node000103"><a xlink:title=" ">
<path fill="none" stroke="#63b8ff" d="M72.55,-403.36C81.07,-365.13 108.85,-264.14 173,-213.5 178.78,-208.94 185.47,-205.45 192.48,-202.77"/>
<polygon fill="#63b8ff" stroke="#63b8ff" points="193.75,-206.04 202.18,-199.61 191.59,-199.38 193.75,-206.04"/>
</a>
</g>
</g>
<!-- Node104 -->
<g id="Node000104" class="node">
<title>Node104</title>
<g id="a_Node000104"><a xlink:href="structVectorPos.html#aa693d5a52133cfb55040b768c6175bae" target="_top" xlink:title=" ">
<path fill="#fff0f0" stroke="red" d="M300.17,-167C300.17,-167 207.83,-167 207.83,-167 204.67,-167 201.5,-163.83 201.5,-160.67 201.5,-160.67 201.5,-154.33 201.5,-154.33 201.5,-151.17 204.67,-148 207.83,-148 207.83,-148 300.17,-148 300.17,-148 303.33,-148 306.5,-151.17 306.5,-154.33 306.5,-154.33 306.5,-160.67 306.5,-160.67 306.5,-163.83 303.33,-167 300.17,-167"/>
<text text-anchor="middle" x="254" y="-155" font-family="Helvetica,sans-Serif" font-size="10.00">VectorPos::lonDeg</text>
</a>
</g>
</g>
<!-- Node1&#45;&gt;Node104 -->
<g id="edge23_Node000001_Node000104" class="edge">
<title>Node1&#45;&gt;Node104</title>
<g id="a_edge23_Node000001_Node000104"><a xlink:title=" ">
<path fill="none" stroke="#63b8ff" d="M71.3,-403.24C77.19,-360.39 99.95,-238.02 173,-176.5 178.56,-171.82 185.06,-168.25 191.92,-165.54"/>
<polygon fill="#63b8ff" stroke="#63b8ff" points="193.08,-168.84 201.44,-162.34 190.85,-162.21 193.08,-168.84"/>
</a>
</g>
</g>
<!-- Node105 -->
<g id="Node000105" class="node">
<title>Node105</title>
<g id="a_Node000105"><a xlink:href="gTime_8cpp.html#a282534ac1ef65d4844290ce80bf76fed" target="_top" xlink:title=" ">
<path fill="#fff0f0" stroke="red" d="M284.67,-130C284.67,-130 223.33,-130 223.33,-130 220.17,-130 217,-126.83 217,-123.67 217,-123.67 217,-117.33 217,-117.33 217,-114.17 220.17,-111 223.33,-111 223.33,-111 284.67,-111 284.67,-111 287.83,-111 291,-114.17 291,-117.33 291,-117.33 291,-123.67 291,-123.67 291,-126.83 287.83,-130 284.67,-130"/>
<text text-anchor="middle" x="254" y="-118" font-family="Helvetica,sans-Serif" font-size="10.00">ymdhms2jd</text>
</a>
</g>
</g>
<!-- Node1&#45;&gt;Node105 -->
<g id="edge24_Node000001_Node000105" class="edge">
<title>Node1&#45;&gt;Node105</title>
<g id="a_edge24_Node000001_Node000105"><a xlink:title=" ">
<path fill="none" stroke="#63b8ff" d="M70.33,-403.37C73.74,-356.46 90.78,-212.25 173,-139.5 182.35,-131.22 194.66,-126.38 206.81,-123.6"/>
<polygon fill="#63b8ff" stroke="#63b8ff" points="207.72,-126.99 216.9,-121.72 206.43,-120.11 207.72,-126.99"/>
</a>
</g>
</g>
<!-- Node106 -->
<g id="Node000106" class="node">
<title>Node106</title>
<g id="a_Node000106"><a xlink:href="gTime_8cpp.html#a37bc65d232e726cdbc51122a8a8ec00e" target="_top" xlink:title=" ">
<path fill="#fff0f0" stroke="red" d="M278.67,-93C278.67,-93 229.33,-93 229.33,-93 226.17,-93 223,-89.83 223,-86.67 223,-86.67 223,-80.33 223,-80.33 223,-77.17 226.17,-74 229.33,-74 229.33,-74 278.67,-74 278.67,-74 281.83,-74 285,-77.17 285,-80.33 285,-80.33 285,-86.67 285,-86.67 285,-89.83 281.83,-93 278.67,-93"/>
<text text-anchor="middle" x="254" y="-81" font-family="Helvetica,sans-Serif" font-size="10.00">time2yds</text>
</a>
</g>
</g>
<!-- Node1&#45;&gt;Node106 -->
<g id="edge25_Node000001_Node000106" class="edge">
<title>Node1&#45;&gt;Node106</title>
<g id="a_edge25_Node000001_Node000106"><a xlink:title=" ">
<path fill="none" stroke="#63b8ff" d="M69.53,-403.16C70.51,-351.92 80.94,-185.27 173,-101.5 183.76,-91.71 198.68,-86.87 212.72,-84.58"/>
<polygon fill="#63b8ff" stroke="#63b8ff" points="213.23,-88.05 222.72,-83.34 212.36,-81.1 213.23,-88.05"/>
</a>
</g>
</g>
<!-- Node16 -->
<g id="Node000016" class="node">
<title>Node16</title>
<g id="a_Node000016"><a xlink:href="structSatSys.html#aec6d07b90d1e8172b8b6a6966abef4fd" target="_top" xlink:title="Returns a std::string of this satellite&#39;s id.">
<path fill="#fff0f0" stroke="red" d="M280.17,-56C280.17,-56 227.83,-56 227.83,-56 224.67,-56 221.5,-52.83 221.5,-49.67 221.5,-49.67 221.5,-43.33 221.5,-43.33 221.5,-40.17 224.67,-37 227.83,-37 227.83,-37 280.17,-37 280.17,-37 283.33,-37 286.5,-40.17 286.5,-43.33 286.5,-43.33 286.5,-49.67 286.5,-49.67 286.5,-52.83 283.33,-56 280.17,-56"/>
<text text-anchor="middle" x="254" y="-44" font-family="Helvetica,sans-Serif" font-size="10.00">SatSys::id</text>
</a>
</g>
</g>
<!-- Node1&#45;&gt;Node16 -->
<g id="edge27_Node000001_Node000016" class="edge">
<title>Node1&#45;&gt;Node16</title>
<g id="a_edge27_Node000001_Node000016"><a xlink:title=" ">
<path fill="none" stroke="#63b8ff" d="M69.01,-403.44C67.64,-347.56 69.36,-152.79 173,-55.5 183.26,-45.87 197.51,-40.99 211.16,-39.15"/>
<polygon fill="#63b8ff" stroke="#63b8ff" points="211.71,-42.62 221.39,-38.31 211.14,-35.64 211.71,-42.62"/>
</a>
</g>
</g>
<!-- Node1&#45;&gt;Node16 -->
<g id="edge28_Node000001_Node000016" class="edge">
<title>Node1&#45;&gt;Node16</title>
<g id="a_edge28_Node000001_Node000016"><a xlink:title=" ">
<path fill="none" stroke="#63b8ff" d="M68.86,-403.23C67.97,-349.07 73.8,-166.63 173,-73.5 183.26,-63.87 197.51,-58.99 211.16,-56.12"/>
<polygon fill="#63b8ff" stroke="#63b8ff" points="212.18,-59.49 221.39,-54.26 210.93,-52.6 212.18,-59.49"/>
</a>
</g>
</g>
<!-- Node109 -->
<g id="Node000109" class="node">
<title>Node109</title>
<g id="a_Node000109"><a xlink:href="coordinates_8cpp.html#a9860e0cea74eb4ca1383342104693565" target="_top" xlink:title="transform vector in body frame to ecef">
<path fill="#fff0f0" stroke="red" d="M281.67,-19C281.67,-19 226.33,-19 226.33,-19 223.17,-19 220,-15.83 220,-12.67 220,-12.67 220,-6.33 220,-6.33 220,-3.17 223.17,0 226.33,0 226.33,0 281.67,0 281.67,0 284.83,0 288,-3.17 288,-6.33 288,-6.33 288,-12.67 288,-12.67 288,-15.83 284.83,-19 281.67,-19"/>
<text text-anchor="middle" x="254" y="-7" font-family="Helvetica,sans-Serif" font-size="10.00">body2ecef</text>
</a>
</g>
</g>
<!-- Node1&#45;&gt;Node109 -->
<g id="edge29_Node000001_Node000109" class="edge">
<title>Node1&#45;&gt;Node109</title>
<g id="a_edge29_Node000001_Node000109"><a xlink:title=" ">
<path fill="none" stroke="#63b8ff" d="M71.08,-403.11C78.94,-336.13 115.85,-73.55 173,-18.5 182.8,-9.06 196.45,-4.16 209.69,-2.19"/>
<polygon fill="#63b8ff" stroke="#63b8ff" points="210.05,-5.67 219.67,-1.24 209.38,1.29 210.05,-5.67"/>
</a>
</g>
</g>
<!-- Node1&#45;&gt;Node109 -->
<g id="edge30_Node000001_Node000109" class="edge">
<title>Node1&#45;&gt;Node109</title>
<g id="a_edge30_Node000001_Node000109"><a xlink:title=" ">
<path fill="none" stroke="#63b8ff" d="M71.89,-403.07C81.25,-338.06 117.62,-89.84 173,-36.5 182.8,-27.06 196.45,-22.16 209.69,-19.25"/>
<polygon fill="#63b8ff" stroke="#63b8ff" points="210.49,-22.66 219.67,-17.38 209.2,-15.78 210.49,-22.66"/>
</a>
</g>
</g>
<!-- Node4&#45;&gt;Node3 -->
<g id="edge4_Node000004_Node000003" class="edge">
<title>Node4&#45;&gt;Node3</title>
<g id="a_edge4_Node000004_Node000003"><a xlink:title=" ">
<path fill="none" stroke="#63b8ff" d="M304.2,-671.28C321.9,-670.7 342.08,-670.6 360.69,-670.97"/>
<polygon fill="#63b8ff" stroke="#63b8ff" points="360.75,-674.47 370.83,-671.22 360.92,-667.47 360.75,-674.47"/>
</a>
</g>
</g>
<!-- Node4&#45;&gt;Node3 -->
<g id="edge5_Node000004_Node000003" class="edge">
<title>Node4&#45;&gt;Node3</title>
<g id="a_edge5_Node000004_Node000003"><a xlink:title=" ">
<path fill="none" stroke="#63b8ff" d="M304.2,-683.72C321.9,-684.3 342.08,-684.4 360.69,-684.03"/>
<polygon fill="#63b8ff" stroke="#63b8ff" points="360.92,-687.53 370.83,-683.78 360.75,-680.53 360.92,-687.53"/>
</a>
</g>
</g>
<!-- Node106&#45;&gt;Node100 -->
<g id="edge26_Node000106_Node000100" class="edge">
<title>Node106&#45;&gt;Node100</title>
<g id="a_edge26_Node000106_Node000100"><a xlink:title=" ">
<path fill="none" stroke="#63b8ff" d="M285.06,-85.95C300.77,-88.26 319.83,-92.76 335,-101.5 367.73,-120.36 395.33,-155.57 410.2,-177.14"/>
<polygon fill="#63b8ff" stroke="#63b8ff" points="407.47,-179.35 415.93,-185.72 413.28,-175.46 407.47,-179.35"/>
</a>
</g>
</g>
</g>
</svg>
