<?xml version="1.0" encoding="UTF-8" standalone="no"?>
<!DOCTYPE svg PUBLIC "-//W3C//DTD SVG 1.1//EN"
 "http://www.w3.org/Graphics/SVG/1.1/DTD/svg11.dtd">
<!-- Generated by graphviz version 2.43.0 (0)
 -->
<!-- Title: ObsStream Pages: 1 -->
<svg width="242pt" height="443pt"
 viewBox="0.00 0.00 242.00 443.00" xmlns="http://www.w3.org/2000/svg" xmlns:xlink="http://www.w3.org/1999/xlink">
<g id="graph0" class="graph" transform="scale(1 1) rotate(0) translate(4 439)">
<title>ObsStream</title>
<!-- Node1 -->
<g id="Node000001" class="node">
<title>Node1</title>
<g id="a_Node000001"><a xlink:href="structObsStream.html" target="_top" xlink:title=" ">
<path fill="white" stroke="#666666" stroke-width="2" d="M160.5,-132C160.5,-132 83.5,-132 83.5,-132 77.5,-132 71.5,-126 71.5,-120 71.5,-120 71.5,-12 71.5,-12 71.5,-6 77.5,0 83.5,0 83.5,0 160.5,0 160.5,0 166.5,0 172.5,-6 172.5,-12 172.5,-12 172.5,-120 172.5,-120 172.5,-126 166.5,-132 160.5,-132"/>
<text text-anchor="start" x="95" y="-116" font-family="Helvetica,sans-Serif" font-size="10.00">ObsStream</text>
<text text-anchor="start" x="84" y="-101" font-family="Helvetica,sans-Serif" font-size="10.00">+</text>
<text text-anchor="start" x="97" y="-101" font-family="Helvetica,sans-Serif" font-size="10.00">obsWaitCode</text>
<text text-anchor="start" x="84" y="-86" font-family="Helvetica,sans-Serif" font-size="10.00">+</text>
<text text-anchor="start" x="97" y="-86" font-family="Helvetica,sans-Serif" font-size="10.00">isPseudoRec</text>
<text text-anchor="start" x="84" y="-71" font-family="Helvetica,sans-Serif" font-size="10.00">+</text>
<text text-anchor="start" x="97" y="-71" font-family="Helvetica,sans-Serif" font-size="10.00">ObsStream()</text>
<text text-anchor="start" x="84" y="-56" font-family="Helvetica,sans-Serif" font-size="10.00">+</text>
<text text-anchor="start" x="97" y="-56" font-family="Helvetica,sans-Serif" font-size="10.00">getObs()</text>
<text text-anchor="start" x="84" y="-41" font-family="Helvetica,sans-Serif" font-size="10.00">+</text>
<text text-anchor="start" x="97" y="-41" font-family="Helvetica,sans-Serif" font-size="10.00">getObs()</text>
<text text-anchor="start" x="84" y="-26" font-family="Helvetica,sans-Serif" font-size="10.00">+</text>
<text text-anchor="start" x="97" y="-26" font-family="Helvetica,sans-Serif" font-size="10.00">eatObs()</text>
<text text-anchor="start" x="84" y="-11" font-family="Helvetica,sans-Serif" font-size="10.00">+</text>
<text text-anchor="start" x="97" y="-11" font-family="Helvetica,sans-Serif" font-size="10.00">hasObs()</text>
<polygon fill="#666666" stroke="#666666" points="80,-111 80,-111 165,-111 165,-111 80,-111"/>
<polygon fill="#666666" stroke="#666666" points="80,-81 80,-81 95,-81 95,-81 80,-81"/>
<polygon fill="#666666" stroke="#666666" points="95,-81 95,-81 165,-81 165,-81 95,-81"/>
<polygon fill="none" stroke="#666666" points="79.5,-4 79.5,-128 164.5,-128 164.5,-4 79.5,-4"/>
</a>
</g>
</g>
<!-- Node2 -->
<g id="Node000002" class="node">
<title>Node2</title>
<g id="a_Node000002"><a xlink:href="structStreamParser.html" target="_top" xlink:title=" ">
<path fill="white" stroke="#666666" d="M177.5,-286C177.5,-286 66.5,-286 66.5,-286 60.5,-286 54.5,-280 54.5,-274 54.5,-274 54.5,-181 54.5,-181 54.5,-175 60.5,-169 66.5,-169 66.5,-169 177.5,-169 177.5,-169 183.5,-169 189.5,-175 189.5,-181 189.5,-181 189.5,-274 189.5,-274 189.5,-280 183.5,-286 177.5,-286"/>
<text text-anchor="start" x="89.5" y="-269.5" font-family="Helvetica,sans-Serif" font-size="10.00">StreamParser</text>
<text text-anchor="start" x="120.5" y="-254.5" font-family="Helvetica,sans-Serif" font-size="10.00"> </text>
<text text-anchor="start" x="67" y="-239.5" font-family="Helvetica,sans-Serif" font-size="10.00">+</text>
<text text-anchor="start" x="80" y="-239.5" font-family="Helvetica,sans-Serif" font-size="10.00">StreamParser()</text>
<text text-anchor="start" x="67" y="-224.5" font-family="Helvetica,sans-Serif" font-size="10.00">+</text>
<text text-anchor="start" x="80" y="-224.5" font-family="Helvetica,sans-Serif" font-size="10.00">operator Stream &amp;()</text>
<text text-anchor="start" x="67" y="-209.5" font-family="Helvetica,sans-Serif" font-size="10.00">+</text>
<text text-anchor="start" x="80" y="-209.5" font-family="Helvetica,sans-Serif" font-size="10.00">operator Parser &amp;()</text>
<text text-anchor="start" x="67" y="-194.5" font-family="Helvetica,sans-Serif" font-size="10.00">+</text>
<text text-anchor="start" x="80" y="-194.5" font-family="Helvetica,sans-Serif" font-size="10.00">parse()</text>
<text text-anchor="start" x="67" y="-179.5" font-family="Helvetica,sans-Serif" font-size="10.00">+</text>
<text text-anchor="start" x="80" y="-179.5" font-family="Helvetica,sans-Serif" font-size="10.00">~StreamParser()</text>
<polygon fill="#666666" stroke="#666666" points="63,-264.5 63,-264.5 182,-264.5 182,-264.5 63,-264.5"/>
<polygon fill="#666666" stroke="#666666" points="63,-249.5 63,-249.5 182,-249.5 182,-249.5 63,-249.5"/>
<polygon fill="none" stroke="#666666" points="62.5,-173 62.5,-282 181.5,-282 181.5,-173 62.5,-173"/>
</a>
</g>
</g>
<!-- Node2&#45;&gt;Node1 -->
<g id="edge1_Node000001_Node000002" class="edge">
<title>Node2&#45;&gt;Node1</title>
<g id="a_edge1_Node000001_Node000002"><a xlink:title=" ">
<path fill="none" stroke="#63b8ff" d="M122,-158.68C122,-149.87 122,-140.85 122,-132.08"/>
<polygon fill="none" stroke="#63b8ff" points="118.5,-158.92 122,-168.92 125.5,-158.92 118.5,-158.92"/>
</a>
</g>
</g>
<!-- Node3 -->
<g id="Node000003" class="node">
<title>Node3</title>
<g id="a_Node000003"><a xlink:href="structStream.html" target="_top" xlink:title=" ">
<path fill="#fff0f0" stroke="red" d="M106,-435C106,-435 12,-435 12,-435 6,-435 0,-429 0,-423 0,-423 0,-345 0,-345 0,-339 6,-333 12,-333 12,-333 106,-333 106,-333 112,-333 118,-339 118,-345 118,-345 118,-423 118,-423 118,-429 112,-435 106,-435"/>
<text text-anchor="start" x="41" y="-419" font-family="Helvetica,sans-Serif" font-size="10.00">Stream</text>
<text text-anchor="start" x="57" y="-404" font-family="Helvetica,sans-Serif" font-size="10.00"> </text>
<text text-anchor="start" x="12" y="-389" font-family="Helvetica,sans-Serif" font-size="10.00">+</text>
<text text-anchor="start" x="25" y="-389" font-family="Helvetica,sans-Serif" font-size="10.00">getIStream_ptr()</text>
<text text-anchor="start" x="12" y="-374" font-family="Helvetica,sans-Serif" font-size="10.00">+</text>
<text text-anchor="start" x="25" y="-374" font-family="Helvetica,sans-Serif" font-size="10.00">isDead()</text>
<text text-anchor="start" x="12" y="-359" font-family="Helvetica,sans-Serif" font-size="10.00">+</text>
<text text-anchor="start" x="25" y="-359" font-family="Helvetica,sans-Serif" font-size="10.00">isAvailable()</text>
<text text-anchor="start" x="12" y="-344" font-family="Helvetica,sans-Serif" font-size="10.00">+</text>
<text text-anchor="start" x="25" y="-344" font-family="Helvetica,sans-Serif" font-size="10.00">~Stream()</text>
<polygon fill="red" stroke="red" points="8,-414 8,-414 110,-414 110,-414 8,-414"/>
<polygon fill="red" stroke="red" points="8,-399 8,-399 110,-399 110,-399 8,-399"/>
<polygon fill="none" stroke="red" points="8,-337 8,-431 110,-431 110,-337 8,-337"/>
</a>
</g>
</g>
<!-- Node3&#45;&gt;Node2 -->
<g id="edge2_Node000002_Node000003" class="edge">
<title>Node3&#45;&gt;Node2</title>
<g id="a_edge2_Node000002_Node000003"><a xlink:title=" ">
<path fill="none" stroke="#63b8ff" d="M79.45,-332.84C84.06,-321.55 89.02,-309.39 93.87,-297.48"/>
<polygon fill="none" stroke="#63b8ff" points="93.94,-297.3 92.51,-290.24 98.48,-286.19 99.91,-293.26 93.94,-297.3"/>
</a>
</g>
<text text-anchor="middle" x="114" y="-307" font-family="Helvetica,sans-Serif" font-size="10.00" fill="grey"> +stream</text>
</g>
<!-- Node5 -->
<g id="Node000005" class="node">
<title>Node5</title>
<g id="a_Node000005"><a xlink:href="structParser.html" target="_top" xlink:title=" ">
<path fill="white" stroke="#666666" d="M222,-427.5C222,-427.5 148,-427.5 148,-427.5 142,-427.5 136,-421.5 136,-415.5 136,-415.5 136,-352.5 136,-352.5 136,-346.5 142,-340.5 148,-340.5 148,-340.5 222,-340.5 222,-340.5 228,-340.5 234,-346.5 234,-352.5 234,-352.5 234,-415.5 234,-415.5 234,-421.5 228,-427.5 222,-427.5"/>
<text text-anchor="start" x="169.5" y="-411" font-family="Helvetica,sans-Serif" font-size="10.00">Parser</text>
<text text-anchor="start" x="183" y="-396" font-family="Helvetica,sans-Serif" font-size="10.00"> </text>
<text text-anchor="start" x="148" y="-381" font-family="Helvetica,sans-Serif" font-size="10.00">+</text>
<text text-anchor="start" x="161" y="-381" font-family="Helvetica,sans-Serif" font-size="10.00">parse()</text>
<text text-anchor="start" x="148" y="-366" font-family="Helvetica,sans-Serif" font-size="10.00">+</text>
<text text-anchor="start" x="161" y="-366" font-family="Helvetica,sans-Serif" font-size="10.00">parserType()</text>
<text text-anchor="start" x="148" y="-351" font-family="Helvetica,sans-Serif" font-size="10.00">+</text>
<text text-anchor="start" x="161" y="-351" font-family="Helvetica,sans-Serif" font-size="10.00">~Parser()</text>
<polygon fill="#666666" stroke="#666666" points="144,-406 144,-406 226,-406 226,-406 144,-406"/>
<polygon fill="#666666" stroke="#666666" points="144,-391 144,-391 226,-391 226,-391 144,-391"/>
<polygon fill="none" stroke="#666666" points="144,-344.5 144,-423.5 226,-423.5 226,-344.5 144,-344.5"/>
</a>
</g>
</g>
<!-- Node5&#45;&gt;Node2 -->
<g id="edge3_Node000002_Node000005" class="edge">
<title>Node5&#45;&gt;Node2</title>
<g id="a_edge3_Node000002_Node000005"><a xlink:title=" ">
<path fill="none" stroke="#63b8ff" d="M167.62,-340.37C162.16,-326.99 155.99,-311.86 150,-297.16"/>
<polygon fill="none" stroke="#63b8ff" points="149.99,-297.14 144.02,-293.09 145.46,-286.03 151.43,-290.07 149.99,-297.14"/>
</a>
</g>
<text text-anchor="middle" x="176.5" y="-307" font-family="Helvetica,sans-Serif" font-size="10.00" fill="grey"> +parser</text>
</g>
</g>
</svg>
