<?xml version="1.0" encoding="UTF-8" standalone="no"?>
<!DOCTYPE svg PUBLIC "-//W3C//DTD SVG 1.1//EN"
 "http://www.w3.org/Graphics/SVG/1.1/DTD/svg11.dtd">
<!-- Generated by graphviz version 2.43.0 (0)
 -->
<!-- Title: InertialKalmans Pages: 1 -->
<svg width="336pt" height="1098pt"
 viewBox="0.00 0.00 336.00 1098.00" xmlns="http://www.w3.org/2000/svg" xmlns:xlink="http://www.w3.org/1999/xlink">
<g id="graph0" class="graph" transform="scale(1 1) rotate(0) translate(4 1094)">
<title>InertialKalmans</title>
<!-- Node1 -->
<g id="Node000001" class="node">
<title>Node1</title>
<g id="a_Node000001"><a xlink:href="structInertialKalmans.html" target="_top" xlink:title=" ">
<path fill="white" stroke="#666666" stroke-width="2" d="M225.5,-1090C225.5,-1090 110.5,-1090 110.5,-1090 104.5,-1090 98.5,-1084 98.5,-1078 98.5,-1078 98.5,-970 98.5,-970 98.5,-964 104.5,-958 110.5,-958 110.5,-958 225.5,-958 225.5,-958 231.5,-958 237.5,-964 237.5,-970 237.5,-970 237.5,-1078 237.5,-1078 237.5,-1084 231.5,-1090 225.5,-1090"/>
<text text-anchor="start" x="129.5" y="-1074" font-family="Helvetica,sans-Serif" font-size="10.00">InertialKalmans</text>
<text text-anchor="start" x="111" y="-1059" font-family="Helvetica,sans-Serif" font-size="10.00">+</text>
<text text-anchor="start" x="124" y="-1059" font-family="Helvetica,sans-Serif" font-size="10.00">accelerometer_scale</text>
<text text-anchor="start" x="111" y="-1044" font-family="Helvetica,sans-Serif" font-size="10.00">+</text>
<text text-anchor="start" x="124" y="-1044" font-family="Helvetica,sans-Serif" font-size="10.00">accelerometer_bias</text>
<text text-anchor="start" x="111" y="-1029" font-family="Helvetica,sans-Serif" font-size="10.00">+</text>
<text text-anchor="start" x="124" y="-1029" font-family="Helvetica,sans-Serif" font-size="10.00">orientation</text>
<text text-anchor="start" x="111" y="-1014" font-family="Helvetica,sans-Serif" font-size="10.00">+</text>
<text text-anchor="start" x="124" y="-1014" font-family="Helvetica,sans-Serif" font-size="10.00">imu_offset</text>
<text text-anchor="start" x="111" y="-999" font-family="Helvetica,sans-Serif" font-size="10.00">+</text>
<text text-anchor="start" x="124" y="-999" font-family="Helvetica,sans-Serif" font-size="10.00">gyro_scale</text>
<text text-anchor="start" x="111" y="-984" font-family="Helvetica,sans-Serif" font-size="10.00">+</text>
<text text-anchor="start" x="124" y="-984" font-family="Helvetica,sans-Serif" font-size="10.00">gyro_bias</text>
<text text-anchor="start" x="111" y="-969" font-family="Helvetica,sans-Serif" font-size="10.00">+</text>
<text text-anchor="start" x="124" y="-969" font-family="Helvetica,sans-Serif" font-size="10.00">operator+=()</text>
<polygon fill="#666666" stroke="#666666" points="107,-1069 107,-1069 230,-1069 230,-1069 107,-1069"/>
<polygon fill="#666666" stroke="#666666" points="107,-979 107,-979 122,-979 122,-979 107,-979"/>
<polygon fill="#666666" stroke="#666666" points="122,-979 122,-979 230,-979 230,-979 122,-979"/>
<polygon fill="none" stroke="#666666" points="106.5,-962 106.5,-1086 229.5,-1086 229.5,-962 106.5,-962"/>
</a>
</g>
</g>
<!-- Node2 -->
<g id="Node000002" class="node">
<title>Node2</title>
<g id="a_Node000002"><a xlink:href="structReceiverKalmans.html" target="_top" xlink:title=" ">
<path fill="white" stroke="#666666" d="M137,-922C137,-922 49,-922 49,-922 43,-922 37,-916 37,-910 37,-910 37,-742 37,-742 37,-736 43,-730 49,-730 49,-730 137,-730 137,-730 143,-730 149,-736 149,-742 149,-742 149,-910 149,-910 149,-916 143,-922 137,-922"/>
<text text-anchor="start" x="50" y="-906" font-family="Helvetica,sans-Serif" font-size="10.00">ReceiverKalmans</text>
<text text-anchor="start" x="50" y="-891" font-family="Helvetica,sans-Serif" font-size="10.00">+</text>
<text text-anchor="start" x="64" y="-891" font-family="Helvetica,sans-Serif" font-size="10.00">ambiguity</text>
<text text-anchor="start" x="50" y="-876" font-family="Helvetica,sans-Serif" font-size="10.00">+</text>
<text text-anchor="start" x="64" y="-876" font-family="Helvetica,sans-Serif" font-size="10.00">strain_rate</text>
<text text-anchor="start" x="50" y="-861" font-family="Helvetica,sans-Serif" font-size="10.00">+</text>
<text text-anchor="start" x="64" y="-861" font-family="Helvetica,sans-Serif" font-size="10.00">slr_range_bias</text>
<text text-anchor="start" x="50" y="-846" font-family="Helvetica,sans-Serif" font-size="10.00">+</text>
<text text-anchor="start" x="64" y="-846" font-family="Helvetica,sans-Serif" font-size="10.00">slr_time_bias</text>
<text text-anchor="start" x="50" y="-831" font-family="Helvetica,sans-Serif" font-size="10.00">+</text>
<text text-anchor="start" x="64" y="-831" font-family="Helvetica,sans-Serif" font-size="10.00">pcv</text>
<text text-anchor="start" x="50" y="-816" font-family="Helvetica,sans-Serif" font-size="10.00">+</text>
<text text-anchor="start" x="64" y="-816" font-family="Helvetica,sans-Serif" font-size="10.00">ion_stec</text>
<text text-anchor="start" x="50" y="-801" font-family="Helvetica,sans-Serif" font-size="10.00">+</text>
<text text-anchor="start" x="64" y="-801" font-family="Helvetica,sans-Serif" font-size="10.00">ion_model</text>
<text text-anchor="start" x="50" y="-786" font-family="Helvetica,sans-Serif" font-size="10.00">+</text>
<text text-anchor="start" x="64" y="-786" font-family="Helvetica,sans-Serif" font-size="10.00">trop</text>
<text text-anchor="start" x="50" y="-771" font-family="Helvetica,sans-Serif" font-size="10.00">+</text>
<text text-anchor="start" x="64" y="-771" font-family="Helvetica,sans-Serif" font-size="10.00">trop_grads</text>
<text text-anchor="start" x="50" y="-756" font-family="Helvetica,sans-Serif" font-size="10.00">+</text>
<text text-anchor="start" x="64" y="-756" font-family="Helvetica,sans-Serif" font-size="10.00">trop_maps</text>
<text text-anchor="start" x="50" y="-741" font-family="Helvetica,sans-Serif" font-size="10.00">+</text>
<text text-anchor="start" x="64" y="-741" font-family="Helvetica,sans-Serif" font-size="10.00">operator+=()</text>
<polygon fill="#666666" stroke="#666666" points="45,-901 45,-901 141,-901 141,-901 45,-901"/>
<polygon fill="#666666" stroke="#666666" points="45,-751 45,-751 62,-751 62,-751 45,-751"/>
<polygon fill="#666666" stroke="#666666" points="62,-751 62,-751 141,-751 141,-751 62,-751"/>
<polygon fill="none" stroke="#666666" points="45,-734 45,-918 141,-918 141,-734 45,-734"/>
</a>
</g>
</g>
<!-- Node1&#45;&gt;Node2 -->
<g id="edge1_Node000001_Node000002" class="edge">
<title>Node1&#45;&gt;Node2</title>
<g id="a_edge1_Node000001_Node000002"><a xlink:title=" ">
<path fill="none" stroke="#63b8ff" d="M139.37,-948.19C136.1,-939.63 132.72,-930.81 129.36,-922.03"/>
<polygon fill="none" stroke="#63b8ff" points="136.18,-949.65 143.03,-957.73 142.72,-947.14 136.18,-949.65"/>
</a>
</g>
</g>
<!-- Node4 -->
<g id="Node000004" class="node">
<title>Node4</title>
<g id="a_Node000004"><a xlink:href="structSatelliteKalmans.html" target="_top" xlink:title=" ">
<path fill="white" stroke="#666666" d="M287,-854.5C287,-854.5 201,-854.5 201,-854.5 195,-854.5 189,-848.5 189,-842.5 189,-842.5 189,-809.5 189,-809.5 189,-803.5 195,-797.5 201,-797.5 201,-797.5 287,-797.5 287,-797.5 293,-797.5 299,-803.5 299,-809.5 299,-809.5 299,-842.5 299,-842.5 299,-848.5 293,-854.5 287,-854.5"/>
<text text-anchor="start" x="202" y="-838" font-family="Helvetica,sans-Serif" font-size="10.00">SatelliteKalmans</text>
<text text-anchor="start" x="242" y="-823" font-family="Helvetica,sans-Serif" font-size="10.00"> </text>
<text text-anchor="start" x="202.5" y="-808" font-family="Helvetica,sans-Serif" font-size="10.00">+</text>
<text text-anchor="start" x="217" y="-808" font-family="Helvetica,sans-Serif" font-size="10.00">operator+=()</text>
<polygon fill="#666666" stroke="#666666" points="197,-833 197,-833 291,-833 291,-833 197,-833"/>
<polygon fill="#666666" stroke="#666666" points="197,-818 197,-818 291,-818 291,-818 197,-818"/>
<polygon fill="none" stroke="#666666" points="197,-801.5 197,-850.5 291,-850.5 291,-801.5 197,-801.5"/>
</a>
</g>
</g>
<!-- Node1&#45;&gt;Node4 -->
<g id="edge3_Node000001_Node000004" class="edge">
<title>Node1&#45;&gt;Node4</title>
<g id="a_edge3_Node000001_Node000004"><a xlink:title=" ">
<path fill="none" stroke="#63b8ff" d="M197.03,-948.14C209.75,-915.34 223.89,-878.86 233.3,-854.59"/>
<polygon fill="none" stroke="#63b8ff" points="193.66,-947.15 193.31,-957.73 200.19,-949.68 193.66,-947.15"/>
</a>
</g>
</g>
<!-- Node3 -->
<g id="Node000003" class="node">
<title>Node3</title>
<g id="a_Node000003"><a xlink:href="structReceiverOptions.html" target="_top" xlink:title="Options to be applied to kalman filter states for individual receivers.">
<path fill="white" stroke="#666666" d="M152,-694C152,-694 12,-694 12,-694 6,-694 0,-688 0,-682 0,-682 0,-12 0,-12 0,-6 6,0 12,0 12,0 152,0 152,0 158,0 164,-6 164,-12 164,-12 164,-682 164,-682 164,-688 158,-694 152,-694"/>
<text text-anchor="start" x="41.5" y="-678" font-family="Helvetica,sans-Serif" font-size="10.00">ReceiverOptions</text>
<text text-anchor="start" x="12" y="-663" font-family="Helvetica,sans-Serif" font-size="10.00">+</text>
<text text-anchor="start" x="25" y="-663" font-family="Helvetica,sans-Serif" font-size="10.00">_initialised</text>
<text text-anchor="start" x="12" y="-648" font-family="Helvetica,sans-Serif" font-size="10.00">+</text>
<text text-anchor="start" x="25" y="-648" font-family="Helvetica,sans-Serif" font-size="10.00">id</text>
<text text-anchor="start" x="12" y="-633" font-family="Helvetica,sans-Serif" font-size="10.00">+</text>
<text text-anchor="start" x="25" y="-633" font-family="Helvetica,sans-Serif" font-size="10.00">rinex23Conv</text>
<text text-anchor="start" x="12" y="-618" font-family="Helvetica,sans-Serif" font-size="10.00">+</text>
<text text-anchor="start" x="25" y="-618" font-family="Helvetica,sans-Serif" font-size="10.00">kill</text>
<text text-anchor="start" x="12" y="-603" font-family="Helvetica,sans-Serif" font-size="10.00">+</text>
<text text-anchor="start" x="25" y="-603" font-family="Helvetica,sans-Serif" font-size="10.00">zero_dcb_codes</text>
<text text-anchor="start" x="12" y="-588" font-family="Helvetica,sans-Serif" font-size="10.00">+</text>
<text text-anchor="start" x="25" y="-588" font-family="Helvetica,sans-Serif" font-size="10.00">apriori_pos</text>
<text text-anchor="start" x="12" y="-573" font-family="Helvetica,sans-Serif" font-size="10.00">+</text>
<text text-anchor="start" x="25" y="-573" font-family="Helvetica,sans-Serif" font-size="10.00">antenna_type</text>
<text text-anchor="start" x="12" y="-558" font-family="Helvetica,sans-Serif" font-size="10.00">+</text>
<text text-anchor="start" x="25" y="-558" font-family="Helvetica,sans-Serif" font-size="10.00">receiver_type</text>
<text text-anchor="start" x="12" y="-543" font-family="Helvetica,sans-Serif" font-size="10.00">+</text>
<text text-anchor="start" x="25" y="-543" font-family="Helvetica,sans-Serif" font-size="10.00">sat_id</text>
<text text-anchor="start" x="12" y="-528" font-family="Helvetica,sans-Serif" font-size="10.00">+</text>
<text text-anchor="start" x="25" y="-528" font-family="Helvetica,sans-Serif" font-size="10.00">elevation_mask_deg</text>
<text text-anchor="start" x="12" y="-513" font-family="Helvetica,sans-Serif" font-size="10.00">+</text>
<text text-anchor="start" x="25" y="-513" font-family="Helvetica,sans-Serif" font-size="10.00">receiver_reference</text>
<text text-anchor="start" x="25" y="-502" font-family="Helvetica,sans-Serif" font-size="10.00">_system</text>
<text text-anchor="start" x="12" y="-487" font-family="Helvetica,sans-Serif" font-size="10.00">+</text>
<text text-anchor="start" x="25" y="-487" font-family="Helvetica,sans-Serif" font-size="10.00">enable</text>
<text text-anchor="start" x="12" y="-472" font-family="Helvetica,sans-Serif" font-size="10.00">+</text>
<text text-anchor="start" x="25" y="-472" font-family="Helvetica,sans-Serif" font-size="10.00">eccentricity</text>
<text text-anchor="start" x="12" y="-457" font-family="Helvetica,sans-Serif" font-size="10.00">+</text>
<text text-anchor="start" x="25" y="-457" font-family="Helvetica,sans-Serif" font-size="10.00">eccentricityModel</text>
<text text-anchor="start" x="12" y="-442" font-family="Helvetica,sans-Serif" font-size="10.00">+</text>
<text text-anchor="start" x="25" y="-442" font-family="Helvetica,sans-Serif" font-size="10.00">models</text>
<text text-anchor="start" x="12" y="-427" font-family="Helvetica,sans-Serif" font-size="10.00">+</text>
<text text-anchor="start" x="25" y="-427" font-family="Helvetica,sans-Serif" font-size="10.00">tropModel</text>
<text text-anchor="start" x="12" y="-412" font-family="Helvetica,sans-Serif" font-size="10.00">+</text>
<text text-anchor="start" x="25" y="-412" font-family="Helvetica,sans-Serif" font-size="10.00">solid</text>
<text text-anchor="start" x="12" y="-397" font-family="Helvetica,sans-Serif" font-size="10.00">+</text>
<text text-anchor="start" x="25" y="-397" font-family="Helvetica,sans-Serif" font-size="10.00">otl</text>
<text text-anchor="start" x="12" y="-382" font-family="Helvetica,sans-Serif" font-size="10.00">+</text>
<text text-anchor="start" x="25" y="-382" font-family="Helvetica,sans-Serif" font-size="10.00">atl</text>
<text text-anchor="start" x="12" y="-367" font-family="Helvetica,sans-Serif" font-size="10.00">+</text>
<text text-anchor="start" x="25" y="-367" font-family="Helvetica,sans-Serif" font-size="10.00">spole</text>
<text text-anchor="start" x="12" y="-352" font-family="Helvetica,sans-Serif" font-size="10.00">+</text>
<text text-anchor="start" x="25" y="-352" font-family="Helvetica,sans-Serif" font-size="10.00">opole</text>
<text text-anchor="start" x="12" y="-337" font-family="Helvetica,sans-Serif" font-size="10.00">+</text>
<text text-anchor="start" x="25" y="-337" font-family="Helvetica,sans-Serif" font-size="10.00">tideModels</text>
<text text-anchor="start" x="12" y="-322" font-family="Helvetica,sans-Serif" font-size="10.00">+</text>
<text text-anchor="start" x="25" y="-322" font-family="Helvetica,sans-Serif" font-size="10.00">range</text>
<text text-anchor="start" x="12" y="-307" font-family="Helvetica,sans-Serif" font-size="10.00">+</text>
<text text-anchor="start" x="25" y="-307" font-family="Helvetica,sans-Serif" font-size="10.00">relativity</text>
<text text-anchor="start" x="12" y="-292" font-family="Helvetica,sans-Serif" font-size="10.00">+</text>
<text text-anchor="start" x="25" y="-292" font-family="Helvetica,sans-Serif" font-size="10.00">relativity2</text>
<text text-anchor="start" x="12" y="-277" font-family="Helvetica,sans-Serif" font-size="10.00">+</text>
<text text-anchor="start" x="25" y="-277" font-family="Helvetica,sans-Serif" font-size="10.00">sagnac</text>
<text text-anchor="start" x="12" y="-262" font-family="Helvetica,sans-Serif" font-size="10.00">+</text>
<text text-anchor="start" x="25" y="-262" font-family="Helvetica,sans-Serif" font-size="10.00">integer_ambiguity</text>
<text text-anchor="start" x="12" y="-247" font-family="Helvetica,sans-Serif" font-size="10.00">+</text>
<text text-anchor="start" x="25" y="-247" font-family="Helvetica,sans-Serif" font-size="10.00">ionospheric_component</text>
<text text-anchor="start" x="12" y="-232" font-family="Helvetica,sans-Serif" font-size="10.00">+</text>
<text text-anchor="start" x="25" y="-232" font-family="Helvetica,sans-Serif" font-size="10.00">ionospheric_component2</text>
<text text-anchor="start" x="12" y="-217" font-family="Helvetica,sans-Serif" font-size="10.00">+</text>
<text text-anchor="start" x="25" y="-217" font-family="Helvetica,sans-Serif" font-size="10.00">ionospheric_component3</text>
<text text-anchor="start" x="12" y="-202" font-family="Helvetica,sans-Serif" font-size="10.00">+</text>
<text text-anchor="start" x="25" y="-202" font-family="Helvetica,sans-Serif" font-size="10.00">ionospheric_model</text>
<text text-anchor="start" x="12" y="-187" font-family="Helvetica,sans-Serif" font-size="10.00">+</text>
<text text-anchor="start" x="25" y="-187" font-family="Helvetica,sans-Serif" font-size="10.00">tropospheric_map</text>
<text text-anchor="start" x="12" y="-172" font-family="Helvetica,sans-Serif" font-size="10.00">+</text>
<text text-anchor="start" x="25" y="-172" font-family="Helvetica,sans-Serif" font-size="10.00">eop</text>
<text text-anchor="start" x="12" y="-157" font-family="Helvetica,sans-Serif" font-size="10.00">+</text>
<text text-anchor="start" x="25" y="-157" font-family="Helvetica,sans-Serif" font-size="10.00">mapping_function</text>
<text text-anchor="start" x="12" y="-142" font-family="Helvetica,sans-Serif" font-size="10.00">+</text>
<text text-anchor="start" x="25" y="-142" font-family="Helvetica,sans-Serif" font-size="10.00">geomagnetic_field_height</text>
<text text-anchor="start" x="12" y="-127" font-family="Helvetica,sans-Serif" font-size="10.00">+</text>
<text text-anchor="start" x="25" y="-127" font-family="Helvetica,sans-Serif" font-size="10.00">mapping_function_layer</text>
<text text-anchor="start" x="25" y="-116" font-family="Helvetica,sans-Serif" font-size="10.00">_height</text>
<text text-anchor="start" x="12" y="-101" font-family="Helvetica,sans-Serif" font-size="10.00">+</text>
<text text-anchor="start" x="25" y="-101" font-family="Helvetica,sans-Serif" font-size="10.00">error_model</text>
<text text-anchor="start" x="12" y="-86" font-family="Helvetica,sans-Serif" font-size="10.00">+</text>
<text text-anchor="start" x="25" y="-86" font-family="Helvetica,sans-Serif" font-size="10.00">code_sigma</text>
<text text-anchor="start" x="12" y="-71" font-family="Helvetica,sans-Serif" font-size="10.00">+</text>
<text text-anchor="start" x="25" y="-71" font-family="Helvetica,sans-Serif" font-size="10.00">phase_sigma</text>
<text text-anchor="start" x="12" y="-56" font-family="Helvetica,sans-Serif" font-size="10.00">+</text>
<text text-anchor="start" x="25" y="-56" font-family="Helvetica,sans-Serif" font-size="10.00">inheritors</text>
<text text-anchor="start" x="12" y="-41" font-family="Helvetica,sans-Serif" font-size="10.00">+</text>
<text text-anchor="start" x="25" y="-41" font-family="Helvetica,sans-Serif" font-size="10.00">inheritedFrom</text>
<text text-anchor="start" x="12" y="-26" font-family="Helvetica,sans-Serif" font-size="10.00">+</text>
<text text-anchor="start" x="25" y="-26" font-family="Helvetica,sans-Serif" font-size="10.00">initialisedMap</text>
<text text-anchor="start" x="12" y="-11" font-family="Helvetica,sans-Serif" font-size="10.00">+</text>
<text text-anchor="start" x="25" y="-11" font-family="Helvetica,sans-Serif" font-size="10.00">operator+=()</text>
<polygon fill="#666666" stroke="#666666" points="8,-673 8,-673 156,-673 156,-673 8,-673"/>
<polygon fill="#666666" stroke="#666666" points="8,-21 8,-21 23,-21 23,-21 8,-21"/>
<polygon fill="#666666" stroke="#666666" points="23,-21 23,-21 156,-21 156,-21 23,-21"/>
<polygon fill="none" stroke="#666666" points="8,-4 8,-690 156,-690 156,-4 8,-4"/>
</a>
</g>
</g>
<!-- Node2&#45;&gt;Node3 -->
<g id="edge2_Node000002_Node000003" class="edge">
<title>Node2&#45;&gt;Node3</title>
<g id="a_edge2_Node000002_Node000003"><a xlink:title=" ">
<path fill="none" stroke="#63b8ff" d="M90.57,-719.68C90.38,-711.48 90.19,-702.97 89.98,-694.21"/>
<polygon fill="none" stroke="#63b8ff" points="87.08,-719.99 90.81,-729.9 94.08,-719.83 87.08,-719.99"/>
</a>
</g>
</g>
<!-- Node5 -->
<g id="Node000005" class="node">
<title>Node5</title>
<g id="a_Node000005"><a xlink:href="structSatelliteOptions.html" target="_top" xlink:title="Options to be applied to kalman filter states for individual satellites.">
<path fill="white" stroke="#666666" d="M316,-435.5C316,-435.5 194,-435.5 194,-435.5 188,-435.5 182,-429.5 182,-423.5 182,-423.5 182,-270.5 182,-270.5 182,-264.5 188,-258.5 194,-258.5 194,-258.5 316,-258.5 316,-258.5 322,-258.5 328,-264.5 328,-270.5 328,-270.5 328,-423.5 328,-423.5 328,-429.5 322,-435.5 316,-435.5"/>
<text text-anchor="start" x="215.5" y="-419" font-family="Helvetica,sans-Serif" font-size="10.00">SatelliteOptions</text>
<text text-anchor="start" x="194" y="-404" font-family="Helvetica,sans-Serif" font-size="10.00">+</text>
<text text-anchor="start" x="207" y="-404" font-family="Helvetica,sans-Serif" font-size="10.00">_initialised</text>
<text text-anchor="start" x="194" y="-389" font-family="Helvetica,sans-Serif" font-size="10.00">+</text>
<text text-anchor="start" x="207" y="-389" font-family="Helvetica,sans-Serif" font-size="10.00">id</text>
<text text-anchor="start" x="194" y="-374" font-family="Helvetica,sans-Serif" font-size="10.00">+</text>
<text text-anchor="start" x="207" y="-374" font-family="Helvetica,sans-Serif" font-size="10.00">error_model</text>
<text text-anchor="start" x="194" y="-359" font-family="Helvetica,sans-Serif" font-size="10.00">+</text>
<text text-anchor="start" x="207" y="-359" font-family="Helvetica,sans-Serif" font-size="10.00">code_sigma</text>
<text text-anchor="start" x="194" y="-344" font-family="Helvetica,sans-Serif" font-size="10.00">+</text>
<text text-anchor="start" x="207" y="-344" font-family="Helvetica,sans-Serif" font-size="10.00">phase_sigma</text>
<text text-anchor="start" x="194" y="-329" font-family="Helvetica,sans-Serif" font-size="10.00">+</text>
<text text-anchor="start" x="207" y="-329" font-family="Helvetica,sans-Serif" font-size="10.00">inheritors</text>
<text text-anchor="start" x="194" y="-314" font-family="Helvetica,sans-Serif" font-size="10.00">+</text>
<text text-anchor="start" x="207" y="-314" font-family="Helvetica,sans-Serif" font-size="10.00">inheritedFrom</text>
<text text-anchor="start" x="194" y="-299" font-family="Helvetica,sans-Serif" font-size="10.00">+</text>
<text text-anchor="start" x="207" y="-299" font-family="Helvetica,sans-Serif" font-size="10.00">initialisedMap</text>
<text text-anchor="start" x="194" y="-284" font-family="Helvetica,sans-Serif" font-size="10.00">+</text>
<text text-anchor="start" x="207" y="-284" font-family="Helvetica,sans-Serif" font-size="10.00">operator+=()</text>
<text text-anchor="start" x="194" y="-269" font-family="Helvetica,sans-Serif" font-size="10.00">+</text>
<text text-anchor="start" x="207" y="-269" font-family="Helvetica,sans-Serif" font-size="10.00">uninitialiseInheritors()</text>
<polygon fill="#666666" stroke="#666666" points="190,-414 190,-414 320,-414 320,-414 190,-414"/>
<polygon fill="#666666" stroke="#666666" points="190,-294 190,-294 205,-294 205,-294 190,-294"/>
<polygon fill="#666666" stroke="#666666" points="205,-294 205,-294 320,-294 320,-294 205,-294"/>
<polygon fill="none" stroke="#666666" points="190,-262.5 190,-431.5 320,-431.5 320,-262.5 190,-262.5"/>
</a>
</g>
</g>
<!-- Node4&#45;&gt;Node5 -->
<g id="edge4_Node000004_Node000005" class="edge">
<title>Node4&#45;&gt;Node5</title>
<g id="a_edge4_Node000004_Node000005"><a xlink:title=" ">
<path fill="none" stroke="#63b8ff" d="M244.88,-786.85C246.62,-711.27 250.55,-540.77 252.97,-435.94"/>
<polygon fill="none" stroke="#63b8ff" points="241.37,-787.21 244.64,-797.29 248.37,-787.38 241.37,-787.21"/>
</a>
</g>
</g>
</g>
</svg>
