<?xml version="1.0" encoding="UTF-8" standalone="no"?>
<!DOCTYPE svg PUBLIC "-//W3C//DTD SVG 1.1//EN"
 "http://www.w3.org/Graphics/SVG/1.1/DTD/svg11.dtd">
<!-- Generated by graphviz version 2.43.0 (0)
 -->
<!-- Title: OrbitState Pages: 1 -->
<svg width="166pt" height="803pt"
 viewBox="0.00 0.00 166.00 803.00" xmlns="http://www.w3.org/2000/svg" xmlns:xlink="http://www.w3.org/1999/xlink">
<g id="graph0" class="graph" transform="scale(1 1) rotate(0) translate(4 799)">
<title>OrbitState</title>
<!-- Node1 -->
<g id="Node000001" class="node">
<title>Node1</title>
<g id="a_Node000001"><a xlink:href="structOrbitState.html" target="_top" xlink:title=" ">
<path fill="white" stroke="#666666" stroke-width="2" d="M126.5,-417C126.5,-417 31.5,-417 31.5,-417 25.5,-417 19.5,-411 19.5,-405 19.5,-405 19.5,-12 19.5,-12 19.5,-6 25.5,0 31.5,0 31.5,0 126.5,0 126.5,0 132.5,0 138.5,-6 138.5,-12 138.5,-12 138.5,-405 138.5,-405 138.5,-411 132.5,-417 126.5,-417"/>
<text text-anchor="start" x="54.5" y="-400.5" font-family="Helvetica,sans-Serif" font-size="10.00">OrbitState</text>
<text text-anchor="start" x="32" y="-385.5" font-family="Helvetica,sans-Serif" font-size="10.00">+</text>
<text text-anchor="start" x="45" y="-385.5" font-family="Helvetica,sans-Serif" font-size="10.00">Sat</text>
<text text-anchor="start" x="32" y="-370.5" font-family="Helvetica,sans-Serif" font-size="10.00">+</text>
<text text-anchor="start" x="45" y="-370.5" font-family="Helvetica,sans-Serif" font-size="10.00">str</text>
<text text-anchor="start" x="32" y="-355.5" font-family="Helvetica,sans-Serif" font-size="10.00">+</text>
<text text-anchor="start" x="45" y="-355.5" font-family="Helvetica,sans-Serif" font-size="10.00">exclude</text>
<text text-anchor="start" x="32" y="-340.5" font-family="Helvetica,sans-Serif" font-size="10.00">+</text>
<text text-anchor="start" x="45" y="-340.5" font-family="Helvetica,sans-Serif" font-size="10.00">subState_ptr</text>
<text text-anchor="start" x="32" y="-325.5" font-family="Helvetica,sans-Serif" font-size="10.00">+</text>
<text text-anchor="start" x="45" y="-325.5" font-family="Helvetica,sans-Serif" font-size="10.00">empInput</text>
<text text-anchor="start" x="32" y="-310.5" font-family="Helvetica,sans-Serif" font-size="10.00">+</text>
<text text-anchor="start" x="45" y="-310.5" font-family="Helvetica,sans-Serif" font-size="10.00">componentsMap</text>
<text text-anchor="start" x="32" y="-295.5" font-family="Helvetica,sans-Serif" font-size="10.00">+</text>
<text text-anchor="start" x="45" y="-295.5" font-family="Helvetica,sans-Serif" font-size="10.00">numEmp</text>
<text text-anchor="start" x="32" y="-280.5" font-family="Helvetica,sans-Serif" font-size="10.00">+</text>
<text text-anchor="start" x="45" y="-280.5" font-family="Helvetica,sans-Serif" font-size="10.00">numParam</text>
<text text-anchor="start" x="32" y="-265.5" font-family="Helvetica,sans-Serif" font-size="10.00">+</text>
<text text-anchor="start" x="45" y="-265.5" font-family="Helvetica,sans-Serif" font-size="10.00">srpCr</text>
<text text-anchor="start" x="32" y="-250.5" font-family="Helvetica,sans-Serif" font-size="10.00">+</text>
<text text-anchor="start" x="45" y="-250.5" font-family="Helvetica,sans-Serif" font-size="10.00">dragCd</text>
<text text-anchor="start" x="32" y="-235.5" font-family="Helvetica,sans-Serif" font-size="10.00">+</text>
<text text-anchor="start" x="45" y="-235.5" font-family="Helvetica,sans-Serif" font-size="10.00">pos</text>
<text text-anchor="start" x="32" y="-220.5" font-family="Helvetica,sans-Serif" font-size="10.00">+</text>
<text text-anchor="start" x="45" y="-220.5" font-family="Helvetica,sans-Serif" font-size="10.00">vel</text>
<text text-anchor="start" x="32" y="-205.5" font-family="Helvetica,sans-Serif" font-size="10.00">+</text>
<text text-anchor="start" x="45" y="-205.5" font-family="Helvetica,sans-Serif" font-size="10.00">posVelSTM</text>
<text text-anchor="start" x="32" y="-190.5" font-family="Helvetica,sans-Serif" font-size="10.00">+</text>
<text text-anchor="start" x="45" y="-190.5" font-family="Helvetica,sans-Serif" font-size="10.00">estimateCr</text>
<text text-anchor="start" x="32" y="-175.5" font-family="Helvetica,sans-Serif" font-size="10.00">+</text>
<text text-anchor="start" x="45" y="-175.5" font-family="Helvetica,sans-Serif" font-size="10.00">estimateCd</text>
<text text-anchor="start" x="32" y="-160.5" font-family="Helvetica,sans-Serif" font-size="10.00">+</text>
<text text-anchor="start" x="45" y="-160.5" font-family="Helvetica,sans-Serif" font-size="10.00">attStatus</text>
<text text-anchor="start" x="32" y="-145.5" font-family="Helvetica,sans-Serif" font-size="10.00">+</text>
<text text-anchor="start" x="45" y="-145.5" font-family="Helvetica,sans-Serif" font-size="10.00">gyroBias</text>
<text text-anchor="start" x="32" y="-130.5" font-family="Helvetica,sans-Serif" font-size="10.00">+</text>
<text text-anchor="start" x="45" y="-130.5" font-family="Helvetica,sans-Serif" font-size="10.00">acclBias</text>
<text text-anchor="start" x="32" y="-115.5" font-family="Helvetica,sans-Serif" font-size="10.00">+</text>
<text text-anchor="start" x="45" y="-115.5" font-family="Helvetica,sans-Serif" font-size="10.00">gyroScale</text>
<text text-anchor="start" x="32" y="-100.5" font-family="Helvetica,sans-Serif" font-size="10.00">+</text>
<text text-anchor="start" x="45" y="-100.5" font-family="Helvetica,sans-Serif" font-size="10.00">acclScale</text>
<text text-anchor="start" x="32" y="-85.5" font-family="Helvetica,sans-Serif" font-size="10.00">+</text>
<text text-anchor="start" x="45" y="-85.5" font-family="Helvetica,sans-Serif" font-size="10.00">posVar</text>
<text text-anchor="start" x="32" y="-70.5" font-family="Helvetica,sans-Serif" font-size="10.00">+</text>
<text text-anchor="start" x="45" y="-70.5" font-family="Helvetica,sans-Serif" font-size="10.00">operator+=()</text>
<text text-anchor="start" x="32" y="-55.5" font-family="Helvetica,sans-Serif" font-size="10.00">+</text>
<text text-anchor="start" x="45" y="-55.5" font-family="Helvetica,sans-Serif" font-size="10.00">operator*=()</text>
<text text-anchor="start" x="32" y="-40.5" font-family="Helvetica,sans-Serif" font-size="10.00">+</text>
<text text-anchor="start" x="45" y="-40.5" font-family="Helvetica,sans-Serif" font-size="10.00">operator+()</text>
<text text-anchor="start" x="32" y="-25.5" font-family="Helvetica,sans-Serif" font-size="10.00">+</text>
<text text-anchor="start" x="45" y="-25.5" font-family="Helvetica,sans-Serif" font-size="10.00">operator+()</text>
<text text-anchor="start" x="32" y="-10.5" font-family="Helvetica,sans-Serif" font-size="10.00">+</text>
<text text-anchor="start" x="45" y="-10.5" font-family="Helvetica,sans-Serif" font-size="10.00">operator*()</text>
<polygon fill="#666666" stroke="#666666" points="28,-395.5 28,-395.5 131,-395.5 131,-395.5 28,-395.5"/>
<polygon fill="#666666" stroke="#666666" points="28,-80.5 28,-80.5 43,-80.5 43,-80.5 28,-80.5"/>
<polygon fill="#666666" stroke="#666666" points="43,-80.5 43,-80.5 131,-80.5 131,-80.5 43,-80.5"/>
<polygon fill="none" stroke="#666666" points="27.5,-4 27.5,-413 130.5,-413 130.5,-4 27.5,-4"/>
</a>
</g>
</g>
<!-- Node2 -->
<g id="Node000002" class="node">
<title>Node2</title>
<g id="a_Node000002"><a xlink:href="structOrbitOptions.html" target="_top" xlink:title="Options associated with orbital force models.">
<path fill="white" stroke="#666666" d="M146,-795C146,-795 12,-795 12,-795 6,-795 0,-789 0,-783 0,-783 0,-465 0,-465 0,-459 6,-453 12,-453 12,-453 146,-453 146,-453 152,-453 158,-459 158,-465 158,-465 158,-783 158,-783 158,-789 152,-795 146,-795"/>
<text text-anchor="start" x="48" y="-779" font-family="Helvetica,sans-Serif" font-size="10.00">OrbitOptions</text>
<text text-anchor="start" x="12" y="-764" font-family="Helvetica,sans-Serif" font-size="10.00">+</text>
<text text-anchor="start" x="25" y="-764" font-family="Helvetica,sans-Serif" font-size="10.00">mass</text>
<text text-anchor="start" x="12" y="-749" font-family="Helvetica,sans-Serif" font-size="10.00">+</text>
<text text-anchor="start" x="25" y="-749" font-family="Helvetica,sans-Serif" font-size="10.00">area</text>
<text text-anchor="start" x="12" y="-734" font-family="Helvetica,sans-Serif" font-size="10.00">+</text>
<text text-anchor="start" x="25" y="-734" font-family="Helvetica,sans-Serif" font-size="10.00">power</text>
<text text-anchor="start" x="12" y="-719" font-family="Helvetica,sans-Serif" font-size="10.00">+</text>
<text text-anchor="start" x="25" y="-719" font-family="Helvetica,sans-Serif" font-size="10.00">srp_cr</text>
<text text-anchor="start" x="12" y="-704" font-family="Helvetica,sans-Serif" font-size="10.00">+</text>
<text text-anchor="start" x="25" y="-704" font-family="Helvetica,sans-Serif" font-size="10.00">drag_cd</text>
<text text-anchor="start" x="12" y="-689" font-family="Helvetica,sans-Serif" font-size="10.00">+</text>
<text text-anchor="start" x="25" y="-689" font-family="Helvetica,sans-Serif" font-size="10.00">planetary_perturbations</text>
<text text-anchor="start" x="12" y="-674" font-family="Helvetica,sans-Serif" font-size="10.00">+</text>
<text text-anchor="start" x="25" y="-674" font-family="Helvetica,sans-Serif" font-size="10.00">empirical</text>
<text text-anchor="start" x="12" y="-659" font-family="Helvetica,sans-Serif" font-size="10.00">+</text>
<text text-anchor="start" x="25" y="-659" font-family="Helvetica,sans-Serif" font-size="10.00">antenna_thrust</text>
<text text-anchor="start" x="12" y="-644" font-family="Helvetica,sans-Serif" font-size="10.00">+</text>
<text text-anchor="start" x="25" y="-644" font-family="Helvetica,sans-Serif" font-size="10.00">albedo</text>
<text text-anchor="start" x="12" y="-629" font-family="Helvetica,sans-Serif" font-size="10.00">+</text>
<text text-anchor="start" x="25" y="-629" font-family="Helvetica,sans-Serif" font-size="10.00">solar_radiation_pressure</text>
<text text-anchor="start" x="12" y="-614" font-family="Helvetica,sans-Serif" font-size="10.00">+</text>
<text text-anchor="start" x="25" y="-614" font-family="Helvetica,sans-Serif" font-size="10.00">drag</text>
<text text-anchor="start" x="12" y="-599" font-family="Helvetica,sans-Serif" font-size="10.00">+</text>
<text text-anchor="start" x="25" y="-599" font-family="Helvetica,sans-Serif" font-size="10.00">empirical_dyb_eclipse</text>
<text text-anchor="start" x="12" y="-584" font-family="Helvetica,sans-Serif" font-size="10.00">+</text>
<text text-anchor="start" x="25" y="-584" font-family="Helvetica,sans-Serif" font-size="10.00">empirical_rtn_eclipse</text>
<text text-anchor="start" x="12" y="-569" font-family="Helvetica,sans-Serif" font-size="10.00">+</text>
<text text-anchor="start" x="25" y="-569" font-family="Helvetica,sans-Serif" font-size="10.00">surface_details</text>
<text text-anchor="start" x="12" y="-554" font-family="Helvetica,sans-Serif" font-size="10.00">+</text>
<text text-anchor="start" x="25" y="-554" font-family="Helvetica,sans-Serif" font-size="10.00">enable</text>
<text text-anchor="start" x="12" y="-539" font-family="Helvetica,sans-Serif" font-size="10.00">+</text>
<text text-anchor="start" x="25" y="-539" font-family="Helvetica,sans-Serif" font-size="10.00">interval</text>
<text text-anchor="start" x="12" y="-524" font-family="Helvetica,sans-Serif" font-size="10.00">+</text>
<text text-anchor="start" x="25" y="-524" font-family="Helvetica,sans-Serif" font-size="10.00">pos_proc_noise</text>
<text text-anchor="start" x="12" y="-509" font-family="Helvetica,sans-Serif" font-size="10.00">+</text>
<text text-anchor="start" x="25" y="-509" font-family="Helvetica,sans-Serif" font-size="10.00">vel_proc_noise</text>
<text text-anchor="start" x="12" y="-494" font-family="Helvetica,sans-Serif" font-size="10.00">+</text>
<text text-anchor="start" x="25" y="-494" font-family="Helvetica,sans-Serif" font-size="10.00">pseudoPulses</text>
<text text-anchor="start" x="12" y="-479" font-family="Helvetica,sans-Serif" font-size="10.00">+</text>
<text text-anchor="start" x="25" y="-479" font-family="Helvetica,sans-Serif" font-size="10.00">initialisedMap</text>
<text text-anchor="start" x="12" y="-464" font-family="Helvetica,sans-Serif" font-size="10.00">+</text>
<text text-anchor="start" x="25" y="-464" font-family="Helvetica,sans-Serif" font-size="10.00">operator+=()</text>
<polygon fill="#666666" stroke="#666666" points="8,-774 8,-774 150,-774 150,-774 8,-774"/>
<polygon fill="#666666" stroke="#666666" points="8,-474 8,-474 23,-474 23,-474 8,-474"/>
<polygon fill="#666666" stroke="#666666" points="23,-474 23,-474 150,-474 150,-474 23,-474"/>
<polygon fill="none" stroke="#666666" points="8,-457 8,-791 150,-791 150,-457 8,-457"/>
</a>
</g>
</g>
<!-- Node2&#45;&gt;Node1 -->
<g id="edge1_Node000001_Node000002" class="edge">
<title>Node2&#45;&gt;Node1</title>
<g id="a_edge1_Node000001_Node000002"><a xlink:title=" ">
<path fill="none" stroke="#63b8ff" d="M79,-442.55C79,-434.19 79,-425.76 79,-417.34"/>
<polygon fill="none" stroke="#63b8ff" points="75.5,-442.73 79,-452.73 82.5,-442.73 75.5,-442.73"/>
</a>
</g>
</g>
</g>
</svg>
