<?xml version="1.0" encoding="UTF-8" standalone="no"?>
<!DOCTYPE svg PUBLIC "-//W3C//DTD SVG 1.1//EN"
 "http://www.w3.org/Graphics/SVG/1.1/DTD/svg11.dtd">
<!-- Generated by graphviz version 2.43.0 (0)
 -->
<!-- Title: FilterOptions Pages: 1 -->
<svg width="833pt" height="1544pt"
 viewBox="0.00 0.00 832.50 1544.00" xmlns="http://www.w3.org/2000/svg" xmlns:xlink="http://www.w3.org/1999/xlink">
<g id="graph0" class="graph" transform="scale(1 1) rotate(0) translate(4 1540)">
<title>FilterOptions</title>
<!-- Node1 -->
<g id="Node000001" class="node">
<title>Node1</title>
<g id="a_Node000001"><a xlink:href="structFilterOptions.html" target="_top" xlink:title=" ">
<path fill="white" stroke="#666666" stroke-width="2" d="M473.5,-1353C473.5,-1353 362.5,-1353 362.5,-1353 356.5,-1353 350.5,-1347 350.5,-1341 350.5,-1341 350.5,-1203 350.5,-1203 350.5,-1197 356.5,-1191 362.5,-1191 362.5,-1191 473.5,-1191 473.5,-1191 479.5,-1191 485.5,-1197 485.5,-1203 485.5,-1203 485.5,-1341 485.5,-1341 485.5,-1347 479.5,-1353 473.5,-1353"/>
<text text-anchor="start" x="387" y="-1337" font-family="Helvetica,sans-Serif" font-size="10.00">FilterOptions</text>
<text text-anchor="start" x="363" y="-1322" font-family="Helvetica,sans-Serif" font-size="10.00">+</text>
<text text-anchor="start" x="376" y="-1322" font-family="Helvetica,sans-Serif" font-size="10.00">simulate_filter_only</text>
<text text-anchor="start" x="363" y="-1307" font-family="Helvetica,sans-Serif" font-size="10.00">+</text>
<text text-anchor="start" x="376" y="-1307" font-family="Helvetica,sans-Serif" font-size="10.00">assume_linearity</text>
<text text-anchor="start" x="363" y="-1292" font-family="Helvetica,sans-Serif" font-size="10.00">+</text>
<text text-anchor="start" x="376" y="-1292" font-family="Helvetica,sans-Serif" font-size="10.00">advanced_postfits</text>
<text text-anchor="start" x="363" y="-1277" font-family="Helvetica,sans-Serif" font-size="10.00">+</text>
<text text-anchor="start" x="376" y="-1277" font-family="Helvetica,sans-Serif" font-size="10.00">joseph_stabilisation</text>
<text text-anchor="start" x="363" y="-1262" font-family="Helvetica,sans-Serif" font-size="10.00">+</text>
<text text-anchor="start" x="376" y="-1262" font-family="Helvetica,sans-Serif" font-size="10.00">inverter</text>
<text text-anchor="start" x="363" y="-1247" font-family="Helvetica,sans-Serif" font-size="10.00">+</text>
<text text-anchor="start" x="376" y="-1247" font-family="Helvetica,sans-Serif" font-size="10.00">prefitOpts</text>
<text text-anchor="start" x="363" y="-1232" font-family="Helvetica,sans-Serif" font-size="10.00">+</text>
<text text-anchor="start" x="376" y="-1232" font-family="Helvetica,sans-Serif" font-size="10.00">postfitOpts</text>
<text text-anchor="start" x="363" y="-1217" font-family="Helvetica,sans-Serif" font-size="10.00">+</text>
<text text-anchor="start" x="376" y="-1217" font-family="Helvetica,sans-Serif" font-size="10.00">chiSquareTest</text>
<text text-anchor="start" x="416.5" y="-1202" font-family="Helvetica,sans-Serif" font-size="10.00"> </text>
<polygon fill="#666666" stroke="#666666" points="359,-1332 359,-1332 478,-1332 478,-1332 359,-1332"/>
<polygon fill="#666666" stroke="#666666" points="359,-1212 359,-1212 374,-1212 374,-1212 359,-1212"/>
<polygon fill="#666666" stroke="#666666" points="374,-1212 374,-1212 478,-1212 478,-1212 374,-1212"/>
<polygon fill="none" stroke="#666666" points="358.5,-1195 358.5,-1349 477.5,-1349 477.5,-1195 358.5,-1195"/>
</a>
</g>
</g>
<!-- Node3 -->
<g id="Node000003" class="node">
<title>Node3</title>
<g id="a_Node000003"><a xlink:href="structIonModelOptions.html" target="_top" xlink:title=" ">
<path fill="white" stroke="#666666" d="M114,-997.5C114,-997.5 12,-997.5 12,-997.5 6,-997.5 0,-991.5 0,-985.5 0,-985.5 0,-832.5 0,-832.5 0,-826.5 6,-820.5 12,-820.5 12,-820.5 114,-820.5 114,-820.5 120,-820.5 126,-826.5 126,-832.5 126,-832.5 126,-985.5 126,-985.5 126,-991.5 120,-997.5 114,-997.5"/>
<text text-anchor="start" x="21.5" y="-981" font-family="Helvetica,sans-Serif" font-size="10.00">IonModelOptions</text>
<text text-anchor="start" x="12" y="-966" font-family="Helvetica,sans-Serif" font-size="10.00">+</text>
<text text-anchor="start" x="25" y="-966" font-family="Helvetica,sans-Serif" font-size="10.00">model</text>
<text text-anchor="start" x="12" y="-951" font-family="Helvetica,sans-Serif" font-size="10.00">+</text>
<text text-anchor="start" x="25" y="-951" font-family="Helvetica,sans-Serif" font-size="10.00">numBasis</text>
<text text-anchor="start" x="12" y="-936" font-family="Helvetica,sans-Serif" font-size="10.00">+</text>
<text text-anchor="start" x="25" y="-936" font-family="Helvetica,sans-Serif" font-size="10.00">function_order</text>
<text text-anchor="start" x="12" y="-921" font-family="Helvetica,sans-Serif" font-size="10.00">+</text>
<text text-anchor="start" x="25" y="-921" font-family="Helvetica,sans-Serif" font-size="10.00">function_degree</text>
<text text-anchor="start" x="12" y="-906" font-family="Helvetica,sans-Serif" font-size="10.00">+</text>
<text text-anchor="start" x="25" y="-906" font-family="Helvetica,sans-Serif" font-size="10.00">layer_heights</text>
<text text-anchor="start" x="12" y="-891" font-family="Helvetica,sans-Serif" font-size="10.00">+</text>
<text text-anchor="start" x="25" y="-891" font-family="Helvetica,sans-Serif" font-size="10.00">estimate_sat_dcb</text>
<text text-anchor="start" x="12" y="-876" font-family="Helvetica,sans-Serif" font-size="10.00">+</text>
<text text-anchor="start" x="25" y="-876" font-family="Helvetica,sans-Serif" font-size="10.00">use_rotation_mtx</text>
<text text-anchor="start" x="12" y="-861" font-family="Helvetica,sans-Serif" font-size="10.00">+</text>
<text text-anchor="start" x="25" y="-861" font-family="Helvetica,sans-Serif" font-size="10.00">basis_sigma_limit</text>
<text text-anchor="start" x="12" y="-846" font-family="Helvetica,sans-Serif" font-size="10.00">+</text>
<text text-anchor="start" x="25" y="-846" font-family="Helvetica,sans-Serif" font-size="10.00">ion</text>
<text text-anchor="start" x="61" y="-831" font-family="Helvetica,sans-Serif" font-size="10.00"> </text>
<polygon fill="#666666" stroke="#666666" points="8,-976 8,-976 118,-976 118,-976 8,-976"/>
<polygon fill="#666666" stroke="#666666" points="8,-841 8,-841 23,-841 23,-841 8,-841"/>
<polygon fill="#666666" stroke="#666666" points="23,-841 23,-841 118,-841 118,-841 23,-841"/>
<polygon fill="none" stroke="#666666" points="8,-824.5 8,-993.5 118,-993.5 118,-824.5 8,-824.5"/>
</a>
</g>
</g>
<!-- Node1&#45;&gt;Node3 -->
<g id="edge2_Node000001_Node000003" class="edge">
<title>Node1&#45;&gt;Node3</title>
<g id="a_edge2_Node000001_Node000003"><a xlink:title=" ">
<path fill="none" stroke="#63b8ff" d="M340.33,-1258.29C276.58,-1243.89 188.42,-1214.23 135,-1155 96.18,-1111.95 78.23,-1048.97 69.96,-997.64"/>
<polygon fill="none" stroke="#63b8ff" points="339.83,-1261.76 350.34,-1260.47 341.32,-1254.92 339.83,-1261.76"/>
</a>
</g>
</g>
<!-- Node4 -->
<g id="Node000004" class="node">
<title>Node4</title>
<g id="a_Node000004"><a xlink:href="structKFState__.html" target="_top" xlink:title="Kalman filter object.">
<path fill="white" stroke="#666666" d="M307.5,-1155C307.5,-1155 156.5,-1155 156.5,-1155 150.5,-1155 144.5,-1149 144.5,-1143 144.5,-1143 144.5,-675 144.5,-675 144.5,-669 150.5,-663 156.5,-663 156.5,-663 307.5,-663 307.5,-663 313.5,-663 319.5,-669 319.5,-675 319.5,-675 319.5,-1143 319.5,-1143 319.5,-1149 313.5,-1155 307.5,-1155"/>
<text text-anchor="start" x="211" y="-1139" font-family="Helvetica,sans-Serif" font-size="10.00">KFState_</text>
<text text-anchor="start" x="157" y="-1124" font-family="Helvetica,sans-Serif" font-size="10.00">+</text>
<text text-anchor="start" x="170" y="-1124" font-family="Helvetica,sans-Serif" font-size="10.00">lsqRequired</text>
<text text-anchor="start" x="157" y="-1109" font-family="Helvetica,sans-Serif" font-size="10.00">+</text>
<text text-anchor="start" x="170" y="-1109" font-family="Helvetica,sans-Serif" font-size="10.00">time</text>
<text text-anchor="start" x="157" y="-1094" font-family="Helvetica,sans-Serif" font-size="10.00">+</text>
<text text-anchor="start" x="170" y="-1094" font-family="Helvetica,sans-Serif" font-size="10.00">x</text>
<text text-anchor="start" x="157" y="-1079" font-family="Helvetica,sans-Serif" font-size="10.00">+</text>
<text text-anchor="start" x="170" y="-1079" font-family="Helvetica,sans-Serif" font-size="10.00">P</text>
<text text-anchor="start" x="157" y="-1064" font-family="Helvetica,sans-Serif" font-size="10.00">+</text>
<text text-anchor="start" x="170" y="-1064" font-family="Helvetica,sans-Serif" font-size="10.00">dx</text>
<text text-anchor="start" x="157" y="-1049" font-family="Helvetica,sans-Serif" font-size="10.00">+</text>
<text text-anchor="start" x="170" y="-1049" font-family="Helvetica,sans-Serif" font-size="10.00">kfIndexMap</text>
<text text-anchor="start" x="157" y="-1034" font-family="Helvetica,sans-Serif" font-size="10.00">+</text>
<text text-anchor="start" x="170" y="-1034" font-family="Helvetica,sans-Serif" font-size="10.00">stateTransitionMap</text>
<text text-anchor="start" x="157" y="-1019" font-family="Helvetica,sans-Serif" font-size="10.00">+</text>
<text text-anchor="start" x="170" y="-1019" font-family="Helvetica,sans-Serif" font-size="10.00">gaussMarkovTauMap</text>
<text text-anchor="start" x="157" y="-1004" font-family="Helvetica,sans-Serif" font-size="10.00">+</text>
<text text-anchor="start" x="170" y="-1004" font-family="Helvetica,sans-Serif" font-size="10.00">gaussMarkovMuMap</text>
<text text-anchor="start" x="157" y="-989" font-family="Helvetica,sans-Serif" font-size="10.00">+</text>
<text text-anchor="start" x="170" y="-989" font-family="Helvetica,sans-Serif" font-size="10.00">procNoiseMap</text>
<text text-anchor="start" x="157" y="-974" font-family="Helvetica,sans-Serif" font-size="10.00">+</text>
<text text-anchor="start" x="170" y="-974" font-family="Helvetica,sans-Serif" font-size="10.00">initNoiseMap</text>
<text text-anchor="start" x="157" y="-959" font-family="Helvetica,sans-Serif" font-size="10.00">+</text>
<text text-anchor="start" x="170" y="-959" font-family="Helvetica,sans-Serif" font-size="10.00">sigmaMaxMap</text>
<text text-anchor="start" x="157" y="-944" font-family="Helvetica,sans-Serif" font-size="10.00">+</text>
<text text-anchor="start" x="170" y="-944" font-family="Helvetica,sans-Serif" font-size="10.00">outageLimitMap</text>
<text text-anchor="start" x="157" y="-929" font-family="Helvetica,sans-Serif" font-size="10.00">+</text>
<text text-anchor="start" x="170" y="-929" font-family="Helvetica,sans-Serif" font-size="10.00">exponentialNoiseMap</text>
<text text-anchor="start" x="157" y="-914" font-family="Helvetica,sans-Serif" font-size="10.00">+</text>
<text text-anchor="start" x="170" y="-914" font-family="Helvetica,sans-Serif" font-size="10.00">pseudoStateMap</text>
<text text-anchor="start" x="157" y="-899" font-family="Helvetica,sans-Serif" font-size="10.00">+</text>
<text text-anchor="start" x="170" y="-899" font-family="Helvetica,sans-Serif" font-size="10.00">pseudoParentMap</text>
<text text-anchor="start" x="157" y="-884" font-family="Helvetica,sans-Serif" font-size="10.00">+</text>
<text text-anchor="start" x="170" y="-884" font-family="Helvetica,sans-Serif" font-size="10.00">stateRejectCallbacks</text>
<text text-anchor="start" x="157" y="-869" font-family="Helvetica,sans-Serif" font-size="10.00">+</text>
<text text-anchor="start" x="170" y="-869" font-family="Helvetica,sans-Serif" font-size="10.00">measRejectCallbacks</text>
<text text-anchor="start" x="157" y="-854" font-family="Helvetica,sans-Serif" font-size="10.00">+</text>
<text text-anchor="start" x="170" y="-854" font-family="Helvetica,sans-Serif" font-size="10.00">filterChunkMap</text>
<text text-anchor="start" x="157" y="-839" font-family="Helvetica,sans-Serif" font-size="10.00">+</text>
<text text-anchor="start" x="170" y="-839" font-family="Helvetica,sans-Serif" font-size="10.00">metaDataMap</text>
<text text-anchor="start" x="157" y="-824" font-family="Helvetica,sans-Serif" font-size="10.00">+</text>
<text text-anchor="start" x="170" y="-824" font-family="Helvetica,sans-Serif" font-size="10.00">chiQCPass</text>
<text text-anchor="start" x="157" y="-809" font-family="Helvetica,sans-Serif" font-size="10.00">+</text>
<text text-anchor="start" x="170" y="-809" font-family="Helvetica,sans-Serif" font-size="10.00">chi</text>
<text text-anchor="start" x="157" y="-794" font-family="Helvetica,sans-Serif" font-size="10.00">+</text>
<text text-anchor="start" x="170" y="-794" font-family="Helvetica,sans-Serif" font-size="10.00">dof</text>
<text text-anchor="start" x="157" y="-779" font-family="Helvetica,sans-Serif" font-size="10.00">+</text>
<text text-anchor="start" x="170" y="-779" font-family="Helvetica,sans-Serif" font-size="10.00">id</text>
<text text-anchor="start" x="157" y="-764" font-family="Helvetica,sans-Serif" font-size="10.00">+</text>
<text text-anchor="start" x="170" y="-764" font-family="Helvetica,sans-Serif" font-size="10.00">rts_basename</text>
<text text-anchor="start" x="157" y="-749" font-family="Helvetica,sans-Serif" font-size="10.00">+</text>
<text text-anchor="start" x="170" y="-749" font-family="Helvetica,sans-Serif" font-size="10.00">output_residuals</text>
<text text-anchor="start" x="157" y="-734" font-family="Helvetica,sans-Serif" font-size="10.00">+</text>
<text text-anchor="start" x="170" y="-734" font-family="Helvetica,sans-Serif" font-size="10.00">outputMongoMeasurements</text>
<text text-anchor="start" x="157" y="-719" font-family="Helvetica,sans-Serif" font-size="10.00">+</text>
<text text-anchor="start" x="170" y="-719" font-family="Helvetica,sans-Serif" font-size="10.00">alternate_ptr</text>
<text text-anchor="start" x="157" y="-704" font-family="Helvetica,sans-Serif" font-size="10.00">+</text>
<text text-anchor="start" x="170" y="-704" font-family="Helvetica,sans-Serif" font-size="10.00">statisticsMap</text>
<text text-anchor="start" x="157" y="-689" font-family="Helvetica,sans-Serif" font-size="10.00">+</text>
<text text-anchor="start" x="170" y="-689" font-family="Helvetica,sans-Serif" font-size="10.00">statisticsMapSum</text>
<text text-anchor="start" x="230.5" y="-674" font-family="Helvetica,sans-Serif" font-size="10.00"> </text>
<polygon fill="#666666" stroke="#666666" points="153,-1134 153,-1134 312,-1134 312,-1134 153,-1134"/>
<polygon fill="#666666" stroke="#666666" points="153,-684 153,-684 168,-684 168,-684 153,-684"/>
<polygon fill="#666666" stroke="#666666" points="168,-684 168,-684 312,-684 312,-684 168,-684"/>
<polygon fill="none" stroke="#666666" points="152.5,-667 152.5,-1151 311.5,-1151 311.5,-667 152.5,-667"/>
</a>
</g>
</g>
<!-- Node1&#45;&gt;Node4 -->
<g id="edge3_Node000001_Node000004" class="edge">
<title>Node1&#45;&gt;Node4</title>
<g id="a_edge3_Node000001_Node000004"><a xlink:title=" ">
<path fill="none" stroke="#63b8ff" d="M345.44,-1182.68C339.19,-1173.56 333.25,-1164.25 328,-1155 325.12,-1149.94 322.29,-1144.77 319.52,-1139.52"/>
<polygon fill="none" stroke="#63b8ff" points="342.65,-1184.8 351.25,-1190.98 348.38,-1180.78 342.65,-1184.8"/>
</a>
</g>
</g>
<!-- Node6 -->
<g id="Node000006" class="node">
<title>Node6</title>
<g id="a_Node000006"><a xlink:href="structMinimumConstraintOptions.html" target="_top" xlink:title="Options associated with the minimum constraints mode of operation.">
<path fill="white" stroke="#666666" d="M486.5,-997.5C486.5,-997.5 349.5,-997.5 349.5,-997.5 343.5,-997.5 337.5,-991.5 337.5,-985.5 337.5,-985.5 337.5,-832.5 337.5,-832.5 337.5,-826.5 343.5,-820.5 349.5,-820.5 349.5,-820.5 486.5,-820.5 486.5,-820.5 492.5,-820.5 498.5,-826.5 498.5,-832.5 498.5,-832.5 498.5,-985.5 498.5,-985.5 498.5,-991.5 492.5,-997.5 486.5,-997.5"/>
<text text-anchor="start" x="351" y="-981" font-family="Helvetica,sans-Serif" font-size="10.00">MinimumConstraintOptions</text>
<text text-anchor="start" x="353" y="-966" font-family="Helvetica,sans-Serif" font-size="10.00">+</text>
<text text-anchor="start" x="369" y="-966" font-family="Helvetica,sans-Serif" font-size="10.00">delay</text>
<text text-anchor="start" x="353" y="-951" font-family="Helvetica,sans-Serif" font-size="10.00">+</text>
<text text-anchor="start" x="369" y="-951" font-family="Helvetica,sans-Serif" font-size="10.00">scale</text>
<text text-anchor="start" x="353" y="-936" font-family="Helvetica,sans-Serif" font-size="10.00">+</text>
<text text-anchor="start" x="369" y="-936" font-family="Helvetica,sans-Serif" font-size="10.00">rotation</text>
<text text-anchor="start" x="353" y="-921" font-family="Helvetica,sans-Serif" font-size="10.00">+</text>
<text text-anchor="start" x="369" y="-921" font-family="Helvetica,sans-Serif" font-size="10.00">translation</text>
<text text-anchor="start" x="353" y="-906" font-family="Helvetica,sans-Serif" font-size="10.00">+</text>
<text text-anchor="start" x="369" y="-906" font-family="Helvetica,sans-Serif" font-size="10.00">once_per_epoch</text>
<text text-anchor="start" x="353" y="-891" font-family="Helvetica,sans-Serif" font-size="10.00">+</text>
<text text-anchor="start" x="369" y="-891" font-family="Helvetica,sans-Serif" font-size="10.00">full_vcv</text>
<text text-anchor="start" x="353" y="-876" font-family="Helvetica,sans-Serif" font-size="10.00">+</text>
<text text-anchor="start" x="369" y="-876" font-family="Helvetica,sans-Serif" font-size="10.00">constrain_orbits</text>
<text text-anchor="start" x="353" y="-861" font-family="Helvetica,sans-Serif" font-size="10.00">+</text>
<text text-anchor="start" x="369" y="-861" font-family="Helvetica,sans-Serif" font-size="10.00">transform_unweighted</text>
<text text-anchor="start" x="353" y="-846" font-family="Helvetica,sans-Serif" font-size="10.00">+</text>
<text text-anchor="start" x="369" y="-846" font-family="Helvetica,sans-Serif" font-size="10.00">application_mode</text>
<text text-anchor="start" x="416.5" y="-831" font-family="Helvetica,sans-Serif" font-size="10.00"> </text>
<polygon fill="#666666" stroke="#666666" points="346,-976 346,-976 491,-976 491,-976 346,-976"/>
<polygon fill="#666666" stroke="#666666" points="346,-841 346,-841 367,-841 367,-841 346,-841"/>
<polygon fill="#666666" stroke="#666666" points="367,-841 367,-841 491,-841 491,-841 367,-841"/>
<polygon fill="none" stroke="#666666" points="345.5,-824.5 345.5,-993.5 490.5,-993.5 490.5,-824.5 345.5,-824.5"/>
</a>
</g>
</g>
<!-- Node1&#45;&gt;Node6 -->
<g id="edge5_Node000001_Node000006" class="edge">
<title>Node1&#45;&gt;Node6</title>
<g id="a_edge5_Node000001_Node000006"><a xlink:title=" ">
<path fill="none" stroke="#63b8ff" d="M418,-1180.63C418,-1124.7 418,-1053.24 418,-997.79"/>
<polygon fill="none" stroke="#63b8ff" points="414.5,-1180.88 418,-1190.88 421.5,-1180.88 414.5,-1180.88"/>
</a>
</g>
</g>
<!-- Node7 -->
<g id="Node000007" class="node">
<title>Node7</title>
<g id="a_Node000007"><a xlink:href="structPppOptions.html" target="_top" xlink:title="Options associated with the ppp processing mode of operation.">
<path fill="white" stroke="#666666" d="M663.5,-1042.5C663.5,-1042.5 528.5,-1042.5 528.5,-1042.5 522.5,-1042.5 516.5,-1036.5 516.5,-1030.5 516.5,-1030.5 516.5,-787.5 516.5,-787.5 516.5,-781.5 522.5,-775.5 528.5,-775.5 528.5,-775.5 663.5,-775.5 663.5,-775.5 669.5,-775.5 675.5,-781.5 675.5,-787.5 675.5,-787.5 675.5,-1030.5 675.5,-1030.5 675.5,-1036.5 669.5,-1042.5 663.5,-1042.5"/>
<text text-anchor="start" x="568.5" y="-1026" font-family="Helvetica,sans-Serif" font-size="10.00">PppOptions</text>
<text text-anchor="start" x="529" y="-1011" font-family="Helvetica,sans-Serif" font-size="10.00">+</text>
<text text-anchor="start" x="542" y="-1011" font-family="Helvetica,sans-Serif" font-size="10.00">eop</text>
<text text-anchor="start" x="529" y="-996" font-family="Helvetica,sans-Serif" font-size="10.00">+</text>
<text text-anchor="start" x="542" y="-996" font-family="Helvetica,sans-Serif" font-size="10.00">eop_rates</text>
<text text-anchor="start" x="529" y="-981" font-family="Helvetica,sans-Serif" font-size="10.00">+</text>
<text text-anchor="start" x="542" y="-981" font-family="Helvetica,sans-Serif" font-size="10.00">ionoOpts</text>
<text text-anchor="start" x="529" y="-966" font-family="Helvetica,sans-Serif" font-size="10.00">+</text>
<text text-anchor="start" x="542" y="-966" font-family="Helvetica,sans-Serif" font-size="10.00">equate_ionospheres</text>
<text text-anchor="start" x="529" y="-951" font-family="Helvetica,sans-Serif" font-size="10.00">+</text>
<text text-anchor="start" x="542" y="-951" font-family="Helvetica,sans-Serif" font-size="10.00">equate_tropospheres</text>
<text text-anchor="start" x="529" y="-936" font-family="Helvetica,sans-Serif" font-size="10.00">+</text>
<text text-anchor="start" x="542" y="-936" font-family="Helvetica,sans-Serif" font-size="10.00">use_rtk_combo</text>
<text text-anchor="start" x="529" y="-921" font-family="Helvetica,sans-Serif" font-size="10.00">+</text>
<text text-anchor="start" x="542" y="-921" font-family="Helvetica,sans-Serif" font-size="10.00">merge_correlated_states</text>
<text text-anchor="start" x="529" y="-906" font-family="Helvetica,sans-Serif" font-size="10.00">+</text>
<text text-anchor="start" x="542" y="-906" font-family="Helvetica,sans-Serif" font-size="10.00">use_primary_signals</text>
<text text-anchor="start" x="529" y="-891" font-family="Helvetica,sans-Serif" font-size="10.00">+</text>
<text text-anchor="start" x="542" y="-891" font-family="Helvetica,sans-Serif" font-size="10.00">add_eop_component</text>
<text text-anchor="start" x="529" y="-876" font-family="Helvetica,sans-Serif" font-size="10.00">+</text>
<text text-anchor="start" x="542" y="-876" font-family="Helvetica,sans-Serif" font-size="10.00">satellite_chunking</text>
<text text-anchor="start" x="529" y="-861" font-family="Helvetica,sans-Serif" font-size="10.00">+</text>
<text text-anchor="start" x="542" y="-861" font-family="Helvetica,sans-Serif" font-size="10.00">receiver_chunking</text>
<text text-anchor="start" x="529" y="-846" font-family="Helvetica,sans-Serif" font-size="10.00">+</text>
<text text-anchor="start" x="542" y="-846" font-family="Helvetica,sans-Serif" font-size="10.00">chunk_size</text>
<text text-anchor="start" x="529" y="-831" font-family="Helvetica,sans-Serif" font-size="10.00">+</text>
<text text-anchor="start" x="542" y="-831" font-family="Helvetica,sans-Serif" font-size="10.00">nuke_enable</text>
<text text-anchor="start" x="529" y="-816" font-family="Helvetica,sans-Serif" font-size="10.00">+</text>
<text text-anchor="start" x="542" y="-816" font-family="Helvetica,sans-Serif" font-size="10.00">nuke_interval</text>
<text text-anchor="start" x="529" y="-801" font-family="Helvetica,sans-Serif" font-size="10.00">+</text>
<text text-anchor="start" x="542" y="-801" font-family="Helvetica,sans-Serif" font-size="10.00">nuke_states</text>
<text text-anchor="start" x="594.5" y="-786" font-family="Helvetica,sans-Serif" font-size="10.00"> </text>
<polygon fill="#666666" stroke="#666666" points="525,-1021 525,-1021 668,-1021 668,-1021 525,-1021"/>
<polygon fill="#666666" stroke="#666666" points="525,-796 525,-796 540,-796 540,-796 525,-796"/>
<polygon fill="#666666" stroke="#666666" points="540,-796 540,-796 668,-796 668,-796 540,-796"/>
<polygon fill="none" stroke="#666666" points="524.5,-779.5 524.5,-1038.5 667.5,-1038.5 667.5,-779.5 524.5,-779.5"/>
</a>
</g>
</g>
<!-- Node1&#45;&gt;Node7 -->
<g id="edge6_Node000001_Node000007" class="edge">
<title>Node1&#45;&gt;Node7</title>
<g id="a_edge6_Node000001_Node000007"><a xlink:title=" ">
<path fill="none" stroke="#63b8ff" d="M490.15,-1182.51C496.22,-1173.46 501.96,-1164.2 507,-1155 526.2,-1119.98 542.74,-1079.99 556.17,-1042.62"/>
<polygon fill="none" stroke="#63b8ff" points="487.26,-1180.53 484.48,-1190.76 493.03,-1184.49 487.26,-1180.53"/>
</a>
</g>
</g>
<!-- Node8 -->
<g id="Node000008" class="node">
<title>Node8</title>
<g id="a_Node000008"><a xlink:href="structSppOptions.html" target="_top" xlink:title=" ">
<path fill="white" stroke="#666666" d="M812.5,-975C812.5,-975 705.5,-975 705.5,-975 699.5,-975 693.5,-969 693.5,-963 693.5,-963 693.5,-855 693.5,-855 693.5,-849 699.5,-843 705.5,-843 705.5,-843 812.5,-843 812.5,-843 818.5,-843 824.5,-849 824.5,-855 824.5,-855 824.5,-963 824.5,-963 824.5,-969 818.5,-975 812.5,-975"/>
<text text-anchor="start" x="731.5" y="-959" font-family="Helvetica,sans-Serif" font-size="10.00">SppOptions</text>
<text text-anchor="start" x="706" y="-944" font-family="Helvetica,sans-Serif" font-size="10.00">+</text>
<text text-anchor="start" x="719" y="-944" font-family="Helvetica,sans-Serif" font-size="10.00">always_reinitialise</text>
<text text-anchor="start" x="706" y="-929" font-family="Helvetica,sans-Serif" font-size="10.00">+</text>
<text text-anchor="start" x="719" y="-929" font-family="Helvetica,sans-Serif" font-size="10.00">max_lsq_iterations</text>
<text text-anchor="start" x="706" y="-914" font-family="Helvetica,sans-Serif" font-size="10.00">+</text>
<text text-anchor="start" x="719" y="-914" font-family="Helvetica,sans-Serif" font-size="10.00">max_gdop</text>
<text text-anchor="start" x="706" y="-899" font-family="Helvetica,sans-Serif" font-size="10.00">+</text>
<text text-anchor="start" x="719" y="-899" font-family="Helvetica,sans-Serif" font-size="10.00">sigma_scaling</text>
<text text-anchor="start" x="706" y="-884" font-family="Helvetica,sans-Serif" font-size="10.00">+</text>
<text text-anchor="start" x="719" y="-884" font-family="Helvetica,sans-Serif" font-size="10.00">raim</text>
<text text-anchor="start" x="706" y="-869" font-family="Helvetica,sans-Serif" font-size="10.00">+</text>
<text text-anchor="start" x="719" y="-869" font-family="Helvetica,sans-Serif" font-size="10.00">iono_mode</text>
<text text-anchor="start" x="757.5" y="-854" font-family="Helvetica,sans-Serif" font-size="10.00"> </text>
<polygon fill="#666666" stroke="#666666" points="702,-954 702,-954 817,-954 817,-954 702,-954"/>
<polygon fill="#666666" stroke="#666666" points="702,-864 702,-864 717,-864 717,-864 702,-864"/>
<polygon fill="#666666" stroke="#666666" points="717,-864 717,-864 817,-864 817,-864 717,-864"/>
<polygon fill="none" stroke="#666666" points="701.5,-847 701.5,-971 816.5,-971 816.5,-847 701.5,-847"/>
</a>
</g>
</g>
<!-- Node1&#45;&gt;Node8 -->
<g id="edge7_Node000001_Node000008" class="edge">
<title>Node1&#45;&gt;Node8</title>
<g id="a_edge7_Node000001_Node000008"><a xlink:title=" ">
<path fill="none" stroke="#63b8ff" d="M495.29,-1255.75C554.76,-1240.15 634.84,-1210.12 684,-1155 728.56,-1105.04 746.65,-1029.14 753.99,-975.08"/>
<polygon fill="none" stroke="#63b8ff" points="494.39,-1252.37 485.56,-1258.22 496.12,-1259.15 494.39,-1252.37"/>
</a>
</g>
</g>
<!-- Node2 -->
<g id="Node000002" class="node">
<title>Node2</title>
<g id="a_Node000002"><a xlink:href="structRtsOptions.html" target="_top" xlink:title=" ">
<path fill="white" stroke="#666666" d="M474.5,-1536C474.5,-1536 361.5,-1536 361.5,-1536 355.5,-1536 349.5,-1530 349.5,-1524 349.5,-1524 349.5,-1401 349.5,-1401 349.5,-1395 355.5,-1389 361.5,-1389 361.5,-1389 474.5,-1389 474.5,-1389 480.5,-1389 486.5,-1395 486.5,-1401 486.5,-1401 486.5,-1524 486.5,-1524 486.5,-1530 480.5,-1536 474.5,-1536"/>
<text text-anchor="start" x="391.5" y="-1519.5" font-family="Helvetica,sans-Serif" font-size="10.00">RtsOptions</text>
<text text-anchor="start" x="362" y="-1504.5" font-family="Helvetica,sans-Serif" font-size="10.00">+</text>
<text text-anchor="start" x="375" y="-1504.5" font-family="Helvetica,sans-Serif" font-size="10.00">rts_filename</text>
<text text-anchor="start" x="362" y="-1489.5" font-family="Helvetica,sans-Serif" font-size="10.00">+</text>
<text text-anchor="start" x="375" y="-1489.5" font-family="Helvetica,sans-Serif" font-size="10.00">rts_directory</text>
<text text-anchor="start" x="362" y="-1474.5" font-family="Helvetica,sans-Serif" font-size="10.00">+</text>
<text text-anchor="start" x="375" y="-1474.5" font-family="Helvetica,sans-Serif" font-size="10.00">rts_lag</text>
<text text-anchor="start" x="362" y="-1459.5" font-family="Helvetica,sans-Serif" font-size="10.00">+</text>
<text text-anchor="start" x="375" y="-1459.5" font-family="Helvetica,sans-Serif" font-size="10.00">rts_interval</text>
<text text-anchor="start" x="362" y="-1444.5" font-family="Helvetica,sans-Serif" font-size="10.00">+</text>
<text text-anchor="start" x="375" y="-1444.5" font-family="Helvetica,sans-Serif" font-size="10.00">rts_smoothed_suffix</text>
<text text-anchor="start" x="362" y="-1429.5" font-family="Helvetica,sans-Serif" font-size="10.00">+</text>
<text text-anchor="start" x="375" y="-1429.5" font-family="Helvetica,sans-Serif" font-size="10.00">queue_rts_outputs</text>
<text text-anchor="start" x="362" y="-1414.5" font-family="Helvetica,sans-Serif" font-size="10.00">+</text>
<text text-anchor="start" x="375" y="-1414.5" font-family="Helvetica,sans-Serif" font-size="10.00">rts_inverter</text>
<text text-anchor="start" x="416.5" y="-1399.5" font-family="Helvetica,sans-Serif" font-size="10.00"> </text>
<polygon fill="#666666" stroke="#666666" points="358,-1514.5 358,-1514.5 479,-1514.5 479,-1514.5 358,-1514.5"/>
<polygon fill="#666666" stroke="#666666" points="358,-1409.5 358,-1409.5 373,-1409.5 373,-1409.5 358,-1409.5"/>
<polygon fill="#666666" stroke="#666666" points="373,-1409.5 373,-1409.5 479,-1409.5 479,-1409.5 373,-1409.5"/>
<polygon fill="none" stroke="#666666" points="357.5,-1393 357.5,-1532 478.5,-1532 478.5,-1393 357.5,-1393"/>
</a>
</g>
</g>
<!-- Node2&#45;&gt;Node1 -->
<g id="edge1_Node000001_Node000002" class="edge">
<title>Node2&#45;&gt;Node1</title>
<g id="a_edge1_Node000001_Node000002"><a xlink:title=" ">
<path fill="none" stroke="#63b8ff" d="M418,-1378.63C418,-1370.15 418,-1361.54 418,-1353.1"/>
<polygon fill="none" stroke="#63b8ff" points="414.5,-1378.89 418,-1388.89 421.5,-1378.89 414.5,-1378.89"/>
</a>
</g>
</g>
<!-- Node5 -->
<g id="Node000005" class="node">
<title>Node5</title>
<g id="a_Node000005"><a xlink:href="structKFState.html" target="_top" xlink:title="Wrapper to simplify copying with default copy but overriding slightly.">
<path fill="white" stroke="#666666" d="M301,-627C301,-627 163,-627 163,-627 157,-627 151,-621 151,-615 151,-615 151,-12 151,-12 151,-6 157,0 163,0 163,0 301,0 301,0 307,0 313,-6 313,-12 313,-12 313,-615 313,-615 313,-621 307,-627 301,-627"/>
<text text-anchor="start" x="213" y="-610.5" font-family="Helvetica,sans-Serif" font-size="10.00">KFState</text>
<text text-anchor="start" x="163" y="-595.5" font-family="Helvetica,sans-Serif" font-size="10.00">+</text>
<text text-anchor="start" x="176" y="-595.5" font-family="Helvetica,sans-Serif" font-size="10.00">kfStateMutex</text>
<text text-anchor="start" x="163" y="-580.5" font-family="Helvetica,sans-Serif" font-size="10.00">+</text>
<text text-anchor="start" x="176" y="-580.5" font-family="Helvetica,sans-Serif" font-size="10.00">oneKey</text>
<text text-anchor="start" x="163" y="-565.5" font-family="Helvetica,sans-Serif" font-size="10.00">+</text>
<text text-anchor="start" x="176" y="-565.5" font-family="Helvetica,sans-Serif" font-size="10.00">KFState()</text>
<text text-anchor="start" x="163" y="-550.5" font-family="Helvetica,sans-Serif" font-size="10.00">+</text>
<text text-anchor="start" x="176" y="-550.5" font-family="Helvetica,sans-Serif" font-size="10.00">KFState()</text>
<text text-anchor="start" x="163" y="-535.5" font-family="Helvetica,sans-Serif" font-size="10.00">+</text>
<text text-anchor="start" x="176" y="-535.5" font-family="Helvetica,sans-Serif" font-size="10.00">operator=()</text>
<text text-anchor="start" x="163" y="-520.5" font-family="Helvetica,sans-Serif" font-size="10.00">+</text>
<text text-anchor="start" x="176" y="-520.5" font-family="Helvetica,sans-Serif" font-size="10.00">serialize()</text>
<text text-anchor="start" x="163" y="-505.5" font-family="Helvetica,sans-Serif" font-size="10.00">+</text>
<text text-anchor="start" x="176" y="-505.5" font-family="Helvetica,sans-Serif" font-size="10.00">initFilterEpoch()</text>
<text text-anchor="start" x="163" y="-490.5" font-family="Helvetica,sans-Serif" font-size="10.00">+</text>
<text text-anchor="start" x="176" y="-490.5" font-family="Helvetica,sans-Serif" font-size="10.00">getKFIndex()</text>
<text text-anchor="start" x="163" y="-475.5" font-family="Helvetica,sans-Serif" font-size="10.00">+</text>
<text text-anchor="start" x="176" y="-475.5" font-family="Helvetica,sans-Serif" font-size="10.00">getKFValue()</text>
<text text-anchor="start" x="163" y="-460.5" font-family="Helvetica,sans-Serif" font-size="10.00">+</text>
<text text-anchor="start" x="176" y="-460.5" font-family="Helvetica,sans-Serif" font-size="10.00">getPseudoValue()</text>
<text text-anchor="start" x="163" y="-445.5" font-family="Helvetica,sans-Serif" font-size="10.00">+</text>
<text text-anchor="start" x="176" y="-445.5" font-family="Helvetica,sans-Serif" font-size="10.00">getKFSigma()</text>
<text text-anchor="start" x="163" y="-430.5" font-family="Helvetica,sans-Serif" font-size="10.00">+</text>
<text text-anchor="start" x="176" y="-430.5" font-family="Helvetica,sans-Serif" font-size="10.00">addKFState()</text>
<text text-anchor="start" x="163" y="-415.5" font-family="Helvetica,sans-Serif" font-size="10.00">+</text>
<text text-anchor="start" x="176" y="-415.5" font-family="Helvetica,sans-Serif" font-size="10.00">addPseudoState()</text>
<text text-anchor="start" x="163" y="-400.5" font-family="Helvetica,sans-Serif" font-size="10.00">+</text>
<text text-anchor="start" x="176" y="-400.5" font-family="Helvetica,sans-Serif" font-size="10.00">setExponentialNoise()</text>
<text text-anchor="start" x="163" y="-385.5" font-family="Helvetica,sans-Serif" font-size="10.00">+</text>
<text text-anchor="start" x="176" y="-385.5" font-family="Helvetica,sans-Serif" font-size="10.00">setAccelerator()</text>
<text text-anchor="start" x="163" y="-370.5" font-family="Helvetica,sans-Serif" font-size="10.00">+</text>
<text text-anchor="start" x="176" y="-370.5" font-family="Helvetica,sans-Serif" font-size="10.00">setKFTrans()</text>
<text text-anchor="start" x="163" y="-355.5" font-family="Helvetica,sans-Serif" font-size="10.00">+</text>
<text text-anchor="start" x="176" y="-355.5" font-family="Helvetica,sans-Serif" font-size="10.00">setKFTransRate()</text>
<text text-anchor="start" x="163" y="-340.5" font-family="Helvetica,sans-Serif" font-size="10.00">+</text>
<text text-anchor="start" x="176" y="-340.5" font-family="Helvetica,sans-Serif" font-size="10.00">addNoiseElement()</text>
<text text-anchor="start" x="163" y="-325.5" font-family="Helvetica,sans-Serif" font-size="10.00">+</text>
<text text-anchor="start" x="176" y="-325.5" font-family="Helvetica,sans-Serif" font-size="10.00">removeState()</text>
<text text-anchor="start" x="163" y="-310.5" font-family="Helvetica,sans-Serif" font-size="10.00">+</text>
<text text-anchor="start" x="176" y="-310.5" font-family="Helvetica,sans-Serif" font-size="10.00">stateTransition()</text>
<text text-anchor="start" x="163" y="-295.5" font-family="Helvetica,sans-Serif" font-size="10.00">+</text>
<text text-anchor="start" x="176" y="-295.5" font-family="Helvetica,sans-Serif" font-size="10.00">manualStateTransition()</text>
<text text-anchor="start" x="163" y="-280.5" font-family="Helvetica,sans-Serif" font-size="10.00">+</text>
<text text-anchor="start" x="176" y="-280.5" font-family="Helvetica,sans-Serif" font-size="10.00">preFitSigmaCheck()</text>
<text text-anchor="start" x="163" y="-265.5" font-family="Helvetica,sans-Serif" font-size="10.00">+</text>
<text text-anchor="start" x="176" y="-265.5" font-family="Helvetica,sans-Serif" font-size="10.00">postFitSigmaChecks()</text>
<text text-anchor="start" x="163" y="-250.5" font-family="Helvetica,sans-Serif" font-size="10.00">+</text>
<text text-anchor="start" x="176" y="-250.5" font-family="Helvetica,sans-Serif" font-size="10.00">stateChiSquare()</text>
<text text-anchor="start" x="163" y="-235.5" font-family="Helvetica,sans-Serif" font-size="10.00">+</text>
<text text-anchor="start" x="176" y="-235.5" font-family="Helvetica,sans-Serif" font-size="10.00">measChiSquare()</text>
<text text-anchor="start" x="163" y="-220.5" font-family="Helvetica,sans-Serif" font-size="10.00">+</text>
<text text-anchor="start" x="176" y="-220.5" font-family="Helvetica,sans-Serif" font-size="10.00">innovChiSquare()</text>
<text text-anchor="start" x="163" y="-205.5" font-family="Helvetica,sans-Serif" font-size="10.00">+</text>
<text text-anchor="start" x="176" y="-205.5" font-family="Helvetica,sans-Serif" font-size="10.00">kFilter()</text>
<text text-anchor="start" x="163" y="-190.5" font-family="Helvetica,sans-Serif" font-size="10.00">+</text>
<text text-anchor="start" x="176" y="-190.5" font-family="Helvetica,sans-Serif" font-size="10.00">chiQC()</text>
<text text-anchor="start" x="163" y="-175.5" font-family="Helvetica,sans-Serif" font-size="10.00">+</text>
<text text-anchor="start" x="176" y="-175.5" font-family="Helvetica,sans-Serif" font-size="10.00">outputStates()</text>
<text text-anchor="start" x="163" y="-160.5" font-family="Helvetica,sans-Serif" font-size="10.00">+</text>
<text text-anchor="start" x="176" y="-160.5" font-family="Helvetica,sans-Serif" font-size="10.00">outputConditionNumber()</text>
<text text-anchor="start" x="163" y="-145.5" font-family="Helvetica,sans-Serif" font-size="10.00">+</text>
<text text-anchor="start" x="176" y="-145.5" font-family="Helvetica,sans-Serif" font-size="10.00">outputCorrelations()</text>
<text text-anchor="start" x="163" y="-130.5" font-family="Helvetica,sans-Serif" font-size="10.00">+</text>
<text text-anchor="start" x="176" y="-130.5" font-family="Helvetica,sans-Serif" font-size="10.00">outputMeasurements()</text>
<text text-anchor="start" x="163" y="-115.5" font-family="Helvetica,sans-Serif" font-size="10.00">+</text>
<text text-anchor="start" x="176" y="-115.5" font-family="Helvetica,sans-Serif" font-size="10.00">doStateRejectCallbacks()</text>
<text text-anchor="start" x="163" y="-100.5" font-family="Helvetica,sans-Serif" font-size="10.00">+</text>
<text text-anchor="start" x="176" y="-100.5" font-family="Helvetica,sans-Serif" font-size="10.00">doMeasRejectCallbacks()</text>
<text text-anchor="start" x="163" y="-85.5" font-family="Helvetica,sans-Serif" font-size="10.00">+</text>
<text text-anchor="start" x="176" y="-85.5" font-family="Helvetica,sans-Serif" font-size="10.00">filterKalman()</text>
<text text-anchor="start" x="163" y="-70.5" font-family="Helvetica,sans-Serif" font-size="10.00">+</text>
<text text-anchor="start" x="176" y="-70.5" font-family="Helvetica,sans-Serif" font-size="10.00">leastSquareInitStates()</text>
<text text-anchor="start" x="163" y="-55.5" font-family="Helvetica,sans-Serif" font-size="10.00">+</text>
<text text-anchor="start" x="176" y="-55.5" font-family="Helvetica,sans-Serif" font-size="10.00">getSubState()</text>
<text text-anchor="start" x="163" y="-40.5" font-family="Helvetica,sans-Serif" font-size="10.00">+</text>
<text text-anchor="start" x="176" y="-40.5" font-family="Helvetica,sans-Serif" font-size="10.00">getSubState()</text>
<text text-anchor="start" x="163" y="-25.5" font-family="Helvetica,sans-Serif" font-size="10.00">+</text>
<text text-anchor="start" x="176" y="-25.5" font-family="Helvetica,sans-Serif" font-size="10.00">getSubState()</text>
<text text-anchor="start" x="163" y="-10.5" font-family="Helvetica,sans-Serif" font-size="10.00">+</text>
<text text-anchor="start" x="176" y="-10.5" font-family="Helvetica,sans-Serif" font-size="10.00">decomposedStateKeys()</text>
<polygon fill="#666666" stroke="#666666" points="159,-605.5 159,-605.5 305,-605.5 305,-605.5 159,-605.5"/>
<polygon fill="#666666" stroke="#666666" points="159,-575.5 159,-575.5 174,-575.5 174,-575.5 159,-575.5"/>
<polygon fill="#666666" stroke="#666666" points="174,-575.5 174,-575.5 305,-575.5 305,-575.5 174,-575.5"/>
<polygon fill="none" stroke="#666666" points="159,-4 159,-623 305,-623 305,-4 159,-4"/>
</a>
</g>
</g>
<!-- Node4&#45;&gt;Node5 -->
<g id="edge4_Node000004_Node000005" class="edge">
<title>Node4&#45;&gt;Node5</title>
<g id="a_edge4_Node000004_Node000005"><a xlink:title=" ">
<path fill="none" stroke="#63b8ff" d="M232,-652.48C232,-644.05 232,-635.56 232,-627.07"/>
<polygon fill="none" stroke="#63b8ff" points="228.5,-652.75 232,-662.75 235.5,-652.75 228.5,-652.75"/>
</a>
</g>
</g>
</g>
</svg>
