<?xml version="1.0" encoding="UTF-8" standalone="no"?>
<!DOCTYPE svg PUBLIC "-//W3C//DTD SVG 1.1//EN"
 "http://www.w3.org/Graphics/SVG/1.1/DTD/svg11.dtd">
<!-- Generated by graphviz version 2.43.0 (0)
 -->
<!-- Title: SpaceWeather::read Pages: 1 -->
<svg width="294pt" height="27pt"
 viewBox="0.00 0.00 294.00 27.00" xmlns="http://www.w3.org/2000/svg" xmlns:xlink="http://www.w3.org/1999/xlink">
<g id="graph0" class="graph" transform="scale(1 1) rotate(0) translate(4 23)">
<title>SpaceWeather::read</title>
<!-- Node1 -->
<g id="Node000001" class="node">
<title>Node1</title>
<g id="a_Node000001"><a xlink:href="structSpaceWeather.html#a068f9af36b8f22118c80ba9c05be4b32" target="_top" xlink:title="Read Space Weather file into the data struct.">
<path fill="#fff0f0" stroke="red" stroke-width="2" d="M107.67,-19C107.67,-19 6.33,-19 6.33,-19 3.17,-19 0,-15.83 0,-12.67 0,-12.67 0,-6.33 0,-6.33 0,-3.17 3.17,0 6.33,0 6.33,0 107.67,0 107.67,0 110.83,0 114,-3.17 114,-6.33 114,-6.33 114,-12.67 114,-12.67 114,-15.83 110.83,-19 107.67,-19"/>
<text text-anchor="middle" x="57" y="-7" font-family="Helvetica,sans-Serif" font-size="10.00">SpaceWeather::read</text>
</a>
</g>
</g>
<!-- Node2 -->
<g id="Node000002" class="node">
<title>Node2</title>
<g id="a_Node000002"><a xlink:href="spaceWeather_8cpp.html#a5a986317e3af54016bb34dc643326e52" target="_top" xlink:title="Parser of each data line.">
<path fill="#fff0f0" stroke="red" d="M279.67,-19C279.67,-19 156.33,-19 156.33,-19 153.17,-19 150,-15.83 150,-12.67 150,-12.67 150,-6.33 150,-6.33 150,-3.17 153.17,0 156.33,0 156.33,0 279.67,0 279.67,0 282.83,0 286,-3.17 286,-6.33 286,-6.33 286,-12.67 286,-12.67 286,-15.83 282.83,-19 279.67,-19"/>
<text text-anchor="middle" x="218" y="-7" font-family="Helvetica,sans-Serif" font-size="10.00">ParseSpaceWeatherData</text>
</a>
</g>
</g>
<!-- Node1&#45;&gt;Node2 -->
<g id="edge1_Node000001_Node000002" class="edge">
<title>Node1&#45;&gt;Node2</title>
<g id="a_edge1_Node000001_Node000002"><a xlink:title=" ">
<path fill="none" stroke="#63b8ff" d="M114.06,-9.5C122.35,-9.5 131.01,-9.5 139.64,-9.5"/>
<polygon fill="#63b8ff" stroke="#63b8ff" points="139.73,-13 149.73,-9.5 139.73,-6 139.73,-13"/>
</a>
</g>
</g>
</g>
</svg>
