<?xml version="1.0" encoding="UTF-8" standalone="no"?>
<!DOCTYPE svg PUBLIC "-//W3C//DTD SVG 1.1//EN"
 "http://www.w3.org/Graphics/SVG/1.1/DTD/svg11.dtd">
<!-- Generated by graphviz version 2.43.0 (0)
 -->
<!-- Title: FileStream Pages: 1 -->
<svg width="180pt" height="353pt"
 viewBox="0.00 0.00 180.00 353.00" xmlns="http://www.w3.org/2000/svg" xmlns:xlink="http://www.w3.org/1999/xlink">
<g id="graph0" class="graph" transform="scale(1 1) rotate(0) translate(4 349)">
<title>FileStream</title>
<!-- Node1 -->
<g id="Node000001" class="node">
<title>Node1</title>
<g id="a_Node000001"><a xlink:href="structFileStream.html" target="_top" xlink:title=" ">
<path fill="white" stroke="#666666" stroke-width="2" d="M153,-102C153,-102 59,-102 59,-102 53,-102 47,-96 47,-90 47,-90 47,-12 47,-12 47,-6 53,0 59,0 59,0 153,0 153,0 159,0 165,-6 165,-12 165,-12 165,-90 165,-90 165,-96 159,-102 153,-102"/>
<text text-anchor="start" x="79.5" y="-86" font-family="Helvetica,sans-Serif" font-size="10.00">FileStream</text>
<text text-anchor="start" x="59" y="-71" font-family="Helvetica,sans-Serif" font-size="10.00">+</text>
<text text-anchor="start" x="72" y="-71" font-family="Helvetica,sans-Serif" font-size="10.00">filePos</text>
<text text-anchor="start" x="59" y="-56" font-family="Helvetica,sans-Serif" font-size="10.00">+</text>
<text text-anchor="start" x="72" y="-56" font-family="Helvetica,sans-Serif" font-size="10.00">FileStream()</text>
<text text-anchor="start" x="59" y="-41" font-family="Helvetica,sans-Serif" font-size="10.00">+</text>
<text text-anchor="start" x="72" y="-41" font-family="Helvetica,sans-Serif" font-size="10.00">getIStream_ptr()</text>
<text text-anchor="start" x="59" y="-26" font-family="Helvetica,sans-Serif" font-size="10.00">+</text>
<text text-anchor="start" x="72" y="-26" font-family="Helvetica,sans-Serif" font-size="10.00">isDead()</text>
<text text-anchor="start" x="59" y="-11" font-family="Helvetica,sans-Serif" font-size="10.00">+</text>
<text text-anchor="start" x="72" y="-11" font-family="Helvetica,sans-Serif" font-size="10.00">isAvailable()</text>
<polygon fill="#666666" stroke="#666666" points="55,-81 55,-81 157,-81 157,-81 55,-81"/>
<polygon fill="#666666" stroke="#666666" points="55,-66 55,-66 70,-66 70,-66 55,-66"/>
<polygon fill="#666666" stroke="#666666" points="70,-66 70,-66 157,-66 157,-66 70,-66"/>
<polygon fill="none" stroke="#666666" points="55,-4 55,-98 157,-98 157,-4 55,-4"/>
</a>
</g>
</g>
<!-- Node2 -->
<g id="Node000002" class="node">
<title>Node2</title>
<g id="a_Node000002"><a xlink:href="structStream.html" target="_top" xlink:title=" ">
<path fill="white" stroke="#666666" d="M106,-241C106,-241 12,-241 12,-241 6,-241 0,-235 0,-229 0,-229 0,-151 0,-151 0,-145 6,-139 12,-139 12,-139 106,-139 106,-139 112,-139 118,-145 118,-151 118,-151 118,-229 118,-229 118,-235 112,-241 106,-241"/>
<text text-anchor="start" x="41" y="-225" font-family="Helvetica,sans-Serif" font-size="10.00">Stream</text>
<text text-anchor="start" x="57" y="-210" font-family="Helvetica,sans-Serif" font-size="10.00"> </text>
<text text-anchor="start" x="12" y="-195" font-family="Helvetica,sans-Serif" font-size="10.00">+</text>
<text text-anchor="start" x="25" y="-195" font-family="Helvetica,sans-Serif" font-size="10.00">getIStream_ptr()</text>
<text text-anchor="start" x="12" y="-180" font-family="Helvetica,sans-Serif" font-size="10.00">+</text>
<text text-anchor="start" x="25" y="-180" font-family="Helvetica,sans-Serif" font-size="10.00">isDead()</text>
<text text-anchor="start" x="12" y="-165" font-family="Helvetica,sans-Serif" font-size="10.00">+</text>
<text text-anchor="start" x="25" y="-165" font-family="Helvetica,sans-Serif" font-size="10.00">isAvailable()</text>
<text text-anchor="start" x="12" y="-150" font-family="Helvetica,sans-Serif" font-size="10.00">+</text>
<text text-anchor="start" x="25" y="-150" font-family="Helvetica,sans-Serif" font-size="10.00">~Stream()</text>
<polygon fill="#666666" stroke="#666666" points="8,-220 8,-220 110,-220 110,-220 8,-220"/>
<polygon fill="#666666" stroke="#666666" points="8,-205 8,-205 110,-205 110,-205 8,-205"/>
<polygon fill="none" stroke="#666666" points="8,-143 8,-237 110,-237 110,-143 8,-143"/>
</a>
</g>
</g>
<!-- Node2&#45;&gt;Node1 -->
<g id="edge1_Node000001_Node000002" class="edge">
<title>Node2&#45;&gt;Node1</title>
<g id="a_edge1_Node000001_Node000002"><a xlink:title=" ">
<path fill="none" stroke="#63b8ff" d="M79.54,-129.13C82.62,-120.16 85.77,-110.98 88.77,-102.23"/>
<polygon fill="none" stroke="#63b8ff" points="76.17,-128.17 76.23,-138.76 82.79,-130.44 76.17,-128.17"/>
</a>
</g>
</g>
<!-- Node3 -->
<g id="Node000003" class="node">
<title>Node3</title>
<g id="a_Node000003"><a xlink:title=" ">
<path fill="white" stroke="#666666" d="M122,-345C122,-345 92,-345 92,-345 86,-345 80,-339 80,-333 80,-333 80,-300 80,-300 80,-294 86,-288 92,-288 92,-288 122,-288 122,-288 128,-288 134,-294 134,-300 134,-300 134,-333 134,-333 134,-339 128,-345 122,-345"/>
<text text-anchor="start" x="93" y="-328.5" font-family="Helvetica,sans-Serif" font-size="10.00">string</text>
<text text-anchor="start" x="105" y="-313.5" font-family="Helvetica,sans-Serif" font-size="10.00"> </text>
<text text-anchor="start" x="105" y="-298.5" font-family="Helvetica,sans-Serif" font-size="10.00"> </text>
<polygon fill="#666666" stroke="#666666" points="88,-323.5 88,-323.5 126,-323.5 126,-323.5 88,-323.5"/>
<polygon fill="#666666" stroke="#666666" points="88,-308.5 88,-308.5 126,-308.5 126,-308.5 88,-308.5"/>
<polygon fill="none" stroke="#666666" points="88,-292 88,-341 126,-341 126,-292 88,-292"/>
</a>
</g>
</g>
<!-- Node3&#45;&gt;Node1 -->
<g id="edge3_Node000001_Node000003" class="edge">
<title>Node3&#45;&gt;Node1</title>
<g id="a_edge3_Node000001_Node000003"><a xlink:title=" ">
<path fill="none" stroke="#63b8ff" d="M131.1,-287.89C134.76,-282.3 137.98,-276.22 140,-270 141.51,-265.35 140.26,-263.88 140,-259 137.11,-205.43 136.2,-191.85 127,-139 125.6,-130.98 123.9,-122.59 122.07,-114.33"/>
<polygon fill="none" stroke="#63b8ff" points="122.01,-114.07 116.77,-109.12 119.32,-102.37 124.57,-107.33 122.01,-114.07"/>
</a>
</g>
<text text-anchor="middle" x="155" y="-187.5" font-family="Helvetica,sans-Serif" font-size="10.00" fill="grey"> +path</text>
</g>
<!-- Node3&#45;&gt;Node2 -->
<g id="edge2_Node000002_Node000003" class="edge">
<title>Node3&#45;&gt;Node2</title>
<g id="a_edge2_Node000002_Node000003"><a xlink:title=" ">
<path fill="none" stroke="#63b8ff" d="M79.81,-290.03C74.76,-283.95 70.11,-277.13 67,-270 64.68,-264.67 62.9,-258.96 61.56,-253.13"/>
<polygon fill="none" stroke="#63b8ff" points="61.52,-252.89 56.51,-247.7 59.37,-241.08 64.38,-246.27 61.52,-252.89"/>
</a>
</g>
<text text-anchor="middle" x="103.5" y="-262" font-family="Helvetica,sans-Serif" font-size="10.00" fill="grey"> +sourceString</text>
</g>
</g>
</svg>
