<?xml version="1.0" encoding="UTF-8" standalone="no"?>
<!DOCTYPE svg PUBLIC "-//W3C//DTD SVG 1.1//EN"
 "http://www.w3.org/Graphics/SVG/1.1/DTD/svg11.dtd">
<!-- Generated by graphviz version 2.43.0 (0)
 -->
<!-- Title: GTime::floorTime Pages: 1 -->
<svg width="511pt" height="244pt"
 viewBox="0.00 0.00 511.00 244.00" xmlns="http://www.w3.org/2000/svg" xmlns:xlink="http://www.w3.org/1999/xlink">
<g id="graph0" class="graph" transform="scale(1 1) rotate(0) translate(4 240)">
<title>GTime::floorTime</title>
<!-- Node1 -->
<g id="Node000001" class="node">
<title>Node1</title>
<g id="a_Node000001"><a xlink:href="structGTime.html#a72505f23b2252f690f124c2eaf026f91" target="_top" xlink:title=" ">
<path fill="#fff0f0" stroke="red" stroke-width="2" d="M496.67,-130C496.67,-130 408.33,-130 408.33,-130 405.17,-130 402,-126.83 402,-123.67 402,-123.67 402,-117.33 402,-117.33 402,-114.17 405.17,-111 408.33,-111 408.33,-111 496.67,-111 496.67,-111 499.83,-111 503,-114.17 503,-117.33 503,-117.33 503,-123.67 503,-123.67 503,-126.83 499.83,-130 496.67,-130"/>
<text text-anchor="middle" x="452.5" y="-118" font-family="Helvetica,sans-Serif" font-size="10.00">GTime::floorTime</text>
</a>
</g>
</g>
<!-- Node2 -->
<g id="Node000002" class="node">
<title>Node2</title>
<g id="a_Node000002"><a xlink:href="gTime_8cpp.html#abd3e80e328e3d4afed1001aa34ca9d16" target="_top" xlink:title="Returns (posix) for current epoch.">
<path fill="#fff0f0" stroke="red" d="M320.17,-236C320.17,-236 235.83,-236 235.83,-236 232.67,-236 229.5,-232.83 229.5,-229.67 229.5,-229.67 229.5,-223.33 229.5,-223.33 229.5,-220.17 232.67,-217 235.83,-217 235.83,-217 320.17,-217 320.17,-217 323.33,-217 326.5,-220.17 326.5,-223.33 326.5,-223.33 326.5,-229.67 326.5,-229.67 326.5,-232.83 323.33,-236 320.17,-236"/>
<text text-anchor="middle" x="278" y="-224" font-family="Helvetica,sans-Serif" font-size="10.00">currentLogptime</text>
</a>
</g>
</g>
<!-- Node1&#45;&gt;Node2 -->
<g id="edge1_Node000001_Node000002" class="edge">
<title>Node1&#45;&gt;Node2</title>
<g id="a_edge1_Node000001_Node000002"><a xlink:title=" ">
<path fill="none" stroke="#63b8ff" d="M439.09,-138.67C424.19,-159.01 397.25,-191.35 366,-208.5 354.1,-215.03 340.1,-219.2 326.85,-221.86"/>
<polygon fill="#63b8ff" stroke="#63b8ff" points="442.12,-140.45 445.06,-130.27 436.42,-136.39 442.12,-140.45"/>
</a>
</g>
</g>
<!-- Node5 -->
<g id="Node000005" class="node">
<title>Node5</title>
<g id="a_Node000005"><a xlink:href="main_8cpp.html#a3c04138a5bfe5d72780bb7e82a18e627" target="_top" xlink:title=" ">
<path fill="#fff0f0" stroke="red" d="M91.17,-198C91.17,-198 62.83,-198 62.83,-198 59.67,-198 56.5,-194.83 56.5,-191.67 56.5,-191.67 56.5,-185.33 56.5,-185.33 56.5,-182.17 59.67,-179 62.83,-179 62.83,-179 91.17,-179 91.17,-179 94.33,-179 97.5,-182.17 97.5,-185.33 97.5,-185.33 97.5,-191.67 97.5,-191.67 97.5,-194.83 94.33,-198 91.17,-198"/>
<text text-anchor="middle" x="77" y="-186" font-family="Helvetica,sans-Serif" font-size="10.00">main</text>
</a>
</g>
</g>
<!-- Node1&#45;&gt;Node5 -->
<g id="edge4_Node000001_Node000005" class="edge">
<title>Node1&#45;&gt;Node5</title>
<g id="a_edge4_Node000001_Node000005"><a xlink:title=" ">
<path fill="none" stroke="#63b8ff" d="M392.04,-131.33C306.18,-146.96 151.84,-175.06 97.54,-184.94"/>
<polygon fill="#63b8ff" stroke="#63b8ff" points="392.69,-134.76 401.9,-129.53 391.44,-127.88 392.69,-134.76"/>
</a>
</g>
</g>
<!-- Node8 -->
<g id="Node000008" class="node">
<title>Node8</title>
<g id="a_Node000008"><a xlink:href="rinexClkWrite_8cpp.html#a87a652e05ec91c35c1e56c0650176dfa" target="_top" xlink:title=" ">
<path fill="#fff0f0" stroke="red" d="M338.17,-199C338.17,-199 217.83,-199 217.83,-199 214.67,-199 211.5,-195.83 211.5,-192.67 211.5,-192.67 211.5,-186.33 211.5,-186.33 211.5,-183.17 214.67,-180 217.83,-180 217.83,-180 338.17,-180 338.17,-180 341.33,-180 344.5,-183.17 344.5,-186.33 344.5,-186.33 344.5,-192.67 344.5,-192.67 344.5,-195.83 341.33,-199 338.17,-199"/>
<text text-anchor="middle" x="278" y="-187" font-family="Helvetica,sans-Serif" font-size="10.00">getSysOutputFilenames</text>
</a>
</g>
</g>
<!-- Node1&#45;&gt;Node8 -->
<g id="edge3_Node000001_Node000008" class="edge">
<title>Node1&#45;&gt;Node8</title>
<g id="a_edge3_Node000001_Node000008"><a xlink:title=" ">
<path fill="none" stroke="#63b8ff" d="M426.83,-135.31C410.1,-144.88 387.25,-157.09 366,-165.5 351.58,-171.21 335.3,-176.09 320.76,-179.93"/>
<polygon fill="#63b8ff" stroke="#63b8ff" points="429.03,-138.07 435.91,-130.02 425.51,-132.02 429.03,-138.07"/>
</a>
</g>
</g>
<!-- Node17 -->
<g id="Node000017" class="node">
<title>Node17</title>
<g id="a_Node000017"><a xlink:href="structNtripUploader.html#aed62670c2d0d02f1bb0d930f42e68609" target="_top" xlink:title=" ">
<path fill="#fff0f0" stroke="red" d="M356,-105.5C356,-105.5 200,-105.5 200,-105.5 195,-105.5 190,-100.5 190,-95.5 190,-95.5 190,-85.5 190,-85.5 190,-80.5 195,-75.5 200,-75.5 200,-75.5 356,-75.5 356,-75.5 361,-75.5 366,-80.5 366,-85.5 366,-85.5 366,-95.5 366,-95.5 366,-100.5 361,-105.5 356,-105.5"/>
<text text-anchor="start" x="198" y="-93.5" font-family="Helvetica,sans-Serif" font-size="10.00">NtripUploader::messageTimeout</text>
<text text-anchor="middle" x="278" y="-82.5" font-family="Helvetica,sans-Serif" font-size="10.00">Handler</text>
</a>
</g>
</g>
<!-- Node1&#45;&gt;Node17 -->
<g id="edge5_Node000001_Node000017" class="edge">
<title>Node1&#45;&gt;Node17</title>
<g id="a_edge5_Node000001_Node000017"><a xlink:title=" ">
<path fill="none" stroke="#63b8ff" d="M391.54,-110.07C383.11,-108.61 374.31,-107.08 365.51,-105.55"/>
<polygon fill="#63b8ff" stroke="#63b8ff" points="391.15,-113.56 401.61,-111.82 392.35,-106.66 391.15,-113.56"/>
</a>
</g>
</g>
<!-- Node10 -->
<g id="Node000010" class="node">
<title>Node10</title>
<g id="a_Node000010"><a xlink:href="outputs_8cpp.html#abf277b1afcff7cb07fa2857b4a373100" target="_top" xlink:title=" ">
<path fill="#fff0f0" stroke="red" d="M144,-43.5C144,-43.5 10,-43.5 10,-43.5 5,-43.5 0,-38.5 0,-33.5 0,-33.5 0,-23.5 0,-23.5 0,-18.5 5,-13.5 10,-13.5 10,-13.5 144,-13.5 144,-13.5 149,-13.5 154,-18.5 154,-23.5 154,-23.5 154,-33.5 154,-33.5 154,-38.5 149,-43.5 144,-43.5"/>
<text text-anchor="start" x="8" y="-31.5" font-family="Helvetica,sans-Serif" font-size="10.00">perEpochPostProcessingAnd</text>
<text text-anchor="middle" x="77" y="-20.5" font-family="Helvetica,sans-Serif" font-size="10.00">Outputs</text>
</a>
</g>
</g>
<!-- Node1&#45;&gt;Node10 -->
<g id="edge7_Node000001_Node000010" class="edge">
<title>Node1&#45;&gt;Node10</title>
<g id="a_edge7_Node000001_Node000010"><a xlink:title=" ">
<path fill="none" stroke="#63b8ff" d="M431.62,-104.41C415.08,-91.93 390.38,-75.32 366,-66.5 297,-41.53 213.4,-32.67 154.09,-29.67"/>
<polygon fill="#63b8ff" stroke="#63b8ff" points="429.87,-107.48 439.91,-110.84 434.16,-101.95 429.87,-107.48"/>
</a>
</g>
</g>
<!-- Node20 -->
<g id="Node000020" class="node">
<title>Node20</title>
<g id="a_Node000020"><a xlink:href="biasSINEXwrite_8cpp.html#a11492c5686f21e9275281d7ca38cd530" target="_top" xlink:title="Write stored bias output to SINEX file Return number of written biases (&#45;1 if file not found)">
<path fill="#fff0f0" stroke="red" d="M316.17,-19C316.17,-19 239.83,-19 239.83,-19 236.67,-19 233.5,-15.83 233.5,-12.67 233.5,-12.67 233.5,-6.33 233.5,-6.33 233.5,-3.17 236.67,0 239.83,0 239.83,0 316.17,0 316.17,0 319.33,0 322.5,-3.17 322.5,-6.33 322.5,-6.33 322.5,-12.67 322.5,-12.67 322.5,-15.83 319.33,-19 316.17,-19"/>
<text text-anchor="middle" x="278" y="-7" font-family="Helvetica,sans-Serif" font-size="10.00">writeBiasSinex</text>
</a>
</g>
</g>
<!-- Node1&#45;&gt;Node20 -->
<g id="edge8_Node000001_Node000020" class="edge">
<title>Node1&#45;&gt;Node20</title>
<g id="a_edge8_Node000001_Node000020"><a xlink:title=" ">
<path fill="none" stroke="#63b8ff" d="M438.6,-102.59C423.42,-82.8 396.39,-51.37 366,-33.5 352.9,-25.8 337.24,-20.48 322.83,-16.86"/>
<polygon fill="#63b8ff" stroke="#63b8ff" points="435.92,-104.85 444.71,-110.77 441.53,-100.66 435.92,-104.85"/>
</a>
</g>
</g>
<!-- Node2&#45;&gt;Node5 -->
<g id="edge2_Node000002_Node000005" class="edge">
<title>Node2&#45;&gt;Node5</title>
<g id="a_edge2_Node000002_Node000005"><a xlink:title=" ">
<path fill="none" stroke="#63b8ff" d="M219.44,-215.51C178.39,-207.67 125.69,-197.61 97.63,-192.25"/>
<polygon fill="#63b8ff" stroke="#63b8ff" points="218.86,-218.96 229.33,-217.4 220.17,-212.08 218.86,-218.96"/>
</a>
</g>
</g>
<!-- Node17&#45;&gt;Node17 -->
<g id="edge6_Node000017_Node000017" class="edge">
<title>Node17&#45;&gt;Node17</title>
<g id="a_edge6_Node000017_Node000017"><a xlink:title=" ">
<path fill="none" stroke="#63b8ff" d="M308.46,-116.1C304.29,-120.47 294.14,-123.5 278,-123.5 250.81,-123.5 240.62,-114.91 247.41,-105.78"/>
<polygon fill="#63b8ff" stroke="#63b8ff" points="311.96,-115.82 308.59,-105.78 304.96,-115.73 311.96,-115.82"/>
</a>
</g>
</g>
<!-- Node20&#45;&gt;Node10 -->
<g id="edge9_Node000020_Node000010" class="edge">
<title>Node20&#45;&gt;Node10</title>
<g id="a_edge9_Node000020_Node000010"><a xlink:title=" ">
<path fill="none" stroke="#63b8ff" d="M223.2,-14.64C201.93,-16.67 177.11,-19.04 154.06,-21.24"/>
<polygon fill="#63b8ff" stroke="#63b8ff" points="223.71,-18.1 233.33,-13.67 223.04,-11.14 223.71,-18.1"/>
</a>
</g>
</g>
</g>
</svg>
