<?xml version="1.0" encoding="UTF-8" standalone="no"?>
<!DOCTYPE svg PUBLIC "-//W3C//DTD SVG 1.1//EN"
 "http://www.w3.org/Graphics/SVG/1.1/DTD/svg11.dtd">
<!-- Generated by graphviz version 2.43.0 (0)
 -->
<!-- Title: KFState::getPseudoValue Pages: 1 -->
<svg width="298pt" height="45pt"
 viewBox="0.00 0.00 298.00 45.00" xmlns="http://www.w3.org/2000/svg" xmlns:xlink="http://www.w3.org/1999/xlink">
<g id="graph0" class="graph" transform="scale(1 1) rotate(0) translate(4 41)">
<title>KFState::getPseudoValue</title>
<!-- Node1 -->
<g id="Node000001" class="node">
<title>Node1</title>
<g id="a_Node000001"><a xlink:href="structKFState.html#ae70734a65d2e98dd739040e671757437" target="_top" xlink:title="Retrieve values from pseudo&#45;states.">
<path fill="#fff0f0" stroke="red" stroke-width="2" d="M131.67,-19C131.67,-19 6.33,-19 6.33,-19 3.17,-19 0,-15.83 0,-12.67 0,-12.67 0,-6.33 0,-6.33 0,-3.17 3.17,0 6.33,0 6.33,0 131.67,0 131.67,0 134.83,0 138,-3.17 138,-6.33 138,-6.33 138,-12.67 138,-12.67 138,-15.83 134.83,-19 131.67,-19"/>
<text text-anchor="middle" x="69" y="-7" font-family="Helvetica,sans-Serif" font-size="10.00">KFState::getPseudoValue</text>
</a>
</g>
</g>
<!-- Node2 -->
<g id="Node000002" class="node">
<title>Node2</title>
<g id="a_Node000002"><a xlink:href="structKFState.html#aeca6e3874ad0c94607152d244016582f" target="_top" xlink:title="Returns the value and variance of a state within the kalman filter object.">
<path fill="#fff0f0" stroke="red" d="M283.67,-19C283.67,-19 180.33,-19 180.33,-19 177.17,-19 174,-15.83 174,-12.67 174,-12.67 174,-6.33 174,-6.33 174,-3.17 177.17,0 180.33,0 180.33,0 283.67,0 283.67,0 286.83,0 290,-3.17 290,-6.33 290,-6.33 290,-12.67 290,-12.67 290,-15.83 286.83,-19 283.67,-19"/>
<text text-anchor="middle" x="232" y="-7" font-family="Helvetica,sans-Serif" font-size="10.00">KFState::getKFValue</text>
</a>
</g>
</g>
<!-- Node1&#45;&gt;Node2 -->
<g id="edge1_Node000001_Node000002" class="edge">
<title>Node1&#45;&gt;Node2</title>
<g id="a_edge1_Node000001_Node000002"><a xlink:title=" ">
<path fill="none" stroke="#63b8ff" d="M138.28,-2.82C146.69,-2.72 155.28,-2.73 163.67,-2.83"/>
<polygon fill="#63b8ff" stroke="#63b8ff" points="163.73,-6.33 173.79,-3.01 163.85,0.67 163.73,-6.33"/>
</a>
</g>
</g>
<!-- Node2&#45;&gt;Node1 -->
<g id="edge2_Node000002_Node000001" class="edge">
<title>Node2&#45;&gt;Node1</title>
<g id="a_edge2_Node000002_Node000001"><a xlink:title=" ">
<path fill="none" stroke="#63b8ff" d="M173.79,-15.99C165.53,-16.18 156.91,-16.27 148.32,-16.25"/>
<polygon fill="#63b8ff" stroke="#63b8ff" points="148.3,-12.75 138.28,-16.18 148.25,-19.75 148.3,-12.75"/>
</a>
</g>
</g>
<!-- Node2&#45;&gt;Node2 -->
<g id="edge3_Node000002_Node000002" class="edge">
<title>Node2&#45;&gt;Node2</title>
<g id="a_edge3_Node000002_Node000002"><a xlink:title=" ">
<path fill="none" stroke="#63b8ff" d="M207.03,-19.08C194.88,-27.73 203.21,-37 232,-37 250.9,-37 260.98,-33.01 262.24,-27.82"/>
<polygon fill="#63b8ff" stroke="#63b8ff" points="265.13,-25.84 256.97,-19.08 259.14,-29.45 265.13,-25.84"/>
</a>
</g>
</g>
</g>
</svg>
