<?xml version="1.0" encoding="UTF-8" standalone="no"?>
<!DOCTYPE svg PUBLIC "-//W3C//DTD SVG 1.1//EN"
 "http://www.w3.org/Graphics/SVG/1.1/DTD/svg11.dtd">
<!-- Generated by graphviz version 2.43.0 (0)
 -->
<!-- Title: createNewTraceFile Pages: 1 -->
<svg width="392pt" height="125pt"
 viewBox="0.00 0.00 392.00 124.89" xmlns="http://www.w3.org/2000/svg" xmlns:xlink="http://www.w3.org/1999/xlink">
<g id="graph0" class="graph" transform="scale(1 1) rotate(0) translate(4 120.89)">
<title>createNewTraceFile</title>
<!-- Node1 -->
<g id="Node000001" class="node">
<title>Node1</title>
<g id="a_Node000001"><a xlink:href="trace_8cpp.html#a4d8fcbcf5c1eb96baff3deeeaf1cc8ab" target="_top" xlink:title=" ">
<path fill="#fff0f0" stroke="red" stroke-width="2" d="M105.67,-93C105.67,-93 6.33,-93 6.33,-93 3.17,-93 0,-89.83 0,-86.67 0,-86.67 0,-80.33 0,-80.33 0,-77.17 3.17,-74 6.33,-74 6.33,-74 105.67,-74 105.67,-74 108.83,-74 112,-77.17 112,-80.33 112,-80.33 112,-86.67 112,-86.67 112,-89.83 108.83,-93 105.67,-93"/>
<text text-anchor="middle" x="56" y="-81" font-family="Helvetica,sans-Serif" font-size="10.00">createNewTraceFile</text>
</a>
</g>
</g>
<!-- Node2 -->
<g id="Node000002" class="node">
<title>Node2</title>
<g id="a_Node000002"><a xlink:href="acsConfig_8cpp.html#a611c3086ccdeb877c19a6b1d603227a4" target="_top" xlink:title="search for and replace section of string">
<path fill="#fff0f0" stroke="red" d="M377.67,-116C377.67,-116 309.33,-116 309.33,-116 306.17,-116 303,-112.83 303,-109.67 303,-109.67 303,-103.33 303,-103.33 303,-100.17 306.17,-97 309.33,-97 309.33,-97 377.67,-97 377.67,-97 380.83,-97 384,-100.17 384,-103.33 384,-103.33 384,-109.67 384,-109.67 384,-112.83 380.83,-116 377.67,-116"/>
<text text-anchor="middle" x="343.5" y="-104" font-family="Helvetica,sans-Serif" font-size="10.00">replaceString</text>
</a>
</g>
</g>
<!-- Node1&#45;&gt;Node2 -->
<g id="edge1_Node000001_Node000002" class="edge">
<title>Node1&#45;&gt;Node2</title>
<g id="a_edge1_Node000001_Node000002"><a xlink:title=" ">
<path fill="none" stroke="#63b8ff" d="M112.08,-87.91C123.86,-90.05 136.29,-92.17 148,-93.5 196.98,-99.07 253.33,-99.59 292.73,-100.67"/>
<polygon fill="#63b8ff" stroke="#63b8ff" points="292.77,-104.18 302.87,-100.98 292.98,-97.18 292.77,-104.18"/>
</a>
</g>
</g>
<!-- Node1&#45;&gt;Node2 -->
<g id="edge2_Node000001_Node000002" class="edge">
<title>Node1&#45;&gt;Node2</title>
<g id="a_edge2_Node000001_Node000002"><a xlink:title=" ">
<path fill="none" stroke="#63b8ff" d="M69.84,-93.04C87.35,-100.51 119.78,-108.29 148,-111.5 196.98,-117.07 253.33,-117.59 292.73,-115.34"/>
<polygon fill="#63b8ff" stroke="#63b8ff" points="293.12,-118.82 302.87,-114.67 292.66,-111.83 293.12,-118.82"/>
</a>
</g>
</g>
<!-- Node3 -->
<g id="Node000003" class="node">
<title>Node3</title>
<g id="a_Node000003"><a xlink:href="outputs_8cpp.html#a1cf8846f3d7514f4c5d086213aad7949" target="_top" xlink:title="Replace macros for times with numeric values.">
<path fill="#fff0f0" stroke="red" d="M242.67,-93C242.67,-93 172.33,-93 172.33,-93 169.17,-93 166,-89.83 166,-86.67 166,-86.67 166,-80.33 166,-80.33 166,-77.17 169.17,-74 172.33,-74 172.33,-74 242.67,-74 242.67,-74 245.83,-74 249,-77.17 249,-80.33 249,-80.33 249,-86.67 249,-86.67 249,-89.83 245.83,-93 242.67,-93"/>
<text text-anchor="middle" x="207.5" y="-81" font-family="Helvetica,sans-Serif" font-size="10.00">replaceTimes</text>
</a>
</g>
</g>
<!-- Node1&#45;&gt;Node3 -->
<g id="edge3_Node000001_Node000003" class="edge">
<title>Node1&#45;&gt;Node3</title>
<g id="a_edge3_Node000001_Node000003"><a xlink:title=" ">
<path fill="none" stroke="#63b8ff" d="M112.24,-83.5C126.43,-83.5 141.62,-83.5 155.57,-83.5"/>
<polygon fill="#63b8ff" stroke="#63b8ff" points="155.97,-87 165.97,-83.5 155.97,-80 155.97,-87"/>
</a>
</g>
</g>
<!-- Node4 -->
<g id="Node000004" class="node">
<title>Node4</title>
<g id="a_Node000004"><a xlink:href="peaCommitStrings_8cpp.html#a7b85d404d14d148d2aee13c900420a07" target="_top" xlink:title=" ">
<path fill="#fff0f0" stroke="red" d="M260.67,-56C260.67,-56 154.33,-56 154.33,-56 151.17,-56 148,-52.83 148,-49.67 148,-49.67 148,-43.33 148,-43.33 148,-40.17 151.17,-37 154.33,-37 154.33,-37 260.67,-37 260.67,-37 263.83,-37 267,-40.17 267,-43.33 267,-43.33 267,-49.67 267,-49.67 267,-52.83 263.83,-56 260.67,-56"/>
<text text-anchor="middle" x="207.5" y="-44" font-family="Helvetica,sans-Serif" font-size="10.00">ginanCommitVersion</text>
</a>
</g>
</g>
<!-- Node1&#45;&gt;Node4 -->
<g id="edge6_Node000001_Node000004" class="edge">
<title>Node1&#45;&gt;Node4</title>
<g id="a_edge6_Node000001_Node000004"><a xlink:title=" ">
<path fill="none" stroke="#63b8ff" d="M95.5,-73.97C114.52,-69.26 137.67,-63.53 157.9,-58.53"/>
<polygon fill="#63b8ff" stroke="#63b8ff" points="159,-61.86 167.87,-56.06 157.32,-55.07 159,-61.86"/>
</a>
</g>
</g>
<!-- Node5 -->
<g id="Node000005" class="node">
<title>Node5</title>
<g id="a_Node000005"><a xlink:href="acsConfig_8cpp.html#a5566b10148341d277d15949c7669cfd5" target="_top" xlink:title=" ">
<path fill="#fff0f0" stroke="red" d="M238.67,-19C238.67,-19 176.33,-19 176.33,-19 173.17,-19 170,-15.83 170,-12.67 170,-12.67 170,-6.33 170,-6.33 170,-3.17 173.17,0 176.33,0 176.33,0 238.67,0 238.67,0 241.83,0 245,-3.17 245,-6.33 245,-6.33 245,-12.67 245,-12.67 245,-15.83 241.83,-19 238.67,-19"/>
<text text-anchor="middle" x="207.5" y="-7" font-family="Helvetica,sans-Serif" font-size="10.00">dumpConfig</text>
</a>
</g>
</g>
<!-- Node1&#45;&gt;Node5 -->
<g id="edge7_Node000001_Node000005" class="edge">
<title>Node1&#45;&gt;Node5</title>
<g id="a_edge7_Node000001_Node000005"><a xlink:title=" ">
<path fill="none" stroke="#63b8ff" d="M70.64,-73.89C87.97,-61.99 119.12,-41.7 148,-28.5 152.73,-26.34 157.79,-24.31 162.87,-22.44"/>
<polygon fill="#63b8ff" stroke="#63b8ff" points="164.29,-25.65 172.58,-19.06 161.99,-19.04 164.29,-25.65"/>
</a>
</g>
</g>
<!-- Node3&#45;&gt;Node2 -->
<g id="edge4_Node000003_Node000002" class="edge">
<title>Node3&#45;&gt;Node2</title>
<g id="a_edge4_Node000003_Node000002"><a xlink:title=" ">
<path fill="none" stroke="#63b8ff" d="M249.07,-84.2C267.96,-86.71 290.19,-90.62 308.22,-94.64"/>
<polygon fill="#63b8ff" stroke="#63b8ff" points="307.5,-98.06 318.03,-96.94 309.1,-91.25 307.5,-98.06"/>
</a>
</g>
</g>
<!-- Node3&#45;&gt;Node2 -->
<g id="edge5_Node000003_Node000002" class="edge">
<title>Node3&#45;&gt;Node2</title>
<g id="a_edge5_Node000003_Node000002"><a xlink:title=" ">
<path fill="none" stroke="#63b8ff" d="M232.77,-93.01C249.48,-97.17 272.27,-101.49 292.76,-104.51"/>
<polygon fill="#63b8ff" stroke="#63b8ff" points="292.52,-108.01 302.91,-105.92 293.49,-101.08 292.52,-108.01"/>
</a>
</g>
</g>
</g>
</svg>
