<?xml version="1.0" encoding="UTF-8" standalone="no"?>
<!DOCTYPE svg PUBLIC "-//W3C//DTD SVG 1.1//EN"
 "http://www.w3.org/Graphics/SVG/1.1/DTD/svg11.dtd">
<!-- Generated by graphviz version 2.43.0 (0)
 -->
<!-- Title: ecef2pos Pages: 1 -->
<svg width="364pt" height="894pt"
 viewBox="0.00 0.00 364.00 894.00" xmlns="http://www.w3.org/2000/svg" xmlns:xlink="http://www.w3.org/1999/xlink">
<g id="graph0" class="graph" transform="scale(1 1) rotate(0) translate(4 890)">
<title>ecef2pos</title>
<!-- Node1 -->
<g id="Node000001" class="node">
<title>Node1</title>
<g id="a_Node000001"><a xlink:href="utils_8cpp.html#ae91d83cf693cdc7e1efacbe4d8d9656e" target="_top" xlink:title=" ">
<path fill="#fff0f0" stroke="red" stroke-width="2" d="M349.67,-444C349.67,-444 301.33,-444 301.33,-444 298.17,-444 295,-440.83 295,-437.67 295,-437.67 295,-431.33 295,-431.33 295,-428.17 298.17,-425 301.33,-425 301.33,-425 349.67,-425 349.67,-425 352.83,-425 356,-428.17 356,-431.33 356,-431.33 356,-437.67 356,-437.67 356,-440.83 352.83,-444 349.67,-444"/>
<text text-anchor="middle" x="325.5" y="-432" font-family="Helvetica,sans-Serif" font-size="10.00">ecef2pos</text>
</a>
</g>
</g>
<!-- Node2 -->
<g id="Node000002" class="node">
<title>Node2</title>
<g id="a_Node000002"><a xlink:href="attitude_8cpp.html#a7024eb226a006702c72fe4a963ae8b19" target="_top" xlink:title="Nominal receiver attitude &#45; unit vectors of receiver&#45;fixed coordinates (ECEF) Orientation of receiver...">
<path fill="#fff0f0" stroke="red" d="M233.67,-886C233.67,-886 147.33,-886 147.33,-886 144.17,-886 141,-882.83 141,-879.67 141,-879.67 141,-873.33 141,-873.33 141,-870.17 144.17,-867 147.33,-867 147.33,-867 233.67,-867 233.67,-867 236.83,-867 240,-870.17 240,-873.33 240,-873.33 240,-879.67 240,-879.67 240,-882.83 236.83,-886 233.67,-886"/>
<text text-anchor="middle" x="190.5" y="-874" font-family="Helvetica,sans-Serif" font-size="10.00">basicRecAttitude</text>
</a>
</g>
</g>
<!-- Node1&#45;&gt;Node2 -->
<g id="edge1_Node000001_Node000002" class="edge">
<title>Node1&#45;&gt;Node2</title>
<g id="a_edge1_Node000001_Node000002"><a xlink:title=" ">
<path fill="none" stroke="#63b8ff" d="M324.18,-454.38C322.55,-529.74 313.02,-796.53 259,-857.5 253.91,-863.24 247.24,-867.31 240.08,-870.17"/>
<polygon fill="#63b8ff" stroke="#63b8ff" points="327.68,-454.41 324.37,-444.35 320.68,-454.28 327.68,-454.41"/>
</a>
</g>
</g>
<!-- Node7 -->
<g id="Node000007" class="node">
<title>Node7</title>
<g id="a_Node000007"><a xlink:href="structOrbitIntegrator.html#a3ed19521cfc21cdaa2d7c8fa4f385499" target="_top" xlink:title=" ">
<path fill="#fff0f0" stroke="red" d="M249,-848.5C249,-848.5 132,-848.5 132,-848.5 127,-848.5 122,-843.5 122,-838.5 122,-838.5 122,-828.5 122,-828.5 122,-823.5 127,-818.5 132,-818.5 132,-818.5 249,-818.5 249,-818.5 254,-818.5 259,-823.5 259,-828.5 259,-828.5 259,-838.5 259,-838.5 259,-843.5 254,-848.5 249,-848.5"/>
<text text-anchor="start" x="130" y="-836.5" font-family="Helvetica,sans-Serif" font-size="10.00">OrbitIntegrator::compute</text>
<text text-anchor="middle" x="190.5" y="-825.5" font-family="Helvetica,sans-Serif" font-size="10.00">Acceleration</text>
</a>
</g>
</g>
<!-- Node1&#45;&gt;Node7 -->
<g id="edge2_Node000001_Node000007" class="edge">
<title>Node1&#45;&gt;Node7</title>
<g id="a_edge2_Node000001_Node000007"><a xlink:title=" ">
<path fill="none" stroke="#63b8ff" d="M323.62,-454.22C320.15,-523.52 305.24,-754.72 259,-809.5 256.11,-812.92 252.7,-815.86 248.97,-818.37"/>
<polygon fill="#63b8ff" stroke="#63b8ff" points="327.12,-454.36 324.1,-444.2 320.12,-454.03 327.12,-454.36"/>
</a>
</g>
</g>
<!-- Node9 -->
<g id="Node000009" class="node">
<title>Node9</title>
<g id="a_Node000009"><a xlink:href="localAtmosRegion_8cpp.html#a4f2c14c2994a3bb5761636e9196b34e8" target="_top" xlink:title=" ">
<path fill="#fff0f0" stroke="red" d="M242.17,-800C242.17,-800 138.83,-800 138.83,-800 135.67,-800 132.5,-796.83 132.5,-793.67 132.5,-793.67 132.5,-787.33 132.5,-787.33 132.5,-784.17 135.67,-781 138.83,-781 138.83,-781 242.17,-781 242.17,-781 245.33,-781 248.5,-784.17 248.5,-787.33 248.5,-787.33 248.5,-793.67 248.5,-793.67 248.5,-796.83 245.33,-800 242.17,-800"/>
<text text-anchor="middle" x="190.5" y="-788" font-family="Helvetica,sans-Serif" font-size="10.00">configAtmosRegions</text>
</a>
</g>
</g>
<!-- Node1&#45;&gt;Node9 -->
<g id="edge3_Node000001_Node000009" class="edge">
<title>Node1&#45;&gt;Node9</title>
<g id="a_edge3_Node000001_Node000009"><a xlink:title=" ">
<path fill="none" stroke="#63b8ff" d="M323.35,-454.47C319.18,-519.79 302.76,-725.6 259,-772.5 255.86,-775.87 252.16,-778.64 248.14,-780.9"/>
<polygon fill="#63b8ff" stroke="#63b8ff" points="326.85,-454.48 323.97,-444.29 319.87,-454.05 326.85,-454.48"/>
</a>
</g>
</g>
<!-- Node10 -->
<g id="Node000010" class="node">
<title>Node10</title>
<g id="a_Node000010"><a xlink:href="debug_8cpp.html#a25e72c6bf87e11fee70e99be7816a530" target="_top" xlink:title=" ">
<path fill="#fff0f0" stroke="red" d="M219.17,-763C219.17,-763 161.83,-763 161.83,-763 158.67,-763 155.5,-759.83 155.5,-756.67 155.5,-756.67 155.5,-750.33 155.5,-750.33 155.5,-747.17 158.67,-744 161.83,-744 161.83,-744 219.17,-744 219.17,-744 222.33,-744 225.5,-747.17 225.5,-750.33 225.5,-750.33 225.5,-756.67 225.5,-756.67 225.5,-759.83 222.33,-763 219.17,-763"/>
<text text-anchor="middle" x="190.5" y="-751" font-family="Helvetica,sans-Serif" font-size="10.00">debugIGRF</text>
</a>
</g>
</g>
<!-- Node1&#45;&gt;Node10 -->
<g id="edge4_Node000001_Node000010" class="edge">
<title>Node1&#45;&gt;Node10</title>
<g id="a_edge4_Node000001_Node000010"><a xlink:title=" ">
<path fill="none" stroke="#63b8ff" d="M322.85,-454.22C317.43,-514.45 298.2,-694.44 259,-735.5 250.37,-744.54 237.76,-749.21 225.77,-751.58"/>
<polygon fill="#63b8ff" stroke="#63b8ff" points="326.35,-454.4 323.73,-444.13 319.38,-453.79 326.35,-454.4"/>
</a>
</g>
</g>
<!-- Node11 -->
<g id="Node000011" class="node">
<title>Node11</title>
<g id="a_Node000011"><a xlink:href="spp_8cpp.html#ad923112e4e6dfdfc8b050b68851fe1d0" target="_top" xlink:title="Estimate receiver position and biases using code measurements.">
<path fill="#fff0f0" stroke="red" d="M208.67,-726C208.67,-726 172.33,-726 172.33,-726 169.17,-726 166,-722.83 166,-719.67 166,-719.67 166,-713.33 166,-713.33 166,-710.17 169.17,-707 172.33,-707 172.33,-707 208.67,-707 208.67,-707 211.83,-707 215,-710.17 215,-713.33 215,-713.33 215,-719.67 215,-719.67 215,-722.83 211.83,-726 208.67,-726"/>
<text text-anchor="middle" x="190.5" y="-714" font-family="Helvetica,sans-Serif" font-size="10.00">estpos</text>
</a>
</g>
</g>
<!-- Node1&#45;&gt;Node11 -->
<g id="edge5_Node000001_Node000011" class="edge">
<title>Node1&#45;&gt;Node11</title>
<g id="a_edge5_Node000001_Node000011"><a xlink:title=" ">
<path fill="none" stroke="#63b8ff" d="M322.2,-454.27C315.38,-509.43 293.61,-663.28 259,-698.5 247.61,-710.09 229.65,-714.48 215.12,-716.03"/>
<polygon fill="#63b8ff" stroke="#63b8ff" points="325.7,-454.42 323.42,-444.08 318.75,-453.59 325.7,-454.42"/>
</a>
</g>
</g>
<!-- Node16 -->
<g id="Node000016" class="node">
<title>Node16</title>
<g id="a_Node000016"><a xlink:href="ionoLocalSTEC_8cpp.html#a4ac0ae5657ac53a7056034344425230a" target="_top" xlink:title=" ">
<path fill="#fff0f0" stroke="red" d="M231.67,-689C231.67,-689 149.33,-689 149.33,-689 146.17,-689 143,-685.83 143,-682.67 143,-682.67 143,-676.33 143,-676.33 143,-673.17 146.17,-670 149.33,-670 149.33,-670 231.67,-670 231.67,-670 234.83,-670 238,-673.17 238,-676.33 238,-676.33 238,-682.67 238,-682.67 238,-685.83 234.83,-689 231.67,-689"/>
<text text-anchor="middle" x="190.5" y="-677" font-family="Helvetica,sans-Serif" font-size="10.00">getCmpSSRIono</text>
</a>
</g>
</g>
<!-- Node1&#45;&gt;Node16 -->
<g id="edge6_Node000001_Node000016" class="edge">
<title>Node1&#45;&gt;Node16</title>
<g id="a_edge6_Node000001_Node000016"><a xlink:title=" ">
<path fill="none" stroke="#63b8ff" d="M324.33,-454.63C322.87,-497.38 313.47,-598.04 259,-655.5 253.01,-661.82 245.25,-666.48 237.13,-669.91"/>
<polygon fill="#63b8ff" stroke="#63b8ff" points="327.83,-454.48 324.56,-444.41 320.83,-454.32 327.83,-454.48"/>
</a>
</g>
</g>
<!-- Node21 -->
<g id="Node000021" class="node">
<title>Node21</title>
<g id="a_Node000021"><a xlink:href="ionoSpherical_8cpp.html#ad01dd353d17b69b39684a5bb3169fea5" target="_top" xlink:title=" ">
<path fill="#fff0f0" stroke="red" d="M79.67,-613C79.67,-613 6.33,-613 6.33,-613 3.17,-613 0,-609.83 0,-606.67 0,-606.67 0,-600.33 0,-600.33 0,-597.17 3.17,-594 6.33,-594 6.33,-594 79.67,-594 79.67,-594 82.83,-594 86,-597.17 86,-600.33 86,-600.33 86,-606.67 86,-606.67 86,-609.83 82.83,-613 79.67,-613"/>
<text text-anchor="middle" x="43" y="-601" font-family="Helvetica,sans-Serif" font-size="10.00">getEpcSsrIono</text>
</a>
</g>
</g>
<!-- Node1&#45;&gt;Node21 -->
<g id="edge7_Node000001_Node000021" class="edge">
<title>Node1&#45;&gt;Node21</title>
<g id="a_edge7_Node000001_Node000021"><a xlink:title=" ">
<path fill="none" stroke="#63b8ff" d="M324.49,-454.11C323.29,-493.81 314.25,-583.24 259,-622.5 198.98,-665.15 104.43,-631.13 63.72,-613.01"/>
<polygon fill="#63b8ff" stroke="#63b8ff" points="327.99,-454.17 324.66,-444.11 321,-454.05 327.99,-454.17"/>
</a>
</g>
</g>
<!-- Node23 -->
<g id="Node000023" class="node">
<title>Node23</title>
<g id="a_Node000023"><a xlink:href="ionoSphericalCaps_8cpp.html#af953ae8b4e5d94daecada20e21dd59a2" target="_top" xlink:title="transforms the Ionosphere Piercing Point and checks if it falls in area of coverage time: I time of o...">
<path fill="#fff0f0" stroke="red" d="M232.67,-613C232.67,-613 148.33,-613 148.33,-613 145.17,-613 142,-609.83 142,-606.67 142,-606.67 142,-600.33 142,-600.33 142,-597.17 145.17,-594 148.33,-594 148.33,-594 232.67,-594 232.67,-594 235.83,-594 239,-597.17 239,-600.33 239,-600.33 239,-606.67 239,-606.67 239,-609.83 235.83,-613 232.67,-613"/>
<text text-anchor="middle" x="190.5" y="-601" font-family="Helvetica,sans-Serif" font-size="10.00">ippCheckSphcap</text>
</a>
</g>
</g>
<!-- Node1&#45;&gt;Node23 -->
<g id="edge8_Node000001_Node000023" class="edge">
<title>Node1&#45;&gt;Node23</title>
<g id="a_edge8_Node000001_Node000023"><a xlink:title=" ">
<path fill="none" stroke="#63b8ff" d="M321.53,-454.38C315.61,-486.78 299.28,-550.8 259,-585.5 253.3,-590.41 246.41,-593.99 239.22,-596.61"/>
<polygon fill="#63b8ff" stroke="#63b8ff" points="325.01,-454.78 323.2,-444.34 318.1,-453.63 325.01,-454.78"/>
</a>
</g>
</g>
<!-- Node32 -->
<g id="Node000032" class="node">
<title>Node32</title>
<g id="a_Node000032"><a xlink:href="ionoSpherical_8cpp.html#a5b7bfe4a5b9c8c410133e7e6efbfc753" target="_top" xlink:title="rotates the Ionosphere piercing point time: I time of observations (to update the rotation matrix) IP...">
<path fill="#fff0f0" stroke="red" d="M231.67,-576C231.67,-576 149.33,-576 149.33,-576 146.17,-576 143,-572.83 143,-569.67 143,-569.67 143,-563.33 143,-563.33 143,-560.17 146.17,-557 149.33,-557 149.33,-557 231.67,-557 231.67,-557 234.83,-557 238,-560.17 238,-563.33 238,-563.33 238,-569.67 238,-569.67 238,-572.83 234.83,-576 231.67,-576"/>
<text text-anchor="middle" x="190.5" y="-564" font-family="Helvetica,sans-Serif" font-size="10.00">ippCheckSphhar</text>
</a>
</g>
</g>
<!-- Node1&#45;&gt;Node32 -->
<g id="edge9_Node000001_Node000032" class="edge">
<title>Node1&#45;&gt;Node32</title>
<g id="a_edge9_Node000001_Node000032"><a xlink:title=" ">
<path fill="none" stroke="#63b8ff" d="M317.64,-453.5C308.06,-477.48 288.47,-518.49 259,-542.5 251.29,-548.78 241.8,-553.48 232.41,-556.98"/>
<polygon fill="#63b8ff" stroke="#63b8ff" points="320.94,-454.67 321.24,-444.08 314.4,-452.17 320.94,-454.67"/>
</a>
</g>
</g>
<!-- Node34 -->
<g id="Node000034" class="node">
<title>Node34</title>
<g id="a_Node000034"><a xlink:href="minimumConstraints_8cpp.html#aa40934b017f373d875c3470591eff52e" target="_top" xlink:title=" ">
<path fill="#fff0f0" stroke="red" d="M63.17,-500C63.17,-500 22.83,-500 22.83,-500 19.67,-500 16.5,-496.83 16.5,-493.67 16.5,-493.67 16.5,-487.33 16.5,-487.33 16.5,-484.17 19.67,-481 22.83,-481 22.83,-481 63.17,-481 63.17,-481 66.33,-481 69.5,-484.17 69.5,-487.33 69.5,-487.33 69.5,-493.67 69.5,-493.67 69.5,-496.83 66.33,-500 63.17,-500"/>
<text text-anchor="middle" x="43" y="-488" font-family="Helvetica,sans-Serif" font-size="10.00">mincon</text>
</a>
</g>
</g>
<!-- Node1&#45;&gt;Node34 -->
<g id="edge11_Node000001_Node000034" class="edge">
<title>Node1&#45;&gt;Node34</title>
<g id="a_edge11_Node000001_Node000034"><a xlink:title=" ">
<path fill="none" stroke="#63b8ff" d="M314.46,-453.3C303.55,-471.52 284.23,-498.04 259,-509.5 195.03,-538.56 109.43,-514.86 68.2,-500.1"/>
<polygon fill="#63b8ff" stroke="#63b8ff" points="317.75,-454.6 319.65,-444.18 311.66,-451.14 317.75,-454.6"/>
</a>
</g>
</g>
<!-- Node41 -->
<g id="Node000041" class="node">
<title>Node41</title>
<g id="a_Node000041"><a xlink:href="minimumConstraints_8cpp.html#ad6ae3cccdb74463ea328f08da634a458" target="_top" xlink:title=" ">
<path fill="#fff0f0" stroke="red" d="M225.67,-500C225.67,-500 155.33,-500 155.33,-500 152.17,-500 149,-496.83 149,-493.67 149,-493.67 149,-487.33 149,-487.33 149,-484.17 152.17,-481 155.33,-481 155.33,-481 225.67,-481 225.67,-481 228.83,-481 232,-484.17 232,-487.33 232,-487.33 232,-493.67 232,-493.67 232,-496.83 228.83,-500 225.67,-500"/>
<text text-anchor="middle" x="190.5" y="-488" font-family="Helvetica,sans-Serif" font-size="10.00">minOrbitData</text>
</a>
</g>
</g>
<!-- Node1&#45;&gt;Node41 -->
<g id="edge12_Node000001_Node000041" class="edge">
<title>Node1&#45;&gt;Node41</title>
<g id="a_edge12_Node000001_Node000041"><a xlink:title=" ">
<path fill="none" stroke="#63b8ff" d="M301.28,-449.43C289.05,-456.81 273.61,-465.42 259,-471.5 250.35,-475.1 240.79,-478.25 231.66,-480.9"/>
<polygon fill="#63b8ff" stroke="#63b8ff" points="303.26,-452.32 309.93,-444.08 299.58,-446.36 303.26,-452.32"/>
</a>
</g>
</g>
<!-- Node42 -->
<g id="Node000042" class="node">
<title>Node42</title>
<g id="a_Node000042"><a xlink:href="minimumConstraints_8cpp.html#abb849f43f8ddc113a68e426f98df6b22" target="_top" xlink:title=" ">
<path fill="#fff0f0" stroke="red" d="M222.67,-463C222.67,-463 158.33,-463 158.33,-463 155.17,-463 152,-459.83 152,-456.67 152,-456.67 152,-450.33 152,-450.33 152,-447.17 155.17,-444 158.33,-444 158.33,-444 222.67,-444 222.67,-444 225.83,-444 229,-447.17 229,-450.33 229,-450.33 229,-456.67 229,-456.67 229,-459.83 225.83,-463 222.67,-463"/>
<text text-anchor="middle" x="190.5" y="-451" font-family="Helvetica,sans-Serif" font-size="10.00">minSiteData</text>
</a>
</g>
</g>
<!-- Node1&#45;&gt;Node42 -->
<g id="edge14_Node000001_Node000042" class="edge">
<title>Node1&#45;&gt;Node42</title>
<g id="a_edge14_Node000001_Node000042"><a xlink:title=" ">
<path fill="none" stroke="#63b8ff" d="M284.96,-440.15C267.27,-442.68 246.5,-445.64 229.04,-448.14"/>
<polygon fill="#63b8ff" stroke="#63b8ff" points="285.58,-443.6 294.98,-438.72 284.59,-436.67 285.58,-443.6"/>
</a>
</g>
</g>
<!-- Node31 -->
<g id="Node000031" class="node">
<title>Node31</title>
<g id="a_Node000031"><a xlink:href="ionoMeas_8cpp.html#ab3f111d5e6d66de4751fbce467a29372" target="_top" xlink:title=" ">
<path fill="#fff0f0" stroke="red" d="M223.17,-426C223.17,-426 157.83,-426 157.83,-426 154.67,-426 151.5,-422.83 151.5,-419.67 151.5,-419.67 151.5,-413.33 151.5,-413.33 151.5,-410.17 154.67,-407 157.83,-407 157.83,-407 223.17,-407 223.17,-407 226.33,-407 229.5,-410.17 229.5,-413.33 229.5,-413.33 229.5,-419.67 229.5,-419.67 229.5,-422.83 226.33,-426 223.17,-426"/>
<text text-anchor="middle" x="190.5" y="-414" font-family="Helvetica,sans-Serif" font-size="10.00">obsIonoData</text>
</a>
</g>
</g>
<!-- Node1&#45;&gt;Node31 -->
<g id="edge16_Node000001_Node000031" class="edge">
<title>Node1&#45;&gt;Node31</title>
<g id="a_edge16_Node000001_Node000031"><a xlink:title=" ">
<path fill="none" stroke="#63b8ff" d="M285.05,-429.16C267.5,-426.79 246.92,-424 229.53,-421.65"/>
<polygon fill="#63b8ff" stroke="#63b8ff" points="284.6,-432.63 294.98,-430.51 285.54,-425.7 284.6,-432.63"/>
</a>
</g>
</g>
<!-- Node43 -->
<g id="Node000043" class="node">
<title>Node43</title>
<g id="a_Node000043"><a xlink:href="cost_8cpp.html#abc021ac32635abe4cf6daef44cabb888" target="_top" xlink:title="Outputs troposphere COST file.">
<path fill="#fff0f0" stroke="red" d="M219.17,-389C219.17,-389 161.83,-389 161.83,-389 158.67,-389 155.5,-385.83 155.5,-382.67 155.5,-382.67 155.5,-376.33 155.5,-376.33 155.5,-373.17 158.67,-370 161.83,-370 161.83,-370 219.17,-370 219.17,-370 222.33,-370 225.5,-373.17 225.5,-376.33 225.5,-376.33 225.5,-382.67 225.5,-382.67 225.5,-385.83 222.33,-389 219.17,-389"/>
<text text-anchor="middle" x="190.5" y="-377" font-family="Helvetica,sans-Serif" font-size="10.00">outputCost</text>
</a>
</g>
</g>
<!-- Node1&#45;&gt;Node43 -->
<g id="edge17_Node000001_Node000043" class="edge">
<title>Node1&#45;&gt;Node43</title>
<g id="a_edge17_Node000001_Node000043"><a xlink:title=" ">
<path fill="none" stroke="#63b8ff" d="M301.31,-419.49C289.1,-412.08 273.65,-403.48 259,-397.5 248.44,-393.19 236.54,-389.62 225.7,-386.83"/>
<polygon fill="#63b8ff" stroke="#63b8ff" points="299.61,-422.55 309.95,-424.86 303.31,-416.61 299.61,-422.55"/>
</a>
</g>
</g>
<!-- Node44 -->
<g id="Node000044" class="node">
<title>Node44</title>
<g id="a_Node000044"><a xlink:href="interpolate__loading_8cpp.html#a98f7bd618e2c0a14e80b1b1f026aff06" target="_top" xlink:title=" ">
<path fill="#fff0f0" stroke="red" d="M233.67,-352C233.67,-352 147.33,-352 147.33,-352 144.17,-352 141,-348.83 141,-345.67 141,-345.67 141,-339.33 141,-339.33 141,-336.17 144.17,-333 147.33,-333 147.33,-333 233.67,-333 233.67,-333 236.83,-333 240,-336.17 240,-339.33 240,-339.33 240,-345.67 240,-345.67 240,-348.83 236.83,-352 233.67,-352"/>
<text text-anchor="middle" x="190.5" y="-340" font-family="Helvetica,sans-Serif" font-size="10.00">program_options</text>
</a>
</g>
</g>
<!-- Node1&#45;&gt;Node44 -->
<g id="edge18_Node000001_Node000044" class="edge">
<title>Node1&#45;&gt;Node44</title>
<g id="a_edge18_Node000001_Node000044"><a xlink:title=" ">
<path fill="none" stroke="#63b8ff" d="M313.14,-416.46C301.55,-399.53 282.03,-374.73 259,-360.5 253.22,-356.93 246.74,-354.06 240.14,-351.76"/>
<polygon fill="#63b8ff" stroke="#63b8ff" points="310.31,-418.53 318.74,-424.95 316.15,-414.67 310.31,-418.53"/>
</a>
</g>
</g>
<!-- Node46 -->
<g id="Node000046" class="node">
<title>Node46</title>
<g id="a_Node000046"><a xlink:href="ppp__slr_8cpp.html#aa76f9747fdfc064d7ec64ae8d163fb86" target="_top" xlink:title=" ">
<path fill="#fff0f0" stroke="red" d="M218.67,-315C218.67,-315 162.33,-315 162.33,-315 159.17,-315 156,-311.83 156,-308.67 156,-308.67 156,-302.33 156,-302.33 156,-299.17 159.17,-296 162.33,-296 162.33,-296 218.67,-296 218.67,-296 221.83,-296 225,-299.17 225,-302.33 225,-302.33 225,-308.67 225,-308.67 225,-311.83 221.83,-315 218.67,-315"/>
<text text-anchor="middle" x="190.5" y="-303" font-family="Helvetica,sans-Serif" font-size="10.00">receiverSlr</text>
</a>
</g>
</g>
<!-- Node1&#45;&gt;Node46 -->
<g id="edge19_Node000001_Node000046" class="edge">
<title>Node1&#45;&gt;Node46</title>
<g id="a_edge19_Node000001_Node000046"><a xlink:title=" ">
<path fill="none" stroke="#63b8ff" d="M318.35,-415.3C309.35,-390.35 290.19,-347.17 259,-323.5 249.24,-316.1 236.68,-311.73 225.04,-309.16"/>
<polygon fill="#63b8ff" stroke="#63b8ff" points="315.04,-416.44 321.59,-424.77 321.66,-414.18 315.04,-416.44"/>
</a>
</g>
</g>
<!-- Node47 -->
<g id="Node000047" class="node">
<title>Node47</title>
<g id="a_Node000047"><a xlink:href="ppp__obs_8cpp.html#a2a01ea8204bc0ae172ffc50a28623f9e" target="_top" xlink:title=" ">
<path fill="#fff0f0" stroke="red" d="M236.67,-278C236.67,-278 144.33,-278 144.33,-278 141.17,-278 138,-274.83 138,-271.67 138,-271.67 138,-265.33 138,-265.33 138,-262.17 141.17,-259 144.33,-259 144.33,-259 236.67,-259 236.67,-259 239.83,-259 243,-262.17 243,-265.33 243,-265.33 243,-271.67 243,-271.67 243,-274.83 239.83,-278 236.67,-278"/>
<text text-anchor="middle" x="190.5" y="-266" font-family="Helvetica,sans-Serif" font-size="10.00">receiverUducGnss</text>
</a>
</g>
</g>
<!-- Node1&#45;&gt;Node47 -->
<g id="edge20_Node000001_Node000047" class="edge">
<title>Node1&#45;&gt;Node47</title>
<g id="a_edge20_Node000001_Node000047"><a xlink:title=" ">
<path fill="none" stroke="#63b8ff" d="M321.32,-414.59C315.17,-382.7 298.56,-320.33 259,-286.5 254.39,-282.56 249.01,-279.47 243.33,-277.05"/>
<polygon fill="#63b8ff" stroke="#63b8ff" points="317.95,-415.61 323.14,-424.85 324.84,-414.39 317.95,-415.61"/>
</a>
</g>
</g>
<!-- Node48 -->
<g id="Node000048" class="node">
<title>Node48</title>
<g id="a_Node000048"><a xlink:href="ppp_8cpp.html#a147ea2bf0bd356bafdb785a868364b5f" target="_top" xlink:title=" ">
<path fill="#fff0f0" stroke="red" d="M239.67,-241C239.67,-241 141.33,-241 141.33,-241 138.17,-241 135,-237.83 135,-234.67 135,-234.67 135,-228.33 135,-228.33 135,-225.17 138.17,-222 141.33,-222 141.33,-222 239.67,-222 239.67,-222 242.83,-222 246,-225.17 246,-228.33 246,-228.33 246,-234.67 246,-234.67 246,-237.83 242.83,-241 239.67,-241"/>
<text text-anchor="middle" x="190.5" y="-229" font-family="Helvetica,sans-Serif" font-size="10.00">selectAprioriSource</text>
</a>
</g>
</g>
<!-- Node1&#45;&gt;Node48 -->
<g id="edge21_Node000001_Node000048" class="edge">
<title>Node1&#45;&gt;Node48</title>
<g id="a_edge21_Node000001_Node000048"><a xlink:title=" ">
<path fill="none" stroke="#63b8ff" d="M323.33,-414.53C320.01,-376.63 307.32,-294.12 259,-249.5 255.26,-246.04 250.93,-243.24 246.3,-240.96"/>
<polygon fill="#63b8ff" stroke="#63b8ff" points="319.86,-415.05 324.09,-424.76 326.84,-414.53 319.86,-415.05"/>
</a>
</g>
</g>
<!-- Node49 -->
<g id="Node000049" class="node">
<title>Node49</title>
<g id="a_Node000049"><a xlink:href="tropSinex_8cpp.html#ad57f3048f1df0be47d338e2a87bea7ae" target="_top" xlink:title="Set troposphere solution data from filter.">
<path fill="#fff0f0" stroke="red" d="M242.17,-204C242.17,-204 138.83,-204 138.83,-204 135.67,-204 132.5,-200.83 132.5,-197.67 132.5,-197.67 132.5,-191.33 132.5,-191.33 132.5,-188.17 135.67,-185 138.83,-185 138.83,-185 242.17,-185 242.17,-185 245.33,-185 248.5,-188.17 248.5,-191.33 248.5,-191.33 248.5,-197.67 248.5,-197.67 248.5,-200.83 245.33,-204 242.17,-204"/>
<text text-anchor="middle" x="190.5" y="-192" font-family="Helvetica,sans-Serif" font-size="10.00">setTropSolFromFilter</text>
</a>
</g>
</g>
<!-- Node1&#45;&gt;Node49 -->
<g id="edge22_Node000001_Node000049" class="edge">
<title>Node1&#45;&gt;Node49</title>
<g id="a_edge22_Node000001_Node000049"><a xlink:title=" ">
<path fill="none" stroke="#63b8ff" d="M324.73,-414.81C324.1,-371.7 316.34,-268.35 259,-212.5 255.52,-209.12 251.49,-206.35 247.15,-204.09"/>
<polygon fill="#63b8ff" stroke="#63b8ff" points="321.23,-414.86 324.75,-424.85 328.23,-414.84 321.23,-414.86"/>
</a>
</g>
</g>
<!-- Node52 -->
<g id="Node000052" class="node">
<title>Node52</title>
<g id="a_Node000052"><a xlink:href="tides_8cpp.html#a8c1ecf974982e1054a68a0eb279a45d5" target="_top" xlink:title=" ">
<path fill="#fff0f0" stroke="red" d="M212.67,-167C212.67,-167 168.33,-167 168.33,-167 165.17,-167 162,-163.83 162,-160.67 162,-160.67 162,-154.33 162,-154.33 162,-151.17 165.17,-148 168.33,-148 168.33,-148 212.67,-148 212.67,-148 215.83,-148 219,-151.17 219,-154.33 219,-154.33 219,-160.67 219,-160.67 219,-163.83 215.83,-167 212.67,-167"/>
<text text-anchor="middle" x="190.5" y="-155" font-family="Helvetica,sans-Serif" font-size="10.00">tideDisp</text>
</a>
</g>
</g>
<!-- Node1&#45;&gt;Node52 -->
<g id="edge23_Node000001_Node000052" class="edge">
<title>Node1&#45;&gt;Node52</title>
<g id="a_edge23_Node000001_Node000052"><a xlink:title=" ">
<path fill="none" stroke="#63b8ff" d="M322.1,-414.74C315.09,-360.3 292.99,-209.94 259,-175.5 248.61,-164.97 232.79,-160.39 219.08,-158.48"/>
<polygon fill="#63b8ff" stroke="#63b8ff" points="318.64,-415.33 323.36,-424.82 325.59,-414.46 318.64,-415.33"/>
</a>
</g>
</g>
<!-- Node56 -->
<g id="Node000056" class="node">
<title>Node56</title>
<g id="a_Node000056"><a xlink:href="gpx_8cpp.html#af9cdc05b3e40dc1ffa48b4ff09d108c8" target="_top" xlink:title=" ">
<path fill="#fff0f0" stroke="red" d="M227.67,-130C227.67,-130 153.33,-130 153.33,-130 150.17,-130 147,-126.83 147,-123.67 147,-123.67 147,-117.33 147,-117.33 147,-114.17 150.17,-111 153.33,-111 153.33,-111 227.67,-111 227.67,-111 230.83,-111 234,-114.17 234,-117.33 234,-117.33 234,-123.67 234,-123.67 234,-126.83 230.83,-130 227.67,-130"/>
<text text-anchor="middle" x="190.5" y="-118" font-family="Helvetica,sans-Serif" font-size="10.00">writeGPXEntry</text>
</a>
</g>
</g>
<!-- Node1&#45;&gt;Node56 -->
<g id="edge24_Node000001_Node000056" class="edge">
<title>Node1&#45;&gt;Node56</title>
<g id="a_edge24_Node000001_Node000056"><a xlink:title=" ">
<path fill="none" stroke="#63b8ff" d="M322.77,-414.71C317.16,-355.09 297.57,-178.76 259,-138.5 252.37,-131.58 243.41,-127.22 234.18,-124.49"/>
<polygon fill="#63b8ff" stroke="#63b8ff" points="319.29,-415.08 323.68,-424.72 326.26,-414.44 319.29,-415.08"/>
</a>
</g>
</g>
<!-- Node58 -->
<g id="Node000058" class="node">
<title>Node58</title>
<g id="a_Node000058"><a xlink:href="pos_8cpp.html#afbd1387aa03f2c5caca0ef70fda36795" target="_top" xlink:title=" ">
<path fill="#fff0f0" stroke="red" d="M227.17,-93C227.17,-93 153.83,-93 153.83,-93 150.67,-93 147.5,-89.83 147.5,-86.67 147.5,-86.67 147.5,-80.33 147.5,-80.33 147.5,-77.17 150.67,-74 153.83,-74 153.83,-74 227.17,-74 227.17,-74 230.33,-74 233.5,-77.17 233.5,-80.33 233.5,-80.33 233.5,-86.67 233.5,-86.67 233.5,-89.83 230.33,-93 227.17,-93"/>
<text text-anchor="middle" x="190.5" y="-81" font-family="Helvetica,sans-Serif" font-size="10.00">writePOSEntry</text>
</a>
</g>
</g>
<!-- Node1&#45;&gt;Node58 -->
<g id="edge25_Node000001_Node000058" class="edge">
<title>Node1&#45;&gt;Node58</title>
<g id="a_edge25_Node000001_Node000058"><a xlink:title=" ">
<path fill="none" stroke="#63b8ff" d="M323.3,-414.82C319,-350.46 302.2,-147.67 259,-101.5 252.29,-94.33 243.07,-89.89 233.59,-87.18"/>
<polygon fill="#63b8ff" stroke="#63b8ff" points="319.82,-415.1 323.95,-424.86 326.8,-414.65 319.82,-415.1"/>
</a>
</g>
</g>
<!-- Node60 -->
<g id="Node000060" class="node">
<title>Node60</title>
<g id="a_Node000060"><a xlink:href="pos_8cpp.html#a4b91c67a13824995cf263e892c6e1ab3" target="_top" xlink:title=" ">
<path fill="#fff0f0" stroke="red" d="M232.17,-56C232.17,-56 148.83,-56 148.83,-56 145.67,-56 142.5,-52.83 142.5,-49.67 142.5,-49.67 142.5,-43.33 142.5,-43.33 142.5,-40.17 145.67,-37 148.83,-37 148.83,-37 232.17,-37 232.17,-37 235.33,-37 238.5,-40.17 238.5,-43.33 238.5,-43.33 238.5,-49.67 238.5,-49.67 238.5,-52.83 235.33,-56 232.17,-56"/>
<text text-anchor="middle" x="190.5" y="-44" font-family="Helvetica,sans-Serif" font-size="10.00">writePOSHeader</text>
</a>
</g>
</g>
<!-- Node1&#45;&gt;Node60 -->
<g id="edge26_Node000001_Node000060" class="edge">
<title>Node1&#45;&gt;Node60</title>
<g id="a_edge26_Node000001_Node000060"><a xlink:title=" ">
<path fill="none" stroke="#63b8ff" d="M323.71,-414.48C320.58,-345.13 306.75,-116.51 259,-64.5 253.5,-58.51 246.26,-54.43 238.56,-51.66"/>
<polygon fill="#63b8ff" stroke="#63b8ff" points="320.23,-415.01 324.15,-424.86 327.23,-414.72 320.23,-415.01"/>
</a>
</g>
</g>
<!-- Node61 -->
<g id="Node000061" class="node">
<title>Node61</title>
<g id="a_Node000061"><a xlink:href="tropSinex_8cpp.html#a1faee2ac53f3a75f110a3d3fadd79354" target="_top" xlink:title="Write SITE/ID block.">
<path fill="#fff0f0" stroke="red" d="M228.67,-19C228.67,-19 152.33,-19 152.33,-19 149.17,-19 146,-15.83 146,-12.67 146,-12.67 146,-6.33 146,-6.33 146,-3.17 149.17,0 152.33,0 152.33,0 228.67,0 228.67,0 231.83,0 235,-3.17 235,-6.33 235,-6.33 235,-12.67 235,-12.67 235,-15.83 231.83,-19 228.67,-19"/>
<text text-anchor="middle" x="190.5" y="-7" font-family="Helvetica,sans-Serif" font-size="10.00">writeTropSiteId</text>
</a>
</g>
</g>
<!-- Node1&#45;&gt;Node61 -->
<g id="edge27_Node000001_Node000061" class="edge">
<title>Node1&#45;&gt;Node61</title>
<g id="a_edge27_Node000001_Node000061"><a xlink:title=" ">
<path fill="none" stroke="#63b8ff" d="M324.07,-414.41C322.06,-340.57 311.38,-85.46 259,-27.5 252.74,-20.57 244.14,-16.18 235.17,-13.43"/>
<polygon fill="#63b8ff" stroke="#63b8ff" points="320.57,-414.74 324.32,-424.65 327.57,-414.56 320.57,-414.74"/>
</a>
</g>
</g>
<!-- Node32&#45;&gt;Node21 -->
<g id="edge10_Node000032_Node000021" class="edge">
<title>Node32&#45;&gt;Node21</title>
<g id="a_edge10_Node000032_Node000021"><a xlink:title=" ">
<path fill="none" stroke="#63b8ff" d="M142.34,-578.49C122.66,-583.5 100.13,-589.23 81.6,-593.94"/>
<polygon fill="#63b8ff" stroke="#63b8ff" points="143.2,-581.89 152.03,-576.03 141.48,-575.1 143.2,-581.89"/>
</a>
</g>
</g>
<!-- Node41&#45;&gt;Node34 -->
<g id="edge13_Node000041_Node000034" class="edge">
<title>Node41&#45;&gt;Node34</title>
<g id="a_edge13_Node000041_Node000034"><a xlink:title=" ">
<path fill="none" stroke="#63b8ff" d="M138.86,-490.5C115.5,-490.5 88.79,-490.5 69.67,-490.5"/>
<polygon fill="#63b8ff" stroke="#63b8ff" points="138.97,-494 148.97,-490.5 138.97,-487 138.97,-494"/>
</a>
</g>
</g>
<!-- Node42&#45;&gt;Node34 -->
<g id="edge15_Node000042_Node000034" class="edge">
<title>Node42&#45;&gt;Node34</title>
<g id="a_edge15_Node000042_Node000034"><a xlink:title=" ">
<path fill="none" stroke="#63b8ff" d="M142.04,-465.57C118.04,-471.67 89.86,-478.84 69.88,-483.92"/>
<polygon fill="#63b8ff" stroke="#63b8ff" points="143.2,-468.89 152.03,-463.03 141.48,-462.1 143.2,-468.89"/>
</a>
</g>
</g>
</g>
</svg>
